<svg xmlns="http://www.w3.org/2000/svg" preserveAspectRatio="none" viewBox="0 0 378 292"><defs><clipPath id="s29na"><path fill="#fff" d="M7.485 20.238L357.763.141c4.03-.231 7.469 3.158 7.68 7.57l12.238 255.65c.211 4.412-2.885 8.176-6.915 8.407L20.488 291.865c-4.03.232-7.468-3.158-7.68-7.57L.57 28.645c-.211-4.411 2.885-8.176 6.915-8.407z"/></clipPath></defs><g><g><path fill="none" stroke="#c7c9d6" stroke-dasharray="1 1" stroke-miterlimit="50" stroke-width="2" d="M7.485 20.238L357.763.141c4.03-.231 7.469 3.158 7.68 7.57l12.238 255.65c.211 4.412-2.885 8.176-6.915 8.407L20.488 291.865c-4.03.232-7.468-3.158-7.68-7.57L.57 28.645c-.211-4.411 2.885-8.176 6.915-8.407z" clip-path="url(&quot;#s29na&quot;)"/></g></g></svg>