<svg xmlns="http://www.w3.org/2000/svg" width="1459" height="1069" viewBox="0 0 1459 1069"><defs><linearGradient id="wgtoa" x1="1459" x2="0" y1="534.5" y2="534.5" gradientUnits="userSpaceOnUse"><stop offset="0" stop-color="#cc066f"/><stop offset="1" stop-color="#791e97"/></linearGradient></defs><g><g><path fill="url(#wgtoa)" d="M.068 40.695v-.077L0 40.66l.068.035zM30.492 32.4l-6.083-1.177.425-2.159c3.191.086 6.351-.515 7.574 1.292l-1.916 2.044zM36.677 32c-.922-.562-1.524-.926-3.234-1.965 3.95 0 6.74.115 9.49-.033 2.79-.152 5.541-.56 9.509-.986-1.596 1.472-2.555 2.36-3.645 3.366l-3.55-1.101c-.668.316-1.305.615-1.99.938l-4.154-1.272L36.677 32zm13.417 8.428c-.263.886-.394 1.335-.293.985l-3.707-.986zm3.634-9.317c-.967-1.999 1.229-2.47 2.248-2.855 3.203.35 5.526.722 7.877.83 2.818.13 6.279.654 8.358-.112 3.237-1.198 5.328.829 8.276.21v3.56c-2.387-.97-4.087-1.66-5.888-2.394-.547.251-1.367.628-2.226 1.02l-3.615-1.293c-1.253.427-2.394.82-3.508 1.2-.979-.35-1.834-.655-2.689-.962-1.036.679-.243 2.729-3.496 1.743-.459-.681-.913-1.36-1.457-2.17l-3.88 1.223zm30.744.505H82.7v-.339h1.772zm6.461.912h-.59v-1.02h.59zm14.12-1.748c-3.184 2.651-7.52 2.774-11.41 3.624.714-2.065 1.29-3.73 1.782-5.145 2.813-1.278 4.667 1.24 7.77-.035 2.097-.86 5.956-.163 9.447-.163-2.217 1.14-3.793 1.952-5.334 2.746l-2.255-1.027zm12.143 1.068c-.525.282-1.086.585-2.556 1.381.192-2.079.303-3.285.406-4.43 3.641-.234 6.062.19 6.561 2.198.142.566-.217 1.173-.427 2.122l-3.984-1.271zm8.136 1.403c-.941-1.112-1.808-2.12-2.62-3.144-.04-.052.385-.254.323-.217h18.674c-2.13 1.663-3.142 2.454-4.234 3.304-1.816-2.706-5.636.898-7.775-1.14-.156-.15-2.8.758-4.368 1.197zm20.31-.818l-4.885-1.073c4.805-.938 7.947-1.886 11.254-2.121 6.594-.473 12.533 1.428 18.744 2.034-1.386.996-2.552 1.832-3.315 2.379l-6.25-1.057-4.66-2.564-3.82.195a963.07 963.07 0 0 0-.73 2.702l-1.732.601-1.857-2.612c-1.562.861-2.568 1.414-2.75 1.516zm39.088 1.674c-4.123-.848-7.905-1.628-11.802-2.429.302-.593.542-1.066.634-1.252 12.74 0 25.142-.01 37.542.03.412 0 .822.473 1.222.719.626-.357 1.25-.716 1.637-.939 3.967.49 7.692.948 11.963 1.473-1.001.978-1.852 1.808-3.091 3.015-5.273-.643-10.578-1.29-16.941-2.068l-1.69 1.451c-3.668-.58-6.678-1.06-9.41-1.495-1.131.333-2.1.621-2.985.881a738.52 738.52 0 0 1-1.958-1.123c-1.9.646-3.75 1.274-5.121 1.737zm43.091.698c-.141-.933-.265-1.758-.465-3.068 1.83.291 2.994.477 4.684.748 4.38-.86 9.447-.962 14.557-.09.765.13 1.724.534 2.225.403 6.795-1.748 13.529.954 20.265.031 1.811-.249 3.577-.58 5.773-.941 1.233.572 2.682 1.249 4.39 2.043.93-.297 1.848-.595 2.96-.951l1.466.654c3.513-.353 7.002-.701 10.196-1.019l3.268 1.763c2.183-.216 4.242-.35 6.22-.638 1.88-.275 3.509-.247 5.538-.135 7.145.396 14.418.178 21.64.114.645-.004 1.275-.562 1.902-.86.517.257 1.086.538 1.797.893l-.188.589c.28.112.965.387 11.023-.006 2.541-.247 4.288-.436 5.501-.587.845-.025 1.69-.04 2.535-.051-1.312.114-3.674.304-8.036.638-2.719 1.36 3.498.37 9.438-.483 2.472-.355 1.897.646 3.787.318.022-.153.045-.339.069-.514 1.23-.098 2.59-.267 4.322-.403l1.6 1.19c3.65.442 7.094.201 10.357.157 2.01.301 4.036.662 6.194.428.675.134 1.341.303 1.996.525.508-.46 1.06-.7 1.635-.825l4.173 2.003 2.706-.91v1.684c-1.022 0-2.021.03-3.004.055a.06.06 0 0 1-.013-.01 54.463 54.463 0 0 0-4.93-.106c-1.098-.136-2.122-.002-3.09.175-1.043.09-2.06.23-3.07.387-.425-.016-.841-.07-1.247-.228-3.276-1.263-4.164 1.24-6.506.577l-2.312-.831c-.348.24-.703.397-1.062.52-4.523-.92-9.233-1.454-14.24-1.57-5.852-.136-11.958.98-17.557-.786-3.121 1.597-6.98.664-10.492.798-2.415.094-5.054.475-7.13-.857-2.066-1.327-3.734 1.53-6.646.289-1.186-.503-4.434.54-6.753.56-2.094.017-4.201-.403-7.245-.73-.07.027-.943.361-2.127.818-2.004.31-4.311-2.176-6.756-.124-1.8-1.685-5.258-.359-7.757-1.219-1.757-.603-4.781.89-6.793-.707-.788.302-1.413.575-2.1.79-.452.143-1.287.361-1.454.276-1.901-.99-3.787.002-5.524-.082-2.539-.126-4.952-.974-7.56-1.542-1.613 1.039-3.426 1.019-5.386-.355-4.237 1.312-8.67 1.84-12.755.035l-3.199 1.119-3.856-1.121c-.757.297-1.621.64-2.964 1.17zm68.675 20.022c.123-.339.223-.61.323-.882.69-.141 1.414-.292 2.207-.458h-2.038l.208-.572c1.951.256 3.628.476 5.3.698l-.248 1.214zm11.345.045h-.59v-1.016h.59zm7.522.127h-1.234l.392-.945c.25.022.498.045.748.07l.094.078zm82.154-16.754c-.984-.39-1.969-.779-3.821-1.51l4.468-.406c.225.567.38.955.532 1.341-.394.191-.785.384-1.179.575zm6.073-.795l-.774-1.407 1.722-.094v1.436c-.316.023-.632.045-.948.065zm7.068-1.076h-1.992v-.287h1.992zm57.566-4.938l-.783-1.68 6-.519-5.217 2.2zm34.33-5.409h-.664v-.866h.664zm15.487-3.702h-1.991v-.287h1.991zm1.401 1.251h-.664v-.864h.664zm15.779 1.559c-2.829.599-5.823.173-9-.22l6.243-1.382 2.757 1.602zm34.112-.086h-1.992v-.287h1.992zm18.288-4.307c-.186-.442-.353-.826-.545-1.274 2.563-.671 4.156-.658 3.988 1.274zm7.69 4.358c-1.715.04-2.645.059-4 .091.86-.975 1.6-1.811 2.976-3.365.453 1.455.718 2.304 1.023 3.274zm20.103-5.678h-.666v-.866h.666zm18.757-.37c.27-.09.535-.181.804-.27l1.196 1.76h-2zm27.016 3.055l-.754-2.171c.588-.026 1.176-.05 1.766-.073v2.2c-.338.016-.674.029-1.012.044zm19-3.045c1.282-.759 1.825-1.414 2.716-1.542 2.166-.307 5.033.519 7.283-.608v2.15zm45.943 3.266c-1.893-1.754.593-3.237 2.258-4.786l2.918.883c1.464-.37 2.753-.7 3.43-.872 2.656 1.154 5.082 2.206 7.713 3.347-3.536.654-7.891 1.463-12.15 2.252l-4.169-.824zm28.372-1.685h-1.992v-.287h1.992zm-1.322 8.026l-.187-.748h2.865l.135.411-2.813.337zm44.265-8.952c-.986-.082-37.308 2.07-38.849-.442 1.625-.434 37.416-.897 39.167-1.364 1.088.285 2.353.617 3.753.986.83-.822 1.458-1.439 2.254-2.226l5.114 1.173 2.721-.923 5.988 2.943c-4.307.647-7.603 1.14-11.034 1.654v1.343c-2.29.425-4.685.87-8.986 1.663l5.78-3.373c-2.143-.52-3.69-.897-5.908-1.434zm-2.169 8.263c-.393-1.102-.937-2.134 3.75-1.151m4.383.988l-3.359-1.103 4.717-.474 1.132.307c.905-.154 1.991-.342 3.603-.619l2.221.525c2.329.255 3.621-1.438 6.717-.389.812.277 3.58-.255 5.475-.303 2.527-.062 5.074-.016 8.134-.016-.167.589-.282.989-.474 1.66l-3.654-.67c-2.684.168-4.767.248-6.764.441-1.73.167-3.37.459-5.585.77-1.052-.33-1.728-.54-2.347-.735-.81.248-1.528.466-2.453.75l-4.857-.877-2.506.733zm13.057 5.577l-7.106-1.63c4.161-.05 6.98-1.343 10.733-.35.881.231 3.123-.635 6.266-1.338-1.01 1.46-1.574 2.277-2.329 3.366-1.513-.474-2.369-.744-3.751-1.18l-3.813 1.132zm11.75-1.136c-.385-.828-.564-1.212-.852-1.836h6c-2.4.855-3.491 1.243-5.147 1.836zm5.751-7.712h26.96c1.033-.658 2.159-1.377 4.039-2.572v4.488c-2.019-.417-3.584-.738-5.313-1.092-4.12.855-8.483 1.844-12.905.012-3.918 1.595-8.365.578-12.78.933zm2.513 6.58c-.046-.136-.09-.273-.135-.41l2.814-.337c.063.25.123.499.186.748zm15.912 1.164l-11-.826 7.428-1.418c1.274.8 2.264 1.421 3.572 2.244zm5.975-1.849l-2.905.314-.094-.74h2.884c.04.141.077.283.115.426zm6.984.24l-4 .317v-2.243c1.866.897 2.712 1.304 4 1.926zM841.6 37.613c.411-.064.818-.138 1.227-.205-2.26-.614-3.027-.903-4.147-1.329l3.258-1.412c5.13-.26 9.707-.016 13.242-.8 3.604-.803 7.993.643 10.775-1.173 1.996 1.744 5.224-.12 7.743-.194.22.172.408.318.656.514.28-.09.534-.174.805-.263.288.122.563.285.806.526l2.713-.459c-.915 1.407-1.617 2.49-2.267 3.493-.794.07-1.45.136-1.883.213-3.693.647-7.488-.727-10.942.363-.368-.523-.735-1.04-1.316-1.861-1.512 1.11-2.666 1.961-4.193 3.084-1.808-.04-4.24-.095-7.18-.165 1.193-.614 1.817-.934 2.442-1.254l-2.798-1.31c-.962.345-1.923.686-3.001 1.071-1.237-.401-2.2-.717-3.332-1.085-.763.53-1.523 1.061-.683 1.95.276-.038.549-.084.831-.103.283-.016.674.33-.373.502-.012.213-1.2.055-2.383-.103zm33.122 14.088h-1.994v-.287h1.994zm3.973-18.44l4.654-.675c2.226.502 4.237.531 6.18.373.854.694 1.686 1.369 2.728 2.218l10.808-2.901-.195-.089 1.893-.264c.17.44.346.905.557 1.457 1.126 0 2.35 0 3.664.04-.04-.01-.169-.06-.298-.112l1.38-.647.627.249c-.54.184-1.08.37-1.709.51-.089.222-.089.487-.192.787.023-.015.153-.066.28-.12l1.621.553c-.209.084-.418.166-.626.248-.46-.216-.92-.431-1.275-.681-1.12-.027-2.28-.033-2.624-.035l-5.681 1.174.212.172c-4.523-.138-8.995-.263-12.926.893-.358-.111-.69-.212-1.004-.308l1.858-1.86h-5.18v1.416c-1.52.218-3.197.37-4.752.487zm17.771 13.532c-1.925.3-3.913.616-6 .964.979-.729 1.958-1.455 3.022-2.244a42.84 42.84 0 0 0 2.978 1.28zm-5.038 4.12l-3.743-1.14m14.652-24.484l.88-.251c.274.298.546.594.812.88-.108.071-.196.127-.304.201-.382.027-.858.06-1.388.099zm17.676-1.718c-3.706-.241-7.536-.246-11.357.584a5.843 5.843 0 0 1-1.109-.535l-1.32.915c-2.215.165-4.84-.209-5.907-1.727 6.236-.204 12.07-1.592 18.494-1.124.61.047 1.335.047 1.886-.06a94.319 94.319 0 0 1 14.565-1.631c.36.085.72.173 1.09.261l.945-.308a94.314 94.314 0 0 1 4.282.016c.589.019 1.115-.025 1.648-.06 2.16.362 4.387.733 6.812 1.136.34-.081 1.142-.269 2.097-.496l17.84 1.112c-.842.494-1.756 1.032-2.847 1.671 4.165-.496 7.715-.918 11.256-1.337 3.741.598 7.49 1.2 11.202 1.796l1.47-.621c.631-.002 1.242.035 1.846.081-1.062.206-2.137.415-3.269.637 1.639.598 3.01 1.101 4.299 1.572 1.465-.54 3.143-.911 3.578-1.576.695.12 1.387.232 2.08.334-.018.03-.031.057-.049.088h.728c1.736.222 3.514.29 5.428 0h1.017l-.338-.126c.32-.062.63-.095.96-.18l7.951 1.318c2.408-2.34 7.275 1.708 9.94-.565 2.76 1.759 7.119.357 10.698 1.135 3.505.763 8.053.527 13.146.777l3.237 1.372c-1.114.412-1.873.69-4.118 1.288.407.065.81.137 1.219.2-1.175.153-2.355.306-2.366.1-1.04-.17-.652-.506-.371-.487.278.018.551.062.826.097.832-.86.078-1.374-.679-1.889-1.124.357-2.082.66-3.31 1.052l-2.98-1.038-2.776 1.27 2.425 1.215c-2.92.067-5.336.12-7.132.162-1.514-1.09-2.66-1.915-4.163-2.995l-1.306 1.808c-3.43-1.059-7.199.276-10.865-.352-1.737-.3-7.055-.454-10.685-1.217l-3.057 1.069c-7.647-2.578-17.386.482-25.467-1.847-1.166-.334-3.188-.047-4.815-.047-3.902 0-8.448.575-11.542-.148-.11-.023-.204-.03-.31-.053 1.41-.105 2.726-.202 4.297-.32a7210.476 7210.476 0 0 0-3.679-3.481c-1.237.255-1.993.412-2.24.46.498.854.912 1.56 1.363 2.335-4.135-.332-7.441-.584-10.727-.886-.265-.023-.379-.384-.861-.92h7.906c-1.326-.818-2.24-1.38-3.013-1.856-4.978 1.07-9.32 1.889-13.793.216-.359.148-.75.426-1.289.514-3.143.515-6.811.15-9.646 1.203-3.037-1.435-5.97.294-9.145.088zm11.165 6.8c-.548.015-1.094-.077-1.644-.196 1.018-.056 2.011-.11 3-.166-.374.101-.843.227-1.356.362zm7.551-6.219c-.366-.053-.748-.11-1.126-.163v-.065l.98-.061zm-1.207 6.085l-4-.534 4-.263zm5.979-1.091v.29h-1.992v-.16c.274-.042.548-.087.816-.13zm3.717-4.35h-4v-.433h4zm8.55 20.444c-.317-.065-.493-.133-.493-.2.098.031.27.06.494.092zm2.749-.158a48.906 48.906 0 0 1-2-.197h1.922l.078.197zm-15.738 2.035c-2.889-.055-5.678-.135-8.166-.244.511-.279.883-.555 1.09-.826 1.846.056 3.833.11 5.885.163-.178-.056-.358-.107-.528-.167l.606-.24c.312.143.623.288.933.433 5.796.15 11.974.296 16.747.448.084.175.173.366.266.559-2.36.008-5.07.006-7.92-.012l-.651.061a1.289 1.289 0 0 1-.022-.065 878.83 878.83 0 0 1-4.483-.046c-.046.282-.095.559-.145.865-1.4-.36-2.535-.65-3.612-.929zm22.817-.267c-.564.01-1.206.018-1.914.025.338-.128.696-.265 1.062-.402l.852.043zm1.342-9.779c.642 1.304-1.047 1.109-2.861.945l.267-.217 1.117.316 1.477-1.044zm2.392 15.253c.512.444.984.857 1.43 1.24-.464.036-.966.088-1.43.108zm7.402.35h-1.404v-.29h1.404zm3.195-14.596c-.939-.11-1.876-.222-2.812-.334l.135-.413h2.864c-.062.25-.123.5-.187.747zm4.485 15.377h-.664v-.867h.664zm.81-15.636c-.041-.264-.085-.531-.131-.834 1.66-.05 2.885-.088 4.302-.005-.133-.056-.271-.112-.404-.17l1.445-.707.657.274c-.567.202-1.131.401-1.892.482.346.155.694.307 1.04.46-.332.09-.663.177-.998.27-1.338.078-2.675.156-4.019.23zm5.909 15.996h-1.992v-.287h1.992zm7.935-17.294c-.699.07-1.36.134-1.991.2-.062-.279.202-.631.998-1.084.343.305.668.592.993.884zm1.414 5.502c-.358-.16-.722-.319-1.07-.474-.062-.57.714-.545 3.997-.417l-2.927.89zm16.527.647c.142-.104.266-.191.398-.288h.602v.288h-.52l-.136-.05c-.04.016-.076.034-.116.05zm38.29-21.023l-.134.41h-2.865c.06-.249.123-.498.186-.747l2.814.337zm-16.046.744c1.308-.82 2.296-1.444 3.572-2.244 3.084.59 5.018.958 7.427 1.42l-11 .824zm-7.043-1.324c.04-.142.077-.283.117-.427h2.883c-.033.247-.064.494-.098.74-.966-.103-1.934-.208-2.902-.313zm-6.984 1.255l4-1.925v2.244c-1.358-.107-2.195-.175-4-.319zm31.685-4.315c-4.416-.355-8.862.663-12.78-.934-4.421 1.83-8.783.847-12.903-.014-1.729.357-3.292.678-5.316 1.092v-4.487c1.884 1.198 3.009 1.912 4.04 2.57h26.959zm5.59 5.206c-1.66-.592-2.75-.98-5.147-1.838h6l-.853 1.838zm4.256 1.465l-2.33-3.366c3.144.703 5.386 1.569 6.267 1.337 3.753-.992 6.572.298 10.733.348-3.023.696-5.128 1.179-7.106 1.633-1.484-.44-2.742-.814-3.815-1.131-1.38.435-2.236.703-3.75 1.179zm20.99-5.938l-2.504-.732c-1.665.299-3.266.588-4.86.876-.923-.284-1.64-.502-2.451-.752-.618.197-1.294.408-2.348.738-2.216-.314-3.853-.606-5.585-.772-1.997-.191-4.078-.272-6.761-.44-.389.07-1.695.311-3.657.669-.19-.67-.305-1.07-.473-1.658 3.062 0 5.608-.048 8.137.016 1.892.048 4.66.578 5.473.303 3.096-1.051 4.388.644 6.716.387l2.222-.523 3.6.618 1.134-.308 4.716.473c-1.692.558-2.564.844-3.359 1.105zm4.453-.604c1.368.418 2.451.752 3.75 1.151m2.814-8.784c-1.546 2.513-3.803.362-4.792.441-2.223.54-3.776.916-5.924 1.434l5.798 3.375-9.013-1.663v-1.343c-3.443-.513-6.747-1.009-11.068-1.655 2.557-1.252 4.34-2.126 6.006-2.94 1.259.424 1.998.677 2.728.922 1.785-.409 3.392-.775 5.128-1.175.8.79 1.428 1.406 2.264 2.228 1.404-.369 2.673-.7 3.762-.988l5.111 1.364zm-13.41-6.116c.209.092.42.182.628.274-.258.097-.521.189-1.34.09l.713-.364zm-2.952.072c.651.29 1.305.577 1.958.865l-5.034 1.9c-.543-.948-.665-1.464-1.145-1.9-.413-.375-1.241-.656-1.821-.946 1.227-.549 1.92-.856 6.042.08zm-9.129 2.109l3.206.297c-1.022.705-1.924 1.332-3.697 1.926l-.004.02c-.099 0-.2-.001-.299-.003l.794-2.24zm-4.644 4.36l.281-1.471c1.097-.038 2.144-.07 3.719-.083l-.31 1.734c-1.432-.07-2.503-.12-3.69-.18zm-48.249 11.718l.772-1.409.95.067v1.436l-1.722-.094zm-14.245-1.267l.444-1.144c.872.39 1.855.832 2.556 1.144zm-7.263-3.808c.868-.617 1.735-1.237 2.602-1.854.467.133.934.266 1.398.4-.36.37-.602.771-1.113 1.104-.439.287-1.18.496-1.788.74l-1.099-.39zm-5.314-.352c.218-.033.446-.051.664-.087v.51h-.664zm-.775-4.37l31.999 1.113c-1.141 1.065-2.129 1.99-3.117 2.911l-2.397.464c-.615-.738-1.228-1.476-1.839-2.212l-2.194.88-5.223-1.968c-.812.698-1.628 1.397-2.957 2.536-.495-.998-.674-1.356-.9-1.81-2.905-.27-6.027-.56-8.46-.789-1.22.147-2.205.266-3.222.386-.487-.075-.984-.14-1.435-.21l-.255.096zm-12.597 4.947h-.662v-.866h.662zm-12.443-1.51h-1.992v-.288h1.992zm-14.177.579l-1.708-.048.728-1.445.98.059zm-5.906-1.101h-4v-.433h4zM897.529 26.53h-.664v-.866h.664zm-9.384-1.727l1.396-.399 2.604 1.853c-.366.13-.733.262-1.099.39-.608-.242-1.35-.452-1.788-.74-.51-.331-.752-.734-1.113-1.104zm-6.702 6.126c.428-.193.963-.433 1.515-.678l1.248.067.236.61zm-11.9-1.166c.315-.022.63-.045.947-.065l.774 1.407-1.72.094zm28.551-5.801h-4.512l-.402-.047c-.16.014-.345.033-.513.047h-2.98c-.026.096-.047.19-.073.286-1.597.147-3.272.305-4.892.456-.225.453-.405.811-.903 1.806-1.325-1.138-2.143-1.835-2.957-2.534l-5.22 1.968-2.194-.88-1.839 2.213-2.397-.466-3.116-2.908c11.322-.395 21.584-.75 31.998-1.114zm-76.824-6.053l.281 1.474-3.69.177-.31-1.734c1.575.013 2.62.047 3.719.083zm-3.649-2.342c.287.801.543 1.521.798 2.24-.099.002-.2.004-.299.004l-.006-.018c-1.77-.596-2.673-1.223-3.695-1.928l3.202-.298zm-9.403-2.29c4.123-.935 4.817-.628 6.042-.08-.58.29-1.407.573-1.82.945-.48.436-.602.952-1.147 1.902-2.21-.837-3.623-1.367-5.033-1.9l1.958-.866zm-3.09-.405l.708.361c-.806.097-1.082.009-1.336-.087.208-.092.418-.182.628-.274zm297.932 6.548a629.07 629.07 0 0 0-2.812-.337l.135-.41h2.865c-.063.246-.125.495-.188.747zm.692-8.182h-1.992v-.287h1.992zm23.206 2.736c-4.257-.791-8.614-1.597-12.148-2.252l7.713-3.345 3.43.87c1.013-.305 1.964-.593 2.916-.883 1.666 1.548 4.152 3.033 2.261 4.786-1.618.318-2.98.589-4.172.824zm39.836-5.998c2.25 1.128 5.117.303 7.281.61.893.126 1.436.783 2.718 1.542h-10zm27.34 2.63l1.763.076c-.252.721-.504 1.445-.754 2.169l-1.01-.046zm26.884 1.01c.31-.454.752-1.11 1.196-1.762l.804.274v1.487zm21.352-.894h-.664v-.866h.664zm23.997 5.683l-4-.088c.303-.97.57-1.82 1.024-3.277l2.976 3.365zm-.241-5.076c-.17-1.93 1.425-1.943 3.987-1.272l-.543 1.272zm23.352 4.457h-1.992v-.287h1.992zm41.12.712c-3.177.393-6.171.817-9 .22 1.076-.626 1.827-1.064 2.757-1.602 2.166.478 4.204.93 6.243 1.382zm7.234-2.02h-.664v-.865h.664zm2.59-1.564h-1.993v-.288h1.992zm14.647 4.711h-.664v-.866h.664zm34.226 4.878l-5.219-2.2 6 .519c-.266.568-.442.95-.781 1.68zm58.258 4.5h-1.992v-.288h1.992zm4.198-.245l1.722.094-.776 1.407c-.314-.023-.63-.043-.946-.068zm-36.474-13.633l-.694-.274c.6-.2 1.2-.401 2.2-.421-.144-.054-.287-.113-.431-.169l1.537-.706.694.271c-.602.202-1.2.404-2.2.424l.43.168zm8.786-.468h-.995v-1.73h.995zm8.485-.791c-1.361-.28-2.68-.557-4-.83.227-.14.453-.276.682-.413h3.318zm5.315-.737h-.664v-.866h.664zm5.223 1.16h-.996v-1.73h.996zm8.554-.077h-4v-.433h4zM440.05 21.416c-.144.054-.288.11-.432.168 1 .02 1.6.22 2.2.422l-.693.272-1.538-.707.431-.168c-1-.02-1.602-.22-2.2-.422.23-.092.463-.182.693-.272.514.236 1.025.47 1.538.707zm-5.789.293h-.996v-1.73h.996zm-6.231-2.06c.228.14.454.277.68.414-1.319.273-2.637.55-3.999.832V19.65zm-8.04.485h-.663v-.866h.664zm-5.819.902h-.996v-1.73h.996zm-5.48-.1h-4v-.434h4zm-30.697 1.091c.51.034 1.022.07 1.532.103l-.69 1.663c-.282-.027-.562-.054-.842-.079zM1451 92h8V28.751c-.014.007-.03.011-.043.016l-1.285-.561c.17-.38.336-.76.58-1.316l.748.06v-8.456c-7.13.266-14.493-.863-21.396.675-4.977-1.788-11.952.484-15.913-1.296-4.431.293-8.073.535-11.844.781-.539-.673-.931-1.166-1.664-2.083-1.046.851-1.885 1.54-2.12 1.73-7.622.125-13.233 1.6-19.28.967-2.869-.297-5.508-1.007-8.322-1.544-.475.18-1.151.44-1.82.695l-2.473-1.074 2.16-2.796-4.838 1.85c1.049-1.388 1.615-2.14 1.96-2.597 3.675.11 6.666.453 9.429.24 11.906-.927 11.875-.977 26.582.798 1.49.18 3.126.119 4.667.233 4.404.326 8.661-2.303 13.138-.117 4.848.036 9.695.088 14.543.106 4.882.018 9.875.273 14.606-.095.963-.074 1.793.022 2.585.157V8.25c-7.755-.103-15.523.619-23.13-.758-1.886 1.396-4.903.08-7.439.382-2.9.346-5.836.64-9.212 1.008-.13-.053-.814-.324-1.946-.772-6.145 2.228-12.96 2.279-19.913.57.575-.291 1.155-.581 2.67-1.342-7.515.389-14.133-.583-19.05.534-7.14.451-12.065-2.55-18.519-.48-.843.271-2.78.238-3.804.005-6.043-1.366-12.495-.689-18.762-.779-2.702-.037-5.289.029-8.195.603-2.77.545-7.779-1.043-10.538-.493-5.059 1.01-10.106.255-13.985.75-2.81.359-4.56.99-6.752 1.494-.37-.132-1.025-.363-2.111-.746l-6.546 1.243v3.634c-4.875-.156-3.722-1.81-3.938-3.04h-3.54v4.013c-2.725.057-5.143.107-8.533.18l1.604-2.248-5.602-1.582 5.296-1.652c-1.647-.95-2.873-1.656-4.553-2.627-2.31.924-4.095 1.64-6.903 2.759l-1.678-2.323c-9.5 0-16.95-.112-24.373.037-4.978.104-10.269-.759-14.924.7-4.128-1.364-9.762-.24-13.9-1.586h-27.464c-.843-.378-1.61-.88-2.679-1.168-2.041-.552-4.251-.981-6.455-1.476l-3.961 2.547c-4.818.561-9.024-2.028-13.584-.154-4.186-1.076-7.792-.396-11.23.693.636.306 1.275.614 1.91.922-1.708 1.52-3.39 3.018-5.751 5.116V8.491c-3.777-.515-8.148.471-10.04-2.015.486-.693 1.272-1.806 2.057-2.919-1.875-.647-1.936.411-3.624.486l-10.409-1.702c-1.284.336-2.566.673-4.212 1.102-.821-.744-1.439-1.307-2.131-1.936-1.385.565-2.726 1.115-3.997 1.634l-3.969-2.653c-.717.76-1.174 1.243-1.635 1.727-1.09-.574-2.177-1.15-4.19-2.215l-1.961 4.054c-.785-1.716-1.179-2.582-1.74-3.81-2.37.737-4.11 1.276-6.755 2.097-.818 0-3.289.332-4.508-.064-3.238-1.05-6.471-2.002-11.889-1.848-.094.04-1.397.576-2.94 1.212-1.043-.238-2.108-.482-3.74-.858-.837.394-1.966.922-3.778 1.769l10.756 1.74c-2.222.695-4.344 1.36-6.209 1.942l-9.306-.669c-.904 1.224-1.622 2.19-2.638 3.562h4.66c.213-.233.429-.466.643-.702.437.236.872.469.81.702h3.521c.587-.554 1.187-1.124 1.88-1.782.636 2.004.636 2.004-2.17 3.383-.912-.391-1.827-.783-3.231-1.601h-1.454c0 .706 0 1.414.004 2.12-1.611.698-3.221 1.397-4.108 1.778-8.075-1.003-16.874.152-22.97-2.398l-4.014 1.118-3.967-.964c-1.232.3-2.543.616-3.783.918-4.369-.87-4.376-.792-11.348-.913-2.635-.047-5.124-1.265-7.935-.176-2.31-1.226-5.458-.4-8.178-.627-3-.249-6.39.55-9.094-.797-.495-.246-2.995.42-4.546.396-2.78-.044-5.57-.235-8.308-.47-2.37-.203-4.655-.746-7.005-.78-2.672-.037-5.375.326-9.144.59l-12.371-1.62-2.637 1.367c.423.608.486 1.048.79 1.08 2.933.333 5.298 1.235 8.747 1.129a98.617 98.617 0 0 1 20.875 1.577c.55.101 1.272.101 1.884.057 6.42-.446 12.252.872 18.486 1.067-.432.583-1.134.97-1.944 1.237-.274-.093-.562-.19-.88-.295-.482.266-1.031.495-1.59.717-1.189.05-2.377-.064-3.303-.275-4.025-.924-8.063-.902-11.967-.662-3.177.198-6.104-1.443-9.142-.084-2.832-.996-6.498-.65-9.642-1.141-.537-.084-.927-.346-1.286-.487-4.471 1.587-8.81.81-13.786-.206l-3.012 1.762h7.903c-.482.51-.6.851-.86.875-3.285.286-6.59.526-10.723.84.45-.736.865-1.405 1.363-2.215a785.1 785.1 0 0 1-2.24-.44c-1.19 1.072-2.312 2.08-3.676 3.307 2.417.17 4.212.297 6.712.475-.19.235-.373.455-.555.677-1.77-.15-3.357-.266-4.906-.244-2.35.033-4.638.577-7.005.779-2.74.235-5.528.427-8.308.47-1.551.025-4.052-.64-4.546-.395-2.708 1.346-6.094.547-9.095.796-2.72.227-5.869-.598-8.177.627-2.812-1.089-5.3.13-7.935.176-6.972.121-6.98.044-11.348.913l-3.783-.917-3.967.965c-1.29-.358-2.314-.646-4.014-1.12-6.098 2.55-14.895 1.395-22.97 2.4-.887-.382-2.5-1.08-4.108-1.78.003-.705.003-1.411.003-2.117h-1.453c-1.404.816-2.32 1.21-3.235 1.599-2.802-1.38-2.802-1.38-2.167-3.383.692.657 1.294 1.23 1.88 1.784h3.522c-.064-.236.373-.469.81-.704.214.235.43.468.643.704h4.66l-2.64-3.564c-3.563.257-6.43.464-9.304.669-1.865-.583-3.987-1.248-6.209-1.94 3.35-.544 6.614-1.072 10.756-1.74-1.812-.85-2.941-1.378-3.779-1.77-1.631.375-2.696.619-3.74.856-1.664-.686-3.048-1.256-2.939-1.21-5.418-.153-8.653.797-11.889 1.848-1.22.394-3.69.064-4.508.064-2.645-.82-4.385-1.362-6.755-2.096l-1.74 3.81c-.833-1.725-35.328-2.594-36.038-4.057l-4.19 2.218-1.636-1.727c-1.47.981-2.723 1.82-3.969 2.653l-3.996-1.637c-.69.632-1.31 1.193-2.131 1.938l-4.213-1.102c-3.664.599-7.333 1.2-10.408 1.7-1.687-.074-1.75-1.13-3.626-.486l2.06 2.92c-1.895 2.485-6.264 1.502-10.04 2.017v3.722c-2.362-2.099-4.044-3.597-5.752-5.117.637-.308 1.274-.614 1.908-.922-3.438-1.088-7.042-1.766-11.227-.69-4.563-1.877-8.767.712-13.585.154-1.192-.766-2.518-1.622-3.961-2.548-2.204.493-4.416.924-6.455 1.474-1.071.288-1.836.79-2.679 1.168h-27.465c-4.137 1.349-9.771.222-13.9 1.586-4.656-1.458-9.945-.596-14.924-.697-7.422-.152-14.871-.04-24.372-.04-.233.324-.86 1.195-1.678 2.326l-6.905-2.759-4.553 2.624c1.949.608 3.47 1.083 5.296 1.655l-5.6 1.58 1.604 2.247c-3.39-.07-5.808-.12-8.534-.18V19.15h-3.542c-.213 1.232.94 2.887-3.935 3.04V18.56c-2.514-.48-4.671-.889-6.546-1.245-1.084.382-1.741.616-2.114.745-2.192-.503-3.941-1.135-6.747-1.491-3.88-.497-8.928.257-13.99-.752-2.756-.55-7.765 1.038-10.535.492-2.909-.574-5.493-.638-8.195-.6-6.267.088-12.719-.588-18.762.778-1.026.231-2.963.267-3.805-.004-6.453-2.07-11.379.928-18.52.475-4.915-1.113-11.533-.14-19.049-.532l2.67 1.342c-6.953 1.709-13.767 1.658-19.912-.57-1.132.449-1.816.722-1.946.772-3.378-.367-6.312-.66-9.212-1.007-2.536-.302-5.554 1.014-7.438-.38-8.89 1.607-18 .34-27.055.89-.682.297-1.602.697-2.36 1.025l1.587 1.4h-3.912c1.37.965 2.155 1.524 2.944 2.08.17-.081.343-.163.514-.246.133.207.276.424.41.631l-8.078 1.32c.438-1.076.894-2.195 1.416-3.482-.902-2.495-5.508-.984-8.275-1.778-2.587-.745-5.408-1.218-7.92-1.766l-1.777 1.02c-1.34-.69-2.692-1.39-4.288-2.212l-2.86 1.23c-.31-.186-.662-.592-1.113-.634-5.273-.473-10.548-.937-15.845-1.303-4.033-.277-7.769.179-10.467 1.837l-6.99-2.723c-1.746.867-3.599 1.516-5.28-.092-3.16 1.414-6.573 2.142-10.696 2.015-2.64-.082-5.33.385-8.785.67l-1.383-1.854-3.673.904-2.718-1.058-3.645 2.006-5.475-.946c-1.276 1.056-2.488 2.062-4.051 3.357-.092-3.196-3.283-4.912-8.19-5.741-1.42.176-4.084.917-4.77.523-3.333-1.916-6.136-.255-8.902.207l-2.381-1.26c-3.294.811-6.865 2.232-10.538.013-2.385.71-4.76 1.417-7.271 2.167-2.295-.684-4.667-1.393-7.218-2.152l-2.5 1.06c-2.185-.325-4.264-.888-6.352-.901-12.972-.084-25.947-.042-38.63-.042-.898.515-1.512.867-2.624 1.507 2.537 1.876 5.126 3.792 7.899 5.845l3.468-1.215c.451.533.985 1.157 1.54 1.809h3.604c2.416-.467-1.06-2.796 2.673-2.91-.036-.012-.145-.078-.26-.142.403-.272.807-.543 1.209-.816l.549.315c-.475.233-.947.464-1.498.642-.079.893-.079 1.837-.079 2.847h3.106c.25-.984.48-1.894.779-3.065 1.222 1.118 2.149 1.965 3.255 2.972h8.112c.183-1.005.404-2.23.66-3.627h6.484v1.472c-1.157.244-2.153.453-3.208.673v2.18l6.518 1.293c2.57-.347 5.451-.737 8.999-1.219 0-.356 0-.97.921-2.96-1.01 1.447-1.01 1.447-4.502.373l-4.828 1.316a4457.04 4457.04 0 0 0 3.657-3.069c2.677 0 4.56 0 5.673 1.38.389 2.296 1.7 3.216 3.144 4.228 1.712-.608 3.588-1.628 5.253.037l3.263-1.08c.951.508 1.575.842 2.467 1.322 3.545-1.59 7.85-1.098 12.015-1.13 4.031-.032 8.063-.005 11.8-.005l4.281-3.628v3.61c5.785-.229 11.327.656 17.09-.721.8.433 2.021 1.095 3.13 1.698h5.627c.94-.871 1.942-1.8 2.967-2.745.177.068.853.202.873.36.396 3.309 6.065 2.09 8.904 3.324 1.277.555 5.154.517 5.71-.006 2.224-2.081 5.762.952 7.623-.896 5.873 1.846 12.252.618 18.358 1.025 1.549.106 3.022.586 5.034.995.531-.238 1.38-.616 2.56-1.142l3.087.796c1.535-.946 3.545-.873 5.53.108 2.3-1.315 4.467-1.113 6.538.192 1.849-1.813 3.621.158 5.492.105 2.287-.066 4.632.502 6.948.796.231-.563.459-1.124.688-1.691 3.53.215 5.97.207 7.926.616.63.132 1.196.163 1.74.152.256.398.498.77.782 1.205l2.241-.97c1.045.295 2.157.61 3.514.992l1.134-1.751c2.825.13 5.716.106 8.614.055.443.14.91.288 1.431.451v-.469c.908-.013 1.814-.028 2.716-.03 2.71-.011 5.42-.04 8.132-.06v1.771c1.71-.378 3.022-.664 4.489-.988.118.066.516.295 1.48.852 1.016-.74 1.997-1.457 3.371-2.455-.025-.007-.049-.01-.07-.016 3.453-.374 6.822 1.162 10.279.904 1.543-.114 3.179-.052 4.669-.233 14.705-1.773 14.673-1.724 26.58-.796 2.761.213 5.754-.13 9.426-.242.347.457.916 1.212 1.963 2.598-2.033-.779-2.71-1.036-4.84-1.848l2.164 2.796-2.475 1.071c-.67-.255-1.345-.512-1.82-.695-2.812.537-5.453 1.245-8.322 1.547-6.047.631-11.656-.845-19.28-.968-.235-.192-1.074-.878-2.122-1.732-.731.92-1.123 1.413-1.662 2.086l-11.844-.781c-3.962 1.777-10.937-.495-15.913 1.296-1.787-.399-3.605-.616-5.44-.726.2-.53.402-1.058.602-1.589-.496-.017-.992-.037-1.486-.055v1.61c-5.11-.215-10.35.302-15.462.073-3.222-.145-7-.466-9.634.088-.424.09-.83.148-1.226.185l-9.322-.847c-3.034 1.146-7.075.788-11.262.379-7.002-.685-13.977-1.063-21.16-.253-2.98.334-6.393-.601-10.142-1.017l-1.987 1.142c-3.916.196-7.408.37-11.283.56-.982-.723-2.031-1.5-3.084-2.274l-3.406 1.956c-1.797-.128-3.73-1.99-5.434.541a1129.7 1129.7 0 0 0-3.302-2.618l-3.834.962c-1.512-.894-3.522-.913-5.493.13-2.37-2.095-4.294.633-6.73.156-.835-.522-1.81-1.129-2.457-1.531-8.292.866-16.138.998-24.956-.242l-2.663.849c-1.394-.399-2.824-.805-4.128-1.177-.906.473-1.528.796-2.147 1.117-.41-.235-.765-.519-1.243-.69-.442-.157-1.406-.324-1.473-.258-2.161 2.101-6.499-1.933-7.8 1.239-1.74-.566-2.903-.942-4.407-1.43-.792.37-1.608.75-2.394 1.115-.66-.319-1.255-.856-1.961-.908-6.918-.517-14.082.93-20.845-.883-2.912 1.628-6.734.242-9.74.929-2.692.613-4.565-1.666-7.445-.196-1.295.66-4.11-1.311-6.213.114-12.34-2.03-24.968-.519-37.43-1.031-1.25-.053-2.44-.599-3.73-.933-1.67.308-3.468.915-5.241.895-2.083-.024-4.157-.572-6.218-.93-1.847-.321-3.365 1.41-5.638.083-1.031-.605-3.208 1.446-5.48-.017-1.448-.935-3.35.972-5.709.387-1.95-.486-4.385-.374-6.614-.433-2.306-.062-4.638-.102-6.928.026-.969.055-1.863.56-2.794.86l-1.993-1.025c-3.998 1.183-8.144 1.99-12.412.04-1.142.358-2.31.728-3.846 1.21-.747-.315-1.62-.68-2.51-1.056l-1.288.677c-4.48-.352-8.55-.673-13.111-1.03-1.324.76-2.522 1.446-3.914 2.247-1.733-.526-3.87-1.173-5.938-1.798-.998.308-2.145.662-3.523 1.09l-1.454-2.374c-1.411.347-2.784.682-4.698 1.15l-3.36-1.153c-.744.286-1.636.632-2.572.993-1.678-.828-3.492-1.754-5.035.169-.851-.429-1.483-.75-2.324-1.175l-4.171 1.195a2503.9 2503.9 0 0 0-2.941-1.135c-2.399.712-4.775 1.416-8.11 2.408l-1.287-3.106c-2.498 1.09-3.051 1.329-3.238 1.41-4.382-.222-8.441-.429-12.499-.633-1.045 1.122-2.86.37-4.502.134v6.848c.963.06 1.924.114 2.845.05.67-.046 1.487.61 2.238.966 1.576.343 3.182.667 5.728 1.177-1.15-1.043-1.62-1.465-2.463-2.23 5.21.103 9.667-.113 14.18.165-2.256 1.821-4.156 3.352-5.738 4.63-4.142-.787-7.936-1.511-11.707-2.228v-1.514c-.867-.024-1.73-.024-2.818-.024l-1.14 1.936c-.374-.15-.737-.293-1.125-.449v9.436l.455-.28c.382.28.767.555.804 1.017.109-.067.217-.132.321-.2l1.352.71-.521.32c-.383-.275-.767-.554-.806-1.014l-.321.198c-.428-.224-.855-.45-1.284-.674V92H10v977h1441z"/></g></g></svg>