<svg xmlns="http://www.w3.org/2000/svg" width="24" height="25" viewBox="0 0 24 25"><g><g><g><path fill="#c7c9d6" d="M23.635 22.642c.5.52.484 1.35-.036 1.851a1.304 1.304 0 0 1-.907.366c-.36 0-.695-.143-.944-.402l-5.961-6.2a9.93 9.93 0 0 1-5.75 1.816C4.503 20.073 0 15.571 0 10.037S4.503 0 10.037 0c5.534 0 10.036 4.503 10.036 10.037 0 2.368-.833 4.644-2.354 6.452l5.916 6.153M10.037 2.618c-4.09 0-7.419 3.328-7.419 7.419 0 4.09 3.328 7.418 7.419 7.418 4.09 0 7.418-3.328 7.418-7.418s-3.327-7.419-7.418-7.419"/></g></g></g></svg>