<svg xmlns="http://www.w3.org/2000/svg" width="16" height="17" viewBox="0 0 16 17"><defs><clipPath id="fo72a"><path fill="#fff" d="M3 3a2 2 0 0 1 2-2h8a2 2 0 0 1 2 2v8a2 2 0 0 1-2 2H5a2 2 0 0 1-2-2z"/></clipPath></defs><g><g><g transform="rotate(-16 9 7)"><path fill="none" stroke="#353a50" stroke-miterlimit="50" stroke-width="2" d="M3 3a2 2 0 0 1 2-2h8a2 2 0 0 1 2 2v8a2 2 0 0 1-2 2H5a2 2 0 0 1-2-2z" clip-path="url(&quot;#fo72a&quot;)"/></g><g transform="rotate(-16 7 10)"><path fill="#353a50" d="M1 6a2 2 0 0 1 2-2h8a2 2 0 0 1 2 2v8a2 2 0 0 1-2 2H3a2 2 0 0 1-2-2z"/></g></g></g></svg>