<svg xmlns="http://www.w3.org/2000/svg" width="28" height="31" viewBox="0 0 28 31"><g><g transform="matrix(-1 0 0 1 28 0)"><g><path fill="#666978" d="M26.036 19.106l-2.297-2.293L13.4 6.497a4.88 4.88 0 0 0-6.878.013 4.856 4.856 0 0 0-.013 6.865l10.337 10.32a1.084 1.084 0 0 0 1.531 0 1.08 1.08 0 0 0 0-1.53L8.041 11.847a2.698 2.698 0 0 1 0-3.82 2.71 2.71 0 0 1 3.829 0l10.34 10.316 2.297 2.292a4.858 4.858 0 0 1-.001 6.88 4.881 4.881 0 0 1-6.894-.001L15.7 25.602 4.979 14.903l-.766-.764a7.016 7.016 0 0 1 .076-9.859 7.05 7.05 0 0 1 9.878-.076l11.486 11.463a1.085 1.085 0 0 0 1.812-.484 1.08 1.08 0 0 0-.28-1.044L15.698 2.676C12.1-.898 6.285-.891 2.696 2.69a9.173 9.173 0 0 0-.015 12.976L14.167 27.13l1.917 1.911a7.05 7.05 0 0 0 9.855-.1 7.016 7.016 0 0 0 .097-9.835"/></g></g></g></svg>