<svg xmlns="http://www.w3.org/2000/svg" width="1209" height="552" viewBox="0 0 1209 552"><g><g opacity=".27" transform="rotate(-61 1146.5 160.5)"><g opacity=".27"><path fill="#e8eaf3" d="M1103.09 119.98a4.89 4.89 0 1 1 9.784.001 4.89 4.89 0 0 1-9.784-.001zm19.565 0c0-2.7 2.192-4.89 4.896-4.89a4.893 4.893 0 0 1 4.896 4.89c0 2.7-2.192 4.89-4.896 4.89a4.893 4.893 0 0 1-4.896-4.89zm19.565 0a4.89 4.89 0 1 1 9.784.001 4.89 4.89 0 0 1-9.784-.001zm19.565 0c0-2.7 2.192-4.89 4.896-4.89a4.893 4.893 0 0 1 4.896 4.89c0 2.7-2.192 4.89-4.896 4.89a4.893 4.893 0 0 1-4.896-4.89zm19.564 0c0-2.7 2.19-4.89 4.892-4.89a4.89 4.89 0 1 1-4.892 4.89zm-78.259 19.56a4.89 4.89 0 1 1 9.784.001 4.89 4.89 0 0 1-9.784-.001zm19.565 0c0-2.7 2.192-4.89 4.896-4.89a4.893 4.893 0 0 1 4.896 4.89c0 2.7-2.192 4.89-4.896 4.89a4.893 4.893 0 0 1-4.896-4.89zm19.565 0a4.89 4.89 0 1 1 9.784.001 4.89 4.89 0 0 1-9.784-.001zm19.565 0c0-2.7 2.192-4.89 4.896-4.89a4.893 4.893 0 0 1 4.896 4.89c0 2.7-2.192 4.89-4.896 4.89a4.893 4.893 0 0 1-4.896-4.89zm19.564 0c0-2.7 2.19-4.89 4.892-4.89a4.89 4.89 0 1 1-4.892 4.89zm-78.259 19.56a4.89 4.89 0 1 1 9.784.001 4.89 4.89 0 0 1-9.784-.001zm19.565 0c0-2.701 2.192-4.89 4.896-4.89a4.893 4.893 0 0 1 4.896 4.89c0 2.7-2.192 4.89-4.896 4.89a4.893 4.893 0 0 1-4.896-4.89zm19.565 0a4.89 4.89 0 1 1 9.784.001 4.89 4.89 0 0 1-9.784-.001zm19.565 0c0-2.701 2.192-4.89 4.896-4.89a4.893 4.893 0 0 1 4.896 4.89c0 2.7-2.192 4.89-4.896 4.89a4.893 4.893 0 0 1-4.896-4.89zm19.564 0c0-2.701 2.19-4.89 4.892-4.89a4.89 4.89 0 1 1-4.892 4.89zm-78.259 19.56a4.89 4.89 0 1 1 9.784.001 4.89 4.89 0 0 1-9.784-.002zm19.565 0c0-2.701 2.192-4.89 4.896-4.89a4.893 4.893 0 0 1 4.896 4.89c0 2.7-2.192 4.89-4.896 4.89a4.893 4.893 0 0 1-4.896-4.89zm19.565 0a4.89 4.89 0 1 1 9.784.001 4.89 4.89 0 0 1-9.784-.002zm19.565 0c0-2.701 2.192-4.89 4.896-4.89a4.893 4.893 0 0 1 4.896 4.89c0 2.7-2.192 4.89-4.896 4.89a4.893 4.893 0 0 1-4.896-4.89zm19.564 0c0-2.701 2.19-4.89 4.892-4.89a4.89 4.89 0 1 1-4.892 4.89zm-78.259 19.56a4.89 4.89 0 1 1 9.784.001 4.89 4.89 0 0 1-9.784-.002zm19.565 0c0-2.701 2.192-4.89 4.896-4.89a4.893 4.893 0 0 1 4.896 4.89c0 2.7-2.192 4.89-4.896 4.89a4.893 4.893 0 0 1-4.896-4.89zm19.565 0a4.89 4.89 0 1 1 9.784.001 4.89 4.89 0 0 1-9.784-.002zm19.565 0c0-2.701 2.192-4.89 4.896-4.89a4.893 4.893 0 0 1 4.896 4.89c0 2.7-2.192 4.89-4.896 4.89a4.893 4.893 0 0 1-4.896-4.89zm19.564 0c0-2.701 2.19-4.89 4.892-4.89a4.89 4.89 0 1 1-4.892 4.89z"/></g></g><g opacity=".27" transform="rotate(-61 58.5 372.5)"><g opacity=".27"><path fill="#e8eaf3" d="M14.47 333.72a4.89 4.89 0 1 1 9.784.001 4.89 4.89 0 0 1-9.784-.001zm19.565 0c0-2.7 2.192-4.89 4.896-4.89a4.893 4.893 0 0 1 4.896 4.89c0 2.7-2.192 4.89-4.896 4.89a4.893 4.893 0 0 1-4.896-4.89zm19.565 0a4.89 4.89 0 1 1 9.784.001 4.89 4.89 0 0 1-9.784-.001zm19.565 0c0-2.7 2.192-4.89 4.896-4.89a4.893 4.893 0 0 1 4.896 4.89c0 2.7-2.192 4.89-4.896 4.89a4.893 4.893 0 0 1-4.896-4.89zm19.564 0c0-2.7 2.19-4.89 4.892-4.89a4.89 4.89 0 1 1-4.892 4.89zM14.47 353.28a4.89 4.89 0 1 1 9.784.001 4.89 4.89 0 0 1-9.784-.001zm19.565 0c0-2.7 2.192-4.89 4.896-4.89a4.893 4.893 0 0 1 4.896 4.89c0 2.7-2.192 4.89-4.896 4.89a4.893 4.893 0 0 1-4.896-4.89zm19.565 0a4.89 4.89 0 1 1 9.784.001 4.89 4.89 0 0 1-9.784-.001zm19.565 0c0-2.7 2.192-4.89 4.896-4.89a4.893 4.893 0 0 1 4.896 4.89c0 2.7-2.192 4.89-4.896 4.89a4.893 4.893 0 0 1-4.896-4.89zm19.564 0c0-2.7 2.19-4.89 4.892-4.89a4.89 4.89 0 1 1-4.892 4.89zM14.47 372.84a4.89 4.89 0 1 1 9.784.001 4.89 4.89 0 0 1-9.784-.001zm19.565 0c0-2.701 2.192-4.89 4.896-4.89a4.893 4.893 0 0 1 4.896 4.89c0 2.7-2.192 4.89-4.896 4.89a4.893 4.893 0 0 1-4.896-4.89zm19.565 0a4.89 4.89 0 1 1 9.784.001 4.89 4.89 0 0 1-9.784-.001zm19.565 0c0-2.701 2.192-4.89 4.896-4.89a4.893 4.893 0 0 1 4.896 4.89c0 2.7-2.192 4.89-4.896 4.89a4.893 4.893 0 0 1-4.896-4.89zm19.564 0c0-2.701 2.19-4.89 4.892-4.89a4.89 4.89 0 1 1-4.892 4.89zM14.47 392.4a4.89 4.89 0 1 1 9.784.001 4.89 4.89 0 0 1-9.784-.002zm19.565 0c0-2.701 2.192-4.89 4.896-4.89a4.893 4.893 0 0 1 4.896 4.89c0 2.7-2.192 4.89-4.896 4.89a4.893 4.893 0 0 1-4.896-4.89zm19.565 0a4.89 4.89 0 1 1 9.784.001 4.89 4.89 0 0 1-9.784-.002zm19.565 0c0-2.701 2.192-4.89 4.896-4.89a4.893 4.893 0 0 1 4.896 4.89c0 2.7-2.192 4.89-4.896 4.89a4.893 4.893 0 0 1-4.896-4.89zm19.564 0c0-2.701 2.19-4.89 4.892-4.89a4.89 4.89 0 1 1-4.892 4.89zM14.47 411.96a4.89 4.89 0 1 1 9.784.001 4.89 4.89 0 0 1-9.784-.002zm19.565 0c0-2.701 2.192-4.89 4.896-4.89a4.893 4.893 0 0 1 4.896 4.89c0 2.7-2.192 4.89-4.896 4.89a4.893 4.893 0 0 1-4.896-4.89zm19.565 0a4.89 4.89 0 1 1 9.784.001 4.89 4.89 0 0 1-9.784-.002zm19.565 0c0-2.701 2.192-4.89 4.896-4.89a4.893 4.893 0 0 1 4.896 4.89c0 2.7-2.192 4.89-4.896 4.89a4.893 4.893 0 0 1-4.896-4.89zm19.564 0c0-2.701 2.19-4.89 4.892-4.89a4.89 4.89 0 1 1-4.892 4.89z"/></g></g><g transform="rotate(15 49 59.5)"><g><path fill="none" stroke="#fff" stroke-linecap="square" stroke-miterlimit="50" d="M49.27-.89v77.974"/></g><g><path fill="none" stroke="#fff" stroke-dasharray="1 5" stroke-linecap="square" stroke-miterlimit="50" d="M49.27 83.45v36.403"/></g></g><g transform="rotate(15 1192 493)"><g><path fill="none" stroke="#fff" stroke-linecap="square" stroke-miterlimit="50" d="M1192.27 432.56v77.974"/></g><g><path fill="none" stroke="#fff" stroke-dasharray="1 5" stroke-linecap="square" stroke-miterlimit="50" d="M1192.27 516.89v36.403"/></g></g></g></svg>