<svg xmlns="http://www.w3.org/2000/svg" width="1261" height="180" viewBox="0 0 1261 180"><g><g><path fill="#f49937" d="M142.5 37.25l-3.233 1.7.618-3.6-2.616-2.55 3.615-.525L142.5 29l1.616 3.275 3.615.525-2.616 2.55.618 3.6z"/></g><g><path fill="none" stroke="#f1556f" stroke-miterlimit="50" d="M125.5 162.25v0l-3.233 1.7v0l.618-3.6v0l-2.616-2.55v0l3.615-.525v0L125.5 154v0l1.616 3.275v0l3.615.525v0l-2.616 2.55v0l.618 3.6v0z"/></g><g><path fill="#ef2f8e" d="M5.5 12.25l-3.233 1.7.618-3.6L.269 7.8l3.615-.525L5.5 4l1.616 3.275 3.615.525-2.616 2.55.618 3.6z"/></g><g><path fill="none" stroke="#f1556f" stroke-miterlimit="50" d="M1132.5 63.25v0l-3.233 1.7v0l.618-3.6v0l-2.616-2.55v0l3.615-.525v0L1132.5 55v0l1.616 3.275v0l3.615.525v0l-2.616 2.55v0l.618 3.6v0z"/></g><g><path fill="none" stroke="#f49937" stroke-miterlimit="50" d="M1255.5 8.25v0l-3.233 1.7v0l.618-3.6v0l-2.616-2.55v0l3.615-.525v0L1255.5 0v0l1.616 3.275v0l3.615.525v0l-2.616 2.55v0l.618 3.6v0z"/></g><g><path fill="#ef2f8e" d="M1245.5 178.25l-3.233 1.7.618-3.6-2.616-2.55 3.615-.525L1245.5 170l1.616 3.275 3.615.525-2.616 2.55.618 3.6z"/></g></g></svg>