<?xml version="1.0" encoding="UTF-8"?>
<svg width="1023px" height="151px" viewBox="0 0 1023 151" version="1.1" xmlns="http://www.w3.org/2000/svg" xmlns:xlink="http://www.w3.org/1999/xlink">
    <!-- Generator: Sketch 60.1 (88133) - https://sketch.com -->
    <title>Group 11</title>
    <desc>Created with Sketch.</desc>
    <defs>
        <linearGradient x1="0.803213645%" y1="50%" x2="98.4720779%" y2="58.8948827%" id="linearGradient-1">
            <stop stop-color="#F82E94" offset="0%"></stop>
            <stop stop-color="#FF9E33" offset="100%"></stop>
        </linearGradient>
        <linearGradient x1="0%" y1="50%" x2="99.2634596%" y2="50.3257667%" id="linearGradient-2">
            <stop stop-color="#F82E94" offset="0%"></stop>
            <stop stop-color="#FF9E33" offset="100%"></stop>
        </linearGradient>
    </defs>
    <g id="Page-1" stroke="none" stroke-width="1" fill="none" fill-rule="evenodd">
        <g id="jobs" transform="translate(-182.000000, -107.000000)" fill-rule="nonzero">
            <g id="Group-11" transform="translate(182.000000, 107.000000)">
                <g id="Group-10" transform="translate(293.000000, 0.000000)">
                    <g id="Group-74-Copy" transform="translate(374.000000, 0.000000)" fill="url(#linearGradient-1)">
                        <path d="M54.0153381,27.2714376 C54.4813041,27.2636461 54.9353629,27.4188221 55.2990981,27.7101667 L77.0852112,45.1604018 C77.6020113,45.5743483 78.2901885,45.7056816 78.9231118,45.5111511 L104.689025,37.591933 C105.744851,37.2674225 106.863834,37.8602702 107.188344,38.9160953 C107.310153,39.3124131 107.305781,39.7367917 107.175832,40.1305157 L98.519164,66.3587965 C98.3196641,66.9632483 98.4197999,67.6265676 98.7888412,68.1451914 L115.189303,91.1932096 C115.829706,92.093186 115.61928,93.3419104 114.719304,93.9823137 C114.351351,94.2441413 113.905615,94.3737328 113.454638,94.3499983 L86.4635902,92.9294815 C85.7773573,92.8933657 85.1206371,93.2120829 84.724413,93.7735333 L69.2217128,115.740891 C68.5848268,116.64336 67.3369331,116.858658 66.4344643,116.221772 C66.0715235,115.965639 65.8041834,115.595964 65.6746149,115.171062 L57.4273396,88.1252262 C57.2430588,87.520902 56.784065,87.0391859 56.1893427,86.8259429 L29.9911024,77.4323314 C28.9513502,77.059519 28.4106887,75.9144091 28.783501,74.8746569 C28.9250828,74.4797935 29.1872358,74.1394425 29.532874,73.9017521 L51.6459252,58.6949313 C52.198268,58.3150933 52.523588,57.6838014 52.5123807,57.0135524 L52.0490553,29.3045956 C52.0305882,28.2001805 52.910923,27.2899046 54.0153381,27.2714376 Z M13.4826882,20.1841294 C13.7156588,20.1802381 13.9426754,20.2578219 14.124536,20.4034832 L25.222266,29.2922165 C25.4806667,29.4991827 25.8247516,29.5648443 26.1412089,29.467578 L39.2649056,25.433879 C39.7928171,25.2716202 40.3523107,25.5680402 40.5145695,26.0959516 C40.5754786,26.2941201 40.5732905,26.5063205 40.508308,26.7031909 L36.0993059,40.0606745 C35.9995454,40.3629084 36.0496124,40.6945809 36.2341413,40.9539004 L44.5872325,52.692549 C44.9074374,53.1425348 44.8022291,53.7668978 44.3522433,54.0871027 C44.1682709,54.2180154 43.9454085,54.2828129 43.7199241,54.2709502 L29.9698171,53.5475626 C29.6267144,53.5295121 29.2983692,53.6888634 29.1002596,53.9695731 L21.2025986,65.1600964 C20.8841465,65.6113244 20.2601975,65.7189605 19.8089695,65.4005084 C19.6275052,65.2724408 19.4938404,65.0876055 19.4290591,64.8751579 L15.2288447,51.1007399 C15.1367034,50.7985667 14.907196,50.5577014 14.6098222,50.4510832 L1.26750914,45.6674259 C0.747628726,45.4810317 0.477284732,44.908483 0.66367893,44.3886025 C0.734468743,44.1911595 0.865550656,44.0209741 1.03837914,43.9021244 L12.3020544,36.15638 C12.5782239,35.9664653 12.7408858,35.6508255 12.7352884,35.3157048 L12.4995281,21.2006904 C12.4903047,20.6484827 12.9304804,20.1933528 13.4826882,20.1841294 Z M75.0682127,0.698151604 C75.1845848,0.696247084 75.2979758,0.734999535 75.3888409,0.807729376 L83.8030837,7.54261935 C83.93229,7.64603809 84.1042991,7.6788223 84.2624876,7.63017983 L94.1950229,4.57595706 C94.4589685,4.49479464 94.7387338,4.64296967 94.8198962,4.90691526 C94.8503913,5.00608739 94.8492797,5.11229006 94.8167153,5.21080212 L91.4826,15.297005 C91.4326222,15.4481954 91.4576478,15.6141502 91.5499876,15.7438794 L97.8668397,24.6184981 C98.026972,24.8434698 97.9744093,25.1556582 97.7494376,25.3157905 C97.6574916,25.3812366 97.5461086,25.413651 97.4334029,25.4077621 L86.994338,24.8623179 C86.8229126,24.8533609 86.6588769,24.932969 86.5598448,25.0731814 L80.5627056,33.5641068 C80.4033961,33.7896618 80.0914017,33.8433645 79.8658467,33.684055 C79.7751703,33.6200103 79.7083864,33.52761 79.6760221,33.4214193 L76.5037308,23.0127935 C76.4576524,22.8616055 76.3428026,22.7411062 76.1939997,22.6878266 L66.1174626,19.0798736 C65.8574829,18.9867866 65.7221897,18.7005695 65.8152766,18.4405899 C65.8506618,18.3417639 65.9162524,18.256581 66.0027529,18.1971138 L74.5349811,12.3313844 C74.6730487,12.2364659 74.7543973,12.0787028 74.7516556,11.9111777 L74.5764614,1.20626645 C74.5719428,0.930161047 74.7921073,0.702670282 75.0682127,0.698151604 Z" id="Combined-Shape"></path>
                    </g>
                    <path d="M5.984,132.8592 C6.68213333,132.609867 7.39273333,132.348067 8.1158,132.0738 C8.83886667,131.799533 9.54946667,131.487867 10.2476,131.1388 C10.846,130.8396 11.5192,130.565333 12.2672,130.316 C14.3117333,129.7176 16.3188667,129.169067 18.2886,128.6704 C20.2583333,128.171733 22.2904,127.747867 24.3848,127.3988 C26.7784,126.999867 29.1470667,126.638333 31.4908,126.3142 C33.8345333,125.990067 36.2032,125.803067 38.5968,125.7532 C38.6965333,125.653467 38.8087333,125.5662 38.9334,125.4914 C39.0580667,125.4166 39.1702667,125.354267 39.27,125.3044 L39.27,125.3044 L39.5692,125.1548 C40.766,125.104933 41.8755333,125.2296 42.8978,125.5288 C43.9200667,125.828 44.9548,125.927733 46.002,125.828 C45.7028,124.7808 45.1542667,123.982933 44.3564,123.4344 C43.5585333,122.885867 42.8853333,122.2376 42.3368,121.4896 C41.8381333,121.389867 41.3519333,121.252733 40.8782,121.0782 C40.4044667,120.903667 39.9182667,120.7416 39.4196,120.592 C37.8238667,120.193067 36.2530667,120.080867 34.7072,120.2554 C33.1613333,120.429933 31.6154667,120.467333 30.0696,120.3676 C28.8229333,120.766533 27.5887333,120.966 26.367,120.966 C25.1452667,120.966 23.9110667,121.015867 22.6644,121.1156 C21.0188,121.364933 19.3607333,121.6018 17.6902,121.8262 C16.0196667,122.0506 14.3865333,122.362267 12.7908,122.7612 C12.6412,122.811067 12.4666667,122.848467 12.2672,122.8734 C12.0677333,122.898333 11.8932,122.786133 11.7436,122.5368 C11.7934667,121.9384 11.8558,121.315067 11.9306,120.6668 C12.0054,120.018533 12.1176,119.3952 12.2672,118.7968 C12.9154667,116.4032 13.5388,114.022067 14.1372,111.6534 C14.7356,109.284733 15.4836,106.878667 16.3812,104.4352 C16.83,104.235733 17.2414,104.048733 17.6154,103.8742 C17.9894,103.699667 18.3758667,103.562533 18.7748,103.4628 C20.2209333,103.213467 21.6421333,102.851933 23.0384,102.3782 C24.4346667,101.904467 25.8808,101.542933 27.3768,101.2936 C28.9226667,101.044267 30.4685333,100.707667 32.0144,100.2838 C33.5602667,99.8599333 35.1310667,99.5981333 36.7268,99.4984 C37.2753333,99.4984 37.8986667,99.4236 38.5968,99.274 C39.0456,99.274 39.5442667,99.1992 40.0928,99.0496 C40.3421333,99.0496 40.6164,99.0371333 40.9156,99.0122 C41.2148,98.9872667 41.4890667,98.9748 41.7384,98.9748 C42.0874667,98.9748 42.3991333,98.9872667 42.6734,99.0122 C42.9476667,99.0371333 43.2094667,99.0496 43.4588,99.0496 C43.758,98.5509333 43.7330667,98.0522667 43.384,97.5536 C42.8853333,96.9053333 42.3991333,96.2944667 41.9254,95.721 C41.4516667,95.1475333 41.0153333,94.5865333 40.6164,94.038 C39.7686667,93.7886667 38.9708,93.6016667 38.2228,93.477 C37.4748,93.3523333 36.7018667,93.3398667 35.904,93.4396 C35.0064,93.4894667 34.0838667,93.5518 33.1364,93.6266 C32.1889333,93.7014 31.2664,93.8136 30.3688,93.9632 C28.7232,94.2125333 27.0526667,94.4743333 25.3572,94.7486 L23.6700444,95.0187111 C22.5508148,95.1960148 21.4426667,95.3677778 20.3456,95.534 C20.196,95.534 20.0464,95.5589333 19.8968,95.6088 C19.7472,95.6586667 19.5726667,95.6088 19.3732,95.4592 C19.4230667,95.0104 19.4978667,94.5366667 19.5976,94.038 C19.6973333,93.5393333 19.8594,92.9035333 20.0838,92.1306 C20.3082,91.3576667 20.6198667,90.3977333 21.0188,89.2508 C21.4177333,88.1038667 21.9164,86.6577333 22.5148,84.9124 C22.7142667,84.314 22.9012667,83.7156 23.0758,83.1172 C23.2503333,82.5188 23.6118667,81.9702667 24.1604,81.4716 C26.4044,80.9230667 28.5611333,80.3122 30.6306,79.639 C32.7000667,78.9658 34.8568,78.4048 37.1008,77.956 C37.7490667,77.8562667 38.3848667,77.7565333 39.0082,77.6568 C39.6315333,77.5570667 40.2424,77.4074667 40.8408,77.208 C41.6885333,77.0085333 42.5113333,76.834 43.3092,76.6844 C44.1070667,76.5348 44.9049333,76.5098667 45.7028,76.6096 C45.9521333,76.46 46.1765333,76.2979333 46.376,76.1234 C46.5754667,75.9488667 46.7749333,75.8117333 46.9744,75.712 C47.6725333,75.9613333 48.3582,76.1608 49.0314,76.3104 C49.7046,76.46 50.3653333,76.6594667 51.0136,76.9088 C51.2629333,76.6096 51.3751333,76.3104 51.3502,76.0112 C51.3252667,75.712 51.2629333,75.4128 51.1632,75.1136 C50.9138667,74.5650667 50.6520667,74.029 50.3778,73.5054 C50.1035333,72.9818 49.7918667,72.4457333 49.4428,71.8972 C49.2932,71.6478667 49.1186667,71.4359333 48.9192,71.2614 C48.7197333,71.0868667 48.4953333,70.8749333 48.246,70.6256 C47.3484,70.5258667 46.4632667,70.4012 45.5906,70.2516 C44.7179333,70.102 43.8328,70.0521333 42.9352,70.102 C41.9378667,70.102 40.9654667,70.1394 40.018,70.2142 C39.0705333,70.289 38.0981333,70.3513333 37.1008,70.4012 C34.8069333,70.5009333 32.5130667,70.7128667 30.2192,71.037 C27.9253333,71.3611333 25.6314667,71.7974667 23.3376,72.346 C23.0882667,72.4457333 22.814,72.5080667 22.5148,72.533 C22.2156,72.5579333 21.9662667,72.5704 21.7668,72.5704 C21.318,72.3210667 20.9066,72.1216 20.5326,71.972 C20.1586,71.8224 19.822,71.6478667 19.5228,71.4484 C18.6750667,71.7476 18.0018667,72.2213333 17.5032,72.8696 C17.0045333,73.5178667 16.456,74.1162667 15.8576,74.6648 C15.3090667,75.0138667 14.7231333,75.338 14.0998,75.6372 C13.4764667,75.9364 12.8157333,76.2605333 12.1176,76.6096 C11.7186667,76.8589333 11.3446667,77.0958 10.9956,77.3202 C10.6465333,77.5446 10.3972,77.9061333 10.2476,78.4048 C10.1478667,78.8037333 10.1354,79.1528 10.2102,79.452 C10.285,79.7512 10.3972,80.0504 10.5468,80.3496 C10.6964,80.6488 10.846,80.948 10.9956,81.2472 C11.1452,81.5464 11.2449333,81.8456 11.2948,82.1448 C11.2449333,82.2445333 11.1950667,82.3692 11.1452,82.5188 L11.0953333,82.6600889 C11.0620889,82.7487407 11.0288444,82.8263111 10.9956,82.8928 C9.59933333,85.5856 8.3776,88.3282667 7.3304,91.1208 C6.2832,93.9133333 5.48533333,96.8056 4.9368,99.7976 C4.9368,100.0968 4.862,100.3586 4.7124,100.583 C4.5628,100.8074 4.43813333,101.044267 4.3384,101.2936 C3.49066667,101.493067 2.6928,101.7424 1.9448,102.0416 C1.1968,102.3408 0.623333333,102.964133 0.2244,103.9116 C0.623333333,104.709467 1.05966667,105.469933 1.5334,106.193 C2.00713333,106.916067 2.59306667,107.526933 3.2912,108.0256 C3.1416,109.770933 3.00446667,111.4664 2.8798,113.112 C2.75513333,114.7576 2.618,116.378267 2.4684,117.974 C2.36866667,119.420133 2.40606667,120.803933 2.5806,122.1254 C2.75513333,123.446867 3.2164,124.706 3.9644,125.9028 C3.9644,126.152133 3.91453333,126.3516 3.8148,126.5012 C3.8148,126.551067 3.74,126.675733 3.5904,126.8752 C3.2912,126.8752 3.00446667,126.900133 2.7302,126.95 C2.45593333,126.999867 2.19413333,127.049733 1.9448,127.0996 C1.496,127.448667 1.09706667,127.785267 0.748,128.1094 C0.398933333,128.433533 0.1496,128.844933 -1.70530257e-13,129.3436 C0.0997333333,130.340933 0.498666667,131.014133 1.1968,131.3632 C1.89493333,131.712267 2.56813333,132.1112 3.2164,132.56 C3.71506667,132.609867 4.1888,132.659733 4.6376,132.7096 C5.0864,132.759467 5.5352,132.809333 5.984,132.8592 Z M60.8124,131.2136 C61.5105333,131.5128 62.2834667,131.612533 63.1312,131.5128 C63.5301333,131.263467 64.1285333,131.014133 64.9264,130.7648 C64.9264,130.714933 64.9139333,130.640133 64.889,130.5404 C64.8640667,130.440667 64.8765333,130.340933 64.9264,130.2412 C64.7269333,129.942 64.5274667,129.630333 64.328,129.3062 C64.1285333,128.982067 63.9290667,128.6704 63.7296,128.3712 C63.1312,127.4736 62.6076,126.5012 62.1588,125.454 C61.1614667,123.110267 60.3386667,120.779 59.6904,118.4602 C59.0421333,116.1414 58.3190667,113.760267 57.5212,111.3168 C57.4214667,110.917867 57.3217333,110.4566 57.222,109.933 C57.1222667,109.4094 57.1222667,108.873333 57.222,108.3248 C57.8204,107.477067 58.4312667,106.629333 59.0546,105.7816 C59.6779333,104.933867 60.3137333,104.111067 60.962,103.3132 C61.3110667,102.8644 61.8097333,102.253533 62.458,101.4806 C63.1062667,100.707667 63.7919333,99.9098 64.515,99.087 C65.2380667,98.2642 65.9237333,97.4663333 66.572,96.6934 C67.2202667,95.9204667 67.694,95.3345333 67.9932,94.9356 C67.5444,94.2374667 67.0332667,93.7263333 66.4598,93.4022 C65.8863333,93.0780667 64.9762667,92.8162667 63.7296,92.6168 C63.3805333,92.8661333 63.0688667,93.1154667 62.7946,93.3648 C62.5203333,93.6141333 62.2086667,93.9133333 61.8596,94.2624 C61.6601333,94.412 61.336,94.7735333 60.8872,95.347 C60.4384,95.9204667 59.9771333,96.5438 59.5034,97.217 C59.0296667,97.8902 58.5684,98.526 58.1196,99.1244 C57.6708,99.7228 57.3716,100.0968 57.222,100.2464 C56.9228,100.595467 56.5986667,101.044267 56.2496,101.5928 C55.9005333,102.141333 55.5016,102.465467 55.0528,102.5652 C54.8034667,102.216133 54.6289333,101.767333 54.5292,101.2188 C54.4294667,100.670267 54.3172667,100.109267 54.1926,99.5358 C54.0679333,98.9623333 53.9308,98.4013333 53.7812,97.8528 C53.6316,97.3042667 53.3822667,96.8305333 53.0332,96.4316 C52.4846667,95.8830667 51.6743333,95.3844 50.6022,94.9356 C49.5300667,94.4868 48.5078,94.225 47.5354,94.1502 C46.563,94.0754 45.7651333,94.2624 45.1418,94.7112 C44.5184667,95.16 44.3564,95.9828 44.6556,97.1796 C44.7553333,97.5785333 44.9423333,98.152 45.2166,98.9 C45.4908667,99.648 45.7900667,100.445867 46.1142,101.2936 C46.4383333,102.141333 46.7250667,102.951667 46.9744,103.7246 C47.2237333,104.497533 47.3982667,105.083467 47.498,105.4824 C47.5478667,105.881333 47.6725333,106.38 47.872,106.9784 C48.0714667,107.5768 48.2834,108.200133 48.5078,108.8484 C48.7322,109.496667 48.9192,110.144933 49.0688,110.7932 C49.2184,111.441467 49.2682667,112.014933 49.2184,112.5136 C48.8693333,113.112 48.3956,113.835067 47.7972,114.6828 C47.0990667,115.979333 46.4632667,117.101333 45.8898,118.0488 C45.3163333,118.996267 44.7054667,120.193067 44.0572,121.6392 C43.9076,121.9384 43.8203333,122.250067 43.7954,122.5742 C43.7704667,122.898333 43.9076,123.309733 44.2068,123.8084 C44.7054667,124.057733 45.0919333,124.1824 45.3662,124.1824 C45.6404667,124.1824 46.1017333,124.307067 46.75,124.5564 C46.9993333,124.456667 47.2611333,124.394333 47.5354,124.3694 C47.8096667,124.344467 48.0714667,124.282133 48.3208,124.1824 C48.9690667,123.334667 49.4802,122.412133 49.8542,121.4148 C50.2282,120.417467 50.7892,119.494933 51.5372,118.6472 C51.6369333,118.7968 51.7616,118.971333 51.9112,119.1708 C52.0608,119.370267 52.2104,119.569733 52.36,119.7692 C52.6592,120.3676 52.9334667,120.978467 53.1828,121.6018 C53.4321333,122.225133 53.7064,122.836 54.0056,123.4344 C54.7037333,124.730933 55.3894,125.952667 56.0626,127.0996 C56.7358,128.246533 57.6458667,129.293733 58.7928,130.2412 C59.4410667,130.590267 60.1142667,130.9144 60.8124,131.2136 Z M61.336,150.5494 C62.2834667,150.9234 63.3306667,151.0356 64.4776,150.886 C64.7768,150.686533 65.1009333,150.499533 65.45,150.325 L65.7907556,150.146311 C66.0123852,150.024415 66.2229333,149.896978 66.4224,149.764 C66.6717333,148.367733 66.946,147.0338 67.2452,145.7622 C67.5444,144.4906 67.8436,143.231467 68.1428,141.9848 C68.6913333,139.8904 69.2523333,137.845867 69.8258,135.8512 C70.3992667,133.856533 70.9602667,131.812 71.5088,129.7176 C71.7581333,129.019467 71.9451333,128.271467 72.0698,127.4736 C72.1944667,126.675733 72.3565333,125.778133 72.556,124.7808 C72.6557333,124.681067 72.7804,124.494067 72.93,124.2198 C73.0796,123.945533 73.2541333,123.608933 73.4536,123.21 C73.5533333,123.309733 73.6406,123.372067 73.7154,123.397 C73.7902,123.421933 73.8774667,123.484267 73.9772,123.584 C75.2737333,124.880533 76.7448,125.803067 78.3904,126.3516 C80.036,126.900133 81.8062667,127.074667 83.7012,126.8752 C84.1001333,126.825333 84.5115333,126.850267 84.9354,126.95 C85.3592667,127.049733 85.8205333,127.074667 86.3192,127.0248 C87.0173333,126.576 87.7653333,126.139667 88.5632,125.7158 C89.3610667,125.291933 90.1838667,124.880533 91.0316,124.4816 C91.4305333,124.282133 92.3032,123.6588 93.6496,122.6116 C94.996,121.5644 96.4172,120.405 97.9132,119.1334 C99.4092,117.8618 100.780533,116.665 102.0272,115.543 C103.273867,114.421 104.021867,113.685467 104.2712,113.3364 C104.819733,112.5884 105.443067,111.890267 106.1412,111.242 C106.839333,110.593733 107.437733,109.870667 107.9364,109.0728 C107.736933,108.624 107.400333,108.1752 106.9266,107.7264 C106.452867,107.2776 105.9916,107.003333 105.5428,106.9036 C104.894533,107.0532 104.2712,107.4272 103.6728,108.0256 C103.423467,108.274933 103.174133,108.499333 102.9248,108.6988 C102.675467,108.898267 102.426133,109.122667 102.1768,109.372 C102.0272,109.5216 101.553467,110.020267 100.7556,110.868 C99.9577333,111.715733 99.0850667,112.613333 98.1376,113.5608 C97.1901333,114.508267 96.2925333,115.356 95.4448,116.104 C94.5970667,116.852 94.0734667,117.201067 93.874,117.1512 C93.8241333,117.051467 93.7742667,116.9642 93.7244,116.8894 C93.6745333,116.8146 93.6745333,116.727333 93.7244,116.6276 C93.7244,116.228667 93.7992,115.904533 93.9488,115.6552 C94.1981333,115.2064 94.4100667,114.932133 94.5846,114.8324 C94.7591333,114.732667 94.9461333,114.433467 95.1456,113.9348 C95.5445333,113.436133 95.6692,112.8128 95.5196,112.0648 C95.5196,111.9152 95.5694667,111.790533 95.6692,111.6908 C95.9684,111.3916 96.2177333,111.1672 96.4172,111.0176 C96.5668,110.319467 96.7662667,109.733533 97.0156,109.2598 C97.2649333,108.786067 97.5142667,108.200133 97.7636,107.502 C98.0628,106.704133 98.2747333,106.055867 98.3994,105.5572 C98.5240667,105.058533 98.6362667,104.572333 98.736,104.0986 C98.8357333,103.624867 98.9105333,103.113733 98.9604,102.5652 C99.0102667,102.016667 99.11,101.318533 99.2596,100.4708 C99.4092,99.7726667 99.4092,99.0745333 99.2596,98.3764 C99.11,97.6782667 98.9853333,96.9801333 98.8856,96.282 C98.6362667,95.3345333 98.1376,94.6862667 97.3896,94.3372 C96.5418667,93.9382667 95.744,93.5393333 94.996,93.1404 C94.248,92.7414667 93.4501333,92.3425333 92.6024,91.9436 C92.3530667,91.8438667 92.0663333,91.794 91.7422,91.794 C91.4180667,91.794 91.1313333,91.7690667 90.882,91.7192 C90.2836,92.1181333 89.7101333,92.4547333 89.1616,92.729 C88.6130667,93.0032667 88.0645333,93.3398667 87.516,93.7388 C85.272,95.6337333 83.1776,97.5785333 81.2328,99.5732 C80.9834667,99.8225333 80.7590667,100.071867 80.5596,100.3212 C80.3601333,100.570533 80.0609333,100.745067 79.662,100.8448 L79.7296,100.8264 L79.71436,100.593472 C79.6994,100.270336 79.70688,99.956176 79.7368,99.650992 L79.7742,99.3488 C79.849,98.8501333 79.9362667,98.3265333 80.036,97.778 C80.3850667,97.03 80.3352,96.2072 79.8864,95.3096 C79.1384,94.6114667 78.3405333,94.0255333 77.4928,93.5518 C76.6450667,93.0780667 75.7973333,92.6168 74.9496,92.168 C74.7501333,92.0682667 74.5506667,91.9934667 74.3512,91.9436 C74.1517333,91.8937333 74.0021333,91.8438667 73.9024,91.794 C73.4536,91.9436 73.117,92.1430667 72.8926,92.3924 C72.6682,92.6417333 72.4313333,92.8910667 72.182,93.1404 C71.1846667,94.4369333 70.3743333,95.7584 69.751,97.1048 C69.1276667,98.4512 68.5417333,99.8474667 67.9932,101.2936 C67.3948,102.889333 66.8462667,104.385333 66.3476,105.7816 C65.8489333,107.177867 65.3752,108.561667 64.9264,109.933 C64.4776,111.304333 64.0537333,112.713067 63.6548,114.1592 C63.2558667,115.605333 62.8569333,117.176133 62.458,118.8716 C61.8596,121.5644 61.2612,124.194867 60.6628,126.763 C60.0644,129.331133 59.5158667,131.9616 59.0172,134.6544 C58.7678667,135.950933 58.5434667,137.210067 58.344,138.4318 C58.1445333,139.653533 57.97,140.887733 57.8204,142.1344 C57.7206667,142.932267 57.6583333,143.7052 57.6334,144.4532 C57.6084667,145.2012 57.596,145.974133 57.596,146.772 C57.596,147.2208 57.6708,147.657133 57.8204,148.081 C57.97,148.504867 58.2692,148.966133 58.718,149.4648 C59.5158667,149.813867 60.3885333,150.1754 61.336,150.5494 Z M78.914,122.3872 C78.6646667,122.137867 78.3904,121.888533 78.0912,121.6392 C77.792,121.389867 77.5177333,121.140533 77.2684,120.8912 L77.2684,120.8912 L75.922,120.2928 C75.4732,120.093333 74.9745333,119.868933 74.426,119.6196 C74.7750667,118.722 75.0618,117.799467 75.2862,116.852 C75.5106,115.904533 75.9469333,115.0568 76.5952,114.3088 C76.8944,114.0096 77.1188,113.673 77.2684,113.299 C77.418,112.925 77.6174667,112.538533 77.8668,112.1396 C78.5649333,110.992667 79.3628,109.8956 80.2604,108.8484 C81.158,107.8012 82.0306667,106.778933 82.8784,105.7816 C83.4768,105.133333 84.0128667,104.597267 84.4866,104.1734 C84.9603333,103.749533 85.4465333,103.3506 85.9452,102.9766 C86.4438667,102.6026 86.9425333,102.216133 87.4412,101.8172 C87.9398667,101.418267 88.5133333,100.9196 89.1616,100.3212 C89.4109333,100.121733 89.6228667,99.9222667 89.7974,99.7228 L89.9353125,99.5732 C90.0802375,99.4236 90.2462,99.274 90.4332,99.1244 C90.7324,99.274 90.8570667,99.4485333 90.8072,99.648 C90.7573333,99.8474667 90.7074667,100.046933 90.6576,100.2464 C90.2586667,101.493067 89.8846667,102.615067 89.5356,103.6124 C89.1865333,104.609733 88.825,105.5572 88.451,106.4548 C88.077,107.3524 87.6780667,108.274933 87.2542,109.2224 C86.8303333,110.169867 86.3441333,111.242 85.7956,112.4388 C85.3966667,113.3364 84.9478667,114.221533 84.4492,115.0942 C83.9505333,115.966867 83.4518667,116.876933 82.9532,117.8244 C82.2052,119.270533 81.2328,120.5172 80.036,121.5644 C79.8864,121.714 79.7243333,121.851133 79.5498,121.9758 C79.3752667,122.100467 79.1633333,122.2376 78.914,122.3872 Z M108.6096,127.8476 C109.008533,127.747867 109.382533,127.6232 109.7316,127.4736 C110.080667,127.324 110.429733,127.199333 110.7788,127.0996 C111.127867,127.0996 111.402133,127.1744 111.6016,127.324 C111.801067,127.4736 112.000533,127.498533 112.2,127.3988 C112.598933,126.750533 112.960467,126.152133 113.2846,125.6036 C113.608733,125.055067 113.970267,124.581333 114.3692,124.1824 C115.815333,122.2376 117.2864,120.355133 118.7824,118.535 C120.2784,116.714867 121.824267,114.932133 123.42,113.1868 C123.818933,112.787867 124.230333,112.388933 124.6542,111.99 C125.078067,111.591067 125.489467,111.1672 125.8884,110.7184 C125.938267,110.618667 125.9632,110.506467 125.9632,110.3818 C125.9632,110.257133 125.988133,110.144933 126.038,110.0452 C125.5892,109.4468 124.9908,109.2224 124.2428,109.372 C123.843867,109.621333 123.4574,109.833267 123.0834,110.0078 C122.7094,110.182333 122.397733,110.444133 122.1484,110.7932 C121.450267,111.3916 120.7646,112.0274 120.0914,112.7006 C119.4182,113.3738 118.807333,114.0844 118.2588,114.8324 C117.610533,115.480667 117.012133,116.166333 116.4636,116.8894 C115.915067,117.612467 115.316667,118.348 114.6684,119.096 C114.5188,119.2456 114.3692,119.420133 114.2196,119.6196 C114.07,119.819067 113.8456,119.9188 113.5464,119.9188 L113.5464,119.9188 L113.542244,119.669467 C113.536704,119.503244 113.525622,119.337022 113.509,119.1708 C113.484067,118.921467 113.496533,118.672133 113.5464,118.4228 C113.8456,117.275867 114.1448,116.116467 114.444,114.9446 C114.7432,113.772733 115.067333,112.5884 115.4164,111.3916 C116.214267,107.8012 117.111867,104.2108 118.1092,100.6204 C118.009467,100.3212 117.9596,100.1716 117.9596,100.1716 C118.159067,99.6729333 118.371,99.2366 118.5954,98.8626 C118.8198,98.4886 118.981867,98.1021333 119.0816,97.7032 C119.3808,96.1573333 119.767267,94.6239333 120.241,93.103 L120.514768,92.188944 C120.865829,90.968208 121.16104,89.7394933 121.4004,88.5028 C121.749467,86.9070667 122.123467,85.3487333 122.5224,83.8278 C122.921333,82.3068667 123.320267,80.7485333 123.7192,79.1528 C123.519733,78.7538667 123.3452,78.3923333 123.1956,78.0682 C123.046,77.7440667 122.8964,77.3825333 122.7468,76.9836 C121.599867,76.4849333 120.440467,76.0610667 119.2686,75.712 C118.096733,75.3629333 116.9124,75.0138667 115.7156,74.6648 C115.516133,74.8144 115.329133,74.9515333 115.1546,75.0762 C114.980067,75.2008667 114.818,75.338 114.6684,75.4876 C114.419067,75.8366667 114.169733,76.1732667 113.9204,76.4974 C113.671067,76.8215333 113.421733,77.1830667 113.1724,77.582 C109.831333,83.1172 107.4128,89.0264 105.9168,95.3096 C105.368267,97.6034667 104.8696,99.9098 104.4208,102.2286 C103.972,104.5474 103.622933,106.878667 103.3736,109.2224 C103.273867,110.4192 103.124267,111.603533 102.9248,112.7754 C102.725333,113.947267 102.575733,115.1316 102.476,116.3284 C102.376267,117.325733 102.351333,118.360467 102.4012,119.4326 C102.451067,120.504733 102.600667,121.5644 102.85,122.6116 C103.099333,123.758533 103.573067,124.755867 104.2712,125.6036 C104.969333,126.451333 105.9168,127.074667 107.1136,127.4736 C107.362933,127.573333 107.612267,127.635667 107.8616,127.6606 C108.110933,127.685533 108.360267,127.747867 108.6096,127.8476 Z M127.534,127.1744 C131.623067,128.770133 135.412933,128.196667 138.9036,125.454 C139.751333,124.706 140.5118,123.8458 141.185,122.8734 C141.8582,121.901 142.543867,120.941067 143.242,119.9936 C143.491333,119.594667 143.6908,119.158333 143.8404,118.6846 C143.99,118.210867 144.189467,117.7496 144.4388,117.3008 C144.388933,117.051467 144.351533,116.839533 144.3266,116.665 C144.301667,116.490467 144.2892,116.3284 144.2892,116.1788 C144.538533,115.630267 144.800333,115.156533 145.0746,114.7576 C145.348867,114.358667 145.610667,113.959733 145.86,113.5608 C146.1592,112.5136 146.3462,111.478867 146.421,110.4566 C146.4958,109.434333 146.508267,108.424533 146.4584,107.4272 C146.4584,107.177867 146.470867,106.941 146.4958,106.7166 C146.520733,106.4922 146.6828,106.280267 146.982,106.0808 C147.829733,106.479733 148.714867,106.7914 149.6374,107.0158 C150.559933,107.2402 151.445067,107.402267 152.2928,107.502 C152.941067,107.2028 153.527,106.928533 154.0506,106.6792 C154.5742,106.429867 155.110267,106.130667 155.6588,105.7816 C155.708667,105.632 155.783467,105.494867 155.8832,105.3702 C155.982933,105.245533 156.082667,105.058533 156.1824,104.8092 C155.234933,104.111067 154.275,103.6498 153.3026,103.4254 C152.3302,103.201 151.420133,102.889333 150.5724,102.4904 C149.624933,102.0416 148.677467,101.605267 147.73,101.1814 C146.782533,100.757533 145.810133,100.271333 144.8128,99.7228 C143.965067,99.2241333 143.079933,98.7753333 142.1574,98.3764 C141.234867,97.9774667 140.349733,97.5536 139.502,97.1048 C139.252667,97.3541333 139.028267,97.5660667 138.8288,97.7406 C138.629333,97.9151333 138.404933,98.1270667 138.1556,98.3764 C137.058533,97.778 136.011333,97.1671333 135.014,96.5438 C134.016667,95.9204667 132.969467,95.3345333 131.8724,94.786 C131.373733,94.8358667 130.949867,94.973 130.6008,95.1974 C130.251733,95.4218 129.9276,95.7085333 129.6284,96.0576 C129.279333,96.4565333 128.942733,96.8554667 128.6186,97.2544 C128.294467,97.6533333 127.957867,98.1270667 127.6088,98.6756 C126.7112,100.1716 125.838533,101.717467 124.9908,103.3132 C124.143067,104.908933 123.370133,106.6044 122.672,108.3996 C121.924,110.294533 121.4004,112.226867 121.1012,114.1966 C120.802,116.166333 120.777067,118.248267 121.0264,120.4424 C121.375467,121.290133 121.687133,122.000733 121.9614,122.5742 C122.235667,123.147667 122.534867,123.633867 122.859,124.0328 C123.183133,124.431733 123.582067,124.805733 124.0558,125.1548 C124.529533,125.503867 125.115467,125.9028 125.8136,126.3516 C126.062933,126.451333 126.349667,126.588467 126.6738,126.763 L126.909887,126.886888 C127.138962,127.003763 127.347,127.0996 127.534,127.1744 Z M131.5732,122.1628 C131.473467,122.063067 131.373733,121.988267 131.274,121.9384 C131.174267,121.888533 131.074533,121.838667 130.9748,121.7888 C130.924933,121.689067 130.875067,121.6018 130.8252,121.527 C130.775333,121.4522 130.7504,121.364933 130.7504,121.2652 C130.999733,118.672133 131.548267,116.4032 132.396,114.4584 L132.396,114.4584 L132.5456,113.86 C132.595467,113.660533 132.645333,113.461067 132.6952,113.2616 C132.944533,112.0648 133.281133,110.930333 133.705,109.8582 C134.128867,108.786067 134.5652,107.7264 135.014,106.6792 C135.263333,106.030933 135.512667,105.3328 135.762,104.5848 C136.011333,103.8368 136.2856,103.113733 136.5848,102.4156 C136.684533,102.365733 136.796733,102.3034 136.9214,102.2286 C137.046067,102.1538 137.208133,102.066533 137.4076,101.9668 C137.607067,101.567867 137.806533,101.156467 138.006,100.7326 C138.205467,100.308733 138.429867,99.8225333 138.6792,99.274 C139.2776,100.271333 139.676533,101.4432 139.876,102.7896 C140.075467,104.136 140.075467,105.906267 139.876,108.1004 C139.7264,109.546533 139.4646,110.967733 139.0906,112.364 C138.7166,113.760267 138.130667,115.106667 137.3328,116.4032 C136.5848,117.649867 135.7246,118.709533 134.7522,119.5822 C133.7798,120.454867 132.720133,121.315067 131.5732,122.1628 Z M152.6668,126.5012 C153.015867,126.600933 153.364933,126.6134 153.714,126.5386 C154.063067,126.4638 154.437067,126.376533 154.836,126.2768 C154.736267,125.9776 154.649,125.703333 154.5742,125.454 C154.4994,125.204667 154.412133,124.955333 154.3124,124.706 C154.462,124.2572 154.586667,123.982933 154.6864,123.8832 C154.9856,123.783467 155.2474,123.721133 155.4718,123.6962 C155.6962,123.671267 155.908133,123.608933 156.1076,123.5092 C156.307067,123.110267 156.581333,122.736267 156.9304,122.3872 C158.027467,120.4424 159.224267,118.584867 160.5208,116.8146 C161.817333,115.044333 163.163733,113.311467 164.56,111.616 C165.0088,111.067467 165.445133,110.518933 165.869,109.9704 C166.292867,109.421867 166.6544,108.723733 166.9536,107.876 C167.053333,107.975733 167.153067,108.0256 167.2528,108.0256 C167.352533,108.0256 167.464733,108.000667 167.5894,107.9508 C167.714067,107.900933 167.838733,107.876 167.9634,107.876 C168.088067,107.876 168.250133,107.9508 168.4496,108.1004 C168.200267,109.396933 167.988333,110.743333 167.8138,112.1396 C167.639267,113.535867 167.751467,114.932133 168.1504,116.3284 C168.798667,116.7772 169.372133,117.1512 169.8708,117.4504 C170.369467,117.7496 170.830733,117.998933 171.2546,118.1984 C171.678467,118.397867 172.102333,118.547467 172.5262,118.6472 C172.950067,118.746933 173.4612,118.821733 174.0596,118.8716 C174.907333,118.672133 175.867267,118.185933 176.9394,117.413 C178.011533,116.640067 179.083667,115.7674 180.1558,114.795 C181.227933,113.8226 182.2128,112.825267 183.1104,111.803 C184.008,110.780733 184.731067,109.920533 185.2796,109.2224 C185.379333,108.973067 185.441667,108.723733 185.4666,108.4744 C185.491533,108.225067 185.4292,107.925867 185.2796,107.5768 C185.179867,107.526933 184.9056,107.439667 184.4568,107.315 C184.008,107.190333 183.7088,107.078133 183.5592,106.9784 C183.359733,107.327467 182.8486,107.900933 182.0258,108.6988 C181.203,109.496667 180.330333,110.307 179.4078,111.1298 C178.485267,111.9526 177.6126,112.688133 176.7898,113.3364 C175.967,113.984667 175.455867,114.333733 175.2564,114.3836 C174.857467,114.433467 174.658,114.3088 174.658,114.0096 C174.658,113.7104 174.7328,113.323933 174.8824,112.8502 C175.032,112.376467 175.231467,111.890267 175.4808,111.3916 C175.730133,110.892933 175.904667,110.444133 176.0044,110.0452 C176.403333,108.748667 176.8272,107.514467 177.276,106.3426 C177.7248,105.170733 178.148667,103.9864 178.5476,102.7896 C178.348133,102.241067 178.273333,101.680067 178.3232,101.1066 C178.373067,100.533133 178.123733,99.9472 177.5752,99.3488 C176.727467,98.9 175.804933,98.5010667 174.8076,98.152 C173.810267,97.8029333 172.8628,97.3790667 171.9652,96.8804 C171.715867,97.03 171.479,97.1796 171.2546,97.3292 C171.0302,97.4788 170.793333,97.6533333 170.544,97.8528 C170.3944,98.0024 170.182467,98.1644667 169.9082,98.339 C169.633933,98.5135333 169.372133,98.7254667 169.1228,98.9748 C168.923333,99.0745333 168.736333,99.2241333 168.5618,99.4236 C168.387267,99.6230667 168.175333,99.8225333 167.926,100.022 C167.726533,100.1716 167.539533,100.3212 167.365,100.4708 C167.190467,100.6204 166.978533,100.794933 166.7292,100.9944 C166.479867,101.193867 166.267933,101.355933 166.0934,101.4806 C165.918867,101.605267 165.7568,101.792267 165.6072,102.0416 C165.308,102.290933 165.0836,102.515333 164.934,102.7148 C164.7844,102.914267 164.584933,103.113733 164.3356,103.3132 C164.086267,103.512667 163.874333,103.712133 163.6998,103.9116 C163.525267,104.111067 163.3632,104.2856 163.2136,104.4352 C162.7648,104.7344 162.3908,105.083467 162.0916,105.4824 C161.842267,105.731733 161.617867,105.9686 161.4184,106.193 C161.218933,106.4174 160.994533,106.629333 160.7452,106.8288 C160.5956,107.028267 160.458467,107.227733 160.3338,107.4272 C160.209133,107.626667 159.947333,107.7264 159.5484,107.7264 C159.448667,107.078133 159.5858,106.467267 159.9598,105.8938 C160.3338,105.320333 160.495867,104.7344 160.446,104.136 C160.944667,103.5376 161.3062,102.876867 161.5306,102.1538 C161.755,101.430733 161.966933,100.720133 162.1664,100.022 C162.4656,99.3737333 162.340933,98.7504 161.7924,98.152 C160.944667,97.6034667 160.0346,97.1796 159.0622,96.8804 C158.0898,96.5812 157.129867,96.2072 156.1824,95.7584 C155.933067,95.6586667 155.7336,95.6337333 155.584,95.6836 C155.4344,95.7334667 155.234933,95.7584 154.9856,95.7584 C154.486933,96.2570667 154.088,96.7432667 153.7888,97.217 C153.4896,97.6907333 153.215333,98.2018667 152.966,98.7504 C152.218,100.2464 151.607133,101.8172 151.1334,103.4628 C150.659667,105.1084 150.248267,106.778933 149.8992,108.4744 C149.6,109.870667 149.325733,111.254467 149.0764,112.6258 C148.827067,113.997133 148.577733,115.405867 148.3284,116.852 C148.228667,117.849333 148.116467,118.859133 147.9918,119.8814 C147.867133,120.903667 147.929467,121.8636 148.1788,122.7612 C148.577733,123.908133 149.176133,124.768333 149.974,125.3418 C150.771867,125.915267 151.669467,126.301733 152.6668,126.5012 Z M190.1416,128.259 C191.737333,128.234067 193.358,127.9972 195.0036,127.5484 C195.352667,127.3988 195.801467,127.149467 196.35,126.8004 L196.35,126.8004 L197.9956,125.3044 C198.544133,124.805733 199.092667,124.282133 199.6412,123.7336 C202.4836,120.342667 205.126533,116.752267 207.57,112.9624 C207.769467,112.713067 207.9814,112.426333 208.2058,112.1022 C208.4302,111.778067 208.517467,111.491333 208.4676,111.242 C208.417733,110.7932 208.492533,110.444133 208.692,110.1948 C208.891467,109.945467 209.041067,109.6712 209.1408,109.372 C208.8416,109.122667 208.592267,108.9232 208.3928,108.7736 C208.193333,108.624 207.956467,108.499333 207.6822,108.3996 C207.407933,108.299867 207.0838,108.200133 206.7098,108.1004 C206.3358,108.000667 205.799733,107.876 205.1016,107.7264 L205.1016,107.7264 L204.204,109.0728 C203.106933,110.7184 202.022333,112.301667 200.9502,113.8226 C199.878067,115.343533 198.718667,116.827067 197.472,118.2732 C196.5744,119.3204 195.651867,120.280333 194.7044,121.153 C193.756933,122.025667 192.709733,122.786133 191.5628,123.4344 C191.463067,123.534133 191.064133,123.6588 190.366,123.8084 C190.366,123.0604 190.378467,122.337333 190.4034,121.6392 C190.428333,120.941067 190.490667,120.242933 190.5904,119.5448 C190.8896,119.2456 191.138933,119.0212 191.3384,118.8716 C192.8344,117.475333 194.2556,116.004267 195.602,114.4584 C196.9484,112.912533 198.3696,111.416533 199.8656,109.9704 C200.713333,109.0728 201.349133,108.075467 201.773,106.9784 C202.196867,105.881333 202.583333,104.759333 202.9324,103.6124 C202.982267,103.412933 203.0072,103.1636 203.0072,102.8644 L203.0072,102.8644 L203.0072,102.0416 C202.757867,100.595467 202.2966,99.3114 201.6234,98.1894 C200.9502,97.0674 199.915467,96.1573333 198.5192,95.4592 C197.3224,94.8109333 196.225333,94.2873333 195.228,93.8884 C194.230667,93.4894667 193.2832,93.3024667 192.3856,93.3274 C191.488,93.3523333 190.602867,93.6764667 189.7302,94.2998 C188.857533,94.9231333 187.947467,95.9329333 187,97.3292 C185.404267,99.8724 184.132667,102.502867 183.1852,105.2206 C182.237733,107.938333 181.4648,110.743333 180.8664,113.6356 C180.666933,114.782533 180.542267,115.941933 180.4924,117.1138 C180.442533,118.285667 180.517333,119.47 180.7168,120.6668 C181.215467,123.559067 182.761333,125.6784 185.3544,127.0248 C186.950133,127.872533 188.545867,128.283933 190.1416,128.259 Z M193.8068,108.6988 C193.557467,108.5492 193.4328,108.424533 193.4328,108.3248 C193.4328,107.925867 193.445267,107.514467 193.4702,107.0906 C193.495133,106.666733 193.532533,106.2304 193.5824,105.7816 C193.981333,105.432533 194.305467,105.058533 194.5548,104.6596 C194.804133,104.260667 195.0036,103.811867 195.1532,103.3132 C195.3028,102.764667 195.514733,102.241067 195.789,101.7424 C196.063267,101.243733 196.325067,100.77 196.5744,100.3212 C196.624267,100.1716 196.711533,100.034467 196.8362,99.9098 L196.8362,99.9098 L197.2476,99.4984 C197.596667,100.196533 197.7338,100.8448 197.659,101.4432 C197.5842,102.0416 197.5468,102.664933 197.5468,103.3132 C197.098,104.460133 196.549467,105.457467 195.9012,106.3052 C195.252933,107.152933 194.5548,107.9508 193.8068,108.6988 Z M231.3938,132.1486 C233.064333,132.722067 234.872,132.958933 236.8168,132.8592 C237.116,132.809333 237.427667,132.759467 237.7518,132.7096 C238.075933,132.659733 238.3876,132.684667 238.6868,132.7844 C239.4348,132.7844 240.157867,132.647267 240.856,132.373 C241.554133,132.098733 242.227333,131.762133 242.8756,131.3632 C243.274533,131.113867 243.661,130.827133 244.035,130.503 L244.317837,130.266913 C244.603012,130.037838 244.8952,129.8298 245.1944,129.6428 C245.9424,129.094267 246.603133,128.470933 247.1766,127.7728 C247.750067,127.074667 248.385867,126.401467 249.084,125.7532 C249.931733,124.805733 250.6922,123.833333 251.3654,122.836 C252.0386,121.838667 252.799067,120.841333 253.6468,119.844 C254.045733,119.345333 254.3948,118.821733 254.694,118.2732 C254.9932,117.724667 255.267467,117.1512 255.5168,116.5528 C255.816,115.9544 256.165067,115.405867 256.564,114.9072 C256.962933,114.408533 257.361867,113.884933 257.7608,113.3364 C257.960267,113.087067 258.122333,112.837733 258.247,112.5884 C258.371667,112.339067 258.434,112.089733 258.434,111.8404 C258.483867,111.291867 258.621,110.768267 258.8454,110.2696 C259.0698,109.770933 259.3316,109.247333 259.6308,108.6988 C259.431333,108.499333 259.269267,108.3248 259.1446,108.1752 C259.019933,108.0256 258.857867,107.900933 258.6584,107.8012 L256.4144,107.0532 C255.6664,106.803867 254.943333,106.554533 254.2452,106.3052 C254.0956,106.404933 253.995867,106.479733 253.946,106.5296 C253.896133,106.579467 253.821333,106.654267 253.7216,106.754 C253.621867,106.9036 253.522133,107.078133 253.4224,107.2776 C253.322667,107.477067 253.222933,107.6516 253.1232,107.8012 C252.873867,108.499333 252.587133,109.1476 252.263,109.746 C251.938867,110.3444 251.577333,110.9428 251.1784,111.5412 C249.832,113.286533 248.460667,115.006933 247.0644,116.7024 C245.668133,118.397867 244.197067,120.018533 242.6512,121.5644 C241.9032,122.362267 241.130267,123.147667 240.3324,123.9206 C239.534533,124.693533 238.6868,125.354267 237.7892,125.9028 C237.1908,126.3516 236.604867,126.775467 236.0314,127.1744 C235.457933,127.573333 234.7972,127.897467 234.0492,128.1468 C233.6004,127.698 233.276267,127.274133 233.0768,126.8752 C232.9272,126.376533 232.802533,125.877867 232.7028,125.3792 L232.4036,123.8832 C232.303867,123.484267 232.229067,123.085333 232.1792,122.6864 C232.129333,122.287467 232.079467,121.913467 232.0296,121.5644 C232.129333,121.015867 232.204133,120.504733 232.254,120.031 C232.303867,119.557267 232.353733,119.120933 232.4036,118.722 C232.652933,117.3756 232.839933,116.041667 232.9646,114.7202 C233.089267,113.398733 233.400933,112.089733 233.8996,110.7932 C234.099067,110.394267 234.211267,109.9704 234.2362,109.5216 C234.261133,109.0728 234.323467,108.648933 234.4232,108.25 C234.4232,107.900933 234.473067,107.6516 234.5728,107.502 C235.570133,105.307867 236.567467,103.1262 237.5648,100.957 C238.562133,98.7878 239.734,96.6809333 241.0804,94.6364 C241.628933,93.7886667 242.189933,92.9284667 242.7634,92.0558 C243.336867,91.1831333 243.897867,90.298 244.4464,89.4004 C244.695733,89.0513333 244.9326,88.7646 245.157,88.5402 C245.3814,88.3158 245.5684,88.0290667 245.718,87.68 C245.917467,87.4306667 246.079533,87.1439333 246.2042,86.8198 C246.328867,86.4956667 246.466,86.1341333 246.6156,85.7352 C246.7652,85.8349333 246.902333,85.8972667 247.027,85.9222 C247.151667,85.9471333 247.263867,86.0094667 247.3636,86.1092 C247.214,86.9070667 247.002067,87.6924667 246.7278,88.4654 C246.453533,89.2383333 246.216667,90.0112667 246.0172,90.7842 C245.817733,91.5571333 245.693067,92.3425333 245.6432,93.1404 C245.593333,93.9382667 245.693067,94.7361333 245.9424,95.534 C247.687733,97.3790667 249.931733,98.1270667 252.6744,97.778 C253.173067,96.1324 253.7964,94.4992667 254.5444,92.8786 C255.2924,91.2579333 255.940667,89.5998667 256.4892,87.9044 L256.4506,88.0194 L256.434245,88.1036122 L256.4144,88.2036 C256.813333,87.6052 257.125,87.1439333 257.3494,86.8198 C257.5738,86.4956667 257.785733,86.1341333 257.9852,85.7352 C258.982533,83.4912 260.1544,81.1973333 261.5008,78.8536 C261.849867,78.2053333 262.174,77.5446 262.4732,76.8714 C262.7724,76.1982 263.096533,75.5374667 263.4456,74.8892 C263.345867,74.6398667 263.2586,74.4154667 263.1838,74.216 L263.104844,74.0082222 C263.049437,73.864163 262.988489,73.7090222 262.922,73.5428 C262.423333,73.2436 261.937133,72.9568667 261.4634,72.6826 C260.989667,72.4083333 260.478533,72.1216 259.93,71.8224 C259.431333,71.5730667 258.995,71.2364667 258.621,70.8126 C258.247,70.3887333 257.785733,70.1269333 257.2372,70.0272 C256.4892,69.9274667 255.9282,70.102 255.5542,70.5508 C255.1802,70.9996 254.718933,71.3486667 254.1704,71.598 C253.821333,71.4982667 253.509667,71.3985333 253.2354,71.2988 C252.961133,71.1990667 252.6744,71.1242667 252.3752,71.0744 L250.7296,71.0744 C247.937067,72.3709333 245.543467,74.0414667 243.5488,76.086 C241.554133,78.1305333 235.059,85.997 234.3858,86.8198 C233.7126,87.6426 233.101733,88.5028 232.5532,89.4004 C231.9548,90.298 231.368867,91.1831333 230.7954,92.0558 C230.221933,92.9284667 229.660933,93.8136 229.1124,94.7112 L227.1676,98.152 C226.519333,99.2989333 225.920933,100.4708 225.3724,101.6676 C224.724133,103.1636 224.163133,104.6596 223.6894,106.1556 C223.215667,107.6516 222.8292,109.197467 222.53,110.7932 C222.280667,112.239333 222.0812,113.685467 221.9316,115.1316 C221.782,116.577733 221.757067,118.023867 221.8568,119.47 C221.8568,120.866267 222.0812,122.2376 222.53,123.584 C222.8292,124.830667 223.290467,125.990067 223.9138,127.0622 C224.537133,128.134333 225.422267,129.0444 226.5692,129.7924 C228.115067,130.789733 229.723267,131.575133 231.3938,132.1486 Z M278.850227,127.257391 L279.1536,127.2492 C279.552533,127.149467 279.939,127.0248 280.313,126.8752 C280.687,126.7256 281.073467,126.576 281.4724,126.4264 C282.569467,124.531467 283.778733,122.6864 285.1002,120.8912 C286.421667,119.096 287.880267,117.325733 289.476,115.5804 C290.124267,114.8324 290.7476,114.096867 291.346,113.3738 C291.9444,112.650733 292.517867,111.865333 293.0664,111.0176 C292.517867,110.668533 291.956867,110.4192 291.3834,110.2696 C290.809933,110.12 290.224,109.9704 289.6256,109.8208 C288.2792,111.067467 287.1198,112.413867 286.1474,113.86 C285.175,115.306133 284.190133,116.752267 283.1928,118.1984 C282.943467,117.949067 282.831267,117.699733 282.8562,117.4504 C282.881133,117.201067 282.943467,116.976667 283.0432,116.7772 C283.292533,115.630267 283.554333,114.508267 283.8286,113.4112 C284.102867,112.314133 284.339733,111.192133 284.5392,110.0452 C284.8384,108.898267 285.125133,107.7638 285.3994,106.6418 C285.673667,105.5198 285.9604,104.3604 286.2596,103.1636 C286.4092,102.465467 286.571267,101.7798 286.7458,101.1066 C286.920333,100.4334 287.0824,99.7477333 287.232,99.0496 C286.982667,98.7504 286.7458,98.4886 286.5214,98.2642 L286.5214,98.2642 L285.8108,97.5536 C285.711067,97.3541333 285.5864,97.03 285.4368,96.5812 C284.888267,96.3817333 284.339733,96.2196667 283.7912,96.095 C283.242667,95.9703333 282.694133,95.8332 282.1456,95.6836 C281.946133,95.8332 281.746667,95.9578667 281.5472,96.0576 C281.347733,96.1573333 281.123333,96.282 280.874,96.4316 C280.175867,96.1822667 279.614867,95.8207333 279.191,95.347 C278.767133,94.8732667 278.206133,94.5366667 277.508,94.3372 C277.109067,94.2873333 276.7226,94.2374667 276.3486,94.1876 C275.9746,94.1377333 275.7128,94.0878667 275.5632,94.038 C273.4688,94.2873333 271.698533,94.8608 270.2524,95.7584 C268.806267,96.656 267.509733,97.7530667 266.3628,99.0496 C265.963867,99.3986667 265.664667,99.7602 265.4652,100.1342 C265.265733,100.5082 264.966533,100.894667 264.5676,101.2936 C263.869467,101.991733 263.320933,102.702333 262.922,103.4254 C262.523067,104.148467 262.124133,104.908933 261.7252,105.7068 C260.927333,107.152933 260.241667,108.6614 259.6682,110.2322 C259.094733,111.803 258.683333,113.4112 258.434,115.0568 C258.184667,116.153867 258.047533,117.2634 258.0226,118.3854 C257.997667,119.5074 258.259467,120.641867 258.808,121.7888 C259.905067,123.035467 261.1642,123.820867 262.5854,124.145 C264.0066,124.469133 265.440267,124.456667 266.8864,124.1076 C267.684267,123.8084 268.369933,123.446867 268.9434,123.023 C269.516867,122.599133 270.028,122.137867 270.4768,121.6392 C270.9256,121.140533 271.349467,120.6294 271.7484,120.1058 C272.147333,119.5822 272.5712,119.071067 273.02,118.5724 C273.069867,119.120933 273.0948,119.669467 273.0948,120.218 L273.0948,120.218 L273.0948,121.8636 C273.0948,122.412133 273.1322,122.935733 273.207,123.4344 C273.2818,123.933067 273.443867,124.431733 273.6932,124.9304 C275.089467,126.576 276.9096,127.348933 279.1536,127.2492 L278.850227,127.257391 Z M265.2408,119.9936 C265.0912,119.794133 265.0164,119.669467 265.0164,119.6196 C265.116133,119.120933 265.2034,118.6472 265.2782,118.1984 C265.353,117.7496 265.440267,117.275867 265.54,116.7772 C265.9888,115.2812 266.499933,113.7852 267.0734,112.2892 C267.646867,110.7932 268.282667,109.347067 268.9808,107.9508 C269.5792,106.754 270.3272,105.619533 271.2248,104.5474 C272.1224,103.475267 273.119733,102.515333 274.2168,101.6676 C274.615733,101.2188 275.064533,100.819867 275.5632,100.4708 C275.812533,100.4708 276.0868,100.3586 276.386,100.1342 C276.6852,99.9098 277.0592,99.8724 277.508,100.022 L277.4876,100.0164 L277.466444,100.092644 C277.455363,100.139741 277.447052,100.185452 277.441511,100.229778 L277.4332,100.3586 C277.4332,100.483267 277.408267,100.595467 277.3584,100.6952 C277.0592,101.542933 276.747533,102.353267 276.4234,103.1262 C276.099267,103.899133 275.7876,104.709467 275.4884,105.5572 C275.139333,106.404933 274.715467,107.190333 274.2168,107.9134 C273.718133,108.636467 273.194533,109.421867 272.646,110.2696 C272.396667,110.668533 272.1598,111.0924 271.9354,111.5412 C271.711,111.99 271.424267,112.4388 271.0752,112.8876 C271.055253,112.927493 271.039296,112.959408 271.027328,112.983344 L271.0004,113.0372 C270.202533,114.184133 269.3922,115.293667 268.5694,116.3658 C267.7466,117.437933 266.836533,118.472667 265.8392,119.47 C265.6896,119.569733 265.490133,119.744267 265.2408,119.9936 Z M290.972,126.5012 C291.321067,126.600933 291.670133,126.6134 292.0192,126.5386 C292.368267,126.4638 292.742267,126.376533 293.1412,126.2768 C293.041467,125.9776 292.9542,125.703333 292.8794,125.454 C292.8046,125.204667 292.717333,124.955333 292.6176,124.706 C292.7672,124.2572 292.891867,123.982933 292.9916,123.8832 C293.2908,123.783467 293.5526,123.721133 293.777,123.6962 C294.0014,123.671267 294.213333,123.608933 294.4128,123.5092 C294.612267,123.110267 294.886533,122.736267 295.2356,122.3872 C296.332667,120.4424 297.529467,118.584867 298.826,116.8146 C300.122533,115.044333 301.468933,113.311467 302.8652,111.616 C303.314,111.067467 303.750333,110.518933 304.1742,109.9704 C304.598067,109.421867 304.9596,108.723733 305.2588,107.876 C305.358533,107.975733 305.458267,108.0256 305.558,108.0256 C305.657733,108.0256 305.769933,108.000667 305.8946,107.9508 C306.019267,107.900933 306.143933,107.876 306.2686,107.876 C306.393267,107.876 306.555333,107.9508 306.7548,108.1004 C306.505467,109.396933 306.293533,110.743333 306.119,112.1396 C305.944467,113.535867 306.056667,114.932133 306.4556,116.3284 C307.103867,116.7772 307.677333,117.1512 308.176,117.4504 C308.674667,117.7496 309.135933,117.998933 309.5598,118.1984 C309.983667,118.397867 310.407533,118.547467 310.8314,118.6472 C311.255267,118.746933 311.7664,118.821733 312.3648,118.8716 C313.212533,118.672133 314.172467,118.185933 315.2446,117.413 C316.316733,116.640067 317.388867,115.7674 318.461,114.795 C319.533133,113.8226 320.518,112.825267 321.4156,111.803 C322.3132,110.780733 323.036267,109.920533 323.5848,109.2224 C323.684533,108.973067 323.746867,108.723733 323.7718,108.4744 C323.796733,108.225067 323.7344,107.925867 323.5848,107.5768 C323.485067,107.526933 323.2108,107.439667 322.762,107.315 C322.3132,107.190333 322.014,107.078133 321.8644,106.9784 C321.664933,107.327467 321.1538,107.900933 320.331,108.6988 C319.5082,109.496667 318.635533,110.307 317.713,111.1298 C316.790467,111.9526 315.9178,112.688133 315.095,113.3364 C314.2722,113.984667 313.761067,114.333733 313.5616,114.3836 C313.162667,114.433467 312.9632,114.3088 312.9632,114.0096 C312.9632,113.7104 313.038,113.323933 313.1876,112.8502 C313.3372,112.376467 313.536667,111.890267 313.786,111.3916 C314.035333,110.892933 314.209867,110.444133 314.3096,110.0452 C314.708533,108.748667 315.1324,107.514467 315.5812,106.3426 C316.03,105.170733 316.453867,103.9864 316.8528,102.7896 C316.653333,102.241067 316.578533,101.680067 316.6284,101.1066 C316.678267,100.533133 316.428933,99.9472 315.8804,99.3488 C315.032667,98.9 314.110133,98.5010667 313.1128,98.152 C312.115467,97.8029333 311.168,97.3790667 310.2704,96.8804 C310.021067,97.03 309.7842,97.1796 309.5598,97.3292 C309.3354,97.4788 309.098533,97.6533333 308.8492,97.8528 C308.6996,98.0024 308.487667,98.1644667 308.2134,98.339 C307.939133,98.5135333 307.677333,98.7254667 307.428,98.9748 C307.228533,99.0745333 307.041533,99.2241333 306.867,99.4236 C306.692467,99.6230667 306.480533,99.8225333 306.2312,100.022 C306.031733,100.1716 305.844733,100.3212 305.6702,100.4708 C305.495667,100.6204 305.283733,100.794933 305.0344,100.9944 C304.785067,101.193867 304.573133,101.355933 304.3986,101.4806 C304.224067,101.605267 304.062,101.792267 303.9124,102.0416 C303.6132,102.290933 303.3888,102.515333 303.2392,102.7148 C303.0896,102.914267 302.890133,103.113733 302.6408,103.3132 C302.391467,103.512667 302.179533,103.712133 302.005,103.9116 C301.830467,104.111067 301.6684,104.2856 301.5188,104.4352 C301.07,104.7344 300.696,105.083467 300.3968,105.4824 C300.147467,105.731733 299.923067,105.9686 299.7236,106.193 C299.524133,106.4174 299.299733,106.629333 299.0504,106.8288 C298.9008,107.028267 298.763667,107.227733 298.639,107.4272 C298.514333,107.626667 298.252533,107.7264 297.8536,107.7264 C297.753867,107.078133 297.891,106.467267 298.265,105.8938 C298.639,105.320333 298.801067,104.7344 298.7512,104.136 C299.249867,103.5376 299.6114,102.876867 299.8358,102.1538 C300.0602,101.430733 300.272133,100.720133 300.4716,100.022 C300.7708,99.3737333 300.646133,98.7504 300.0976,98.152 C299.249867,97.6034667 298.3398,97.1796 297.3674,96.8804 C296.395,96.5812 295.435067,96.2072 294.4876,95.7584 C294.238267,95.6586667 294.0388,95.6337333 293.8892,95.6836 C293.7396,95.7334667 293.540133,95.7584 293.2908,95.7584 C292.792133,96.2570667 292.3932,96.7432667 292.094,97.217 C291.7948,97.6907333 291.520533,98.2018667 291.2712,98.7504 C290.5232,100.2464 289.912333,101.8172 289.4386,103.4628 C288.964867,105.1084 288.553467,106.778933 288.2044,108.4744 C287.9052,109.870667 287.630933,111.254467 287.3816,112.6258 C287.132267,113.997133 286.882933,115.405867 286.6336,116.852 C286.533867,117.849333 286.421667,118.859133 286.297,119.8814 C286.172333,120.903667 286.234667,121.8636 286.484,122.7612 C286.882933,123.908133 287.481333,124.768333 288.2792,125.3418 C289.077067,125.915267 289.974667,126.301733 290.972,126.5012 Z M350.5876,128.259 C352.183333,128.234067 353.804,127.9972 355.4496,127.5484 C355.798667,127.3988 356.247467,127.149467 356.796,126.8004 L356.796,126.8004 L358.4416,125.3044 C358.990133,124.805733 359.538667,124.282133 360.0872,123.7336 C362.9296,120.342667 365.572533,116.752267 368.016,112.9624 C368.215467,112.713067 368.4274,112.426333 368.6518,112.1022 C368.8762,111.778067 368.963467,111.491333 368.9136,111.242 C368.863733,110.7932 368.938533,110.444133 369.138,110.1948 C369.337467,109.945467 369.487067,109.6712 369.5868,109.372 C369.2876,109.122667 369.038267,108.9232 368.8388,108.7736 C368.639333,108.624 368.402467,108.499333 368.1282,108.3996 C367.853933,108.299867 367.5298,108.200133 367.1558,108.1004 C366.7818,108.000667 366.245733,107.876 365.5476,107.7264 L365.5476,107.7264 L364.65,109.0728 C363.552933,110.7184 362.468333,112.301667 361.3962,113.8226 C360.324067,115.343533 359.164667,116.827067 357.918,118.2732 C357.0204,119.3204 356.097867,120.280333 355.1504,121.153 C354.202933,122.025667 353.155733,122.786133 352.0088,123.4344 C351.909067,123.534133 351.510133,123.6588 350.812,123.8084 C350.812,123.0604 350.824467,122.337333 350.8494,121.6392 C350.874333,120.941067 350.936667,120.242933 351.0364,119.5448 L351.0364,119.5448 L351.7844,118.8716 C353.2804,117.475333 354.7016,116.004267 356.048,114.4584 C357.3944,112.912533 358.8156,111.416533 360.3116,109.9704 C361.159333,109.0728 361.795133,108.075467 362.219,106.9784 C362.642867,105.881333 363.029333,104.759333 363.3784,103.6124 C363.428267,103.412933 363.4532,103.1636 363.4532,102.8644 L363.4532,102.8644 L363.4532,102.0416 C363.203867,100.595467 362.7426,99.3114 362.0694,98.1894 C361.3962,97.0674 360.361467,96.1573333 358.9652,95.4592 C357.7684,94.8109333 356.671333,94.2873333 355.674,93.8884 C354.676667,93.4894667 353.7292,93.3024667 352.8316,93.3274 C351.934,93.3523333 351.048867,93.6764667 350.1762,94.2998 C349.303533,94.9231333 348.393467,95.9329333 347.446,97.3292 C346.498533,98.7753333 345.7256,100.196533 345.1272,101.5928 L345.1272,101.5928 L345.1272,101.518 L344.9028,101.9668 L344.2296,103.6124 C343.581333,105.058533 342.870733,106.517133 342.0978,107.9882 C341.324867,109.459267 340.5644,110.843067 339.8164,112.1396 C339.0684,113.436133 338.345333,114.620467 337.6472,115.6926 C336.949067,116.764733 336.325733,117.624933 335.7772,118.2732 C334.8796,119.3204 333.957067,120.280333 333.0096,121.153 C332.062133,122.025667 331.014933,122.786133 329.868,123.4344 C329.768267,123.534133 329.369333,123.6588 328.6712,123.8084 C328.6712,123.0604 328.683667,122.337333 328.7086,121.6392 C328.733533,120.941067 328.795867,120.242933 328.8956,119.5448 L328.8956,119.5448 L329.6436,118.8716 C331.1396,117.475333 332.5608,116.004267 333.9072,114.4584 C335.2536,112.912533 336.6748,111.416533 338.1708,109.9704 C339.018533,109.0728 339.654333,108.075467 340.0782,106.9784 C340.502067,105.881333 340.888533,104.759333 341.2376,103.6124 C341.287467,103.412933 341.3124,103.1636 341.3124,102.8644 L341.3124,102.8644 L341.3124,102.0416 C341.063067,100.595467 340.6018,99.3114 339.9286,98.1894 C339.2554,97.0674 338.220667,96.1573333 336.8244,95.4592 C335.6276,94.8109333 334.530533,94.2873333 333.5332,93.8884 C332.535867,93.4894667 331.5884,93.3024667 330.6908,93.3274 C329.7932,93.3523333 328.908067,93.6764667 328.0354,94.2998 C327.162733,94.9231333 326.252667,95.9329333 325.3052,97.3292 C323.709467,99.8724 322.437867,102.502867 321.4904,105.2206 C320.542933,107.938333 319.77,110.743333 319.1716,113.6356 C318.972133,114.782533 318.847467,115.941933 318.7976,117.1138 C318.747733,118.285667 318.822533,119.47 319.022,120.6668 C319.520667,123.559067 321.066533,125.6784 323.6596,127.0248 C325.255333,127.872533 326.851067,128.283933 328.4468,128.259 C330.042533,128.234067 331.6632,127.9972 333.3088,127.5484 C333.657867,127.3988 334.106667,127.149467 334.6552,126.8004 L334.6552,126.8004 L336.3008,125.3044 C336.849333,124.805733 337.397867,124.282133 337.9464,123.7336 C338.594667,122.9856 339.155667,122.2376 339.6294,121.4896 C340.103133,120.7416 340.539467,119.968667 340.9384,119.1708 L340.9384,119.1708 L341.1628,120.6668 C341.661467,123.559067 343.207333,125.6784 345.8004,127.0248 C347.396133,127.872533 348.991867,128.283933 350.5876,128.259 Z M332.112,108.6988 C331.862667,108.5492 331.738,108.424533 331.738,108.3248 C331.738,107.925867 331.750467,107.514467 331.7754,107.0906 C331.800333,106.666733 331.837733,106.2304 331.8876,105.7816 C332.286533,105.432533 332.610667,105.058533 332.86,104.6596 C333.109333,104.260667 333.3088,103.811867 333.4584,103.3132 C333.608,102.764667 333.819933,102.241067 334.0942,101.7424 C334.368467,101.243733 334.630267,100.77 334.8796,100.3212 C334.929467,100.1716 335.016733,100.034467 335.1414,99.9098 L335.1414,99.9098 L335.5528,99.4984 C335.901867,100.196533 336.039,100.8448 335.9642,101.4432 C335.8894,102.0416 335.852,102.664933 335.852,103.3132 C335.4032,104.460133 334.854667,105.457467 334.2064,106.3052 C333.558133,107.152933 332.86,107.9508 332.112,108.6988 Z M354.2528,108.6988 C354.003467,108.5492 353.8788,108.424533 353.8788,108.3248 C353.8788,107.925867 353.891267,107.514467 353.9162,107.0906 C353.941133,106.666733 353.978533,106.2304 354.0284,105.7816 C354.427333,105.432533 354.751467,105.058533 355.0008,104.6596 C355.250133,104.260667 355.4496,103.811867 355.5992,103.3132 C355.7488,102.764667 355.960733,102.241067 356.235,101.7424 C356.509267,101.243733 356.771067,100.77 357.0204,100.3212 C357.070267,100.1716 357.157533,100.034467 357.2822,99.9098 C357.406867,99.7851333 357.544,99.648 357.6936,99.4984 C358.042667,100.196533 358.1798,100.8448 358.105,101.4432 C358.0302,102.0416 357.9928,102.664933 357.9928,103.3132 C357.544,104.460133 356.995467,105.457467 356.3472,106.3052 C355.698933,107.152933 355.0008,107.9508 354.2528,108.6988 Z M367.4176,126.5012 C367.766667,126.600933 368.115733,126.6134 368.4648,126.5386 C368.813867,126.4638 369.187867,126.376533 369.5868,126.2768 C369.487067,125.9776 369.3998,125.703333 369.325,125.454 C369.2502,125.204667 369.162933,124.955333 369.0632,124.706 C369.2128,124.2572 369.337467,123.982933 369.4372,123.8832 C369.7364,123.783467 369.9982,123.721133 370.2226,123.6962 C370.447,123.671267 370.658933,123.608933 370.8584,123.5092 C371.057867,123.110267 371.332133,122.736267 371.6812,122.3872 C372.778267,120.4424 373.975067,118.584867 375.2716,116.8146 C376.568133,115.044333 377.914533,113.311467 379.3108,111.616 C379.7596,111.067467 380.195933,110.518933 380.6198,109.9704 C381.043667,109.421867 381.4052,108.723733 381.7044,107.876 C381.804133,107.975733 381.903867,108.0256 382.0036,108.0256 C382.103333,108.0256 382.215533,108.000667 382.3402,107.9508 C382.464867,107.900933 382.589533,107.876 382.7142,107.876 C382.838867,107.876 383.000933,107.9508 383.2004,108.1004 C382.951067,109.396933 382.739133,110.743333 382.5646,112.1396 C382.390067,113.535867 382.502267,114.932133 382.9012,116.3284 C383.549467,116.7772 384.122933,117.1512 384.6216,117.4504 C385.120267,117.7496 385.581533,117.998933 386.0054,118.1984 C386.429267,118.397867 386.853133,118.547467 387.277,118.6472 C387.700867,118.746933 388.212,118.821733 388.8104,118.8716 C389.658133,118.672133 390.618067,118.185933 391.6902,117.413 C392.762333,116.640067 393.834467,115.7674 394.9066,114.795 C395.978733,113.8226 396.9636,112.825267 397.8612,111.803 C398.7588,110.780733 399.481867,109.920533 400.0304,109.2224 C400.130133,108.973067 400.192467,108.723733 400.2174,108.4744 C400.242333,108.225067 400.18,107.925867 400.0304,107.5768 C399.930667,107.526933 399.6564,107.439667 399.2076,107.315 C398.7588,107.190333 398.4596,107.078133 398.31,106.9784 C398.110533,107.327467 397.5994,107.900933 396.7766,108.6988 C395.9538,109.496667 395.081133,110.307 394.1586,111.1298 C393.236067,111.9526 392.3634,112.688133 391.5406,113.3364 C390.7178,113.984667 390.206667,114.333733 390.0072,114.3836 C389.608267,114.433467 389.4088,114.3088 389.4088,114.0096 C389.4088,113.7104 389.4836,113.323933 389.6332,112.8502 C389.7828,112.376467 389.982267,111.890267 390.2316,111.3916 C390.480933,110.892933 390.655467,110.444133 390.7552,110.0452 C391.154133,108.748667 391.578,107.514467 392.0268,106.3426 C392.4756,105.170733 392.899467,103.9864 393.2984,102.7896 C393.098933,102.241067 393.024133,101.680067 393.074,101.1066 C393.123867,100.533133 392.874533,99.9472 392.326,99.3488 C391.478267,98.9 390.555733,98.5010667 389.5584,98.152 C388.561067,97.8029333 387.6136,97.3790667 386.716,96.8804 C386.466667,97.03 386.2298,97.1796 386.0054,97.3292 C385.781,97.4788 385.544133,97.6533333 385.2948,97.8528 C385.1452,98.0024 384.933267,98.1644667 384.659,98.339 C384.384733,98.5135333 384.122933,98.7254667 383.8736,98.9748 C383.674133,99.0745333 383.487133,99.2241333 383.3126,99.4236 C383.138067,99.6230667 382.926133,99.8225333 382.6768,100.022 C382.477333,100.1716 382.290333,100.3212 382.1158,100.4708 C381.941267,100.6204 381.729333,100.794933 381.48,100.9944 C381.230667,101.193867 381.018733,101.355933 380.8442,101.4806 C380.669667,101.605267 380.5076,101.792267 380.358,102.0416 C380.0588,102.290933 379.8344,102.515333 379.6848,102.7148 C379.5352,102.914267 379.335733,103.113733 379.0864,103.3132 C378.837067,103.512667 378.625133,103.712133 378.4506,103.9116 C378.276067,104.111067 378.114,104.2856 377.9644,104.4352 C377.5156,104.7344 377.1416,105.083467 376.8424,105.4824 C376.593067,105.731733 376.368667,105.9686 376.1692,106.193 C375.969733,106.4174 375.745333,106.629333 375.496,106.8288 C375.3464,107.028267 375.209267,107.227733 375.0846,107.4272 C374.959933,107.626667 374.698133,107.7264 374.2992,107.7264 C374.199467,107.078133 374.3366,106.467267 374.7106,105.8938 L374.827417,105.702183 C375.117998,105.189972 375.241126,104.667911 375.1968,104.136 C375.695467,103.5376 376.057,102.876867 376.2814,102.1538 C376.5058,101.430733 376.717733,100.720133 376.9172,100.022 C377.2164,99.3737333 377.091733,98.7504 376.5432,98.152 C375.695467,97.6034667 374.7854,97.1796 373.813,96.8804 C372.8406,96.5812 371.880667,96.2072 370.9332,95.7584 C370.683867,95.6586667 370.4844,95.6337333 370.3348,95.6836 C370.1852,95.7334667 369.985733,95.7584 369.7364,95.7584 C369.237733,96.2570667 368.8388,96.7432667 368.5396,97.217 C368.2404,97.6907333 367.966133,98.2018667 367.7168,98.7504 C366.9688,100.2464 366.357933,101.8172 365.8842,103.4628 C365.410467,105.1084 364.999067,106.778933 364.65,108.4744 C364.3508,109.870667 364.076533,111.254467 363.8272,112.6258 C363.577867,113.997133 363.328533,115.405867 363.0792,116.852 C362.979467,117.849333 362.867267,118.859133 362.7426,119.8814 C362.617933,120.903667 362.680267,121.8636 362.9296,122.7612 C363.328533,123.908133 363.926933,124.768333 364.7248,125.3418 C365.522667,125.915267 366.420267,126.301733 367.4176,126.5012 Z M401.1898,128.9696 C402.0126,129.069333 402.8728,128.994533 403.7704,128.7452 C404.318933,128.5956 404.867467,128.396133 405.416,128.1468 C405.964533,127.897467 406.513067,127.722933 407.0616,127.6232 C407.610133,127.573333 408.0714,127.448667 408.4454,127.2492 C408.8194,127.049733 409.205867,126.8004 409.6048,126.5012 C410.253067,126.102267 410.863933,125.665933 411.4374,125.1922 C412.010867,124.718467 412.5968,124.232267 413.1952,123.7336 C413.594133,123.334667 413.9432,122.935733 414.2424,122.5368 C414.5416,122.137867 414.890667,121.689067 415.2896,121.1904 C415.5888,120.7416 415.900467,120.2928 416.2246,119.844 C416.548733,119.3952 416.735733,118.821733 416.7856,118.1236 C416.835467,118.023867 416.922733,117.911667 417.0474,117.787 C417.172067,117.662333 417.284267,117.5252 417.384,117.3756 C417.433867,116.976667 417.471267,116.6276 417.4962,116.3284 C417.521133,116.0292 417.583467,115.680133 417.6832,115.2812 C417.9824,113.835067 417.6084,112.538533 416.5612,111.3916 C416.4116,111.242 416.286933,111.079933 416.1872,110.9054 C416.087467,110.730867 415.987733,110.518933 415.888,110.2696 C415.040267,109.870667 414.180067,109.471733 413.3074,109.0728 C412.434733,108.673867 411.524667,108.299867 410.5772,107.9508 C410.5772,107.551867 410.664467,107.2028 410.839,106.9036 C411.013533,106.6044 411.225467,106.330133 411.4748,106.0808 C411.873733,105.7816 412.197867,105.507333 412.4472,105.258 C412.945867,104.759333 413.631533,104.136 414.5042,103.388 C415.376867,102.64 416.311867,101.904467 417.3092,101.1814 C418.306533,100.458333 419.303867,99.8100667 420.3012,99.2366 C421.298533,98.6631333 422.196133,98.2766667 422.994,98.0772 C422.894267,97.778 422.807,97.5162 422.7322,97.2918 C422.6574,97.0674 422.570133,96.8554667 422.4704,96.656 C421.323467,95.8082667 420.164067,94.973 418.9922,94.1502 C417.820333,93.3274 416.7108,92.5669333 415.6636,91.8688 C415.3644,91.8688 415.1026,91.8563333 414.8782,91.8314 C414.6538,91.8064667 414.441867,91.8189333 414.2424,91.8688 C413.893333,91.8688 413.5692,91.9436 413.27,92.0932 C412.920933,92.2926667 412.422267,92.5918667 411.774,92.9908 C411.125733,93.3897333 410.440067,93.8260667 409.717,94.2998 C408.993933,94.7735333 408.308267,95.2223333 407.66,95.6462 C407.011733,96.0700667 406.538,96.4066667 406.2388,96.656 C404.8924,97.6533333 403.608333,98.7254667 402.3866,99.8724 C401.164867,101.019333 400.055333,102.290933 399.058,103.6872 C398.659067,104.335467 398.285067,104.9588 397.936,105.5572 C397.586933,106.1556 397.287733,106.803867 397.0384,107.502 C396.789067,108.3996 396.714267,109.322133 396.814,110.2696 C396.814,111.217067 397.212933,112.039867 398.0108,112.738 C399.6564,114.0844 401.476533,114.9072 403.4712,115.2064 C405.914667,115.306133 408.034,114.657867 409.8292,113.2616 L409.8292,113.2616 L410.4276,113.2616 C410.228133,113.660533 410.066067,114.034533 409.9414,114.3836 C409.816733,114.732667 409.6796,115.031867 409.53,115.2812 C409.3804,115.630267 409.218333,115.941933 409.0438,116.2162 C408.869267,116.490467 408.657333,116.7772 408.408,117.0764 C406.562933,119.220667 404.5932,121.1904 402.4988,122.9856 C401.7508,123.633867 400.952933,124.1824 400.1052,124.6312 C399.257467,125.08 398.3848,125.5288 397.4872,125.9776 C397.387467,126.226933 397.325133,126.488733 397.3002,126.763 C397.275267,127.037267 397.212933,127.324 397.1132,127.6232 C397.512133,127.822667 397.8238,127.984733 398.0482,128.1094 C398.2726,128.234067 398.484533,128.346267 398.684,128.446 C399.531733,128.695333 400.367,128.869867 401.1898,128.9696 Z" id="ExploreCarers" fill="url(#linearGradient-2)"></path>
                </g>
                <polygon id="Star-Copy" fill="#F49937" points="82.5 32.25 79.2671811 33.9495935 79.8845946 30.3497967 77.2691892 27.8004065 80.8835906 27.2752033 82.5 24 84.1164094 27.2752033 87.7308108 27.8004065 85.1154054 30.3497967 85.7328189 33.9495935"></polygon>
                <polygon id="Star-Copy" stroke="#F1556F" points="145.5 147.25 142.267181 148.949593 142.884595 145.349797 140.269189 142.800407 143.883591 142.275203 145.5 139 147.116409 142.275203 150.730811 142.800407 148.115405 145.349797 148.732819 148.949593"></polygon>
                <polygon id="Star-Copy-5" fill="#EF2F8E" points="5.5 127.25 2.26718111 128.949593 2.88459458 125.349797 0.26918916 122.800407 3.88359056 122.275203 5.5 119 7.11640944 122.275203 10.7308108 122.800407 8.11540542 125.349797 8.73281889 128.949593"></polygon>
                <polygon id="Star-Copy-7" stroke="#F49937" points="955.5 23.25 952.267181 24.9495935 952.884595 21.3497967 950.269189 18.8004065 953.883591 18.2752033 955.5 15 957.116409 18.2752033 960.730811 18.8004065 958.115405 21.3497967 958.732819 24.9495935"></polygon>
                <polygon id="Star-Copy-6" fill="#EF2F8E" points="902.5 141.25 899.267181 142.949593 899.884595 139.349797 897.269189 136.800407 900.883591 136.275203 902.5 133 904.116409 136.275203 907.730811 136.800407 905.115405 139.349797 905.732819 142.949593"></polygon>
                <g id="Group-Copy-3" transform="translate(922.500000, 93.000000) scale(-1, 1) rotate(-90.000000) translate(-922.500000, -93.000000) translate(922.000000, -7.000000)" stroke="#1C1F2C" stroke-linecap="round" stroke-linejoin="round">
                    <line x1="0.5" y1="7.2475359e-13" x2="0.5" y2="80" id="Line-2" stroke-dasharray="1,5"></line>
                    <line x1="0.5" y1="90" x2="0.5" y2="200" id="Line-2-Copy-3"></line>
                </g>
                <g id="Group-Copy-4" transform="translate(157.500000, 93.000000) rotate(-90.000000) translate(-157.500000, -93.000000) translate(157.000000, -2.000000)" stroke="#1C1F2C" stroke-linecap="round" stroke-linejoin="round">
                    <line x1="0.5" y1="-5.62883073e-14" x2="0.5" y2="70" id="Line-2" stroke-dasharray="1,5"></line>
                    <line x1="0.5" y1="80" x2="0.5" y2="190" id="Line-2-Copy-3"></line>
                </g>
            </g>
        </g>
    </g>
</svg>