<?xml version="1.0" encoding="UTF-8"?>
<svg width="506px" height="63px" viewBox="0 0 506 63" version="1.1" xmlns="http://www.w3.org/2000/svg" xmlns:xlink="http://www.w3.org/1999/xlink">
    <!-- Generator: Sketch 52.6 (67491) - http://www.bohemiancoding.com/sketch -->
    <title>Group 38</title>
    <desc>Created with Sketch.</desc>
    <defs>
        <linearGradient x1="0%" y1="50%" x2="99.2634596%" y2="58.8948827%" id="linearGradient-1">
            <stop stop-color="#F82E94" offset="0%"></stop>
            <stop stop-color="#FF9E33" offset="100%"></stop>
        </linearGradient>
    </defs>
    <g id="Page-1" stroke="none" stroke-width="1" fill="none" fill-rule="evenodd">
        <g id="About-" transform="translate(-678.000000, -720.000000)">
            <g id="Group-5" transform="translate(-10.000000, 467.000000)">
                <g id="Group-40" transform="translate(334.000000, 250.000000)">
                    <g id="Group-50">
                        <g id="Group-4">
                            <g id="Group-2">
                                <g id="Group-57">
                                    <g id="Group-73" transform="translate(354.000000, 3.000000)">
                                        <g id="Group-38">
                                            <path d="M18.468,19.396 C17.2199938,19.396 16.2406702,19.7339966 15.53,20.41 C14.8193298,21.0860034 14.3253347,22.1519927 14.048,23.608 L13.84,24.648 L20.964,24.648 L19.716,30.888 L12.8,30.888 L8.588,52 L0.476,52 L4.688,30.888 L0.32,30.888 L1.568,24.648 L5.936,24.648 L6.248,23.036 C6.90666996,19.9159844 8.26732302,17.4633423 10.33,15.678 C12.392677,13.8926577 15.0879834,13 18.416,13 C19.6640062,13 20.8513277,13.1386653 21.978,13.416 C23.1046723,13.6933347 24.0666627,14.0746642 24.864,14.56 L21.692,20.384 C20.825329,19.72533 19.7506731,19.396 18.468,19.396 Z M54.0706667,24.024 L48.5066667,52 L40.8106667,52 L41.3306667,49.244 C39.0079884,51.3586772 36.148017,52.416 32.7506667,52.416 C30.5666558,52.416 28.5560092,51.9133384 26.7186667,50.908 C24.8813242,49.9026616 23.4166722,48.4553428 22.3246667,46.566 C21.2326612,44.6766572 20.6866667,42.4493462 20.6866667,39.884 C20.6866667,36.7986512 21.3713265,34.0166791 22.7406667,31.538 C24.1100069,29.0593209 25.9733216,27.118007 28.3306667,25.714 C30.6880118,24.309993 33.2879858,23.608 36.1306667,23.608 C40.4293549,23.608 43.4626579,25.011986 45.2306667,27.82 L45.9586667,24.024 L54.0706667,24.024 Z M35.2466667,45.708 C36.8413413,45.708 38.2626605,45.3180039 39.5106667,44.538 C40.7586729,43.7579961 41.7293299,42.6746736 42.4226667,41.288 C43.1160035,39.9013264 43.4626667,38.3066757 43.4626667,36.504 C43.4626667,34.5973238 42.899339,33.0893389 41.7726667,31.98 C40.6459944,30.8706611 39.0773434,30.316 37.0666667,30.316 C35.4719921,30.316 34.0506729,30.7059961 32.8026667,31.486 C31.5546605,32.2660039 30.5840035,33.3493264 29.8906667,34.736 C29.1973299,36.1226736 28.8506667,37.7173243 28.8506667,39.52 C28.8506667,41.4266762 29.4139944,42.9346611 30.5406667,44.044 C31.667339,45.1533389 33.23599,45.708 35.2466667,45.708 Z M67.0533334,52.416 C64.6266546,52.416 62.3300109,52.147336 60.1633334,51.61 C57.9966559,51.072664 56.3066728,50.370671 55.0933334,49.504 L58.2133334,43.628 C59.4266728,44.4253373 60.908658,45.0666642 62.6593334,45.552 C64.4100088,46.0373358 66.1693246,46.28 67.9373334,46.28 C69.7746759,46.28 71.1439956,46.0460023 72.0453334,45.578 C72.9466712,45.1099977 73.3973334,44.442671 73.3973334,43.576 C73.3973334,42.8826632 72.9986707,42.3800016 72.2013334,42.068 C71.4039961,41.7559984 70.1213422,41.4266684 68.3533334,41.08 C66.3426567,40.6986648 64.6873399,40.2826689 63.3873334,39.832 C62.0873269,39.3813311 60.9606715,38.6446718 60.0073334,37.622 C59.0539953,36.5993282 58.5773334,35.2040088 58.5773334,33.436 C58.5773334,30.3506512 59.8686538,27.941342 62.4513334,26.208 C65.034013,24.474658 68.4226458,23.608 72.6173334,23.608 C74.5586764,23.608 76.4479909,23.8159979 78.2853334,24.232 C80.1226759,24.6480021 81.6826603,25.2199964 82.9653334,25.948 L80.0533334,31.876 C77.765322,30.4546596 75.0093495,29.744 71.7853334,29.744 C70.0173246,29.744 68.6740047,30.0039974 67.7553334,30.524 C66.8366621,31.0440026 66.3773334,31.7026627 66.3773334,32.5 C66.3773334,33.2280036 66.7759961,33.756665 67.5733334,34.086 C68.3706707,34.415335 69.705324,34.7706648 71.5773334,35.152 C73.5533433,35.5333352 75.1739937,35.9406645 76.4393334,36.374 C77.7046731,36.8073355 78.8053287,37.5266616 79.7413334,38.532 C80.6773381,39.5373384 81.1453334,40.906658 81.1453334,42.64 C81.1453334,45.7600156 79.8366798,48.1693248 77.2193334,49.868 C74.601987,51.5666752 71.2133542,52.416 67.0533334,52.416 Z M107.18,23.608 C110.300016,23.608 112.778658,24.4399917 114.616,26.104 C116.453343,27.7680083 117.372,30.1253181 117.372,33.176 C117.372,34.2853389 117.250668,35.3946611 117.008,36.504 L113.888,52 L105.776,52 L108.792,37.024 C108.930667,36.4346637 109,35.7933368 109,35.1 C109,33.6439927 108.601337,32.5346705 107.804,31.772 C107.006663,31.0093295 105.810675,30.628 104.216,30.628 C102.13599,30.628 100.41134,31.225994 99.0420001,32.422 C97.6726599,33.618006 96.7453359,35.411988 96.2600001,37.804 L93.4520001,52 L85.3400001,52 L93.0360001,13.416 L101.148,13.416 L98.5480001,26.572 C100.940012,24.5959901 103.817317,23.608 107.18,23.608 Z M127.702667,24.024 L135.762667,24.024 L130.198667,52 L122.138667,52 L127.702667,24.024 Z M133.110667,20.124 C131.723993,20.124 130.588671,19.7166707 129.704667,18.902 C128.820662,18.0873293 128.378667,17.0906726 128.378667,15.912 C128.378667,14.5253264 128.872662,13.3726713 129.860667,12.454 C130.848672,11.5353287 132.139992,11.076 133.734667,11.076 C135.156007,11.076 136.308662,11.4659961 137.192667,12.246 C138.076671,13.0260039 138.518667,13.9879943 138.518667,15.132 C138.518667,16.6226741 138.016005,17.8273287 137.010667,18.746 C136.005328,19.6646713 134.705341,20.124 133.110667,20.124 Z M153.217334,52.416 C150.409319,52.416 147.939344,51.8960052 145.807334,50.856 C143.675323,49.8159948 142.028673,48.3513428 140.867334,46.462 C139.705994,44.5726572 139.125334,42.3800125 139.125334,39.884 C139.125334,36.7986512 139.853326,34.0253456 141.309334,31.564 C142.765341,29.1026544 144.775987,27.1613404 147.341334,25.74 C149.90668,24.3186596 152.801317,23.608 156.025334,23.608 C158.868014,23.608 161.346656,24.1279948 163.461334,25.168 C165.576011,26.2080052 167.213994,27.6726572 168.375334,29.562 C169.536673,31.4513428 170.117334,33.6439875 170.117334,36.14 C170.117334,39.2253488 169.398007,41.9986544 167.959334,44.46 C166.52066,46.9213456 164.510013,48.8626596 161.927334,50.284 C159.344654,51.7053404 156.44135,52.416 153.217334,52.416 Z M153.737334,45.708 C155.297341,45.708 156.701327,45.3180039 157.949334,44.538 C159.19734,43.7579961 160.167997,42.6746736 160.861334,41.288 C161.55467,39.9013264 161.901334,38.3066757 161.901334,36.504 C161.901334,34.5973238 161.346672,33.0893389 160.237334,31.98 C159.127995,30.8706611 157.56801,30.316 155.557334,30.316 C153.962659,30.316 152.54134,30.7059961 151.293334,31.486 C150.045327,32.2660039 149.07467,33.3493264 148.381334,34.736 C147.687997,36.1226736 147.341334,37.7173243 147.341334,39.52 C147.341334,41.4266762 147.904661,42.9346611 149.031334,44.044 C150.158006,45.1533389 151.726657,45.708 153.737334,45.708 Z M195.32,23.608 C198.440016,23.608 200.918658,24.4313251 202.756,26.078 C204.593343,27.7246749 205.512,30.0733181 205.512,33.124 C205.512,34.2680057 205.390668,35.3946611 205.148,36.504 L202.028,52 L193.916,52 L196.932,37.024 C197.070668,36.4346637 197.14,35.7933368 197.14,35.1 C197.14,33.6439927 196.741338,32.5346705 195.944,31.772 C195.146663,31.0093295 193.950675,30.628 192.356,30.628 C190.27599,30.628 188.55134,31.225994 187.182,32.422 C185.81266,33.618006 184.885336,35.411988 184.4,37.804 L181.592,52 L173.48,52 L179.044,24.024 L186.74,24.024 L186.116,27.04 C188.612013,24.7519886 191.679982,23.608 195.32,23.608 Z" id="fashion-lifestyle-copy" fill="#FC318D"></path>
                                            <path d="M295.888,13.416 L304,13.416 L296.304,52 L288.192,52 L295.888,13.416 Z M310.274667,24.024 L318.334667,24.024 L312.770667,52 L304.710667,52 L310.274667,24.024 Z M315.682667,20.124 C314.295994,20.124 313.160672,19.7166707 312.276667,18.902 C311.392663,18.0873293 310.950667,17.0906726 310.950667,15.912 C310.950667,14.5253264 311.444662,13.3726713 312.432667,12.454 C313.420672,11.5353287 314.711992,11.076 316.306667,11.076 C317.728008,11.076 318.880663,11.4659961 319.764667,12.246 C320.648672,13.0260039 321.090667,13.9879943 321.090667,15.132 C321.090667,16.6226741 320.588005,17.8273287 319.582667,18.746 C318.577329,19.6646713 317.277342,20.124 315.682667,20.124 Z M340.157334,19.396 C338.909328,19.396 337.930004,19.7339966 337.219334,20.41 C336.508664,21.0860034 336.014669,22.1519927 335.737334,23.608 L335.529334,24.648 L342.653334,24.648 L341.405334,30.888 L334.489334,30.888 L330.277334,52 L322.165334,52 L326.377334,30.888 L322.009334,30.888 L323.257334,24.648 L327.625334,24.648 L327.937334,23.036 C328.596004,19.9159844 329.956657,17.4633423 332.019334,15.678 C334.082011,13.8926577 336.777317,13 340.105334,13 C341.35334,13 342.540662,13.1386653 343.667334,13.416 C344.794006,13.6933347 345.755996,14.0746642 346.553334,14.56 L343.381334,20.384 C342.514663,19.72533 341.440007,19.396 340.157334,19.396 Z M372.172001,35.932 C372.172001,37.2146731 372.016002,38.6359922 371.704001,40.196 L350.280001,40.196 C350.557335,44.0093524 352.966644,45.916 357.508001,45.916 C358.929341,45.916 360.289994,45.6906689 361.590001,45.24 C362.890007,44.7893311 364.025329,44.1480042 364.996001,43.316 L368.376001,48.672 C366.815993,49.9200062 365.030677,50.8559969 363.020001,51.48 C361.009324,52.1040031 358.894678,52.416 356.676001,52.416 C353.798653,52.416 351.276678,51.9046718 349.110001,50.882 C346.943323,49.8593282 345.27934,48.3946762 344.118001,46.488 C342.956661,44.5813238 342.376001,42.3800125 342.376001,39.884 C342.376001,36.7986512 343.077993,34.0166791 344.482001,31.538 C345.886008,29.0593209 347.835988,27.118007 350.332001,25.714 C352.828013,24.309993 355.670651,23.608 358.860001,23.608 C361.564014,23.608 363.912657,24.1106616 365.906001,25.116 C367.899344,26.1213384 369.441995,27.5599906 370.534001,29.432 C371.626006,31.3040094 372.172001,33.4706544 372.172001,35.932 Z M358.496001,29.692 C356.589324,29.692 354.97734,30.2033282 353.660001,31.226 C352.342661,32.2486718 351.40667,33.6613243 350.852001,35.464 L364.736001,35.464 C364.736001,33.6613243 364.172673,32.2486718 363.046001,31.226 C361.919328,30.2033282 360.402677,29.692 358.496001,29.692 Z M385.518667,52.416 C383.091988,52.416 380.795345,52.147336 378.628667,51.61 C376.46199,51.072664 374.772007,50.370671 373.558667,49.504 L376.678667,43.628 C377.892007,44.4253373 379.373992,45.0666642 381.124667,45.552 C382.875343,46.0373358 384.634658,46.28 386.402667,46.28 C388.24001,46.28 389.609329,46.0460023 390.510667,45.578 C391.412005,45.1099977 391.862667,44.442671 391.862667,43.576 C391.862667,42.8826632 391.464005,42.3800016 390.666667,42.068 C389.86933,41.7559984 388.586676,41.4266684 386.818667,41.08 C384.80799,40.6986648 383.152674,40.2826689 381.852667,39.832 C380.552661,39.3813311 379.426005,38.6446718 378.472667,37.622 C377.519329,36.5993282 377.042667,35.2040088 377.042667,33.436 C377.042667,30.3506512 378.333988,27.941342 380.916667,26.208 C383.499347,24.474658 386.88798,23.608 391.082667,23.608 C393.02401,23.608 394.913325,23.8159979 396.750667,24.232 C398.58801,24.6480021 400.147994,25.2199964 401.430667,25.948 L398.518667,31.876 C396.230656,30.4546596 393.474683,29.744 390.250667,29.744 C388.482658,29.744 387.139338,30.0039974 386.220667,30.524 C385.301996,31.0440026 384.842667,31.7026627 384.842667,32.5 C384.842667,33.2280036 385.24133,33.756665 386.038667,34.086 C386.836005,34.415335 388.170658,34.7706648 390.042667,35.152 C392.018677,35.5333352 393.639328,35.9406645 394.904667,36.374 C396.170007,36.8073355 397.270663,37.5266616 398.206667,38.532 C399.142672,39.5373384 399.610667,40.906658 399.610667,42.64 C399.610667,45.7600156 398.302014,48.1693248 395.684667,49.868 C393.067321,51.5666752 389.678688,52.416 385.518667,52.416 Z M414.829334,42.12 C414.76,42.3973347 414.725334,42.7786642 414.725334,43.264 C414.725334,45.0666757 415.713324,45.968 417.689334,45.968 C418.764006,45.968 419.855995,45.63867 420.965334,44.98 L422.161334,50.752 C420.358658,51.8613389 418.036015,52.416 415.193334,52.416 C412.558654,52.416 410.444009,51.7226736 408.849334,50.336 C407.254659,48.9493264 406.457334,47.0426788 406.457334,44.616 C406.457334,43.9226632 406.544,43.1080047 406.717334,42.172 L408.953334,30.888 L404.637334,30.888 L405.885334,24.648 L410.201334,24.648 L411.553334,17.836 L419.665334,17.836 L418.313334,24.648 L425.281334,24.648 L424.033334,30.888 L417.065334,30.888 L414.829334,42.12 Z M460.104001,24.024 L441.488001,53.872 C439.477324,57.130683 437.527343,59.3839938 435.638001,60.632 C433.748658,61.8800062 431.434681,62.504 428.696001,62.504 C427.239993,62.504 425.810008,62.2786689 424.406001,61.828 C423.001994,61.3773311 421.901338,60.7880036 421.104001,60.06 L424.848001,54.236 C426.096007,55.3800057 427.586659,55.952 429.320001,55.952 C430.360006,55.952 431.26133,55.6920026 432.024001,55.172 C432.786671,54.6519974 433.566663,53.7680062 434.364001,52.52 L434.624001,52.052 L428.176001,24.024 L436.288001,24.024 L440.448001,43.056 L452.096001,24.024 L460.104001,24.024 Z M466.430667,13.416 L474.542667,13.416 L466.846667,52 L458.734667,52 L466.430667,13.416 Z M505.621334,35.932 C505.621334,37.2146731 505.465336,38.6359922 505.153334,40.196 L483.729334,40.196 C484.006669,44.0093524 486.415978,45.916 490.957334,45.916 C492.378674,45.916 493.739328,45.6906689 495.039334,45.24 C496.339341,44.7893311 497.474662,44.1480042 498.445334,43.316 L501.825334,48.672 C500.265326,49.9200062 498.480011,50.8559969 496.469334,51.48 C494.458657,52.1040031 492.344012,52.416 490.125334,52.416 C487.247986,52.416 484.726012,51.9046718 482.559334,50.882 C480.392657,49.8593282 478.728673,48.3946762 477.567334,46.488 C476.405995,44.5813238 475.825334,42.3800125 475.825334,39.884 C475.825334,36.7986512 476.527327,34.0166791 477.931334,31.538 C479.335341,29.0593209 481.285322,27.118007 483.781334,25.714 C486.277346,24.309993 489.119985,23.608 492.309334,23.608 C495.013348,23.608 497.361991,24.1106616 499.355334,25.116 C501.348677,26.1213384 502.891329,27.5599906 503.983334,29.432 C505.075339,31.3040094 505.621334,33.4706544 505.621334,35.932 Z M491.945334,29.692 C490.038658,29.692 488.426674,30.2033282 487.109334,31.226 C485.791994,32.2486718 484.856003,33.6613243 484.301334,35.464 L498.185334,35.464 C498.185334,33.6613243 497.622006,32.2486718 496.495334,31.226 C495.368662,30.2033282 493.85201,29.692 491.945334,29.692 Z" id="fashion-lifestyle-copy-2" fill="#FD7F4E"></path>
                                            <path d="M263.852763,47.7006424 C263.901827,47.7373018 263.963325,47.7556313 264.037257,47.7556313 C264.421916,48.0796745 264.820308,48.4712208 265.232443,48.9302821 C265.644578,49.3893433 265.905593,49.9429088 266.015496,50.5909953 C265.136274,50.8610313 264.421917,51.0230505 263.872404,51.0770577 C263.32289,51.1310649 262.690959,50.9690457 261.976591,50.5909953 C261.646883,50.4829809 261.330917,50.3074601 261.028685,50.0644277 C260.726452,49.8213953 260.410486,49.6188713 260.080778,49.4568497 L259.503792,49.1733133 C259.338938,49.0923025 259.174086,48.9167817 259.009232,48.6467457 C258.459718,49.0788033 257.965163,49.4703496 257.525552,49.8213965 C257.085941,50.1724433 256.646337,50.5639896 256.206726,50.9960473 C254.613136,52.2382129 252.868457,53.277836 250.972634,54.1149477 C249.076812,54.9520593 247.167281,55.5056248 245.243983,55.7756609 C240.683019,56.4237473 236.232025,55.6676578 231.890867,53.5073697 C231.011645,53.1293192 230.201125,52.6702649 229.459281,52.1301929 C228.717438,51.5901208 228.044294,50.9420441 227.439829,50.1859433 C226.670509,49.2678208 226.121004,48.3092073 225.791296,47.3100741 C225.461588,46.3109408 225.241785,45.2443146 225.131883,44.1101633 C225.02198,43.246048 224.980767,42.4089489 225.008243,41.5988409 C225.035718,40.7887328 225.214308,39.9516338 225.544016,39.0875185 C225.983627,36.9272304 226.684246,34.8479842 227.645895,32.8497177 C228.607544,30.8514512 229.720293,28.9612274 230.984174,27.1789897 C231.918347,25.7207952 232.921195,24.384137 233.992747,23.1689749 C235.064298,21.9538129 236.231997,20.7791738 237.495879,19.6450226 C237.770636,19.3749865 238.017913,19.1184562 238.237719,18.8754238 C238.457524,18.6323913 238.704801,18.375861 238.979558,18.105825 C238.539947,17.7817817 238.086605,17.5522546 237.619519,17.4172366 C237.152432,17.2822186 236.726565,17.0796946 236.341906,16.8096586 C235.902295,16.4856153 235.476428,16.161577 235.064293,15.8375338 C234.652158,15.5134905 234.226291,15.1894522 233.78668,14.865409 C233.456972,14.595373 233.127268,14.2443314 232.79756,13.8122738 C232.467852,13.3802161 232.165624,13.0291746 231.890867,12.7591386 C231.61611,11.6789945 231.602373,10.7743874 231.849654,10.0452902 C232.096935,9.31619294 232.522802,8.57360503 233.127267,7.81750419 C234.556002,6.19728809 236.067142,4.84712826 237.660732,3.7669842 C239.254322,2.68684013 241.095165,1.79573465 243.183317,1.093641 C243.952636,0.931619395 244.680731,0.769600216 245.367623,0.607578606 C246.054515,0.445556996 246.78261,0.283537817 247.551929,0.121516207 C249.310373,-0.0405054024 251.013839,-0.0405054024 252.662381,0.121516207 C253.321797,0.283537817 253.939991,0.472560193 254.51698,0.688589006 C255.093969,0.904617819 255.657212,1.12064339 256.206726,1.3366722 C256.536434,1.44468661 256.811187,1.5526994 257.030992,1.6607138 C257.250798,1.76872821 257.525551,1.95775059 257.855259,2.2277866 C258.459724,2.49782262 259.036705,2.87586737 259.586218,3.3619322 C260.135732,3.84799703 260.795139,4.25304498 261.564458,4.57708819 C262.608534,5.54921785 263.515218,6.68335211 264.284537,7.97952499 C264.39444,8.249561 264.44939,8.68161215 264.44939,9.27569138 C263.735022,9.27569138 263.267943,9.1676786 263.048137,8.95164978 C262.333769,8.95164978 261.949116,8.89764339 261.894164,8.78962898 C260.850088,8.35757136 260.02583,7.80400583 259.421365,7.12891579 C258.8169,6.45382575 258.212444,5.76524424 257.607979,5.06315059 C256.014389,4.79311458 254.544462,4.88762577 253.198154,5.34668699 C251.851845,5.80574822 250.464344,6.30530736 249.035608,6.84537939 C247.49697,7.49346583 246.027043,8.29006013 244.625783,9.23518618 C243.224523,10.1803122 242.029349,11.4899673 241.040224,13.1641906 C242.798668,13.272205 244.749412,13.1641922 246.892516,12.840149 C249.035619,12.5161058 251.343542,11.9760418 253.816353,11.219941 C254.09111,11.3819626 254.434551,11.5979882 254.846686,11.8680242 C255.258822,12.1380602 255.657213,12.4350954 256.041873,12.7591386 C256.31663,12.9751674 256.646333,13.1641898 257.030992,13.3262114 C257.415652,13.488233 257.772831,13.7312617 258.102539,14.055305 C258.102539,14.4873626 258.075064,14.9059121 258.020112,15.3109662 C257.965161,15.7160202 257.937685,16.1345697 257.937685,16.5666274 C257.498075,16.7826562 257.017257,16.9311738 256.495219,17.0121846 C255.973181,17.0931954 255.409938,17.2417129 254.805473,17.4577418 C254.475765,17.8897994 254.091111,18.2678441 253.6515,18.5918874 C253.211889,18.9159306 252.607433,18.969937 251.838114,18.7539082 C251.453455,19.5640162 251.01385,20.2120929 250.519288,20.6981578 C250.244531,20.8601794 249.956041,21.0627033 249.653808,21.3057357 C249.351576,21.5487682 249.063085,21.8323017 248.788328,22.1563449 C247.854155,23.0744674 246.919996,23.9790745 245.985823,24.8701933 C245.051649,25.7613122 244.06254,26.7469289 243.018464,27.8270729 C242.743707,27.8270729 242.441479,27.8810793 242.111771,27.9890937 C241.782062,28.0971081 241.50731,28.2051209 241.287504,28.3131353 C240.902845,28.7992002 240.806681,29.2177497 240.999011,29.5687965 C241.191341,29.9198433 241.205078,30.3923993 241.040224,30.9864785 C240.765467,31.4185361 240.490715,31.9315969 240.215958,32.5256761 C239.941201,33.1197554 239.611498,33.7678321 239.226838,34.4699257 C238.51247,35.8201058 237.921752,37.1837672 237.454665,38.5609509 C236.987579,39.9381346 236.616663,41.3828056 236.341906,42.8950073 C236.012198,45.0552954 236.204524,47.1885479 236.918892,49.2948289 C237.083746,50.0509297 237.605777,50.6179968 238.484998,50.9960473 C239.913734,50.8880329 241.246285,50.6450041 242.48269,50.2669537 C243.719096,49.8889032 244.996696,49.3488393 246.315529,48.6467457 C247.799216,47.7286232 249.241668,46.7565081 250.642928,45.7303713 C252.044188,44.7042344 253.294313,43.4890906 254.39334,42.0849033 C255.712173,40.680716 256.797446,39.1820386 257.649192,37.5888261 C258.500938,35.9956136 259.064182,34.3079138 259.338938,32.5256761 L259.338938,31.3105201 C258.239911,31.5805561 257.292014,31.9991057 256.495219,32.5661813 C255.698424,33.133257 254.860429,33.6868225 253.981207,34.2268945 L251.261128,34.2268945 C250.381906,34.0108657 249.612598,33.6328209 248.953182,33.0927489 C248.788328,32.9847345 248.568525,32.8362169 248.293769,32.6471917 C248.019012,32.4581665 247.826685,32.3096489 247.716782,32.2016345 C247.496977,31.6615625 247.442026,31.2025081 247.551929,30.8244577 C247.661832,30.4464073 247.881634,30.0413594 248.211342,29.6093017 C248.92571,28.5291577 249.777443,27.5975474 250.766568,26.8144429 C251.755692,26.0313385 252.882179,25.477773 254.14606,25.1537297 C256.618872,24.2896145 259.064171,23.7495506 261.482031,23.5335217 C263.899891,23.3174929 266.482567,23.3444961 269.230135,23.6145321 C269.999454,24.0465898 270.796237,24.5056441 271.620508,24.9917089 C272.444778,25.4777738 273.323987,26.0178377 274.25816,26.6119169 C274.752723,26.8279457 275,27.3410065 275,28.1511145 C274.340584,28.3131361 273.667439,28.3401393 272.980547,28.2321249 C272.293655,28.1241105 271.620511,27.9620913 270.961095,27.7460625 C270.35663,27.8000697 269.807124,27.8810793 269.312562,27.9890937 C268.818,28.0971081 268.268494,28.2051209 267.664029,28.3131353 C267.664029,28.5831713 267.581603,28.8532033 267.416749,29.1232393 C267.251895,29.3932753 267.169469,29.6363041 267.169469,29.8523329 C267.169469,30.2843906 267.22442,30.7029401 267.334322,31.1079941 C267.444225,31.5130481 267.554126,31.9856041 267.664029,32.5256761 C267.059564,34.3079138 266.565009,36.0361184 266.18035,37.7103417 C265.575884,39.1685362 265.122542,40.7077184 264.82031,42.3279345 C264.518077,43.9481506 264.449389,45.649352 264.614243,47.4315897 C264.504341,47.4855969 264.366964,47.5261017 264.20211,47.5531053 C264.067282,47.5751905 263.950834,47.6243692 263.852763,47.7006424 Z" id="&amp;" fill="url(#linearGradient-1)"></path>
                                        </g>
                                    </g>
                                </g>
                            </g>
                        </g>
                    </g>
                </g>
            </g>
        </g>
    </g>
</svg>