<?xml version="1.0" encoding="UTF-8"?>
<svg width="281px" height="181px" viewBox="0 0 281 181" version="1.1" xmlns="http://www.w3.org/2000/svg" xmlns:xlink="http://www.w3.org/1999/xlink">
    <!-- Generator: Sketch 60 (88103) - https://sketch.com -->
    <title>Group 23</title>
    <desc>Created with Sketch.</desc>
    <g id="Page-1" stroke="none" stroke-width="1" fill="none" fill-rule="evenodd">
        <g id="About" transform="translate(-674.000000, -2164.000000)">
            <g id="Group-23" transform="translate(673.019956, 2163.732574)">
                <polygon id="Star-Copy" stroke="#FFFFFF" fill-rule="nonzero" transform="translate(92.746203, 18.939290) rotate(2.000000) translate(-92.746203, -18.939290) " points="92.7462026 21.6892896 89.5133837 23.388883 90.1307972 19.7890863 87.5153917 17.2396961 91.1297931 16.7144928 92.7462026 13.4392896 94.362612 16.7144928 97.9770134 17.2396961 95.361608 19.7890863 95.9790215 23.388883"></polygon>
                <polygon id="Star-Copy" fill="#FFFFFF" fill-rule="nonzero" transform="translate(6.500000, 50.334187) rotate(2.000000) translate(-6.500000, -50.334187) " points="6.5 53.0841874 3.26718111 54.7837809 3.88459458 51.1839842 1.26918916 48.6345939 4.88359056 48.1093907 6.5 44.8341874 8.11640944 48.1093907 11.7308108 48.6345939 9.11540542 51.1839842 9.73281889 54.7837809"></polygon>
                <polygon id="Star-Copy" fill="#FFFFFF" fill-rule="nonzero" transform="translate(246.264231, 42.551408) rotate(2.000000) translate(-246.264231, -42.551408) " points="246.264231 45.3014076 243.031412 47.0010011 243.648826 43.4012044 241.03342 40.8518142 244.647822 40.3266109 246.264231 37.0514076 247.880641 40.3266109 251.495042 40.8518142 248.879637 43.4012044 249.49705 47.0010011"></polygon>
                <polygon id="Star-Copy" stroke="#F1556F" fill-rule="nonzero" transform="translate(275.809692, 95.171856) rotate(2.000000) translate(-275.809692, -95.171856) " points="275.809692 97.921856 272.576873 99.6214494 273.194287 96.0216527 270.578881 93.4722625 274.193283 92.9470592 275.809692 89.671856 277.426102 92.9470592 281.040503 93.4722625 278.425098 96.0216527 279.042511 99.6214494"></polygon>
                <polygon id="Star-Copy" fill="#FFFFFF" fill-rule="nonzero" transform="translate(147.859370, 79.035873) rotate(2.000000) translate(-147.859370, -79.035873) " points="147.85937 81.7858727 144.626551 83.4854662 145.243964 79.8856694 142.628559 77.3362792 146.24296 76.811076 147.85937 73.5358727 149.475779 76.811076 153.090181 77.3362792 150.474775 79.8856694 151.092189 83.4854662"></polygon>
                <path d="M66.7971552,100.62798 C67.3917982,100.446502 67.8627936,100.094591 68.2101532,99.5722382 C68.6005004,98.9852416 69.0298758,98.4178201 69.4982924,97.8699567 L74.8850565,91.2956281 C76.6806534,89.1041743 78.4762235,86.8736208 80.2718205,84.6039008 C81.2086537,83.5081739 82.1064387,82.4320297 82.9652025,81.3754359 C83.8239663,80.3188421 84.7217513,79.2818304 85.6585845,78.2643697 C86.5173483,77.0903766 87.4736845,75.9555336 88.5276219,74.8598067 C89.5815593,73.7640798 90.6159638,72.6683693 91.6308664,71.5726424 C92.6457691,70.4769155 93.6606565,69.3616387 94.6755591,68.2267787 C95.6904618,67.0919187 96.5101785,65.8201119 97.134734,64.4113202 C97.5250812,63.7851905 97.9349396,63.139504 98.3643215,62.4742412 C98.7937033,61.8089785 99.2035617,61.1632919 99.5939089,60.5371623 C99.9842561,60.1458312 100.35508,59.8132048 100.706393,59.5392731 C101.057705,59.2653414 101.428529,58.932715 101.818877,58.541384 C102.75571,58.6979164 103.575427,58.893579 104.278052,59.1283776 C104.980676,59.3631762 105.741842,59.7153689 106.561571,60.1849661 C107.3813,60.6545633 108.337636,61.3393824 109.430608,62.2394438 C110.523581,63.1395052 112.006878,64.3721794 113.880544,65.9375036 C113.958613,66.1723022 114.095233,66.4657961 114.290406,66.817994 C114.48558,67.170192 114.661234,67.5419509 114.817372,67.9332819 C114.973511,68.324613 115.090614,68.6572393 115.168683,68.9311711 C115.246753,69.2051028 115.363855,69.5377292 115.519994,69.9290602 C115.129647,71.8857154 114.64172,73.7053775 114.056199,75.3881009 C113.470679,77.0708244 112.826615,78.7730889 112.12399,80.4949454 C111.343296,82.2950682 110.640682,84.1342965 110.016126,86.0126855 C109.391571,87.8910745 108.767025,89.7303028 108.142469,91.5304255 C107.752122,92.8609511 107.244678,94.1523241 106.620123,95.4045834 C105.995567,96.6568428 105.214885,97.8308183 104.278052,98.9265452 C104.121913,100.335337 103.946259,101.724541 103.751085,103.0942 C103.555912,104.463859 103.067985,105.774798 102.287291,107.027057 C101.428527,110.549037 100.374606,113.933999 99.1254946,117.182047 C97.8763837,120.430094 96.9005304,123.815057 96.1979055,127.337037 C95.8075583,128.51103 95.4367341,129.645873 95.0854216,130.7416 C94.7341092,131.837326 94.4803873,132.972169 94.3242484,134.146163 C94.0900401,136.25935 93.75825,138.294241 93.3288681,140.250896 C92.8994862,142.207551 92.5676961,144.085912 92.3334878,145.886035 C92.4115572,146.981762 92.4896255,147.920942 92.5676949,148.703604 C92.6457644,149.486266 92.7238326,150.229784 92.8019021,150.93418 C92.4115549,151.403777 92.0407306,151.560307 91.6894182,151.403775 C91.3381057,151.247243 91.0453497,151.168978 90.8111414,151.168978 C90.4207943,151.168978 90.04997,151.20811 89.6986576,151.286376 C89.3473451,151.364643 89.0545891,151.403775 88.8203808,151.403775 C87.2589921,150.855912 85.9513487,150.092827 84.8974114,149.1145 C83.843474,148.136172 82.7700354,147.099161 81.6770633,146.003434 C80.5840912,145.064239 79.920511,143.733734 79.6863027,142.011877 C79.2959555,140.603085 79.0031995,139.194315 78.8080259,137.785523 C78.6128523,136.376731 78.5933353,134.928828 78.7494741,133.44177 C78.905613,131.641647 79.0812666,129.841552 79.2764402,128.041429 C79.4716138,126.241306 79.6863015,124.44121 79.9205098,122.641088 C80.5450653,119.510439 81.1305772,116.438537 81.6770633,113.425288 C82.2235493,110.412039 82.8090613,107.340136 83.4336168,104.209488 C83.4336168,104.052955 83.3165144,103.739895 83.0823061,103.270298 C81.6770563,104.444291 80.4669982,105.892194 79.4520955,107.614051 C78.8275401,108.318447 78.2420281,109.081531 77.695542,109.903326 C77.149056,110.725121 76.563544,111.527338 75.9389886,112.31 C75.3144331,113.170928 74.709404,114.031843 74.1238833,114.892772 C73.5383625,115.7537 72.9333335,116.614615 72.308778,117.475544 C71.6842225,118.336472 71.0596764,119.138689 70.4351209,119.882218 C69.8105655,120.625746 69.2640876,121.427963 68.795671,122.288891 C68.249185,123.14982 67.6831901,123.893337 67.0976693,124.519467 C66.5121486,125.145597 66.063256,126.006512 65.7509783,127.102239 C65.3606311,127.415304 64.9312557,127.650099 64.4628391,127.806631 C63.9944225,127.963164 63.5260129,128.197959 63.0575963,128.511024 C63.0575963,128.667556 63.0380792,128.824086 62.9990445,128.980619 C62.9600098,129.137151 62.9404927,129.293681 62.9404927,129.450214 C63.0185621,130.311142 63.0185621,130.878563 62.9404927,131.152495 C62.8624233,131.426427 62.6282185,131.993848 62.2378713,132.854777 C61.3791075,133.480906 60.4227713,133.891798 59.3688339,134.087463 C58.3148966,134.283129 57.2804921,134.420092 56.2655894,134.498359 C56.0313811,135.046222 56.0118641,135.398415 56.2070377,135.554947 C56.4022112,135.71148 56.6559331,135.86801 56.9682108,136.024542 C57.358558,136.259341 57.7488993,136.513702 58.1392465,136.787634 C58.5295937,137.061566 58.7247643,137.628987 58.7247643,138.489915 C58.490556,138.646448 58.2173171,138.822544 57.9050394,139.01821 C57.5927616,139.213875 57.3195227,139.389971 57.0853144,139.546504 C56.8511061,139.781302 56.7340037,139.937833 56.7340037,140.016099 C56.6559343,140.40743 56.6169001,140.857454 56.6169001,141.366184 C56.6169001,141.874914 56.5388319,142.442336 56.382693,143.068466 C55.9142764,143.694595 55.3287644,144.516378 54.6261395,145.533839 C52.5182648,145.92517 50.4689729,145.983869 48.4782023,145.709937 C46.4874317,145.436005 44.7113787,144.281596 43.14999,142.246675 C44.2429621,133.480859 45.8238445,124.910838 47.8926845,116.536354 C49.9615245,108.16187 52.1279188,99.6701135 54.3919324,91.0608306 C52.9086131,92.5478886 51.6985551,94.0544905 50.7617218,95.5806815 C49.8248886,97.1068726 48.8100012,98.652607 47.7170291,100.217931 C46.8582653,101.783255 45.9409632,103.348556 44.9650953,104.91388 C43.9892274,106.479204 42.993857,108.044505 41.9789544,109.609829 C41.0421212,111.175153 40.105302,112.76002 39.1684688,114.364477 C38.2316356,115.968935 37.2557823,117.592934 36.2408796,119.236525 C36.0847408,119.393057 35.870053,119.569153 35.59681,119.764819 C35.323567,119.960484 35.030811,120.175713 34.7185333,120.410512 C34.6404638,121.036641 34.5623956,121.604063 34.4843262,122.112793 C34.4062567,122.621524 34.3281885,123.11068 34.250119,123.580277 C32.6106609,127.258789 30.5418519,130.545921 28.04363,133.44177 C28.04363,135.476692 27.6532887,137.31592 26.8725944,138.95951 C26.4822472,139.820439 26.1504571,140.681354 25.877214,141.542282 C25.603971,142.40321 25.2331468,143.224993 24.7647302,144.007655 C24.1401747,144.790317 23.6912822,145.6121 23.4180392,146.473029 C23.1447961,147.333957 22.6568695,148.038342 21.9542446,148.586206 C21.9542446,148.821004 21.9152104,149.055799 21.837141,149.290598 C21.7590716,149.525397 21.7200374,149.760192 21.7200374,149.99499 C21.3296903,150.542854 20.9198319,151.071143 20.49045,151.579873 C20.0610681,152.088603 19.5731415,152.57776 19.0266554,153.047357 C16.9968501,153.751753 15.1036947,153.810452 13.3471325,153.223455 C11.5905702,152.636459 9.89258547,151.63858 8.25312734,150.229788 C7.472433,148.429665 6.96498929,146.629569 6.73078099,144.829446 C6.49657268,143.029324 6.45753855,141.190095 6.61367742,139.311706 C6.76981629,137.041986 6.90643575,134.7723 7.0235399,132.50258 C7.14064405,130.23286 7.39436591,127.963174 7.78471308,125.693454 C8.40926856,120.606151 9.13139999,115.616755 9.95112905,110.725117 C10.7708581,105.833479 11.8052626,100.922348 13.0543736,95.9915771 C15.0061094,88.2432225 17.5823621,80.6906468 20.7832089,73.3336232 C21.7981116,71.0639032 22.8520331,68.8137835 23.9450052,66.5831966 C25.0379773,64.3526097 26.2480354,62.180755 27.5752158,60.0675674 C28.4339795,58.7370418 29.3707987,57.465235 30.3857013,56.2521088 C31.400604,55.0389826 32.5716279,54.1976335 33.8988083,53.7280363 C35.460197,53.4149714 36.8654257,53.8062966 38.1145367,54.9020235 C38.9733005,55.7629518 39.9491538,56.4869033 41.0421259,57.0738999 C42.1350979,57.6608965 42.9157806,58.6196431 43.3841972,59.9501686 C43.4622666,61.2806942 43.1304765,62.3568384 42.3888169,63.1786336 C41.6471572,64.0004288 41.1592306,64.9200429 40.9250223,65.9375036 C40.3785362,66.094036 39.9296437,66.2114336 39.5783313,66.2896998 C39.2270188,66.367966 38.8561946,66.4853635 38.4658474,66.6418959 C38.5439168,67.033227 38.582951,67.4441184 38.582951,67.8745826 C38.582951,68.3050467 38.6219851,68.7159381 38.7000545,69.1072692 C38.3097074,70.2029961 37.9974343,71.2987065 37.763226,72.3944334 C37.5290177,73.4901604 37.2362617,74.5663046 36.8849493,75.6228984 C36.5336368,76.6794922 36.1042614,77.6969376 35.59681,78.6752652 C35.0893587,79.6535928 34.4062614,80.5340744 33.5474976,81.3167365 C33.4694282,83.1168593 33.2547405,84.8191238 32.903428,86.423581 C32.5521156,88.0280383 32.103223,89.6129052 31.556737,91.1782294 C30.6979732,94.1523453 29.8587394,97.1068503 29.0390103,100.041833 C28.2192813,102.976816 27.3800474,105.931321 26.5212837,108.905437 C26.2090059,110.314229 25.8967329,111.703433 25.5844551,113.073091 C25.2721774,114.44275 24.9208702,115.831954 24.530523,117.240746 C24.4524536,117.632077 24.4134195,118.414728 24.4134195,119.588721 C24.8037666,119.119123 25.1550738,118.806063 25.4673516,118.649531 C27.7313652,113.953558 30.1709984,109.375054 32.7863244,104.91388 C35.4016505,100.452706 38.1535568,96.1089969 41.0421259,91.8826217 C43.3842089,88.3606424 45.7262568,84.9169809 48.0683398,81.551534 C50.4104229,78.186087 52.830539,74.8598231 55.3287609,71.5726424 C56.5778719,69.7725196 57.8855153,68.0702551 59.2517304,66.4657979 C60.6179455,64.8613406 61.964623,63.2764737 63.2918034,61.7111495 C63.6821506,61.3980847 64.092009,61.0850246 64.5213909,60.7719597 C64.9507727,60.4588949 65.3606311,60.1067022 65.7509783,59.7153712 C66.1413255,60.028436 66.4926327,60.2632311 66.8049104,60.4197635 C67.1171881,60.576296 67.3904271,60.8110911 67.6246354,61.1241559 C68.2491908,61.7502856 68.8542199,62.2785745 69.4397406,62.7090387 C70.0252614,63.1395028 70.7473928,63.4329967 71.6061566,63.5895291 C73.0894759,64.0591264 74.1433974,65.0765718 74.7679529,66.6418959 C75.1583001,67.7376229 75.1583001,69.1072609 74.7679529,70.7508513 C74.1433974,73.2553699 73.5383684,75.7207185 72.9528476,78.1469709 C72.3673269,80.5732234 71.6842296,82.9603069 70.9035352,85.3082931 L68.795671,92.1174192 C68.0930461,94.3871392 67.4294659,96.6959577 66.8049104,99.0439439 C66.6487715,99.2787425 66.6097374,99.5526701 66.6878068,99.865735 C66.7457856,100.098235 66.7822349,100.352315 66.7971552,100.62798 L66.7971552,100.62798 Z" id="Path" fill="#49A5CD" transform="translate(61.019994, 103.623681) rotate(2.000000) translate(-61.019994, -103.623681) "></path>
                <path d="M128.92883,93.9877949 C129.165011,94.0741484 129.580365,94.1667577 130.174904,94.2656254 C130.769443,94.3644931 131.383882,94.4640546 132.018239,94.5643128 C133.122233,94.9152889 133.999727,95.473139 134.650745,96.2378796 C135.301764,97.0026203 136.177895,97.5994751 137.279165,98.0284621 C137.685514,97.8083342 138.050677,97.6258241 138.374665,97.4809261 C138.698654,97.3360281 139.024,97.1521275 139.350713,96.9292187 C140.218527,97.1938413 141.087008,97.4389575 141.956184,97.6645746 C142.82536,97.8901918 143.692479,98.1743128 144.557568,98.5169463 C144.771956,99.2273864 144.953334,99.7414014 145.101707,100.059007 L146.197682,101.210283 C146.543781,101.573846 146.90774,101.996606 147.289571,102.478575 C147.104875,103.201115 146.911635,103.91467 146.709849,104.619251 L146.40076,105.669392 C146.08526,106.712805 145.788993,107.7764 145.511949,108.860209 C144.968757,110.715783 144.447526,112.513517 143.948238,114.253466 C143.448951,115.993414 142.929081,117.752144 142.388614,119.529707 C142.007417,121.312833 141.567862,123.054841 141.069937,124.755784 C140.572012,126.456727 140.09264,128.197345 139.631808,129.977689 C139.461641,130.28417 139.34984,130.631738 139.296401,131.020401 C139.242963,131.409065 139.408518,131.80537 139.793073,132.209329 C141.464777,130.002633 143.116547,127.795276 144.748433,125.58719 C146.380319,123.379104 148.30536,121.337499 150.523613,119.462313 C151.471061,119.729716 152.398587,119.99642 153.306218,120.262434 C154.21385,120.528447 155.09611,120.94978 155.953027,121.526446 C155.03073,122.82204 154.072034,124.018711 153.076912,125.116497 C152.08179,126.214283 151.046185,127.330165 149.970065,128.464175 C147.326395,131.105565 144.900396,133.793567 142.691994,136.528262 C140.483593,139.262957 138.451677,142.081878 136.596185,144.985109 C135.950932,145.196895 135.325596,145.409372 134.72016,145.622547 C134.114725,145.835723 133.490751,146.009195 132.848222,146.14297 C129.259194,146.17385 126.394781,144.863198 124.254896,142.210975 C123.883963,141.416962 123.652394,140.627828 123.560184,139.843548 C123.467973,139.059269 123.436851,138.238082 123.466817,137.379963 L123.556715,134.805618 C123.586682,133.947499 123.57683,133.088003 123.527161,132.227103 C122.783203,132.982183 122.078393,133.758144 121.412708,134.55501 C120.747023,135.351877 120.042212,136.127838 119.298254,136.882918 C118.554296,137.637998 117.71285,138.331083 116.773891,138.962195 C115.834931,139.593306 114.720215,140.120639 113.429708,140.54421 C111.101221,141.009639 108.811065,140.949191 106.559172,140.362864 C104.307278,139.776538 102.339428,138.477668 100.65556,136.466218 C99.8422308,134.641379 99.4861273,132.852059 99.5872393,131.098206 C99.6883513,129.344353 99.9679571,127.616286 100.426065,125.913952 C100.914139,123.3535 101.658973,120.86063 102.660589,118.43527 C103.662205,116.00991 104.839577,113.688355 106.19274,111.470535 C106.873408,110.24461 107.552023,109.077209 108.228604,107.9683 C108.905186,106.85939 109.819978,105.778342 110.973009,104.725124 C111.631883,104.123284 112.130799,103.535395 112.469771,102.961437 C112.808743,102.38748 113.306296,101.838595 113.962446,101.314767 C115.864883,99.3504462 117.995296,97.7065366 120.35375,96.3829884 C122.712203,95.0594403 125.570535,94.2610504 128.92883,93.9877949 Z M130.80545,103.381159 C130.313393,103.722138 129.867553,103.885647 129.467915,103.871691 C128.649209,104.400242 127.907664,105.011069 127.24326,105.704191 C125.437664,106.994194 123.785701,108.46862 122.287322,110.127513 C120.788943,111.786406 119.526896,113.553014 118.501142,115.42739 C117.304429,117.614162 116.204866,119.883883 115.20242,122.236623 C114.199973,124.589362 113.29745,126.945554 112.494822,129.305271 C112.354111,129.897294 112.225422,130.467345 112.108752,131.015433 L111.996089,131.556202 C111.851214,132.267466 111.684971,133.017769 111.497356,133.807132 C111.49458,133.886627 111.60753,134.089547 111.836208,134.415899 C112.249725,134.032381 112.579146,133.765319 112.824481,133.614703 C114.47855,132.080634 115.994806,130.482084 117.373294,128.819005 C118.751782,127.155925 120.112349,125.432552 121.455037,123.648835 L121.583255,123.41454 C122.167732,122.718626 122.652291,122.019235 123.036949,121.316344 C123.421607,120.613453 123.824853,119.951017 124.246698,119.329016 C125.173092,118.00831 126.05604,116.785596 126.895567,115.660836 C127.735094,114.536076 128.458188,113.30778 129.064873,111.97591 C129.59163,110.641249 130.136279,109.366926 130.698836,108.152902 C131.261392,106.938879 131.806041,105.664556 132.332798,104.329895 C132.418278,104.173697 132.464487,103.996232 132.471427,103.797496 C132.477304,103.629201 132.512336,103.447657 132.576526,103.252861 C131.880106,103.002787 131.289753,103.045553 130.80545,103.381159 Z" id="Combined-Shape" fill="#3C9748"></path>
                <path d="M175.616943,95.9102803 C176.910895,96.9680817 178.242564,98.0661311 179.611991,99.2044617 C180.981418,100.342792 182.304937,101.674234 183.582588,103.198827 C183.9817,102.979084 184.361258,102.758661 184.721274,102.537553 C185.08129,102.316444 185.460848,102.096022 185.85996,101.876279 C186.401873,102.05099 186.924909,102.205566 187.429084,102.340013 C187.933259,102.474459 188.454937,102.667934 188.994133,102.920444 C189.393245,102.700701 189.810541,102.520542 190.246032,102.379963 C190.681523,102.239383 191.139273,102.021691 191.619294,101.72688 L194.142576,103.45075 C194.983674,104.025377 195.780231,104.754224 196.532269,105.637314 C196.515969,106.104106 196.463289,106.491728 196.37423,106.800192 C196.368796,106.95579 196.30472,107.109337 196.181997,107.260838 C196.059275,107.41234 195.954745,107.60342 195.868402,107.834085 C195.95415,109.862311 195.961706,111.887776 195.891069,113.91054 C195.820433,115.933305 195.554319,117.949212 195.092721,119.958324 C194.914602,120.575252 194.813319,121.2338 194.788868,121.933988 C194.764417,122.634175 194.702229,123.294089 194.602302,123.913747 C194.510526,124.30001 194.477394,124.688315 194.502906,125.078673 C194.528419,125.469031 194.456192,125.855971 194.286223,126.239503 C193.76545,127.701294 193.361971,129.167158 193.075775,130.637141 C192.789579,132.107123 192.462934,133.614617 192.095829,135.159668 C191.895975,136.398985 191.599745,137.595971 191.207127,138.750663 C190.81451,139.905355 190.361897,141.096881 189.849274,142.325276 C189.41756,143.478603 189.004043,144.671494 188.608709,145.903984 C188.213375,147.136475 187.799857,148.329366 187.368143,149.482693 C186.966315,149.780234 186.643362,150.061053 186.399276,150.325157 C186.155191,150.58926 185.872692,150.832545 185.551772,151.055019 C185.133643,151.819353 184.734388,152.603807 184.353996,153.408405 C183.973605,154.213003 183.767111,155.082081 183.73451,156.015665 C182.56918,158.000202 181.344546,160.00211 180.06057,162.021451 C178.776594,164.040791 177.47241,166.078868 176.147979,168.135743 C175.891668,168.74994 175.52147,169.262786 175.037373,169.674295 C174.553277,170.085804 174.068509,170.516757 173.583054,170.967165 C173.173075,171.498103 172.801518,172.049847 172.468373,172.622415 C172.135227,173.194983 171.765029,173.707828 171.357767,174.160967 C170.060504,175.439856 168.706655,176.658329 167.296179,177.816423 C165.885702,178.974517 164.232672,179.793081 162.337039,180.272139 C161.94336,180.336285 161.54765,180.458778 161.149896,180.639622 C160.752143,180.820465 160.355074,180.981857 159.958679,181.123802 C158.802095,180.616052 157.579413,180.320205 156.290598,180.236252 C155.001783,180.152299 153.703627,179.775924 152.396092,179.107115 C152.272308,178.168071 152.178114,177.502697 152.113506,177.110973 C152.278041,176.883038 152.423705,176.634975 152.550502,176.366775 C152.677299,176.098576 152.821605,175.889411 152.983423,175.739275 C155.661574,173.028632 157.915068,170.147417 159.743971,167.095543 C162.400983,162.748398 164.710169,158.272335 166.6716,153.66722 C168.633032,149.062104 170.401672,144.372434 171.977575,139.598068 C172.320229,138.753205 172.622424,137.945889 172.884169,137.176094 C173.145914,136.406299 173.448109,135.598983 173.790763,134.75412 C173.974315,133.981595 174.155827,133.267429 174.335305,132.611602 C174.514782,131.955774 174.775844,131.205441 175.118498,130.360578 C174.72482,130.424724 174.430244,130.453383 174.234763,130.446557 C174.039283,130.43973 173.860636,130.511384 173.698818,130.661521 C172.730625,131.484539 171.744936,132.248515 170.741723,132.95347 C169.738509,133.658425 168.75282,134.422401 167.784628,135.245419 C166.819152,135.990639 165.802518,136.519857 164.734696,136.833088 C163.666874,137.14632 162.472421,137.163028 161.151302,136.883213 L160.330286,136.854543 C158.523712,137.025136 156.909396,136.735086 155.487288,135.984383 C154.065181,135.233681 152.705814,134.368341 151.409146,133.388338 C149.65419,132.080758 148.576112,130.446318 148.174878,128.484969 C148.110269,128.093245 148.043624,127.759875 147.974941,127.484849 C147.906257,127.209824 147.835537,126.99315 147.762778,126.834822 C148.114177,123.497673 148.828828,120.406935 149.906754,117.562518 C150.984679,114.7181 152.274897,111.959031 153.777447,109.285229 C155.355472,106.691955 157.118764,104.397288 159.067375,102.401157 C161.015986,100.405026 163.343977,98.7532168 166.051419,97.4456796 C167.488766,96.6390443 168.957036,96.0671788 170.456275,95.7300658 C171.955513,95.3929528 173.675719,95.4530238 175.616943,95.9102803 Z M180.017587,104.790897 C179.542986,104.85567 179.024822,105.040937 178.463081,105.346705 C177.741249,105.728228 176.961166,106.087374 176.122811,106.424155 C175.284456,106.760936 174.382178,107.237832 173.415952,107.854859 L172.783691,109.052963 C172.530786,109.532208 172.12205,109.965331 171.557472,110.352345 C171.158661,110.50111 170.914271,110.73661 170.824294,111.058852 C170.326995,111.7736 169.850778,112.4484 169.39563,113.083274 C168.940481,113.718148 168.465683,114.352326 167.971221,114.985826 C166.987971,116.090334 166.17668,117.343183 165.537324,118.744411 C164.897967,120.145639 164.200359,121.524475 163.44448,122.880961 C163.031483,123.435961 162.713937,124.07563 162.491834,124.799988 C162.26973,125.524346 162.027974,126.248006 161.766557,126.970991 C161.923811,126.976483 162.079645,127.022597 162.234063,127.109335 C162.388481,127.196074 162.545733,127.201565 162.705825,127.125809 C163.593424,126.506037 164.480301,125.906586 165.366481,125.327437 C166.252662,124.748288 167.101644,124.106841 167.913453,123.403076 C169.944394,121.603041 171.994961,119.803719 174.065216,118.005056 C176.135471,116.206393 177.993728,114.278338 179.640044,112.220833 C180.072902,111.097105 180.484678,110.013331 180.875385,108.969477 C181.266092,107.925623 181.481303,106.834984 181.521024,105.697527 C180.993329,105.028332 180.492189,104.726125 180.017587,104.790897 Z" id="Combined-Shape" fill="#C2AA31"></path>
                <path d="M209.11696,100.790464 C209.504768,100.962106 209.874283,101.093582 210.225515,101.184896 C210.576748,101.276211 210.906931,101.406314 211.216075,101.575208 C211.897293,101.915195 212.528159,102.253419 213.108684,102.589887 L213.53464,102.84191 C214.228834,103.261398 215.001681,103.683628 215.853204,104.108611 C216.002262,104.350964 216.150628,104.613052 216.298307,104.894882 C216.445986,105.176712 216.59573,105.399324 216.747545,105.562725 C216.692403,107.141787 216.290859,108.491347 215.542901,109.611444 C214.794943,110.731542 214.27954,111.958553 213.996676,113.292515 C213.713812,114.626478 213.33538,115.878034 212.861369,117.047223 C212.387358,118.216411 211.930263,119.465221 211.49007,120.793689 C211.052634,122.043204 210.63625,123.253911 210.240903,124.425847 C209.845557,125.597782 209.429172,126.80849 208.991736,128.058005 C208.559814,129.149613 208.046479,130.317411 207.451714,131.561432 C206.856949,132.805453 206.569954,134.257823 206.590719,135.918586 C207.649199,134.927907 208.837376,133.605817 210.155284,131.952277 C211.473193,130.298736 212.831792,128.607119 214.231122,126.877372 C215.630452,125.147626 216.988362,123.475746 218.304892,121.861683 C219.621422,120.247619 220.808909,118.945267 221.867389,117.954588 C222.643005,118.29787 223.303371,118.558076 223.848508,118.735211 C224.219774,119.380571 224.571367,120.025235 224.903301,120.669222 C225.235234,121.313209 225.588206,121.918396 225.962229,122.484803 C225.549607,123.02374 225.014861,123.676977 224.357974,124.444532 C223.706602,125.054181 222.907929,125.935345 221.961931,127.088051 C221.015934,128.240758 220.008885,129.450601 218.940756,130.717616 C217.872626,131.984632 216.845911,133.193788 215.860582,134.34512 C214.875252,135.496453 214.097623,136.338828 213.527673,136.872271 C213.36483,137.024683 213.223723,137.118566 213.104347,137.153922 C212.984972,137.189278 212.883197,137.284534 212.799018,137.439694 C212.117318,138.917827 211.186175,140.209369 210.005563,141.314358 C208.824951,142.419346 207.778571,143.627816 206.866391,144.939802 C206.293683,145.552198 205.702008,146.14416 205.091346,146.715706 L203.198305,148.487489 C201.144758,148.652926 199.260287,148.488308 197.544833,147.993631 C195.82938,147.498955 194.326464,146.557179 193.036039,145.168276 C192.602652,144.04645 192.36593,142.931508 192.325865,141.823417 C192.2858,140.715326 192.325777,139.570523 192.445798,138.388973 C192.96319,134.849817 193.675164,131.376795 194.581743,127.969804 C195.488321,124.562813 196.51357,121.140255 197.65752,117.702028 C198.98637,113.479764 200.95002,109.121635 203.54853,104.627511 C203.974937,103.693808 204.558665,102.765613 205.29973,101.842899 L207.269411,101.259527 C207.866287,101.082747 208.48213,100.926394 209.11696,100.790464 Z M213.12107,86.9217572 C214.494718,87.8229633 215.892571,88.5892615 217.314671,89.220675 C218.73677,89.8520885 219.970575,90.8453556 221.016122,92.2005062 C220.919217,92.7400914 220.841805,93.2803491 220.783884,93.8212956 C220.725963,94.362242 220.690239,94.8263897 220.676712,95.2137524 C220.023216,96.044169 219.284447,96.5225487 218.460382,96.6489058 C217.636317,96.7752628 216.753791,96.899576 215.812775,97.0218491 C214.578829,96.5909236 213.564719,96.0125491 212.770414,95.2867082 C211.976108,94.5608673 211.166381,93.7181495 210.341208,92.7585296 C210.354735,92.3711669 210.329279,91.9824487 210.264839,91.5923633 L210.07152,90.4221129 C210.746659,88.9719159 211.763166,87.8051424 213.12107,86.9217572 Z" id="Combined-Shape" fill="#F47A20"></path>
                <path d="M235.002729,141.807538 C236.091919,140.928907 237.006046,140.010352 237.745139,139.051845 C238.484232,138.093339 239.281662,137.09491 240.137454,136.056528 C241.071045,134.858395 242.10187,133.600374 243.229959,132.282427 C244.358048,130.964481 245.466671,129.606617 246.55586,128.208795 C247.64505,126.810974 248.695324,125.393204 249.706714,123.955444 C250.718104,122.517685 251.573883,121.079947 252.274076,119.642187 C252.663073,119.003183 253.052063,118.264345 253.441059,117.425652 C253.830056,116.586959 254.374642,115.848121 255.074835,115.209117 C256.086226,115.528619 257.11705,115.828148 258.16734,116.107712 C259.21763,116.387276 260.170657,116.886491 261.026448,117.605371 C260.715251,119.442508 260.112316,121.059964 259.217625,122.457786 C258.322933,123.855607 257.6422,125.353251 257.175405,126.950762 C256.708609,127.509891 256.241821,127.989137 255.775025,128.388514 C255.30823,128.787892 254.88034,129.267138 254.491344,129.826267 C254.335745,130.864649 254.024553,131.743267 253.557758,132.462146 C253.090962,133.181026 252.565825,133.859958 251.982331,134.498962 C251.398836,135.137967 250.776452,135.776962 250.115158,136.415966 C249.453864,137.05497 248.850929,137.813776 248.306335,138.692407 C248.150736,138.932034 247.956241,139.13172 247.722843,139.291471 C247.489445,139.451222 247.29495,139.730782 247.139352,140.13016 C246.594757,140.928915 246.108519,141.687721 245.680623,142.406601 C245.252727,143.125481 244.805388,143.804413 244.338593,144.443417 C244.182994,144.683044 244.027398,144.862761 243.871799,144.982574 C243.716201,145.102388 243.560605,145.242168 243.405006,145.401919 C242.549215,146.120799 241.693436,146.759793 240.837644,147.318922 C239.981852,147.878051 239.126073,148.477108 238.270282,149.116113 C236.480899,149.675241 234.691543,149.934833 232.90216,149.894895 C231.112777,149.854957 229.323421,149.39568 227.534039,148.517049 C225.744656,147.798169 224.305391,146.739834 223.216202,145.342012 C222.127012,143.944191 221.387931,142.087112 220.998934,139.770722 C220.609938,138.332962 220.337645,136.95513 220.182046,135.637183 C220.026448,134.319237 219.987549,132.981342 220.065348,131.623458 C220.065348,129.147316 220.143146,126.890866 220.298745,124.85404 C220.454343,122.817213 220.668288,120.820355 220.940585,118.863404 C221.212883,116.906454 221.562974,114.949532 221.99087,112.992582 C222.418766,111.035631 222.982802,108.898993 223.682995,106.582602 C224.22759,105.224718 224.791626,103.866854 225.37512,102.50897 C225.958615,101.151086 226.56155,99.8331592 227.183944,98.5551506 C227.57294,97.7563953 227.942481,97.097432 228.292578,96.578241 C228.642674,96.05905 229.012215,95.579804 229.401211,95.1404885 C229.790208,94.7011731 230.256996,94.2818328 230.801591,93.8824551 C231.346186,93.4830774 232.046368,92.9638942 232.90216,92.3248899 C234.224747,92.0053878 235.586214,91.8656077 236.9866,91.9055454 C238.386987,91.9454832 239.787352,92.2050748 241.187739,92.684328 C242.043531,93.0837057 242.938208,93.3632659 243.871799,93.523017 C244.80539,93.682768 245.738967,93.8824539 246.672558,94.1220805 C247.52835,94.2818316 248.286882,94.4415803 248.948175,94.6013313 C249.609469,94.7610824 250.173505,94.9208311 250.6403,95.0805822 C251.418293,95.799462 251.962879,96.4783939 252.274076,97.1173982 C252.585273,97.7564025 252.760319,98.3953972 252.799219,99.0344015 C252.838118,99.6734058 252.799219,100.392275 252.68252,101.19103 C252.565822,101.989786 252.507473,102.868403 252.507473,103.82691 C251.885079,104.066536 251.534988,104.525814 251.457188,105.204756 C251.379389,105.883698 251.029298,106.342975 250.406904,106.582602 L247.139352,105.384475 C246.050162,104.985097 244.92209,104.585726 243.755101,104.186348 C243.210506,104.985103 242.607571,105.783847 241.946278,106.582602 C241.284984,107.381357 240.64315,108.220038 240.020756,109.098669 C240.098555,110.616304 239.923509,112.093979 239.495614,113.531739 C239.067718,114.969499 238.542581,116.487111 237.920187,118.084622 C237.453391,119.36263 237.08385,120.520808 236.811553,121.55919 C236.539255,122.597572 236.325311,123.596001 236.169712,124.554508 C236.014114,125.513014 235.877967,126.511444 235.761268,127.549826 C235.644569,128.588208 235.469524,129.746385 235.236126,131.024394 C234.924929,132.621905 234.730434,134.23936 234.652634,135.876809 C234.574835,137.514257 234.458138,139.17165 234.30254,140.849036 C234.30254,141.008787 234.380338,141.128599 234.535936,141.208474 C234.691535,141.28835 234.847131,141.488035 235.002729,141.807538 Z" id="Path" fill="#FE6EBD" transform="translate(240.526448, 120.898889) rotate(2.000000) translate(-240.526448, -120.898889) "></path>
                <path d="M174.584988,80.3202275 C192.584988,42.9868942 207.251655,20.6535608 218.584988,13.3202275" id="Path-22" fill="#FFFFFF" fill-rule="nonzero" transform="translate(196.584988, 46.820228) rotate(2.000000) translate(-196.584988, -46.820228) "></path>
                <path d="M134.76601,64.9494984 C131.432677,40.2828318 127.432677,23.9494984 122.76601,15.9494984" id="Path-25" fill="#FFFFFF" fill-rule="nonzero" transform="translate(128.766010, 40.449498) rotate(2.000000) translate(-128.766010, -40.449498) "></path>
                <path d="M86.0793198,60 C72.7459864,41.3333333 64.0793198,21.6666667 60.0793198,1" id="Path-26" fill="#FFFFFF" fill-rule="nonzero" transform="translate(73.079320, 30.500000) rotate(2.000000) translate(-73.079320, -30.500000) "></path>
                <path d="M233.009932,79.2651571 C251.676599,69.9318238 264.343266,59.9318238 271.009932,49.2651571" id="Path-27" fill="#FFFFFF" fill-rule="nonzero" transform="translate(252.009932, 64.265157) rotate(2.000000) translate(-252.009932, -64.265157) "></path>
            </g>
        </g>
    </g>
</svg>