<svg xmlns="http://www.w3.org/2000/svg" xmlns:xlink="http://www.w3.org/1999/xlink" preserveAspectRatio="none" viewBox="0 0 1439 860">
  <defs>
    <clipPath id="clip-path">
      <rect id="Rectangle_1" data-name="Rectangle 1" width="1439" height="860" transform="translate(285 110)" fill="#fff" stroke="#707070" stroke-width="1" opacity="0.56"/>
    </clipPath>
    <linearGradient id="linear-gradient" x1="1" y1="0.5" x2="0.001" y2="0.5" gradientUnits="objectBoundingBox">
      <stop offset="0" stop-color="#cc066f"/>
      <stop offset="1" stop-color="#791e97"/>
    </linearGradient>
  </defs>
  <g id="Mask_Group_1" data-name="Mask Group 1" transform="translate(-285 -110)" clip-path="url(#clip-path)">
    <g id="about-intro-bg" transform="translate(275 109.36)">
      <g id="Group_1" data-name="Group 1">
        <path id="Path_1" data-name="Path 1" d="M1458.93,824.724v.068l.068-.037Zm-30.424,7.394,6.083,1.05-.425,1.923c-3.191-.076-6.351.46-7.574-1.15l1.916-1.823Zm-6.185.355c.922.5,1.524.826,3.234,1.752-3.95,0-6.74-.1-9.49.028-2.79.136-5.541.5-9.509.88l3.645-3,3.55.98,1.99-.835,4.154,1.133,2.426-.938Zm-13.417-7.512c.263-.79.394-1.19.293-.878.633.15,1.77.418,3.707.878Zm-3.634,8.3c.967,1.782-1.229,2.2-2.248,2.545-3.2-.313-5.526-.644-7.877-.74-2.818-.116-6.279-.583-8.358.1-3.237,1.068-5.328-.739-8.276-.187V831.81c2.387.864,4.087,1.48,5.888,2.134.547-.224,1.367-.56,2.226-.91l3.615,1.153c1.253-.381,2.394-.73,3.508-1.07.979.312,1.834.584,2.689.858,1.036-.6.243-2.432,3.5-1.554.459.607.913,1.212,1.457,1.934l3.88-1.09Zm-30.744-.45h1.772v.3h-1.772Zm-6.461-.812h.59v.908h-.59Zm-14.12,1.557c3.184-2.363,7.52-2.472,11.41-3.23-.714,1.84-1.29,3.325-1.782,4.586-2.813,1.139-4.667-1.106-7.77.031-2.1.766-5.956.145-9.447.145l5.334-2.447Zm-12.143-.951c.525-.252,1.086-.522,2.556-1.232-.192,1.853-.3,2.928-.406,3.948-3.641.21-6.062-.168-6.561-1.958-.142-.5.217-1.046.427-1.892l3.984,1.134Zm-8.136-1.251c.941.99,1.808,1.889,2.62,2.8.04.047-.385.227-.323.194h-18.674c2.13-1.483,3.142-2.187,4.234-2.945,1.816,2.411,5.636-.8,7.775,1.015a36.1,36.1,0,0,0,4.368-1.066Zm-20.31.729,4.885.956c-4.805.836-7.947,1.682-11.254,1.891-6.594.42-12.533-1.273-18.744-1.813,1.386-.888,2.552-1.633,3.315-2.12l6.25.941,4.66,2.286,3.82-.174c.284-.933.508-1.67.73-2.408q.866-.267,1.732-.536l1.857,2.328c1.562-.767,2.568-1.26,2.75-1.351Zm-39.088-1.493c4.123.757,7.905,1.452,11.8,2.166-.3.528-.542.95-.634,1.116-12.74,0-25.142.009-37.542-.027-.412,0-.822-.421-1.222-.64-.626.318-1.25.638-1.637.836l-11.963-1.313c1-.872,1.852-1.611,3.091-2.687l16.941,1.843,1.69-1.294,9.41,1.334c1.131-.3,2.1-.554,2.985-.786.884.45,1.51.771,1.958,1,1.9-.574,3.75-1.135,5.121-1.548Zm-43.091-.622c.141.832.265,1.568.465,2.735l-4.684-.666a45.89,45.89,0,0,1-14.557.08,9.007,9.007,0,0,0-2.225-.36c-6.8,1.558-13.529-.85-20.265-.027-1.811.222-3.577.518-5.773.839-1.233-.51-2.682-1.113-4.39-1.822l-2.96.849-1.466-.583c-3.513.314-7,.624-10.2.908-1.41-.678-2.423-1.166-3.268-1.571-2.183.192-4.242.312-6.22.568a29.435,29.435,0,0,1-5.538.12c-7.145-.352-14.418-.158-21.64-.1a5.677,5.677,0,0,0-1.9.767l-1.8-.8.188-.525c-.28-.1-.965-.345-11.023.006-2.541.22-4.288.388-5.5.523q-1.267.033-2.535.045c1.312-.1,3.674-.27,8.036-.568,2.719-1.213-3.5-.33-9.438.43-2.472.316-1.9-.575-3.787-.283-.022.136-.045.3-.069.458-1.23.087-2.59.238-4.322.36-.316-.21-1.28-.85-1.6-1.061a83.235,83.235,0,0,0-10.357-.14,26.543,26.543,0,0,0-6.194-.382,17.416,17.416,0,0,1-2-.468,3.612,3.612,0,0,1-1.635.735l-4.173-1.785c-.9.269-1.565.469-2.706.812v-1.5c1.022,0,2.021-.027,3-.049l.014.009q2.462.147,4.93.094a11.193,11.193,0,0,0,3.09-.156c1.043-.08,2.06-.205,3.07-.345a4.235,4.235,0,0,1,1.247.2c3.276,1.126,4.164-1.1,6.506-.514l2.312.74a4.476,4.476,0,0,1,1.062-.462,90.037,90.037,0,0,0,14.24,1.4c5.852.122,11.958-.874,17.557.7,3.121-1.424,6.979-.592,10.492-.712,2.415-.083,5.054-.423,7.13.765s3.734-1.364,6.645-.258c1.187.448,4.435-.482,6.754-.5,2.094-.014,4.2.36,7.245.65.07-.023.943-.321,2.127-.728,2-.276,4.311,1.94,6.756.111,1.8,1.5,5.258.32,7.757,1.086,1.757.538,4.781-.794,6.793.63.788-.269,1.413-.512,2.1-.7a4.627,4.627,0,0,1,1.454-.246c1.9.883,3.787,0,5.524.073a52.5,52.5,0,0,1,7.56,1.375,4.946,4.946,0,0,1,5.386.316c4.237-1.17,8.67-1.64,12.755-.031l3.2-1c1.153.3,2.325.6,3.856,1,.757-.265,1.621-.57,2.964-1.043ZM1162.5,812.127c-.123.3-.223.544-.323.786-.69.126-1.414.26-2.207.408h2.038l-.208.51q-2.65-.308-5.3-.622l.248-1.082Zm-11.345-.04h.59v.906h-.59Zm-7.522-.843,1.53.1c-.23.49-.46.984-.688,1.474-.25-.02-.5-.04-.748-.062l-.094-.07Zm-82.154,15.663c.984.348,1.969.694,3.821,1.346l-4.468.362-.532-1.2C1060.7,827.249,1061.087,827.077,1061.481,826.907Zm-6.073.708.774,1.254-1.722.084v-1.28C1054.776,827.653,1055.092,827.633,1055.408,827.615Zm-7.068.96h1.992v.256h-1.992Zm-57.566,4.4.783,1.5-6,.462c2.584-.972,3.647-1.37,5.217-1.96Zm-34.33,4.822h.664v.772h-.664Zm-15.487,3.3h1.991v.256h-1.991Zm-1.4-1.115h.664v.77h-.664Zm-15.779-1.39c2.829-.533,5.823-.153,9,.2l-6.243,1.232c-.928-.482-1.681-.87-2.757-1.428Zm-34.112.077h1.992v.256h-1.992Zm-18.288,3.839c.186.394.353.736.545,1.136-2.563.6-4.156.586-3.988-1.136Zm-7.69-3.885c1.715-.036,2.645-.051,4-.08-.86.869-1.6,1.614-2.976,3-.453-1.3-.718-2.055-1.023-2.92Zm-20.1,5.062h.666v.772h-.666Zm-18.757.329c-.27.08-.535.162-.8.242l-1.2-1.57h2Zm-27.016-2.722.754,1.935q-.882.035-1.766.065v-1.962l1.012-.038Zm-19,2.714c-1.282.676-1.825,1.26-2.716,1.374-2.166.274-5.033-.462-7.283.542v-1.916Zm-45.943-2.911c1.893,1.562-.593,2.884-2.258,4.265l-2.918-.787c-1.464.33-2.753.625-3.43.777-2.656-1.028-5.082-1.966-7.713-2.982l12.15-2.008ZM704.5,842.6h1.992v.256H704.5Zm1.322-7.153.187.666H703.14l-.135-.366Zm-44.265,7.979c.986.073,37.308-1.845,38.849.393-1.625.388-37.416.8-39.167,1.216l-3.753-.878c-.83.732-1.458,1.282-2.254,1.984-1.734-.354-3.336-.683-5.114-1.045-.727.218-1.465.441-2.721.822q-2.992-1.313-5.987-2.623c4.306-.577,7.6-1.016,11.033-1.475v-1.2c2.29-.379,4.685-.774,8.986-1.482l-5.78,3.006c2.143.465,3.69.8,5.908,1.279Zm2.169-7.365c.393.982.937,1.9-3.75,1.026m-4.383-.88,3.359.983-4.717.421-1.132-.273-3.6.552-2.221-.468c-2.329-.228-3.621,1.282-6.717.346-.812-.246-3.58.228-5.475.27-2.527.056-5.074.015-8.134.015.167-.525.282-.881.474-1.48l3.654.6c2.684-.149,4.767-.22,6.764-.393,1.73-.148,3.37-.409,5.585-.687l2.347.656c.81-.22,1.528-.415,2.453-.669l4.857.782Zm-13.057-4.972,7.106,1.454c-4.161.044-6.98,1.2-10.733.312-.881-.207-3.123.565-6.266,1.192,1.01-1.3,1.574-2.03,2.329-3,1.513.422,2.369.662,3.751,1.05Zm-2.951-28.2h1.992v.258h-1.992Zm-8.8,29.217c.386.738.565,1.08.853,1.636h-6C628.034,833.117,629.125,832.771,630.781,832.243Zm-5.75,6.874h-26.96c-1.033.587-2.159,1.227-4.039,2.292v-4c2.019.372,3.584.658,5.313.973,4.12-.762,8.483-1.643,12.905-.01,3.918-1.423,8.365-.516,12.78-.832Zm-2.513-5.866.135.366-2.814.3-.186-.666Zm-15.912-1.036,11,.736-7.428,1.264Zm-5.975,1.647q1.452-.138,2.905-.28l.094.66h-2.884c-.04-.126-.077-.252-.115-.38Zm-6.984-.214,4-.282v2C595.781,834.566,594.935,834.2,593.647,833.648Zm23.752-6.177c-.411.057-.818.123-1.227.183a39.346,39.346,0,0,1,4.147,1.184c-1.736.67-2.886,1.113-3.258,1.258-5.13.232-9.707.015-13.242.714-3.6.715-7.993-.573-10.775,1.045-2-1.554-5.224.107-7.743.173l-.656-.458c-.28.08-.534.155-.8.234a2.544,2.544,0,0,1-.806-.468l-2.713.408c.915-1.254,1.617-2.218,2.267-3.113.794-.062,1.45-.121,1.883-.19,3.693-.576,7.488.648,10.942-.323.368.466.735.926,1.316,1.659,1.512-.99,2.666-1.748,4.193-2.75,1.808.037,4.24.086,7.18.148l-2.442,1.118,2.8,1.167c.962-.307,1.923-.612,3-.954,1.237.357,2.2.638,3.332.966.763-.472,1.523-.945.683-1.737-.276.034-.549.074-.831.091s-.674-.294.373-.447c.012-.19,1.2-.049,2.383.092Zm-33.122-12.557h1.994v.256h-1.994ZM580.3,831.35l-4.654.6a22.361,22.361,0,0,0-6.18-.333c-.854-.618-1.686-1.22-2.728-1.977l-10.808,2.586.2.079-1.893.236-.557-1.3c-1.126,0-2.35,0-3.664-.037.04.01.169.055.3.1l-1.38.576-.627-.221a17.2,17.2,0,0,1,1.709-.456c.089-.2.089-.433.192-.7-.023.013-.153.058-.28.106l-1.621-.492c.209-.075.418-.148.626-.221a9.087,9.087,0,0,1,1.275.607c1.12.024,2.28.03,2.624.031l5.681-1.046-.212-.154c4.523.123,8.995.234,12.926-.795l1,.274-1.858,1.657h5.18v-1.262c1.52-.194,3.2-.33,4.752-.433Zm-17.771-12.061c1.925-.267,3.913-.55,6-.86-.979.65-1.958,1.3-3.022,2q-1.469-.622-2.978-1.14Zm5.038-3.673,3.743,1.016m-20.275-11.387H552v.256h-.96Zm-.7.07h.368v.256h-.368Zm-5.205-.906h.664v.77h-.664Zm11.53,34.046-.88.224c-.274-.266-.546-.53-.812-.784.108-.064.2-.114.3-.18l1.388-.088Zm-17.674,1.532a45.68,45.68,0,0,0,11.357-.52,6.107,6.107,0,0,1,1.109.476l1.32-.816c2.215-.146,4.84.186,5.907,1.54-6.236.181-12.07,1.418-18.494,1a8.64,8.64,0,0,0-1.886.054,105.381,105.381,0,0,1-14.565,1.454c-.36-.076-.72-.155-1.09-.233-.323.095-.63.183-.945.274-1.422.017-2.846.027-4.282-.014-.589-.017-1.115.023-1.648.054-2.16-.323-4.387-.653-6.812-1.013-.34.073-1.142.24-2.1.442l-17.84-.991,2.847-1.49c-4.165.443-7.715.819-11.256,1.192-3.741-.532-7.49-1.07-11.2-1.6l-1.47.553q-.924,0-1.846-.072c1.061-.184,2.137-.37,3.269-.568l-4.3-1.4c-1.465.48-3.143.811-3.578,1.4q-1.038-.16-2.08-.3c.018-.027.031-.052.049-.079h-.728a21.61,21.61,0,0,0-5.428,0h-1.017l.338.112c-.32.055-.63.084-.96.16-2.444-.36-5.165-.764-7.951-1.175-2.408,2.087-7.275-1.522-9.94.5-2.76-1.567-7.119-.318-10.7-1.012-3.505-.68-8.053-.469-13.146-.692l-3.237-1.223a40.716,40.716,0,0,1,4.118-1.148c-.407-.058-.81-.122-1.219-.178,1.175-.136,2.355-.272,2.366-.089,1.04.151.652.45.371.434s-.551-.056-.826-.087c-.832.767-.078,1.225.679,1.684l3.31-.938c1.069.333,2.022.628,2.98.925.889-.361,1.809-.737,2.776-1.131l-2.425-1.083c2.92-.06,5.336-.107,7.132-.144,1.514.97,2.66,1.706,4.163,2.668l1.306-1.61c3.43.943,7.2-.247,10.865.313,1.737.267,7.055.405,10.685,1.085l3.057-.953c7.647,2.3,17.386-.43,25.467,1.647a25.609,25.609,0,0,0,4.815.041c3.9,0,8.448-.512,11.542.132.11.02.2.027.31.048l-4.3.285,3.679,3.1c1.237-.227,1.993-.367,2.24-.41l-1.364-2.08c4.136.295,7.442.52,10.728.788.265.02.379.343.861.82H502.1c1.326.73,2.24,1.231,3.013,1.655,4.978-.954,9.32-1.684,13.793-.192a5.637,5.637,0,0,1,1.289-.459c3.143-.458,6.811-.134,9.646-1.072,3.037,1.279,5.97-.262,9.145-.078Zm-2.428-33.766h1.991v.258H536.56Zm-3.76-1.5c.508.26.938.484,1.392.718-.376.3-.826.658-1.392,1.11Zm-4.977,29.21a7.607,7.607,0,0,1,1.644.173c-1.018.05-2.011.1-3,.148.374-.09.843-.2,1.356-.322Zm-7.551,5.541c.366.048.748.1,1.126.146v.058l-.98.054Zm1.207-5.423,4,.476-4,.234Zm-5.979.972v-.258h1.992v.142l-.816.116Zm-3.717,3.878h4v.386h-4Zm-8.55-18.222c.317.058.493.118.493.178a3.92,3.92,0,0,0-.494-.082Zm-2.749.14c.78.057,1.454.117,2,.177h-1.922l-.078-.176ZM516.222,819c2.889.05,5.678.12,8.166.218a3.468,3.468,0,0,0-1.09.735c-1.846-.05-3.833-.1-5.885-.145.178.05.358.1.528.149l-.606.215q-.468-.192-.933-.387c-5.8-.133-11.974-.264-16.747-.4l-.266-.5c2.36-.007,5.07-.005,7.92.01.218-.017.436-.037.651-.054l.022.058c1.473.01,2.976.023,4.483.04.046-.25.095-.5.145-.77,1.4.32,2.535.58,3.612.828Zm-6.79-9.087h.665v.77h-.664ZM493.4,819.238c.564-.008,1.206-.016,1.914-.022-.338.114-.7.236-1.062.358-.3-.012-.59-.026-.852-.038Zm-1.342,8.715c-.642-1.162,1.047-.988,2.861-.842l-.267.194-1.117-.282C493.035,827.341,492.551,827.647,492.063,827.953Zm-2.323-17.59h4v.386h-4Zm-.069,4c-.512-.4-.984-.764-1.43-1.106.464-.032.966-.078,1.43-.1Zm-.573-2.49c-.2.014-.384.026-.562.04l.562-.292Zm-6.829,2.179h1.4v.258h-1.4Zm-3.2,13.008q1.408.147,2.812.3l-.135.368h-2.864c.062-.222.123-.446.187-.666Zm-4.485-13.705h.664v.772h-.664Zm-.81,13.936c.041.236.085.474.131.744-1.66.044-2.885.078-4.3,0,.133.05.271.1.4.152l-1.445.63-.657-.244a8.456,8.456,0,0,1,1.892-.43c-.346-.138-.694-.274-1.04-.41.332-.08.663-.158,1-.24,1.338-.07,2.675-.14,4.019-.206ZM467.87,813.03h1.992v.256H467.87Zm-7.935,15.414c.7-.062,1.36-.12,1.991-.178.062.248-.2.562-1,.966C460.585,828.96,460.26,828.7,459.935,828.444Zm-1.414-4.9,1.07.422c.062.508-.714.486-4,.372Zm-16.527-.576-.4.256h-.6v-.256h.52l.136.044c.04-.014.076-.03.116-.044ZM419.64,811.39h1.992v.258H419.64ZM403.7,841.7l.135-.366H406.7c-.06.222-.123.444-.186.666Zm16.047-.663c-1.308.73-2.3,1.286-3.572,2l-7.427-1.266,11-.734Zm7.043,1.18c-.04.126-.077.252-.117.38h-2.883c.033-.22.064-.44.1-.66q1.449.138,2.9.28Zm6.984-1.12-4,1.716v-2l4,.285Zm-31.685,3.847c4.416.316,8.862-.591,12.78.832,4.421-1.632,8.783-.755,12.9.013,1.729-.318,3.292-.6,5.316-.974v4c-1.884-1.068-3.009-1.7-4.04-2.291H402.091Zm-5.59-4.64c1.66.528,2.75.874,5.147,1.638h-6ZM392.246,839c.755.97,1.32,1.7,2.33,3-3.144-.626-5.386-1.4-6.267-1.192-3.753.884-6.572-.266-10.733-.31l7.106-1.456,3.815,1.009c1.38-.388,2.236-.627,3.75-1.05Zm-20.99,5.293,2.5.652c1.665-.266,3.266-.525,4.86-.781l2.451.67c.618-.175,1.294-.363,2.348-.657,2.216.28,3.853.54,5.585.688,2,.17,4.078.242,6.761.392.389-.063,1.7-.278,3.657-.6l.473,1.478c-3.062,0-5.608.042-8.137-.015-1.892-.043-4.66-.515-5.473-.27-3.1.937-4.388-.574-6.716-.345l-2.222.466c-1.609-.247-2.7-.412-3.6-.55l-1.134.274-4.716-.422c1.692-.5,2.564-.752,3.359-.984Zm-4.453.538c-1.368-.372-2.451-.67-3.75-1.026m-2.814,7.829c1.546-2.24,3.8-.323,4.792-.393,2.223-.481,3.776-.816,5.924-1.278l-5.8-3.008,9.013,1.482v1.2l11.068,1.475-6.006,2.621c-1.259-.379-2-.6-2.728-.822-1.785.364-3.392.691-5.129,1.047-.8-.7-1.427-1.253-2.263-1.986l-3.762.88-5.111-1.215Zm13.41,5.451c-.209-.082-.42-.162-.628-.244a2.671,2.671,0,0,1,1.34-.08l-.713.324Zm2.952-.063q-.977-.388-1.958-.772c1.41-.475,2.82-.95,5.034-1.693.543.844.665,1.3,1.145,1.693a9.655,9.655,0,0,0,1.821.843c-1.227.49-1.92.763-6.042-.071Zm9.129-1.88-3.206-.266a13.529,13.529,0,0,1,3.7-1.716.074.074,0,0,0,0-.018c.1,0,.2,0,.3,0C386.268,853.786,386.013,854.429,385.73,855.142Zm4.644-3.887-.281,1.312c-1.1.034-2.144.062-3.719.074l.31-1.546,3.69.16Zm48.249-10.444-.772,1.256-.95-.06v-1.28l1.722.084Zm14.245,1.13-.444,1.02c-.872-.349-1.855-.743-2.556-1.02Zm7.263,3.393q-1.3.825-2.6,1.653c-.467-.118-.935-.237-1.4-.357a5.907,5.907,0,0,1,1.113-.984,12.835,12.835,0,0,1,1.788-.659Zm5.314.314c-.218.03-.446.046-.664.078v-.454h.664Zm.775,3.9c-10.412-.323-20.676-.642-32-.992l3.117-2.595c.8-.136,1.6-.277,2.4-.413l1.839,1.971,2.194-.783c1.35.452,2.7.906,5.223,1.753.812-.622,1.628-1.245,2.957-2.26.495.89.674,1.208.9,1.613,2.9.24,6.027.5,8.46.7,1.22-.13,2.2-.237,3.222-.344.487.067.984.126,1.435.188l.255-.086Zm12.6-4.41h.662v.773h-.662Zm12.443,1.347h1.992v.256H491.26Zm14.177-.516,1.708.042-.728,1.288-.98-.052Zm5.906.981h4v.386h-4Zm50.128-9.6h.664v.772h-.664Zm9.384,1.54-1.4.355q-1.3-.825-2.6-1.651.549-.176,1.1-.349a12.665,12.665,0,0,1,1.788.66,5.94,5.94,0,0,1,1.113.985Zm6.7-5.46c-.428.172-.963.386-1.515.6l-1.248-.06c-.068-.154-.14-.322-.236-.544Zm11.9,1.038c-.315.02-.63.04-.947.058l-.774-1.254,1.72-.084Zm-28.551,5.171h4.512l.4.042c.16-.013.345-.03.513-.042h2.98c.026-.086.047-.17.073-.255,1.6-.131,3.272-.271,4.892-.406.225-.405.405-.723.9-1.61,1.325,1.014,2.143,1.635,2.957,2.258l5.22-1.754,2.194.785,1.839-1.972,2.4.415,3.116,2.592c-11.322.351-21.584.668-32,.993Zm76.824,5.4-.281-1.314,3.69-.158.31,1.546q-1.86-.015-3.719-.074Zm3.649,2.087c-.287-.714-.543-1.355-.8-2l.3,0,.006.017a13.584,13.584,0,0,1,3.7,1.718l-3.2.265Zm9.4,2.04c-4.123.835-4.817.562-6.042.072a9.772,9.772,0,0,0,1.82-.842c.48-.388.6-.848,1.147-1.694,2.21.745,3.623,1.218,5.033,1.692l-1.958.773Zm3.09.363c-.234-.108-.47-.214-.708-.322a2.7,2.7,0,0,1,1.336.078C654.292,849.361,654.082,849.441,653.872,849.523ZM355.94,843.686q1.408.153,2.812.3l-.135.366h-2.865Zm-.692,7.293h1.992v.256h-1.992Zm-23.206-2.438c4.257.705,8.614,1.423,12.148,2.006l-7.713,2.982-3.43-.775c-1.013.272-1.964.528-2.916.787-1.666-1.38-4.152-2.7-2.261-4.266l4.172-.734Zm-39.836,5.346c-2.25-1.006-5.117-.27-7.281-.544-.893-.112-1.436-.7-2.718-1.374h10Zm-27.34-2.345-1.763-.067q.378-.965.754-1.933l1.01.04Zm-26.884-.9c-.31.405-.752.989-1.2,1.57-.27-.081-.537-.161-.8-.243v-1.326Zm-21.352.8h.664v.772h-.664Zm-24-5.066,4,.079c-.3.865-.57,1.622-1.024,2.921Zm.241,4.525c.17,1.72-1.425,1.732-3.987,1.134l.543-1.134Zm-23.352-3.973h1.992v.256h-1.992Zm-41.12-.634c3.177-.35,6.171-.728,9-.2-1.076.558-1.827.948-2.757,1.428C132.479,847.1,130.441,846.693,128.4,846.291Zm-7.234,1.8h.664v.771h-.664Zm-2.59,1.394h1.993v.256h-1.992Zm-14.647-4.2h.664v.772h-.664Zm-34.226-4.347,5.219,1.96-6-.462c.266-.506.442-.846.781-1.5Zm-58.258-4.01h1.992v.255H11.447Zm-4.2.217-1.722-.084.776-1.254c.314.02.63.038.946.06ZM43.723,849.3c.232.083.462.163.694.245a7.309,7.309,0,0,1-2.2.376c.144.048.287.1.431.15l-1.537.63-.694-.242a7.25,7.25,0,0,1,2.2-.378l-.43-.15Zm-8.786.418h.995v1.542h-.995Zm-8.485.705c1.361.25,2.68.5,4,.74q-.34.186-.682.368H26.452Zm-5.315.657H21.8v.772h-.664Zm-5.223-1.034h1v1.542h-1Zm-8.554.069h4v.386h-4Zm1011.59-8.2q.216-.072.432-.15a7.246,7.246,0,0,1-2.2-.376l.693-.242,1.538.63-.431.15a7.234,7.234,0,0,1,2.2.376c-.23.082-.463.162-.693.242-.514-.21-1.025-.418-1.538-.63Zm5.789-.26h1v1.541h-1Zm6.231,1.834-.68-.368,4-.742v1.11Zm8.04-.431h.663v.772h-.664Zm5.819-.8h1v1.542h-1Zm5.48.09h4v.386h-4Zm30.7-.973-1.532-.092.69-1.482c.282.024.562.048.842.07ZM646.3,65.767l-1.925.117m816.584-48.529-.07-.032,0,.068.066-.036Zm-32.972-6.9c1.108-1.692,4.3-1.378,7.476-1.676l.559,1.89-6,1.47-2.039-1.684Zm-6.641.995-4.065,1.42c-.7-.239-1.358-.46-2.043-.695l-3.474,1.227-3.845-2.738c3.984.1,6.753.273,9.547.213,2.753-.06,5.529-.358,9.47-.633-1.642,1.043-2.22,1.409-3.1,1.973-.678-.208-1.432-.442-2.486-.767Zm-18.527.35c-.492.758-.9,1.393-1.318,2.03-3.184,1.1-2.52-.774-3.6-1.305l-2.622,1.043-3.575-.823-3.526,1.4-2.284-.752c-1.75.778-3.4,1.51-5.725,2.54l-.22-3.166c2.978.345,4.938-1.6,8.242-.764,2.122.536,5.541-.17,8.345-.482,2.34-.26,4.633-.753,7.807-1.289,1.04.272,3.26.537,2.42,2.382l-3.947-.817Zm-26.713,3.109,1.767-.124.021.3-1.767.124Zm-6.432.656.589-.041.063.906-.589.04Zm-16.317,1.408c-1.587-.6-3.21-1.21-5.492-2.07,3.482-.243,7.29-1.132,9.434-.514,3.175.917,4.868-1.45,7.754-.511l2.1,4.45c-3.934-.484-8.267-.29-11.608-2.426l-2.186,1.07ZM1339.6,19.1c-.268-.83-.665-1.344-.559-1.857.374-1.821,2.762-2.366,6.41-2.412.173,1.01.359,2.076.68,3.91-1.516-.6-2.095-.835-2.636-1.05l-3.9,1.41Zm-8.567-.352c-2.007,1.96-6.041-.977-7.685,1.555l-4.43-2.642,18.63-1.3c-.064-.029.372.121.335.17-.745.968-1.548,1.925-2.418,2.98a35.988,35.988,0,0,0-4.432-.76Zm-18.716.292-1.69,2.452-1.766-.413c-.273-.72-.548-1.441-.9-2.351l-3.822.092c-1.57.91-3.432,1.99-4.49,2.6l-6.17,1.376c-.8-.433-2.01-1.095-3.455-1.885,6.159-.97,11.966-3.075,18.573-3.116,3.314-.021,6.507.6,11.36,1.1-2.389.643-3.585.967-4.807,1.3-.187-.078-1.225-.5-2.837-1.156Zm-41.271,4.185c-.43.26-1.033.623-1.884,1.134-.9-.169-1.883-.358-3.032-.575-2.7.577-5.671,1.214-9.294,1.986-.56-.368-1.578-1.04-1.777-1.172-6.3,1.135-11.55,2.081-16.772,3.02-1.31-.987-2.211-1.665-3.27-2.465,4.227-.764,7.915-1.432,11.843-2.144.4.17,1.044.447,1.69.72.385-.246.764-.695,1.175-.724,12.368-.9,24.741-1.757,37.45-2.646.1.16.373.563.71,1.07l-11.622,2.983c-1.4-.316-3.28-.746-5.217-1.187Zm-40.757,3.98c-1.5.5-2.648.888-3.778,1.266l-3.26-.772c-3.964,1.89-8.419,1.73-12.727.86a4.948,4.948,0,0,1-5.352.69,52.435,52.435,0,0,1-7.445,1.9c-1.728.195-3.67-.556-5.506.457a4.646,4.646,0,0,1-1.468-.143c-.7-.144-1.339-.343-2.144-.557-1.907,1.561-5.018.444-6.732,1.1-2.44.939-5.973,0-7.663,1.624-2.075-1.337-3.877-.042-5.557.43l-1.42.087c-1.084-.29-1.862-.495-1.928-.513-2.154.359-3.829.727-5.372.956l-3.294.2c-2.068-.09-4.367-.453-5.289-.029-2.827,1.306-4.668-1.117-6.647.206a5.846,5.846,0,0,1-1.233.622l-15.44.937a7.893,7.893,0,0,1-.9-.277q-.63.225-1.272.409l-50.424,3.06,1.6-.824a3.615,3.615,0,0,1,1.682.62,17.375,17.375,0,0,1,1.958-.606,26.593,26.593,0,0,0,6.154-.813,83.435,83.435,0,0,0,10.322-.862c.3-.232,1.221-.94,1.522-1.17,1.737,0,3.1.056,4.337.058l.1.451c1.906.16,1.271-.69,3.76-.547,5.978.345,12.241.792,9.444-.229-4.372.008-6.74,0-8.056-.006q1.265-.075,2.532-.132c1.22.05,2.974.1,5.524.138,10.059-.352,10.724-.644,11-.763l-.224-.51,1.737-.92a5.652,5.652,0,0,0,1.951.632c7.209-.447,14.478-.76,21.582-1.61a29.4,29.4,0,0,1,5.533-.267c1.99.117,4.053.093,6.245.133l3.15-1.8c3.206.06,6.709.126,10.235.194l1.422-.684c1.131.24,2.065.44,3.013.64,1.654-.826,3.057-1.528,4.251-2.123,2.213.167,4,.34,5.818.434,6.777.35,13.327-2.521,20.214-1.44a9.035,9.035,0,0,0,2.195-.515,45.873,45.873,0,0,1,14.528-.936l4.626-.991c-.118,1.179-.19,1.92-.273,2.76l-3.03-.833ZM987.939,40.227l6.018.042-.677,1.55Zm-29.3-1.593.662-.047.054.77-.662.047ZM943,36.937l1.988-.139.018.256-1.988.139Zm-1.355.7.662-.047.054.768-.662.047ZM928.7,39.272l6.314.794c-3.144.57-6.1,1.159-8.964.823,1.034-.631,1.758-1.071,2.65-1.617ZM892,42.937l1.988-.139.018.256-1.988.139ZM870.07,40.88c-.288-1.706,1.3-1.83,3.9-1.411-.164.412-.306.765-.464,1.17Zm-3.148,1.188c1.468,1.286,2.26,1.978,3.179,2.785-1.355.066-2.284.115-4,.2.244-.884.455-1.657.817-2.983Zm-21.28-1.433.664-.047.054.77-.664.047ZM827.053,43.71l-1.995.14,1.084-1.65c.274.06.545.124.819.185Zm-27.866,3.307-.137-1.956L800.817,45l-.618,1.983-1.012.032ZM771.08,46.3l-.134-1.911c2.315.844,5.125-.09,7.3.032.9.052,1.48.6,2.806,1.181Zm-39.762,6.435c-4.3-.4-8.693-.82-12.262-1.155l7.488-3.514,3.475.537c.992-.345,1.923-.667,2.856-.99,1.757,1.262,4.33,2.407,2.55,4.1-1.593.4-2.935.732-4.107,1.024Zm-24.32-.8,1.988-.139.017.256-1.987.139Zm-.991,7.2.11-.375,2.857-.2-.14.678-2.827-.1Zm-47.693-3.08c1.676.727,3.13,1.358,5.976,2.6-4.341-.406-6.757-.634-9.068-.852l-.084-1.194-11.11-.7,5.79-3.036c1.28.293,2.031.464,2.772.63,1.749-.485,3.324-.924,5.029-1.4.843.644,1.507,1.149,2.387,1.822,1.374-.426,2.615-.81,3.683-1.139,1.776.294,37.51-1.792,39.158-1.519-1.381,2.34-37.75,2.961-38.729,3.1-2.179.632-3.7,1.074-5.8,1.687Zm4.668,4.746c4.616-1.2,4.137-.246,3.814.761m-10.669-.054-4.791,1.119-2.495-.5-2.295.818c-2.23-.123-3.883-.268-5.619-.3-2.005-.032-4.088.042-6.775.08l-3.6.85c-.234-.583-.373-.93-.576-1.443,3.053-.213,5.59-.432,8.115-.552,1.893-.09,4.688.19,5.481-.113,3.023-1.15,4.418.266,6.725-.123l2.184-.621,3.632.3,1.11-.351,4.735.091-3.282,1.215C657.729,61.806,656.992,61.669,656.127,61.506Zm-16.482,4.665-3.045.185-.683-.764c1.442.184,2.7.411,3.728.579Zm-4.925.3-4.345.263-1.424-.344,5.986-.419-.217.5Zm-6.626-3.691c-4.427-.007-8.8,1.207-12.81.062-4.3,1.937-8.71,1.363-12.873.89-1.7.435-3.245.83-5.233,1.34l-.279-3.99c1.95.932,3.117,1.492,4.19,2.005l26.9-1.88ZM625.954,67l-2.873.174.086-.421,2.828.1-.042.144Zm-8.534.518-4.962.3,1.05-.688Zm-13.323.243,2.877-.2-.043.594-.806.05q-1.059-.03-2.117-.056c.03-.13.057-.259.089-.387Zm-3.055.75-3.777.23c1.134-.585,1.959-1.01,3.661-1.885Zm-41.16-1.052c-.531,0-1.008.006-1.391.01-.112-.06-.2-.1-.316-.16.248-.271.5-.553.755-.838.3.053.595.109.894.162ZM532.954,66.9c-2.893-.737-6.53-.158-9.7-.4a5.516,5.516,0,0,1-1.318-.368c-4.358,1.8-8.74,1.376-13.773.77l-2.89,1.862,7.887-.552c-.448.51-.54.84-.8.878-3.26.5-6.542.952-10.647,1.536l1.215-2.17c-.25-.027-1.013-.114-2.264-.254l-3.452,3.351c1.574,0,2.894-.01,4.305-.015-.1.028-.2.04-.306.069-3.041.859-7.612.665-11.505.937a25.7,25.7,0,0,0-4.8.377c-7.917,2.635-17.823.594-25.292,3.42-1.3-.308-2.274-.54-3.115-.738-3.574.931-8.87,1.44-10.584,1.828-3.619.814-7.462-.11-10.817,1.07-.4-.425-.79-.847-1.416-1.515l-2.458,1.829-6.615.4.325-.173-2.848-.936-2.909,1.131-3.367-.705c-.56.395-1.116.789-.933,1.274l-2.644.16q-.933-.2-1.856-.437l3.144-1.445c5.065-.578,9.617-.685,13.067-1.608,3.521-.942,7.957,0,10.6-1.756,2.8,1.836,7.4-2.1,9.95-.19l7.85-1.727c.335.053.646.06.97.093l-.33.135,1.014-.07a21.591,21.591,0,0,0,5.416-.38l.726-.05c-.02-.026-.035-.05-.054-.075q1.029-.209,2.053-.442c.476.561,2.173.774,3.668,1.152l4.191-1.7c-1.143-.12-2.229-.23-3.3-.339.6-.083,1.206-.159,1.836-.2.027.007.72.215,1.505.449,3.666-.789,7.369-1.586,11.064-2.378,3.559.125,7.126.253,11.312.4-1.128-.492-2.074-.907-2.944-1.287l17.728-2.233c.967.135,1.78.246,2.123.294,2.394-.527,4.592-1.012,6.725-1.485.534-.006,1.061,0,1.647-.061,1.43-.141,2.852-.23,4.272-.313.32.069.633.136.96.208.365-.1.72-.208,1.073-.309a105.392,105.392,0,0,1,14.631.435,8.626,8.626,0,0,0,1.885-.078c6.38-.865,12.286-.037,18.52-.291-.97,1.424-3.565,1.939-5.785,1.947l-1.374-.722a6.19,6.19,0,0,1-1.073.554,45.628,45.628,0,0,0-11.367.273c-3.153.4-6.187-.928-9.128.56Zm-9.379,1,.981-.015,0,.058c-.373.074-.75.151-1.113.224Zm4.25,5.06-2.82.172-.025-.347,4.007-.046-1.162.222Zm-7.654-.1.822.059.01.142-1.988.139L519,72.936Zm-5.18-3.912,3.99-.279.028.385-3.99.28Zm-105.2,4.63.232.651-2.858.2-.16-.356,2.786-.5Zm2.244.072c2.375-.579,4.281-1.041,7.32-1.78,1.324.622,2.348,1.107,3.7,1.745-4.066.014-7.177.023-11.024.035Zm15.092-1.222-.143-.651,2.876-.2c.049.125.094.248.143.37q-1.44.243-2.876.482Zm5.95.71-.139-2,4.11,1.433-3.97.563Zm-28.016-3.765,26.894-1.88c.988-.658,2.066-1.37,3.87-2.568l.28,3.99c-2.046-.227-3.625-.4-5.372-.6-4.056,1.053-8.346,2.232-12.87.913-3.81,1.693-8.31,1.1-12.692,1.721Zm-6.108,5.02,5.986-.418c-2.339.93-3.4,1.35-5.02,1.993-.437-.709-.637-1.04-.966-1.574Zm-7,2.388-3.735,1.272-7.191-.956c4.148-.335,6.88-1.679,10.685-1.059.894.145,3.077-.781,6.169-1.626-.917,1.37-1.43,2.135-2.115,3.155-1.539-.317-2.409-.5-3.813-.786ZM371.031,73c1.273-.2,2.464-.395,4.676-.75l1.15.2,3.554-.8,2.248.31c2.34.066,3.523-1.532,6.676-.813.828.188,3.557-.477,5.442-.651,2.518-.233,5.062-.369,8.116-.582l-.37,1.507c-1.979-.181-3.3-.3-3.689-.34-2.666.337-4.737.554-6.718.863-1.717.27-3.332.643-5.523,1.076-1.072-.22-1.76-.36-2.388-.492-.793.279-1.495.523-2.4.84l-4.9-.44-2.453.825c-.81-.176-1.7-.37-3.42-.748ZM366.3,74.8c1.272-.445,2.332-.818,3.67-1.285m-2.009-7.9c1.105.18,2.391.386,3.815.616L373.9,64.1c1.756.234,3.382.448,5.189.687.712-.27,1.434-.545,2.664-1.01l6.174,2.194c-4.27.877-7.535,1.548-10.938,2.245l.083,1.194-8.888,2.107,5.574-3.4c-2.175-.311-3.748-.537-6-.862-.992,0-3.11,2.069-4.809-.058l5.014-1.569Zm8.716-4.53a2.678,2.678,0,0,1-1.342.013c.2-.1.408-.19.61-.287l.732.273Zm8.24-.91a9.724,9.724,0,0,0-1.758.968,6.765,6.765,0,0,0-1.024,1.77L377,61.581q.951-.451,1.9-.906c4.054-1.12,4.765-.9,6.023-.492Zm4.147,3.668c-.1.009-.2.017-.3.024a.043.043,0,0,0-.006-.017,13.572,13.572,0,0,1-3.807-1.455l3.18-.488.93,1.936Zm.3,2.035-.416-1.521c1.572-.1,2.618-.143,3.715-.186l.372,1.29-3.67.417Zm50.82,6.839-.088-1.277.943-.126c.285.4.571.8.858,1.2l-1.712.2Zm12.852-2.115c.68-.326,1.633-.788,2.479-1.2l.514.987Zm8.93-3.679a12.845,12.845,0,0,1-1.83-.532,5.836,5.836,0,0,1-1.179-.9c.454-.152.912-.3,1.37-.453l2.71,1.467c-.357.14-.714.283-1.072.423Zm6.378-.731-.662.046-.032-.453c.22.017.448.017.668.032Zm.561-3.073c-.092-.025-.163-.044-.26-.068-.445.093-.937.186-1.418.287-1.022-.036-2.013-.072-3.24-.118-2.411.373-5.508.849-8.388,1.292-.2.419-.355.75-.786,1.671-1.4-.92-2.254-1.484-3.108-2.048-2.458,1.022-3.773,1.568-5.089,2.113l-2.243-.628-1.7,2.1c-.806-.08-1.612-.165-2.42-.245l-3.29-2.372,31.853-3.22Zm12.735,1.507.66-.046.054.77-.66.047ZM494,62.937l1.987-.139.018.256-1.988.139ZM508.1,61.444l.974-.12.816,1.233-1.7.161Zm5.886-.5,3.99-.279.028.385-3.99.28Zm50.65,5.692.663-.047.054.77-.662.047Zm8.268-.362a12.566,12.566,0,0,1-1.738.784l-1.12-.271q1.239-.915,2.482-1.83c.47.087.945.172,1.417.258a5.952,5.952,0,0,1-1.041,1.06ZM579.8,69.8l-1.6.1.02-.057,1.241-.147.338.107Zm13.062-.792-1.394.084.4-.76c.316,0,.633-.006.947-.008ZM563.9,64.116l31.992-1.241-2.928,2.8-2.363.581-1.972-1.84c-1.166.511-1.612.709-2.134.937l-5.33-1.386c-.768.678-1.541,1.355-2.792,2.46-.56-.85-.76-1.156-1.013-1.544l-4.909-.064c-.032-.083-.059-.165-.09-.249l-2.974.208-.514-.006c-.143.024-.262.046-.4.07l-4.5.314Zm80.042-10.031-.2,1.564-3.693.1c.074-.521.121-.861.189-1.331q1.85-.189,3.7-.333Zm3-1.962a13.6,13.6,0,0,1-3.566,1.972l-.005.017c-.1.007-.2.012-.3.017.21-.657.42-1.315.657-2.047l3.213.041Zm8.033-2.1c-1.374.572-2.75,1.142-4.9,2.04-.6-.806-.757-1.257-1.263-1.61a9.716,9.716,0,0,0-1.874-.714c1.188-.573,1.862-.894,6.033-.35Q653.976,49.708,654.978,50.024Zm1.694-1.011a2.706,2.706,0,0,1-1.327.171c.23-.124.457-.246.683-.37l.644.2ZM358.98,74.768l2.857-.2.16.356q-1.391.245-2.784.5l-.234-.651ZM358,67.938l1.987-.14.018.256-1.988.139ZM330.82,71.8c-1.995-1.427.392-2.92,1.959-4.414q1.482.293,2.964.582l3.366-1.013,7.9,2.437c-3.485.828-7.782,1.849-11.98,2.849-1.2-.126-2.579-.271-4.213-.441Zm-35.766-.2-9.976.7c1.232-.764,1.733-1.386,2.616-1.56,2.14-.425,5.051.11,7.226-1.051Zm-27.108,4.288L266.941,76q-.441-.939-.887-1.876l1.755-.19Zm-28.89.957-.092-1.322.785-.3c.483.55.965,1.1,1.3,1.483Zm-19.415-.214.662-.047.054.77-.662.047Zm-20.771,4.3c.543,1.265.862,2,1.224,2.843l-3.984.357,2.76-3.2ZM192.6,79.84l-.621-1.093c2.514-.776,4.107-.875,4.057.853Zm-19.6,5.1,1.987-.139.018.256-1.988.139ZM138.18,87.03c.961.414,1.738.75,2.85,1.232-2.785.728-5.8.56-8.992.432C134.044,88.151,136.048,87.606,138.18,87.03Zm-13.538-.4.662-.047.054.77-.662.047Zm-2.644-.7,1.987-.139.018.256-1.988.139Zm-14.356,4.7.662-.047.054.77-.662.047Zm-34.67,6.054,5.952-.88c-2.51,1.149-3.541,1.622-5.07,2.32-.383-.627-.583-.954-.883-1.44Zm-27.2-5.607.42-.18a7.231,7.231,0,0,1-2.221-.223l.676-.29,1.577.522-.42.18a7.293,7.293,0,0,1,2.22.22c-.225.1-.449.195-.675.293Zm-7.325-.82.994-.07.108,1.539-.994.07Zm-8.483.321,3.31-.231c.237.106.472.212.706.32-1.3.335-2.6.672-3.938,1.017Zm-5.324.052.662-.047.054.77L24.7,91.4Zm-5.193.627.994-.07.108,1.539-.994.07Zm-8.458,1.681,3.99-.279.028.385-3.99.28Zm1011.26-62.735c.235.064.473.127.708.193a7.271,7.271,0,0,1-2.168.529l.44.12c-.5.244-.995.49-1.49.735l-.708-.193a7.265,7.265,0,0,1,2.168-.529q-.219-.063-.44-.12C1021.258,30.695,1021.754,30.452,1022.251,30.207Zm4.194-.946.994-.07.108,1.539-.994.07Zm9.507-.959.078,1.108-4.042-.462.654-.414Zm4.686-.668.662-.047.054.77-.662.047Zm5.807-.373.994-.07.108,1.539-.994.07Zm5.542.681,3.99-.279.028.385-3.99.28Zm30.823.715-.835.129-.792-1.43,1.522-.2ZM10,778.995H0v56.374a.262.262,0,0,1,.043-.013l1.285.5c-.17.339-.336.676-.58,1.172L0,836.975v7.537c7.13-.237,14.493.769,21.4-.6,4.977,1.594,11.952-.431,15.913,1.155,4.431-.26,8.073-.477,11.844-.7l1.665,1.857c1.045-.76,1.884-1.373,2.12-1.542,7.621-.111,13.232-1.427,19.28-.862,2.868.264,5.507.9,8.321,1.376.475-.16,1.151-.392,1.82-.62,1,.387,1.918.742,2.473.957l-2.16,2.492c2.128-.725,2.805-.954,4.838-1.648-1.049,1.237-1.615,1.907-1.96,2.315-3.675-.1-6.666-.4-9.429-.214-11.906.826-11.875.87-26.582-.711-1.49-.161-3.126-.106-4.667-.208-4.4-.29-8.661,2.053-13.138.1-4.848-.032-9.695-.079-14.543-.094-4.882-.016-9.875-.244-14.606.084A11.411,11.411,0,0,1,0,847.515v6.126c7.755.092,15.523-.551,23.13.676,1.886-1.245,4.9-.072,7.439-.34,2.9-.309,5.836-.571,9.212-.9l1.946.688a38.119,38.119,0,0,1,19.913-.507l-2.67,1.2c7.515-.347,14.133.52,19.05-.477,7.14-.4,12.065,2.273,18.519.428a10.786,10.786,0,0,1,3.8,0c6.043,1.217,12.5.613,18.762.694a42.538,42.538,0,0,0,8.195-.537c2.77-.487,7.779.929,10.538.439,5.059-.9,10.106-.228,13.985-.669A63.949,63.949,0,0,0,158.575,853l2.111.664,6.546-1.107v-3.24c4.875.14,3.722,1.614,3.938,2.71h3.54v-3.576l8.533-.16c-.63.785-1.035,1.293-1.6,2,1.3.327,3.147.792,5.6,1.41l-5.3,1.472,4.553,2.341c2.31-.823,4.1-1.46,6.9-2.458l1.678,2.07c9.5,0,16.95.1,24.373-.033,4.978-.092,10.269.676,14.924-.624,4.128,1.216,9.762.214,13.9,1.414H275.74a17.6,17.6,0,0,0,2.679,1.041c2.041.492,4.251.875,6.455,1.316l3.961-2.27c4.818-.5,9.024,1.807,13.584.136a21.754,21.754,0,0,0,11.23-.617c-.636-.273-1.275-.547-1.91-.822,1.708-1.355,3.39-2.69,5.751-4.56v3.32c3.777.458,8.148-.42,10.04,1.795-.486.618-1.272,1.61-2.057,2.6,1.875.576,1.936-.367,3.624-.433l10.409,1.517c1.284-.3,2.566-.6,4.212-.982.821.663,1.439,1.165,2.131,1.725l4-1.456c1.245.74,2.5,1.488,3.969,2.364.717-.676,1.174-1.108,1.635-1.539,1.09.512,2.177,1.025,4.19,1.974.708-1.3,1.128-2.076,1.961-3.613l1.74,3.4c2.37-.657,4.11-1.137,6.755-1.869a19.45,19.45,0,0,1,4.508.057,34.988,34.988,0,0,0,11.889,1.647l2.94-1.08c1.043.212,2.108.43,3.74.764l3.778-1.576c-4.141-.6-7.406-1.069-10.756-1.55,2.222-.62,4.344-1.213,6.209-1.732l9.306.6c.9-1.09,1.622-1.951,2.638-3.174h-4.66c-.213.207-.429.415-.643.625-.437-.21-.872-.418-.81-.625h-3.521c-.587.494-1.187,1-1.88,1.588-.636-1.786-.636-1.786,2.17-3.016a27.545,27.545,0,0,1,3.231,1.428h1.454c0-.63,0-1.261,0-1.89,1.611-.622,3.221-1.246,4.108-1.585,8.075.894,16.874-.135,22.97,2.137l4.014-1,3.967.86c1.232-.268,2.543-.55,3.783-.818,4.369.774,4.376.705,11.348.813,2.635.041,5.124,1.128,7.935.157,2.31,1.092,5.458.357,8.178.559,3,.221,6.39-.49,9.094.71.495.22,2.995-.375,4.546-.353,2.78.039,5.57.21,8.308.42,2.37.18,4.655.664,7.005.693,2.672.034,5.375-.29,9.144-.525l12.371,1.445,2.637-1.22c-.423-.54-.486-.933-.79-.962-2.933-.3-5.3-1.1-8.747-1.006a110.392,110.392,0,0,1-20.875-1.406,9.081,9.081,0,0,0-1.884-.051c-6.42.4-12.252-.776-18.486-.95a3.915,3.915,0,0,1,1.944-1.1c.274.083.562.169.88.263a15.31,15.31,0,0,1,1.59-.64,14.578,14.578,0,0,1,3.3.246,46.657,46.657,0,0,0,11.967.59c3.177-.176,6.1,1.286,9.142.075,2.832.888,6.5.58,9.642,1.017a5.87,5.87,0,0,1,1.286.433c4.471-1.413,8.81-.721,13.786.185.774-.4,1.686-.88,3.012-1.57h-7.9c.482-.456.6-.76.86-.781,3.285-.255,6.59-.469,10.723-.75-.45.658-.865,1.254-1.363,1.975l2.24.392,3.676-2.946c-2.417-.151-4.212-.265-6.712-.424.19-.21.373-.406.555-.6,1.77.133,3.357.237,4.906.218,2.35-.03,4.638-.514,7.005-.694,2.74-.21,5.528-.38,8.308-.42,1.551-.021,4.052.57,4.546.353,2.708-1.2,6.094-.488,9.095-.71,2.72-.2,5.869.534,8.177-.559,2.812.971,5.3-.115,7.935-.156,6.972-.108,6.98-.04,11.348-.814,1.24.267,2.552.55,3.783.818l3.968-.862,4.013,1c6.1-2.273,14.9-1.243,22.97-2.14.887.342,2.5.963,4.108,1.587q0,.945,0,1.888h1.453a27.232,27.232,0,0,1,3.235-1.425c2.8,1.229,2.8,1.229,2.167,3.015-.692-.586-1.294-1.1-1.88-1.59h-3.522c.064.21-.373.418-.81.627-.214-.21-.43-.417-.643-.627h-4.66c1.018,1.223,1.734,2.086,2.64,3.176,3.563-.23,6.43-.413,9.3-.6,1.865.52,3.987,1.112,6.209,1.73-3.35.484-6.615.954-10.756,1.55l3.779,1.577,3.74-.763c1.664.612,3.048,1.12,2.939,1.079a34.931,34.931,0,0,0,11.889-1.647,19.563,19.563,0,0,1,4.508-.057l6.755,1.868,1.74-3.4c.833,1.538,35.328,2.312,36.038,3.616l4.19-1.977,1.636,1.54,3.969-2.365c1.27.465,2.613.953,4,1.459.69-.563,1.31-1.063,2.131-1.728,1.646.385,2.93.685,4.212.983l10.41-1.516c1.686.067,1.748,1.008,3.625.433l-2.06-2.6c1.9-2.216,6.264-1.34,10.04-1.8v-3.318c2.362,1.87,4.044,3.206,5.752,4.56l-1.908.822a21.756,21.756,0,0,0,11.227.616c4.563,1.672,8.767-.635,13.585-.137,1.192.682,2.518,1.445,3.961,2.27,2.2-.44,4.416-.823,6.455-1.314a17.413,17.413,0,0,0,2.679-1.04h27.465c4.137-1.2,9.771-.2,13.9-1.414,4.656,1.3,9.945.531,14.924.621,7.422.136,14.871.036,24.372.036.233-.289.86-1.065,1.678-2.073,2.809,1,4.595,1.635,6.905,2.459l4.553-2.34c-1.949-.54-3.47-.964-5.3-1.474l5.6-1.408c-.567-.71-.974-1.217-1.6-2,3.39.062,5.808.107,8.534.16v3.577H889.7c.214-1.1-.939-2.573,3.936-2.71v3.237c2.514.428,4.671.792,6.546,1.11,1.084-.341,1.741-.55,2.114-.665a63.287,63.287,0,0,0,6.747,1.33c3.88.443,8.928-.23,13.99.67,2.756.49,7.765-.925,10.535-.44a42.313,42.313,0,0,0,8.2.536c6.267-.078,12.719.524,18.762-.694a10.861,10.861,0,0,1,3.8,0c6.453,1.845,11.379-.827,18.52-.423,4.915.992,11.533.125,19.049.474-1.516-.678-2.1-.94-2.67-1.2a38.115,38.115,0,0,1,19.912.508l1.946-.688c3.378.327,6.312.588,9.212.9,2.536.268,5.554-.9,7.438.339,8.89-1.433,18-.3,27.055-.794.682-.265,1.6-.622,2.36-.914l-1.587-1.247h3.912c-1.37-.86-2.155-1.359-2.944-1.855-.17.073-.343.145-.514.22-.133-.185-.276-.379-.41-.563,2.483-.36,4.972-.723,8.078-1.176-.438.958-.894,1.956-1.416,3.1.9,2.224,5.508.877,8.275,1.585,2.587.664,5.408,1.086,7.92,1.574l1.777-.91c1.34.616,2.692,1.24,4.288,1.973l2.86-1.1c.31.164.662.527,1.113.564,5.273.422,10.548.836,15.845,1.161,4.033.247,7.769-.159,10.467-1.637l6.99,2.427c1.746-.772,3.6-1.35,5.28.083a26.1,26.1,0,0,1,10.7-1.8c2.64.072,5.33-.343,8.785-.6l1.383,1.653,3.673-.806,2.717.943,3.646-1.788,5.475.843c1.276-.941,2.488-1.837,4.051-2.992.092,2.849,3.283,4.378,8.19,5.117,1.42-.157,4.084-.817,4.77-.467,3.333,1.708,6.136.228,8.9-.184l2.381,1.124c3.294-.724,6.865-1.99,10.538-.012,2.385-.633,4.76-1.263,7.271-1.931l7.218,1.917,2.5-.945a51.883,51.883,0,0,0,6.352.8c12.972.075,25.947.037,38.63.037.9-.459,1.512-.772,2.624-1.343-2.537-1.672-5.126-3.38-7.9-5.21-1.462.457-2.378.744-3.468,1.083-.451-.475-.985-1.031-1.54-1.612h-3.6c-2.416.416,1.06,2.492-2.673,2.594.036.01.145.069.26.126-.4.243-.807.484-1.209.727-.184-.094-.366-.188-.549-.28a11.761,11.761,0,0,1,1.5-.573c.079-.8.079-1.637.079-2.537h-3.106c-.25.877-.48,1.688-.779,2.731-1.222-1-2.149-1.75-3.255-2.649h-8.112c-.183.9-.4,1.989-.66,3.234h-6.484v-1.312c1.157-.218,2.153-.4,3.208-.6v-1.943l-6.518-1.153-9,1.086c0,.318,0,.865-.921,2.64,1.01-1.29,1.01-1.29,4.5-.334,1.035-.25,2.035-.494,4.828-1.172-2.1,1.572-3.1,2.319-3.657,2.735-2.677,0-4.56,0-5.673-1.23-.389-2.047-1.7-2.866-3.144-3.768-1.712.541-3.588,1.45-5.253-.033-1.124.33-2.222.654-3.263.962-.951-.453-1.575-.75-2.467-1.178-3.545,1.417-7.85.978-12.015,1.008-4.031.027-8.063,0-11.8,0-1.271.96-2.4,1.81-4.281,3.233v-3.218c-5.785.2-11.327-.584-17.09.643l-3.13-1.513h-5.627c-.94.776-1.942,1.6-2.967,2.447-.177-.061-.853-.18-.873-.322-.4-2.949-6.065-1.863-8.9-2.962-1.277-.495-5.154-.461-5.71.005-2.224,1.855-5.762-.849-7.623.8-5.873-1.645-12.252-.55-18.358-.913a46.462,46.462,0,0,1-5.034-.887c-.531.212-1.38.55-2.56,1.018l-3.087-.71a6.261,6.261,0,0,1-5.53-.1,6.53,6.53,0,0,1-6.538-.17c-1.849,1.615-3.621-.141-5.492-.094a51.452,51.452,0,0,1-6.948-.71q-.346.753-.688,1.508a73.423,73.423,0,0,1-7.926-.55,8.432,8.432,0,0,0-1.74-.135c-.256-.355-.5-.686-.782-1.074l-2.241.864-3.514-.884-1.134,1.56c-2.825-.115-5.716-.093-8.614-.048-.443-.126-.91-.257-1.431-.4v.418c-.908.011-1.814.025-2.716.027-2.71.01-5.42.035-8.132.053v-1.578c-1.71.337-3.022.592-4.489.88-.118-.059-.516-.263-1.48-.759-1.016.659-2,1.3-3.371,2.188.025.006.049.008.07.014-3.453.333-6.822-1.035-10.279-.806-1.543.1-3.179.047-4.669.208-14.705,1.58-14.673,1.537-26.58.71-2.761-.19-5.754.115-9.426.215-.347-.407-.916-1.08-1.963-2.315,2.033.694,2.71.923,4.84,1.647l-2.164-2.492,2.475-.955c.67.227,1.345.457,1.82.62,2.812-.479,5.453-1.11,8.322-1.379,6.047-.563,11.656.753,19.28.863l2.122,1.543c.731-.82,1.123-1.259,1.662-1.859l11.844.7c3.962-1.584,10.937.441,15.913-1.155a38.253,38.253,0,0,0,5.44.647c-.2.473-.4.944-.6,1.416l1.486.05v-1.436c5.11.192,10.35-.269,15.462-.065,3.222.13,7,.416,9.634-.078a11.89,11.89,0,0,1,1.226-.165l9.322.755c3.034-1.022,7.075-.7,11.262-.337a112.15,112.15,0,0,0,21.16.225c2.98-.3,6.393.535,10.142.906l1.987-1.018,11.283-.5c.982.645,2.031,1.338,3.084,2.028l3.406-1.743c1.8.113,3.73,1.774,5.434-.483,1.275.9,2.255,1.6,3.3,2.334l3.834-.857a6.165,6.165,0,0,0,5.493-.116c2.37,1.867,4.294-.565,6.73-.14.835.466,1.81,1.007,2.457,1.366a111.143,111.143,0,0,1,24.956.215l2.663-.757,4.128,1.05c.906-.422,1.528-.71,2.147-1a7.906,7.906,0,0,0,1.243.616,5.184,5.184,0,0,0,1.473.23c2.161-1.873,6.5,1.723,7.8-1.1l4.407,1.274c.792-.33,1.608-.669,2.394-.994a6.384,6.384,0,0,0,1.961.81c6.918.46,14.082-.83,20.845.786,2.912-1.451,6.734-.216,9.74-.828,2.692-.547,4.565,1.485,7.445.175,1.3-.588,4.11,1.169,6.213-.1,12.34,1.81,24.968.463,37.43.92a20.719,20.719,0,0,1,3.73.83,30.855,30.855,0,0,1,5.241-.8,43.885,43.885,0,0,1,6.218.83c1.847.286,3.365-1.258,5.638-.075,1.031.539,3.208-1.288,5.48.015,1.448.834,3.35-.866,5.709-.345a36.933,36.933,0,0,0,6.614.387c2.306.055,4.638.09,6.928-.024a12.741,12.741,0,0,0,2.794-.767l1.993.914c4-1.055,8.144-1.774,12.412-.035,1.142-.32,2.31-.65,3.846-1.078.747.28,1.62.6,2.51.94l1.288-.6c4.48.313,8.55.6,13.111.917,1.324-.676,2.522-1.288,3.914-2,1.733.47,3.87,1.046,5.938,1.6l3.523-.97,1.454,2.115c1.411-.31,2.784-.607,4.7-1.025.716.22,1.859.569,3.36,1.027l2.572-.884c1.678.737,3.492,1.563,5.035-.15.851.381,1.483.668,2.324,1.046l4.171-1.065,2.941,1.012c2.4-.635,4.775-1.263,8.11-2.147l1.287,2.769,3.238-1.257,12.5.565c1.045-1,2.86-.33,4.5-.12v-6.1a24.706,24.706,0,0,0-2.845-.045,6.312,6.312,0,0,1-2.238-.86q-2.86-.546-5.728-1.05c1.15.93,1.62,1.306,2.463,1.989-5.21-.092-9.667.1-14.18-.147,2.256-1.624,4.156-2.988,5.738-4.128l11.707,1.987v1.349c.867.021,1.73.021,2.818.021l1.14-1.725c.374.133.737.26,1.125.4v-8.41c-.151.081-.3.165-.455.248-.382-.248-.767-.494-.8-.906-.109.06-.217.118-.321.178l-1.352-.632.521-.286c.383.246.767.494.806.9l.321-.176q.642.3,1.284.6V778.995H1450v-715l14.083-.985-3.19-45.617-1.238.689-.333-.153c-.01.411-.377.686-.741.958l-.54-.25,1.3-.724c.109.053.22.1.333.155.009-.413.375-.686.74-.96l.47.217-.586-8.39-1.095.478-1.257-1.642c-1.086.076-1.947.136-2.81.218l.094,1.346c-3.717.9-7.457,1.809-11.54,2.8l-6.012-3.717c4.484-.562,8.944-.68,14.135-1.136-.793.74-1.236,1.148-2.318,2.155,2.508-.631,4.09-1.03,5.641-1.446.727-.37,1.5-1.01,2.172-1.015a24.623,24.623,0,0,0,2.836-.243L1459.722.64c-1.623.324-3.388,1.12-4.5.195l-12.43,1.435c-.19-.06-.757-.234-3.317-1.028-.393,1.024-.768,2.007-1.09,2.852-3.39-.65-5.8-1.11-8.241-1.576l-2.864,1.214c-1.368-.248-2.815-.513-4.235-.771L1420.8,4.168c-1.66-1.6-3.411-.652-5.034.2l-2.627-.7c-1.466.563-2.582.99-3.281,1.26-1.939-.283-3.329-.485-4.759-.7l-1.3,2.211-3.583-.722L1394.4,7.731c-1.438-.615-2.676-1.141-4.044-1.724-4.528.635-8.567,1.2-13.015,1.83l-1.328-.512-2.438,1.114-3.912-.808c-4.137,2.033-8.323,1.6-12.385.83-.791.434-1.4.765-1.924,1.051a12.874,12.874,0,0,0-2.841-.57c-2.293.047-4.616.245-6.913.46a37.094,37.094,0,0,0-6.572.847c-2.316.685-4.333-.878-5.718.054-2.177,1.46-4.475-.212-5.467.4-2.185,1.338-3.806-.1-5.63.319a43.982,43.982,0,0,1-6.145,1.261,30.915,30.915,0,0,1-5.284-.43,20.731,20.731,0,0,1-3.663,1.09c-12.4,1.324-25.092.861-37.277,3.528-2.185-1.121-4.872.828-6.2.331-2.965-1.1-4.692,1.052-7.416.694-3.042-.4-6.768,1.1-9.774-.146-6.635,2.083-13.87,1.3-20.74,2.238a6.35,6.35,0,0,0-1.9.945c-.807-.27-1.645-.551-2.458-.825-1.47.54-2.607.955-4.307,1.579-1.5-2.73-5.572,1.16-7.859-.557a5.2,5.2,0,0,0-1.453.331,7.857,7.857,0,0,0-1.2.7q-1.106-.42-2.212-.843l-4.045,1.334-2.709-.57a111.135,111.135,0,0,1-24.882,1.957c-.62.4-1.555,1.01-2.356,1.533-2.4.594-4.489-1.7-6.723.33a6.162,6.162,0,0,0-5.488.268l-3.884-.587c-.993.808-1.923,1.567-3.132,2.557-1.857-2.132-3.67-.34-5.454-.1l-3.52-1.5c-1,.761-2,1.525-2.936,2.237-3.877.1-7.372.189-11.29.288l-2.053-.876c-3.715.63-7.06,1.7-10.055,1.61a112.27,112.27,0,0,0-21.094,1.7c-4.151.656-8.16,1.256-11.258.449l-9.247,1.4a11.866,11.866,0,0,1-1.235-.078c-2.661-.31-6.411.24-9.616.593-5.086.56-10.345.466-15.43,1.014l-.1-1.431-1.48.152c.233.458.468.913.7,1.37a38.5,38.5,0,0,0-5.381,1.025c-5.077-1.245-11.894,1.262-15.956-.042l-11.767,1.521c-.58-.56-1-.972-1.789-1.738l-2.009,1.687c-7.6.642-13.1,2.345-19.173,2.206-2.88-.068-5.56-.514-8.4-.795-.462.2-1.119.472-1.772.745-1.022-.313-1.965-.6-2.535-.78l1.984-2.636c-2.074.87-2.733,1.146-4.713,1.98.958-1.305,1.478-2.016,1.8-2.447,3.671-.156,6.678-.06,9.419-.442,11.82-1.656,11.786-1.7,26.566-1.146,1.5.056,3.126-.113,4.673-.119,3.465-.012,6.73-1.612,10.2-1.52-.021.007-.044.01-.07.018,1.434.792,2.457,1.361,3.516,1.948.928-.563,1.31-.794,1.424-.86,1.484.185,2.81.347,4.54.564l-.11-1.574c2.706-.172,5.411-.335,8.116-.515.9-.06,1.8-.11,2.71-.162l.03.417c.51-.181.967-.345,1.4-.5,2.894-.158,5.78-.338,8.59-.65.41.486.815.972,1.24,1.477l3.444-1.127c.609.187,1.169.358,2.3.706.257-.407.474-.754.706-1.126a8.437,8.437,0,0,0,1.725-.257,73.51,73.51,0,0,1,7.87-1.1c.263.488.525.971.791,1.456a51.349,51.349,0,0,1,6.882-1.193c1.87-.083,3.515-1.96,5.472-.477a6.53,6.53,0,0,1,6.51-.626,6.266,6.266,0,0,1,5.51-.482l3.03-.923,2.626.836a46.605,46.605,0,0,1,4.96-1.235c6.066-.788,12.506-.141,18.25-2.192,1.972,1.513,5.312-1.43,7.66.264.588.427,4.458.19,5.7-.392,2.756-1.3,8.487-.607,8.677-3.577.01-.142.676-.308.848-.381,1.082.77,2.14,1.525,3.13,2.234l5.615-.393,3.016-1.728c5.835.822,11.309-.35,17.094-.55l-.225-3.21c1.982,1.288,3.162,2.056,4.5,2.926,3.73-.26,7.75-.565,11.773-.82,4.158-.26,8.42-1,12.057.168.86-.489,1.461-.83,2.378-1.347l3.323.732c1.557-1.6,3.493-.82,5.238-.4,1.377-1,2.629-1.909,2.873-3.978,1.026-1.3,2.9-1.435,5.574-1.622l3.839,2.473-4.9-.833c-3.417,1.2-3.417,1.2-4.515-.018,1.043,1.706,1.082,2.252,1.1,2.568,3.569.181,6.466.326,9.053.456l6.422-1.6-.136-1.938c-1.066-.122-2.073-.238-3.242-.375l-.091-1.308,6.469-.452.883,3.179,8.093-.566c1.04-.973,1.913-1.79,3.062-2.87l.967,2.67,3.1-.216c-.064-.9-.122-1.737-.256-2.525a11.822,11.822,0,0,1-1.535-.467l.529-.318,1.255.641c-.11.065-.215.131-.25.144,3.733-.16.41,2.155,2.848,2.4l3.6-.25c.513-.618,1.006-1.211,1.423-1.716l3.536.838,7.516-5.748c-1.149-.492-1.783-.762-2.71-1.157-12.654.885-25.6,1.753-38.536,2.732a51.832,51.832,0,0,0-6.28,1.245c-.763-.23-1.65-.5-2.56-.768l-7.068,2.416-7.388-1.419c-3.526,2.23-7.177,1.215-10.514.723l-2.3,1.287c-2.79-.218-5.688-1.5-8.9.437-.66.4-3.362-.075-4.79-.132-4.845,1.08-7.92,2.827-7.814,5.676-1.64-1.043-2.911-1.852-4.25-2.7l-5.4,1.223c-1.273-.519-2.487-1.012-3.762-1.53l-2.645,1.13c-1.369-.2-2.545-.374-3.72-.547-.644.888-1.092,1.505-1.264,1.745-3.465-.013-6.178-.24-8.806.017a26.134,26.134,0,0,1-10.8-1.046c-1.576,1.547-3.465,1.1-5.26.45l-6.805,2.91c-2.8-1.287-6.55-1.431-10.556-.9-5.262.694-10.495,1.474-15.726,2.263-.447.068-.774.455-1.072.64l-2.928-.893c-1.542.843-2.848,1.56-4.141,2.267l-1.836-.784c-2.472.662-5.257,1.28-7.791,2.123-2.711.9-7.4-.123-8.145,2.158.6,1.108,1.126,2.071,1.629,3l-8.14-.61.37-.59c.175.063.352.123.527.184.752-.55,1.5-1.1,2.807-2.056l-3.9.273,1.5-1.355c-.777-.238-1.72-.53-2.419-.747-9.068.143-18.076,1.905-27.046,1.095-1.793,1.372-4.885.413-7.4.858-2.872.511-5.78.976-9.128,1.538l-1.988-.55a38.114,38.114,0,0,1-19.83,1.9l2.58-1.38c-7.474.873-14.136.47-18.97,1.8-7.1.9-12.2-1.421-18.506.87a10.883,10.883,0,0,1-3.795.269c-6.114-.793-12.508.257-18.765.616a42.388,42.388,0,0,0-8.138,1.106c-2.73.678-7.825-.385-10.542.3-4.986,1.25-10.068.932-13.909,1.644a63.5,63.5,0,0,0-6.638,1.8l-2.156-.515-6.452,1.563.226,3.23c-4.873.2-3.826-1.349-4.116-2.429l-3.533.247.25,3.568c-2.716.243-5.124.456-8.5.755l1.46-2.11-5.685-1.014c1.785-.636,3.274-1.165,5.18-1.84-1.7-.73-2.968-1.273-4.705-2.016l-6.716,2.934-1.82-1.95c-9.477.663-16.916,1.082-24.311,1.735-4.96.437-10.29.04-14.844,1.661-4.2-.924-9.755.47-13.966-.44l-27.4,1.916a17.461,17.461,0,0,0-2.744-.852c-2.069-.347-4.3-.576-6.532-.86-1.382.924-2.651,1.777-3.793,2.541-4.772.833-9.127-1.176-13.562.81a21.758,21.758,0,0,0-11.157,1.4c.651.23,1.306.457,1.96.687-1.609,1.47-3.194,2.92-5.419,4.95l-.231-3.31c-3.8-.193-8.1.986-10.142-1.092l1.873-2.74c-1.912-.442-1.91.5-3.587.686l-10.49-.786L719.128,44.1c-.866-.606-1.519-1.062-2.247-1.575-1.344.6-2.65,1.182-3.885,1.734-1.294-.654-2.6-1.312-4.124-2.082l-1.524,1.65c-1.122-.437-2.243-.871-4.319-1.68-.617,1.35-34.975,4.53-35.7,6.121L665.358,45l-6.608,2.335a19.575,19.575,0,0,1-4.5.258,34.894,34.894,0,0,0-11.975-.814l-2.858,1.281c-1.055-.138-2.133-.281-3.783-.5l-3.66,1.836,10.838.8c-2.173.771-4.249,1.51-6.073,2.158-2.88.019-5.753.035-9.324.055-.827,1.15-1.481,2.061-2.411,3.352l4.648-.325c.2-.224.4-.446.6-.67.45.178.9.355.851.57l3.514-.247c.55-.533,1.115-1.084,1.765-1.717.758,1.737.758,1.737-1.951,3.16a27.426,27.426,0,0,1-3.328-1.2l-1.45.1c.045.628.089,1.256.136,1.884-1.56.734-3.127,1.466-3.987,1.869-8.119-.33-16.822,1.31-23.065-.532-1.667.54-2.67.867-3.935,1.276q-2.009-.293-4.017-.583l-3.717,1.081c-4.412-.469-4.415-.4-11.377-.02-2.632.142-5.19-.768-7.928.4-2.379-.928-5.47.025-8.2.013-3.008-.011-6.337.935-9.122-.073-.508-.183-2.961.582-4.51.669-2.777.155-5.57.18-8.318.16-2.374-.014-4.69-.337-7.036-.2-1.547.089-3.122.3-4.88.56-.2-.185-.391-.368-.595-.564,2.483-.333,4.265-.572,6.666-.89l-3.873-2.684c-1.217.3-1.961.487-2.207.547.547.685,1,1.251,1.5,1.875-4.143.008-7.454.026-10.749,0-.261,0-.4-.3-.913-.718l7.884-.551-3.114-1.357c-4.9,1.251-9.181,2.244-13.74,1.146a5.845,5.845,0,0,1-1.253.522c-3.105.655-6.785.6-9.548,1.688-3.115-1-5.933.666-9.115.712a46.621,46.621,0,0,0-11.9,1.423,14.46,14.46,0,0,1-3.277.475,14.919,14.919,0,0,1-1.63-.527c-.311.116-.593.223-.86.324a3.9,3.9,0,0,1-2.016-.964c6.206-.609,11.942-2.187,18.375-2.238a9.047,9.047,0,0,0,1.876-.182,110.394,110.394,0,0,1,20.726-2.859c3.448-.147,5.751-1.113,8.657-1.613.3-.05.336-.447.721-1.016l-2.716-1.032-12.241,2.3c-3.777.028-6.495-.106-9.159.114-2.341.193-4.589.836-6.94,1.18-2.715.4-5.487.766-8.258,1-1.546.13-4.082-.289-4.56-.035-2.614,1.386-6.046.912-9.023,1.342-2.7.392-5.89-.122-8.119,1.128-2.873-.772-5.28.485-7.906.71-6.947.594-6.96.526-11.264,1.6-1.255-.182-2.583-.372-3.83-.552l-3.9,1.133-4.074-.713c-5.923,2.692-14.773,2.279-22.766,3.734-.908-.276-2.558-.786-4.21-1.294-.04-.628-.083-1.258-.127-1.885l4.648-.325-2.853-2.983-9.242,1.244-6.315-1.294c3.308-.715,6.532-1.412,10.622-2.3-1.86-.626-3.02-1.017-3.88-1.309-1.6.449-2.65.74-3.677,1.024l-3.008-.873a35,35,0,0,0-11.745,2.473,19.466,19.466,0,0,1-4.494.371l-6.87-1.393c-.482,1.13-.822,1.929-1.5,3.51-.938-1.476-1.41-2.217-2.208-3.469-1.943,1.087-2.99,1.676-4.043,2.262-.49-.4-.975-.8-1.739-1.421-1.406.977-2.6,1.81-3.794,2.636L348.035,60.2c-.652.608-1.233,1.152-2.007,1.87l-4.27-.686c-3.619.79-7.24,1.577-10.278,2.24-1.689.051-1.815-.885-3.645-.18.851.935,1.7,1.87,2.233,2.452-1.733,2.343-6.155,1.771-9.89,2.492l.231,3.312c-2.486-1.7-4.257-2.916-6.056-4.148.615-.319,1.234-.637,1.848-.953a21.761,21.761,0,0,0-11.246.167c-4.665-1.348-8.7,1.247-13.541,1.085l-4.11-1.989c-2.168.594-4.346,1.13-6.349,1.763a17.548,17.548,0,0,0-2.6,1.225l-27.4,1.916c-4.044,1.486-9.735.88-13.768,2.38-4.734-.972-9.959.164-14.932.42-7.414.384-14.839,1-24.317,1.666l-1.53,2.183c-2.87-.8-4.7-1.311-7.057-1.972-1.616.98-2.795,1.694-4.38,2.653l5.387,1.1c-2.406.787-4.212,1.38-5.49,1.8l1.74,1.887-8.525.435-.25-3.568-3.53.247c-.14,1.109,1.114,2.5-3.74,2.978l-.226-3.231-6.607-.649-2.06.81a63.933,63.933,0,0,0-6.829-.856c-3.9-.17-8.888.853-14,.308-2.787-.3-7.684,1.465-10.482,1.174a42.5,42.5,0,0,0-8.213.035c-6.247.518-12.725.365-18.669,2a10.821,10.821,0,0,1-3.795.261c-6.567-1.39-11.295,1.621-18.445,1.718-4.974-.65-11.516.676-19.039.854,1.56.57,2.157.789,2.748,1.007a38.107,38.107,0,0,1-19.9.882c-1.1.478-1.768.767-1.893.823-3.392-.092-6.339-.149-9.253-.254-2.549-.09-5.477,1.29-7.446.179-7.5,1.755-15.3,1.655-23.027,2.288l.427,6.11a11.512,11.512,0,0,1,2.569-.319c4.743,0,9.708-.578,14.578-.934,4.835-.354,9.667-.74,14.5-1.109,4.331-2.256,8.741-.216,13.115-.813,1.53-.209,3.166-.268,4.641-.533,14.562-2.6,14.534-2.557,26.47-2.564,2.77,0,5.731-.517,9.39-.87l2.118,2.172L86.3,90.152c1.137,1.14,1.693,1.7,2.328,2.335-.539.254-1.434.672-2.4,1.127-.683-.18-1.375-.364-1.86-.49-2.773.673-5.362,1.489-8.205,1.953-5.994.985-11.683.064-19.294.484-.247-.152-1.127-.705-2.223-1.39l-1.53,1.969c-3.778.044-7.426.083-11.865.132-3.841,1.859-10.94.325-15.8,2.262-6.981-.886-14.257.631-21.386.892l.526,7.519.741-.105L6,107.969l-1.246.588-.044-.01,3.932,56.236,1.363-.1ZM400.768,63.317a27.513,27.513,0,0,1-3.124,1.65c-2.885-1.031-2.885-1.031-2.376-2.857l1.987,1.453,3.513-.246c-.077-.2.343-.44.765-.68l.685.579Z" fill="url(#linear-gradient)"/>
      </g>
    </g>
  </g>
</svg>
