<svg xmlns="http://www.w3.org/2000/svg" width="240" height="88" viewBox="0 0 240 88"><g><g><path fill="#fff" d="M222 33.095a1.45 1.45 0 0 0-.06.394.866.866 0 0 1-.084.386c-.336.972-.686 1.9-1.05 2.787a52.397 52.397 0 0 0-1.05 2.787 14.493 14.493 0 0 1-1.427 2.701c-.56.83-1.148 1.73-1.764 2.702-.28.457-.545.943-.797 1.457a9.328 9.328 0 0 1-.966 1.544l-.084.172a101.002 101.002 0 0 1-2.73 3.816 36.004 36.004 0 0 1-3.064 3.559c-.168.114-.392.314-.672.6-.168-.229-.252-.372-.252-.429.112-.572.21-1.115.294-1.63.084-.514.182-1.057.294-1.629a73.956 73.956 0 0 1 1.721-5.145 56.286 56.286 0 0 1 2.142-4.974 20.055 20.055 0 0 1 2.519-3.902 21.783 21.783 0 0 1 3.359-3.301 8.717 8.717 0 0 1 1.511-1.373c.28 0 .588-.128.924-.385.33-.254.743-.3 1.236-.137zm-50.276-2.657c-.336.53-.645 1.103-.926 1.717a30.768 30.768 0 0 0-2.062 5.277 74.494 74.494 0 0 0-1.39 5.612 151.02 151.02 0 0 0-.925 4.649c-.281 1.535-.562 3.113-.842 4.732a156.687 156.687 0 0 1-.38 3.393c-.14 1.144-.07 2.22.211 3.224.45 1.285 1.123 2.248 2.02 2.89a7.743 7.743 0 0 0 3.032 1.299 2.41 2.41 0 0 0 1.178.041c.393-.083.814-.181 1.263-.293-.112-.335-.21-.642-.295-.921a9.928 9.928 0 0 0-.294-.838c.168-.502.308-.81.42-.921a4.41 4.41 0 0 1 .885-.21c.252-.027.49-.097.715-.209.225-.447.533-.865.926-1.256a62.574 62.574 0 0 1 4.041-6.24 129.902 129.902 0 0 1 4.546-5.822 84.63 84.63 0 0 0 1.474-1.843c.477-.614.884-1.396 1.22-2.345.113.112.225.167.337.167.112 0 .239-.027.379-.083.14-.056.28-.084.42-.084.141 0 .324.084.548.251a69.49 69.49 0 0 0-.716 4.523 11.594 11.594 0 0 0 .38 4.691c.729.503 1.374.921 1.936 1.256.56.335 1.08.615 1.557.838.477.223.954.39 1.431.503.477.111 1.053.195 1.726.25.954-.222 2.035-.767 3.241-1.632a41.073 41.073 0 0 0 3.229-2.583 18.552 18.552 0 0 0-.45 3.671c-.029 1.257.266 2.527.883 3.812 1.235 1.396 2.652 2.275 4.252 2.638 1.6.363 3.213.35 4.84-.042.899-.335 1.67-.74 2.316-1.214.645-.475 1.22-.992 1.726-1.55.505-.558.982-1.13 1.43-1.717.45-.586.927-1.159 1.432-1.717.056.614.084 1.228.084 1.843v1.842c0 .615.042 1.2.126 1.76.085.558.267 1.116.548 1.675 1.571 1.842 3.62 2.708 6.145 2.596a10.15 10.15 0 0 0 1.305-.419c.421-.167.856-.335 1.305-.502a67.477 67.477 0 0 1 4.083-6.199 72.739 72.739 0 0 1 4.925-5.947c.73-.837 1.431-1.66 2.105-2.47A27.94 27.94 0 0 0 240 45.89a6.668 6.668 0 0 0-1.894-.837 201.02 201.02 0 0 0-1.979-.502 25.764 25.764 0 0 0-3.914 4.523 498.656 498.656 0 0 1-3.326 4.858c-.28-.28-.407-.558-.379-.838.029-.279.099-.53.211-.753.28-1.285.575-2.541.884-3.77.309-1.228.575-2.485.8-3.769.336-1.284.66-2.555.968-3.811.309-1.257.631-2.555.968-3.895.168-.782.35-1.55.547-2.303.197-.754.38-1.522.547-2.304-.28-.335-.547-.628-.8-.88l-.8-.795c-.111-.223-.252-.586-.42-1.089a15.471 15.471 0 0 0-1.852-.544 44.818 44.818 0 0 1-1.852-.461 4.427 4.427 0 0 1-.674.419c-.224.111-.477.25-.757.418-.786-.279-1.418-.684-1.895-1.214-.477-.53-1.108-.907-1.894-1.13l-1.305-.168c-.42-.056-.715-.112-.884-.168-2.357.28-4.35.921-5.977 1.927a19.645 19.645 0 0 0-4.378 3.685c-.449.391-.785.796-1.01 1.215-.224.418-.561.851-1.01 1.298-.786.782-1.403 1.577-1.852 2.387-.45.81-.898 1.661-1.347 2.555a35.877 35.877 0 0 0-1.907 4.005 99.035 99.035 0 0 1-2.26 2.068 63.4 63.4 0 0 1-2.947 2.47c-.926.726-1.501 1.117-1.726 1.173-.449.056-.673-.084-.673-.419 0-.335.084-.767.252-1.298.169-.53.393-1.075.674-1.633.28-.559.477-1.061.589-1.508a65.03 65.03 0 0 1 1.431-4.146 95.732 95.732 0 0 0 1.431-3.979 4.329 4.329 0 0 1-.252-1.884c.056-.643-.225-1.299-.842-1.969a22.68 22.68 0 0 0-3.115-1.34 20.606 20.606 0 0 1-3.2-1.424c-.28.168-.546.335-.799.503-.252.167-.52.363-.8.586a4.258 4.258 0 0 1-.715.544 5.198 5.198 0 0 0-.884.712c-.225.112-.435.28-.632.503a5.564 5.564 0 0 1-.715.67c-.225.168-.435.335-.632.503-.196.167-.435.363-.715.586-.28.223-.52.405-.716.544-.196.14-.379.35-.547.629-.337.279-.59.53-.758.753a3.8 3.8 0 0 1-.673.67c-.28.224-.52.447-.716.67-.196.224-.379.42-.547.587a5.075 5.075 0 0 0-1.263 1.173c-.28.279-.533.544-.758.795a6.14 6.14 0 0 1-.757.712 9.585 9.585 0 0 0-.463.67c-.14.224-.435.335-.884.335-.112-.725.042-1.41.463-2.052.42-.642.603-1.298.547-1.968.561-.67.968-1.41 1.22-2.22.253-.81.492-1.605.716-2.387.337-.726.197-1.424-.42-2.094a12.3 12.3 0 0 0-3.073-1.424 24.244 24.244 0 0 1-3.242-1.256c-.28-.112-.505-.14-.673-.084a2.2 2.2 0 0 1-.674.084c-.56.558-1.01 1.102-1.347 1.633zM118.73 46.436c-.028.084-.07.126-.126.126-.393 0-.337-.167.168-.503-.056-.725.028-1.507.252-2.345a37.873 37.873 0 0 0 1.853-5.989c.449-2.038.898-4.118 1.347-6.24.056-.28.07-.544.042-.796a7.177 7.177 0 0 1-.042-.795 18.97 18.97 0 0 0-.716-.838c-.253-.28-.463-.53-.631-.754a76.026 76.026 0 0 0-2.905-1.005c-.87-.28-1.754-.559-2.652-.838a3.39 3.39 0 0 0-1.01-.21c-.393-.027-.814.07-1.263.294l-.59.586c-.224.224-.42.475-.588.754a11.47 11.47 0 0 0-1.347 2.178 75.56 75.56 0 0 0-2.147 4.649 30.202 30.202 0 0 0-1.558 4.816 337.932 337.932 0 0 0-1.725 7.371 87.767 87.767 0 0 0-1.305 7.371 32.722 32.722 0 0 0-.127 3.644c.028 1.144.239 2.275.632 3.392.393.558.87.977 1.43 1.256.562.28 1.137.503 1.727.67.59.168 1.178.322 1.768.461.589.14 1.164.321 1.726.545.28-.168.547-.335.8-.503a4.36 4.36 0 0 1 .8-.419c.28-.111.546-.195.799-.251.252-.056.49-.14.715-.251.113-.224.197-.447.253-.67a5.92 5.92 0 0 1 .253-.754l1.136-.377c.421-.14.856-.293 1.305-.46.224-.168.477-.35.758-.545.28-.196.477-.433.589-.712.954-1.173 1.908-2.36 2.862-3.56.954-1.2 1.909-2.387 2.863-3.56.28-.28.533-.558.757-.838.225-.279.477-.558.758-.837a130.309 130.309 0 0 1 2.568-2.974c.87-.977 1.782-1.94 2.736-2.89 0-.055.084-.083.252-.083.225.279.323.614.295 1.005-.028.39-.07.726-.126 1.005a156.66 156.66 0 0 1-.38 3.937c-.14 1.284-.266 2.513-.378 3.685-.112 1.005-.084 1.899.084 2.68.112.95.267 1.913.463 2.89.197.978.351 1.913.463 2.806.73.838 1.53 1.369 2.4 1.592.87.223 1.753.419 2.651.586.618.112 1.221.182 1.81.21.59.028 1.193.07 1.81.125l.295-.293c.084-.084.155-.181.21-.293.225-.503.492-.838.8-1.005.31-.168.632-.307.969-.419.336-.112.673-.237 1.01-.377.337-.14.673-.433 1.01-.88.28-.39.814-1.102 1.6-2.135a139.222 139.222 0 0 1 2.567-3.267c.86-1.064 1.66-2.079 2.4-3.046a25.06 25.06 0 0 0 0 3.674c.112 1.508.252 2.988.42 4.44.842.614 1.67 1.172 2.484 1.675.814.502 1.614.893 2.4 1.172a56.29 56.29 0 0 0 1.43-.335c.45-.111.899-.25 1.348-.418.112-1.061.224-2.039.336-2.932.113-.894.253-1.759.421-2.597.225-.949.38-1.912.463-2.89.084-.977.267-1.94.548-2.89.392-1.228.687-2.526.883-3.894.197-1.368.435-2.722.716-4.063.337-1.451.631-2.861.884-4.23.253-1.368.575-2.778.968-4.23a98.355 98.355 0 0 0 1.516-5.988c.449-2.039.926-4.09 1.43-6.157.113-.447.225-.865.337-1.256l.337-1.173c.112-.28.267-.572.463-.88.197-.307.38-.6.547-.879.281.056.534.098.758.126.225.028.477.014.758-.042.954-.112 1.88-.265 2.778-.46a69.928 69.928 0 0 1 2.778-.545c1.628-.28 3.227-.545 4.799-.796a30.344 30.344 0 0 1 4.798-.377c.562 0 1.109-.042 1.642-.126.533-.083 1.109-.349 1.726-.795-.28-.95-.674-1.76-1.179-2.43a216.02 216.02 0 0 0-1.6-2.093c-.504 0-1.024-.014-1.557-.042a9.592 9.592 0 0 0-1.557.042c-.505 0-1.01.014-1.516.041-.505.028-1.038.07-1.6.126-.504.056-.981.098-1.43.126-.45.028-.954.07-1.516.125-.954.168-1.992.252-3.115.252-.449 0-.912.111-1.389.335-.477.223-.996.251-1.557.083-.056-.614-.098-1.2-.126-1.759a33.375 33.375 0 0 1-.042-1.675c-.281-.279-.52-.6-.716-.963a2.818 2.818 0 0 0-.716-.88 33.699 33.699 0 0 0-2.567-2.01 24.372 24.372 0 0 1-2.484-2.01c-.393.28-.701.516-.926.712a4.996 4.996 0 0 0-.547.544c-.14.168-.267.363-.379.587l-.42.837a239.536 239.536 0 0 0-1.432 3.225 239.484 239.484 0 0 1-1.431 3.225c-.169.447-.337.88-.505 1.298-.169.42-.365.852-.59 1.299-1.347.279-2.68.544-3.999.795-1.318.252-2.623.517-3.914.796a136.8 136.8 0 0 1-2.652.796c-.87.251-1.754.516-2.652.795-.337.168-.66.405-.968.712-.309.308-.463.796-.463 1.466.393.894.87 1.648 1.431 2.262.561.614 1.15 1.145 1.768 1.591.617.112 1.193.252 1.726.42.533.167 1.108.11 1.726-.168.785-.391 1.571-.712 2.357-.964.786-.25 1.571-.74 2.357-1.465.056-.056.126-.07.21-.042.085.028.211.014.38-.042.112.111.21.237.294.377.084.14.182.265.295.377l-.253 1.507a925.636 925.636 0 0 1-1.389 6.45 106.788 106.788 0 0 0-1.22 6.533 90.98 90.98 0 0 0-1.053 6.373l-.084.077c-.309.28-.604.558-.884.838l-1.684 2.01c-.224.28-.687.865-1.389 1.759-.702.893-1.473 1.843-2.315 2.848a66.316 66.316 0 0 1-2.4 2.722c-.757.81-1.304 1.27-1.641 1.382.112-.503.252-1.173.42-2.01.17-.838.352-1.703.548-2.597.196-.893.379-1.759.547-2.596.169-.838.309-1.48.421-1.927.337-.838.632-1.69.884-2.555.253-.865.52-1.717.8-2.554.393-.894.73-1.787 1.01-2.68.28-.894.59-1.816.926-2.765l.169-1.34c.056-.447.084-.907.084-1.382 0-.475-.098-.95-.295-1.424-.196-.475-.519-.935-.968-1.382-1.066-.28-2.189-.586-3.367-.922a82.374 82.374 0 0 0-3.536-.92 1.187 1.187 0 0 0-.548-.043c-.196.028-.35.042-.463.042-.954.782-1.894 1.536-2.82 2.262a68.96 68.96 0 0 0-2.736 2.261 148.613 148.613 0 0 0-12.123 11.56c-.28.278-.575.516-.884.711a5.197 5.197 0 0 0-.884.712.825.825 0 0 0-.21.293zm-36.622-6.784c.534-2.43 1.053-4.844 1.558-7.246a5.207 5.207 0 0 0-.463-1.214c-.197-.363-.52-.656-.968-.88l-2.694-1.675a67.885 67.885 0 0 0-2.694-1.591c-.618.223-1.08.502-1.39.837a5.091 5.091 0 0 0-.8 1.173c-.167.28-.308.586-.42.921l-.337 1.005a74.128 74.128 0 0 0-3.451 11.56 52.154 52.154 0 0 0-.674 4.271 10.501 10.501 0 0 0 .421 4.356c.28.838.645 1.591 1.094 2.261.45.67 1.01 1.173 1.684 1.508 2.133 1.173 4.238 1.787 6.314 1.843a85.674 85.674 0 0 0 1.684-.168c.505-.055.982-.14 1.431-.25.45-.28.772-.49.968-.63.197-.139.435-.32.716-.544.224-.167.435-.32.631-.46.197-.14.351-.293.463-.46.28-.168.533-.378.758-.63.224-.25.449-.46.673-.627a1.27 1.27 0 0 0 .464-.67c.084-.28.322-.391.715-.335.112.279.154.53.126.753a2.061 2.061 0 0 1-.21.67 116.099 116.099 0 0 1-1.894 4.524 92.216 92.216 0 0 0-1.894 4.606c-.281.894-.604 1.787-.969 2.68a55.875 55.875 0 0 1-1.22 2.765 2719.04 2719.04 0 0 0-2.4 5.989 127.141 127.141 0 0 1-2.652 6.156c-.392.782-.771 1.522-1.136 2.22a9.303 9.303 0 0 1-1.39 1.968c-.168.28-.336.573-.504.88-.169.307-.169.628 0 .963 1.29.614 2.624 1.131 3.999 1.55 1.375.419 2.876.349 4.504-.21.449-.279.968-.642 1.557-1.089a5.006 5.006 0 0 0 1.39-1.591 81.592 81.592 0 0 0 1.725-2.262c.533-.725.996-1.535 1.389-2.429a8.09 8.09 0 0 1 .379-.67c.14-.223.266-.474.379-.754.449-.949.926-1.87 1.43-2.764.506-.893 1.011-1.815 1.516-2.764.113-.447.197-.907.253-1.382.056-.475.14-1.019.252-1.633.225-.447.506-.95.842-1.508.337-.558.73-1.173 1.179-1.843.056-.279.084-.572.084-.88 0-.306.028-.6.084-.879 1.123-.949 1.768-2.205 1.937-3.769 0-.558.196-1.033.589-1.424.337-.614.59-1.228.758-1.843a188.97 188.97 0 0 1 1.767-5.654 90.806 90.806 0 0 0 1.684-5.737c.45-1.787.898-3.588 1.347-5.403a63.538 63.538 0 0 0 1.095-5.402c.112-1.173.196-2.304.252-3.393a7.23 7.23 0 0 0-.59-3.225c.057-.446.085-.795.085-1.047 0-.25.056-.544.168-.88-.841-.39-1.613-.809-2.315-1.256a6.709 6.709 0 0 0-2.399-.92l-1.852 1.172c-.618.39-1.067.977-1.347 1.759-.28.893-.66 1.717-1.137 2.47a19.866 19.866 0 0 1-1.557 2.137 57.976 57.976 0 0 1-1.979 2.848c-.701.949-1.417 1.926-2.146 2.931a358.641 358.641 0 0 1-3.115 4.02 187.468 187.468 0 0 1-3.115 3.854c-.28.223-.533.419-.758.586-.224.168-.505.391-.842.67.113-2.848.435-5.486.968-7.915zm-38.773-6.115a2.875 2.875 0 0 0-.079-.544.702.702 0 0 1 .084-.587c.45-1.675.926-3.322 1.432-4.942l1.515-4.858a62.748 62.748 0 0 0 1.473-5.11c.421-1.73.856-3.49 1.305-5.276.28-1.173.28-2.15 0-2.932-.449-1.117-1.207-1.843-2.273-2.178-.617-.111-1.136-.32-1.557-.628-.421-.307-.856-.684-1.305-1.13a1.669 1.669 0 0 0-.59-.503 4.418 4.418 0 0 1-.757-.503c-.28.28-.576.53-.884.754-.309.224-.604.447-.884.67-.954 1.117-1.922 2.248-2.905 3.393a46.572 46.572 0 0 0-2.82 3.643 210.298 210.298 0 0 0-5.22 7.12 421.522 421.522 0 0 0-5.05 7.37 158.647 158.647 0 0 0-5.936 9.298 136.729 136.729 0 0 0-5.262 9.8c-.224.112-.477.336-.757.67 0-.837.028-1.395.084-1.675.28-1.005.533-1.996.758-2.973.224-.977.449-1.969.673-2.974.618-2.122 1.22-4.23 1.81-6.324.59-2.094 1.193-4.202 1.81-6.324a29.12 29.12 0 0 0 .968-3.392c.253-1.145.407-2.36.463-3.644a6.746 6.746 0 0 0 1.474-1.884 14.94 14.94 0 0 0 .926-2.178c.252-.754.463-1.522.631-2.303.168-.782.393-1.564.674-2.346a4.455 4.455 0 0 1-.085-.88c0-.306-.028-.6-.084-.879.28-.111.547-.195.8-.251.253-.056.575-.14.968-.251a4.357 4.357 0 0 1 1.052-1.969c.534-.586.772-1.354.716-2.303-.337-.95-.898-1.634-1.684-2.052a8.9 8.9 0 0 1-2.104-1.55c-.898-.782-1.909-1.06-3.031-.838-.954.336-1.796.936-2.526 1.801a27.38 27.38 0 0 0-2.02 2.723 50.476 50.476 0 0 0-2.61 4.648 150.867 150.867 0 0 0-2.273 4.817 103.798 103.798 0 0 0-5.556 16.166A130.022 130.022 0 0 0 2.467 40.74c-.59 3.49-1.109 7.05-1.558 10.68a40.85 40.85 0 0 0-.547 4.857c-.084 1.62-.182 3.24-.295 4.859a18.395 18.395 0 0 0 .085 3.936 14.216 14.216 0 0 0 1.094 3.853c1.179 1.005 2.4 1.717 3.662 2.136 1.263.419 2.624.377 4.083-.125a9.29 9.29 0 0 0 1.053-1.047c.308-.363.603-.74.883-1.131 0-.168.029-.335.085-.503.056-.167.084-.335.084-.502a3.03 3.03 0 0 0 1.052-1.508c.197-.614.52-1.2.968-1.759a8.279 8.279 0 0 0 .8-1.759c.197-.614.435-1.229.716-1.843.56-1.172.842-2.485.842-3.937 1.796-2.066 3.283-4.411 4.461-7.036.057-.335.113-.684.169-1.047.056-.362.112-.767.168-1.214.225-.168.435-.321.632-.46.196-.14.35-.266.463-.378.73-1.172 1.43-2.331 2.104-3.476a363.865 363.865 0 0 1 2.02-3.392c.73-1.117 1.446-2.234 2.148-3.35a69.621 69.621 0 0 0 1.978-3.351 67.07 67.07 0 0 0 2.189-3.309c.673-1.089 1.543-2.163 2.61-3.224a1246.474 1246.474 0 0 0-4.673 18.176 156.78 156.78 0 0 0-3.41 18.344c1.123 1.451 2.4 2.275 3.831 2.47a13.89 13.89 0 0 0 4.42-.125c.505-.726.926-1.312 1.263-1.76.112-.446.168-.85.168-1.214 0-.363.028-.684.084-.963 0-.056.085-.167.253-.335.168-.112.365-.237.59-.377.224-.14.42-.265.589-.377 0-.614-.14-1.019-.421-1.214-.281-.196-.562-.377-.842-.545a3.108 3.108 0 0 1-.548-.335c-.14-.112-.126-.363.043-.754a21.27 21.27 0 0 0 2.23-.293 5.028 5.028 0 0 0 2.063-.88c.28-.614.45-1.018.505-1.214.056-.195.056-.6 0-1.214 0-.112.014-.224.042-.335a1.37 1.37 0 0 0 .042-.336c.337-.223.674-.39 1.01-.502.337-.112.646-.28.927-.503.224-.781.547-1.396.968-1.842.42-.447.828-.978 1.22-1.592.337-.614.73-1.187 1.18-1.717.448-.53.897-1.103 1.346-1.717.45-.614.884-1.229 1.305-1.843.421-.614.856-1.228 1.305-1.843.449-.558.87-1.13 1.263-1.717.393-.586.814-1.13 1.263-1.633.73-1.229 1.6-2.262 2.61-3.1.168.336.252.56.252.67-.45 2.235-.87 4.426-1.263 6.576-.393 2.15-.814 4.342-1.263 6.575a180.14 180.14 0 0 0-.842 7.706 12.688 12.688 0 0 0 .043 3.1c.14 1.005.35 2.01.631 3.015.168 1.229.645 2.178 1.431 2.848a83.529 83.529 0 0 0 2.315 2.22c.758.698 1.698 1.242 2.82 1.633.169 0 .38-.028.632-.084.253-.056.52-.084.8-.084.168 0 .379.056.631.168.253.112.52 0 .8-.335-.056-.503-.112-1.033-.168-1.592a72.27 72.27 0 0 1-.169-2.01c.169-1.284.407-2.624.716-4.02.308-1.396.547-2.848.715-4.356.113-.838.295-1.647.548-2.43.252-.78.519-1.59.8-2.428a44.023 44.023 0 0 1 2.104-7.246 58.968 58.968 0 0 0 2.273-7.245 7.145 7.145 0 0 0 1.052-2.806c.14-.977.267-1.968.38-2.973a12.31 12.31 0 0 0 1.683-2.513c.449-.894.814-1.815 1.094-2.764.45-1.285.898-2.597 1.347-3.937.45-1.34.954-2.653 1.516-3.937a73.76 73.76 0 0 0 1.389-3.644c.42-1.2.772-2.498 1.052-3.894a7.577 7.577 0 0 1-.252-.712 7.572 7.572 0 0 0-.253-.712 6.94 6.94 0 0 0-.379-.796 3.898 3.898 0 0 1-.294-.628 620.816 620.816 0 0 0-3.2-2.639c-.785-.642-1.473-1.13-2.062-1.466a9.277 9.277 0 0 0-1.642-.754 11.786 11.786 0 0 0-1.768-.418c-.28.279-.547.516-.8.712a8.69 8.69 0 0 0-.8.712c-.28.446-.575.907-.883 1.382-.309.474-.604.935-.884 1.382a10.34 10.34 0 0 1-1.768 2.722 171.787 171.787 0 0 1-4.42 4.733 23.68 23.68 0 0 0-2.063 2.429 47.695 47.695 0 0 0-1.936 2.22 120.75 120.75 0 0 1-1.936 2.303c-1.291 1.62-2.582 3.21-3.873 4.774l-3.872 4.69c-.337.392-.646.796-.926 1.215-.25.373-.589.624-1.016.754z"/></g></g></svg>