<?xml version="1.0" encoding="UTF-8"?>
<svg width="484px" height="420px" viewBox="0 0 484 420" version="1.1" xmlns="http://www.w3.org/2000/svg" xmlns:xlink="http://www.w3.org/1999/xlink">
    <!-- Generator: Sketch 60.1 (88133) - https://sketch.com -->
    <title>Group 50</title>
    <desc>Created with Sketch.</desc>
    <defs>
        <linearGradient x1="0%" y1="50%" x2="99.2634596%" y2="51.6891737%" id="linearGradient-1">
            <stop stop-color="#F82E94" offset="0%"></stop>
            <stop stop-color="#FF9E33" offset="100%"></stop>
        </linearGradient>
    </defs>
    <g id="Careers" stroke="none" stroke-width="1" fill="none" fill-rule="evenodd">
        <g id="01_About" transform="translate(-468.000000, -55.000000)">
            <g id="Group-50" transform="translate(468.000000, 56.000000)">
                <g id="Group-69">
                    <g id="Group-49">
                        <circle id="Oval" stroke="#1C1F2C" fill="#FFFFFF" fill-rule="nonzero" cx="252" cy="198" r="189"></circle>
                        <path d="M205.108,118 L205.108,97.366 L213.24,97.366 L213.24,91.4 L189.414,91.4 L189.414,97.366 L197.584,97.366 L197.584,118 L205.108,118 Z M224.412,118.342 C228.262667,118.342 231.188667,117.227333 233.19,114.998 L233.19,114.998 L229.39,111.046 C228.655333,111.679333 227.927,112.135333 227.205,112.414 C226.483,112.692667 225.628,112.832 224.64,112.832 C223.322667,112.832 222.227,112.547 221.353,111.977 C220.479,111.407 219.89,110.59 219.586,109.526 L219.586,109.526 L234.558,109.526 C234.634,108.386 234.672,107.790667 234.672,107.74 C234.672,105.536 234.184333,103.629667 233.209,102.021 C232.233667,100.412333 230.91,99.1836667 229.238,98.335 C227.566,97.4863333 225.704,97.062 223.652,97.062 C221.498667,97.062 219.560667,97.518 217.838,98.43 C216.115333,99.342 214.766333,100.602333 213.791,102.211 C212.815667,103.819667 212.328,105.637333 212.328,107.664 C212.328,109.716 212.828333,111.552667 213.829,113.174 C214.829667,114.795333 216.242,116.062 218.066,116.974 C219.89,117.886 222.005333,118.342 224.412,118.342 Z M227.908,105.726 L219.472,105.726 C219.674667,104.636667 220.149667,103.775333 220.897,103.142 C221.644333,102.508667 222.575333,102.192 223.69,102.192 C224.804667,102.192 225.735667,102.508667 226.483,103.142 C227.230333,103.775333 227.705333,104.636667 227.908,105.726 L227.908,105.726 Z M248.542,118.342 C250.872667,118.342 252.886667,117.841667 254.584,116.841 C256.281333,115.840333 257.484667,114.453333 258.194,112.68 L258.194,112.68 L252.608,109.83 C251.670667,111.679333 250.302667,112.604 248.504,112.604 C247.212,112.604 246.141667,112.167 245.293,111.293 C244.444333,110.419 244.02,109.209333 244.02,107.664 C244.02,106.144 244.444333,104.953333 245.293,104.092 C246.141667,103.230667 247.212,102.8 248.504,102.8 C250.302667,102.8 251.670667,103.724667 252.608,105.574 L252.608,105.574 L258.194,102.724 C257.484667,100.950667 256.281333,99.5636667 254.584,98.563 C252.886667,97.5623333 250.872667,97.062 248.542,97.062 C246.262,97.062 244.222667,97.5116667 242.424,98.411 C240.625333,99.3103333 239.225667,100.564333 238.225,102.173 C237.224333,103.781667 236.724,105.612 236.724,107.664 C236.724,109.716 237.224333,111.552667 238.225,113.174 C239.225667,114.795333 240.625333,116.062 242.424,116.974 C244.222667,117.886 246.262,118.342 248.542,118.342 Z M268.074,118 L268.074,108.044 C268.074,106.422667 268.447667,105.206667 269.195,104.396 C269.942333,103.585333 270.936667,103.18 272.178,103.18 C274.432667,103.18 275.56,104.586 275.56,107.398 L275.56,107.398 L275.56,118 L282.78,118 L282.78,106.22 C282.78,103.154667 282.001,100.862 280.443,99.342 C278.885,97.822 276.826667,97.062 274.268,97.062 C273.052,97.062 271.912,97.252 270.848,97.632 C269.784,98.012 268.859333,98.5693333 268.074,99.304 L268.074,99.304 L268.074,89.804 L260.854,89.804 L260.854,118 L268.074,118 Z M291.026,123.966 L293.42,118.418 C293.952,117.252667 294.294,116.378667 294.446,115.796 C294.598,115.213333 294.674,114.630667 294.674,114.048 C294.674,112.781333 294.268667,111.755333 293.458,110.97 C292.647333,110.184667 291.621333,109.792 290.38,109.792 C289.113333,109.792 288.074667,110.184667 287.264,110.97 C286.453333,111.755333 286.048,112.781333 286.048,114.048 C286.048,114.909333 286.244333,115.663 286.637,116.309 C287.029667,116.955 287.580667,117.442667 288.29,117.772 L288.29,117.772 L286.504,123.966 L291.026,123.966 Z M173.34,163 L173.34,153.88 L185.082,153.88 L185.082,148.066 L173.34,148.066 L173.34,142.214 L186.678,142.214 L186.678,136.4 L165.816,136.4 L165.816,163 L173.34,163 Z M195.912,163.342 C198.926667,163.342 200.953333,162.341333 201.992,160.34 L201.992,160.34 L201.992,163 L208.718,163 L208.718,151.562 C208.718,148.344667 207.818667,145.957 206.02,144.399 C204.221333,142.841 201.612,142.062 198.192,142.062 C196.545333,142.062 194.905,142.271 193.271,142.689 C191.637,143.107 190.25,143.696 189.11,144.456 L189.11,144.456 L191.542,149.358 C192.251333,148.800667 193.112667,148.363667 194.126,148.047 C195.139333,147.730333 196.14,147.572 197.128,147.572 C199.914667,147.572 201.371333,148.661333 201.498,150.84 L201.498,150.84 L197.394,150.84 C194.278,150.84 191.972667,151.378333 190.478,152.455 C188.983333,153.531667 188.236,155.045333 188.236,156.996 C188.236,158.212 188.533667,159.295 189.129,160.245 C189.724333,161.195 190.604667,161.948667 191.77,162.506 C192.935333,163.063333 194.316,163.342 195.912,163.342 Z M197.926,158.782 C197.09,158.782 196.431333,158.592 195.95,158.212 C195.468667,157.832 195.228,157.325333 195.228,156.692 C195.228,155.298667 196.279333,154.602 198.382,154.602 L198.382,154.602 L201.498,154.602 L201.498,156.388 C201.219333,157.173333 200.763333,157.768667 200.13,158.174 C199.496667,158.579333 198.762,158.782 197.926,158.782 Z M220.764,163.342 C222.917333,163.342 224.760333,163.050667 226.293,162.468 C227.825667,161.885333 228.984667,161.081 229.77,160.055 C230.555333,159.029 230.948,157.87 230.948,156.578 C230.948,155.007333 230.536333,153.785 229.713,152.911 C228.889667,152.037 227.920667,151.435333 226.806,151.106 C225.691333,150.776667 224.285333,150.485333 222.588,150.232 C221.245333,150.029333 220.282667,149.833 219.7,149.643 C219.117333,149.453 218.826,149.117333 218.826,148.636 C218.826,148.205333 219.092,147.857 219.624,147.591 C220.156,147.325 220.992,147.192 222.132,147.192 C224.26,147.192 226.236,147.698667 228.06,148.712 L228.06,148.712 L230.226,143.81 C229.238,143.252667 228.009333,142.822 226.54,142.518 C225.070667,142.214 223.588667,142.062 222.094,142.062 C219.991333,142.062 218.186333,142.359667 216.679,142.955 C215.171667,143.550333 214.025333,144.361 213.24,145.387 C212.454667,146.413 212.062,147.584667 212.062,148.902 C212.062,150.498 212.48,151.739333 213.316,152.626 C214.152,153.512667 215.146333,154.120667 216.299,154.45 C217.451667,154.779333 218.851333,155.045333 220.498,155.248 C221.79,155.425333 222.733667,155.609 223.329,155.799 C223.924333,155.989 224.222,156.312 224.222,156.768 C224.222,157.224 223.975,157.572333 223.481,157.813 C222.987,158.053667 222.157333,158.174 220.992,158.174 C219.725333,158.174 218.446,158.003 217.154,157.661 C215.862,157.319 214.747333,156.856667 213.81,156.274 L213.81,156.274 L211.644,161.214 C212.657333,161.847333 214,162.360333 215.672,162.753 C217.344,163.145667 219.041333,163.342 220.764,163.342 Z M241.284,163 L241.284,153.044 C241.284,151.422667 241.657667,150.206667 242.405,149.396 C243.152333,148.585333 244.146667,148.18 245.388,148.18 C247.642667,148.18 248.77,149.586 248.77,152.398 L248.77,152.398 L248.77,163 L255.99,163 L255.99,151.22 C255.99,148.154667 255.211,145.862 253.653,144.342 C252.095,142.822 250.036667,142.062 247.478,142.062 C246.262,142.062 245.122,142.252 244.058,142.632 C242.994,143.012 242.069333,143.569333 241.284,144.304 L241.284,144.304 L241.284,134.804 L234.064,134.804 L234.064,163 L241.284,163 Z M264.122,140.124 C265.439333,140.124 266.503333,139.750333 267.314,139.003 C268.124667,138.255667 268.53,137.312 268.53,136.172 C268.53,135.082667 268.124667,134.189667 267.314,133.493 C266.503333,132.796333 265.439333,132.448 264.122,132.448 C262.804667,132.448 261.740667,132.815333 260.93,133.55 C260.119333,134.284667 259.714,135.196667 259.714,136.286 C259.714,137.375333 260.119333,138.287333 260.93,139.022 C261.740667,139.756667 262.804667,140.124 264.122,140.124 Z M267.732,163 L267.732,142.404 L260.512,142.404 L260.512,163 L267.732,163 Z M282.742,163.342 C284.971333,163.342 286.972667,162.886 288.746,161.974 C290.519333,161.062 291.9,159.795333 292.888,158.174 C293.876,156.552667 294.37,154.716 294.37,152.664 C294.37,150.612 293.876,148.781667 292.888,147.173 C291.9,145.564333 290.519333,144.310333 288.746,143.411 C286.972667,142.511667 284.971333,142.062 282.742,142.062 C280.512667,142.062 278.517667,142.511667 276.757,143.411 C274.996333,144.310333 273.615667,145.570667 272.615,147.192 C271.614333,148.813333 271.114,150.637333 271.114,152.664 C271.114,154.716 271.614333,156.552667 272.615,158.174 C273.615667,159.795333 275.002667,161.062 276.776,161.974 C278.549333,162.886 280.538,163.342 282.742,163.342 Z M282.742,157.604 C281.475333,157.604 280.436667,157.167 279.626,156.293 C278.815333,155.419 278.41,154.209333 278.41,152.664 C278.41,151.144 278.815333,149.953333 279.626,149.092 C280.436667,148.230667 281.475333,147.8 282.742,147.8 C284.008667,147.8 285.047333,148.230667 285.858,149.092 C286.668667,149.953333 287.074,151.144 287.074,152.664 C287.074,154.209333 286.668667,155.419 285.858,156.293 C285.047333,157.167 284.008667,157.604 282.742,157.604 Z M304.934,163 L304.934,153.044 C304.934,151.422667 305.307667,150.206667 306.055,149.396 C306.802333,148.585333 307.796667,148.18 309.038,148.18 C311.292667,148.18 312.42,149.586 312.42,152.398 L312.42,152.398 L312.42,163 L319.64,163 L319.64,151.22 C319.64,148.154667 318.861,145.862 317.303,144.342 C315.745,142.822 313.686667,142.062 311.128,142.062 C309.810667,142.062 308.594667,142.283667 307.48,142.727 C306.365333,143.170333 305.402667,143.81 304.592,144.646 L304.592,144.646 L304.592,142.404 L297.714,142.404 L297.714,163 L304.934,163 Z" id="Tech,Fashion" fill="#3B4057" fill-rule="nonzero"></path>
                        <path d="M241,378 C345.381818,378 430,293.381818 430,189 C430,84.6181823 345.381818,0 241,0 C136.618182,0 52,84.6181823 52,189 C52,293.381818 136.618182,378 241,378 Z" id="Oval-Copy-5" stroke="#1C1F2C" stroke-dasharray="1,5" fill-rule="nonzero"></path>
                        <g id="All-things-Colorful-2" transform="translate(245.608727, 249.045751) rotate(-8.000000) translate(-245.608727, -249.045751) translate(99.608727, 185.045751)" fill="url(#linearGradient-1)">
                            <path d="M161.500808,62.392788 C162.593396,62.7148886 163.674588,63.0369843 164.744414,63.3590848 C165.81424,63.6811854 166.87267,64.0723016 167.919734,64.5324453 C168.056307,64.9005602 168.192879,65.2341593 168.329452,65.5332527 C168.466026,65.8323461 168.625359,66.1659452 168.807457,66.5340601 C168.443261,68.0065198 168.079071,69.4444471 167.714874,70.8478852 C167.350678,72.2513233 167.009249,73.6892506 166.690578,75.1617103 C166.417431,76.5881556 166.064621,78.003076 165.632138,79.4065141 C165.199655,80.8099522 164.846845,82.2248727 164.573698,83.651318 C164.482649,84.0194329 164.334696,84.3760389 164.129836,84.7211466 C163.924976,85.0662544 163.731499,85.468874 163.549401,85.9290177 L163.685974,86.3431449 C162.775484,89.6561791 161.956054,92.9691636 161.227662,96.2821978 C160.90899,97.3865426 160.613085,98.4793673 160.339938,99.5607049 C160.066791,100.642042 159.793648,101.71186 159.520501,102.770191 C159.474976,103.000263 159.463595,103.230331 159.486358,103.460403 C159.501532,103.613784 159.511649,103.767164 159.516707,103.920544 L159.520501,104.150615 C159.793648,104.150615 159.998505,104.058587 160.135079,103.87453 C160.271652,103.690473 160.408224,103.529425 160.544798,103.391382 C161.136616,102.701166 161.682902,102.022464 162.183672,101.355256 C162.684442,100.688048 163.230728,100.05536 163.822547,99.4571731 C164.323317,98.7669576 164.880984,98.1112628 165.495565,97.4900689 C166.037842,96.9419566 166.588973,96.4207194 167.14897,95.9263452 C167.388519,95.042703 167.680917,94.1660792 168.024385,93.2979408 C168.671202,91.6384821 169.387311,90.0712391 170.172732,88.5961648 C170.958153,87.1210905 171.766662,85.6921336 172.598284,84.3092514 C172.921693,83.8021946 173.233547,83.3642885 173.533855,82.9955199 C173.834163,82.6267513 174.146016,82.2579883 174.469425,81.8892197 C174.746632,81.5665472 175.046936,81.3014987 175.370345,81.0940664 C175.693753,80.8866341 176.086458,80.7598718 176.54847,80.7137757 C177.564897,81.2208325 178.535109,81.7624532 179.459133,82.3386541 C180.383158,82.9148551 181.353369,83.4795235 182.369796,84.0326764 C182.600803,83.802196 182.808705,83.6062906 182.99351,83.4449544 C183.178315,83.2836181 183.386217,83.0877127 183.617224,82.8572324 C184.402645,83.272097 185.222704,83.6639078 186.077427,84.0326764 C186.93215,84.4014449 187.752209,84.8163034 188.53763,85.2772641 C189.461655,85.7843209 190.362566,86.2337509 191.240389,86.6255675 C192.118212,87.0173841 192.996023,87.4207187 193.873846,87.8355834 C194.030802,87.9092767 194.190063,87.9797484 194.35163,88.0469986 L194.271855,88.3136152 L194.372578,87.980525 C194.77885,86.6845626 195.278222,85.4397683 195.870704,84.2461145 C196.101114,83.7354959 196.354561,83.2596994 196.631053,82.8187106 C196.907544,82.3777218 197.276195,81.9251349 197.737014,81.4609362 C197.967424,81.4609362 198.151749,81.4377266 198.289995,81.3913067 C198.428241,81.3448868 198.612566,81.3680967 198.842976,81.4609362 C199.718533,81.878715 200.605598,82.2268588 201.504196,82.505378 C202.402794,82.7838972 203.243778,83.1784602 204.027171,83.6890788 C204.534073,84.2461173 204.649276,84.8263569 204.372784,85.4298153 C204.188456,86.0796934 203.992611,86.7411667 203.785242,87.4142548 C203.577873,88.0873429 203.243784,88.702397 202.782964,89.2594354 C202.829046,89.8164739 202.679282,90.3618992 202.333667,90.8957277 C201.988052,91.4295562 201.861329,91.9981911 201.953493,92.6016494 C202.322149,92.6016494 202.564075,92.5088111 202.67928,92.3231316 C202.794485,92.1374521 202.921209,91.9517754 203.059455,91.7660959 C203.289864,91.5804164 203.49723,91.3831349 203.681558,91.1742455 C203.865886,90.9653561 204.073252,90.744865 204.303661,90.5127657 C204.580153,90.1414067 204.925763,89.8164725 205.3405,89.5379533 C205.478746,89.3986937 205.62851,89.2362265 205.789797,89.0505471 C205.951084,88.8648676 206.14693,88.6791909 206.377339,88.4935114 C206.607749,88.3078319 206.792074,88.1221552 206.93032,87.9364757 C207.068566,87.7507963 207.275932,87.54191 207.552424,87.3098106 C207.69067,87.0777113 207.840434,86.9036394 208.001721,86.7875897 C208.163007,86.67154 208.358853,86.5206777 208.589263,86.3349982 C208.819673,86.1493187 209.015518,85.9868516 209.176805,85.847592 C209.338092,85.7083324 209.510896,85.5690749 209.695224,85.4298153 C209.925634,85.2441358 210.12148,85.0584591 210.282766,84.8727796 C210.444053,84.6871001 210.616858,84.5478426 210.801186,84.4550028 C211.031596,84.2229035 211.273522,84.025622 211.526973,83.8631525 C211.780424,83.7006829 211.97627,83.5498206 212.114515,83.410561 C212.344925,83.2248815 212.563811,83.0624144 212.77118,82.9231548 C212.978549,82.7838952 213.197435,82.6446376 213.427845,82.505378 C214.25732,82.9695767 215.132864,83.3641397 216.054504,83.6890788 C216.976143,84.0140179 217.828647,84.3853713 218.61204,84.8031501 C219.118942,85.3601886 219.349348,85.9056139 219.303266,86.4394424 C219.257184,86.9732709 219.326306,87.4954866 219.510634,88.0061052 C219.141978,89.1201821 218.750287,90.2226375 218.33555,91.3135044 C217.920812,92.4043714 217.529121,93.553246 217.160465,94.7601626 C217.068301,95.1315216 216.907017,95.5492941 216.676607,96.0134928 C216.446197,96.4776915 216.261872,96.9302785 216.123626,97.3712673 C215.98538,97.812256 215.916259,98.1720046 215.916259,98.4505239 C215.916259,98.7290431 216.100584,98.845091 216.469239,98.7986712 C216.653567,98.7522513 217.1259,98.4273171 217.886253,97.8238587 C218.646605,97.2204004 219.453027,96.5357176 220.305544,95.7697897 C221.073988,95.0793945 221.804982,94.3984375 222.498542,93.7269021 C222.825607,91.8407551 223.224681,89.9643189 223.691891,88.0983296 C224.200948,86.2500362 224.767844,84.4595289 225.392596,82.7267539 C226.017348,80.9939788 226.792491,79.3189881 227.718049,77.7017314 C228.180829,76.7775847 228.678309,75.8996585 229.210505,75.0679265 C229.742701,74.2361945 230.332735,73.4737849 230.980626,72.7806749 C231.304572,72.4572235 231.628512,72.1799837 231.952458,71.948947 C232.276403,71.7179104 232.646621,71.5099805 233.063122,71.3251511 C234.682849,70.5396265 236.256274,70.8399696 237.783446,72.2261897 C238.431336,72.7344703 239.04451,73.2773984 239.622984,73.85499 L241.323688,75.5531011 C242.897137,77.0779431 243.313632,78.8337955 242.573186,80.8207109 C242.573186,80.9593329 242.50377,81.0979528 242.364936,81.2365748 C242.318658,81.3289895 242.179827,81.4445061 241.948437,81.5831281 C240.976601,81.6755427 240.074195,81.4791645 239.241193,80.9939875 C238.40819,80.5088105 237.644616,79.8734692 236.950447,79.0879445 C236.44139,79.5500178 236.036465,80.0698425 235.735658,80.6474342 C235.434852,81.2250259 235.168758,81.7910573 234.937368,82.3455453 C234.243199,83.962802 233.653165,85.6146894 233.167247,87.3012571 C232.681329,88.9878248 232.253264,90.6859189 231.883041,92.3955902 C231.836763,92.4880049 231.825194,92.6035215 231.848333,92.7421435 C231.871472,92.8807655 231.883041,92.9962821 231.883041,93.0886968 C232.021875,93.3659408 232.299538,93.4583541 232.716039,93.3659394 C233.502764,93.1349027 234.254769,93.0655928 234.972076,93.1580074 C235.689384,93.2504221 236.441389,93.458352 237.228113,93.7818033 C237.598337,94.1976693 237.991693,94.6135291 238.408194,95.0293951 L239.727108,96.3462975 C240.051054,96.5311269 240.051054,96.8545734 239.727108,97.3166467 C239.218051,97.3166467 238.709002,97.3281984 238.199945,97.351302 C237.690888,97.3744057 237.181838,97.4090607 236.672781,97.455268 C235.562111,97.5476827 234.59029,97.7094059 233.757287,97.9404426 C233.201952,98.0790646 232.669764,98.2523395 232.160707,98.4602725 C231.65165,98.6682055 231.142601,98.8876871 230.633544,99.1187237 C230.355876,99.7656264 230.147629,100.447174 230.008795,101.163388 C229.869961,101.879602 229.754268,102.607356 229.661712,103.346674 C229.152655,106.119114 228.689883,108.914616 228.273382,111.733263 C227.85688,114.55191 227.509801,117.393619 227.232134,120.258473 C227.139578,121.506072 227.058593,122.730547 226.989176,123.931938 C226.919759,125.133329 227.000744,126.334702 227.232134,127.536092 C226.861911,127.767129 226.456985,127.859542 226.017345,127.813335 C225.577704,127.767128 225.172779,127.767128 224.802555,127.813335 C224.524888,127.709368 224.273255,127.598905 224.047651,127.481944 L223.830724,127.362816 C223.553057,127.20109 223.229116,127.050918 222.858893,126.912296 C222.627503,126.773674 222.384548,126.611951 222.130019,126.427122 C221.875491,126.242292 221.632535,126.103673 221.401146,126.011258 C221.030922,125.502977 220.776398,124.994704 220.637564,124.486423 C220.49873,123.978143 220.406176,123.46987 220.359898,122.961589 C219.989675,120.420186 219.920259,117.925027 220.151648,115.476038 L220.429314,110.208429 C220.52187,108.45255 220.68384,106.696697 220.91523,104.940819 C221.200233,102.770987 221.492088,100.60118 221.790802,98.4313602 C221.534049,98.6834753 221.268442,98.9334263 220.99677,99.1816332 C220.006008,100.086821 219.01526,100.899156 218.024498,101.618664 C217.033736,102.338172 216.146671,102.790759 215.363278,102.976439 C214.810294,102.930019 214.337961,102.86039 213.946264,102.76755 C213.554568,102.674711 213.162877,102.535453 212.77118,102.349773 C212.379483,102.164094 211.953232,101.931998 211.492412,101.653479 C211.031592,101.37496 210.501658,101.026816 209.902592,100.609037 C209.533936,99.3092807 209.430254,98.0095438 209.59154,96.7097874 C209.752827,95.410031 209.948673,94.1567133 210.179083,92.9497967 C209.994755,92.8105371 209.844991,92.7409083 209.729786,92.7409083 C209.614581,92.7409083 209.499378,92.7641179 209.384173,92.8105378 C209.268968,92.8569577 209.165285,92.8801672 209.073121,92.8801672 C208.980957,92.8801672 208.888794,92.8337481 208.796631,92.7409083 C208.520139,93.5300461 208.186049,94.1799146 207.794353,94.6905331 C207.402656,95.2011517 206.999445,95.7117626 206.584707,96.2223812 C205.294412,97.8006568 204.050218,99.4137231 202.852087,101.061629 C201.653956,102.709534 200.548005,104.438648 199.534202,106.249023 C199.211628,106.573962 198.958181,106.922106 198.773853,107.293465 C198.589525,107.386305 198.39368,107.444329 198.186311,107.467539 C197.978942,107.490749 197.737016,107.548773 197.460524,107.641612 C197.36836,107.734452 197.253157,107.989757 197.114911,108.407536 C197.207075,108.639636 197.287717,108.871732 197.35684,109.103831 C197.425963,109.33593 197.506605,109.591236 197.598769,109.869755 C197.230113,109.962595 196.884504,110.043828 196.56193,110.113458 C196.239356,110.183088 195.916787,110.171483 195.594214,110.078643 C194.672574,109.892964 193.843111,109.533215 193.1058,108.999387 C192.368488,108.465558 191.815513,107.664827 191.446857,106.59717 C191.216448,105.761613 191.158846,104.868044 191.274051,103.916436 C191.389256,102.964829 191.492939,102.024841 191.585103,101.096443 C191.815512,99.750267 192.045919,98.4389253 192.276329,97.1623789 C192.506738,95.8858324 192.760185,94.5977004 193.036677,93.297944 C193.119605,92.8921977 193.20634,92.487987 193.296881,92.085311 C193.202585,92.0654642 193.105308,92.0424993 193.007577,92.0187811 C192.152854,91.8113488 191.332795,91.5232527 190.547374,91.1544841 C190.270167,91.3388684 190.120015,91.5347737 190.096914,91.7422061 C190.073814,91.9496384 190.062263,92.1685915 190.062263,92.3990718 C190.108465,93.3209933 190.096914,94.2544248 190.027613,95.1993943 C189.958311,96.1443638 189.785059,97.1008429 189.507851,98.0688605 C189.276845,98.4376291 189.034292,98.8063921 188.780186,99.1751607 C188.526079,99.5439293 188.283526,99.9818354 188.05252,100.488892 C188.05252,100.62718 188.06407,100.77699 188.087171,100.938327 C188.110271,101.099663 188.144922,101.295568 188.191123,101.526049 C187.960117,101.940913 187.775314,102.367296 187.636711,102.805208 C187.498107,103.243121 187.313305,103.646456 187.082299,104.015224 C186.435481,104.89105 185.800224,105.778386 185.176507,106.677259 C184.552791,107.576133 183.848232,108.371278 183.062812,109.062719 C179.828725,111.598003 176.317484,112.1281 172.528983,110.653026 C172.297977,110.560833 172.032324,110.434071 171.732016,110.272735 C171.431708,110.111399 171.166055,109.984636 170.935048,109.892444 C170.288231,109.477579 169.745375,109.108816 169.306463,108.786144 C168.867551,108.463471 168.497947,108.117756 168.197639,107.748987 C167.897331,107.380219 167.620128,106.930789 167.366021,106.400684 C167.111914,105.870579 166.823161,105.21372 166.499752,104.430087 C166.340407,103.031038 166.301967,101.681353 166.384434,100.381011 C165.677945,101.202495 164.983558,102.03379 164.300552,102.873723 C162.934816,104.553247 161.591863,106.290263 160.271652,108.084823 C159.907456,108.452938 159.577408,108.890068 159.281498,109.396226 C158.985589,109.902384 158.655541,110.454548 158.291345,111.052735 C158.109247,111.144764 157.927151,111.121757 157.745053,110.983714 C157.562955,110.845671 157.312574,110.77665 156.993902,110.77665 C156.675231,110.868679 156.356564,110.983713 156.037892,111.121756 C155.71922,111.259799 155.377792,111.374833 155.013595,111.466862 C154.785973,111.374833 154.558354,111.317316 154.330731,111.294309 C154.103108,111.271302 153.875489,111.213785 153.647866,111.121756 C152.555278,110.753641 151.690325,110.17847 151.052982,109.396226 C150.415638,108.613982 149.983162,107.693708 149.755539,106.635378 C149.527916,105.669076 149.391345,104.691286 149.34582,103.701977 C149.300296,102.712668 149.323058,101.757884 149.414107,100.837597 C149.505156,99.7332524 149.641727,98.6404276 149.823825,97.5590901 C150.005924,96.4777525 150.142495,95.3849277 150.233544,94.280583 C150.30326,93.6182052 150.381516,92.9569096 150.468313,92.2966942 C150.04004,92.221063 149.600033,92.1278939 149.150434,92.0187811 C148.295712,91.8113488 147.475652,91.5232527 146.690231,91.1544841 C146.413024,91.3388684 146.262872,91.5347737 146.239771,91.7422061 C146.216671,91.9496384 146.205121,92.1685915 146.205121,92.3990718 C146.251322,93.3209933 146.239772,94.2544248 146.17047,95.1993943 C146.101168,96.1443638 145.927916,97.1008429 145.650708,98.0688605 C145.419702,98.4376291 145.177149,98.8063921 144.923043,99.1751607 C144.668936,99.5439293 144.426383,99.9818354 144.195377,100.488892 C144.195377,100.62718 144.206927,100.77699 144.230028,100.938327 C144.253128,101.099663 144.287779,101.295568 144.33398,101.526049 C144.102974,101.940913 143.918172,102.367296 143.779568,102.805208 C143.640964,103.243121 143.456162,103.646456 143.225156,104.015224 C142.578339,104.89105 141.943081,105.778386 141.319365,106.677259 C140.695648,107.576133 139.99109,108.371278 139.205669,109.062719 C135.971582,111.598003 132.460341,112.1281 128.67184,110.653026 C128.440834,110.560833 128.175181,110.434071 127.874873,110.272735 C127.574565,110.111399 127.308912,109.984636 127.077906,109.892444 C126.431088,109.477579 125.888232,109.108816 125.44932,108.786144 C125.010408,108.463471 124.640804,108.117756 124.340496,107.748987 C124.040188,107.380219 123.762985,106.930789 123.508878,106.400684 C123.254771,105.870579 122.966018,105.21372 122.642609,104.430087 C122.411603,102.40186 122.434703,100.477377 122.711911,98.6565825 C122.989118,96.8357876 123.474224,95.0495915 124.167242,93.2979408 C124.81406,91.6384821 125.530168,90.0712391 126.315589,88.5961648 C127.10101,87.1210905 127.909519,85.6921336 128.741142,84.3092514 C129.06455,83.8021946 129.376404,83.3642885 129.676712,82.9955199 C129.97702,82.6267513 130.288874,82.2579883 130.612282,81.8892197 C130.88949,81.5665472 131.189793,81.3014987 131.513202,81.0940664 C131.83661,80.8866341 132.229315,80.7598718 132.691327,80.7137757 C133.707754,81.2208325 134.677966,81.7624532 135.60199,82.3386541 C136.526015,82.9148551 137.496226,83.4795235 138.512654,84.0326764 C138.74366,83.802196 138.951562,83.6062906 139.136367,83.4449544 C139.321172,83.2836181 139.529075,83.0877127 139.760081,82.8572324 C140.545502,83.272097 141.365561,83.6639078 142.220284,84.0326764 C143.075007,84.4014449 143.895066,84.8163034 144.680487,85.2772641 C145.604512,85.7843209 146.505423,86.2337509 147.383246,86.6255675 C148.26107,87.0173841 149.13888,87.4207187 150.016703,87.8355834 C150.367977,88.0005123 150.730799,88.1493046 151.105173,88.2819611 L151.189554,87.8271007 C151.599275,85.6874327 152.054514,83.5593003 152.555283,81.4426396 C153.921019,75.6448297 156.128925,70.1922093 159.179069,65.0846149 C159.406691,64.7165 159.63431,64.3829008 159.861933,64.0838075 C160.089556,63.7847141 160.317175,63.4741218 160.544798,63.1520212 C160.681371,63.0139782 160.829324,62.8874405 160.988659,62.7724046 C161.147995,62.6573687 161.31871,62.5308311 161.500808,62.392788 Z M121.310192,57.8377314 C121.818845,57.9300952 122.24657,58.1725463 122.593379,58.5650921 C122.940189,58.9576379 123.344793,59.2693608 123.807205,59.5002701 C124.315859,59.7773612 124.789824,60.0429029 125.229115,60.2969032 C125.668407,60.5509034 126.119252,60.8164451 126.581664,61.0935363 C126.674147,61.3244456 126.755067,61.5322608 126.824429,61.7169882 C126.893791,61.9017157 126.974712,62.1095309 127.067194,62.3404402 C126.851402,62.740683 126.645888,63.146053 126.450648,63.5565557 L126.165495,64.17616 C125.888048,64.7996151 125.587485,65.4115155 125.263796,66.0118797 C124.015283,68.1824271 122.928631,70.3067608 122.003807,72.3849445 C121.818842,72.7543993 121.62232,73.0892128 121.414234,73.3893949 C121.206149,73.689577 120.917146,74.1167528 120.547216,74.6709351 C120.559537,74.6094098 120.570216,74.5552616 120.579254,74.5084904 C120.078593,76.0387912 119.489907,77.5361011 118.813179,79.0004628 C118.119561,80.5013732 117.541554,82.0138064 117.079142,83.5378078 C114.535875,83.8610808 112.455052,83.1683633 110.83661,81.4596345 C110.605404,80.7207247 110.512922,79.9818261 110.559164,79.2429163 C110.605405,78.5040066 110.721006,77.7766532 110.905971,77.0608344 C111.090936,76.3450155 111.310578,75.6292075 111.564905,74.9133886 C111.819232,74.1975698 112.015754,73.4702164 112.154478,72.7313067 C112.061995,72.638943 111.957954,72.5812165 111.842351,72.5581256 C111.726748,72.5350346 111.599586,72.4773082 111.460863,72.3849445 C111.322139,72.7543993 111.194978,73.0892128 111.079375,73.3893949 C110.963772,73.689577 110.81349,73.9551187 110.628525,74.186028 C110.489802,74.509301 110.3164,74.7748427 110.108314,74.9826611 C109.900229,75.1904794 109.680586,75.4560212 109.44938,75.7792942 C108.940727,76.6105676 108.420521,77.4302834 107.888747,78.2384659 C107.356973,79.0466484 106.836767,79.8432736 106.328114,80.6283652 C105.079601,82.5218214 103.992949,84.4729757 103.068124,86.4818866 C102.1433,88.4907975 101.21849,90.5112236 100.293666,92.5432254 C100.201183,92.681771 100.154943,92.9126768 100.154943,93.2359498 C100.06246,93.6054047 100.00466,93.9979446 99.9815389,94.4135813 C99.9584183,94.8292181 99.8543771,95.221758 99.6694123,95.5912129 C99.2070001,96.7919412 98.9179969,98.0041968 98.8023938,99.2280161 C98.6867908,100.451835 98.5133889,101.687182 98.2821828,102.934092 C98.2359416,103.303547 98.1897011,103.707632 98.1434598,104.14636 C98.0972186,104.585087 98.0278578,105.058444 97.9353754,105.566445 C97.9816166,105.889718 98.0278572,106.236076 98.0740984,106.605531 C98.1203396,106.974986 98.1897004,107.344436 98.2821828,107.71389 L98.5596287,109.099339 C98.6521111,109.561158 98.7677124,110.02297 98.9064361,110.484788 C99.0914009,110.854243 99.3919643,111.246783 99.8081352,111.66242 C100.501753,111.43151 101.11444,111.131333 101.646214,110.761878 C102.177988,110.392423 102.721314,109.999883 103.276209,109.584246 C104.108551,109.076246 104.89464,108.464345 105.634499,107.748527 C106.374358,107.032708 107.091087,106.305354 107.784705,105.566445 C109.218182,104.134807 110.582278,102.633919 111.877032,101.063736 C113.171786,99.4935526 114.4434,97.9003024 115.691913,96.2839373 C116.061842,95.729755 116.397086,95.175581 116.697654,94.6213987 C116.998222,94.0672164 117.264105,93.4668612 117.495311,92.8203151 C117.587793,92.6817696 117.680275,92.5201355 117.772757,92.335408 C117.865239,92.1506806 117.95772,91.9890465 118.050203,91.8505009 L118.258287,91.6426836 C118.304528,91.5965018 118.39701,91.52723 118.535733,91.4348663 C119.18311,91.6657756 119.853598,91.8966814 120.547216,92.1275907 L122.62806,92.8203151 C122.813025,92.9126789 122.963307,93.0281318 123.07891,93.1666774 C123.194513,93.3052229 123.344794,93.466857 123.529759,93.6515845 C123.252312,94.1595849 123.009549,94.6444872 122.801464,95.1063058 C122.593378,95.5681244 122.466217,96.0530266 122.419976,96.5610271 C122.419976,96.7919364 122.362175,97.0228422 122.246572,97.2537515 C122.130969,97.4846608 121.980687,97.7155666 121.795722,97.9464759 C121.425793,98.4544764 121.055869,98.9393786 120.685939,99.4011972 C120.316009,99.8630158 119.992326,100.371009 119.714878,100.925191 C119.483672,101.479373 119.229349,102.010457 118.951902,102.518457 C118.674455,103.026458 118.350771,103.51136 117.980841,103.973178 C117.194741,104.896816 116.489573,105.820439 115.865316,106.744076 C115.24106,107.667713 114.535892,108.568246 113.749791,109.445701 C113.102414,110.046066 112.512848,110.669511 111.981074,111.316057 C111.4493,111.962603 110.836613,112.539868 110.142995,113.047869 C109.773065,113.278778 109.414701,113.54432 109.067892,113.844502 C108.721083,114.144684 108.362719,114.410225 107.992789,114.641135 C107.391653,115.01059 106.767406,115.322312 106.120029,115.576313 C105.472652,115.830313 104.802165,115.957311 104.108547,115.957311 C103.831099,115.864947 103.542096,115.841857 103.241528,115.888039 C102.94096,115.934221 102.651957,115.980402 102.37451,116.026584 C100.571102,116.118947 98.8948836,115.899587 97.3458029,115.368495 C95.7967222,114.837404 94.3054655,114.110051 92.8719878,113.186413 C91.8084399,112.493685 90.9876707,111.650879 90.4096555,110.657969 C89.8316403,109.665059 89.4039155,108.591347 89.1264682,107.436801 C88.7102973,106.18989 88.502215,104.919908 88.502215,103.626816 C88.4097325,102.287542 88.4328528,100.948288 88.5715764,99.6090146 C88.7103001,98.2697406 88.8952622,96.9304868 89.1264682,95.5912129 C89.4039155,94.1133934 89.7622795,92.6817772 90.2015711,91.2963214 C90.6408626,89.9108656 91.1610685,88.5254306 91.7622042,87.1399748 C92.2708576,86.0316102 92.8257438,84.9463528 93.4268796,83.88417 L95.2302779,80.6976376 C95.7389313,79.8663642 96.2591371,79.0466484 96.7909111,78.2384659 C97.3226851,77.4302834 97.8660112,76.6105676 98.4209057,75.7792942 C98.9295591,74.9480207 99.4960055,74.1513956 100.120262,73.3893949 C100.744518,72.6273942 101.380325,71.8769502 102.027702,71.1380405 C102.628838,70.9994949 103.160604,70.8378608 103.623016,70.6531334 L103.34557,69.2676845 C105.010254,67.2818646 106.767394,65.3422556 108.617042,63.4487993 C110.466691,61.5553431 112.686236,60.008274 115.275744,58.8075456 L116.801696,58.8075456 C117.079144,58.8537275 117.345027,58.9229992 117.599353,59.015363 C117.85368,59.1077267 118.142683,59.200089 118.466372,59.2924527 C118.975025,59.0615434 119.40275,58.7382753 119.749559,58.3226385 C120.096368,57.9070018 120.616574,57.7453677 121.310192,57.8377314 Z M265.70277,79.4051337 C266.356716,79.543314 266.963942,79.7390664 267.524467,79.992397 C268.084992,80.2457275 268.575443,80.4875393 268.995837,80.7178398 C269.229389,81.0863205 269.299454,81.3741918 269.206033,81.5814622 C269.112612,81.7887326 269.019193,81.9844851 268.925772,82.1687255 C269.065903,82.445086 269.194355,82.7099276 269.311131,82.9632581 C269.427907,83.2165886 269.579713,83.4584005 269.766555,83.6887009 C269.731522,83.8268812 269.703058,83.9456286 269.681163,84.0449451 L269.661457,84.1377846 C269.638102,84.2529348 269.603069,84.4026279 269.556359,84.5868682 C269.416228,85.968671 269.194357,87.3159085 268.890739,88.6286212 C268.587122,89.9413338 268.271831,91.2655416 267.944858,92.6012843 C267.571175,94.1212674 267.197498,95.6297128 266.823814,97.1266658 C266.450131,98.6236188 266.076454,100.132064 265.70277,101.652047 C265.329087,103.264151 264.990442,104.87623 264.686824,106.488333 C264.383207,108.100436 264.161336,109.735545 264.021204,111.393708 C263.974494,111.485828 263.951139,111.600977 263.951139,111.739157 C263.951139,111.877337 263.927784,112.015516 263.881074,112.153696 C263.507391,112.337936 263.157068,112.4646 262.830095,112.53369 C262.503122,112.60278 262.1528,112.683384 261.779117,112.775504 C260.471225,112.591264 259.280128,112.13067 258.205789,111.393708 C257.972237,110.518566 257.855463,109.654953 257.855463,108.802841 C257.855463,107.950729 257.902172,107.110145 257.995593,106.281063 C257.995593,105.498042 258.030625,104.692002 258.100691,103.862921 C258.170757,103.033839 258.229144,102.15871 258.275854,101.237509 C257.902171,101.375689 257.63359,101.548412 257.470104,101.755682 C257.306617,101.962952 257.108101,102.181735 256.874549,102.412035 C256.640997,102.642335 256.430803,102.872632 256.243962,103.102933 C256.05712,103.333233 255.846927,103.56353 255.613375,103.793831 C255.379823,104.024131 255.157952,104.208369 254.947755,104.346549 C254.737558,104.48473 254.539042,104.645937 254.3522,104.830178 C254.071938,105.060478 253.838389,105.290775 253.651548,105.521076 C253.464706,105.751376 253.254512,105.935614 253.02096,106.073794 C252.367015,106.165914 251.724757,106.246518 251.094166,106.315608 C250.463576,106.384699 249.821317,106.465302 249.167372,106.557423 C248.93382,106.603483 248.700271,106.603483 248.466719,106.557423 C248.233167,106.511363 247.976264,106.442273 247.696002,106.350153 C246.808504,106.165913 245.979407,105.889556 245.208685,105.521076 C244.437964,105.152595 243.678931,104.715031 242.931565,104.20837 C242.511171,103.609588 242.207558,103.022331 242.020716,102.44658 C241.833875,101.870829 241.717101,101.260542 241.67039,100.6157 C241.576969,99.4641981 241.612002,98.3357427 241.775488,97.2303005 C241.938975,96.1248583 242.160846,95.0194326 242.441108,93.9139904 C242.814791,92.6703679 243.223501,91.4728234 243.66725,90.3213211 C244.110999,89.1698188 244.589773,88.0183338 245.103587,86.8668314 C245.38385,86.3601704 245.675785,85.9110912 245.979403,85.5195805 C246.283021,85.1280697 246.715085,84.8401984 247.27561,84.655958 C247.415741,84.0111167 247.60258,83.5505227 247.836132,83.2741622 C247.976263,83.0438617 248.139747,82.8826538 248.326589,82.7905336 C248.51343,82.6984134 248.723624,82.5602352 248.957176,82.3759948 C249.938094,82.7444756 250.848934,83.1705251 251.689721,83.654156 C252.530508,84.137787 253.371282,84.6559553 254.21207,85.2086764 C254.352201,85.2547365 254.468975,85.4389741 254.562396,85.7613947 C254.422265,86.6365365 254.130329,87.3965166 253.68658,88.0413579 C253.242832,88.6861992 252.880831,89.40012 252.600569,90.1831415 C252.367017,90.920103 252.121791,91.6570534 251.864884,92.3940149 C251.607977,93.1309764 251.362751,93.8909565 251.129199,94.6739781 C250.989068,95.4569997 250.837261,96.2284947 250.673775,96.9884862 C250.510288,97.7484777 250.381837,98.5199727 250.288416,99.3029943 C250.568678,99.5332948 250.767194,99.6023839 250.88397,99.5102637 C251.000746,99.4181435 251.129198,99.3260247 251.269329,99.2339045 C252.063406,98.5890632 252.775729,97.909687 253.406319,97.1957556 C254.03691,96.4818242 254.632458,95.7333589 255.192983,94.9503373 C256.314033,93.4303542 257.411711,91.8988791 258.48605,90.355866 C259.560389,88.8128529 260.634712,87.2353184 261.709051,85.6232151 C262.129445,85.0244339 262.503122,84.3911172 262.830095,83.7232458 C263.157068,83.0553745 263.507391,82.399028 263.881074,81.7541867 C264.114626,81.3396459 264.359852,80.9366261 264.616759,80.5451153 C264.873666,80.1536045 265.235666,79.7736145 265.70277,79.4051337 Z M281.944305,62.392788 C283.036893,62.7148886 284.118084,63.0369843 285.187911,63.3590848 C286.257737,63.6811854 287.316166,64.0723016 288.36323,64.5324453 C288.499804,64.9005602 288.636376,65.2341593 288.772949,65.5332527 C288.909523,65.8323461 289.068856,66.1659452 289.250954,66.5340601 C288.886758,68.0065198 288.522567,69.4444471 288.158371,70.8478852 C287.794175,72.2513233 287.452746,73.6892506 287.134074,75.1617103 C286.860927,76.5881556 286.508118,78.003076 286.075635,79.4065141 C285.643152,80.8099522 285.290342,82.2248727 285.017195,83.651318 C284.926146,84.0194329 284.778193,84.3760389 284.573333,84.7211466 C284.368472,85.0662544 284.174996,85.468874 283.992898,85.9290177 L284.129471,86.3431449 C283.21898,89.6561791 282.399551,92.9691636 281.671159,96.2821978 C281.352487,97.3865426 281.056582,98.4793673 280.783435,99.5607049 C280.510288,100.642042 280.237145,101.71186 279.963998,102.770191 C279.918473,103.000263 279.907092,103.230331 279.929854,103.460403 C279.945029,103.613784 279.955146,103.767164 279.960204,103.920544 L279.963998,104.150615 C280.237145,104.150615 280.442002,104.058587 280.578576,103.87453 C280.715149,103.690473 280.851721,103.529425 280.988294,103.391382 C281.580113,102.701166 282.126399,102.022464 282.627169,101.355256 C283.127939,100.688048 283.674225,100.05536 284.266044,99.4571731 C284.766814,98.7669576 285.324481,98.1112628 285.939062,97.4900689 C286.553643,96.8688749 287.179596,96.2822006 287.816939,95.7300282 C288.044562,95.4079277 288.329086,95.1663559 288.67052,95.0053056 C289.011953,94.8442553 289.364763,94.6486972 289.728959,94.4186254 C290.411827,94.2805823 290.958113,94.4876438 291.367834,95.0398162 C291.32231,95.1318449 291.299548,95.2353757 291.299548,95.3504116 C291.299548,95.4654475 291.276786,95.5689783 291.231261,95.661007 C290.867065,96.0751363 290.491493,96.4662525 290.104535,96.8343674 C289.717576,97.2024824 289.342005,97.5705918 288.977809,97.9387067 C287.521024,99.5492094 286.109785,101.194198 284.744049,102.873723 C283.378313,104.553247 282.03536,106.290263 280.715149,108.084823 C280.350952,108.452938 280.020904,108.890068 279.724995,109.396226 C279.429086,109.902384 279.099038,110.454548 278.734842,111.052735 C278.552744,111.144764 278.370648,111.121757 278.18855,110.983714 C278.006452,110.845671 277.756071,110.77665 277.437399,110.77665 C277.118727,110.868679 276.800061,110.983713 276.481389,111.121756 C276.162717,111.259799 275.821288,111.374833 275.457092,111.466862 C275.286375,111.397841 275.11566,111.348232 274.944944,111.318035 L274.774228,111.294309 C274.546605,111.271302 274.318986,111.213785 274.091363,111.121756 C272.998775,110.753641 272.133822,110.17847 271.496478,109.396226 C270.859135,108.613982 270.426658,107.693708 270.199036,106.635378 C269.971413,105.669076 269.834842,104.691286 269.789317,103.701977 C269.743793,102.712668 269.766555,101.757884 269.857604,100.837597 C269.92589,100.009339 270.019784,99.18756 270.139285,98.3722476 L270.267322,97.5590901 C270.44942,96.4777525 270.585992,95.3849277 270.677041,94.280583 C270.904664,92.1179079 271.22333,89.9667686 271.633051,87.8271007 C272.042772,85.6874327 272.49801,83.5593003 272.99878,81.4426396 C274.364516,75.6448297 276.572422,70.1922093 279.622565,65.0846149 C279.850188,64.7165 280.077807,64.3829008 280.30543,64.0838075 C280.533052,63.7847141 280.760672,63.4741218 280.988294,63.1520212 C281.124868,63.0139782 281.27282,62.8874405 281.432156,62.7724046 C281.591492,62.6573687 281.762206,62.5308311 281.944305,62.392788 Z M182.780757,84.6397016 C182.552004,85.1414928 182.346129,85.5862555 182.163126,85.9740032 C181.980123,86.3617509 181.797122,86.7380887 181.614119,87.1030277 C181.431117,87.1942624 181.282429,87.2740917 181.168052,87.3425177 C181.053675,87.4109438 180.950738,87.4679647 180.859236,87.513582 C180.584732,88.1522253 180.333106,88.8136674 180.104353,89.497928 C179.875599,90.1821887 179.646849,90.8208224 179.418095,91.4138483 C179.006339,92.3718132 178.606026,93.341168 178.217144,94.3219416 C177.828263,95.3027152 177.51945,96.340495 177.290697,97.435312 L177.016194,98.5301236 C176.238431,100.309201 175.735181,102.384761 175.506427,104.756865 C175.506427,104.848099 175.529302,104.927928 175.575053,104.996355 C175.620803,105.064781 175.666553,105.14461 175.712304,105.235845 L175.986807,105.372696 C176.078309,105.418313 176.169809,105.486738 176.26131,105.577973 C177.313577,104.802478 178.285766,104.01559 179.177905,103.217286 C180.070044,102.418982 180.859233,101.449627 181.545494,100.309192 C182.277505,99.1231406 182.815069,97.8914899 183.158199,96.6142033 C183.50133,95.3369168 183.741517,94.036841 183.87877,92.7139371 C184.061772,90.7067725 184.061772,89.0873798 183.87877,87.8557106 C183.695767,86.6240415 183.329766,85.5520492 182.780757,84.6397016 Z M138.923615,84.6397016 C138.694861,85.1414928 138.488986,85.5862555 138.305983,85.9740032 C138.12298,86.3617509 137.93998,86.7380887 137.756977,87.1030277 C137.573974,87.1942624 137.425286,87.2740917 137.310909,87.3425177 C137.196532,87.4109438 137.093595,87.4679647 137.002093,87.513582 C136.727589,88.1522253 136.475964,88.8136674 136.24721,89.497928 C136.018456,90.1821887 135.789706,90.8208224 135.560952,91.4138483 C135.149196,92.3718132 134.748883,93.341168 134.360002,94.3219416 C133.97112,95.3027152 133.662307,96.340495 133.433554,97.435312 L133.159051,98.5301236 C132.381288,100.309201 131.878038,102.384761 131.649284,104.756865 C131.649284,104.848099 131.672159,104.927928 131.71791,104.996355 C131.763661,105.064781 131.809411,105.14461 131.855161,105.235845 L132.129664,105.372696 C132.221166,105.418313 132.312666,105.486738 132.404167,105.577973 C133.456434,104.802478 134.428623,104.01559 135.320762,103.217286 C136.212901,102.418982 137.00209,101.449627 137.688351,100.309192 C138.420363,99.1231406 138.957926,97.8914899 139.301056,96.6142033 C139.644187,95.3369168 139.884374,94.036841 140.021627,92.7139371 C140.20463,90.7067725 140.20463,89.0873798 140.021627,87.8557106 C139.838624,86.6240415 139.472623,85.5520492 138.923615,84.6397016 Z M101.623106,4.15822013 C102.266804,4.7543219 102.944976,5.30456143 103.657641,5.80895524 C104.370307,6.31334904 105.071467,6.86358857 105.761144,7.45969034 C105.991036,7.64310627 106.186441,7.88383607 106.347365,8.18188695 C106.50829,8.47993784 106.703695,8.74359428 106.933587,8.97286419 C106.933587,9.43140401 106.945082,9.88993696 106.968071,10.3484768 C106.99106,10.8070166 107.025544,11.2884762 107.071522,11.79287 C107.531306,11.9304319 107.9566,11.9075053 108.347417,11.7240894 C108.738233,11.5406734 109.11755,11.4489668 109.485377,11.4489668 C110.404945,11.4489668 111.255533,11.3801869 112.037166,11.242625 C112.312352,11.2151809 112.571065,11.1918434 112.813308,11.1726123 C112.811807,11.1725175 112.81213,11.1718524 112.812454,11.1711874 C113.410155,9.94346445 114.076811,8.72734209 114.812443,7.52278377 C115.226236,6.92050462 115.685998,6.37614508 116.191745,5.88968884 C116.697492,5.4032326 117.34116,5.04418695 118.122769,4.81254112 C118.306677,4.90519945 118.51357,4.98627427 118.743455,5.05576802 C118.97334,5.12526177 119.180233,5.25266507 119.364141,5.43798173 C120.007819,5.94760256 120.685969,6.45721574 121.398612,6.96683656 C122.111255,7.47645739 122.697453,8.12505598 123.157223,8.9126518 C123.065269,9.37594346 122.973316,9.74657123 122.881362,10.0245462 C122.513546,10.812142 122.180218,11.6113082 121.881368,12.4220686 C121.737491,12.8123971 121.590951,13.2000383 121.441746,13.5849949 C121.592096,13.900109 121.721624,14.2436306 121.830521,14.6128758 C121.482441,14.8653393 121.150699,15.0472144 120.835288,15.1585034 L120.950339,14.8195909 C120.306661,16.6727576 119.708969,18.5374785 119.157245,20.4138097 C118.605522,22.290141 118.030818,24.1780262 117.433117,26.077522 L116.191745,30.247126 C115.777952,31.637001 115.364166,33.0036909 114.950373,34.3472367 C114.674511,35.2738201 114.410147,36.1888074 114.157274,37.0922261 C113.904401,37.9956448 113.663025,38.9106321 113.43314,39.8372154 C113.387163,40.0225321 113.375669,40.207846 113.398658,40.3931627 C113.421646,40.5784793 113.43314,40.7869574 113.43314,41.0186033 C113.938887,40.5089824 114.375662,40.0225335 114.743478,39.5592418 C115.111293,39.0959502 115.456116,38.6095012 115.777954,38.0998804 C118.766458,34.1619013 121.915834,30.3629667 125.226176,26.7029626 C125.548015,26.3323292 125.881343,25.9385372 126.226171,25.5215747 C126.570998,25.1046123 127.042255,24.8034772 127.639956,24.6181605 C128.421564,24.9887939 129.191667,25.4173322 129.950287,25.9037885 C130.708907,26.3902447 131.47901,26.7956188 132.260619,27.119923 C132.628435,27.4905563 132.858316,27.8727662 132.95027,28.2665641 C133.042224,28.660362 133.111189,29.0425719 133.157166,29.4132052 C133.157166,30.2934594 133.076707,31.138954 132.915788,31.9497144 C132.754868,32.7604748 132.559469,33.5596409 132.329584,34.3472367 C132.007745,35.5054659 131.685911,36.6520955 131.364072,37.7871601 C131.042233,38.9222247 130.697411,40.0456901 130.329595,41.1575901 C130.283618,41.3892359 130.26063,41.597714 130.26063,41.7830307 C130.26063,41.9683474 130.329595,42.1768255 130.467526,42.4084713 C130.55948,42.3621421 130.685914,42.3158137 130.846834,42.2694845 C131.007753,42.2231553 131.134188,42.1536626 131.226142,42.0610043 C132.697405,40.5321418 134.237611,38.980138 135.846805,37.4049464 C136.122667,37.1269714 136.398525,36.9069112 136.674387,36.7447591 L136.731631,36.7105161 C136.810697,36.4379266 136.891023,36.1651288 136.972611,35.8921227 C137.67521,33.3915132 138.752511,30.7983274 140.204548,28.1124876 C140.438747,27.5567966 140.766621,27.001114 141.188181,26.445423 L142.347462,26.0633873 C142.698761,25.9476184 143.061765,25.8434279 143.436484,25.7508127 C143.670684,25.8434279 143.89317,25.9128882 144.103949,25.9591958 C144.314729,26.0055034 144.513795,26.0749637 144.701155,26.1675789 C145.087584,26.3412323 145.447662,26.5148838 145.781394,26.6885363 L146.106345,26.8621892 C146.527904,27.0937271 146.996295,27.3252615 147.511534,27.5567994 C147.605214,27.6957222 147.698892,27.8462196 147.792572,28.0082961 C147.886252,28.1703726 147.97993,28.2977166 148.07361,28.3903317 C148.07361,29.3164834 147.862834,30.1152772 147.441275,30.7867372 C147.019716,31.4581971 146.738681,32.1875306 146.598161,32.9747595 C146.457641,33.7619884 146.258575,34.5028986 146.000955,35.1975124 C145.743336,35.8921261 145.49743,36.6330363 145.263231,37.4202652 C145.029031,38.1611866 144.806545,38.8789433 144.595766,39.5735571 C144.384986,40.2681708 144.1625,40.9859276 143.9283,41.7268489 C143.694101,42.3751551 143.413066,43.0697584 143.085187,43.8106797 C142.757307,44.5516011 142.61679,45.4082785 142.66363,46.3807377 C143.272548,45.7787391 143.951717,44.9799453 144.701155,43.9843323 C145.450593,42.9887193 146.22344,41.9699677 147.019718,40.9280471 C147.815996,39.8861265 148.588843,38.8789517 149.338281,37.9064924 C150.087719,36.9340332 150.766887,36.1468161 151.375806,35.5448175 L151.414437,35.5615018 C151.580029,34.8616362 151.749677,34.1563603 151.923383,33.4456715 C152.24612,32.0623685 152.672587,30.7367231 153.202798,29.4686954 C153.733009,28.2006676 154.320842,26.9211316 154.966316,25.6300488 C155.242948,25.0306176 155.611785,24.4311953 156.072838,23.831764 C156.211154,23.6012135 156.37252,23.3937212 156.556941,23.2092808 L157.041044,22.7251271 C157.409886,22.5406867 157.75567,22.4599953 158.078407,22.4830503 C158.401144,22.5061054 158.677772,22.5637421 158.908298,22.6559623 C159.645983,22.8865128 160.37213,23.1170599 161.086762,23.3476104 C161.801394,23.5781609 162.596698,23.8548173 163.472698,24.177588 C163.611014,24.3620284 163.783907,24.5695207 163.99138,24.8000712 C164.198854,25.0306217 164.394799,25.2611687 164.57922,25.4917192 C164.57922,25.7222697 164.590746,25.9412894 164.613798,26.1487849 C164.636851,26.3562803 164.625325,26.5753 164.57922,26.8058505 C164.210377,28.5580342 163.841541,30.2756096 163.472698,31.9586282 C163.103856,33.6416468 162.596706,35.2900581 161.951232,36.9039116 C161.766811,37.5955631 161.697654,38.2410948 161.743759,38.8405261 C161.328811,39.1171867 161.282707,39.2555149 161.605444,39.2555149 C161.640023,39.2555149 161.668118,39.2360625 161.68973,39.1971572 L161.70918,39.1517677 C161.732233,39.0826025 161.789864,39.0019111 161.882074,38.9096909 C162.112601,38.6791404 162.35465,38.4831754 162.608229,38.3217901 C162.861808,38.1604047 163.103857,37.9644397 163.334383,37.7338892 C166.423437,34.4139621 169.742968,31.232413 173.293074,28.1891465 C174.030759,27.5436051 174.779959,26.9211281 175.540696,26.3216969 C176.301433,25.7222656 177.073685,25.0997886 177.857475,24.4542472 C177.949685,24.4542472 178.076473,24.4427198 178.237841,24.4196648 C178.39921,24.3966097 178.54905,24.4081371 178.687366,24.4542472 C179.655576,24.6847977 180.623773,24.9383994 181.591984,25.21506 C182.560195,25.4917206 183.482287,25.7453224 184.358287,25.9758728 C184.727129,26.3447536 184.992231,26.7251562 185.153599,27.1170921 C185.314967,27.5090279 185.395651,27.9009579 185.395651,28.2928937 C185.395651,28.6848296 185.372598,29.0652322 185.326493,29.434113 L185.188178,30.5407498 C184.911546,31.3246215 184.657971,32.0854267 184.427444,32.8231883 C184.196918,33.5609499 183.92029,34.2987004 183.597554,35.0364619 C183.367027,35.7281134 183.14803,36.4312819 182.940557,37.1459884 C182.733083,37.8606949 182.491034,38.5638634 182.214402,39.2555149 C182.122191,39.6243957 182.00693,40.1546539 181.868614,40.8463053 C181.730298,41.5379568 181.580458,42.2526526 181.41909,42.9904142 C181.257721,43.7281758 181.107881,44.4428716 180.969566,45.1345231 C180.83125,45.8261746 180.715988,46.3794874 180.623778,46.7944783 C180.900409,46.7022581 181.349929,46.3218555 181.97235,45.6532591 C182.594772,44.9846627 183.251762,44.2353848 183.943341,43.405403 C184.634921,42.5754212 185.268859,41.7915613 185.845175,41.0537997 C186.421491,40.3160382 186.801854,39.8318894 186.986275,39.6013389 L188.369426,37.9413836 C188.486912,37.8238855 188.607391,37.7063882 188.730864,37.5888909 C188.816738,37.2817311 188.910166,36.9792759 189.010227,36.6810389 C189.583725,34.9717112 190.283381,33.3086065 191.109218,31.6916749 C191.980934,30.1209413 192.967335,28.7234714 194.068451,27.4992232 C195.169566,26.2749749 196.500061,25.2470838 198.059974,24.415519 C198.885811,23.9073405 199.734574,23.5377617 200.606291,23.3067714 C201.478007,23.0757812 202.487348,23.0757812 203.634343,23.3067714 C204.4143,23.907346 205.217184,24.5310103 206.043021,25.177783 C206.868857,25.8245556 207.671742,26.5868119 208.451699,27.4645748 C208.681098,27.3259807 208.899024,27.1873886 209.105483,27.0487945 C209.311942,26.9102003 209.529868,26.7716083 209.759267,26.6330141 C210.080425,26.7254102 210.390109,26.8062556 210.688328,26.8755527 C210.986547,26.9448497 211.296231,27.0487938 211.61739,27.1873879 C211.846789,27.0487938 212.087654,26.9333004 212.339993,26.8409043 C212.592332,26.7485082 212.856137,26.6099161 213.131416,26.425124 L214.645442,27.3952781 C215.15012,27.7186644 215.631851,28.1344406 216.090649,28.6426191 C216.090649,28.9198074 216.067709,29.1507941 216.021829,29.3355863 C216.021829,29.4279824 215.98742,29.5203771 215.9186,29.6127732 C215.84978,29.7051693 215.792432,29.8206627 215.746552,29.9592568 C215.838311,31.160406 215.884191,32.3615372 215.884191,33.5626864 C215.884191,34.7638356 215.769493,35.9649668 215.540094,37.166116 C215.448334,37.5357003 215.402455,37.9283778 215.402455,38.3441602 C215.402455,38.7599427 215.379515,39.1526202 215.333636,39.5222045 C215.287756,39.7531948 215.276286,39.9841815 215.299226,40.2151718 C215.322166,40.446162 215.287756,40.6771487 215.195997,40.908139 C214.920718,41.7859019 214.714262,42.6636516 214.576623,43.5414144 C214.438983,44.4191773 214.278406,45.3200257 214.094887,46.2439866 C214.003127,46.9831554 213.85402,47.6992143 213.647561,48.392185 C213.441102,49.0851557 213.200237,49.8012147 212.924958,50.5403834 C212.695559,51.2333541 212.477633,51.9494131 212.271174,52.6885818 C212.064715,53.4277506 211.846789,54.1438095 211.61739,54.8367802 C211.387991,55.0215724 211.204474,55.1948125 211.066835,55.3565056 C210.929195,55.5181988 210.768618,55.6683402 210.585099,55.8069343 C210.3557,56.2689148 210.137774,56.7424377 209.931315,57.2275171 C209.724856,57.7125966 209.621628,58.2323168 209.621628,58.7866934 C208.979311,59.9878426 208.302594,61.2005231 207.591457,62.4247713 C206.88032,63.6490196 206.157724,64.8847987 205.423647,66.132146 C205.286007,66.5017304 205.079551,66.8135625 204.804272,67.0676517 C204.528993,67.321741 204.253719,67.5873758 203.97844,67.8645641 C203.749041,68.1879504 203.542585,68.5228812 203.359066,68.8693665 C203.175546,69.2158519 202.96909,69.527684 202.739691,69.8048723 C202.005614,70.5902391 201.237139,71.3409461 200.434242,72.0570158 C199.631346,72.7730855 198.679354,73.2928057 197.578239,73.616192 C197.34884,73.6623901 197.119444,73.7432354 196.890045,73.8587306 C196.660646,73.9742257 196.43125,74.0781697 196.201851,74.1705658 C195.513654,73.8933775 194.791058,73.7432361 194.034041,73.7201371 C193.277024,73.6970381 192.508549,73.5006993 191.728592,73.131115 C191.636833,72.5767384 191.568014,72.1840609 191.522134,71.9530707 C191.613894,71.8144765 191.694182,71.6643352 191.763002,71.502642 C191.831822,71.3409488 191.91211,71.2139061 192.00387,71.12151 C193.517903,69.4583804 194.779579,67.7028809 195.788935,65.8549591 C197.257089,63.2216705 198.518765,60.5191253 199.574,57.7472426 C200.629236,54.9753598 201.569758,52.1573213 202.395594,49.2930424 C202.533234,48.9119085 202.657968,48.5437719 202.7698,48.1886265 L202.87733,47.8378112 C203.014969,47.3758308 203.175546,46.8907586 203.359066,46.3825801 C203.450825,45.9205996 203.542583,45.4932741 203.634343,45.1005907 C203.726103,44.7079073 203.86374,44.2574831 204.047259,43.7493046 C203.81786,43.7955026 203.645813,43.8186013 203.531114,43.8186013 C203.416414,43.8186013 203.313186,43.8647987 203.221427,43.9571948 C202.670869,44.4653733 202.10885,44.9388961 201.535352,45.3777776 C200.961855,45.816659 200.399835,46.2901819 199.849278,46.7983604 C199.29872,47.2603409 198.713761,47.5952717 198.094384,47.8031629 C197.475006,48.0110541 196.77535,48.0457021 195.995393,47.907108 L195.513658,47.907108 C194.458422,48.0457021 193.50643,47.90711 192.657654,47.4913276 C191.808877,47.0755452 190.994523,46.590473 190.214566,46.0360964 C189.542956,45.5656484 189.02932,45.0109945 188.673654,44.3721273 C188.600116,44.4713288 188.521043,44.5759768 188.438584,44.6849519 C187.79311,45.5379887 187.090015,46.4371221 186.329278,47.3823791 C185.568541,48.3276362 184.865446,49.2267696 184.219972,50.0798064 C183.574498,50.9328433 183.136504,51.5207382 182.905978,51.8435089 C182.629346,52.2123897 182.352719,52.4544641 182.076087,52.5697393 C181.799455,52.6850146 181.522828,52.7887607 181.246196,52.8809809 C180.969564,52.9732011 180.704463,53.0884746 180.450884,53.2268049 C180.197305,53.3651352 179.978308,53.6417917 179.793887,54.0567826 C179.747781,54.1490028 179.690151,54.2296942 179.620993,54.2988594 L179.378941,54.5409362 C178.871783,54.4948261 178.376159,54.460244 177.892053,54.437189 C177.407948,54.4141339 176.912324,54.3564972 176.405165,54.264277 C175.667481,54.1259467 174.941334,53.9645638 174.226702,53.7801234 C173.51207,53.595683 172.855079,53.1576436 172.255711,52.4659921 C172.1635,51.7282305 172.036713,50.955898 171.875344,50.1489712 C171.713976,49.3420445 171.587188,48.5466572 171.494977,47.7627856 C171.356662,47.1172442 171.333609,46.3794937 171.42582,45.5495119 C171.51803,44.5811998 171.621766,43.5667929 171.737029,42.5062606 C171.852292,41.4457283 171.956028,40.3621573 172.048238,39.2555149 C172.094343,39.0249644 172.128922,38.7483079 172.151974,38.4255373 C172.175027,38.1027666 172.094344,37.8261101 171.909923,37.5955596 C171.771607,37.5955596 171.70245,37.6186143 171.70245,37.6647244 C170.91866,38.4485961 170.169461,39.2439834 169.454829,40.0509101 C168.740197,40.8578368 168.037102,41.6762788 167.345523,42.5062606 C167.114996,42.7368111 166.907526,42.9673581 166.723105,43.1979086 C166.538683,43.4284591 166.331213,43.6590061 166.100686,43.8895566 C165.316897,44.8578687 164.533119,45.8376936 163.749329,46.8290607 C162.965539,47.8204279 162.181761,48.8002528 161.397971,49.7685648 C161.305761,49.9991153 161.144395,50.1950803 160.913868,50.3564656 C160.683342,50.517851 160.475871,50.6677066 160.29145,50.8060369 C159.922608,50.9443672 159.565297,51.071168 159.219507,51.1864433 L158.28588,51.4976849 C158.19367,51.7282354 158.124513,51.9357277 158.078407,52.1201681 C158.032302,52.3046085 157.963145,52.4890461 157.870935,52.6734865 C157.686514,52.7657067 157.490569,52.8348708 157.283095,52.8809809 C157.075622,52.927091 156.856625,52.9962551 156.626098,53.0884753 C156.395572,53.1806955 156.176575,53.295969 155.969101,53.4342993 C155.761628,53.5726296 155.542631,53.7109579 155.312104,53.8492882 C154.851051,53.6648478 154.378479,53.5149922 153.894374,53.3997169 C153.410269,53.2844417 152.92617,53.1576408 152.442065,53.0193105 C151.957959,52.8809802 151.485387,52.6965426 151.024335,52.4659921 C150.563282,52.2354416 150.171393,51.8896211 149.848656,51.4285201 C149.525919,50.5063181 149.353026,49.5726026 149.329974,48.6273456 C149.306921,47.6820886 149.3415,46.679209 149.43371,45.6186767 C149.505661,45.0789892 149.58307,44.5424232 149.665937,44.0089775 L149.792855,43.2146152 L149.44806,43.6478816 C149.000157,44.2079108 148.565429,44.748401 148.14387,45.2693613 C147.581791,45.963975 147.136819,46.4733508 146.808939,46.7975039 C146.71526,46.8901191 146.633291,46.9480027 146.563031,46.9711565 C146.492771,46.9943102 146.434222,47.0521939 146.387383,47.144809 C146.012663,48.0246531 145.485722,48.8002935 144.806544,49.4717534 C144.127366,50.1432134 143.530166,50.8725469 143.014927,51.6597758 C142.687048,52.0302364 142.347464,52.3891148 141.996165,52.7364217 L140.907143,53.8130676 C139.689305,53.9519904 138.565165,53.8941067 137.534687,53.639415 C136.50421,53.3847233 135.590845,52.8637708 134.794567,52.0765419 C134.513528,51.4282358 134.349591,50.7799393 134.302751,50.1316332 C134.255911,49.483327 134.255911,48.8118771 134.302751,48.1172634 C134.429949,46.9854928 134.591687,45.863976 134.787966,44.7527032 L134.191642,45.3271942 C133.410034,45.9758025 132.651425,46.6359832 131.915793,47.3077561 C131.180162,47.979529 130.490517,48.7092024 129.84684,49.4967982 C129.433047,49.9600899 129.01926,50.4697031 128.605467,51.0256531 C128.191675,51.5816031 127.777888,52.160709 127.364095,52.7629881 C127.13421,52.8093173 126.892835,52.8440636 126.639961,52.8672282 C126.387088,52.8903928 126.145712,52.9019749 125.915828,52.9019749 C125.685943,52.9019749 125.456061,52.8903928 125.226176,52.8672282 C124.996291,52.8440636 124.789398,52.8324815 124.60549,52.8324815 C123.961813,52.6008357 123.421591,52.3112827 122.98481,51.963814 C122.548029,51.6163453 122.09976,51.3267923 121.63999,51.0951465 C121.456082,50.2612215 121.410106,49.4852196 121.50206,48.7671175 C121.594014,48.0490155 121.662978,47.3425063 121.708955,46.6475688 C121.770258,46.2151632 121.836668,45.7776144 121.908187,45.3349164 L122.019298,44.6670068 C122.134241,43.9952339 122.237687,43.3350532 122.329641,42.6864449 C122.421595,41.9915074 122.559524,41.3081625 122.743432,40.6363896 C122.92734,39.9646167 123.042281,39.2581075 123.088258,38.5168408 C122.950327,38.56317 122.835386,38.5747521 122.743432,38.5515875 C122.651478,38.5284229 122.582514,38.5400051 122.536537,38.5863342 C122.398606,38.8179801 122.283665,39.0496224 122.191711,39.2812682 C122.099757,39.5129141 121.961828,39.6982279 121.77792,39.8372154 C121.134242,40.4858238 120.571033,41.2039151 120.088275,41.9915109 C119.605516,42.7791067 119.111271,43.5666907 118.605525,44.3542865 C118.099778,45.1418824 117.605533,45.9063021 117.122774,46.6475688 C116.640016,47.3888354 116.145771,48.1532552 115.640024,48.940851 C115.134277,49.5894594 114.66302,50.2264758 114.226239,50.8519196 C113.789458,51.4773633 113.341189,52.0912156 112.881419,52.6934947 C112.605557,52.786153 112.341194,52.8440636 112.08832,52.8672282 C111.835447,52.8903928 111.594071,52.9483034 111.364187,53.0409617 C111.134302,53.2726076 111.019361,53.5042499 111.019361,53.7358957 C111.019361,53.9675416 110.973385,54.2223482 110.881431,54.5003232 C110.513615,54.5929815 110.13431,54.6972205 109.743506,54.8130435 C109.352702,54.9288664 108.904433,55.0562697 108.398686,55.1952572 C108.03087,55.0099405 107.663058,54.8297733 107.295245,54.6547532 L106.743523,54.3960831 C106.1918,54.1412726 105.640084,53.8748839 105.08836,53.5969089 C104.950429,53.5042506 104.823995,53.4231758 104.709052,53.353682 C104.59411,53.2841883 104.490663,53.2031135 104.398709,53.1104551 C104.030893,52.4618468 103.789518,51.7785019 103.674575,51.0603998 C103.559633,50.3422977 103.502162,49.6589528 103.502162,49.0103444 C103.502162,47.3888236 103.594115,45.8252377 103.778023,44.3195398 C103.961931,42.8138419 104.168824,41.3197488 104.398709,39.8372154 C104.720548,37.3354405 105.134335,34.8916136 105.640081,32.5056616 C106.145828,30.1197095 106.720532,27.7222112 107.364209,25.3130945 C108.112225,22.6749848 108.998523,20.0875769 110.023118,17.5508288 L110.469855,16.4676152 L110.435592,16.4737741 C109.924724,16.5705763 109.424075,16.672473 108.933639,16.7794656 C108.197984,16.9399546 107.439351,17.0660511 106.657718,17.1577591 C106.427826,17.2036131 106.220926,17.2150764 106.037013,17.1921494 C105.853099,17.1692224 105.646199,17.1348324 105.416307,17.0889785 C105.278372,17.3182484 105.128944,17.5589782 104.96802,17.8111751 C104.807095,18.063372 104.680657,18.3041018 104.5887,18.5333717 L104.312831,19.4963005 C104.220874,19.8172784 104.128918,20.1611781 104.036961,20.5280099 C103.623156,22.2246073 103.232345,23.9097158 102.864518,25.5833862 C102.49669,27.2570565 102.082891,28.8963118 101.623106,30.5012012 C101.301258,31.6934047 101.036886,32.8512004 100.829983,33.974623 C100.62308,35.0980455 100.381697,36.2558412 100.105826,37.4480448 C99.8759341,38.5485403 99.6805288,39.6604827 99.5196043,40.7839053 C99.3586799,41.9073279 99.1172968,42.9734169 98.7954478,43.9822046 C98.5655557,44.7617223 98.4161281,45.5526916 98.3471605,46.3551363 C98.2781929,47.157581 98.1517541,47.9485503 97.9678404,48.728068 C97.8299052,49.4158777 97.7149609,50.1266038 97.623004,50.8602675 C97.5310472,51.5939312 97.4390917,52.3963639 97.3471349,53.2675895 C96.9793075,53.4051515 96.6114857,53.5197847 96.2436583,53.6114927 C95.875831,53.7032006 95.4850203,53.7949072 95.0712145,53.8866152 C94.4275166,53.6573453 93.772334,53.3363722 93.1056469,52.9236864 C92.4389598,52.5110005 91.7607883,52.0524676 91.071112,51.5480738 C90.9331768,50.3558703 90.8182325,49.140758 90.7262756,47.9027004 C90.6343188,46.6646429 90.6573076,45.4036773 90.7952429,44.1197658 C91.025135,42.1021906 91.2550236,40.096109 91.4849157,38.1014607 C91.7148078,36.1068125 92.0366519,34.0778042 92.4504577,32.014375 C92.7263282,30.2260697 93.0596668,28.4377913 93.4504833,26.6494859 C93.8412999,24.8611806 94.2206162,23.0958288 94.5884435,21.3533775 L94.7953454,20.1153262 C94.7033885,20.0236182 94.6229275,19.9204483 94.5539599,19.8058133 C94.4849922,19.6911784 94.4045312,19.5880085 94.3125744,19.4963005 C94.1746391,19.5421545 94.0711892,19.5536178 94.0022216,19.5306908 C93.933254,19.5077638 93.8757818,19.5192271 93.8298034,19.5650811 C93.1861055,20.1611829 92.5424173,20.5623992 91.8987194,20.7687421 C91.2550216,20.9750851 90.6113334,21.2387415 89.9676355,21.5597194 C89.4618729,21.7889893 88.9906012,21.8348426 88.5538062,21.6972806 C88.1170112,21.5597187 87.6457395,21.4450854 87.1399768,21.3533775 C86.6342142,20.9865456 86.1514481,20.5509393 85.6916639,20.0465455 C85.2318797,19.5421517 84.841069,18.9231322 84.5192201,18.1894685 C84.5192201,17.6392207 84.6456588,17.2380044 84.8985401,16.9858075 C85.1514214,16.7336106 85.4157934,16.5387341 85.6916639,16.4011722 C86.4273186,16.1719023 87.1514678,15.9540991 87.8641333,15.7477562 C88.5767988,15.5414133 89.3009481,15.3236101 90.0366028,15.0943402 C91.0941064,14.8650703 92.1630886,14.6472671 93.2435815,14.4409242 C94.3240743,14.2345813 95.4160454,14.0167782 96.5195275,13.7875082 C96.7034411,13.4206764 96.8643632,13.0653134 97.0022985,12.7214085 C97.1402337,12.3775036 97.2781669,12.0221406 97.4161022,11.6553087 C97.7264565,10.967499 98.0238761,10.2990414 98.3083659,9.64992465 L98.588546,9.0072545 C98.9563733,8.15895583 99.347184,7.27627992 99.7609898,6.35920027 L100.105826,5.67139398 C100.197783,5.48797805 100.301233,5.32749152 100.416179,5.18992957 C100.531125,5.05236763 100.680553,4.90334442 100.864466,4.74285548 C101.04838,4.58236654 101.301258,4.38749004 101.623106,4.15822013 Z M38.0797254,0.886615192 C38.1715732,0.932841633 38.2978622,0.967510943 38.458596,0.990624163 C38.6193298,1.01373738 38.7685803,1.07151957 38.9063521,1.16397245 C39.6411352,1.53378397 40.3529455,1.92670282 41.0418046,2.34274078 C41.7306637,2.75877875 42.4654357,3.17481047 43.2461427,3.59084843 C43.3839145,4.14556572 43.6135307,4.65404893 43.9349983,5.11631334 C43.6594547,5.85593638 43.395396,6.59554833 43.1428143,7.33517138 C42.8902327,8.07479443 42.6491356,8.81440638 42.4195159,9.55402942 C41.6388089,11.9115779 40.9384794,14.2459781 40.3185062,16.5573001 C39.698533,18.8686221 39.0670883,21.2030224 38.4241532,23.5605708 C37.8730659,25.6407606 37.3564294,27.7209192 36.874228,29.8011091 C36.3920266,31.8812989 35.8983517,33.9845704 35.3931884,36.1109866 C35.3931884,36.2034395 35.3587459,36.3074474 35.28986,36.4230135 C35.2209741,36.5385796 35.1865317,36.6425876 35.1865317,36.7350405 C35.0946838,38.2142865 34.8306251,39.6357283 34.3943477,40.9994083 C33.9580703,42.3630882 33.6021651,43.7614171 33.3266214,45.1944367 C33.2347736,45.5642483 33.1658887,45.9109414 33.1199648,46.2345264 C33.0740408,46.5581115 33.0051559,46.9048046 32.9133081,47.2746162 C32.5918405,48.6151829 32.2703777,49.967286 31.9489102,51.330966 C31.6274426,52.694646 31.3519031,54.069862 31.1222834,55.4566552 C31.0304355,56.0575989 30.881185,56.6585336 30.6745272,57.2594773 C30.4678695,57.8604211 30.2956573,58.4844687 30.1578855,59.1316388 C29.3312546,59.362771 28.6768483,59.5361176 28.1946469,59.6516837 C27.7124456,59.7672498 27.2532131,59.8019191 26.8169356,59.7556926 C26.3806582,59.7094662 25.8984641,59.570789 25.3703388,59.3396568 C24.8422135,59.1085246 24.1189223,58.7849443 23.2004435,58.3689064 C22.7412041,57.9528684 22.5115879,57.3750466 22.5115879,56.6354235 C22.5115879,56.1269327 22.5001071,55.6531188 22.4771451,55.2139676 C22.4541831,54.7748164 22.4656639,54.3010025 22.5115879,53.7925117 C22.8330555,51.8047747 23.0971141,49.8170676 23.3037719,47.8293307 C23.5104296,45.8415937 23.7974499,43.8076609 24.1648414,41.727471 C24.2566893,41.1265273 24.3600166,40.5602619 24.4748265,40.0286579 C24.5896363,39.4970538 24.6929636,38.9076755 24.7848115,38.2605054 L24.7848115,37.2204156 C22.5804624,37.359095 20.7205708,37.5902237 19.2050808,37.9138088 C17.6895908,38.2373939 16.4267014,38.6534256 15.4163748,39.1619164 C14.2223524,41.010974 13.0053862,42.8484475 11.7654399,44.6743919 C10.5254935,46.5003363 9.35445066,48.3840355 8.25227613,50.325546 C8.06858037,50.7415839 7.82748331,51.088277 7.5289777,51.3656357 C7.2304721,51.6429943 6.96641341,51.9665745 6.73679372,52.3363861 L6.73679372,53.0991185 C6.27755433,53.2377978 5.82980264,53.3764751 5.39352522,53.5151544 C4.9572478,53.6538337 4.50949611,53.7462852 4.05025672,53.7925117 C3.45324551,53.8849645 2.85624326,53.8734081 2.25923205,53.757842 C1.66222085,53.6422759 1.11114184,53.353365 0.605978516,52.8911006 C0.284510943,52.2901569 0.330434193,51.712335 0.743749644,51.1576177 C1.80000024,49.2623337 2.90215824,47.367078 4.05025672,45.471794 C4.41764823,44.9633032 4.76207261,44.4432635 5.08354018,43.9116594 C5.40500775,43.3800554 5.74943213,42.8600157 6.11682364,42.3515249 C6.20867152,42.2128456 6.27755639,42.0626119 6.32348033,41.9008193 C6.36940427,41.7390268 6.43828915,41.5656802 6.53013702,41.3807745 C6.0249737,41.3807745 5.58870282,41.3923309 5.22131131,41.4154441 C4.8539198,41.4385574 4.46357217,41.4732267 4.05025672,41.5194531 C3.40732157,41.1496416 2.77587688,40.8376178 2.15590371,40.5833724 C1.53593053,40.3291269 0.904485842,40.0633289 0.261550696,39.7859703 C0.0778554501,39.1850265 0.0319316897,38.7343255 0.123779568,38.4338536 C0.215627446,38.1333818 0.491166946,37.821358 0.950406336,37.4977729 C1.68518936,36.9892821 2.41996136,36.5732503 3.15474439,36.2496653 C3.88952741,35.9260802 4.71614591,35.6949514 5.63462469,35.5562721 C7.47158225,35.1402342 9.40035876,34.7242024 11.4210121,34.3081645 L12.1787533,33.545432 C13.9697869,30.9567514 15.8067169,28.4374481 17.6895984,25.9874468 C19.5724799,23.5374455 21.5012564,21.064368 23.4759858,18.5681402 C24.9914758,16.6266297 26.5184238,14.6735919 28.0568758,12.7089682 C29.5953277,10.7443445 31.1222758,8.79130668 32.6377658,6.84979618 C33.2807009,6.0639467 33.9351073,5.25499612 34.6010044,4.4229202 C35.2669015,3.59084427 35.9213078,2.75878083 36.564243,1.9267049 C36.7479387,1.6955727 36.9545933,1.4760004 37.184213,1.26798142 C37.4138327,1.05996244 37.7123339,0.932841633 38.0797254,0.886615192 Z M69.0268948,5.46686211 C70.1400676,5.7900707 71.2416283,6.11327444 72.33161,6.43648304 C73.4215917,6.75969163 74.4999616,7.15215332 75.5667522,7.61387988 L76.4712006,9.62238039 C76.100143,11.0999054 75.7290909,12.5427792 75.3580334,13.9510453 C74.9869758,15.3593113 74.6391145,16.8021851 74.3144391,18.2797101 C74.0361459,19.7110625 73.6766892,21.1308504 73.2360583,22.5391164 C72.7954274,23.9473824 72.4359708,25.3671703 72.1576776,26.7985226 C72.0649132,27.1679039 71.9141733,27.5257366 71.7054534,27.8720315 C71.4967335,28.2183264 71.2996121,28.6223311 71.1140833,29.0840577 L71.2532292,29.4996095 C70.3255852,32.8240407 69.4907182,36.1484221 68.748603,39.4728534 L67.0092792,45.9831653 C66.962897,46.2140286 66.9513016,46.4448884 66.9744927,46.6757517 C66.9976838,46.906615 67.0092792,47.1374748 67.0092792,47.3683381 C67.2875724,47.3683381 67.4962892,47.2759942 67.6354358,47.0913036 C67.7745824,46.9066129 67.9137269,46.7450111 68.0528735,46.6064931 C68.6558421,45.9139032 69.2124201,45.2328668 69.7226243,44.5633633 C70.2328285,43.8938598 70.7894065,43.2589953 71.3923751,42.6587507 C71.9025793,41.9661609 72.4707527,41.3082104 73.0969124,40.6848795 C73.7230721,40.0615487 74.3608178,39.4728561 75.0101686,38.9187843 C75.2420796,38.5955757 75.531964,38.3531729 75.8798305,38.1915686 C76.227697,38.0299643 76.5871536,37.8337334 76.9582112,37.6028701 C77.6539442,37.4643522 78.2105223,37.672126 78.6279621,38.2261979 C78.5815799,38.3185432 78.5583891,38.4224301 78.5583891,38.5378618 C78.5583891,38.6532934 78.5351984,38.7571803 78.4888162,38.8495256 C78.1177586,39.2650795 77.7351112,39.6575412 77.3408625,40.0269225 C76.9466138,40.3963037 76.5639664,40.7656794 76.1929088,41.1350607 C75.4507936,41.9199958 74.662308,42.9126931 73.8274284,44.1131821 C72.9925488,45.3136712 72.1576818,46.5487712 71.3228022,47.8185193 C70.4879226,49.0882673 69.6762463,50.3464533 68.8877489,51.593115 C68.0992515,52.8397767 67.3803382,53.9017319 66.7309874,54.7790124 C66.3599298,55.1483936 66.0236639,55.5870273 65.7221796,56.0949265 C65.4206953,56.6028257 65.0844294,57.1568893 64.7133718,57.7571338 C64.527843,57.8494791 64.342317,57.8263931 64.1567882,57.6878752 C63.9712594,57.5493572 63.7161611,57.4800993 63.3914857,57.4800993 C63.0668103,57.5724446 62.8233075,57.5609016 62.6609698,57.4454699 C62.4986321,57.3300383 62.2319384,57.3184953 61.8608808,57.4108406 L60.4694218,57.0645474 C59.356249,56.6951662 58.4750004,56.1180166 57.8256496,55.3330815 C57.1762989,54.5481463 56.7356746,53.6247071 56.5037636,52.562736 C56.364617,52.1010094 56.2950447,51.4776879 56.2950447,50.6927527 C56.2950447,49.9078176 56.3182355,49.0998082 56.3646177,48.2687004 C56.4109999,47.4375926 56.4689767,46.6411262 56.53855,45.8792774 C56.6081233,45.1174286 56.6661002,44.50565 56.7124824,44.0439235 C56.8052468,42.9357797 56.9443913,41.8391956 57.1299201,40.7541382 C57.3154489,39.6690808 57.4545934,38.5724966 57.5473578,37.4643529 C57.6401222,36.6332451 57.7444806,35.8021497 57.8604361,34.9710419 C57.9763916,34.1399341 58.1039408,33.3088387 58.2430874,32.4777309 C57.3154434,34.6016731 56.3762179,36.6909545 55.4253828,38.7456377 C54.4745477,40.8003209 53.5932992,42.6818284 52.7816107,44.3902167 C51.9699222,46.098605 51.2510089,47.5645648 50.6248492,48.7881402 C49.9986895,50.0117156 49.5232791,50.8543539 49.1986037,51.3160805 C48.8275461,51.6854617 48.4912802,52.1240954 48.1897959,52.6319946 C47.8883116,53.1398938 47.5520457,53.6939574 47.1809881,54.2942019 C46.9954593,54.3865472 46.8099333,54.3634612 46.6244045,54.2249433 C46.4388757,54.0864253 46.1837774,54.0171674 45.859102,54.0171674 L43.8414865,54.7097537 L42.4500274,54.3634605 C41.3368546,53.9940793 40.4556061,53.4169298 39.8062553,52.6319946 C39.1569045,51.8470594 38.7162802,50.9236202 38.4843692,49.8616491 C38.2524582,48.8920233 38.1133137,47.9108691 38.0669315,46.918157 C38.0205493,45.9254449 38.0437403,44.9673766 38.1365045,44.0439235 C38.2292689,42.9357797 38.3684134,41.8391956 38.5539422,40.7541382 C38.739471,39.6690808 38.8786155,38.5724966 38.9713799,37.4643529 C39.2032909,35.294238 39.5279614,33.1356987 39.9454012,30.9886702 C40.362841,28.8416417 40.826656,26.7061884 41.3368602,24.5822462 C42.7283262,18.7644915 44.9778291,13.2931138 48.0854365,8.16794899 C48.3173475,7.79856774 48.549255,7.463821 48.781166,7.16369874 C49.013077,6.86357647 49.2449845,6.55191572 49.4768955,6.22870712 C49.6160421,6.09018916 49.766782,5.96321626 49.9291197,5.84778461 C50.0914574,5.73235297 50.265388,5.60538007 50.4509168,5.46686211 C51.5640896,5.7900707 52.6656503,6.11327444 53.755632,6.43648304 C54.8456137,6.75969163 55.9239836,7.15215332 56.9907742,7.61387988 L57.8952226,9.62238039 C57.524165,11.0999054 57.153113,12.5427792 56.7820554,13.9510453 C56.4109978,15.3593113 56.0631365,16.8021851 55.7384611,18.2797101 C55.4601679,19.7110625 55.1007113,21.1308504 54.6600804,22.5391164 C54.2194495,23.9473824 53.8599928,25.3671703 53.5816996,26.7985226 C53.4889352,27.1679039 53.3381953,27.5257366 53.1294754,27.8720315 C52.9207555,28.2183264 52.7236342,28.6223311 52.5381054,29.0840577 L52.6772513,29.4996095 C51.7496073,32.8240407 50.9147402,36.1484221 50.172625,39.4728534 L48.4333012,45.9831653 C48.386919,46.2140286 48.3753237,46.4448884 48.3985148,46.6757517 C48.4217059,46.906615 48.4333012,47.1374748 48.4333012,47.3683381 C48.7115944,47.3683381 48.9203112,47.2759942 49.0594578,47.0913036 C49.1986044,46.9066129 49.3377489,46.7450111 49.4768955,46.6064931 C49.6624243,46.3756298 50.0914532,45.5329915 50.7639951,44.0785528 C51.436537,42.6241141 52.2018318,40.8580365 53.0599025,38.780267 C53.9179732,36.7024975 54.8456033,34.4747002 55.8428205,32.0968084 C56.8400378,29.7189166 57.7676679,27.5026624 58.6257386,25.4479792 C59.4838093,23.393296 60.214318,21.6272184 60.8172865,20.1496934 C61.4202551,18.6721684 61.7913072,17.817987 61.9304538,17.5871238 C62.208747,16.8483613 62.5566082,16.0865239 62.974048,15.3015887 C63.4842522,14.1010996 64.0408303,12.9121716 64.6437989,11.7347688 C65.2467675,10.5573661 65.9192993,9.36843805 66.6614145,8.16794899 C66.8933254,7.79856774 67.125233,7.463821 67.357144,7.16369874 C67.589055,6.86357647 67.8209625,6.55191572 68.0528735,6.22870712 C68.1920201,6.09018916 68.34276,5.96321626 68.5050977,5.84778461 C68.6674354,5.73235297 68.841366,5.60538007 69.0268948,5.46686211 Z M234.12359,21.1821898 C234.33085,21.2054377 234.572649,21.2170614 234.848995,21.2170614 C235.816205,21.8680019 236.840972,22.5770514 237.923326,23.3442312 C239.005681,24.1114111 240.076505,24.8902031 241.135831,25.6806308 C241.227946,25.8666138 241.308545,26.0642178 241.377632,26.2734487 L241.619433,27.005753 C240.882511,27.191736 240.053486,27.5520726 239.132333,28.0867737 C238.211181,28.6214748 237.290042,29.2259105 236.368889,29.9000988 C235.447736,30.5742872 234.584169,31.2600891 233.77816,31.9575254 C232.972151,32.6549616 232.338868,33.2361497 231.878292,33.7011072 C231.648004,33.9335859 231.348634,34.1893087 230.980173,34.4682832 C230.749884,34.7007619 230.554142,34.9564847 230.392941,35.2354591 C230.231739,35.5144336 230.151139,35.839899 230.151139,36.211865 C231.026234,36.5373352 231.866774,36.8860481 232.672782,37.258014 C233.478791,37.62998 234.273273,38.0019404 235.056253,38.3739064 C235.148368,38.6063851 235.240482,38.8039891 235.332597,38.9667242 C235.424713,39.1294593 235.539855,39.2805682 235.678028,39.4200555 C236.645238,40.4894577 236.990665,41.698329 236.71432,43.0467056 C236.622204,43.4186716 236.564633,43.744137 236.541604,44.0231114 C236.518575,44.3020859 236.484033,44.6275513 236.437975,44.9995173 C236.34586,45.1390045 236.242232,45.2668659 236.127088,45.3831053 C236.011944,45.4993446 235.931344,45.6039585 235.885286,45.69695 C235.839229,46.3478904 235.666515,46.8825835 235.36714,47.3010452 C235.067766,47.719507 234.77991,48.1379624 234.503564,48.5564241 C234.135103,49.0213816 233.812704,49.4398371 233.536359,49.811803 C233.260013,50.183769 232.937614,50.5557294 232.569153,50.9276954 C232.016461,51.3926529 231.475292,51.8459796 230.945629,52.2876892 C230.415967,52.7293988 229.851769,53.1362305 229.25302,53.5081965 C228.884559,53.787171 228.527617,54.0196462 228.182185,54.2056292 C227.836753,54.3916122 227.410726,54.5078498 226.904092,54.5543456 C226.397458,54.647337 225.890832,54.8100697 225.384198,55.0425485 C224.877564,55.2750272 224.370937,55.4610074 223.864303,55.6004946 C223.035266,55.8329734 222.240784,55.9027159 221.480833,55.8097245 C220.720882,55.716733 219.949428,55.5540003 219.166448,55.3215215 C218.982217,55.2285301 218.786475,55.1239162 218.579216,55.0076768 C218.371957,54.8914375 218.084101,54.7403285 217.71564,54.5543456 C217.807755,54.2753711 217.865326,54.0080245 217.888355,53.7522979 C217.911384,53.4965713 217.968955,53.2524723 218.06107,53.0199936 C218.890108,52.6015318 219.696104,52.1830764 220.479084,51.7646147 C221.262064,51.3461529 221.998975,50.8347074 222.68984,50.2302627 C224.62426,48.5564158 226.44351,46.7198613 228.147642,44.7205442 C228.37793,44.4415697 228.573672,44.1742231 228.734874,43.9184965 C228.896076,43.6627699 229.045761,43.3721759 229.183934,43.0467056 C229.322107,42.8142269 229.448763,42.5352566 229.563907,42.2097864 C229.679051,41.8843161 229.828736,41.5356033 230.012967,41.1636373 L229.460278,41.1636373 C227.802203,42.4655182 225.844783,43.0699539 223.587959,42.9769624 C221.745653,42.6979879 220.064575,41.9308196 218.544673,40.6754344 C217.807751,40.0244939 217.439295,39.2573256 217.439295,38.3739064 C217.34718,37.4904872 217.416265,36.6303288 217.646554,35.7934053 C217.876842,35.1424649 218.153183,34.5380292 218.475587,33.9800802 C218.79799,33.4221313 219.143417,32.8409432 219.511879,32.2364984 C220.433031,30.9346175 221.457798,29.7489937 222.58621,28.6795916 C223.714622,27.6101894 224.900589,26.6105458 226.144145,25.6806308 C226.420491,25.4481521 226.858032,25.1343105 227.456781,24.7390967 C228.05553,24.3438828 228.688813,23.9254274 229.356649,23.4837178 C230.024485,23.0420082 230.657768,22.6351765 231.256517,22.2632105 C231.855266,21.8912445 232.315836,21.6122742 232.638239,21.4262912 C232.914585,21.286804 233.213955,21.2170614 233.536359,21.2170614 C233.720589,21.1705658 233.916331,21.1589419 234.12359,21.1821898 Z M206.682525,28.375806 C206.406053,28.4220616 206.106547,28.537699 205.783996,28.7227214 C205.369289,28.9539995 204.920029,29.1737104 204.436203,29.3818607 C203.952378,29.5900109 203.434001,29.8791042 202.881058,30.2491491 L202.53547,30.9429799 C202.397234,31.2205136 202.166844,31.4749157 201.844294,31.7061938 C201.613901,31.798705 201.475667,31.9374698 201.429588,32.1224922 C201.153117,32.5387928 200.888169,32.9319596 200.634736,33.3020046 C200.381304,33.6720495 200.116356,34.0420889 199.839884,34.4121338 C199.28694,35.0597125 198.837681,35.7882275 198.492091,36.5977008 C198.146501,37.4071741 197.766358,38.2050715 197.351651,38.991417 C197.121258,39.3152063 196.948465,39.6852457 196.833269,40.1015462 C196.718072,40.5178468 196.591358,40.9341411 196.453122,41.3504416 C196.545279,41.3504416 196.637435,41.3735691 196.729592,41.4198247 C196.82175,41.4660803 196.913905,41.4660803 197.006063,41.4198247 C197.512928,41.0497798 198.019785,40.6913041 198.52665,40.344387 C199.033514,39.9974699 199.517333,39.6158668 199.978119,39.1995662 C201.130085,38.135687 202.293552,37.0718238 203.468557,36.0079446 C204.643562,34.9440654 205.691835,33.8108198 206.613408,32.6081738 C206.843801,31.9605952 207.062671,31.3361537 207.270025,30.7348307 C207.477378,30.1335077 207.581054,29.5090662 207.581054,28.8614876 C207.258503,28.4914426 206.958997,28.3295504 206.682525,28.375806 Z M28.4100946,21.8248868 C26.9729448,23.6223077 25.5238406,25.4315265 24.0627383,27.2525976 C22.6016361,29.0736688 21.1525318,30.9065375 19.7153821,32.751259 L19.7153821,33.3188627 C20.6734819,33.5553654 21.6435435,33.6263152 22.6255958,33.5317141 C23.6076481,33.437113 24.6495661,33.4607629 25.7513809,33.6026646 C25.9430008,32.8458558 26.1585701,32.1127083 26.398095,31.4032001 C26.589715,30.5517902 26.7813321,29.712218 26.972952,28.8844584 C27.164572,28.0566988 27.3801412,27.2407766 27.6196662,26.4366673 C27.8112862,25.8217601 28.0029032,25.2186872 28.1945232,24.6274303 C28.3861432,24.0361734 28.5538081,23.4331005 28.6975231,22.8181934 C28.7933331,22.6762917 28.8532134,22.4989173 28.8771659,22.2860648 C28.9011184,22.0732124 28.7454295,21.9194879 28.4100946,21.8248868 Z M144.518131,17.2446399 C145.353775,17.7467957 146.201012,18.1690568 147.059868,18.5114357 C147.918724,18.8538147 148.673113,19.4130253 149.323058,20.1890843 C149.276633,20.508638 149.241815,20.828187 149.218603,21.1477407 C149.195391,21.4672944 149.183785,21.7411934 149.183785,21.9694461 C148.812388,22.4716019 148.382966,22.7683259 147.895507,22.859627 C147.408049,22.950928 146.885779,23.0422277 146.328683,23.1335288 C145.585889,22.9052761 144.970772,22.5857272 144.483313,22.1748724 C143.995854,21.7640177 143.496797,21.2846943 142.986126,20.7368879 C142.986126,20.5086353 142.962914,20.2803861 142.916489,20.0521334 L142.777216,19.3673789 C143.148613,18.5000188 143.728912,17.7924462 144.518131,17.2446399 Z" id="Combined-Shape"></path>
                        </g>
                        <path d="M113.330914,172.969173 C81.1215479,131.494247 54.7882146,106.82758 34.3309143,98.9691734" id="Path-34" fill="#FA4581" fill-rule="nonzero" transform="translate(73.830914, 135.969173) rotate(-25.000000) translate(-73.830914, -135.969173) "></path>
                        <path d="M375.66477,196.467757 C427.352764,187.276278 463.435855,186.620029 483.914043,194.49901 L375.66477,196.467757 Z" id="Path-34-Copy" fill="#FA4581" fill-rule="nonzero" transform="translate(429.789407, 192.755938) rotate(-6.000000) translate(-429.789407, -192.755938) "></path>
                        <path d="M107,202.477653 C61.4867076,197.113936 25.8200409,197.954718 0,205" id="Path-35" fill="#FF9B36" fill-rule="nonzero"></path>
                        <path d="M288,312 C292,350.873563 292,382.54023 288,407" id="Path-36" fill="#FC6C5F" fill-rule="nonzero"></path>
                        <path d="M159.192007,280.088693 C139.220992,342.004001 130.755019,390.004001 133.794086,424.088693" id="Path-37" fill="#F93C88" fill-rule="nonzero" transform="translate(146.192007, 352.088693) rotate(15.000000) translate(-146.192007, -352.088693) "></path>
                        <path d="M350.450017,308.686986 C385.0845,330.061986 412.0845,357.061986 431.450017,389.686986" id="Path-38" fill="#FF9C34" fill-rule="nonzero" transform="translate(390.950017, 349.186986) rotate(14.000000) translate(-390.950017, -349.186986) "></path>
                        <path d="M321.227201,124.003489 C327.322439,97.0337509 337.989105,75.7004176 353.227201,60.0034889" id="Path-39" fill="#FA4085" fill-rule="nonzero" transform="translate(337.227201, 92.003489) rotate(17.000000) translate(-337.227201, -92.003489) "></path>
                        <path d="M130.664429,101.620066 C136.759667,74.6503277 147.426333,53.3169943 162.664429,37.6200657" id="Path-39-Copy" fill="#FA4085" fill-rule="nonzero" transform="translate(146.664429, 69.620066) scale(-1, 1) rotate(19.000000) translate(-146.664429, -69.620066) "></path>
                        <path d="M360.489004,169.172913 C384.364973,140.049867 412.364973,120.049867 444.489004,109.172913" id="Path-40" fill="#FB5C6D" fill-rule="nonzero" transform="translate(402.489004, 139.172913) rotate(3.000000) translate(-402.489004, -139.172913) "></path>
                        <path d="M95.6406032,269 L46,322.218494 C54.3614097,305.844235 70.9082775,288.104737 95.6406032,269 Z" id="Path-41" fill="#FD7E4F" fill-rule="nonzero"></path>
                    </g>
                </g>
            </g>
        </g>
    </g>
</svg>