<svg xmlns="http://www.w3.org/2000/svg" width="988" height="162" viewBox="0 0 988 162"><defs><linearGradient id="icwaa" x1="79" x2="940.61" y1="72.5" y2="81.48" gradientUnits="userSpaceOnUse"><stop offset="0" stop-color="#ef2d8f"/><stop offset="1" stop-color="#f49a37"/></linearGradient><clipPath id="icwab"><path fill="#fff" d="M232.4 130.4a2 2 0 0 1 2-2h18a2 2 0 0 1 2 2v18a2 2 0 0 1-2 2h-18a2 2 0 0 1-2-2z"/></clipPath></defs><g><g><g><path fill="url(#icwaa)" d="M912.456 99.133c.134-.403.217-.788.25-1.157s.116-.72.25-1.056a168.554 168.554 0 0 0 3.494-1.81 17.045 17.045 0 0 0 3.195-2.212 73.8 73.8 0 0 0 7.887-7.944c.333-.402.615-.787.848-1.156.233-.369.45-.788.65-1.257.199-.335.382-.738.548-1.207.167-.469.383-.972.65-1.508h-.8c-2.395 1.877-5.224 2.748-8.485 2.614-2.663-.402-5.092-1.508-7.289-3.318-1.064-.939-1.597-2.045-1.597-3.318a9.973 9.973 0 0 1 .3-3.72c.332-.94.732-1.81 1.198-2.615.466-.805.965-1.643 1.497-2.514a34.502 34.502 0 0 1 4.443-5.129 57.685 57.685 0 0 1 5.142-4.323c.399-.336 1.031-.788 1.896-1.358l2.746-1.81c.965-.637 1.88-1.223 2.745-1.76.866-.536 1.531-.938 1.997-1.206.4-.201.832-.302 1.298-.302.266-.067.55-.084.849-.05.3.033.649.05 1.048.05a234.921 234.921 0 0 1 9.085 6.436c.133.268.25.553.35.854l.349 1.056c-1.065.268-2.263.788-3.594 1.559a45.152 45.152 0 0 0-3.994 2.614 58.686 58.686 0 0 0-3.743 2.967c-1.165 1.005-2.08 1.843-2.746 2.513-.333.336-.765.704-1.298 1.107a5.42 5.42 0 0 0-.849 1.106c-.232.402-.349.871-.349 1.407 1.265.47 2.48.972 3.644 1.509a342.13 342.13 0 0 1 3.444 1.609c.134.335.267.62.4.854.133.235.3.453.499.654 1.398 1.542 1.897 3.285 1.498 5.229a9.056 9.056 0 0 0-.25 1.408c-.033.402-.083.871-.15 1.407a3.612 3.612 0 0 1-.449.553 1.848 1.848 0 0 0-.35.453c-.066.939-.316 1.71-.748 2.313a58.82 58.82 0 0 0-1.248 1.81 74.18 74.18 0 0 0-1.398 1.81 15.07 15.07 0 0 1-1.398 1.609c-.798.67-1.58 1.324-2.346 1.96a21.655 21.655 0 0 1-2.446 1.76c-.532.402-1.048.738-1.547 1.006-.5.268-1.115.436-1.847.503a9.291 9.291 0 0 0-2.197.703c-.732.336-1.464.604-2.196.805-1.198.335-2.346.436-3.444.302a20.53 20.53 0 0 1-3.345-.704c-.266-.134-.55-.285-.849-.453-.3-.167-.715-.385-1.248-.653zm-228.44-39.384c.332-.33.63-.61.896-.841.265-.231.564-.511.895-.841a49.887 49.887 0 0 0 3.533 1.682 32.122 32.122 0 0 1 3.533 1.78 53.002 53.002 0 0 0 3.881 1.93c1.261.56 2.522 1.137 3.782 1.73.399.187.808.36 1.228.517.09-.328.182-.657.276-.986a35.045 35.045 0 0 1 1.49-4.175 215.215 215.215 0 0 1 1.888-4.276c.398-.729.845-1.391 1.342-1.988.497-.597.977-1.26 1.44-1.988.2-.332.464-.564.795-.696.331-.133.63-.332.894-.597.53.331 1.01.63 1.441.895.43.265.812.464 1.143.596a89.39 89.39 0 0 0 3.428 1.193c1.026.332 2.036.663 3.03.995a.965.965 0 0 1 .596.397c.132.2.298.431.497.696a25.91 25.91 0 0 0-.646 2.536c-.166.828-.58 1.54-1.242 2.137a15.173 15.173 0 0 1-.745 4.126 62.054 62.054 0 0 0-1.143 3.828 62.282 62.282 0 0 1-1.093 3.53 60.799 60.799 0 0 1-1.291 3.43v.944c0 .299.066.547.198.746.398.066.663-.017.795-.249.133-.232.265-.48.398-.745a223.374 223.374 0 0 0 3.278-5.17c1.06-1.724 2.12-3.38 3.18-4.971a23.575 23.575 0 0 1 3.279-4.375 55.771 55.771 0 0 1 2.484-2.337c.86-.762 1.954-1.309 3.278-1.64.928.464 1.888.895 2.882 1.292.993.398 2.053.862 3.179 1.392.199.332.414.63.646.895.232.265.414.564.546.895.265 1.127.298 2.22.1 3.281a26.205 26.205 0 0 0-.398 3.082 33.666 33.666 0 0 1-.546 2.883c-.232.995-.48 1.989-.745 2.983.33.133.58.116.745-.05l.447-.447a547.566 547.566 0 0 1 4.024-5.17c1.358-1.723 2.699-3.48 4.024-5.27a248.495 248.495 0 0 0 3.676-5.17 127.699 127.699 0 0 1 3.775-5.17c.265-.33.547-.679.845-1.043.298-.365.745-.647 1.341-.846 1.325.53 2.666 1.06 4.024 1.591 1.358.53 2.732 1.16 4.123 1.89.2.33.381.646.547.944.166.298.348.613.546.944a56.805 56.805 0 0 0-.745 5.07 20.743 20.743 0 0 1-1.142 4.972 69.638 69.638 0 0 0-1.441 4.673 20.974 20.974 0 0 1-1.838 4.573c-.066.332-.1.647-.1.945 0 .298-.066.613-.198.945l-.398 2.187c1.06-.332 1.872-.895 2.435-1.69a6.494 6.494 0 0 1 2.036-1.89c.464.067.878.133 1.242.2.287.052.604.124.951.217.064-.259.129-.517.195-.775a3.594 3.594 0 0 1-.003-.139 4.61 4.61 0 0 0-.1-.894c.153-.115.311-.24.475-.377a88.609 88.609 0 0 1 1.686-5.481c1.256-3.657 2.942-7.196 5.057-10.617 1.256-1.879 2.463-3.237 3.62-4.076 1.157-.838 2.33-1.275 3.52-1.308 1.19-.034 2.446.218 3.768.755 1.323.536 2.777 1.24 4.364 2.113 1.85.94 3.222 2.164 4.115 3.673.892 1.51 1.504 3.237 1.834 5.183v1.107c0 .402-.033.738-.099 1.006a66.039 66.039 0 0 1-1.537 4.528 12.291 12.291 0 0 1-2.528 4.026 96.464 96.464 0 0 0-5.653 6.038 79.368 79.368 0 0 1-5.652 5.937 9.955 9.955 0 0 0-.992.906c-.132.94-.215 1.878-.248 2.818-.033.939-.05 1.912-.05 2.918.926-.201 1.455-.37 1.587-.503a22.385 22.385 0 0 0 4.165-3.07 45.337 45.337 0 0 0 3.67-3.874 77.837 77.837 0 0 0 4.61-5.988 297.981 297.981 0 0 0 4.29-6.353c.416-1.804.85-3.634 1.304-5.49a35.882 35.882 0 0 1 1.838-5.705 89.69 89.69 0 0 1 2.533-5.507c.398-.86.928-1.72 1.59-2.58.199-.331.43-.629.695-.894l.696-.694c.53-.265 1.026-.38 1.49-.347.464.033.86.115 1.192.248 1.06.33 2.103.661 3.13.992 1.026.33 2.168.728 3.427 1.19.198.265.447.563.745.894.298.33.58.661.844.992 0 .33.017.645.05.943.033.298.016.612-.05.943-.53 2.513-1.06 4.978-1.59 7.392a45 45 0 0 1-2.185 7.096c-.265.992-.364 1.918-.298 2.778-.596.397-.662.596-.199.596.067 0 .116-.05.15-.15.033-.099.115-.214.248-.347.33-.33.679-.612 1.043-.843a6.139 6.139 0 0 0 1.043-.844 175.667 175.667 0 0 1 14.305-13.694 81.445 81.445 0 0 1 3.23-2.68 197.76 197.76 0 0 0 3.327-2.678c.133 0 .315-.017.547-.05.231-.033.447-.017.645.05 1.391.33 2.782.694 4.173 1.091 1.39.397 2.715.761 3.973 1.092.53.529.911 1.075 1.143 1.637.232.562.348 1.125.348 1.687s-.033 1.108-.1 1.637l-.198 1.588a94.843 94.843 0 0 0-1.093 3.275 30.944 30.944 0 0 1-1.192 3.175 80.816 80.816 0 0 0-.944 3.027 32.648 32.648 0 0 1-1.043 3.027 52.66 52.66 0 0 0-.497 2.282c-.199.992-.414 2.018-.646 3.076a175.017 175.017 0 0 0-.645 3.076c-.2.993-.365 1.787-.497 2.382.397-.132 1.043-.678 1.937-1.637a78.48 78.48 0 0 0 2.831-3.226c.994-1.19 1.904-2.315 2.732-3.373a293.225 293.225 0 0 1 1.64-2.084l1.986-2.382c.271-.27.553-.54.846-.811a88.58 88.58 0 0 1 1.655-5.37c1.256-3.656 2.942-7.195 5.057-10.616 1.256-1.879 2.463-3.237 3.62-4.076 1.157-.838 2.33-1.274 3.52-1.308 1.19-.034 2.446.218 3.768.755 1.323.536 2.777 1.24 4.364 2.113 1.85.94 3.222 2.164 4.115 3.673.892 1.51 1.504 3.237 1.834 5.183v1.107c0 .402-.033.738-.099 1.006a66.039 66.039 0 0 1-1.537 4.528 12.291 12.291 0 0 1-2.528 4.026 96.464 96.464 0 0 0-5.653 6.038 79.368 79.368 0 0 1-5.652 5.937 9.955 9.955 0 0 0-.992.906c-.132.94-.215 1.878-.248 2.818-.033.939-.05 1.912-.05 2.918.926-.201 1.455-.37 1.587-.503a22.385 22.385 0 0 0 4.165-3.07 45.337 45.337 0 0 0 3.67-3.874 77.837 77.837 0 0 0 4.61-5.988 298.14 298.14 0 0 0 4.314-6.39l.666-1.013a9.91 9.91 0 0 1 .236-1.09c.332-.938.732-1.81 1.198-2.614.466-.805.965-1.643 1.497-2.514a34.502 34.502 0 0 1 4.443-5.129 57.685 57.685 0 0 1 5.142-4.323c.399-.336 1.031-.788 1.896-1.358l2.746-1.81c.965-.637 1.88-1.223 2.745-1.76.866-.536 1.531-.938 1.997-1.206.4-.201.832-.302 1.298-.302.266-.067.55-.084.849-.05.3.033.649.05 1.048.05a234.921 234.921 0 0 1 9.085 6.436c.133.268.25.553.35.854l.349 1.056c-1.065.268-2.263.788-3.594 1.559a45.152 45.152 0 0 0-3.994 2.614 58.686 58.686 0 0 0-3.744 2.967c-1.164 1.005-2.08 1.843-2.745 2.513-.333.336-.765.704-1.298 1.107a5.42 5.42 0 0 0-.849 1.106c-.232.402-.349.871-.349 1.407 1.265.47 2.48.972 3.644 1.509a342.13 342.13 0 0 1 3.444 1.609c.134.335.267.62.4.854.133.235.3.453.499.654 1.398 1.542 1.897 3.285 1.498 5.229a9.056 9.056 0 0 0-.25 1.408c-.033.402-.083.871-.15 1.407a3.612 3.612 0 0 1-.449.554 1.848 1.848 0 0 0-.35.452c-.066.939-.316 1.71-.748 2.313a58.82 58.82 0 0 0-1.248 1.81 74.18 74.18 0 0 0-1.398 1.81 15.07 15.07 0 0 1-1.398 1.609c-.798.67-1.58 1.324-2.346 1.96a21.655 21.655 0 0 1-2.446 1.76c-.532.402-1.048.738-1.547 1.006-.5.268-1.115.436-1.847.503a9.291 9.291 0 0 0-2.197.703c-.732.336-1.464.604-2.196.805-1.198.335-2.346.436-3.444.302a20.53 20.53 0 0 1-3.345-.704c-.266-.134-.55-.285-.849-.453-.3-.167-.715-.385-1.248-.653.134-.403.217-.788.25-1.157s.116-.72.25-1.056a168.554 168.554 0 0 0 3.494-1.81 17.045 17.045 0 0 0 3.195-2.212 73.8 73.8 0 0 0 7.887-7.944c.333-.402.615-.787.848-1.156.233-.369.45-.788.65-1.257.199-.335.382-.738.548-1.207.167-.469.383-.972.65-1.508h-.8c-2.395 1.877-5.224 2.748-8.485 2.614a14.438 14.438 0 0 1-5.614-2.103 143.584 143.584 0 0 1-9.923 13.573 63.816 63.816 0 0 1-2.182 2.114l-2.181 2.012c-.727.47-1.322.805-1.785 1.007-2.182.603-4.33.922-6.446.956-2.115.033-4.23-.52-6.346-1.66-3.438-1.812-5.488-4.664-6.149-8.555a23.736 23.736 0 0 1-.313-3.383c-.586.753-1.201 1.53-1.845 2.328a164.851 164.851 0 0 0-3.03 3.87 137.449 137.449 0 0 0-1.888 2.53c-.397.53-.794.877-1.192 1.043-.397.165-.795.314-1.192.446a7.015 7.015 0 0 0-1.142.497c-.365.198-.68.595-.944 1.19a1.325 1.325 0 0 1-.249.348l-.347.347a49.776 49.776 0 0 0-2.136-.149 16.28 16.28 0 0 1-2.136-.248 47.745 47.745 0 0 1-3.13-.695c-1.026-.264-1.97-.893-2.83-1.885a46.15 46.15 0 0 0-.547-3.324 43.142 43.142 0 0 1-.546-3.424c-.2-.926-.232-1.984-.1-3.175.133-1.39.282-2.845.447-4.367.166-1.521.315-3.076.447-4.663.067-.331.116-.728.15-1.191.032-.463-.083-.86-.348-1.191-.2 0-.298.033-.298.1a77.742 77.742 0 0 0-3.23 3.423 154.181 154.181 0 0 0-3.03 3.522c-.33.331-.628.662-.893.993-.265.33-.563.661-.894.992a470.75 470.75 0 0 0-3.378 4.218 470.466 470.466 0 0 1-3.378 4.217c-.132.33-.364.612-.695.843-.331.232-.63.447-.894.645-.53.199-1.043.38-1.54.546l-1.341.447c-.133.33-.232.628-.298.893-.066.264-.166.53-.298.794a3.654 3.654 0 0 1-.845.297 6.144 6.144 0 0 0-.943.298 5.137 5.137 0 0 0-.944.496 23.49 23.49 0 0 1-.944.596 14.562 14.562 0 0 0-2.036-.645 48.44 48.44 0 0 1-2.087-.546 11.795 11.795 0 0 1-2.036-.794c-.662-.33-1.225-.827-1.689-1.488a13.052 13.052 0 0 1-.745-4.02A34.22 34.22 0 0 1 793 89.37a141.115 141.115 0 0 1-3.595 4.54 63.816 63.816 0 0 1-2.182 2.114l-2.181 2.012c-.727.47-1.322.805-1.785 1.007-2.182.603-4.33.922-6.446.956-2.115.033-4.23-.52-6.346-1.66-3.438-1.812-5.488-4.664-6.149-8.555a23.382 23.382 0 0 1-.297-4.78c.015-.372.037-.742.063-1.112a26.7 26.7 0 0 0-1.733 2.055c-.73.962-1.458 1.94-2.186 2.933a145.81 145.81 0 0 1-2.285 3.033c-.795 1.027-1.425 2.204-1.888 3.53a4.418 4.418 0 0 0-.845-.1c-.232 0-.48-.033-.745-.1a8.905 8.905 0 0 1-1.093-.248 3.44 3.44 0 0 0-.993-.15c-2.319.2-4.405-.563-6.26-2.286a42.528 42.528 0 0 1-.199-4.027c0-1.292.067-2.601.2-3.927.132-1.325.314-2.601.546-3.828.231-1.226.414-2.502.546-3.827l-.795.198a193.559 193.559 0 0 0-4.421 6.214 317.955 317.955 0 0 0-4.322 6.513l-.497.248c-.199.1-.464.249-.795.448v.546c0 .232.033.481.1.746-.2.73-.63 1.177-1.292 1.342-.662.166-1.292.348-1.888.547-.066.332-.132.564-.199.696l-.298.597c-1.06.53-2.152.696-3.278.497-2.252-.2-4.008-1.26-5.266-3.182a29.238 29.238 0 0 1-.596-4.722 18.072 18.072 0 0 1 .397-4.624c.199-.729.298-1.54.298-2.435s.066-1.74.199-2.536c-.265-.331-.48-.447-.646-.348a.793.793 0 0 0-.348.448c-.132.596-.364 1.077-.695 1.441-.331.365-.63.746-.894 1.144a2.98 2.98 0 0 0-.646 1.292c-.1.464-.414.862-.944 1.193a2.31 2.31 0 0 0-.348.448c-.1.165-.149.348-.149.546-.132.928-.497 1.707-1.093 2.337a4.083 4.083 0 0 0-1.093 2.237 7.147 7.147 0 0 0-1.242 1.939c-.298.696-.778 1.309-1.44 1.84a2.1 2.1 0 0 0-.696.993c-.132.398-.265.663-.397.796a41.409 41.409 0 0 0-2.285 1.69v.1a.674.674 0 0 1-.497.198c-1.524.663-2.931.829-4.223.497a19.756 19.756 0 0 1-3.924-1.491c-1.127-.53-2.02-1.26-2.683-2.187-.662-.928-.994-2.022-.994-3.281a53.184 53.184 0 0 1-.248-3.928 31.38 31.38 0 0 1 .149-3.927c.162-3.53.585-7.06 1.269-10.591a33.249 33.249 0 0 1-1.136-.254 18.671 18.671 0 0 1-3.533-1.237c-.398.264-.614.544-.647.84a8.47 8.47 0 0 0-.05.94c.067 1.32.05 2.655-.05 4.007-.099 1.352-.348 2.72-.746 4.106-.331.527-.68 1.055-1.045 1.583a12.307 12.307 0 0 0-1.044 1.88c0 .197.016.411.05.642.032.231.082.511.149.841a9.873 9.873 0 0 0-.797 1.83 7.505 7.505 0 0 1-.796 1.732 158.793 158.793 0 0 0-2.737 3.808 18.824 18.824 0 0 1-3.035 3.413c-4.644 3.628-9.686 4.386-15.127 2.276a11.421 11.421 0 0 1-1.144-.544c-.431-.231-.813-.413-1.145-.545a45.43 45.43 0 0 1-2.338-1.582 8.609 8.609 0 0 1-1.593-1.484c-.43-.528-.829-1.171-1.194-1.93a56.71 56.71 0 0 1-1.244-2.819c-.332-2.902-.298-5.655.1-8.26a35.072 35.072 0 0 1 2.09-7.667 62.804 62.804 0 0 1 3.085-6.727 135.039 135.039 0 0 1 3.483-6.134c.464-.725.912-1.352 1.343-1.88.432-.527.88-1.055 1.344-1.582a5.93 5.93 0 0 1 1.294-1.138c.464-.297 1.028-.478 1.691-.544 1.46.725 2.853 1.5 4.18 2.325a81.828 81.828 0 0 0 4.18 2.424zm-70.609 28.526c-.132.94-.215 1.878-.248 2.818-.033.939-.05 1.912-.05 2.918.926-.201 1.455-.37 1.587-.503a22.385 22.385 0 0 0 4.165-3.07 45.337 45.337 0 0 0 3.67-3.874 77.837 77.837 0 0 0 4.61-5.988 298.14 298.14 0 0 0 4.314-6.39l.666-1.013a9.91 9.91 0 0 1 .236-1.09c.332-.938.732-1.81 1.198-2.614.466-.805.965-1.643 1.497-2.514a34.502 34.502 0 0 1 4.443-5.129 57.685 57.685 0 0 1 5.142-4.323c.399-.336 1.031-.788 1.896-1.358l2.746-1.81c.965-.637 1.88-1.223 2.745-1.76.866-.536 1.531-.938 1.997-1.206.4-.201.832-.302 1.298-.302.266-.067.55-.084.849-.05.3.033.649.05 1.048.05a234.921 234.921 0 0 1 9.085 6.436c.133.268.25.553.35.854l.349 1.056c-1.065.268-2.263.788-3.594 1.559a45.152 45.152 0 0 0-3.994 2.614 58.686 58.686 0 0 0-3.743 2.967c-1.165 1.005-2.08 1.843-2.746 2.513-.333.336-.765.704-1.298 1.107a5.42 5.42 0 0 0-.849 1.106c-.232.402-.349.871-.349 1.407 1.265.47 2.48.972 3.644 1.509a342.13 342.13 0 0 1 3.444 1.609c.134.335.267.62.4.854.133.235.3.453.499.654 1.398 1.542 1.897 3.285 1.498 5.229a9.056 9.056 0 0 0-.25 1.408c-.033.402-.083.871-.15 1.407a3.612 3.612 0 0 1-.449.553 1.848 1.848 0 0 0-.35.453c-.066.939-.316 1.71-.748 2.313a58.82 58.82 0 0 0-1.248 1.81 74.18 74.18 0 0 0-1.398 1.81 15.07 15.07 0 0 1-1.398 1.609c-.798.67-1.58 1.324-2.346 1.96a21.655 21.655 0 0 1-2.446 1.76c-.532.402-1.048.738-1.547 1.006-.5.268-1.115.436-1.847.503a9.291 9.291 0 0 0-2.197.703c-.732.336-1.464.604-2.196.805-1.198.335-2.346.436-3.444.302a20.53 20.53 0 0 1-3.345-.704c-.266-.134-.55-.285-.849-.453-.3-.167-.715-.385-1.248-.653.134-.403.217-.788.25-1.157s.116-.72.25-1.056a168.554 168.554 0 0 0 3.494-1.81 17.045 17.045 0 0 0 3.195-2.212 73.8 73.8 0 0 0 7.887-7.944c.333-.402.615-.787.848-1.156.233-.369.45-.788.65-1.257.199-.335.382-.738.548-1.207.167-.469.383-.972.65-1.508h-.8c-2.395 1.877-5.224 2.748-8.485 2.614a14.438 14.438 0 0 1-5.614-2.103 143.584 143.584 0 0 1-9.923 13.573 63.816 63.816 0 0 1-2.182 2.114l-2.181 2.012c-.727.47-1.322.805-1.785 1.007-2.182.603-4.33.922-6.446.956-2.115.033-4.23-.52-6.346-1.66-3.438-1.812-5.488-4.664-6.149-8.555a23.382 23.382 0 0 1-.297-4.78c.066-1.576.231-3.136.496-4.68a90.37 90.37 0 0 1 3.074-11.32c1.256-3.657 2.942-7.196 5.057-10.617 1.256-1.879 2.463-3.237 3.62-4.076 1.157-.838 2.33-1.274 3.52-1.308 1.19-.034 2.446.218 3.768.755 1.323.536 2.777 1.24 4.364 2.113 1.85.94 3.222 2.164 4.115 3.673.892 1.51 1.504 3.237 1.834 5.183v1.107c0 .402-.033.738-.099 1.006a66.039 66.039 0 0 1-1.537 4.528 12.291 12.291 0 0 1-2.528 4.026 96.464 96.464 0 0 0-5.653 6.038 79.368 79.368 0 0 1-5.652 5.937 9.955 9.955 0 0 0-.992.906zm-36.538 4.643a319.826 319.826 0 0 1-1.735-5.202c-.561-1.734-.776-3.468-.644-5.203-.33-.266-.578-.35-.743-.25-.166.1-.314.25-.446.45-.397.534-.76 1.101-1.09 1.701l-.992 1.801a44.724 44.724 0 0 1-1.933 4.002 20.223 20.223 0 0 1-2.527 3.602c-.264.066-.496.1-.694.1-.198 0-.43.033-.694.1-.925.2-1.635.333-2.13.4-.496.067-.959.1-1.388.1-.43 0-.892-.067-1.388-.2a34.333 34.333 0 0 1-1.933-.6c-2.048-.6-3.337-2.035-3.865-4.302a18.602 18.602 0 0 1-.595-3.602c-.132-1.4-.083-2.768.149-4.102.231-1.334.446-2.668.644-4.002.793-5.536 2.114-10.705 3.965-15.507.396-.934.81-1.8 1.239-2.601.43-.8.974-1.567 1.635-2.301.264 0 .545-.017.843-.05.297-.033.61.017.941.15l3.122 1.05a9.933 9.933 0 0 1 3.023 1.651c.132.2.232.4.298.6.066.2.165.467.297.8-.33.401-.66.768-.991 1.101l-.991 1c.066.2.099.418.099.651 0 .234.066.517.198.85a133.482 133.482 0 0 0-1.635 6.253 38.396 38.396 0 0 0-.942 6.653l.396.6a96.204 96.204 0 0 0 4.262-6.752 298.8 298.8 0 0 0 3.767-6.753c.198-.734.413-1.434.644-2.101.231-.667.446-1.368.644-2.101.463-.2.909-.4 1.338-.6.43-.2.843-.4 1.24-.6l2.18.8c.727.266 1.454.566 2.18.9.86.8 1.289 1.9 1.289 3.301 0 1.668.017 3.318.05 4.953.033 1.634.05 3.284.05 4.952 0 .333-.017.65-.05.95-.033.3.016.584.148.85.132.734.265 1.451.397 2.152.132.7.297 1.484.495 2.35.33-.6.611-1.217.843-1.85.231-.634.446-1.217.644-1.75a69.488 69.488 0 0 1 3.717-8.805c1.42-2.801 2.99-5.602 4.708-8.404.528-.8 1.074-1.6 1.635-2.4a41.61 41.61 0 0 1 1.735-2.302c.793-.8 1.75-1.6 2.874-2.401a42.99 42.99 0 0 0 3.073.85c.99.234 1.916.817 2.775 1.751a20.376 20.376 0 0 1-1.338 1.901c-.43.534-.876 1.1-1.338 1.7-.33.534-.677 1.051-1.04 1.552-.364.5-.744 1.05-1.14 1.65-.331.6-.694 1.2-1.091 1.801-.396.6-.826 1.367-1.288 2.301a4.602 4.602 0 0 1-.446 1.4c-.232.468-.496.935-.793 1.401-.298.467-.595.968-.892 1.501a9.793 9.793 0 0 0-.744 1.7 20.079 20.079 0 0 1-1.288 3.302 83.262 83.262 0 0 0-1.586 3.402l-.793.8c0 .267.016.517.05.75.032.234.049.55.049.951-.264.467-.66 1.034-1.19 1.7-.065.334-.132.751-.198 1.251-.066.5-.132 1.05-.198 1.651-.198.134-.413.284-.644.45-.231.167-.48.35-.743.55-.133.134-.166.3-.1.5.199.735.33 1.335.397 1.802.066.467.05.867-.05 1.2-.099.334-.264.65-.495.95-.232.3-.578.684-1.041 1.151.066.534.1 1.05.1 1.55 0 .501-.331 1.018-.992 1.552-.66.333-1.388.6-2.18.8-.794.2-1.653.233-2.578.1-1.321-.133-2.51-.484-3.568-1.05-1.057-.567-2.048-1.551-2.973-2.952zm-41.815-18.474c-3.216.2-5.93.534-8.142 1-2.211.468-4.054 1.068-5.529 1.802a411.706 411.706 0 0 1-5.328 7.957 119.506 119.506 0 0 0-5.126 8.157c-.268.6-.62 1.1-1.056 1.501-.435.4-.82.868-1.156 1.401v1.101c-.67.2-1.323.4-1.96.6-.637.201-1.29.334-1.96.401a7.644 7.644 0 0 1-2.614-.05c-.871-.167-1.675-.584-2.412-1.25-.47-.868-.402-1.702.2-2.503a261.485 261.485 0 0 1 4.826-8.207 32.986 32.986 0 0 0 1.508-2.252c.469-.767.971-1.518 1.508-2.252.134-.2.234-.417.301-.65.067-.234.168-.484.302-.75-.737 0-1.374.016-1.91.05-.536.033-1.106.083-1.71.15a23.362 23.362 0 0 0-2.764-1.352c-.904-.367-1.826-.75-2.764-1.15-.268-.868-.335-1.519-.201-1.952.134-.434.536-.885 1.206-1.352a19.488 19.488 0 0 1 3.217-1.801c1.072-.467 2.279-.8 3.619-1.001 2.68-.6 5.495-1.201 8.444-1.801l1.106-1.101a270.166 270.166 0 0 1 8.042-10.91 969.484 969.484 0 0 1 8.443-10.709c2.212-2.802 4.44-5.62 6.685-8.457 2.245-2.835 4.474-5.654 6.685-8.457a418.714 418.714 0 0 0 2.865-3.503 269.372 269.372 0 0 0 2.865-3.603c.268-.333.57-.65.905-.95.335-.3.77-.484 1.306-.551.135.067.319.117.553.15.235.033.453.117.654.25a46.35 46.35 0 0 1 3.116 1.702c1.005.6 2.077 1.2 3.217 1.801.2.801.536 1.535 1.005 2.202a122.613 122.613 0 0 0-2.212 6.406 181.38 181.38 0 0 0-3.065 10.108c-.905 3.336-1.827 6.706-2.765 10.108a294.857 294.857 0 0 0-2.262 9.008c-.703 3.003-1.424 6.038-2.16 9.108 0 .133-.051.283-.152.45-.1.167-.15.317-.15.45a25.01 25.01 0 0 1-1.157 6.156 51.734 51.734 0 0 0-1.558 6.055 14.86 14.86 0 0 0-.301 1.501c-.067.467-.168.967-.302 1.501-.469 1.935-.938 3.887-1.407 5.855a89.207 89.207 0 0 0-1.206 5.955 14.794 14.794 0 0 1-.654 2.602 22.881 22.881 0 0 0-.754 2.703 84.55 84.55 0 0 1-2.865.75 5.982 5.982 0 0 1-2.01.15c-.637-.066-1.34-.266-2.111-.6-.77-.334-1.826-.8-3.167-1.401-.67-.6-1.005-1.435-1.005-2.502 0-.734-.017-1.418-.05-2.052a14.32 14.32 0 0 1 .05-2.052c.47-2.869.855-5.738 1.156-8.607.302-2.87.72-5.805 1.257-8.807.134-.868.285-1.685.452-2.453.168-.767.318-1.618.452-2.552zM432.016 59.75c.332-.33.63-.61.896-.841.265-.231.564-.511.895-.841a49.887 49.887 0 0 0 3.533 1.682 32.122 32.122 0 0 1 3.533 1.78 53.002 53.002 0 0 0 3.881 1.93c1.261.56 2.522 1.137 3.782 1.73.268.126.541.245.819.357a104.855 104.855 0 0 1 2.386-7.508 45.873 45.873 0 0 1 3.35-7.239 41.553 41.553 0 0 1 2.15-3.794 22.823 22.823 0 0 1 2.55-3.294c.466-.466.932-.866 1.4-1.199.466-.332.999-.632 1.599-.898 2.333-1.132 4.6-.699 6.799 1.298a29.629 29.629 0 0 1 2.65 2.346l2.45 2.446c2.266 2.197 2.866 4.726 1.8 7.588 0 .2-.1.4-.3.599-.068.133-.268.3-.6.5-1.4.132-2.7-.15-3.9-.85-1.2-.698-2.3-1.614-3.3-2.745a8.037 8.037 0 0 0-1.75 2.246 31.903 31.903 0 0 0-1.15 2.446c-1 2.33-1.85 4.71-2.55 7.139-.7 2.43-1.316 4.875-1.849 7.338-.067.133-.083.3-.05.5s.05.365.05.499c.2.399.6.532 1.2.399 1.133-.333 2.216-.433 3.25-.3 1.033.134 2.116.433 3.25.899a42.11 42.11 0 0 0 1.699 1.797l1.9 1.897c.466.266.466.732 0 1.398a48.508 48.508 0 0 0-4.4.2c-1.6.133-3 .366-4.2.698-.8.2-1.566.45-2.299.75-.733.299-1.466.615-2.2.948-.4.932-.7 1.913-.9 2.945-.2 1.032-.366 2.08-.5 3.145-.733 3.994-1.4 8.02-2 12.08-.6 4.06-1.1 8.154-1.5 12.28-.132 1.798-.249 3.562-.349 5.292-.1 1.73.017 3.461.35 5.192a2.686 2.686 0 0 1-1.75.4 7.677 7.677 0 0 0-1.75 0c-.533-.2-1-.417-1.4-.65a9.19 9.19 0 0 0-1.4-.649 14.34 14.34 0 0 1-1.05-.698 4.916 4.916 0 0 0-1.049-.6c-.533-.732-.9-1.464-1.1-2.196-.2-.732-.333-1.464-.4-2.196-.533-3.661-.633-7.255-.3-10.783l.4-7.588c.134-2.53.367-5.058.7-7.588.533-4.06 1.083-8.12 1.65-12.18.304-2.18.67-4.349 1.1-6.51a33.779 33.779 0 0 1-.75-.171 18.671 18.671 0 0 1-3.533-1.237c-.398.264-.614.544-.647.84a8.47 8.47 0 0 0-.05.94c.067 1.32.05 2.655-.05 4.007-.099 1.352-.348 2.72-.746 4.106-.331.527-.68 1.055-1.045 1.583a12.307 12.307 0 0 0-1.044 1.88c0 .197.016.411.05.642.032.231.082.511.149.841a9.873 9.873 0 0 0-.797 1.83 7.505 7.505 0 0 1-.796 1.732 158.793 158.793 0 0 0-2.737 3.808 18.824 18.824 0 0 1-3.035 3.413c-4.644 3.628-9.686 4.386-15.127 2.276a11.421 11.421 0 0 1-1.144-.545c-.431-.23-.813-.412-1.145-.544a45.43 45.43 0 0 1-2.338-1.582 8.609 8.609 0 0 1-1.593-1.484c-.43-.528-.829-1.171-1.194-1.93a56.71 56.71 0 0 1-1.244-2.819c-.332-2.902-.298-5.655.1-8.26a35.072 35.072 0 0 1 2.09-7.667 62.804 62.804 0 0 1 3.085-6.727 135.039 135.039 0 0 1 3.483-6.134c.464-.725.912-1.352 1.343-1.88.432-.527.88-1.055 1.344-1.582a5.93 5.93 0 0 1 1.294-1.138c.464-.297 1.028-.478 1.691-.544 1.46.725 2.853 1.5 4.18 2.325a81.828 81.828 0 0 0 4.18 2.424zm-61.609 28.526c-.132.94-.215 1.878-.248 2.818-.033.939-.05 1.912-.05 2.918.926-.201 1.455-.37 1.587-.503a22.385 22.385 0 0 0 4.165-3.07 45.337 45.337 0 0 0 3.67-3.874 77.837 77.837 0 0 0 4.61-5.988 298.14 298.14 0 0 0 4.314-6.39l1.19-1.811a46.85 46.85 0 0 1 2.132.503c.496.134.926.268 1.29.403.363.134.677.301.941.503.265.2.595.47.992.805a3.58 3.58 0 0 1-.595 1.107c-.264.335-.364.805-.297 1.409.066.335-.05.72-.348 1.157-.297.436-.578.822-.842 1.157a143.867 143.867 0 0 1-10.512 14.491 63.816 63.816 0 0 1-2.182 2.114l-2.181 2.012c-.727.47-1.322.805-1.785 1.007-2.182.603-4.33.922-6.446.956-2.115.033-4.23-.52-6.346-1.66-3.438-1.812-5.488-4.664-6.149-8.555a23.382 23.382 0 0 1-.297-4.78c.066-1.576.231-3.136.496-4.68a90.37 90.37 0 0 1 3.074-11.32c1.256-3.657 2.942-7.196 5.057-10.617 1.256-1.879 2.463-3.237 3.62-4.076 1.157-.838 2.33-1.274 3.52-1.308 1.19-.034 2.446.218 3.768.755 1.323.536 2.777 1.24 4.364 2.113 1.85.94 3.222 2.164 4.115 3.673.892 1.51 1.504 3.237 1.834 5.183v1.107c0 .402-.033.738-.099 1.006a66.039 66.039 0 0 1-1.537 4.528 12.291 12.291 0 0 1-2.528 4.026 96.464 96.464 0 0 0-5.653 6.038 79.368 79.368 0 0 1-5.652 5.937 9.955 9.955 0 0 0-.992.906zm-132 0c-.132.94-.215 1.878-.248 2.818-.033.939-.05 1.912-.05 2.918.926-.201 1.455-.37 1.587-.503a22.385 22.385 0 0 0 4.165-3.07 45.337 45.337 0 0 0 3.67-3.874 77.837 77.837 0 0 0 4.61-5.988 298.14 298.14 0 0 0 4.314-6.39l.099-.15c.069-.577.145-1.151.226-1.72.233-1.62.532-3.24.897-4.86.365-1.619.847-3.387 1.444-5.304.465-1.124.947-2.247 1.445-3.371a74.921 74.921 0 0 1 1.544-3.272c.332-.661.648-1.207.946-1.636.3-.43.615-.827.947-1.19a7.48 7.48 0 0 1 1.195-1.041c.465-.331 1.063-.76 1.793-1.29a13.582 13.582 0 0 1 3.487-.346c1.196.033 2.391.247 3.587.644.73.33 1.494.562 2.29.694.798.132 1.595.298 2.392.496.73.132 1.378.264 1.942.396.565.133 1.046.265 1.445.397.664.595 1.129 1.157 1.394 1.686.266.529.416 1.057.449 1.586.033.53 0 1.124-.1 1.785-.1.661-.15 1.388-.15 2.181-.53.199-.83.579-.896 1.14-.066.563-.365.943-.896 1.141l-2.79-.992c-.93-.33-1.893-.66-2.889-.991-.465.661-.98 1.322-1.544 1.983a35.011 35.011 0 0 0-1.644 2.082 10.513 10.513 0 0 1-.448 3.669 47.635 47.635 0 0 1-1.345 3.768 31.821 31.821 0 0 0-.946 2.875c-.233.86-.415 1.686-.548 2.48-.133.793-.25 1.619-.349 2.478-.1.86-.249 1.818-.448 2.876a27.086 27.086 0 0 0-.498 4.016 88.886 88.886 0 0 1-.3 4.114c0 .133.067.232.2.298.133.066.266.231.399.496.93-.727 1.71-1.488 2.34-2.28a98.58 98.58 0 0 1 2.043-2.48 88.685 88.685 0 0 1 2.64-3.123 95.256 95.256 0 0 0 2.84-3.371 89.83 89.83 0 0 0 2.689-3.52 25.86 25.86 0 0 0 2.191-3.57c.333-.529.665-1.14.997-1.834a5.74 5.74 0 0 1 1.394-1.835l.114.035a83.546 83.546 0 0 1 1.54-2.892c.535-.958 1.27-1.9 2.207-2.824.535-.528.936-1.04 1.204-1.536.267-.495.668-.974 1.203-1.436a23.367 23.367 0 0 1 5.217-4.36c1.94-1.188 4.313-1.948 7.122-2.278.2.066.552.132 1.053.198.502.066 1.02.132 1.555.198.937.264 1.689.71 2.257 1.338.569.627 1.321 1.106 2.258 1.436.334-.198.635-.363.902-.495.268-.132.535-.297.803-.495.736.198 1.471.38 2.207.545.736.165 1.471.38 2.207.643.2.595.368 1.024.501 1.288l.953.942c.301.297.619.644.953 1.04-.2.925-.418 1.833-.652 2.724a65.07 65.07 0 0 0-.652 2.725c-.401 1.585-.786 3.12-1.153 4.607a298.137 298.137 0 0 1-1.154 4.508 61.927 61.927 0 0 1-.953 4.458c-.368 1.453-.719 2.94-1.053 4.458a2.518 2.518 0 0 0-.251.892c-.034.33.117.66.451.99a589.63 589.63 0 0 0 3.963-5.746c.626-.92 1.31-1.81 2.053-2.668l.03-.257c.334-2.33.736-4.61 1.205-6.841a98.318 98.318 0 0 1 1.606-6.541 30.734 30.734 0 0 1 1.206-3.346 15.614 15.614 0 0 1 1.807-3.146c.536-.932 1.138-1.697 1.808-2.297.67-.599 1.506-1.065 2.51-1.398.268-.066.536-.15.804-.25s.469-.182.603-.249a8.908 8.908 0 0 1 2.66 0c.838.133 1.691.333 2.562.6 1.138.532 2.326.981 3.565 1.347 1.239.367 2.427.816 3.565 1.349.536-.4.854-.8.954-1.199l.352-1.398a117.866 117.866 0 0 1 3.515-12.883 92.125 92.125 0 0 1 2.46-6.84 43.13 43.13 0 0 1 3.264-6.442 23.62 23.62 0 0 1 1.657-2.197c.57-.666 1.39-1.199 2.46-1.598a251.01 251.01 0 0 0 4.018 2.347c1.339.766 2.544 1.814 3.615 3.146a11.738 11.738 0 0 1-.803 3.145c-.402.966-1.038 1.815-1.909 2.547a8.76 8.76 0 0 1 0 2.647 22.646 22.646 0 0 1-.602 2.646c-.87 3.396-1.758 6.824-2.661 10.286a342.64 342.64 0 0 0-2.561 10.486c-.87 3.729-1.758 7.44-2.662 11.135a254.096 254.096 0 0 0-2.46 11.136c-.335 1.93-.636 3.828-.904 5.692-.268 1.864-.569 3.695-.904 5.493a7.64 7.64 0 0 0-.05 1.498c.033.466.05 1.032.05 1.697-.87.134-1.506.267-1.908.4-.335.067-.62.166-.854.3-.234.133-.485.266-.753.399a14.188 14.188 0 0 0-1.556-.3 14.189 14.189 0 0 1-1.557-.3c-.402-.132-.82-.299-1.255-.499-.436-.2-.82-.366-1.155-.499-.469-.6-.787-1.215-.954-1.847a7.208 7.208 0 0 1-.251-1.848c-.067-1.398-.1-2.78-.1-4.144v-4.145c0-.266-.018-.533-.051-.799-.034-.266-.15-.566-.352-.899-.602.333-.87.766-.803 1.299.067.532-.067 1.065-.402 1.598-.334.399-.67.782-1.004 1.148-.335.366-.703.716-1.105 1.049a4.78 4.78 0 0 1-.05 1.548c-.1.499-.318 1.015-.653 1.547-.468.6-.937 1.215-1.406 1.848a11.338 11.338 0 0 1-1.606 1.748 6.31 6.31 0 0 1-2.26 1.148 7.378 7.378 0 0 1-2.561.25c-1.54-.067-2.963-.333-4.268-.8-1.306-.465-2.427-1.264-3.364-2.396-.536-1.065-.888-2.08-1.055-3.046a17.815 17.815 0 0 1-.251-3.046c0-.494.007-.987.02-1.479a82.27 82.27 0 0 0-2.704 3.431 79.76 79.76 0 0 0-4.865 7.332 77.34 77.34 0 0 0-1.555.594 12.16 12.16 0 0 1-1.555.496c-3.01.132-5.45-.892-7.323-3.072a6.56 6.56 0 0 1-.652-1.981c-.1-.66-.15-1.354-.15-2.08v-2.18c0-.727-.034-1.453-.1-2.18-.602.66-1.17 1.338-1.706 2.031a32.371 32.371 0 0 1-1.705 2.031 13.689 13.689 0 0 1-2.057 1.833c-.769.561-1.688 1.04-2.758 1.437a12.61 12.61 0 0 1-5.769.05c-1.906-.43-3.594-1.47-5.066-3.122-.531-1.098-.862-2.187-.992-3.268a10.43 10.43 0 0 0-.922 1.238 1.775 1.775 0 0 1-.498.495c-.199.133-.365.364-.498.695-.465.66-.88 1.289-1.245 1.883a21.438 21.438 0 0 1-1.146 1.686 1.803 1.803 0 0 1-.398.446c-.133.1-.266.215-.399.347a22.794 22.794 0 0 1-2.191 1.587 42.76 42.76 0 0 0-2.192 1.487 14.63 14.63 0 0 1-4.583.645c-1.527-.033-3.055-.413-4.582-1.14-1.528-.596-2.756-1.471-3.686-2.628-.93-1.157-1.56-2.694-1.893-4.61a23.482 23.482 0 0 1-.665-3.174 141.857 141.857 0 0 1-5.759 7.465 63.816 63.816 0 0 1-2.182 2.114l-2.181 2.012c-.727.47-1.322.805-1.785 1.007-2.182.603-4.33.922-6.446.956-2.115.033-4.23-.52-6.346-1.66-3.438-1.812-5.488-4.664-6.149-8.555a23.382 23.382 0 0 1-.297-4.78c.066-1.576.231-3.136.496-4.68a90.37 90.37 0 0 1 3.074-11.32c1.256-3.657 2.942-7.196 5.057-10.617 1.256-1.879 2.463-3.237 3.62-4.076 1.157-.838 2.33-1.275 3.52-1.308 1.19-.034 2.446.218 3.768.755 1.323.536 2.777 1.24 4.364 2.113 1.85.94 3.222 2.164 4.115 3.673.892 1.51 1.504 3.237 1.834 5.183v1.107c0 .402-.033.738-.099 1.006a66.039 66.039 0 0 1-1.537 4.528 12.291 12.291 0 0 1-2.528 4.026 96.464 96.464 0 0 0-5.653 6.038 79.368 79.368 0 0 1-5.652 5.937 9.955 9.955 0 0 0-.992.906zm-36.9-.393c-.1.332-.216.664-.35.997a125.655 125.655 0 0 0-3.896 3.241c-1.266 1.097-2.73 1.912-4.396 2.444-.266.332-.533.648-.8.947-.266.3-.565.516-.898.649-.8.332-1.516.797-2.149 1.396-.632.598-1.415.93-2.347.997-.6.665-1.266 1.164-1.999 1.496-.732.333-1.465.732-2.198 1.197a48.69 48.69 0 0 1-2.348 1.396 7.64 7.64 0 0 1-2.747.898c-.666.731-1.399 1.18-2.198 1.346-.8.167-1.599.383-2.398.649-.533.199-1.066.315-1.598.349-.533.033-1.066.05-1.599.05-.666.066-1.316.083-1.948.05a41.6 41.6 0 0 1-1.949-.15c-1.332-.2-2.664-.798-3.996-1.795l-2.198-1.397c-.733-.465-1.265-1.13-1.599-1.994 0-.532.134-.915.4-1.147.267-.233.566-.516.9-.848.2.133.382.2.549.2.166 0 .35.033.55.1 1.132.332 1.898.465 2.297.398.4-.066 1.066-.366 1.998-.898v-2.992c-.133-1.795-.1-3.557.1-5.286.2-1.728.4-3.49.6-5.285.133-1.53.316-3.026.55-4.488.232-1.463.416-2.96.549-4.489a141.63 141.63 0 0 1 2.298-12.117 98.024 98.024 0 0 1 3.597-11.819c.266-.731.516-1.462.749-2.194.233-.731.483-1.463.75-2.194 0-.133-.1-.3-.3-.499h-.3c-.134 0-.267.067-.4.2a27.151 27.151 0 0 0-2.448 2.344 81.376 81.376 0 0 1-2.348 2.443c-.333.2-.632.432-.899.698a8.879 8.879 0 0 1-1.099.898c0 .598-.15 1.13-.45 1.595-.3.466-.632.931-.999 1.397l-1.099 1.396c-.366.465-.649.997-.849 1.596h-2.897c-1-.4-1.898-.865-2.698-1.396-.799-.532-1.632-1.13-2.497-1.796a5.177 5.177 0 0 1-.25-1.246 8.796 8.796 0 0 0-.25-1.447c.333-.332.65-.681.95-1.047.299-.365.615-.814.948-1.346 0-.133-.033-.316-.1-.549a3.116 3.116 0 0 1-.1-.847 18.867 18.867 0 0 1 1.999-3.441 33.356 33.356 0 0 1 2.597-3.142c3.197-3.524 6.644-6.632 10.341-9.325a74.05 74.05 0 0 1 11.84-7.031 56.917 56.917 0 0 1 8.292-3.092 52.894 52.894 0 0 1 8.692-1.696c1.332-.199 2.698-.282 4.096-.249 1.4.033 2.831.15 4.296.35a17.81 17.81 0 0 1 5.246 1.794 22.419 22.419 0 0 1 4.546 3.192l1.948 1.945a17.181 17.181 0 0 0 2.048 1.745c2.798 2.394 4.596 5.186 5.395 8.378.466 1.529.766 3.025.9 4.488a17.047 17.047 0 0 1-.2 4.488 31.534 31.534 0 0 1-1.749 6.981 50.315 50.315 0 0 1-2.947 6.383 52.018 52.018 0 0 1-2.298 3.79l-2.398 3.59a8.199 8.199 0 0 1-1.549 2.145 6.361 6.361 0 0 0-1.448 2.244 7.454 7.454 0 0 1-1.399 2.044c-.6.632-1.166 1.28-1.698 1.945l-2.099 2.095c-.133.133-.3.282-.5.448-.199.167-.332.35-.399.549a7.4 7.4 0 0 0-.55.848c-.166.299-.349.548-.549.748a174.86 174.86 0 0 0-2.498 2.543 57.87 57.87 0 0 1-2.497 2.443c-.333 0-.6-.016-.8-.05a3.649 3.649 0 0 0-.577-.05c-.101.267-.192.533-.272.799zm-86.453-13.438c-3.216.2-5.93.534-8.142 1-2.211.468-4.054 1.068-5.529 1.802a411.706 411.706 0 0 1-5.327 7.957 119.506 119.506 0 0 0-5.127 8.157c-.268.6-.62 1.1-1.056 1.501-.435.4-.82.868-1.156 1.401v1.101c-.67.2-1.323.4-1.96.6-.637.201-1.29.334-1.96.401a7.644 7.644 0 0 1-2.614-.05c-.871-.167-1.675-.584-2.412-1.25-.47-.868-.402-1.702.2-2.503a261.485 261.485 0 0 1 4.826-8.207 32.986 32.986 0 0 0 1.508-2.252c.469-.767.971-1.518 1.508-2.252.134-.2.234-.417.301-.65.067-.234.168-.484.302-.75-.737 0-1.374.016-1.91.05-.536.033-1.106.083-1.71.15a23.362 23.362 0 0 0-2.764-1.352c-.904-.367-1.826-.75-2.764-1.15-.268-.868-.335-1.519-.201-1.952.134-.434.536-.885 1.206-1.352a19.488 19.488 0 0 1 3.217-1.801c1.072-.467 2.279-.8 3.619-1.001 2.68-.6 5.495-1.201 8.444-1.801l1.106-1.101a270.166 270.166 0 0 1 8.042-10.91 969.484 969.484 0 0 1 8.444-10.709c2.211-2.802 4.44-5.62 6.684-8.457 2.245-2.835 4.474-5.654 6.685-8.457a418.714 418.714 0 0 0 2.865-3.503 269.372 269.372 0 0 0 2.865-3.603c.268-.333.57-.65.905-.95.335-.3.77-.484 1.307-.551.134.067.318.117.552.15.235.033.453.117.654.25a46.35 46.35 0 0 1 3.116 1.702c1.005.6 2.077 1.2 3.217 1.801.2.801.536 1.535 1.005 2.202a122.613 122.613 0 0 0-2.212 6.406 181.38 181.38 0 0 0-3.065 10.108c-.905 3.336-1.827 6.706-2.765 10.108a294.857 294.857 0 0 0-2.262 9.008c-.703 3.003-1.424 6.038-2.16 9.108 0 .133-.051.283-.152.45-.1.167-.15.317-.15.45a25.01 25.01 0 0 1-1.157 6.156 51.734 51.734 0 0 0-1.558 6.055 14.86 14.86 0 0 0-.301 1.501c-.067.467-.168.967-.302 1.501-.469 1.935-.938 3.887-1.407 5.855a89.207 89.207 0 0 0-1.206 5.955 14.794 14.794 0 0 1-.654 2.602 22.881 22.881 0 0 0-.754 2.703 84.55 84.55 0 0 1-2.865.75 5.982 5.982 0 0 1-2.01.15c-.637-.066-1.34-.266-2.111-.6-.77-.334-1.826-.8-3.167-1.401-.67-.6-1.005-1.435-1.005-2.502 0-.734-.017-1.418-.05-2.052a14.32 14.32 0 0 1 .05-2.052c.47-2.869.855-5.738 1.156-8.607.302-2.87.72-5.805 1.257-8.807.134-.868.285-1.685.452-2.453.168-.767.318-1.618.452-2.552zm671.76-8.468c0-.846.052-1.659.158-2.44.106-.78-.088-1.625-.581-2.536l-.582.537a1.36 1.36 0 0 0-.37.536c-.352.586-.722 1.203-1.11 1.854a8.935 8.935 0 0 0-.898 2.049 6.935 6.935 0 0 1-.846 1.756 6.79 6.79 0 0 1-1.374 1.463c-.07.585-.123 1.155-.158 1.707-.035.553-.053 1.09-.053 1.61 0 .13.176.293.528.488a32.2 32.2 0 0 0 2.96-3.122c.916-1.106 1.691-2.406 2.325-3.902zM675.063 92a56.478 56.478 0 0 0 4.113-3.495c1.258-1.182 2.371-2.617 3.34-4.306a21.06 21.06 0 0 0 2.273-5.47 38.556 38.556 0 0 0 1.016-5.775c.259-2.971.259-5.369 0-7.193-.258-1.823-.774-3.41-1.548-4.761-.323.743-.613 1.401-.87 1.975a79.693 79.693 0 0 1-.775 1.672 9.505 9.505 0 0 0-.63.355 6.494 6.494 0 0 1-.435.253 38.913 38.913 0 0 0-1.064 2.938 68.59 68.59 0 0 1-.968 2.836 168.362 168.362 0 0 0-1.693 4.306 29.102 29.102 0 0 0-1.307 4.61l-.387 1.62c-1.097 2.634-1.806 5.707-2.129 9.22 0 .134.032.253.097.354.064.101.129.22.193.354l.387.203c.13.068.258.169.388.304zm-52.25-26.024c0-.846.052-1.659.158-2.44.106-.78-.088-1.625-.581-2.536l-.582.537a1.36 1.36 0 0 0-.37.536c-.352.586-.722 1.203-1.11 1.854a8.935 8.935 0 0 0-.898 2.049 6.935 6.935 0 0 1-.846 1.756 6.79 6.79 0 0 1-1.374 1.463c-.07.585-.123 1.155-.158 1.707-.035.553-.053 1.09-.053 1.61 0 .13.176.293.528.488a32.2 32.2 0 0 0 2.96-3.122c.916-1.106 1.691-2.406 2.325-3.902zM536.561 69c.272-1.092.578-2.15.918-3.175.272-1.229.544-2.44.815-3.635.272-1.195.578-2.373.918-3.533.272-.888.543-1.758.815-2.612.272-.853.51-1.724.714-2.611.136-.205.22-.461.255-.768.034-.308-.187-.53-.663-.666a5934.669 5934.669 0 0 1-6.167 7.834A704.69 704.69 0 0 0 528 67.771v.82c1.36.34 2.735.443 4.128.307 1.393-.137 2.871-.103 4.434.102zM423.065 92a56.478 56.478 0 0 0 4.112-3.495c1.258-1.182 2.371-2.617 3.34-4.306a21.06 21.06 0 0 0 2.273-5.47 38.556 38.556 0 0 0 1.016-5.775c.259-2.971.259-5.369 0-7.193-.258-1.823-.774-3.41-1.548-4.761-.323.743-.613 1.401-.87 1.975a79.693 79.693 0 0 1-.775 1.672 9.505 9.505 0 0 0-.63.355 6.494 6.494 0 0 1-.435.253 38.913 38.913 0 0 0-1.064 2.938 68.59 68.59 0 0 1-.968 2.836 168.362 168.362 0 0 0-1.693 4.306 29.102 29.102 0 0 0-1.307 4.61l-.387 1.62c-1.097 2.634-1.806 5.707-2.129 9.22 0 .134.032.253.097.354.064.101.129.22.193.354l.387.203c.13.068.258.169.388.304zm-43.252-26.024c0-.846.053-1.659.159-2.44.106-.78-.088-1.625-.581-2.536l-.582.537a1.36 1.36 0 0 0-.37.536c-.352.586-.722 1.203-1.11 1.854a8.935 8.935 0 0 0-.898 2.049 6.935 6.935 0 0 1-.846 1.756 6.79 6.79 0 0 1-1.374 1.463c-.07.585-.123 1.155-.158 1.707-.035.553-.053 1.09-.053 1.61 0 .13.176.293.528.488a32.2 32.2 0 0 0 2.96-3.122c.916-1.106 1.691-2.406 2.325-3.902zM331.371 84a65.254 65.254 0 0 0 2.683-4.37 548.257 548.257 0 0 0 2.477-4.47 28.222 28.222 0 0 1 2.734-4.37A24.71 24.71 0 0 0 342 66.223a28.288 28.288 0 0 1-.929-1.719 28.286 28.286 0 0 0-.928-1.718l-.207-.393a1.547 1.547 0 0 0-.31-.393c-.343.13-.687.278-1.031.442-.344.164-.688.311-1.032.442-.826 2.03-1.668 4.06-2.528 6.09a368.96 368.96 0 0 0-2.632 6.383v1.228c0 .49-.068 1.031-.206 1.62a7.2 7.2 0 0 1-.361 1.277c-.172.458-.258.95-.258 1.473 0 .393-.138.835-.413 1.326-.275.491-.206 1.064.206 1.719zM305.5 62.272c-.408.302-.781.453-1.121.453-.68.47-1.292 1.007-1.836 1.61a26.053 26.053 0 0 0-4.079 3.876 23.467 23.467 0 0 0-3.059 4.581 64.931 64.931 0 0 0-2.6 5.839 84.821 84.821 0 0 0-2.09 6.04 59.761 59.761 0 0 0-.357 1.913c-.102.604-.221 1.242-.357 1.913 0 .067.102.235.306.503.34-.336.612-.57.816-.705a42.7 42.7 0 0 0 3.722-4.178 118.706 118.706 0 0 0 3.314-4.48l.101-.2a10.9 10.9 0 0 0 1.173-1.813c.306-.604.629-1.174.969-1.711.748-1.141 1.461-2.198 2.141-3.171.68-.974 1.258-2.03 1.734-3.172.408-1.14.832-2.231 1.274-3.271.442-1.04.867-2.131 1.275-3.272a.988.988 0 0 0 .102-.453c0-.142.024-.296.073-.463-.599-.19-1.1-.136-1.5.16zm-57.686 3.704c0-.846.053-1.659.159-2.44.106-.78-.088-1.625-.581-2.536l-.582.537a1.36 1.36 0 0 0-.37.536c-.352.586-.722 1.203-1.11 1.854a8.935 8.935 0 0 0-.898 2.049 6.935 6.935 0 0 1-.846 1.756 6.79 6.79 0 0 1-1.374 1.463c-.07.585-.123 1.155-.158 1.707-.035.553-.053 1.09-.053 1.61 0 .13.176.293.529.488a32.2 32.2 0 0 0 2.96-3.122c.915-1.106 1.69-2.406 2.324-3.902zM180.36 89c.202-.133.387-.267.555-.4.169-.133.354-.233.555-.3a121.584 121.584 0 0 0 8.124-6.7 223.41 223.41 0 0 0 7.72-7.3 33.087 33.087 0 0 0 1.513-1.6c.47-.533.975-1.067 1.514-1.6a14 14 0 0 0 1.463-1.7c.437-.6.858-1.2 1.261-1.8a88.78 88.78 0 0 0 6.206-7.95 69.65 69.65 0 0 0 5.197-8.85l1.211-2.8c.404-.933.74-1.9 1.01-2.9.336-1.067.588-2.15.756-3.25.168-1.1.353-2.183.555-3.25a8.332 8.332 0 0 1-.353-2 13.547 13.547 0 0 0-.252-2 7.486 7.486 0 0 0-.656-1.9c-.303-.6-.79-1.167-1.464-1.7-.74-.133-1.496-.3-2.27-.5s-1.53-.367-2.27-.5c-.337.133-.656.25-.96.35-.302.1-.621.15-.958.15-1.547 0-3.027.167-4.44.5-1.413.333-2.859.667-4.34 1a53.334 53.334 0 0 0-5.246 1.7l-5.248 2c-.336.333-.74.6-1.21.8-.472.2-.842.567-1.11 1.1a5.165 5.165 0 0 0 1.967 1.65c.774.367 1.362.95 1.766 1.75.27.533.353 1.033.252 1.5-.1.467-.218.967-.353 1.5-.47 1.333-.925 2.683-1.362 4.05a26.109 26.109 0 0 0-.959 4.05 71.41 71.41 0 0 1-1.564 6.95c-.64 2.3-1.16 4.583-1.564 6.85a59.914 59.914 0 0 1-1.312 5.8l-1.614 5.8c-.337 1.533-.69 3.05-1.06 4.55-.37 1.5-.723 3.017-1.06 4.55-.067.333-.168.717-.302 1.15-.135.433-.034.85.302 1.25zm-63.798-20c.272-1.092.578-2.15.918-3.175.272-1.229.544-2.44.815-3.635.272-1.195.578-2.373.918-3.533.272-.888.543-1.758.815-2.612.272-.853.51-1.724.714-2.611.136-.205.22-.461.255-.768.034-.308-.187-.53-.663-.666a5934.669 5934.669 0 0 1-6.167 7.834A704.69 704.69 0 0 0 108 67.771v.82c1.36.34 2.735.443 4.128.307 1.393-.137 2.871-.103 4.434.102zm754.251-3.024c0-.846.053-1.659.159-2.44.106-.78-.088-1.625-.581-2.536l-.582.537a1.36 1.36 0 0 0-.37.536c-.352.586-.722 1.203-1.11 1.854a8.935 8.935 0 0 0-.898 2.049 6.935 6.935 0 0 1-.846 1.756 6.79 6.79 0 0 1-1.374 1.463c-.07.585-.123 1.155-.158 1.707-.035.553-.053 1.09-.053 1.61 0 .13.176.293.528.488a32.2 32.2 0 0 0 2.96-3.122c.916-1.106 1.691-2.406 2.325-3.902z"/></g><g><g><path fill="none" stroke="#ff00b5" stroke-miterlimit="50" stroke-width="2" d="M9 51a8 8 0 1 0 0-16 8 8 0 0 0 0 16z"/></g><g><path fill="none" stroke="#ff00b5" stroke-miterlimit="50" stroke-width="2" d="M979 111a8 8 0 1 0 0-16 8 8 0 0 0 0 16z"/></g><g><path fill="none" stroke="#ff00b5" stroke-miterlimit="50" stroke-width="2" d="M699 25a8 8 0 1 0 0-16 8 8 0 0 0 0 16z"/></g><g><path fill="none" stroke="#ff8a00" stroke-miterlimit="50" stroke-width="2" d="M814 160a8 8 0 1 0 0-16 8 8 0 0 0 0 16z"/></g><g><path fill="none" stroke="#ff8a00" stroke-miterlimit="50" stroke-width="2" d="M502 27c6.075 0 11-4.925 11-11s-4.925-11-11-11-11 4.925-11 11 4.925 11 11 11z"/></g><g><path fill="none" stroke="#ff4300" stroke-miterlimit="50" stroke-width="2" d="M85.5 161a4.5 4.5 0 1 0 0-9 4.5 4.5 0 0 0 0 9z"/></g><g><path fill="none" stroke="#ff4300" stroke-miterlimit="50" stroke-width="2" d="M415.5 134a4.5 4.5 0 1 0 0-9 4.5 4.5 0 0 0 0 9z"/></g><g transform="rotate(-37 243 139.5)"><path fill="none" stroke="#ff00b5" stroke-miterlimit="50" stroke-width="2" d="M232.4 130.4a2 2 0 0 1 2-2h18a2 2 0 0 1 2 2v18a2 2 0 0 1-2 2h-18a2 2 0 0 1-2-2z" clip-path="url(&quot;#icwab&quot;)"/></g><g transform="rotate(-37 76 16.5)"><path fill="#ff00b5" d="M70.4 12.4a2 2 0 0 1 2-2h8a2 2 0 0 1 2 2v8a2 2 0 0 1-2 2h-8a2 2 0 0 1-2-2z"/></g><g><path fill="#ff8a00" d="M45 98.5l-5.29 2.781 1.01-5.89-4.28-4.172 5.915-.86L45 85l2.645 5.36 5.915.859-4.28 4.172 1.01 5.89z"/></g><g><path fill="#ff8a00" d="M615 138.5l-5.29 2.781 1.01-5.89-4.28-4.172 5.915-.86L615 125l2.645 5.36 5.915.859-4.28 4.172 1.01 5.89z"/></g><g><path fill="#ff8a00" d="M962 27.5l-8.817 4.635 1.684-9.817-7.133-6.953 9.858-1.433L962 5l4.408 8.932 9.858 1.433-7.133 6.953 1.684 9.817z"/></g><g><path fill="#ff00b5" d="M399 13.5l-5.29 2.781 1.01-5.89-4.28-4.172 5.915-.86L399 0l2.645 5.36 5.915.859-4.28 4.172 1.01 5.89z"/></g><g><path fill="#ff00b5" d="M902 137.5l-5.29 2.781 1.01-5.89-4.28-4.172 5.915-.86L902 124l2.645 5.36 5.915.859-4.28 4.172 1.01 5.89z"/></g></g></g></g></svg>