<svg xmlns="http://www.w3.org/2000/svg" width="26" height="23" viewBox="0 0 26 23"><g><g><g><path fill="#353a50" d="M.9 7.23h4.992v15.255H.9z"/></g><g><path fill="#353a50" d="M19.478 7.09c-2.843 0-4.645 1.472-4.992 2.543v-2.41H8.87c.07 1.272 0 15.256 0 15.256h5.616v-8.23c0-.468 0-.936.139-1.271.416-.937 1.178-1.873 2.704-1.873 1.941 0 2.842 1.405 2.842 3.479v7.895h5.686v-8.497c-.07-4.684-2.843-6.892-6.379-6.892z"/></g><g><path fill="#353a50" d="M3.26.07C1.39.07.21 1.207.21 2.746c0 1.472 1.179 2.61 2.981 2.61h.07c1.872 0 3.05-1.138 3.05-2.677C6.242 1.207 5.133.07 3.261.07z"/></g></g></g></svg>