<svg xmlns="http://www.w3.org/2000/svg" width="24" height="24" viewBox="0 0 24 24"><g><g><path fill="#353a50" d="M11.637 0c3.16 0 3.557.013 4.798.07 1.239.056 2.085.252 2.825.539a5.706 5.706 0 0 1 2.061 1.337A5.682 5.682 0 0 1 22.664 4c.287.738.484 1.58.54 2.815.057 1.237.07 1.631.07 4.78 0 3.15-.013 3.545-.07 4.782-.056 1.234-.253 2.077-.54 2.814a5.682 5.682 0 0 1-1.343 2.054 5.707 5.707 0 0 1-2.06 1.338c-.741.286-1.587.482-2.826.539-1.24.056-1.637.07-4.798.07-3.16 0-3.557-.014-4.798-.07-1.238-.057-2.084-.253-2.825-.54a5.707 5.707 0 0 1-2.06-1.337A5.682 5.682 0 0 1 .61 19.191c-.288-.737-.484-1.58-.541-2.814C.013 15.14 0 14.745 0 11.596c0-3.15.013-3.544.07-4.781C.127 5.58.323 4.738.611 4a5.682 5.682 0 0 1 1.342-2.054A5.706 5.706 0 0 1 4.014.61C4.754.322 5.601.126 6.84.069 8.08.014 8.477 0 11.637 0zm0 2.09c-3.107 0-3.475.011-4.702.067-1.135.051-1.751.24-2.161.4-.543.21-.93.46-1.338.867-.407.405-.66.792-.87 1.333-.16.408-.35 1.022-.401 2.153-.056 1.223-.068 1.59-.068 4.686s.012 3.463.068 4.685c.051 1.13.241 1.745.4 2.153.211.542.464.928.87 1.334.408.406.796.657 1.339.867.41.159 1.026.348 2.16.4 1.228.055 1.596.067 4.703.067 3.108 0 3.476-.012 4.703-.068 1.134-.051 1.75-.24 2.16-.399.544-.21.932-.461 1.339-.867.407-.406.66-.792.87-1.334.16-.408.35-1.022.4-2.153.057-1.222.069-1.59.069-4.685 0-3.096-.012-3.463-.068-4.686-.052-1.13-.241-1.745-.4-2.153a3.591 3.591 0 0 0-.871-1.333 3.606 3.606 0 0 0-1.338-.868c-.41-.159-1.027-.348-2.161-.4-1.227-.055-1.595-.067-4.703-.067zm0 3.551c3.3 0 5.976 2.666 5.976 5.955 0 3.288-2.675 5.954-5.976 5.954-3.3 0-5.976-2.666-5.976-5.954 0-3.289 2.676-5.955 5.976-5.955zm0 9.82c2.143 0 3.88-1.73 3.88-3.865a3.872 3.872 0 0 0-3.88-3.866 3.872 3.872 0 0 0-3.879 3.866 3.872 3.872 0 0 0 3.88 3.865zm7.619-10.05c0 .771-.628 1.396-1.402 1.396a1.399 1.399 0 0 1-1.401-1.396c0-.771.627-1.397 1.401-1.397s1.402.626 1.402 1.397"/></g></g></svg>