<svg xmlns="http://www.w3.org/2000/svg" width="25" height="21" viewBox="0 0 25 21"><g><g><path fill="#353a50" d="M23.404 1.167c-.97.58-2.004 1.03-3.168 1.224-.905-.967-2.198-1.611-3.62-1.611-2.716 0-4.979 2.255-4.979 5.09 0 .386.065.772.13 1.159-4.138-.193-7.759-2.255-10.215-5.283-.453.773-.647 1.61-.647 2.577 0 1.74.905 3.286 2.198 4.252-.84 0-1.551-.258-2.263-.644v.064c0 2.448 1.681 4.51 4.009 4.96-.388.13-.84.194-1.293.194-.323 0-.647 0-.905-.065.646 1.997 2.456 3.479 4.655 3.543-1.681 1.353-3.815 2.19-6.142 2.19-.388 0-.776 0-1.164-.064a13.96 13.96 0 0 0 7.629 2.255c9.116 0 14.159-7.73 14.159-14.43v-.644a9.595 9.595 0 0 0 2.456-2.642c-.905.387-1.875.709-2.844.773.84-.708 1.616-1.674 2.004-2.898z"/></g></g></svg>