<svg xmlns="http://www.w3.org/2000/svg" width="416" height="442" viewBox="0 0 416 442"><defs><linearGradient id="5avda" x1="-22.53" x2="50.92" y1="54.14" y2="60.04" gradientUnits="userSpaceOnUse"><stop offset="0" stop-color="#f82e94"/><stop offset="1" stop-color="#ff9e33"/></linearGradient><linearGradient id="5avdb" x1="38.47" x2="111.65" y1="188.71" y2="197.02" gradientUnits="userSpaceOnUse"><stop offset="0" stop-color="#f82e94"/><stop offset="1" stop-color="#ff9e33"/></linearGradient><linearGradient id="5avdc" x1="234.66" x2="308.32" y1="74.71" y2="81.8" gradientUnits="userSpaceOnUse"><stop offset="0" stop-color="#f82e94"/><stop offset="1" stop-color="#ff9e33"/></linearGradient><linearGradient id="5avdd" x1="158.85" x2="236.04" y1="152.58" y2="159.64" gradientUnits="userSpaceOnUse"><stop offset="0" stop-color="#f82e94"/><stop offset="1" stop-color="#ff9e33"/></linearGradient><linearGradient id="5avde" x1="334.23" x2="395.87" y1="141.65" y2="148.1" gradientUnits="userSpaceOnUse"><stop offset="0" stop-color="#f82e94"/><stop offset="1" stop-color="#ff9e33"/></linearGradient><linearGradient id="5avdf" x1="65.97" x2="130.78" y1="411.28" y2="417.62" gradientUnits="userSpaceOnUse"><stop offset="0" stop-color="#f82e94"/><stop offset="1" stop-color="#ff9e33"/></linearGradient></defs><g><g transform="rotate(7 208 221)"><g opacity=".8"><g opacity=".8"><path fill="url(#5avda)" d="M24.702 64.727l1.894 3.28-.611.354-1.894-3.281zm3.078 5.331l1.105 1.914-.611.353-1.105-1.914zm-9.255-16.346l5.446 9.433-.612.352-5.446-9.432zm4.643-17.895l4.666 8.082-3.438 5.207-6.404-.237-4.248-7.61zm-4.753 12.361l5.61.208 2.98-4.512-2.375-4.114-5.214 3.01-.353-.611 5.214-3.01-1.367-2.368-8.21 4.74 1.35 2.422 1.256-.724.352.61-1.263.73zm6.825 21.51a1.123 1.123 0 1 1-1.945 1.122 1.123 1.123 0 0 1 1.945-1.123zm-.611.352a.417.417 0 1 0-.722.418.417.417 0 0 0 .722-.418zm-3.296-7.12a1.123 1.123 0 1 1-1.945 1.123 1.123 1.123 0 0 1 1.945-1.122zm-.61.354a.417.417 0 1 0-.723.417.417.417 0 0 0 .722-.417zm-3.297-7.12a1.123 1.123 0 1 1-1.945 1.122 1.123 1.123 0 0 1 1.945-1.122zm-.61.353a.417.417 0 1 0-.723.417.417.417 0 0 0 .722-.417zm-3.296-7.12a1.123 1.123 0 1 1-1.945 1.122 1.123 1.123 0 0 1 1.945-1.122zm-.612.353a.417.417 0 1 0-.722.418.417.417 0 0 0 .722-.418zm-3.295-7.12a1.123 1.123 0 1 1-1.945 1.123 1.123 1.123 0 0 1 1.945-1.123zm-.611.353a.417.417 0 1 0-.722.418.417.417 0 0 0 .722-.418zM7.22 22.123l-3.328 12.42.018.005-.008.113 6.234 2.995.802-11.576a3.302 3.302 0 0 0-1.873-3.21L7.241 22a.604.604 0 0 1-.02.123zm-.801.142l-15.326 8.848 12.087 3.24zm-3.28 12.86L-9.454 31.75a.632.632 0 0 1-.023-.007l-.156 1.984a3.302 3.302 0 0 0 1.843 3.227l10.426 5.093.525-6.917a.599.599 0 0 1-.02-.005zm18.444-9.073l6.74 11.675 9.532.409 2.953-10.782a.118.118 0 0 0-.09-.077l-21.764-3.994a8.122 8.122 0 0 1 2.63 2.77zm7.159 12.4l6.122 10.603 2.8-10.221zm9.733.417l-.088-.004-4.709 17.19 5.976 2.552 10.972-16.99-9.224-13.673zm-51.59 7.012a8.12 8.12 0 0 1-1.093-3.942l-7.61 21.371a.12.12 0 0 0 .081.155l4.8 1.286 5.931 1.554 4.547-8.716.149.078zm23.7 40.038c.373.646 1.2.868 1.847.495L43.52 68.466c.647-.373.868-1.2.495-1.847l-4.126-7.146-7.052-3.011 1.767-6.45-13.63-23.607a7.452 7.452 0 0 0-10.02-2.816c.499.73.754 1.62.69 2.54l-.874 12.614-6.923-3.326-.586 7.721-11.36-5.55a4.005 4.005 0 0 1-1.947-2.073 7.451 7.451 0 0 0-2.455 10.013L1.176 69.22l-.33.19 6.645 1.742-.922 7.653-.088.004zm-33.068-22.846l8.347-23.438.202.072a8.13 8.13 0 0 1 3.67-4.889 4.006 4.006 0 0 1-.075-1.146l.228-2.881.322.086a.576.576 0 0 1 .195-.182l15.97-9.22a.573.573 0 0 1 .276-.079l.109-.406 2.608 1.244c.427.203.806.476 1.127.801a8.128 8.128 0 0 1 5.861-.851l.017-.092 24.47 4.49a.818.818 0 0 1 .475.271c.125.01.247.072.33.193l9.822 14.562-11.131 17.238 4.284 7.42a2.058 2.058 0 0 1-.753 2.811L12.786 87.025a2.058 2.058 0 0 1-2.811-.754l-4.286-7.423-20.38 1.015-7.697-15.785a.433.433 0 0 1-.03-.315.822.822 0 0 1-.064-.69zm11.825 4.091l-6.461-1.731-4.385-1.15 7.243 14.852 20.2-1.006.777-6.45-17.356-4.549zm4.666-8.946l-4.314 8.27 10.71 2.807z"/></g></g><g><g><path fill="url(#5avdb)" d="M90.391 190.877l-12.959 19.946-.592-.384 12.96-19.946zm-14.404 22.137l-1.918 2.803-.583-.399 1.919-2.802zm-3.21 4.762l-2.493 3.55-.578-.404 2.493-3.552zm15.892-69.23l-1.173 2.031-.61-.353 1.172-2.03zm7.308 4.22l-1.172 2.03-.611-.352 1.172-2.03zm7.308 4.22l-1.172 2.03-.612-.353 1.173-2.03zm-56.35 67.13a.917.917 0 0 0 1.251-.336l.747-1.292a.917.917 0 0 0-.336-1.252l-7.112-4.107a.917.917 0 0 0-1.252.336l-.746 1.293a.917.917 0 0 0 .335 1.252zm17.952 10.474a1.011 1.011 0 0 0 1.38-.37l.747-1.293a1.011 1.011 0 0 0-.37-1.38l-7.112-4.107a1.01 1.01 0 0 0-1.38.37l-.747 1.293a1.01 1.01 0 0 0 .37 1.38zm23.308-68.913c1.683.67 3.648.021 4.58-1.595l3.028-5.243-2.907-1.678-4.874 8.442zM77.21 148.105l-4.501 8.71c1.555.627 3.697-.265 6.16-2.287a28.785 28.785 0 0 0 2.734-2.588c.151-.162.295-.32.43-.47l.34-.385zm31.028 17.914l-5.08-2.933-.129.363-.093.283-.192.608a28.787 28.787 0 0 0-.875 3.661c-.503 3.051-.238 5.308.985 6.382zm-59.171 54.164l35.883-47.066-24.397 54.059 6.064 3.5 35.85-55.692c-1.535-1.247-1.845-3.762-1.294-7.098.205-1.242.52-2.516.896-3.752.132-.433.262-.83.386-1.184l.08-.224-6.122-3.534-3.027 5.243a4.416 4.416 0 0 1-6.032 1.617l-.305-.176 5.235-9.068-9.292-5.365-.23.27-.203.228-.44.48a29.477 29.477 0 0 1-2.802 2.653c-2.68 2.199-5.065 3.183-6.934 2.37L42.05 216.132zm63.12-59.556l-2.97 5.143.015.008-.192.3-.175.303-.015-.009-41.65 64.702c.66.519.856 1.458.424 2.206l-.746 1.292a1.717 1.717 0 0 1-2.345.629l-7.112-4.107a1.717 1.717 0 0 1-.628-2.344l.746-1.292a1.717 1.717 0 0 1 2.344-.63l.042.025 21.84-48.395-32.289 42.351c.518.568.634 1.426.23 2.126l-.746 1.292a1.811 1.811 0 0 1-2.474.663l-7.112-4.106a1.81 1.81 0 0 1-.662-2.473l.746-1.293a1.812 1.812 0 0 1 1.798-.891L76.6 147.752l-.014-.008.169-.293.169-.327.015.009 2.97-5.143zM77.55 147.486l31.057 17.93 2.617-4.531-31.058-17.931z"/></g></g><g opacity=".5" transform="rotate(51 287.5 83)"><g opacity=".5"><path fill="url(#5avdc)" d="M256.757 64.567l1.993 3.443-.612.352-1.992-3.443zm3.065 5.31l1.105 1.905-.611.351-1.105-1.906zm7.46-11.388l1.994 3.443-.612.352-1.992-3.443zm3.066 5.31l1.105 1.905-.611.351-1.105-1.906zm34.551 23.822l3.012-1.733-.733-1.265-3.011 1.733zm-45.056 26.017l3.012-1.733-.752-1.299-3.012 1.733zm2.47-4.13l-6.943-22.561-8.845-15.323-.348-.437c-1.883-3.33-4.41-5.75-7.275-7.407a17.64 17.64 0 0 0-2.824-1.326 13.24 13.24 0 0 0-.608-.204l.088.57.061.364.139.783.16.852a106.884 106.884 0 0 0 1.995 8.397c3.95 14.165 10.407 27.74 19.974 38.847zm24.695-40.814l16.177 17.41.018-.01-.02-.034 4.234-2.444.02.034.173-.1c-4.836-13.839-13.365-26.217-23.657-36.72a106.88 106.88 0 0 0-6.275-5.926 83.618 83.618 0 0 0-.658-.565l-.608-.511-.559-.458-.386-.308c-.064.14-.136.307-.212.5a10.867 10.867 0 0 0-.643 2.597c-.353 2.837.259 5.945 2.185 9.214l.363.559 9.738 16.865zm-24.522-25.563l1.175-1.44.097-.082 3.368-1.943.117-.042 2.117-.366c-.46-.936-1.15-1.878-2.096-2.6-1.61-1.229-3.633-1.544-6.16-.61L258.04 47.48a27.783 27.783 0 0 0 4.447-4.35zm-22.468 12.01l.106-.086 3.391-1.955.142-.046a27.804 27.804 0 0 0 7.794-1.941l-11.304-3.026c-2.072 1.72-2.81 3.628-2.55 5.634.145 1.12.577 2.142 1.12 2.983zm12.473-4.486l.069-.031.026.057 3.578.958.036-.022 2.77-10.332-.464.587a20.027 20.027 0 0 1-12.413 7.07zm8.025-15.137l.167-.065c2.834-1.1 5.17-.76 7.01.645 1.107.846 1.888 1.95 2.389 3.037l5.425-.938.122.094.669.53c.18.146.367.3.564.463l.615.517.663.57a107.59 107.59 0 0 1 6.317 5.965c10.427 10.642 19.058 23.2 23.915 37.261l.095.276-.678.391 1.086 1.88-4.234 2.445-1.085-1.88-.505.29-14.909-16.045 8.024 13.897a5.04 5.04 0 0 1-1.845 6.885l-22.776 13.15a5.04 5.04 0 0 1-6.885-1.845l-7.709-13.356 6.202 20.153-.505.291 1.17 2.028-4.233 2.445-1.171-2.028-.679.392-.75-.871c-9.441-11.116-15.826-24.616-19.752-38.692a107.6 107.6 0 0 1-2.008-8.454 72.809 72.809 0 0 1-.42-2.37l-.07-.458-.075-.539 3.585-4.305c-.65-.955-1.177-2.137-1.348-3.461-.298-2.296.576-4.488 2.946-6.393l.14-.112 4.265 1.143 1.654-.19a19.307 19.307 0 0 0 12.054-6.835l1.4-1.769.041.033zm4.755 67.17a4.335 4.335 0 0 0 5.921 1.586l22.776-13.148a4.333 4.333 0 0 0 1.587-5.92l-3.945-6.831c-4.347 2.291-9.765.754-12.243-3.538l-1.008-1.744-15.178 8.76 1.048 1.814a9.111 9.111 0 0 1-2.906 12.183zM240.53 55.63l-4.924 5.918c.216.065.455.144.713.237.924.334 1.915.788 2.937 1.38 2.968 1.717 5.588 4.225 7.503 7.621l.346.434 8.873 15.368.02-.006.027.086 4.945 8.566a8.408 8.408 0 0 0 2.648-11.22l-1.4-2.424 16.4-9.468 1.36 2.356a8.488 8.488 0 0 0 11.28 3.279l-14.698-25.457-.361-.556c-2.016-3.42-2.658-6.683-2.286-9.673a11.569 11.569 0 0 1 .788-3.019l-7.275 1.259-3.104 1.791-.061.204a17.56 17.56 0 0 1-2.995 5.756l4.867 8.429-.611.353-4.734-8.2a17.667 17.667 0 0 1-9.872 5.8l4.69 8.124-.61.353-4.817-8.343c-2.323.37-4.757.277-7.174-.348l.007-.025zm3.448-1.902c1.964.407 3.929.455 5.822.187l-.707-1.216a28.673 28.673 0 0 1-5.115 1.029zm8.576-2.317c-.905.403-1.83.76-2.771 1.067l.76 1.312a16.976 16.976 0 0 0 4.745-1.65zm5.189-2.817l-.657 2.445a16.882 16.882 0 0 0 3.327-3.045l-.61-1.052a28.453 28.453 0 0 1-2.06 1.652zm5.291-5.012a28.48 28.48 0 0 1-2.695 2.868l.546.943a16.759 16.759 0 0 0 2.2-3.873z"/></g></g><g opacity=".6" transform="rotate(-66 211 152)"><g opacity=".6"><path fill="url(#5avdd)" d="M192.282 183.156l1.677.605 1.26.436c1.27.433 2.593.864 3.937 1.275l-.206.677a134.9 134.9 0 0 1-6.376-2.131l-.54-.199zm12.424 3.861l.919.22 1.213.275-.153.692c-1.64-.366-2.67-.615-3.927-.965l-.713-.202-1.684-.495.201-.68c1.806.54 2.878.844 4.144 1.155zm3.743.708c.626.095 1.21.164 1.748.206l-.053.71a24.787 24.787 0 0 1-1.8-.21zm6.588-45.743l-.98-3.663 3.656-.981.979 3.662zm2.177-3.78l-2.292.616.614 2.3 2.292-.617zm-16.018-4.21l-.98-3.663 3.655-.981.98 3.662zm2.176-3.78l-2.291.616.614 2.3 2.291-.617zm3.525 9.53l-.98-3.661 3.656-.982.98 3.663zm2.177-3.779l-2.292.616.614 2.3 2.292-.616zm20.12-3.1l-.6.533c-.483.438-.99.923-1.51 1.45-1.44 1.465-2.745 3.017-3.825 4.622l1.94 5.095 10.249-6.95-5.917-5.034zm-41.43 2.92l-1.074.644c-.606.37-1.274.788-1.996 1.251a119.604 119.604 0 0 0-7.66 5.353c-4.3 3.265-8.144 6.665-11.279 10.121-2.627 2.898-4.683 5.759-6.08 8.553l.424.534.179.219.387.466.43.505a77.376 77.376 0 0 0 4.583 4.858c3.669 3.58 7.637 6.892 11.896 9.838l25.684-35.24c-4.828-2.808-10.018-5.242-15.493-7.101zm16.105 7.459l-25.713 35.28a82.591 82.591 0 0 0 9.678 5.67l17.124-40.296c-.361-.22-.724-.438-1.089-.654zm14.655 10.68l-.878-.781a79.388 79.388 0 0 0-2.849-2.367 97.786 97.786 0 0 0-9.232-6.505l-17.096 40.233c7.055 3.428 14.739 5.868 23.015 7.002l.133-.346.553-1.476c.134-.365.271-.741.41-1.129l.427-1.194.439-1.257c1.48-4.286 2.824-8.65 3.889-12.83 2.144-8.415 2.88-14.994 1.75-18.826zm-9.663-34.481a23.988 23.988 0 0 0 14.21 8.302l2.31.417-.25.434c-2.715 4.702-8.908 6.2-13.83 3.36-4.922-2.843-6.721-8.955-4.006-13.657l.022-.04-4.422-1.903c-1.058 3.823-2.286 6.922-3.644 9.374l.034.211-.168.027c-2.016 3.556-4.312 5.708-6.752 6.703-1.264.516-2.304.624-3.001.545l-1.145 1.982c10.151 3.482 19.312 8.91 27.017 15.029a78.222 78.222 0 0 1 3.227 2.698l.788.713 1.026-1.96c-1.35-3.249-.845-6.79 1.108-10.465a23.61 23.61 0 0 1 1.085-1.833l-.11-.287.405-.155c1.088-1.594 2.387-3.132 3.817-4.584a37.285 37.285 0 0 1 1.901-1.802l.462-.399-3.676-3.517.488-.51 3.943 3.773.048-.058 6.864 5.837-11.755 7.965-2.074-5.442c-.277.444-.536.892-.775 1.343-1.892 3.561-2.353 6.942-1.018 10.008l.068.155-1.308 2.5c1.195 3.992.451 10.678-1.731 19.242-1.071 4.201-2.42 8.583-3.906 12.886-.52 1.505-1.02 2.894-1.481 4.133l-.477 1.26-.215.551-1.047-.143c-8.312-1.195-16.025-3.693-23.105-7.177l-.236-.101.005-.014c-8.365-4.15-15.84-9.676-22.372-16.051a78.071 78.071 0 0 1-4.625-4.902l-.223-.26-.605-.724-.352-.434-.25-.316-.28-.37.095-.194c1.43-2.923 3.557-5.901 6.288-8.912 3.167-3.492 7.042-6.919 11.374-10.208a120.308 120.308 0 0 1 7.705-5.384c.872-.56 1.667-1.054 2.37-1.477l.178-.108.558-.329 1.582-2.741.312.062c.094.013.23.024.404.024l.29-.007a6.482 6.482 0 0 0 2.093-.495c2.18-.89 4.258-2.784 6.122-5.905l-5.857.942 1.02-14.163 8.486 3.026-.237.664-7.612-2.714-.889 12.349 5.54-.892c1.356-2.466 2.588-5.618 3.649-9.545l.106-.393 5.958 2.564-.26.604zm-1.199-.34l-.111.23c-1.981 4.255-.252 9.502 4.103 12.018 4.435 2.562 9.961 1.347 12.6-2.67l-1.308-.237a24.69 24.69 0 0 1-14.629-8.551z"/></g></g><g opacity=".6" transform="rotate(19 380 171)"><g opacity=".6"><path fill="url(#5avde)" d="M380.348 140.771c.195.007.347.17.34.365l-.075 2.23a.353.353 0 0 1-.706-.025l.076-2.23a.353.353 0 0 1 .365-.34zm-.106 3.104c.195.007.347.17.34.365l-.676 19.826a.353.353 0 1 1-.706-.024l.678-19.826a.353.353 0 0 1 .364-.34zm-.75 21.503a.353.353 0 0 1 .337.369l-.296 6.454a.353.353 0 1 1-.705-.033l.296-6.454a.353.353 0 0 1 .368-.336zm2.505 11.66l-.304-37.984-13.33-7.696-33.056 18.294 4.44 5.492a58.01 58.01 0 0 0 35.336 20.712zm12.807-63.382a.89.89 0 0 0-.326-1.217l-.14-.08a.891.891 0 0 0-1.218.325l-2.493 4.32 1.683.972zm-14.093-2.377l1.028.594 2.494-4.32a.89.89 0 0 0-.326-1.217l-.14-.08a.891.891 0 0 0-1.217.325l-2.513 4.353c.227.102.452.217.674.345zm-13.516 18.586c.09-.165.24-.287.477-.427l.41-.225.354-.198c.597-.358.923-.714 1.04-1.229l3.24-14.196c.621-2.722 3.68-3.91 6.656-2.915l2.567-4.446a1.597 1.597 0 0 1 2.18-.585l.141.081a1.597 1.597 0 0 1 .584 2.181l-2.494 4.32 7.665 4.425 2.494-4.32a1.597 1.597 0 0 1 2.181-.584l.14.081a1.597 1.597 0 0 1 .585 2.181l-2.494 4.32.13.075c3.35 1.934 4.36 5.93 1.965 8.108l-10.81 9.825c-.423.385-.525.92-.433 1.76l.086.684.013.157c.011.196-.002.34-.054.473-.201.514-.67.466-1.416.051l.307 38.413-7.745-1.324a58.716 58.716 0 0 1-35.766-20.964l-4.968-6.145 33.438-18.507c-.509-.359-.685-.688-.473-1.07zm.623.337c.024-.007.12.087.472.298l14.372 8.299c.223.129.393.209.507.246l-.001-.054-.011-.137c-.008-.078-.055-.425-.077-.606l-.028-.28c-.074-.935.089-1.616.68-2.153l10.81-9.826c1.998-1.817 1.13-5.257-1.844-6.974l-.13-.075-.02.034-2.905-1.678.02-.034-7.665-4.425-.02.034-2.27-1.31c-2.786-1.232-5.75-.241-6.304 2.186l-3.24 14.196c-.168.741-.614 1.227-1.361 1.675l-.527.292-.187.103-.126.074-.097.067-.049.045z"/></g></g><g opacity=".6"><g opacity=".6" transform="rotate(-30 80 400.5)"><path fill="url(#5avdf)" d="M101.179 390.999v8.13a.35.35 0 0 0 .348.352.35.35 0 0 0 .348-.353V391a.35.35 0 0 0-.348-.353.35.35 0 0 0-.348.353zm0 10.162v.966a.35.35 0 0 0 .348.353.35.35 0 0 0 .348-.353v-.966a.35.35 0 0 0-.348-.353.35.35 0 0 0-.348.353zm12.918 21.896l2.136 7.842a.352.352 0 1 0 .678-.186l-2.135-7.842a.352.352 0 1 0-.679.186zm2.68 9.802l.353 1.307a.35.35 0 1 0 .675-.186l-.354-1.307a.35.35 0 1 0-.675.186zm.714 2.614l.354 1.307a.35.35 0 1 0 .674-.186l-.354-1.307a.35.35 0 1 0-.674.186zm.714 2.614l1.096 4.03a.35.35 0 1 0 .677-.186l-1.096-4.03a.35.35 0 1 0-.677.186zm-.772-29.928l.514-11.602 3.302 5.317zm-1.065-31.241l14.018 24.744-15.345 16.58-1.767-1.894 8.809-14.479-7.688-12.339c.011.01-.027-.106-.076-.275l-.063-.222c-.063-.23-.125-.482-.184-.757-.591-2.755-.534-5.718.608-8.488.367-.89.84-1.737 1.429-2.532zm-37.319 20.073l1.172 11.931-4.245-6.99zm3.496-17.144c1.143 2.77 1.2 5.733.608 8.488-.059.275-.12.528-.183.758l-.117.398-.055.165-7.656 12.272 8.81 14.48-1.768 1.894-15.346-16.58 14.019-24.745c.71.893 1.269 1.852 1.688 2.87zm20.874 1.824v22.285c0 2.518-2.04 4.56-4.557 4.56a4.558 4.558 0 0 1-4.556-4.56v-21.853a9.98 9.98 0 0 0 4.142.908c1.77 0 3.474-.484 4.97-1.34zm12.331-5.118a12.546 12.546 0 0 0-1.73 2.966c-1.205 2.921-1.264 6.022-.645 8.905.062.288.127.554.193.796l.097.338.09.279 3.548 5.697a.352.352 0 0 0-.03.126l-.592 13.318a.352.352 0 0 0 .09.252l-4.386 7.208 2.65 2.841 1.151-1.243 7.49 27.312-50.574.815L80.7 417.73l1.49 1.609 2.651-2.842-3.846-6.318a.351.351 0 0 0 .047-.214l-1.373-13.956 3.77-6.046c.057-.137.1-.266.153-.45.089-.3.177-.646.26-1.03.618-2.882.559-5.983-.646-8.905a12.55 12.55 0 0 0-1.767-3.013l.069-.012h7.435a10.572 10.572 0 0 0 4.695 5.218.351.351 0 0 0-.04.165v22.02a5.266 5.266 0 0 0 10.531 0V381.23a10.618 10.618 0 0 0 3.82-4.677zm-34.917-.705l-.085-.099-14.65 25.85-.128.224 14.167 15.3a.354.354 0 0 0-.025.067l-7.934 29.693 52.42-.844-7.814-28.496a.353.353 0 0 0-.046-.101l14.517-15.679-14.778-26.073-.176.203a.351.351 0 0 0-.174-.045h-8.658l-.087.224a9.902 9.902 0 0 1-3.562 4.514.353.353 0 0 0-.384.255 9.369 9.369 0 0 1-4.988 1.465c-3.93 0-7.513-2.547-8.939-6.233l-.087-.225z"/></g></g></g></g></svg>