<svg xmlns="http://www.w3.org/2000/svg" width="207" height="234" viewBox="0 0 207 234"><g transform="translate(20 0)"><g transform="rotate(-111 103.5 117)"><g><path fill="#1c1f2c" d="M211.55 112.55c0-69.312-56.188-125.5-125.5-125.5-28.298 0-55.167 9.393-77.03 26.414l.614.79C31.324-2.633 57.977-11.95 86.051-11.95c68.759 0 124.5 55.74 124.5 124.5z"/></g><g><path fill="#1c1f2c" d="M210.541 113.931c.006-.46.008-.92.008-1.381h1c0 .464-.003.929-.008 1.392zm-.206 5.982c.058-.993.104-1.988.138-2.985l1 .034a127.046 127.046 0 0 1-.14 3.01zm-.492 5.965c.106-.99.2-1.981.281-2.975l.997.083a126.082 126.082 0 0 1-.283 2.998zm-.777 5.94c.153-.983.294-1.97.423-2.958l.992.13c-.13.996-.273 1.99-.427 2.981zm-1.061 5.89c.2-.976.389-1.954.565-2.935l.984.177a124.92 124.92 0 0 1-.57 2.958zm-1.344 5.829c.247-.965.482-1.932.706-2.903l.975.225a124.63 124.63 0 0 1-.713 2.926zm-1.623 5.752c.293-.95.575-1.906.846-2.865l.962.272c-.273.966-.557 1.93-.853 2.888zm-1.903 5.675c.34-.936.668-1.877.984-2.821l.949.317c-.32.953-.65 1.901-.992 2.845zm-2.144 5.496c.383-.916.755-1.836 1.117-2.762l.932.362c-.365.933-.74 1.86-1.127 2.784zm-2.444 5.485c.428-.9.844-1.803 1.25-2.713l.913.408c-.409.917-.829 1.828-1.26 2.734zm-2.703 5.347c.473-.878.935-1.761 1.387-2.65l.896.45c-.455.897-.921 1.788-1.398 2.673zm-2.957 5.21c.51-.854 1.01-1.715 1.5-2.582l.866.494c-.494.874-.998 1.741-1.512 2.602zm-3.202 5.056c.553-.828 1.096-1.662 1.628-2.503l.845.535c-.537.847-1.084 1.689-1.64 2.523zm-3.438 4.895c.592-.801 1.174-1.609 1.746-2.424l.819.575c-.577.822-1.164 1.636-1.76 2.443zm-3.673 4.73c.63-.771 1.25-1.55 1.86-2.337l.79.614c-.616.792-1.241 1.578-1.875 2.355zm-3.866 4.524c.666-.744 1.322-1.495 1.97-2.254l.76.652a126.55 126.55 0 0 1-1.986 2.272zm-4.107 4.35c.703-.708 1.398-1.425 2.084-2.15l.73.685c-.69.731-1.391 1.454-2.1 2.169zm-4.31 4.158c.733-.674 1.458-1.357 2.175-2.048l.695.72c-.723.697-1.454 1.385-2.193 2.065zm-4.506 3.949a125.51 125.51 0 0 0 2.281-1.945l.661.753c-.758.662-1.525 1.315-2.3 1.96zm-4.668 3.711c.794-.6 1.581-1.212 2.361-1.832l.622.783c-.786.625-1.579 1.24-2.38 1.847zm-4.86 3.505c.824-.565 1.64-1.14 2.45-1.725l.583.815c-.815.59-1.638 1.169-2.468 1.739zm-5.016 3.251a124.57 124.57 0 0 0 2.524-1.596l.545.839a125.63 125.63 0 0 1-2.544 1.609zm-5.161 3.01c.873-.481 1.74-.973 2.602-1.476l.504.864c-.868.507-1.743 1.002-2.623 1.488z"/></g></g></g></svg>