<svg xmlns="http://www.w3.org/2000/svg" width="58" height="69" viewBox="0 0 58 69"><defs><clipPath id="k0zla"><path d="M0 0h58v69H0z"/></clipPath></defs><g><g><g/><g clip-path="url(#k0zla)"><path fill="#f47a20" d="M36.856 23.851a30.403 30.403 0 0 1 2.851 5.596c1.049 2.748 1.31 4.792.787 5.913a1.54 1.54 0 0 1-.868.828l-.015.016h-.03c-.156.053-.32.08-.485.079-.658 0-1.333-.412-2.005-1.224-.725-.88-1.433-2.214-2.098-3.963a29.644 29.644 0 0 1-.942-2.976c-.262 1.007-.576 2-.941 2.976-.656 1.749-1.369 3.082-2.098 3.963-.672.812-1.35 1.224-2.005 1.224h-.027c-.658 0-1.333-.412-2.005-1.224-.726-.88-1.434-2.214-2.098-3.963a29.313 29.313 0 0 1-.94-2.976c-.263 1.007-.578 2-.945 2.976-.655 1.749-1.366 3.082-2.097 3.963-.672.812-1.35 1.224-2.006 1.224-.17 0-.338-.029-.498-.084l-.015-.007a1.546 1.546 0 0 1-.884-.832c-.53-1.12-.262-3.165.787-5.913a30.485 30.485 0 0 1 2.85-5.593c.606-.923 1.696-2.436 2.53-2.768h.008l.092-.04a.522.522 0 0 1 .18-.022.559.559 0 0 1 .18.02l.095.04c.834.331 1.924 1.845 2.527 2.768a30.42 30.42 0 0 1 2.256 4.155 30.28 30.28 0 0 1 2.252-4.155c.604-.923 1.691-2.436 2.525-2.767.094-.03.19-.052.287-.065.096.013.191.034.283.065.837.331 1.926 1.844 2.53 2.767M40.58 6.086c1.715 5.1 5.804 9.116 11.033 10.835.39.129.644.493.623.893-.782 13.44-4.469 24.654-10.959 33.334a49.1 49.1 0 0 1-11.744 11.16.939.939 0 0 1-1.049 0c-4.634-3.15-8.584-6.901-11.73-11.146C10.26 42.404 6.573 31.185 5.786 17.814a.893.893 0 0 1 .624-.893c5.226-1.72 9.312-5.736 11.027-10.835a.916.916 0 0 1 .865-.615H39.71c.396.001.747.249.87.615m-.793 44.02c6.174-8.258 9.726-18.927 10.566-31.725-5.25-1.94-9.374-6.002-11.302-11.131H18.952c-1.927 5.13-6.051 9.192-11.302 11.131.844 12.734 4.41 23.411 10.581 31.746 2.988 4 6.624 7.5 10.768 10.365a47.166 47.166 0 0 0 10.787-10.387m17.95-37.511c.171.168.266.395.264.632-.15 16.69-4.248 30.53-12.184 41.143C41.499 60.141 36 65.02 29.475 68.87a.93.93 0 0 1-.95 0c-6.594-3.888-12.092-8.766-16.342-14.502C4.25 43.662.151 29.822 0 13.23a.89.89 0 0 1 .262-.637.93.93 0 0 1 .656-.264C7.394 12.299 12.63 7.19 12.643.892c0-.492.411-.892.918-.892h30.877c.507 0 .918.4.918.892.013 6.3 5.253 11.409 11.732 11.438a.93.93 0 0 1 .648.264m-13.4 40.737C51.91 43.206 55.882 30.004 56.16 14.083c-6.763-.478-12.134-5.72-12.603-12.298H14.443c-.47 6.576-5.84 11.815-12.6 12.293.278 15.838 4.255 29.041 11.819 39.255 4.008 5.403 9.165 10.024 15.337 13.743 6.11-3.682 11.273-8.305 15.337-13.745"/></g></g></g></svg>