<svg xmlns="http://www.w3.org/2000/svg" width="77" height="76" viewBox="0 0 77 76"><defs><clipPath id="mi86a"><path d="M0 0h77v76H0z"/></clipPath></defs><g><g><g/><g clip-path="url(#mi86a)"><path fill="#fe6ebd" d="M5.414 17.57l-.03-.032a1.416 1.416 0 0 1 .079-2.003l2.027-2.009.011-.01a1.44 1.44 0 0 1 2.017.006l5.585 5.572.716-.711c.17-.168.388-.28.623-.319h.004a1.167 1.167 0 0 1 1.346.95l1.081 6.517a1.11 1.11 0 0 1 0 .413 1.163 1.163 0 0 1-1.352.93l-6.59-1.061a1.171 1.171 0 0 1-.625-.319 1.155 1.155 0 0 1-.01-1.641l.716-.712-5.598-5.557zm36.404 16.322a1.212 1.212 0 0 1-.397-1.675 1.23 1.23 0 0 1 1.687-.395c.827.503 1.678 0 1.687 0a1.23 1.23 0 0 1 1.687.395 1.212 1.212 0 0 1-.397 1.675 4.343 4.343 0 0 1-2.18.587 3.932 3.932 0 0 1-2.08-.587zm1.043-25.16c-.04-.232-.008-.47.092-.683a1.173 1.173 0 0 1 1.553-.567l.907.427L48.817.814a1.438 1.438 0 0 1 1.9-.68h.013l2.596 1.224a1.42 1.42 0 0 1 .674 1.9l-3.35 7.111.907.427a1.157 1.157 0 0 1 .06 2.06l-5.853 3.205a1.17 1.17 0 0 1-1.732-.817zM16.606 41.714c.111.08.208.178.286.29l.004.005a1.15 1.15 0 0 1-.29 1.607l-5.41 3.847c-.196.139-.43.214-.671.215a1.167 1.167 0 0 1-1.177-1.155v-.97H1.433A1.43 1.43 0 0 1 0 44.13v-2.876a1.43 1.43 0 0 1 1.433-1.425h7.915v-1.03c.002-.237.077-.468.215-.662a1.175 1.175 0 0 1 1.633-.277l5.408 3.867zm42.49-14.804h-.003a1.157 1.157 0 0 1-.94-1.343l1.082-6.522c.04-.234.151-.45.319-.619a1.177 1.177 0 0 1 1.656-.014l.717.705 5.6-5.562.01-.01a1.44 1.44 0 0 1 2.019.01l2.034 2.01.031.032c.551.558.546 1.452-.011 2.004l-5.6 5.562.709.712a1.157 1.157 0 0 1-.635 1.96l-6.574 1.082a1.133 1.133 0 0 1-.416 0zM23.803 3.257a1.419 1.419 0 0 1 .677-1.899L27.083.134h.013c.71-.33 1.555-.03 1.892.673l3.414 7.1.908-.428c.217-.1.46-.132.695-.091.637.11 1.064.71.953 1.343l-1.177 6.505a1.172 1.172 0 0 1-1.733.817l-5.859-3.204a1.152 1.152 0 0 1-.481-.508 1.158 1.158 0 0 1 .543-1.552l.907-.427zm9.885 33.14c1 .001 1.809.807 1.808 1.799 0 .991-.81 1.795-1.809 1.795-1 0-1.81-.804-1.81-1.797 0-.992.81-1.796 1.81-1.796zm15.356 19.14c6.937 3.038 11.414 9.857 11.415 17.387v2.146a.97.97 0 0 1-.936.93.97.97 0 0 1-1.01-.93v-2.142c0-7.16-4.498-13.558-11.264-16.03l-.176.107c-.076.049-.152.097-.23.143-.17.094-.338.19-.51.284l-.182.094a13.65 13.65 0 0 1-.388.2l-.224.105c-.133.063-.267.124-.403.18l-.182.08c-.192.08-.385.157-.58.23l-.154.052c-.157.056-.315.109-.474.16l-.188.058a16.82 16.82 0 0 1-.556.158l-.072.02c-.205.05-.421.098-.635.142l-.176.036c-.17.033-.34.063-.51.09l-.163.027c-.216.032-.435.06-.653.082l-.132.012c-.182.017-.366.031-.55.041l-.185.01c-.226.01-.452.017-.679.017h-.573c-.226 0-.451-.007-.677-.017l-.186-.01a14.04 14.04 0 0 1-.549-.041l-.133-.012c-.221-.022-.436-.05-.651-.082l-.166-.027c-.17-.027-.339-.057-.506-.09l-.18-.036c-.212-.04-.424-.09-.632-.142l-.08-.023a18.03 18.03 0 0 1-.549-.153l-.192-.062a13.76 13.76 0 0 1-.466-.156l-.16-.057a17.7 17.7 0 0 1-.574-.225l-.19-.083a11.685 11.685 0 0 1-.623-.287 13.408 13.408 0 0 1-.378-.19c-.06-.038-.136-.072-.204-.108a27.654 27.654 0 0 1-.73-.427c-.058-.035-.115-.068-.171-.104-6.768 2.47-11.267 8.87-11.269 16.03v2.146a.97.97 0 0 1-.935.93.97.97 0 0 1-1.01-.93v-2.146c0-7.53 4.475-14.348 11.41-17.388a14.62 14.62 0 0 1-5.005-11.008v-7.023c.008-8.116 6.63-14.694 14.803-14.705h.574c8.174.01 14.797 6.588 14.806 14.705v7.023a14.619 14.619 0 0 1-5.007 11.008zm-2.52-.488a12.742 12.742 0 0 0 5.596-10.521v-7.023c-.008-7.05-5.761-12.765-12.861-12.773h-.573c-7.1.007-12.855 5.722-12.862 12.773v7.017a12.74 12.74 0 0 0 5.582 10.522c.09.062.182.12.274.18l.186.12.277.17c.062.038.138.076.205.116.09.05.18.103.272.151.147.084.294.154.445.226l.226.106.287.13a10.426 10.426 0 0 0 .546.22l.208.078c.165.059.331.116.499.168.034.012.07.02.105.03.153.047.307.09.464.132l.188.047c.129.032.26.062.391.09.06.013.122.027.184.039.172.034.345.065.52.092l.049.009c.189.028.381.052.573.072l.174.017c.143.013.286.025.43.032.058.01.117.01.176.01.196.015.393.015.592.015h.573c.2 0 .396-.005.594-.015.057-.002.116-.01.175-.01.143-.007.286-.019.43-.032l.172-.017c.19-.02.383-.044.573-.072l.043-.007c.177-.029.353-.06.526-.094l.182-.039c.132-.028.263-.058.395-.09.061-.015.123-.03.183-.047.16-.04.317-.085.472-.132l.091-.027c.171-.054.34-.11.51-.17l.204-.078.32-.125.226-.095c.1-.043.197-.089.294-.133a8.865 8.865 0 0 0 .67-.332c.09-.04.202-.102.268-.142.066-.04.14-.078.21-.12.09-.053.183-.11.274-.167l.19-.12c.09-.06.182-.118.272-.18zm29.05-15.22A1.43 1.43 0 0 1 77 41.222v2.867a1.42 1.42 0 0 1-1.426 1.413h-7.922v.997c-.002.238-.077.47-.215.664a1.175 1.175 0 0 1-1.631.276l-5.412-3.844a1.152 1.152 0 0 1 0-1.888l5.412-3.843c.195-.138.429-.213.668-.214a1.166 1.166 0 0 1 1.178 1.153v1.028zm-29.559 5.449a1.221 1.221 0 0 1 1.218 1.217c0 3.923-3.71 7.118-8.274 7.118-4.562 0-8.275-3.193-8.275-7.118 0-.672.549-1.217 1.225-1.217zm-7.05 5.904h-.003-.003zm-.003 0c2.688-.002 4.955-1.475 5.62-3.471H33.338c.667 1.996 2.935 3.47 5.623 3.47zm3.183-12.991c0-.99.812-1.793 1.815-1.793s1.816.802 1.816 1.793c0 .99-.813 1.793-1.816 1.793a1.804 1.804 0 0 1-1.815-1.793zm-10.919-4.299a1.214 1.214 0 0 1-.396-1.675 1.227 1.227 0 0 1 1.684-.395c.824.503 1.674 0 1.683 0a1.227 1.227 0 0 1 1.684.395 1.213 1.213 0 0 1-.397 1.675 4.323 4.323 0 0 1-2.176.587 3.91 3.91 0 0 1-2.076-.587z"/></g></g></g></svg>