<svg xmlns="http://www.w3.org/2000/svg" width="77" height="76" viewBox="0 0 77 76"><defs><clipPath id="j44xa"><path d="M0 0h77v76H0z"/></clipPath></defs><g><g><g/><g clip-path="url(#j44xa)"><path fill="#c2aa31" d="M77 18.078c-.002 1.997-1.633 3.615-3.644 3.618h-.23a3.52 3.52 0 0 1 .385 1.596c.001 1.956-1.595 3.543-3.565 3.545h-.777c.205.403.33.841.37 1.291.168 1.948-1.286 3.663-3.248 3.831v7.862l1.487 1.547a20.403 20.403 0 0 1 5.377 10.515l.97 5.355a3.782 3.782 0 0 1-1.692 3.865 3.838 3.838 0 0 1-5.28-1.137v9.572c0 .559-.134 1.11-.39 1.608-.894 1.737-3.037 2.426-4.787 1.539-.158 1.872-1.734 3.312-3.627 3.315-2.013.003-3.646-1.615-3.65-3.613v-.229c-.5.252-1.052.383-1.613.383-1.97 0-3.566-1.585-3.566-3.54v-.772a3.58 3.58 0 0 1-.878.307c-1.923.4-3.809-.822-4.213-2.73h-7.984L34.89 67.28a20.66 20.66 0 0 1-10.593 5.337l-5.396.965a3.834 3.834 0 0 1-3.884-1.676 3.778 3.778 0 0 1 1.136-5.246h-9.64a3.579 3.579 0 0 1-1.616-.385 3.52 3.52 0 0 1-1.555-4.75C1.455 61.367.003 59.803 0 57.925c-.004-2 1.626-3.623 3.64-3.626h.229a3.518 3.518 0 0 1-.385-1.602c0-1.955 1.597-3.54 3.567-3.54h.771a3.524 3.524 0 0 1-.366-1.284c-.17-1.948 1.283-3.664 3.245-3.832v-7.862l-1.487-1.547A20.392 20.392 0 0 1 3.837 24.12l-.972-5.357a3.782 3.782 0 0 1 1.693-3.865 3.838 3.838 0 0 1 5.28 1.137V6.462c0-.557.134-1.107.39-1.604a3.57 3.57 0 0 1 4.785-1.542C15.172 1.443 16.748.003 18.641 0c2.014-.003 3.649 1.616 3.652 3.614v.228a3.58 3.58 0 0 1 1.632-.387c1.965.007 3.552 1.594 3.545 3.544v.766c.28-.142.578-.246.886-.31 1.923-.4 3.809.824 4.211 2.733h7.987l1.553-1.474a20.664 20.664 0 0 1 10.592-5.338l5.396-.964a3.833 3.833 0 0 1 3.894 1.68 3.777 3.777 0 0 1-1.146 5.243h9.64a3.58 3.58 0 0 1 1.62.385 3.52 3.52 0 0 1 1.553 4.751c1.89.157 3.343 1.725 3.344 3.607zM12.39 35.122c.175.18.272.42.27.669v1.246h12.567v-1.225c0-.272.115-.532.317-.715 3.077-2.811 5.148-7.342 5.148-11.288V10.93c0-.884-.721-1.6-1.611-1.6s-1.611.716-1.611 1.6v3.891a.975.975 0 0 1-1.014 1.007.973.973 0 0 1-.94-1.007V7a1.606 1.606 0 0 0-1.564-1.553 1.607 1.607 0 0 0-1.66 1.552v7.821c0 .536-.437.97-.977.97a.974.974 0 0 1-.978-.97V3.614c0-.926-.757-1.678-1.69-1.678-.934 0-1.691.752-1.691 1.678V14.82c0 .536-.438.97-.977.97a.974.974 0 0 1-.979-.97V6.462a1.6 1.6 0 0 0-1.651-1.639 1.597 1.597 0 0 0-1.555 1.64v14.714a.98.98 0 0 1-1.893.34L8.38 17.444a1.87 1.87 0 0 0-2.09-1.184 1.855 1.855 0 0 0-1.5 2.157l.971 5.356c.646 3.58 2.34 6.89 4.87 9.52zm4.284 5.762c0-.646-.527-1.169-1.178-1.169-.65 0-1.177.523-1.177 1.169s.527 1.169 1.177 1.169 1.178-.523 1.178-1.169zm27.677 10.507h-8.276a.98.98 0 0 1-.721-.315c-2.83-3.056-7.395-5.11-11.37-5.11H11.01a1.604 1.604 0 0 0-1.658 1.646 1.606 1.606 0 0 0 1.658 1.551h3.92c.54.001.976.435.977.97a.974.974 0 0 1-.977.971H7.051a1.606 1.606 0 0 0-1.564 1.553 1.606 1.606 0 0 0 1.564 1.647h7.878c.51.02.92.426.94.933.02.536-.4.987-.94 1.007H3.64a1.686 1.686 0 0 0-1.642 1.63c-.027.927.709 1.7 1.643 1.728h11.29c.51.02.92.426.939.933.02.535-.4.986-.94 1.007H6.511c-.885 0-1.603.712-1.603 1.592 0 .879.718 1.592 1.603 1.592h14.83a.968.968 0 0 1 .332 1.88l-4.1 1.51a1.852 1.852 0 0 0-1.192 2.074 1.866 1.866 0 0 0 2.173 1.49l5.395-.966a18.7 18.7 0 0 0 9.59-4.833l1.84-1.741a.985.985 0 0 1 .677-.267h8.295zm.265-1.94c.664-3.562 2.55-7.132 5.2-9.68v-8.145c-3.444-.728-6.854-2.554-9.318-5.076H32.38c-.665 3.561-2.553 7.137-5.2 9.68v8.146c3.443.727 6.853 2.554 9.317 5.074zm20.003-8.572a.968.968 0 0 1-.27-.67v-1.765H51.77v1.746a.968.968 0 0 1-.317.715c-3.08 2.81-5.15 7.34-5.15 11.286v12.882c0 .884.722 1.6 1.612 1.6.89 0 1.612-.716 1.612-1.6v-3.892c0-.535.437-.969.976-.969.54 0 .977.434.977.97V69c0 .883.722 1.6 1.613 1.6.892.001 1.615-.716 1.616-1.6v-7.82a.975.975 0 0 1 1.015-1.007c.54.02.96.472.94 1.007v11.206a1.686 1.686 0 0 0 1.74 1.726 1.684 1.684 0 0 0 1.64-1.726V61.181c.001-.535.438-.968.978-.97.54 0 .978.434.979.97v8.357a1.6 1.6 0 0 0 1.652 1.639 1.597 1.597 0 0 0 1.555-1.64V54.824a.982.982 0 0 1 1.896-.338l1.521 4.071a1.87 1.87 0 0 0 2.093 1.185 1.855 1.855 0 0 0 1.498-2.16l-.971-5.355a18.463 18.463 0 0 0-4.87-9.52zm-3.9-6.155c0 .648.528 1.174 1.178 1.174.65 0 1.178-.526 1.178-1.174 0-.648-.527-1.174-1.178-1.174-.65 0-1.177.526-1.177 1.174zm12.646-14.968c.933 0 1.69-.751 1.69-1.677 0-.927-.756-1.679-1.69-1.68H62.073a.974.974 0 0 1-.978-.97c0-.536.438-.97.978-.97h8.42c.886 0 1.604-.713 1.604-1.593 0-.879-.718-1.592-1.605-1.592H55.666a.967.967 0 0 1-.337-1.879l4.1-1.511A1.852 1.852 0 0 0 60.62 5.81a1.867 1.867 0 0 0-2.174-1.49l-5.396.966a18.706 18.706 0 0 0-9.593 4.833l-1.84 1.741a.98.98 0 0 1-.676.269h-8.298v12.474h8.278a.98.98 0 0 1 .721.314c2.826 3.057 7.397 5.11 11.374 5.11h13.075a1.605 1.605 0 0 0 1.562-1.646 1.606 1.606 0 0 0-1.658-1.551h-3.923a.974.974 0 0 1-.94-.933.974.974 0 0 1 .94-1.007h7.882c.89 0 1.612-.717 1.612-1.6 0-.885-.722-1.601-1.612-1.601h-7.882a.974.974 0 0 1-.94-.933.974.974 0 0 1 .94-1.007z"/></g></g></g></svg>