<svg xmlns="http://www.w3.org/2000/svg" width="48" height="84" viewBox="0 0 48 84"><g><g><g><path fill="#49a5cd" d="M17.694 32.286l-4.937-5.944a2.688 2.688 0 0 1 .314-3.852 2.574 2.574 0 0 1 3.662.422l3.158 3.793 11.575-11.206a2.572 2.572 0 0 1 3.683.095 2.689 2.689 0 0 1-.093 3.751L21.479 32.492a2.585 2.585 0 0 1-1.794.73h-.143a2.586 2.586 0 0 1-1.848-.936zm29.459 35.17l.01.015c1.386 1.883 1.011 4.554-.837 5.965l-8.27 6.309a7.93 7.93 0 0 1-2.31 1.222l-7.946 2.63c-1.078.36-2.22.481-3.347.354L5.598 81.866H1.064A1.076 1.076 0 0 1 0 80.782V68.285c0-.592.466-1.074 1.047-1.083l4.57-.068 22.874-1.3a4.41 4.41 0 0 1 1.937.326c2.296.946 3.405 3.61 2.476 5.95l8.676-5.665a4.148 4.148 0 0 1 5.578 1.011zm-1.302 2.863a2.1 2.1 0 0 0-.401-1.554 2.035 2.035 0 0 0-2.74-.497l-9.508 6.21a1.071 1.071 0 0 1-.485.169l-3.408.286-.206.023-8.48.71a1.07 1.07 0 0 1-1.147-.989 1.077 1.077 0 0 1 .971-1.17l8.63-.726c1.216-.176 2.095-1.274 2.023-2.524-.078-1.326-1.196-2.337-2.497-2.258L5.712 69.3h-.04l-3.546.053v10.352h3.528a.992.992 0 0 1 .115 0l18.91 2.094a5.698 5.698 0 0 0 2.454-.26l7.95-2.639a5.859 5.859 0 0 0 1.692-.897l8.272-6.302c.44-.33.73-.829.804-1.38zM4.374 27.912c-1.354-1.376-2.887-2.934-2.887-4.975 0-2.04 1.533-3.6 2.887-4.98.854-.867 1.656-1.685 1.978-2.474.344-.841.357-2.1.357-3.314.01-2.002.023-4.07 1.379-5.45 1.355-1.381 3.387-1.39 5.351-1.4 1.187-.005 2.42-.011 3.254-.363.774-.327 1.577-1.146 2.428-2.016C20.47 1.563 22.002 0 24.004 0c2.002 0 3.533 1.563 4.887 2.96.849.87 1.655 1.69 2.43 2.016.825.352 2.06.363 3.253.363 1.966.01 3.999.02 5.353 1.4 1.354 1.38 1.362 3.449 1.371 5.45.005 1.21.01 2.467.356 3.315.321.789 1.127 1.606 1.98 2.473 1.351 1.374 2.885 2.935 2.885 4.975 0 2.039-1.534 3.598-2.885 4.973-.853.866-1.659 1.684-1.98 2.473-.345.843-.356 2.1-.356 3.314-.01 2.002-.02 4.072-1.374 5.452s-3.384 1.389-5.35 1.398h-.231v20.949c0 .252-.087.496-.246.69a1.05 1.05 0 0 1-1.499.142l-8.594-7.289-8.597 7.289a1.05 1.05 0 0 1-.684.25 1.072 1.072 0 0 1-1.058-1.084V40.562h-.232c-1.968-.017-3.997-.031-5.352-1.412-1.354-1.381-1.361-3.45-1.372-5.452-.006-1.209-.013-2.465-.357-3.314-.322-.788-1.124-1.607-1.978-2.472zM18.6 42.396c-.655-.655-1.275-1.221-1.895-1.479a3.86 3.86 0 0 0-.902-.238v18.515l2.79-2.368zm8.697 2.06c-.964.802-2.03 1.419-3.288 1.419s-2.332-.618-3.288-1.42v10.558l2.608-2.208a1.049 1.049 0 0 1 1.36 0l2.608 2.208zm4.923-3.777c-.308.043-.61.123-.9.238-.612.258-1.242.824-1.898 1.48V56.83L32.22 59.2zM5.875 19.497c-1.11 1.13-2.265 2.302-2.265 3.444 0 1.14 1.153 2.309 2.264 3.439.962.978 1.956 1.99 2.443 3.178.503 1.24.51 2.72.517 4.14.007 1.635.014 3.177.75 3.929.736.75 2.252.765 3.858.765 1.398.006 2.843.013 4.064.527 1.075.455 2.005 1.353 2.896 2.26l.22.224c1.11 1.134 2.259 2.306 3.377 2.306 1.12 0 2.269-1.172 3.377-2.306.962-.98 1.955-1.995 3.12-2.487 1.218-.515 2.67-.527 4.064-.527 1.605-.008 3.119-.017 3.856-.766.738-.748.744-2.293.752-3.928.006-1.425.01-2.9.517-4.14.484-1.188 1.48-2.2 2.442-3.179 1.112-1.13 2.262-2.296 2.262-3.439 0-1.142-1.15-2.31-2.262-3.44-.962-.979-1.958-1.99-2.442-3.177-.506-1.243-.517-2.721-.517-4.142-.008-1.633-.017-3.177-.752-3.928-.734-.752-2.251-.764-3.856-.764-1.398-.008-2.846-.014-4.064-.529-1.165-.492-2.158-1.506-3.12-2.487-1.108-1.133-2.255-2.305-3.377-2.305-1.121 0-2.268 1.172-3.377 2.305-.96.981-1.954 1.995-3.119 2.487-1.22.515-2.67.529-4.064.529-1.607.006-3.122.01-3.858.762-.736.751-.75 2.295-.75 3.93 0 1.425-.009 2.9-.506 4.142-.487 1.186-1.478 2.198-2.444 3.177z"/></g></g></g></svg>