<svg xmlns="http://www.w3.org/2000/svg" width="95" height="88" viewBox="0 0 95 88"><defs><clipPath id="5l0za"><path d="M0 0h95v88H0z"/></clipPath></defs><g><g><g/><g clip-path="url(#5l0za)"><path fill="#3c9748" d="M9.8 56.194l-1.824-5.71a3.753 3.753 0 0 1-.135-1.69l1.532-10.238a3.711 3.711 0 0 1 3.71-3.214h2.677c.508 0 1.01.105 1.476.309l7.008 3.035 6.13.756c.133.017.264.04.395.072l-.184-38.488A1.022 1.022 0 0 1 31.6 0a1.022 1.022 0 0 1 1.025 1.017v1.352c1.827.274 7.584.94 12.775-.637l-4.5 5.133 4.62 4.098s-7.148 1.06-12.853.241l.137 29.304c0 .087-.013.173-.036.256.025.03.053.058.078.09a3.715 3.715 0 0 1-.258 4.853c.014.066.021.134.022.202l.02 4.327v.003a1.019 1.019 0 0 1-1.015 1.023 1.02 1.02 0 0 1-1.02-1.017l-.016-3.443a3.69 3.69 0 0 1-.617.064l-5.377.075h-.052c-.36 0-.719-.052-1.064-.154l-3.34-1-.865 2.46v.762a2.04 2.04 0 0 1 1.554.22l4.973 2.958a6.835 6.835 0 0 1 3.31 5.295l.452 5.437a3.733 3.733 0 0 1-3.364 4.018l-.427.04c-.114.016-.229.016-.341.016a3.737 3.737 0 0 1-3.678-3.188l-.709-4.554-1.87-.966c-.02.102-.045.207-.074.309l-2.226 7.703a3.737 3.737 0 0 1-3.562 2.692c-.326 0-.65-.042-.965-.126l-.737-.195A3.71 3.71 0 0 1 8.9 64.443l1.056-6.17a4.43 4.43 0 0 0-.154-2.076zm9.963.1l2.369 1.227c.484.25.817.72.893 1.26l.73 4.728c.117.83.825 1.448 1.661 1.448h.154l.428-.04a1.68 1.68 0 0 0 1.514-1.828l-.453-5.441a4.795 4.795 0 0 0-2.313-3.712l-4.967-2.952zm-9.905-7.188c-.038.255-.018.516.06.762l1.824 5.71c.315.984.389 2.028.216 3.046l-1.049 6.17a1.682 1.682 0 0 0 1.22 1.907l.73.195c.141.04.288.06.436.06a1.681 1.681 0 0 0 1.611-1.216l2.225-7.7c.043-.151.066-.307.067-.464l.03-9.39a1.73 1.73 0 0 1 .096-.553l1-2.842a1.68 1.68 0 0 1 2.062-1.054l3.669 1.087c.156.047.318.071.48.07h.024l5.378-.075a1.683 1.683 0 0 0 .194-3.35l-6.18-.762a1.64 1.64 0 0 1-.462-.125l-7.056-3.058a1.668 1.668 0 0 0-.666-.14h-2.671c-1.497 0-1.696 1.465-1.696 1.465L9.858 49.103zm-.2-24.094c-.44-3.255 1.831-6.255 5.079-6.704l.237-.032c3.249-.443 6.242 1.834 6.69 5.089l.405 2.96a5.974 5.974 0 0 1-1.3 4.578 5.832 5.832 0 0 1-.287.33l-.09.09-.026.024c-.095.096-.19.187-.288.273a2.682 2.682 0 0 1-.127.105l-.035.028a5.862 5.862 0 0 1-.278.217 4.985 4.985 0 0 1-.161.11l-.076.047c-.083.056-.173.118-.237.155a4.113 4.113 0 0 1-.2.106l-.093.05c-.07.037-.14.07-.212.105-.07.035-.148.065-.225.094l-.11.043c-.064.028-.129.055-.197.08-.105.033-.206.061-.308.09l-.082.024c-.057.017-.112.034-.17.048-.195.046-.39.083-.58.11l-.237.032a4.324 4.324 0 0 1-.587.05h-.574c-.072-.004-.142-.012-.213-.02l-.112-.013a3.512 3.512 0 0 1-.244-.03c-.08-.012-.157-.029-.234-.044l-.107-.024-.217-.048a5.206 5.206 0 0 1-.276-.085l-.072-.021c-.064-.02-.128-.04-.193-.064a6.438 6.438 0 0 1-.329-.136l-.041-.017-.142-.063a5.652 5.652 0 0 1-.36-.188l-.027-.016-.108-.062a5.122 5.122 0 0 1-.372-.244 5.968 5.968 0 0 1-2.476-4.057zm5.355-4.665l-.012.001a3.908 3.908 0 0 0-3.327 4.41l.404 2.955a3.861 3.861 0 0 0 1.626 2.66c.08.05.162.105.245.155l.09.05c.082.044.156.087.236.124l.057.026.065.026c.07.031.142.064.214.09l.096.03.09.03c.056.017.111.037.168.051l.111.025.13.026.123.026c.041.007.085.014.128.014l.154.016c.034.01.066.01.098.01h.375c.128-.004.257-.015.385-.032l.238-.032c.122-.017.251-.042.38-.073l.052-.015.13-.039c.062-.017.124-.032.184-.054.029-.01.06-.023.09-.035l.138-.056.118-.048c.039-.017.074-.037.111-.057l.113-.059c.035-.018.057-.029.106-.057.05-.028.095-.059.142-.09l.089-.058.08-.053c.06-.043.119-.092.177-.14l.057-.045.052-.043c.067-.057.128-.119.19-.18l.078-.078c.065-.062.127-.14.188-.216a3.867 3.867 0 0 0 .855-3.003l-.399-2.96a3.901 3.901 0 0 0-4.388-3.338l-.237.033zm79.658 18.39c.415.384.44 1.032.057 1.448a1.02 1.02 0 0 1-1.444.057l-3.368-3.102-12.77 12.617a1.018 1.018 0 0 1-.716.294c-.223.002-.44-.07-.617-.206l-10.277-7.75-8.834 7.636a1.02 1.02 0 0 1-1.223.085l-5.695-3.71L25.14 74.67a1.02 1.02 0 0 1-1.14.283l-8.192-3.19L1.784 87.655a1.018 1.018 0 0 1-1.44.089A1.024 1.024 0 0 1 .256 86.3L14.75 69.873a1.02 1.02 0 0 1 1.134-.274l8.185 3.19 46.944-54.403a1.016 1.016 0 0 1 1.462-.083l22.18 20.43zm-6.268-2.981L71.858 20.52 51.13 44.546l4.818 3.137 8.87-7.674a1.02 1.02 0 0 1 1.28-.044l10.231 7.718z"/></g></g></g></svg>