<svg xmlns="http://www.w3.org/2000/svg" width="477" height="350" viewBox="0 0 477 350"><defs><linearGradient id="uyd5a" x1="158.12" x2="231.57" y1="39.06" y2="44.95" gradientUnits="userSpaceOnUse"><stop offset="0" stop-color="#f82e94"/><stop offset="1" stop-color="#ff9e33"/></linearGradient><linearGradient id="uyd5b" x1="13.67" x2="86.85" y1="134.88" y2="143.19" gradientUnits="userSpaceOnUse"><stop offset="0" stop-color="#f82e94"/><stop offset="1" stop-color="#ff9e33"/></linearGradient><linearGradient id="uyd5c" x1="406.25" x2="479.91" y1="48.73" y2="55.83" gradientUnits="userSpaceOnUse"><stop offset="0" stop-color="#f82e94"/><stop offset="1" stop-color="#ff9e33"/></linearGradient><linearGradient id="uyd5d" x1="288.78" x2="365.97" y1="44.45" y2="51.51" gradientUnits="userSpaceOnUse"><stop offset="0" stop-color="#f82e94"/><stop offset="1" stop-color="#ff9e33"/></linearGradient><linearGradient id="uyd5e" x1="365.61" x2="427.25" y1="151.56" y2="158" gradientUnits="userSpaceOnUse"><stop offset="0" stop-color="#f82e94"/><stop offset="1" stop-color="#ff9e33"/></linearGradient><linearGradient id="uyd5f" x1="317" x2="381.8" y1="295.07" y2="301.4" gradientUnits="userSpaceOnUse"><stop offset="0" stop-color="#f82e94"/><stop offset="1" stop-color="#ff9e33"/></linearGradient></defs><g><g transform="scale(-1 1) rotate(7 0 -3724.94)"><g opacity=".8"><g opacity=".8"><path fill="url(#uyd5a)" d="M205.352 49.637l1.894 3.28-.611.354-1.894-3.281zm3.078 5.331l1.105 1.914-.611.353-1.105-1.914zm-9.255-16.346l5.446 9.433-.612.352-5.446-9.432zm4.643-17.895l4.666 8.082-3.438 5.207-6.404-.237-4.248-7.61zm-4.753 12.361l5.61.208 2.98-4.512-2.375-4.114-5.214 3.01-.353-.611 5.214-3.01-1.367-2.368-8.21 4.74 1.35 2.422 1.256-.724.352.61-1.263.73zm6.825 21.51a1.123 1.123 0 1 1-1.945 1.122 1.123 1.123 0 0 1 1.945-1.123zm-.611.352a.417.417 0 1 0-.722.418.417.417 0 0 0 .722-.418zm-3.296-7.12a1.123 1.123 0 1 1-1.945 1.123 1.123 1.123 0 0 1 1.945-1.122zm-.611.354a.417.417 0 1 0-.722.417.417.417 0 0 0 .722-.417zm-3.296-7.12a1.123 1.123 0 1 1-1.945 1.122 1.123 1.123 0 0 1 1.945-1.122zm-.61.353a.417.417 0 1 0-.723.417.417.417 0 0 0 .722-.417zm-3.296-7.12a1.123 1.123 0 1 1-1.945 1.122 1.123 1.123 0 0 1 1.945-1.122zm-.612.353a.417.417 0 1 0-.722.418.417.417 0 0 0 .722-.418zm-3.295-7.12a1.123 1.123 0 1 1-1.945 1.123 1.123 1.123 0 0 1 1.945-1.123zm-.611.353a.417.417 0 1 0-.722.418.417.417 0 0 0 .722-.418zm-1.781-20.85l-3.328 12.42.018.005-.008.113 6.234 2.995.802-11.576a3.302 3.302 0 0 0-1.873-3.21l-1.825-.87a.604.604 0 0 1-.02.123zm-.801.142l-15.326 8.848 12.087 3.24zm-3.28 12.86l-12.595-3.375a.632.632 0 0 1-.023-.007l-.156 1.984a3.302 3.302 0 0 0 1.843 3.227l10.426 5.093.525-6.917a.599.599 0 0 1-.02-.005zm18.444-9.073l6.74 11.675 9.532.409 2.953-10.782a.118.118 0 0 0-.09-.077l-21.764-3.994a8.122 8.122 0 0 1 2.63 2.77zm7.159 12.4l6.122 10.603 2.8-10.221zm9.733.417l-.088-.004-4.709 17.19 5.976 2.552 10.972-16.99-9.224-13.673zm-51.59 7.012a8.12 8.12 0 0 1-1.093-3.942l-7.61 21.371a.12.12 0 0 0 .081.155l4.8 1.286 5.931 1.554 4.547-8.716.149.078zm23.7 40.038c.373.646 1.2.868 1.847.495l31.086-17.948c.647-.373.868-1.2.495-1.847l-4.126-7.146-7.052-3.011 1.767-6.45-13.63-23.607a7.452 7.452 0 0 0-10.02-2.816c.499.73.754 1.62.69 2.54l-.874 12.614-6.923-3.326-.586 7.721-11.36-5.55a4.005 4.005 0 0 1-1.947-2.073 7.451 7.451 0 0 0-2.455 10.013l13.678 23.692-.33.19 6.645 1.742-.922 7.653-.088.004zm-33.068-22.846l8.347-23.438.202.072a8.13 8.13 0 0 1 3.67-4.889 4.006 4.006 0 0 1-.075-1.146l.228-2.881.322.086a.576.576 0 0 1 .195-.182l15.97-9.22a.573.573 0 0 1 .276-.079l.109-.406 2.608 1.244c.427.203.806.476 1.127.801a8.128 8.128 0 0 1 5.86-.851l.018-.092 24.47 4.49a.818.818 0 0 1 .475.271c.125.01.247.072.33.193l9.822 14.562-11.131 17.238 4.284 7.42a2.058 2.058 0 0 1-.753 2.811l-31.086 17.948a2.058 2.058 0 0 1-2.811-.754l-4.286-7.423-20.38 1.015-7.697-15.785a.433.433 0 0 1-.03-.315.822.822 0 0 1-.064-.69zm11.825 4.091l-6.461-1.731-4.385-1.15 7.243 14.852 20.2-1.006.777-6.45-17.356-4.549zm4.666-8.946l-4.314 8.27 10.71 2.807z"/></g></g><g><g><path fill="url(#uyd5b)" d="M65.591 137.047l-12.959 19.946-.592-.384L65 136.663zm-14.404 22.137l-1.918 2.803-.583-.399 1.919-2.802zm-3.21 4.762l-2.493 3.55-.578-.404 2.493-3.552zm15.892-69.23l-1.173 2.031-.61-.353 1.172-2.03zm7.308 4.22l-1.172 2.03-.611-.352 1.172-2.03zm7.308 4.22l-1.172 2.03-.612-.353 1.173-2.03zm-56.35 67.13a.917.917 0 0 0 1.251-.336l.747-1.292a.917.917 0 0 0-.336-1.252l-7.112-4.107a.917.917 0 0 0-1.251.336l-.747 1.293a.917.917 0 0 0 .335 1.252zm17.952 10.474a1.011 1.011 0 0 0 1.38-.37l.747-1.293a1.011 1.011 0 0 0-.37-1.38l-7.112-4.107a1.01 1.01 0 0 0-1.38.37l-.747 1.293a1.01 1.01 0 0 0 .37 1.38zm23.308-68.913c1.683.67 3.648.021 4.58-1.595l3.028-5.243-2.907-1.678-4.874 8.442zM52.41 94.275l-4.501 8.71c1.555.627 3.697-.265 6.16-2.287a28.785 28.785 0 0 0 2.734-2.588c.151-.162.295-.32.43-.47l.34-.385zM83.44 112.19l-5.08-2.933-.129.363-.093.283-.192.608a28.787 28.787 0 0 0-.875 3.661c-.503 3.051-.238 5.308.985 6.382zm-59.171 54.164l35.883-47.066-24.397 54.059 6.064 3.5 35.85-55.692c-1.534-1.247-1.845-3.762-1.294-7.098.205-1.242.52-2.516.896-3.752.132-.433.262-.83.386-1.184l.08-.224-6.122-3.534-3.027 5.243a4.416 4.416 0 0 1-6.032 1.617l-.305-.176 5.235-9.068-9.292-5.365-.23.27-.203.228-.44.48a29.477 29.477 0 0 1-2.802 2.653c-2.68 2.199-5.065 3.183-6.934 2.37L17.25 162.302zm63.12-59.556l-2.97 5.143.015.008-.192.3-.175.303-.015-.009-41.65 64.702c.66.519.856 1.458.424 2.206l-.746 1.292a1.717 1.717 0 0 1-2.345.629l-7.112-4.107a1.717 1.717 0 0 1-.628-2.344l.746-1.292a1.717 1.717 0 0 1 2.344-.63l.042.025 21.84-48.395-32.289 42.351c.518.568.634 1.426.23 2.126l-.746 1.292a1.811 1.811 0 0 1-2.474.663l-7.112-4.106a1.81 1.81 0 0 1-.662-2.473l.746-1.293a1.812 1.812 0 0 1 1.798-.891L51.8 93.922l-.014-.008.169-.293.169-.327.015.009 2.97-5.143zM52.75 93.656l31.057 17.93 2.617-4.531-31.058-17.931z"/></g></g><g opacity=".5"><g opacity=".5"><path fill="url(#uyd5c)" d="M428.347 38.593l1.993 3.452-.612.352-1.992-3.451zm3.065 5.309l1.105 1.913-.611.353-1.105-1.913zm7.46-11.386l1.994 3.451-.612.353-1.992-3.451zm3.066 5.309l1.105 1.913-.611.353-1.105-1.914zm34.551 23.83l3.012-1.739-.733-1.269-3.011 1.739zm-45.056 26.013l3.012-1.739-.752-1.302-3.012 1.738zm2.47-4.13l-6.943-22.563-8.845-15.324-.348-.437c-1.883-3.33-4.41-5.75-7.275-7.407a17.64 17.64 0 0 0-2.824-1.326c-.219-.08-.422-.147-.608-.205l.088.57.061.365.139.783.16.852a106.9 106.9 0 0 0 1.995 8.398c3.95 14.165 10.407 27.741 19.974 38.849zm24.695-40.811l16.177 17.41.018-.01-.02-.033 4.234-2.444.02.033.173-.1c-4.836-13.84-13.365-26.22-23.657-36.723a106.884 106.884 0 0 0-6.275-5.927 83.653 83.653 0 0 0-.658-.564l-.608-.512-.559-.457-.386-.309a8.73 8.73 0 0 0-.212.5 10.868 10.868 0 0 0-.643 2.598c-.353 2.837.259 5.945 2.185 9.215l.363.558 9.738 16.867zm-24.522-25.56l1.175-1.441.097-.083 3.368-1.944.117-.043 2.117-.366c-.46-.936-1.15-1.88-2.096-2.601-1.61-1.23-3.633-1.545-6.16-.611l-3.065 11.441a27.792 27.792 0 0 0 4.447-4.352zm-22.468 12.01l.106-.086 3.391-1.958.142-.045a27.781 27.781 0 0 0 7.794-1.944l-11.304-3.029c-2.072 1.722-2.81 3.632-2.55 5.64.145 1.122.577 2.144 1.12 2.986zm12.473-4.485l.069-.031.026.057 3.578.959.036-.022 2.77-10.34-.464.587a20.023 20.023 0 0 1-12.413 7.076zm8.025-15.144l.167-.065c2.834-1.1 5.17-.76 7.01.645 1.107.846 1.888 1.95 2.389 3.037l5.425-.938.122.094.669.53c.18.146.367.3.564.463l.615.517.663.57a107.59 107.59 0 0 1 6.317 5.965c10.427 10.642 19.058 23.2 23.915 37.261l.095.276-.678.391 1.086 1.88-4.234 2.445-1.085-1.88-.505.29-14.909-16.045 8.024 13.897a5.04 5.04 0 0 1-1.845 6.885l-22.776 13.15a5.04 5.04 0 0 1-6.885-1.845l-7.709-13.356 6.202 20.153-.505.291 1.17 2.028-4.233 2.445-1.171-2.028-.679.392-.75-.871c-9.441-11.116-15.826-24.616-19.752-38.692a107.6 107.6 0 0 1-2.008-8.454 72.809 72.809 0 0 1-.42-2.37l-.07-.458-.075-.539 3.585-4.305c-.65-.955-1.177-2.137-1.348-3.461-.298-2.296.576-4.488 2.946-6.393l.14-.112 4.265 1.143 1.654-.19a19.307 19.307 0 0 0 12.054-6.835l1.4-1.769.041.033zm4.755 67.17a4.334 4.334 0 0 0 5.921 1.587l22.776-13.15a4.334 4.334 0 0 0 1.587-5.92L463.2 52.4a9.193 9.193 0 0 1-12.243-3.538l-1.008-1.745-15.178 8.763 1.048 1.813a9.114 9.114 0 0 1-2.906 12.186zM412.12 29.662l-4.924 5.918c.216.065.455.144.713.237.924.334 1.915.788 2.937 1.379 2.968 1.718 5.587 4.226 7.503 7.622l.346.434 8.873 15.37.02-.007.027.086 4.945 8.566a8.408 8.408 0 0 0 2.648-11.22l-1.4-2.425 16.4-9.468 1.36 2.356a8.488 8.488 0 0 0 11.28 3.28L448.149 26.33l-.361-.555c-2.016-3.42-2.658-6.685-2.286-9.674a11.57 11.57 0 0 1 .788-3.02l-7.275 1.26-3.104 1.79-.061.205a17.56 17.56 0 0 1-2.995 5.756l4.867 8.43-.611.352-4.734-8.2a17.667 17.667 0 0 1-9.872 5.8l4.69 8.124-.61.353-4.817-8.343c-2.323.37-4.757.278-7.174-.348l.007-.024zm3.448-1.898a16.82 16.82 0 0 0 5.822.188l-.707-1.224c-1.665.5-3.377.847-5.115 1.036zm8.576-2.325c-.905.406-1.83.764-2.771 1.072l.76 1.318a16.93 16.93 0 0 0 4.745-1.657zm5.189-2.812l-.657 2.451a16.897 16.897 0 0 0 3.327-3.052l-.61-1.054a28.464 28.464 0 0 1-2.06 1.655zm5.291-5.014a28.522 28.522 0 0 1-2.695 2.874l.546.945a16.81 16.81 0 0 0 2.2-3.882z"/></g></g><g opacity=".6"><g opacity=".6"><path fill="url(#uyd5d)" d="M322.212 75.026l1.677.605 1.26.436c1.27.433 2.593.864 3.937 1.275l-.206.677a134.9 134.9 0 0 1-6.376-2.131l-.54-.199zm12.424 3.861l.919.22 1.213.275-.153.692c-1.64-.366-2.67-.615-3.927-.965l-.713-.202-1.684-.495.201-.68c1.806.54 2.878.844 4.144 1.155zm3.743.708c.626.095 1.21.164 1.748.206l-.053.71a24.787 24.787 0 0 1-1.8-.21zm6.588-45.743l-.98-3.663 3.656-.981.979 3.662zm2.177-3.78l-2.292.616.614 2.3 2.292-.617zm-16.018-4.21l-.98-3.663 3.655-.981.98 3.662zm2.176-3.78l-2.291.616.614 2.3 2.291-.617zm3.525 9.53l-.98-3.661 3.656-.982.98 3.663zm2.177-3.779l-2.292.616.614 2.3 2.292-.616zm20.12-3.1l-.6.533c-.483.438-.99.923-1.51 1.45-1.44 1.465-2.745 3.017-3.825 4.622l1.94 5.095 10.249-6.95-5.917-5.034zm-41.43 2.92l-1.074.644c-.606.37-1.274.788-1.996 1.251a119.604 119.604 0 0 0-7.66 5.353c-4.3 3.265-8.144 6.665-11.279 10.121-2.627 2.898-4.683 5.759-6.08 8.553l.424.534.179.219.387.466.43.505a77.376 77.376 0 0 0 4.583 4.858c3.669 3.58 7.637 6.892 11.896 9.838l25.684-35.24c-4.828-2.808-10.018-5.242-15.493-7.101zm16.105 7.459l-25.713 35.28a82.591 82.591 0 0 0 9.678 5.67l17.124-40.296c-.361-.22-.724-.438-1.089-.654zm14.655 10.68l-.878-.781a79.388 79.388 0 0 0-2.849-2.367 97.786 97.786 0 0 0-9.232-6.505L318.4 76.372c7.055 3.428 14.739 5.868 23.015 7.002l.133-.346.553-1.476c.134-.365.271-.741.41-1.129l.427-1.194.439-1.257c1.48-4.286 2.824-8.65 3.889-12.83 2.144-8.415 2.88-14.994 1.75-18.826zm-9.663-34.481A23.988 23.988 0 0 0 353 19.613l2.31.417-.25.434c-2.715 4.702-8.908 6.2-13.83 3.36-4.922-2.843-6.721-8.955-4.006-13.657l.022-.04-4.422-1.903c-1.058 3.823-2.286 6.922-3.644 9.374l.034.211-.168.027c-2.016 3.556-4.312 5.708-6.752 6.703-1.264.516-2.304.624-3.001.545l-1.145 1.982c10.151 3.482 19.312 8.91 27.017 15.029a78.222 78.222 0 0 1 3.227 2.698l.788.713 1.026-1.96c-1.35-3.249-.845-6.79 1.108-10.465a23.61 23.61 0 0 1 1.085-1.833l-.11-.287.405-.155c1.088-1.594 2.387-3.132 3.817-4.584a37.285 37.285 0 0 1 1.901-1.802l.462-.399-3.676-3.517.488-.51 3.943 3.773.048-.058 6.864 5.837-11.755 7.965-2.074-5.442c-.277.444-.536.892-.775 1.343-1.892 3.561-2.353 6.942-1.018 10.008l.068.155-1.308 2.5c1.195 3.992.451 10.678-1.731 19.242-1.071 4.201-2.42 8.583-3.906 12.886-.52 1.505-1.02 2.894-1.481 4.133l-.477 1.26-.215.551-1.047-.143c-8.312-1.195-16.025-3.693-23.105-7.177l-.236-.101.005-.014c-8.365-4.15-15.84-9.676-22.372-16.051a78.071 78.071 0 0 1-4.625-4.902l-.223-.26-.605-.724-.352-.434-.25-.316-.28-.37.095-.194c1.43-2.923 3.557-5.901 6.288-8.912 3.167-3.492 7.042-6.919 11.374-10.208a120.308 120.308 0 0 1 7.705-5.384c.872-.56 1.667-1.054 2.37-1.477l.178-.108.558-.329 1.582-2.741.312.062c.094.013.23.024.404.024l.29-.007a6.482 6.482 0 0 0 2.093-.495c2.18-.89 4.258-2.784 6.122-5.905l-5.857.942 1.02-14.163 8.486 3.026-.237.664-7.612-2.714-.889 12.349 5.54-.892c1.356-2.466 2.588-5.618 3.649-9.545l.106-.393 5.958 2.564-.26.604zm-1.199-.34l-.111.23c-1.981 4.255-.252 9.502 4.103 12.018 4.435 2.562 9.961 1.347 12.6-2.67l-1.308-.237a24.69 24.69 0 0 1-14.629-8.551z"/></g></g><g opacity=".6" transform="rotate(-54 84 164)"><g opacity=".6"><path fill="url(#uyd5e)" d="M411.728 150.671c.195.007.347.17.34.365l-.075 2.23a.353.353 0 0 1-.706-.025l.076-2.23a.353.353 0 0 1 .365-.34zm-.106 3.104c.195.007.347.17.34.365l-.676 19.826a.353.353 0 1 1-.706-.024l.678-19.826a.353.353 0 0 1 .364-.34zm-.75 21.503a.353.353 0 0 1 .337.369l-.296 6.454a.353.353 0 1 1-.705-.033l.296-6.454a.353.353 0 0 1 .368-.336zm2.505 11.66l-.304-37.984-13.33-7.697-33.056 18.295 4.44 5.492a58.01 58.01 0 0 0 35.336 20.712zm12.807-63.382a.89.89 0 0 0-.326-1.217l-.14-.08a.891.891 0 0 0-1.218.325l-2.493 4.32 1.683.972zm-14.093-2.377l1.028.594 2.494-4.32a.89.89 0 0 0-.326-1.217l-.14-.08a.891.891 0 0 0-1.217.325l-2.513 4.353c.227.102.452.217.674.345zm-13.516 18.586c.09-.165.24-.287.477-.427l.41-.225.354-.198c.597-.358.923-.714 1.04-1.229l3.24-14.196c.621-2.722 3.68-3.91 6.656-2.915l2.567-4.446a1.597 1.597 0 0 1 2.18-.585l.141.081a1.597 1.597 0 0 1 .584 2.181l-2.494 4.32 7.665 4.425 2.494-4.32a1.597 1.597 0 0 1 2.181-.584l.14.081a1.597 1.597 0 0 1 .585 2.181l-2.494 4.32.13.075c3.35 1.934 4.36 5.93 1.965 8.108l-10.81 9.825c-.423.385-.525.92-.433 1.76l.086.684.013.157c.011.196-.002.34-.054.473-.201.514-.67.466-1.416.051l.307 38.413-7.745-1.324a58.716 58.716 0 0 1-35.766-20.964l-4.968-6.145 33.438-18.507c-.509-.359-.685-.688-.473-1.07zm.623.337c.024-.007.12.087.472.298l14.372 8.299c.223.129.393.209.507.246l-.001-.054-.011-.137c-.008-.078-.055-.425-.077-.606l-.028-.28c-.074-.935.089-1.616.68-2.153l10.81-9.826c1.998-1.817 1.13-5.257-1.844-6.974l-.13-.075-.02.034-2.905-1.678.02-.034-7.665-4.425-.02.034-2.27-1.31c-2.786-1.232-5.75-.241-6.304 2.186l-3.24 14.196c-.168.741-.614 1.227-1.361 1.675l-.527.292-.187.103-.126.074-.097.067-.049.045z"/></g></g><g opacity=".6" transform="rotate(65 162 309)"><g opacity=".6" transform="rotate(-30 162 309)"><path fill="url(#uyd5f)" d="M352.203 274.78v8.122a.353.353 0 0 0 .706 0v-8.121a.353.353 0 0 0-.706 0zm0 10.162v.961c0 .194.158.35.353.35a.352.352 0 0 0 .353-.35v-.96a.352.352 0 0 0-.353-.352.352.352 0 0 0-.353.351zm12.917 21.901l2.143 7.834a.353.353 0 0 0 .68-.186l-2.142-7.834a.353.353 0 0 0-.681.186zm2.679 9.802l.357 1.3a.353.353 0 0 0 .68-.184l-.357-1.301a.353.353 0 0 0-.68.185zm.714 2.614l.357 1.3a.353.353 0 0 0 .68-.184l-.356-1.3a.353.353 0 0 0-.681.184zm.714 2.616l1.102 4.022a.353.353 0 0 0 .68-.185l-1.101-4.023a.353.353 0 0 0-.68.186zm-.772-29.942l.516-11.593 3.31 5.313zm-1.063-31.235l14.025 24.742-15.352 16.579-1.769-1.895 8.813-14.477-7.691-12.338c.012.01-.026-.106-.076-.275l-.063-.222c-.063-.23-.125-.482-.184-.757-.591-2.755-.535-5.717.608-8.487.367-.89.841-1.737 1.43-2.532zm-37.307 20.076l1.174 11.923-4.255-6.985zm3.497-17.147c1.143 2.77 1.2 5.732.608 8.488-.059.274-.121.527-.184.757l-.116.398-.055.165-7.66 12.27 8.814 14.478-1.769 1.895-15.352-16.579 14.025-24.742c.71.893 1.27 1.852 1.689 2.87zm20.87 1.825v22.28a4.56 4.56 0 0 1-9.12 0v-21.848a9.999 9.999 0 0 0 4.146.908c1.77 0 3.477-.485 4.975-1.34zm12.329-5.119a12.546 12.546 0 0 0-1.73 2.966c-1.205 2.921-1.265 6.022-.646 8.905.062.288.127.554.194.796l.097.338.09.279 3.548 5.697a.352.352 0 0 0-.03.126l-.592 13.318a.352.352 0 0 0 .09.252l-4.387 7.208 2.652 2.841 1.15-1.243 7.49 27.312-50.576.815 7.597-28.433 1.49 1.609 2.652-2.842-3.846-6.318a.351.351 0 0 0 .047-.214l-1.374-13.956 3.77-6.046c.057-.137.1-.266.154-.45.088-.3.177-.646.259-1.03.619-2.882.56-5.983-.646-8.905a12.55 12.55 0 0 0-1.767-3.013l.069-.012h7.436a10.572 10.572 0 0 0 4.695 5.218.351.351 0 0 0-.04.165v22.02a5.266 5.266 0 0 0 10.531 0V265.01a10.618 10.618 0 0 0 3.82-4.677zm-34.918-.705l-.085-.099-14.65 25.85-.128.224 14.167 15.3a.354.354 0 0 0-.025.067l-7.934 29.693 52.42-.844-7.814-28.496a.353.353 0 0 0-.046-.101l14.517-15.679-14.778-26.073-.176.203a.351.351 0 0 0-.174-.045H358.5l-.087.224a9.902 9.902 0 0 1-3.562 4.514.353.353 0 0 0-.384.255 9.369 9.369 0 0 1-4.988 1.465c-3.93 0-7.513-2.547-8.939-6.233l-.087-.225z"/></g></g></g></g></svg>