<?xml version="1.0" encoding="UTF-8"?>
<svg width="73px" height="63px" viewBox="0 0 73 63" version="1.1" xmlns="http://www.w3.org/2000/svg" xmlns:xlink="http://www.w3.org/1999/xlink">
    <!-- Generator: Sketch 60.1 (88133) - https://sketch.com -->
    <title>Asset 2</title>
    <desc>Created with Sketch.</desc>
    <defs>
        <linearGradient x1="0.0144490298%" y1="50.0017915%" x2="100.01405%" y2="50.0017915%" id="linearGradient-1">
            <stop stop-color="#F6992A" offset="0%"></stop>
            <stop stop-color="#F2278D" offset="100%"></stop>
        </linearGradient>
    </defs>
    <g id="Careers" stroke="none" stroke-width="1" fill="none" fill-rule="evenodd">
        <g id="01_About" transform="translate(-1271.000000, -1693.000000)" fill-rule="nonzero">
            <g id="Asset-2" transform="translate(1271.000000, 1693.000000)">
                <path d="M55.605,16.9884 L50.0676,16.9884 C40.5339,16.9884 30.6801,16.9884 20.988,16.9884 L20.988,16.9884 C20.1432,16.9884 19.7109,16.6584 19.4898,15.8301 C19.2456,14.9325 18.9684,14.025 18.7011,13.1439 C18.4866,12.441 18.2721,11.7381 18.0741,11.0319 C17.9349923,10.5333253 17.5856005,10.1200793 17.1171,9.9 C16.2426,9.4281 15.3714,8.9463 14.5002,8.4645 C13.3584,7.8309 12.1902,7.1742 11.0022,6.5604 C10.3200619,6.24430323 9.85485993,5.59226813 9.7779,4.8444 C9.59077161,3.31335355 8.51181388,2.03987218 7.0323,1.6038 C5.57274065,1.03176645 3.91469748,1.34313004 2.7621,2.4057 C1.90596455,3.1425151 1.38554571,4.19526169 1.32,5.3229 C1.2403666,6.48344951 1.63037904,7.62732744 2.4024,8.4975 C3.13724576,9.32533351 4.17440174,9.82250232 5.28,9.8769 C6.46091314,9.93679175 7.61609586,9.51802314 8.4843,8.7153 C8.9321792,8.21159221 9.6876162,8.1262321 10.2366,8.5173 C11.0451,8.9793 11.8866,9.4347 12.6852,9.8769 C13.4838,10.3191 14.4045,10.8141 15.2526,11.3058 C15.6970893,11.5711232 16.0336609,11.9848258 16.203,12.474 C16.5891,13.7313 16.9455,15.0183 17.2887,16.2624 C17.4306,16.7706 17.5725,17.2821 17.7177,17.7903 C20.8329,28.8585 23.9514,39.9245 27.0732,50.9883 C27.3438,51.9453 27.6771,52.1928 28.6935,52.1928 L31.4226,52.1928 L30.69,53.0211 C29.502,54.3411 29.0004,55.5324 29.0631,56.9217 C29.0938488,58.3614131 29.7475668,59.717005 30.855,60.6375 C32.7166215,62.2502317 35.4611639,62.3139295 37.3956,60.7893 C38.3587006,60.0599909 39.0218467,59.0036521 39.2601,57.8193 C39.6393343,56.1082031 39.1447946,54.3204423 37.9401,53.0475 L37.2174,52.2258 L57.7104,52.2258 L57.0009,53.0442 C55.8624,54.3642 55.374,55.5291 55.4202,56.826 C55.4836336,59.5376635 57.6339737,61.738187 60.3434528,61.8641487 C63.0529318,61.9901103 65.3981573,59.9985824 65.7129,57.3045 C65.9076,55.7601 65.4555,54.3939 64.2906,53.0145 L63.6306,52.2027 L66.1419,52.2027 C66.9042,52.1763 67.4091,51.711 67.3992,51.0477 C67.3893,50.3844 66.8811,49.9356 66.1056,49.9356 L46.9887,49.9356 L40.26,49.9356 C36.8632,49.9356 33.4697,49.9356 30.0795,49.9356 C29.9178,49.9356 29.1126,49.9059 28.9344,49.3845 C28.5747,48.3384 28.2546,47.2956 27.918,46.1934 L27.4296,44.616 L64.5117,44.616 C66.9933,44.616 68.8017,43.0254 69.1317,40.5669 C69.2538,39.6363 69.3594,38.6859 69.4617,37.7652 L69.5442,37.0392 C70.1074,32.0078 70.6695,26.9753 71.2305,21.9417 C71.3658,20.724 71.4978,19.5063 71.6331,18.2721 L71.7717,17.0247 L71.5242,17.0247 L55.605,16.9884 Z M7.9926,7.986 C7.35231235,8.59770141 6.49529337,8.93006335 5.61,8.91 L5.61,8.91 C4.73262688,8.91710459 3.88912474,8.5717089 3.26870792,7.95129208 C2.6482911,7.33087526 2.30289541,6.48737312 2.31,5.61 C2.31530648,3.78535451 3.78545472,2.30344509 5.61,2.2836 L5.61,2.2836 C7.4383152,2.29450098 8.91366738,3.78165598 8.91,5.61 C8.93116279,6.49228126 8.60119462,7.34687507 7.9926,7.986 L7.9926,7.986 Z M60.5286,53.4072 L60.5715,53.4072 C61.531282,53.4111258 62.4523856,53.7859523 63.1422,54.4533 C63.7927248,55.0783518 64.1668999,55.9371728 64.1817021,56.8392 C64.1827208,57.7787585 63.806082,58.679304 63.1364593,59.3383766 C62.4668366,59.9974492 61.5604238,60.3597403 60.621,60.3438 L60.5814,60.3438 C59.6637522,60.3443814 58.7832734,59.9812728 58.1328,59.334 C57.4689445,58.6895688 57.0940061,57.8040001 57.0933,56.8788 C57.0949832,54.9763105 58.6262333,53.4288801 60.5286,53.4072 L60.5286,53.4072 Z M34.2045,53.4071883 C35.1500634,53.4048034 36.059721,53.7691397 36.7422,54.4236 C37.4249294,55.0579911 37.814396,55.9468351 37.818,56.8788 C37.8104393,57.8182041 37.4246286,58.7149247 36.7477396,59.3663527 C36.0708506,60.0177807 35.1600038,60.3689443 34.221,60.3405 L34.221,60.3405 C32.241,60.3405 30.591,58.7565 30.591,56.8788 C30.5976052,55.9841999 30.9625145,55.129575 31.6041,54.5061 C32.2927845,53.8122693 33.2269615,53.4174965 34.2045,53.4071883 Z M35.9007,32.5248 L35.9007,37.29 C35.9388509,37.9071766 35.74856,38.5168123 35.3661,39.0027 C34.9553761,39.4355861 34.3744804,39.6650459 33.7788,39.6297 L33.7788,39.6297 C32.3895,39.6297 31.6206,38.808 31.6206,37.3197 C31.6206,32.9835 31.6206,28.6484 31.6206,24.3144 C31.6206,22.2783 32.9406,21.9714 33.7458,21.9681 L33.7623,21.9681 C34.3311808,21.9329732 34.8898835,22.130723 35.31,22.5159 C35.7421079,22.9958584 35.961191,23.6304848 35.9172,24.2748 C35.9172,25.795 35.9172,27.3163 35.9172,28.8387 L35.9007,32.5248 Z M44.3685,37.3824 C44.3685,38.7882 43.6194,39.6033 42.3159,39.6165 L42.273,39.6165 C41.7033985,39.6553577 41.1424381,39.4612249 40.7187,39.0786 C40.2954195,38.6089773 40.0831193,37.9863892 40.1313,37.356 C40.1313,35.827 40.1313,34.2969 40.1313,32.7657 L40.1313,28.8453 C40.1313,27.3053 40.1313,25.7587 40.1313,24.2055 C40.0922075,23.5815119 40.3077154,22.9683263 40.7286,22.506 C41.1470232,22.1227191 41.7033673,21.9261521 42.2697,21.9615 C43.5897,21.9615 44.3751,22.7997 44.3751,24.2352 C44.3729,28.6176 44.3707,33 44.3685,37.3824 L44.3685,37.3824 Z M52.7175,37.3824 C52.7175,38.8245 51.9552,39.6198 50.5824,39.6198 L50.5824,39.6198 C49.2228,39.6198 48.4704,38.8113 48.4671,37.356 C48.4671,35.816 48.4671,34.276 48.4671,32.736 L48.4671,29.2248 C48.4671,27.5506 48.4671,25.8786 48.4671,24.2088 C48.4276361,23.5861484 48.6446477,22.974462 49.0677,22.5159 C49.4806667,22.1314214 50.0321697,21.931308 50.5956,21.9615 L50.5956,21.9615 C51.9156,21.9615 52.7109,22.7898 52.7109,24.1593 C52.7307,28.5945 52.7274,33.0429 52.7175,37.3824 L52.7175,37.3824 Z M61.0731,37.3824 C61.0731,38.8014 60.2745,39.6132 58.9281,39.6132 L58.9281,39.6132 C57.585,39.6132 56.8095,38.7849 56.8062,37.3461 C56.8062,35.8193 56.8062,34.2903 56.8062,32.7591 L56.8062,28.8255 C56.8062,27.2855 56.8062,25.7455 56.8062,24.2055 C56.8062,22.8129 57.5685,21.9978 58.8786,21.9681 C59.4620399,21.9190249 60.0395649,22.1151203 60.4725,22.5093 C60.9070698,22.9762324 61.1292207,23.6020767 61.0863,24.2385 C61.0863,27.0413 61.0863,29.843 61.0863,32.6436 L61.0863,36.63 C61.0764,36.8874 61.0764,37.1382 61.0731,37.389 L61.0731,37.3824 Z" id="Shape" fill="url(#linearGradient-1)"></path>
                <path d="M4.1481,0.5214 L6.93,0.5214 C6.02053187,0.264219185 5.05756813,0.264219185 4.1481,0.5214 L4.1481,0.5214 Z" id="Path" fill="#000000"></path>
                <polygon id="Path" fill="#000000" points="60.5715 62.8881 60.5748 62.8848 60.5682 62.8848"></polygon>
                <path d="M72.8772,16.0611 L72.3294,16.0347 L72.3294,21.0804 C72.4284,20.1762 72.5274,19.2687 72.6264,18.3513 L72.8772,16.0611 Z" id="Path" fill="#000000"></path>
                <path d="M61.0764,32.6403 C61.0764,29.8397 61.0764,27.038 61.0764,24.2352 C61.1193207,23.5987767 60.8971698,22.9729324 60.4626,22.506 C60.0296649,22.1118203 59.4521399,21.9157249 58.8687,21.9648 C57.5487,21.9945 56.8029,22.8096 56.7963,24.2022 C56.7963,25.7422 56.7963,27.2822 56.7963,28.8222 L56.7963,32.7657 C56.7963,34.2925 56.7963,35.8215 56.7963,37.3527 C56.7963,38.7915 57.5751,39.6165 58.9182,39.6198 L58.9182,39.6198 C60.2646,39.6198 61.0467,38.808 61.0632,37.389 C61.0632,37.1382 61.0632,36.8874 61.0632,36.6366 L61.0632,32.6403 L61.0764,32.6403 Z M60.0864,37.3758 C60.0864,38.2536 59.73,38.6298 58.9314,38.6298 L58.9314,38.6298 C58.3737,38.6298 57.7995,38.4747 57.7962,37.3494 C57.7962,35.8204 57.7962,34.2925 57.7962,32.7657 L57.7962,28.8255 C57.7962,27.2855 57.7962,25.7455 57.7962,24.2055 C57.7962,23.1165 58.3902,22.9614 58.9017,22.9515 C59.2185797,22.9155614 59.5364917,23.0096253 59.7828,23.2122 C60.0191643,23.4966584 60.1320353,23.8637864 60.0963,24.2319 C60.0963,27.0347 60.0963,29.8364 60.0963,32.637 L60.0963,36.63 C60.0864,36.8841 60.0864,37.1316 60.0831,37.3758 L60.0864,37.3758 Z" id="Shape" fill="#000000"></path>
                <path d="M42.2664,21.9615 C41.7000673,21.9261521 41.1437232,22.1227191 40.7253,22.506 C40.3044154,22.9683263 40.0889075,23.5815119 40.128,24.2055 C40.128,25.7455 40.128,27.2921 40.128,28.8453 L40.128,32.7657 C40.128,34.3057 40.128,35.8358 40.128,37.356 C40.0798193,37.9863892 40.2921195,38.6089773 40.7154,39.0786 C41.1391381,39.4612249 41.7000985,39.6553577 42.2697,39.6165 L42.3126,39.6165 C43.6326,39.6165 44.3652421,38.7882 44.3652421,37.3824 C44.3652421,33 44.3652421,28.6176 44.3652421,24.2352 C44.3718,22.7997 43.6029,21.9714 42.2664,21.9615 Z M43.3785,37.3824 C43.3785,38.4681 42.834,38.6232 42.3027,38.6265 C41.9850396,38.6666481 41.6646877,38.5761397 41.415,38.3757 C41.1896325,38.0849314 41.084499,37.7187363 41.1213,37.3527 C41.1213,35.8259 41.1213,34.298 41.1213,32.769 L41.1213,30.3237 L41.1213,30.3237 L41.1213,28.8453 C41.1213,27.3053 41.1213,25.7653 41.1213,24.2253 C41.0925106,23.8686544 41.2011207,23.5144912 41.4249,23.2353 C41.6589071,23.0413629 41.9605778,22.9487239 42.2631,22.9779 C42.8439,22.9779 43.3851,23.1396 43.3851,24.2616 C43.3829,28.6264 43.3807,33 43.3785,37.3824 Z" id="Shape" fill="#000000"></path>
                <path d="M72.3294,20.46 L72.3294,16.0347 L72.0588,16.0347 C71.8674,16.0347 71.6991,16.0149 71.5341,16.0149 L50.0676,16.0149 C40.5372,16.0149 30.6801,16.0149 20.9847,16.0149 C20.5755,16.0149 20.5425,15.9819 20.4369,15.5892 C20.1927,14.6784 19.9122,13.761 19.6416,12.8733 C19.4304,12.177 19.2159,11.4807 19.0179,10.7811 C18.8200013,10.0123069 18.297157,9.36778689 17.5857,9.0156 C16.7145,8.5437 15.84,8.0619 14.9787,7.59 C13.8303,6.9564 12.6456,6.2964 11.4609,5.676 C11.0572706,5.50604346 10.7840115,5.12297001 10.7547,4.686 C10.5143662,2.79131277 9.18325472,1.21465645 7.3557,0.66 C7.2105,0.6039 7.0686,0.561 6.93,0.5214 L4.1481,0.5214 C3.39577138,0.745933699 2.70109998,1.13098657 2.112,1.65 C1.05438641,2.56302332 0.411538888,3.86538478 0.33,5.2602 C0.228054621,6.68294505 0.70391084,8.0867209 1.65,9.1542 C2.5582148,10.1807987 3.84174553,10.7981782 5.2107,10.8669 C6.6560808,10.9399574 8.07010136,10.4285791 9.1344,9.4479 C9.3918,9.2136 9.438,9.207 9.7284,9.3753 C10.5435,9.8439 11.3784,10.3026 12.1968,10.7448 C13.0152,11.187 13.9029,11.6787 14.7411,12.1605 C14.9688234,12.3018313 15.1438785,12.5139841 15.2394,12.7644 C15.6222,14.0085 15.9786,15.2889 16.3185,16.5264 C16.4604,17.0379 16.6023,17.5494 16.7475,18.0609 L26.103,51.2589 C26.4924,52.6449 27.2151,53.1828 28.677,53.1828 L29.271,53.1828 C28.4307234,54.2612196 27.998296,55.6017447 28.05,56.9679 C28.1047811,58.6767779 28.8848958,60.2814138 30.195,61.38 C32.4164309,63.3040688 35.6910274,63.3802222 37.9995,61.5615 C39.1484014,60.6886661 39.9383359,59.42571 40.2204,58.0107 C40.5872429,56.3546907 40.2566739,54.620695 39.3063,53.2158 L55.6017,53.2158 C54.8117642,54.2589717 54.3956551,55.5375194 54.4203,56.8458 C54.4410656,58.5353206 55.1702207,60.1385039 56.43,61.2645 C57.5585812,62.305057 59.0364296,62.8844207 60.5715,62.8881 L60.5715,62.8881 C61.7763051,62.8856735 62.9533664,62.5262392 63.954,61.8552 C65.4858661,60.8700064 66.4892678,59.2441802 66.6831,57.4332 C66.8739965,55.93661 66.503664,54.4223617 65.6436,53.1828 L66.1485,53.1828 C67.4487,53.1366 68.3793,52.2291 68.3595,51.0213 C68.3397,49.8135 67.3695,48.9357 66.0792,48.9357 L46.959,48.9357 L40.26,48.9357 C36.8676,48.9357 33.4752,48.9357 30.0828,48.9357 C29.9936607,48.9342572 29.9050207,48.9220692 29.8188,48.8994 C29.4888,47.9094 29.1819,46.9359 28.8651,45.8931 L28.7727,45.5961 L64.5117,45.5961 C67.3789052,45.6805293 69.8257301,43.5388379 70.1217,40.6857 C70.2471,39.7452 70.3527,38.7882 70.4517,37.8642 L70.5342,37.1382 C71.0974,32.1068 71.6595,27.0743 72.2205,22.0407 C72.2568,21.7272 72.2898,21.4104 72.3261,21.0969 L72.3261,20.46 L72.3294,20.46 Z M71.643,18.2589 C71.5077,19.4931 71.3757,20.7108 71.2404,21.9285 C70.6794,26.9621 70.1173,31.9946 69.5541,37.026 L69.4716,37.752 C69.3693,38.6727 69.2637,39.6231 69.1416,40.5537 C68.8116,43.0122 66.9933,44.6028 64.5216,44.6028 L27.4296,44.6028 L27.918,46.1802 C28.248,47.2824 28.578,48.3252 28.9344,49.3713 C29.1126,49.8927 29.9244,49.9224 30.0795,49.9224 C33.4719,49.9224 36.8654,49.9224 40.26,49.9224 L46.9623,49.9224 L66.0792,49.9224 C66.8547,49.9224 67.3629,50.358 67.3728,51.0345 C67.3827,51.711 66.8778,52.1631 66.1155,52.1895 L63.6042,52.1895 L64.2642,53.0013 C65.4291,54.3972 65.8812,55.7634 65.6865,57.2913 C65.521545,58.8184473 64.6716847,60.1879364 63.3765,61.0137 C61.8076886,62.0454067 59.8023408,62.1437256 58.1401304,61.2704305 C56.4779199,60.3971355 55.4211156,58.6900177 55.3806,56.8128 C55.3344,55.5159 55.8228,54.351 56.9613,53.031 L57.6708,52.2126 L37.1778,52.2126 L37.9005,53.0343 C39.1051946,54.3072423 39.5997343,56.0950031 39.2205,57.8061 C38.9822467,58.9904521 38.3191006,60.0467909 37.356,60.7761 C35.4215639,62.3007295 32.6770215,62.2370317 30.8154,60.6243 C29.717557,59.7037126 29.0704241,58.3541157 29.04,56.9217 C28.9773,55.5324 29.4789,54.3312 30.6669,53.0211 L31.416,52.1928 L28.71,52.1928 C27.6936,52.1928 27.3603,51.9453 27.0897,50.9883 C23.9635,39.9245 20.8417,28.8585 17.7243,17.7903 C17.5791,17.2821 17.4372,16.7706 17.2953,16.2624 C16.9653,15.0183 16.5957,13.7313 16.2096,12.474 C16.0402609,11.9848258 15.7036893,11.5711232 15.2592,11.3058 C14.4111,10.8141 13.5366,10.3389 12.6918,9.8769 C11.847,9.4149 11.0418,8.9793 10.2432,8.5173 C9.6942162,8.1262321 8.9387792,8.21159221 8.4909,8.7153 C7.62106709,9.51970307 6.46315981,9.93859656 5.28,9.8769 C4.1755658,9.82163043 3.13975663,9.32453717 2.4057,8.4975 C1.63248686,7.62784985 1.24126515,6.48391282 1.32,5.3229 C1.38554571,4.19526169 1.90596455,3.1425151 2.7621,2.4057 C3.91121256,1.33743833 5.56964784,1.01959293 7.0323,1.5873 C8.51181388,2.02337218 9.59077161,3.29685355 9.7779,4.8279 C9.85485993,5.57576813 10.3200619,6.22780323 11.0022,6.5439 C12.177,7.1577 13.3584,7.8144 14.5002,8.448 C15.3714,8.9298 16.2426,9.4116 17.1171,9.8835 C17.5897456,10.1115398 17.9375691,10.5366573 18.0675,11.0451 C18.2655,11.7513 18.48,12.4542 18.6945,13.1571 C18.9618,14.0382 19.239,14.9457 19.47,15.84 C19.6911,16.665 20.13,16.9983 20.9682,16.9983 L20.9682,16.9983 C30.6603,16.9818 40.5141,16.9818 50.0478,16.9983 L71.5143,16.9983 L71.7618,16.9983 L71.643,18.2589 Z" id="Shape" fill="#000000"></path>
                <path d="M34.221,60.3405 L34.221,60.3405 C35.1600038,60.3689443 36.0708506,60.0177807 36.7477396,59.3663527 C37.4246286,58.7149247 37.8104393,57.8182041 37.818,56.8788 C37.814396,55.9468351 37.4249294,55.0579911 36.7422,54.4236 C36.059721,53.7691397 35.1500634,53.4048034 34.2045,53.4071883 C33.2223758,53.4140281 32.2828243,53.8090668 31.5909,54.5061 C30.9493145,55.129575 30.5844052,55.9841999 30.5778,56.8788 C30.5844,58.7565 32.2509,60.3405 34.221,60.3405 Z M32.2938,55.2057 C32.7988164,54.6942691 33.4857773,54.4035862 34.2045,54.3971963 L34.2045,54.3971963 C34.8953628,54.3960484 35.5599072,54.6621026 36.0591,55.1397 C36.5433467,55.5892138 36.8213967,56.218108 36.828,56.8788 C36.8169295,57.5545619 36.5343022,58.1974201 36.0438447,58.6624234 C35.5533872,59.1274268 34.8963928,59.3754252 34.221,59.3505 L34.221,59.3505 C32.8119,59.3505 31.581,58.1922 31.581,56.8755 C31.5848981,56.2457994 31.8417519,55.6440955 32.2938,55.2057 L32.2938,55.2057 Z" id="Shape" fill="#000000"></path>
                <path d="M35.31,22.5159 C34.8933898,22.1308676 34.3386595,21.930879 33.7722,21.9615 L33.7557,21.9615 C32.9637,21.9615 31.6305,22.2717 31.6305,24.3078 C31.6305,28.6418 31.6305,32.9769 31.6305,37.3131 C31.6305,38.7981 32.3994,39.6231 33.7887,39.6231 L33.7887,39.6231 C34.3843804,39.6584459 34.9652761,39.4289861 35.376,38.9961 C35.75846,38.5102123 35.9487509,37.9005766 35.9106,37.2834 L35.9106,28.8387 C35.9106,27.3163 35.9106,25.795 35.9106,24.2748 C35.956382,23.6314193 35.7397215,22.9969137 35.31,22.5159 L35.31,22.5159 Z M34.9272,32.5248 L34.9272,37.29 C34.9608749,37.665008 34.8590151,38.0396649 34.6401,38.346 C34.4151802,38.5630245 34.1063409,38.6703945 33.7953,38.6397 L33.7953,38.6397 C33.0957,38.6397 32.6271,38.4153 32.6271,37.3197 C32.6271,32.9879 32.6271,28.6539 32.6271,24.3177 C32.6271,23.1297 33.1749,22.9614 33.7689,22.9614 L33.7689,22.9614 C34.0726638,22.9360668 34.374082,23.0321884 34.6071,23.2287 C34.852149,23.5233568 34.9707698,23.9029435 34.9371,24.2847 C34.9371,25.8049 34.9371,27.3262 34.9371,28.8486 L34.9272,32.5248 Z" id="Shape" fill="#000000"></path>
                <path d="M50.6055,21.9615 L50.6055,21.9615 C50.0420697,21.931308 49.4905667,22.1314214 49.0776,22.5159 C48.6545477,22.974462 48.4375361,23.5861484 48.477,24.2088 C48.477,25.8786 48.477,27.5506 48.477,29.2248 L48.477,32.7327 C48.477,34.2727 48.477,35.8127 48.477,37.3527 C48.477,38.808 49.2327,39.6132 50.5923,39.6165 L50.5923,39.6165 C51.9651,39.6165 52.7241,38.8212 52.7274,37.3791 C52.7274,33.0396 52.7274,28.5912 52.7274,24.156 C52.7208,22.7898 51.9288,21.9681 50.6055,21.9615 Z M51.7275,37.3791 C51.7275,38.4186 51.2622,38.6364 50.5791,38.6299437 C49.995,38.6299437 49.4538,38.4714 49.4505,37.356 C49.4505,35.816 49.4505,34.276 49.4505,32.736 L49.4505,29.2248 C49.4505,27.5506 49.4505,25.8786 49.4505,24.2088 C49.4173337,23.8511451 49.5277448,23.4949802 49.7574,23.2188 C49.9883927,23.0233203 50.2873704,22.9272203 50.589,22.9515 L50.589,22.9515 C51.3711,22.9515 51.7209,23.3277 51.7209,24.1626 C51.7407,28.5945 51.7374,33.0429 51.7275,37.3791 Z" id="Shape" fill="#000000"></path>
                <path d="M5.61,2.2836 L5.61,2.2836 C3.78545472,2.30344509 2.31530648,3.78535451 2.31,5.61 C2.30289541,6.48737312 2.6482911,7.33087526 3.26870792,7.95129208 C3.88912474,8.5717089 4.73262688,8.91710459 5.61,8.91 L5.61,8.91 C6.50171029,8.93006824 7.36439588,8.59259895 8.0058,7.9728 C8.60632336,7.33483491 8.93120001,6.48588716 8.91,5.61 C8.91366738,3.78165598 7.4383152,2.29450098 5.61,2.2836 Z M7.2864,7.2864 C6.83563373,7.7145903 6.23129549,7.9430016 5.61,7.92 L5.61,7.92 C4.39471853,7.82832968 3.45544212,6.81553397 3.45544212,5.5968 C3.45544212,4.37806603 4.39471853,3.36527032 5.61,3.2736 L5.61,3.2736 C6.89079258,3.28628036 7.92187445,4.32914603 7.92,5.61 C7.94388576,6.23082372 7.71668822,6.8350978 7.2897,7.2864 L7.2864,7.2864 Z" id="Shape" fill="#000000"></path>
                <path d="M58.1328,59.3307 C58.7832734,59.9779728 59.6637522,60.3410814 60.5814,60.3405 L60.621,60.3405 C61.5604238,60.3564403 62.4668366,59.9941492 63.1364593,59.3350766 C63.806082,58.676004 64.1827208,57.7754585 64.1817021,56.8359 C64.1668999,55.9338728 63.7927248,55.0750518 63.1422,54.45 C62.4523856,53.7826523 61.531282,53.4078258 60.5715,53.4039 L60.5286,53.4039 C58.624942,53.4237866 57.0917041,54.9717389 57.09,56.8755 C57.0915721,57.8011844 57.4677307,58.6868236 58.1328,59.3307 Z M60.5385,54.3972 L60.5715,54.3972 C61.2732482,54.397985 61.9469685,54.6726829 62.4492,55.1628 C62.9122061,55.6030183 63.1796156,56.210335 63.1917,56.8491 C63.1874624,57.5253177 62.9117535,58.1714872 62.4265032,58.6424654 C61.9412529,59.1134436 61.2871429,59.3697454 60.6111,59.3538 C59.2305115,59.3629899 58.1014116,58.2560003 58.0833,56.8755 C58.0868107,55.5172148 59.1803073,54.41343 60.5385,54.3972 L60.5385,54.3972 Z" id="Shape" fill="#000000"></path>
                <path d="M23.0274,52.8792 L7.59,52.8792 C7.31661905,52.8792 7.095,52.657581 7.095,52.3842 C7.095,52.110819 7.31661905,51.8892 7.59,51.8892 L23.0274,51.8892 C23.300781,51.8892 23.5224,52.110819 23.5224,52.3842 C23.5224,52.657581 23.300781,52.8792 23.0274,52.8792 Z" id="Path" fill="#000000"></path>
                <path d="M19.1829,45.1869 L10.659,45.1869 C10.385619,45.1869 10.164,44.965281 10.164,44.6919 C10.164,44.418519 10.385619,44.1969 10.659,44.1969 L19.1829,44.1969 C19.456281,44.1969 19.6779,44.418519 19.6779,44.6919 C19.6779,44.965281 19.456281,45.1869 19.1829,45.1869 L19.1829,45.1869 Z" id="Path" fill="#000000"></path>
                <g id="Group" transform="translate(6.600000, 34.650000)">
                    <polygon id="Path" fill="#FFAA2E" points="0.3597 0.9834 0.3894 1.2936 0.3597 1.2936"></polygon>
                    <polygon id="Path" fill="#FFAA2E" points="0.3597 0.9636 0.3894 1.2738 0.3894 1.2936 0.3597 0.9834"></polygon>
                    <polygon id="Path" fill="#FFA92D" points="0.3597 0.9438 0.3894 1.254 0.3894 1.2738 0.3597 0.9636"></polygon>
                    <polygon id="Path" fill="#FFA82D" points="0.3597 0.924 0.3894 1.2342 0.3894 1.254 0.3597 0.9438"></polygon>
                    <polygon id="Path" fill="#FEA72C" points="0.3597 0.9009 0.3894 1.2144 0.3894 1.2342 0.3597 0.924"></polygon>
                    <polygon id="Path" fill="#FEA62C" points="0.3597 0.8811 0.3894 1.1946 0.3894 1.2144 0.3597 0.9009"></polygon>
                    <polygon id="Path" fill="#FEA52B" points="0.3597 0.8613 0.3894 1.1748 0.3894 1.1946 0.3597 0.8811"></polygon>
                    <polygon id="Path" fill="#FEA42B" points="0.3597 0.8415 0.3894 1.155 0.3894 1.1748 0.3597 0.8613"></polygon>
                    <polygon id="Path" fill="#FDA32A" points="0.3597 0.8217 0.3894 1.1352 0.3894 1.155 0.3597 0.8415"></polygon>
                    <polygon id="Path" fill="#FDA22A" points="0.3597 0.8019 0.3894 1.1154 0.3894 1.1352 0.3597 0.8217"></polygon>
                    <polygon id="Path" fill="#FDA129" points="0.3597 0.7821 0.3894 1.0956 0.3894 1.1154 0.3597 0.8019"></polygon>
                    <polygon id="Path" fill="#FDA028" points="0.3597 0.7623 0.3894 1.0758 0.3894 1.0956 0.3597 0.7821"></polygon>
                    <polygon id="Path" fill="#FC9F28" points="0.3597 0.7425 0.3894 1.056 0.3894 1.0758 0.3597 0.7623"></polygon>
                    <polygon id="Path" fill="#FC9E27" points="0.3597 0.7227 0.3894 1.0362 0.3894 1.056 0.3597 0.7425"></polygon>
                    <polygon id="Path" fill="#FC9D27" points="0.3597 0.7029 0.3894 1.0164 0.3894 1.0362 0.3597 0.7227"></polygon>
                    <polygon id="Path" fill="#FC9C26" points="0.3597 0.6831 0.3894 0.9966 0.3894 1.0164 0.3597 0.7029"></polygon>
                    <polygon id="Path" fill="#FB9B26" points="0.3597 0.6633 0.3894 0.9735 0.3894 0.9966 0.3597 0.6831"></polygon>
                    <polygon id="Path" fill="#FB9A25" points="0.3597 0.6435 0.3894 0.9537 0.3894 0.9735 0.3597 0.6633"></polygon>
                    <polygon id="Path" fill="#FB9925" points="0.3597 0.6237 0.3894 0.9339 0.3894 0.9537 0.3597 0.6435"></polygon>
                    <polygon id="Path" fill="#FB9824" points="0.3597 0.6039 0.3894 0.9141 0.3894 0.9339 0.3597 0.6237"></polygon>
                    <polygon id="Path" fill="#FB9723" points="0.3597 0.5841 0.3894 0.8943 0.3894 0.9141 0.3597 0.6039"></polygon>
                    <polygon id="Path" fill="#FA9623" points="0.3597 0.561 0.3894 0.8745 0.3894 0.8943 0.3597 0.5841"></polygon>
                    <polygon id="Path" fill="#FA9522" points="0.3597 0.5412 0.3894 0.8547 0.3894 0.8745 0.3597 0.561"></polygon>
                    <polygon id="Path" fill="#FA9422" points="0.3597 0.5214 0.3894 0.8349 0.3894 0.8547 0.3597 0.5412"></polygon>
                    <polygon id="Path" fill="#FA9321" points="0.3597 0.5016 0.3894 0.8151 0.3894 0.8349 0.3597 0.5214"></polygon>
                    <polygon id="Path" fill="#F99121" points="0.3597 0.4818 0.3894 0.7953 0.3894 0.8151 0.3597 0.5016"></polygon>
                    <polygon id="Path" fill="#F99020" points="0.3597 0.462 0.3894 0.7755 0.3894 0.7953 0.3597 0.4818"></polygon>
                    <polygon id="Path" fill="#F98F20" points="0.3597 0.4422 0.3894 0.7557 0.3894 0.7755 0.3597 0.462"></polygon>
                    <polygon id="Path" fill="#F98E1F" points="0.3597 0.4224 0.3894 0.7359 0.3894 0.7557 0.3597 0.4422"></polygon>
                    <polygon id="Path" fill="#F88D1F" points="0.3597 0.4026 0.3894 0.7161 0.3894 0.7359 0.3597 0.4224"></polygon>
                    <polygon id="Path" fill="#F88C1E" points="0.3597 0.3828 0.3894 0.6963 0.3894 0.7161 0.3597 0.4026"></polygon>
                    <polygon id="Path" fill="#F88B1D" points="0.3597 0.363 0.3894 0.6765 0.3894 0.6963 0.3597 0.3828"></polygon>
                    <polygon id="Path" fill="#F88A1D" points="0.3597 0.3432 0.3894 0.6567 0.3894 0.6765 0.3597 0.363"></polygon>
                    <polygon id="Path" fill="#F8891C" points="0.3597 0.3234 0.3894 0.6336 0.3894 0.6567 0.3597 0.3432"></polygon>
                    <polygon id="Path" fill="#F7881C" points="0.3597 0.3036 0.3894 0.6138 0.3894 0.6336 0.3597 0.3234"></polygon>
                    <polygon id="Path" fill="#F7871B" points="0.3597 0.2838 0.3894 0.594 0.3894 0.6138 0.3597 0.3036"></polygon>
                    <polygon id="Path" fill="#F7861B" points="0.3597 0.264 0.3894 0.5742 0.3894 0.594 0.3597 0.2838"></polygon>
                    <polygon id="Path" fill="#F7851A" points="0.3597 0.2442 0.3894 0.5544 0.3894 0.5742 0.3597 0.264"></polygon>
                    <polygon id="Path" fill="#F6841A" points="0.3597 0.2244 0.3894 0.5346 0.3894 0.5544 0.3597 0.2442"></polygon>
                    <polygon id="Path" fill="#F68319" points="0.3597 0.2013 0.3894 0.5148 0.3894 0.5346 0.3597 0.2244"></polygon>
                    <polygon id="Path" fill="#F68218" points="0.3597 0.1848 0.3894 0.495 0.3894 0.5148 0.3597 0.2013"></polygon>
                    <polygon id="Path" fill="#F68118" points="0.3597 0.1617 0.3894 0.4752 0.3894 0.495 0.3597 0.1848"></polygon>
                    <polygon id="Path" fill="#F58017" points="0.3597 0.1419 0.3894 0.4554 0.3894 0.4752 0.3597 0.1617"></polygon>
                    <polygon id="Path" fill="#F57F17" points="0.3597 0.1221 0.3894 0.4356 0.3894 0.4554 0.3597 0.1419"></polygon>
                    <polygon id="Path" fill="#F57E16" points="0.3597 0.1023 0.3894 0.4158 0.3894 0.4356 0.3597 0.1221"></polygon>
                    <polygon id="Path" fill="#F57D16" points="0.3597 0.0825 0.3894 0.396 0.3894 0.4158 0.3597 0.1023"></polygon>
                    <polygon id="Path" fill="#F47C15" points="0.3597 0.0627 0.3894 0.3762 0.3894 0.396 0.3597 0.0825"></polygon>
                    <polygon id="Path" fill="#F47B15" points="0.3597 0.0429 0.3894 0.3564 0.3894 0.3762 0.3597 0.0627"></polygon>
                    <polygon id="Path" fill="#F47A14" points="0.3597 0.0231 0.3894 0.3366 0.3894 0.3564 0.3597 0.0429"></polygon>
                    <polygon id="Path" fill="#F47A14" points="0.3894 0.3366 0.3597 0.0231 0.3894 0.0231"></polygon>
                </g>
                <path d="M6.9894,36.2604 C6.82218292,36.2524271 6.68742853,36.1205096 6.6759,35.9535 L6.64289899,34.6797 C6.64247419,34.5060988 6.7766241,34.3618516 6.9498,34.349699 C7.12340118,34.3492742 7.2676484,34.4834241 7.2798,34.6566 L7.3095,35.9271 C7.31492091,36.0116087 7.28555679,36.0946599 7.22822203,36.1569803 C7.17088728,36.2193007 7.09056672,36.2554719 7.0059,36.2571 L6.9894,36.2604 Z" id="Path" fill="#000000"></path>
                <g id="Group" transform="translate(7.590000, 36.300000)">
                    <polygon id="Path" fill="#FFAA2E" points="0.5247 0.2475 0.2145 0.2805 0.2145 0.2475"></polygon>
                    <polygon id="Path" fill="#FFAA2E" points="0.5478 0.2475 0.2343 0.2805 0.2145 0.2805 0.5247 0.2475"></polygon>
                    <polygon id="Path" fill="#FFA92D" points="0.5643 0.2475 0.2541 0.2805 0.2343 0.2805 0.5478 0.2475"></polygon>
                    <polygon id="Path" fill="#FFA82D" points="0.5874 0.2475 0.2739 0.2805 0.2541 0.2805 0.5643 0.2475"></polygon>
                    <polygon id="Path" fill="#FEA72C" points="0.6072 0.2475 0.2937 0.2805 0.2739 0.2805 0.5874 0.2475"></polygon>
                    <polygon id="Path" fill="#FEA62C" points="0.627 0.2475 0.3135 0.2805 0.2937 0.2805 0.6072 0.2475"></polygon>
                    <polygon id="Path" fill="#FEA52B" points="0.6468 0.2475 0.3333 0.2805 0.3135 0.2805 0.627 0.2475"></polygon>
                    <polygon id="Path" fill="#FEA42B" points="0.6666 0.2475 0.3531 0.2805 0.3333 0.2805 0.6468 0.2475"></polygon>
                    <polygon id="Path" fill="#FDA32A" points="0.6864 0.2475 0.3729 0.2805 0.3531 0.2805 0.6666 0.2475"></polygon>
                    <polygon id="Path" fill="#FDA22A" points="0.7062 0.2475 0.3927 0.2805 0.3729 0.2805 0.6864 0.2475"></polygon>
                    <polygon id="Path" fill="#FDA129" points="0.726 0.2475 0.4125 0.2805 0.3927 0.2805 0.7062 0.2475"></polygon>
                    <polygon id="Path" fill="#FDA028" points="0.7458 0.2475 0.4323 0.2805 0.4125 0.2805 0.726 0.2475"></polygon>
                    <polygon id="Path" fill="#FC9F28" points="0.7656 0.2475 0.4554 0.2805 0.4323 0.2805 0.7458 0.2475"></polygon>
                    <polygon id="Path" fill="#FC9E27" points="0.7854 0.2475 0.4719 0.2805 0.4554 0.2805 0.7656 0.2475"></polygon>
                    <polygon id="Path" fill="#FC9D27" points="0.8052 0.2475 0.495 0.2805 0.4719 0.2805 0.7854 0.2475"></polygon>
                    <polygon id="Path" fill="#FC9C26" points="0.825 0.2475 0.5148 0.2805 0.495 0.2805 0.8052 0.2475"></polygon>
                    <polygon id="Path" fill="#FB9B26" points="0.8448 0.2475 0.5346 0.2805 0.5148 0.2805 0.825 0.2475"></polygon>
                    <polygon id="Path" fill="#FB9A25" points="0.8646 0.2475 0.5544 0.2805 0.5346 0.2805 0.8448 0.2475"></polygon>
                    <polygon id="Path" fill="#FB9925" points="0.8844 0.2475 0.5742 0.2805 0.5544 0.2805 0.8646 0.2475"></polygon>
                    <polygon id="Path" fill="#FB9824" points="0.9075 0.2475 0.594 0.2805 0.5742 0.2805 0.8844 0.2475"></polygon>
                    <polygon id="Path" fill="#FB9723" points="0.9273 0.2475 0.6138 0.2805 0.594 0.2805 0.9075 0.2475"></polygon>
                    <polygon id="Path" fill="#FA9623" points="0.9471 0.2475 0.6336 0.2805 0.6138 0.2805 0.9273 0.2475"></polygon>
                    <polygon id="Path" fill="#FA9522" points="0.9669 0.2475 0.6534 0.2805 0.6336 0.2805 0.9471 0.2475"></polygon>
                    <polygon id="Path" fill="#FA9422" points="0.9867 0.2475 0.6732 0.2805 0.6534 0.2805 0.9669 0.2475"></polygon>
                    <polygon id="Path" fill="#FA9321" points="1.0065 0.2475 0.693 0.2805 0.6732 0.2805 0.9867 0.2475"></polygon>
                    <polygon id="Path" fill="#F99121" points="1.0263 0.2475 0.7128 0.2805 0.693 0.2805 1.0065 0.2475"></polygon>
                    <polygon id="Path" fill="#F99020" points="1.0461 0.2475 0.7326 0.2805 0.7128 0.2805 1.0263 0.2475"></polygon>
                    <polygon id="Path" fill="#F98F20" points="1.0659 0.2475 0.7524 0.2805 0.7326 0.2805 1.0461 0.2475"></polygon>
                    <polygon id="Path" fill="#F98E1F" points="1.0857 0.2475 0.7722 0.2805 0.7524 0.2805 1.0659 0.2475"></polygon>
                    <polygon id="Path" fill="#F88D1F" points="1.1055 0.2475 0.792 0.2805 0.7722 0.2805 1.0857 0.2475"></polygon>
                    <polygon id="Path" fill="#F88C1E" points="1.1253 0.2475 0.8118 0.2805 0.792 0.2805 1.1055 0.2475"></polygon>
                    <polygon id="Path" fill="#F88B1D" points="1.1451 0.2475 0.8349 0.2805 0.8118 0.2805 1.1253 0.2475"></polygon>
                    <polygon id="Path" fill="#F88A1D" points="1.1649 0.2475 0.8547 0.2805 0.8349 0.2805 1.1451 0.2475"></polygon>
                    <polygon id="Path" fill="#F8891C" points="1.1847 0.2475 0.8745 0.2805 0.8547 0.2805 1.1649 0.2475"></polygon>
                    <polygon id="Path" fill="#F7881C" points="1.2045 0.2475 0.8943 0.2805 0.8745 0.2805 1.1847 0.2475"></polygon>
                    <polygon id="Path" fill="#F7871B" points="1.2243 0.2475 0.9141 0.2805 0.8943 0.2805 1.2045 0.2475"></polygon>
                    <polygon id="Path" fill="#F7861B" points="1.2441 0.2475 0.9339 0.2805 0.9141 0.2805 1.2243 0.2475"></polygon>
                    <polygon id="Path" fill="#F7851A" points="1.2672 0.2475 0.9537 0.2805 0.9339 0.2805 1.2441 0.2475"></polygon>
                    <polygon id="Path" fill="#F6841A" points="1.287 0.2475 0.9735 0.2805 0.9537 0.2805 1.2672 0.2475"></polygon>
                    <polygon id="Path" fill="#F68319" points="1.3068 0.2475 0.9933 0.2805 0.9735 0.2805 1.287 0.2475"></polygon>
                    <polygon id="Path" fill="#F68218" points="1.3266 0.2475 1.0131 0.2805 0.9933 0.2805 1.3068 0.2475"></polygon>
                    <polygon id="Path" fill="#F68118" points="1.3464 0.2475 1.0329 0.2805 1.0131 0.2805 1.3266 0.2475"></polygon>
                    <polygon id="Path" fill="#F58017" points="1.3662 0.2475 1.0527 0.2805 1.0329 0.2805 1.3464 0.2475"></polygon>
                    <polygon id="Path" fill="#F57F17" points="1.386 0.2475 1.0725 0.2805 1.0527 0.2805 1.3662 0.2475"></polygon>
                    <polygon id="Path" fill="#F57E16" points="1.4058 0.2475 1.0923 0.2805 1.0725 0.2805 1.386 0.2475"></polygon>
                    <polygon id="Path" fill="#F57D16" points="1.4256 0.2475 1.1121 0.2805 1.0923 0.2805 1.4058 0.2475"></polygon>
                    <polygon id="Path" fill="#F47C15" points="1.4454 0.2475 1.1319 0.2805 1.1121 0.2805 1.4256 0.2475"></polygon>
                    <polygon id="Path" fill="#F47B15" points="1.4652 0.2475 1.155 0.2805 1.1319 0.2805 1.4454 0.2475"></polygon>
                    <polygon id="Path" fill="#F47A14" points="1.485 0.2475 1.1715 0.2805 1.155 0.2805 1.4652 0.2475"></polygon>
                    <polygon id="Path" fill="#F47A14" points="1.1715 0.2805 1.485 0.2475 1.485 0.2805"></polygon>
                </g>
                <path d="M7.8045,36.894 C7.6690764,36.8494884 7.57754247,36.7230512 7.57754247,36.5805 C7.57754247,36.4379488 7.6690764,36.3115116 7.8045,36.267 L9.0783,36.234 C9.21759298,36.2731299 9.31515251,36.3984313 9.31893878,36.5430665 C9.32272504,36.6877017 9.23185492,36.8179359 9.0948,36.8643 L7.821,36.894 L7.8045,36.894 Z" id="Path" fill="#000000"></path>
                <g id="Group" transform="translate(6.600000, 36.960000)">
                    <polygon id="Path" fill="#FFAA2E" points="0.3828 0.5478 0.3498 0.2343 0.3828 0.2343"></polygon>
                    <polygon id="Path" fill="#FFAA2E" points="0.3828 0.5676 0.3498 0.2541 0.3498 0.2343 0.3828 0.5478"></polygon>
                    <polygon id="Path" fill="#FFA92D" points="0.3828 0.5874 0.3498 0.2739 0.3498 0.2541 0.3828 0.5676"></polygon>
                    <polygon id="Path" fill="#FFA82D" points="0.3828 0.6072 0.3498 0.2937 0.3498 0.2739 0.3828 0.5874"></polygon>
                    <polygon id="Path" fill="#FEA72C" points="0.3828 0.627 0.3498 0.3135 0.3498 0.2937 0.3828 0.6072"></polygon>
                    <polygon id="Path" fill="#FEA62C" points="0.3828 0.6468 0.3498 0.3333 0.3498 0.3135 0.3828 0.627"></polygon>
                    <polygon id="Path" fill="#FEA52B" points="0.3828 0.6666 0.3498 0.3531 0.3498 0.3333 0.3828 0.6468"></polygon>
                    <polygon id="Path" fill="#FEA42B" points="0.3828 0.6864 0.3498 0.3729 0.3498 0.3531 0.3828 0.6666"></polygon>
                    <polygon id="Path" fill="#FDA32A" points="0.3828 0.7062 0.3498 0.3927 0.3498 0.3729 0.3828 0.6864"></polygon>
                    <polygon id="Path" fill="#FDA22A" points="0.3828 0.726 0.3498 0.4125 0.3498 0.3927 0.3828 0.7062"></polygon>
                    <polygon id="Path" fill="#FDA129" points="0.3828 0.7458 0.3498 0.4323 0.3498 0.4125 0.3828 0.726"></polygon>
                    <polygon id="Path" fill="#FDA028" points="0.3828 0.7656 0.3498 0.4554 0.3498 0.4323 0.3828 0.7458"></polygon>
                    <polygon id="Path" fill="#FC9F28" points="0.3828 0.7854 0.3498 0.4752 0.3498 0.4554 0.3828 0.7656"></polygon>
                    <polygon id="Path" fill="#FC9E27" points="0.3828 0.8052 0.3498 0.495 0.3498 0.4752 0.3828 0.7854"></polygon>
                    <polygon id="Path" fill="#FC9D27" points="0.3828 0.825 0.3498 0.5148 0.3498 0.495 0.3828 0.8052"></polygon>
                    <polygon id="Path" fill="#FC9C26" points="0.3828 0.8448 0.3498 0.5346 0.3498 0.5148 0.3828 0.825"></polygon>
                    <polygon id="Path" fill="#FB9B26" points="0.3828 0.8646 0.3498 0.5544 0.3498 0.5346 0.3828 0.8448"></polygon>
                    <polygon id="Path" fill="#FB9A25" points="0.3828 0.8844 0.3498 0.5742 0.3498 0.5544 0.3828 0.8646"></polygon>
                    <polygon id="Path" fill="#FB9925" points="0.3828 0.9075 0.3498 0.594 0.3498 0.5742 0.3828 0.8844"></polygon>
                    <polygon id="Path" fill="#FB9824" points="0.3828 0.9273 0.3498 0.6138 0.3498 0.594 0.3828 0.9075"></polygon>
                    <polygon id="Path" fill="#FB9723" points="0.3828 0.9471 0.3498 0.6336 0.3498 0.6138 0.3828 0.9273"></polygon>
                    <polygon id="Path" fill="#FA9623" points="0.3828 0.9669 0.3498 0.6534 0.3498 0.6336 0.3828 0.9471"></polygon>
                    <polygon id="Path" fill="#FA9522" points="0.3828 0.9867 0.3498 0.6732 0.3498 0.6534 0.3828 0.9669"></polygon>
                    <polygon id="Path" fill="#FA9422" points="0.3828 1.0065 0.3498 0.693 0.3498 0.6732 0.3828 0.9867"></polygon>
                    <polygon id="Path" fill="#FA9321" points="0.3828 1.0263 0.3498 0.7128 0.3498 0.693 0.3828 1.0065"></polygon>
                    <polygon id="Path" fill="#F99121" points="0.3828 1.0461 0.3498 0.7326 0.3498 0.7128 0.3828 1.0263"></polygon>
                    <polygon id="Path" fill="#F99020" points="0.3828 1.0659 0.3498 0.7524 0.3498 0.7326 0.3828 1.0461"></polygon>
                    <polygon id="Path" fill="#F98F20" points="0.3828 1.0857 0.3498 0.7722 0.3498 0.7524 0.3828 1.0659"></polygon>
                    <polygon id="Path" fill="#F98E1F" points="0.3828 1.1055 0.3498 0.792 0.3498 0.7722 0.3828 1.0857"></polygon>
                    <polygon id="Path" fill="#F88D1F" points="0.3828 1.1253 0.3498 0.8151 0.3498 0.792 0.3828 1.1055"></polygon>
                    <polygon id="Path" fill="#F88C1E" points="0.3828 1.1451 0.3498 0.8349 0.3498 0.8151 0.3828 1.1253"></polygon>
                    <polygon id="Path" fill="#F88B1D" points="0.3828 1.1649 0.3498 0.8547 0.3498 0.8349 0.3828 1.1451"></polygon>
                    <polygon id="Path" fill="#F88A1D" points="0.3828 1.1847 0.3498 0.8745 0.3498 0.8547 0.3828 1.1649"></polygon>
                    <polygon id="Path" fill="#F8891C" points="0.3828 1.2045 0.3498 0.8943 0.3498 0.8745 0.3828 1.1847"></polygon>
                    <polygon id="Path" fill="#F7881C" points="0.3828 1.2243 0.3498 0.9141 0.3498 0.8943 0.3828 1.2045"></polygon>
                    <polygon id="Path" fill="#F7871B" points="0.3828 1.2474 0.3498 0.9339 0.3498 0.9141 0.3828 1.2243"></polygon>
                    <polygon id="Path" fill="#F7861B" points="0.3828 1.2639 0.3498 0.9537 0.3498 0.9339 0.3828 1.2474"></polygon>
                    <polygon id="Path" fill="#F7851A" points="0.3828 1.287 0.3498 0.9735 0.3498 0.9537 0.3828 1.2639"></polygon>
                    <polygon id="Path" fill="#F6841A" points="0.3828 1.3068 0.3498 0.9933 0.3498 0.9735 0.3828 1.287"></polygon>
                    <polygon id="Path" fill="#F68319" points="0.3828 1.3266 0.3498 1.0131 0.3498 0.9933 0.3828 1.3068"></polygon>
                    <polygon id="Path" fill="#F68218" points="0.3828 1.3464 0.3498 1.0329 0.3498 1.0131 0.3828 1.3266"></polygon>
                    <polygon id="Path" fill="#F68118" points="0.3828 1.3662 0.3498 1.0527 0.3498 1.0329 0.3828 1.3464"></polygon>
                    <polygon id="Path" fill="#F58017" points="0.3828 1.386 0.3498 1.0725 0.3498 1.0527 0.3828 1.3662"></polygon>
                    <polygon id="Path" fill="#F57F17" points="0.3828 1.4058 0.3498 1.0923 0.3498 1.0725 0.3828 1.386"></polygon>
                    <polygon id="Path" fill="#F57E16" points="0.3828 1.4256 0.3498 1.1121 0.3498 1.0923 0.3828 1.4058"></polygon>
                    <polygon id="Path" fill="#F57D16" points="0.3828 1.4454 0.3498 1.1319 0.3498 1.1121 0.3828 1.4256"></polygon>
                    <polygon id="Path" fill="#F47C15" points="0.3828 1.4652 0.3498 1.155 0.3498 1.1319 0.3828 1.4454"></polygon>
                    <polygon id="Path" fill="#F47B15" points="0.3828 1.485 0.3498 1.1748 0.3498 1.155 0.3828 1.4652"></polygon>
                    <polygon id="Path" fill="#F47A14" points="0.3828 1.5048 0.3498 1.1946 0.3498 1.1748 0.3828 1.485"></polygon>
                    <polygon id="Path" fill="#F47A14" points="0.3498 1.1946 0.3828 1.5048 0.3498 1.5048"></polygon>
                </g>
                <path d="M6.9828,38.7783187 C6.81274444,38.7801475 6.67290838,38.6447273 6.6693,38.4747 L6.63629899,37.2009 C6.63587419,37.0272988 6.7700241,36.8830516 6.9432,36.8709 C7.02794675,36.8645004 7.11155293,36.8935297 7.17409826,36.9510715 C7.23664359,37.0086132 7.27252744,37.0895146 7.2732,37.1745 L7.30620101,38.4483 C7.30662581,38.6219012 7.1724759,38.7661484 6.9993,38.7783187 L6.9828,38.7783187 Z" id="Path" fill="#000000"></path>
                <g id="Group" transform="translate(4.620000, 36.300000)">
                    <polygon id="Path" fill="#FFAA2E" points="1.2045 0.2904 1.5147 0.2574 1.5147 0.2904"></polygon>
                    <polygon id="Path" fill="#FFAA2E" points="1.1847 0.2904 1.4949 0.2574 1.5147 0.2574 1.2045 0.2904"></polygon>
                    <polygon id="Path" fill="#FFA92D" points="1.1649 0.2904 1.4751 0.2574 1.4949 0.2574 1.1847 0.2904"></polygon>
                    <polygon id="Path" fill="#FFA82D" points="1.1451 0.2904 1.4553 0.2574 1.4751 0.2574 1.1649 0.2904"></polygon>
                    <polygon id="Path" fill="#FEA72C" points="1.1253 0.2904 1.4355 0.2574 1.4553 0.2574 1.1451 0.2904"></polygon>
                    <polygon id="Path" fill="#FEA62C" points="1.1022 0.2904 1.4157 0.2574 1.4355 0.2574 1.1253 0.2904"></polygon>
                    <polygon id="Path" fill="#FEA52B" points="1.0857 0.2904 1.3959 0.2574 1.4157 0.2574 1.1022 0.2904"></polygon>
                    <polygon id="Path" fill="#FEA42B" points="1.0626 0.2904 1.3761 0.2574 1.3959 0.2574 1.0857 0.2904"></polygon>
                    <polygon id="Path" fill="#FDA32A" points="1.0428 0.2904 1.3563 0.2574 1.3761 0.2574 1.0626 0.2904"></polygon>
                    <polygon id="Path" fill="#FDA22A" points="1.023 0.2904 1.3365 0.2574 1.3563 0.2574 1.0428 0.2904"></polygon>
                    <polygon id="Path" fill="#FDA129" points="1.0032 0.2904 1.3167 0.2574 1.3365 0.2574 1.023 0.2904"></polygon>
                    <polygon id="Path" fill="#FDA028" points="0.9834 0.2904 1.2969 0.2574 1.3167 0.2574 1.0032 0.2904"></polygon>
                    <polygon id="Path" fill="#FC9F28" points="0.9636 0.2904 1.2771 0.2574 1.2969 0.2574 0.9834 0.2904"></polygon>
                    <polygon id="Path" fill="#FC9E27" points="0.9438 0.2904 1.2573 0.2574 1.2771 0.2574 0.9636 0.2904"></polygon>
                    <polygon id="Path" fill="#FC9D27" points="0.924 0.2904 1.2375 0.2574 1.2573 0.2574 0.9438 0.2904"></polygon>
                    <polygon id="Path" fill="#FC9C26" points="0.9042 0.2904 1.2177 0.2574 1.2375 0.2574 0.924 0.2904"></polygon>
                    <polygon id="Path" fill="#FB9B26" points="0.8844 0.2904 1.1979 0.2574 1.2177 0.2574 0.9042 0.2904"></polygon>
                    <polygon id="Path" fill="#FB9A25" points="0.8646 0.2904 1.1781 0.2574 1.1979 0.2574 0.8844 0.2904"></polygon>
                    <polygon id="Path" fill="#FB9925" points="0.8448 0.2904 1.155 0.2574 1.1781 0.2574 0.8646 0.2904"></polygon>
                    <polygon id="Path" fill="#FB9824" points="0.825 0.2904 1.1352 0.2574 1.155 0.2574 0.8448 0.2904"></polygon>
                    <polygon id="Path" fill="#FB9723" points="0.8052 0.2904 1.1154 0.2574 1.1352 0.2574 0.825 0.2904"></polygon>
                    <polygon id="Path" fill="#FA9623" points="0.7854 0.2904 1.0956 0.2574 1.1154 0.2574 0.8052 0.2904"></polygon>
                    <polygon id="Path" fill="#FA9522" points="0.7656 0.2904 1.0758 0.2574 1.0956 0.2574 0.7854 0.2904"></polygon>
                    <polygon id="Path" fill="#FA9422" points="0.7458 0.2904 1.056 0.2574 1.0758 0.2574 0.7656 0.2904"></polygon>
                    <polygon id="Path" fill="#FA9321" points="0.726 0.2904 1.0362 0.2574 1.056 0.2574 0.7458 0.2904"></polygon>
                    <polygon id="Path" fill="#F99121" points="0.7029 0.2904 1.0164 0.2574 1.0362 0.2574 0.726 0.2904"></polygon>
                    <polygon id="Path" fill="#F99020" points="0.6831 0.2904 0.9966 0.2574 1.0164 0.2574 0.7029 0.2904"></polygon>
                    <polygon id="Path" fill="#F98F20" points="0.6633 0.2904 0.9768 0.2574 0.9966 0.2574 0.6831 0.2904"></polygon>
                    <polygon id="Path" fill="#F98E1F" points="0.6435 0.2904 0.957 0.2574 0.9768 0.2574 0.6633 0.2904"></polygon>
                    <polygon id="Path" fill="#F88D1F" points="0.6237 0.2904 0.9372 0.2574 0.957 0.2574 0.6435 0.2904"></polygon>
                    <polygon id="Path" fill="#F88C1E" points="0.6039 0.2904 0.9174 0.2574 0.9372 0.2574 0.6237 0.2904"></polygon>
                    <polygon id="Path" fill="#F88B1D" points="0.5841 0.2904 0.8976 0.2574 0.9174 0.2574 0.6039 0.2904"></polygon>
                    <polygon id="Path" fill="#F88A1D" points="0.5643 0.2904 0.8778 0.2574 0.8976 0.2574 0.5841 0.2904"></polygon>
                    <polygon id="Path" fill="#F8891C" points="0.5445 0.2904 0.858 0.2574 0.8778 0.2574 0.5643 0.2904"></polygon>
                    <polygon id="Path" fill="#F7881C" points="0.5247 0.2904 0.8382 0.2574 0.858 0.2574 0.5445 0.2904"></polygon>
                    <polygon id="Path" fill="#F7871B" points="0.5049 0.2904 0.8151 0.2574 0.8382 0.2574 0.5247 0.2904"></polygon>
                    <polygon id="Path" fill="#F7861B" points="0.4851 0.2904 0.7953 0.2574 0.8151 0.2574 0.5049 0.2904"></polygon>
                    <polygon id="Path" fill="#F7851A" points="0.4653 0.2904 0.7755 0.2574 0.7953 0.2574 0.4851 0.2904"></polygon>
                    <polygon id="Path" fill="#F6841A" points="0.4455 0.2904 0.7557 0.2574 0.7755 0.2574 0.4653 0.2904"></polygon>
                    <polygon id="Path" fill="#F68319" points="0.4257 0.2904 0.7359 0.2574 0.7557 0.2574 0.4455 0.2904"></polygon>
                    <polygon id="Path" fill="#F68218" points="0.4026 0.2904 0.7161 0.2574 0.7359 0.2574 0.4257 0.2904"></polygon>
                    <polygon id="Path" fill="#F68118" points="0.3828 0.2904 0.6963 0.2574 0.7161 0.2574 0.4026 0.2904"></polygon>
                    <polygon id="Path" fill="#F58017" points="0.363 0.2904 0.6765 0.2574 0.6963 0.2574 0.3828 0.2904"></polygon>
                    <polygon id="Path" fill="#F57F17" points="0.3432 0.2904 0.6567 0.2574 0.6765 0.2574 0.363 0.2904"></polygon>
                    <polygon id="Path" fill="#F57E16" points="0.3234 0.2904 0.6369 0.2574 0.6567 0.2574 0.3432 0.2904"></polygon>
                    <polygon id="Path" fill="#F57D16" points="0.3036 0.2904 0.6171 0.2574 0.6369 0.2574 0.3234 0.2904"></polygon>
                    <polygon id="Path" fill="#F47C15" points="0.2838 0.2904 0.5973 0.2574 0.6171 0.2574 0.3036 0.2904"></polygon>
                    <polygon id="Path" fill="#F47B15" points="0.264 0.2904 0.5775 0.2574 0.5973 0.2574 0.2838 0.2904"></polygon>
                    <polygon id="Path" fill="#F47A14" points="0.2442 0.2904 0.5577 0.2574 0.5775 0.2574 0.264 0.2904"></polygon>
                    <polygon id="Path" fill="#F47A14" points="0.5577 0.2574 0.2442 0.2904 0.2442 0.2574"></polygon>
                </g>
                <path d="M4.8642,36.9039 C4.7287764,36.8593884 4.63724247,36.7329512 4.63724247,36.5904 C4.63724247,36.4478488 4.7287764,36.3214116 4.8642,36.2769 L6.1347,36.2439 C6.22001762,36.2374596 6.30415059,36.2669275 6.36680401,36.3251951 C6.42945744,36.3834628 6.46494274,36.46524 6.46470124,36.5508 C6.46512581,36.7244012 6.3309759,36.8686484 6.1578,36.8808 L4.884,36.9138 L4.8642,36.9039 Z" id="Path" fill="#000000"></path>
                <g id="Group" transform="translate(64.680000, 8.250000)">
                    <polygon id="Path" fill="#FFAA2E" points="0.1782 1.2012 0.2112 1.5114 0.1782 1.5114"></polygon>
                    <polygon id="Path" fill="#FFAA2E" points="0.1782 1.1814 0.2112 1.4916 0.2112 1.5114 0.1782 1.2012"></polygon>
                    <polygon id="Path" fill="#FFA92D" points="0.1782 1.1616 0.2112 1.4718 0.2112 1.4916 0.1782 1.1814"></polygon>
                    <polygon id="Path" fill="#FFA82D" points="0.1782 1.1418 0.2112 1.452 0.2112 1.4718 0.1782 1.1616"></polygon>
                    <polygon id="Path" fill="#FEA72C" points="0.1782 1.1187 0.2112 1.4322 0.2112 1.452 0.1782 1.1418"></polygon>
                    <polygon id="Path" fill="#FEA62C" points="0.1782 1.1022 0.2112 1.4124 0.2112 1.4322 0.1782 1.1187"></polygon>
                    <polygon id="Path" fill="#FEA52B" points="0.1782 1.0791 0.2112 1.3926 0.2112 1.4124 0.1782 1.1022"></polygon>
                    <polygon id="Path" fill="#FEA42B" points="0.1782 1.0593 0.2112 1.3728 0.2112 1.3926 0.1782 1.0791"></polygon>
                    <polygon id="Path" fill="#FDA32A" points="0.1782 1.0395 0.2112 1.353 0.2112 1.3728 0.1782 1.0593"></polygon>
                    <polygon id="Path" fill="#FDA22A" points="0.1782 1.0197 0.2112 1.3332 0.2112 1.353 0.1782 1.0395"></polygon>
                    <polygon id="Path" fill="#FDA129" points="0.1782 0.9999 0.2112 1.3134 0.2112 1.3332 0.1782 1.0197"></polygon>
                    <polygon id="Path" fill="#FDA028" points="0.1782 0.9801 0.2112 1.2936 0.2112 1.3134 0.1782 0.9999"></polygon>
                    <polygon id="Path" fill="#FC9F28" points="0.1782 0.9603 0.2112 1.2738 0.2112 1.2936 0.1782 0.9801"></polygon>
                    <polygon id="Path" fill="#FC9E27" points="0.1782 0.9405 0.2112 1.254 0.2112 1.2738 0.1782 0.9603"></polygon>
                    <polygon id="Path" fill="#FC9D27" points="0.1782 0.9207 0.2112 1.2342 0.2112 1.254 0.1782 0.9405"></polygon>
                    <polygon id="Path" fill="#FC9C26" points="0.1782 0.9009 0.2112 1.2144 0.2112 1.2342 0.1782 0.9207"></polygon>
                    <polygon id="Path" fill="#FB9B26" points="0.1782 0.8811 0.2112 1.1913 0.2112 1.2144 0.1782 0.9009"></polygon>
                    <polygon id="Path" fill="#FB9A25" points="0.1782 0.8613 0.2112 1.1715 0.2112 1.1913 0.1782 0.8811"></polygon>
                    <polygon id="Path" fill="#FB9925" points="0.1782 0.8415 0.2112 1.1517 0.2112 1.1715 0.1782 0.8613"></polygon>
                    <polygon id="Path" fill="#FB9824" points="0.1782 0.8217 0.2112 1.1319 0.2112 1.1517 0.1782 0.8415"></polygon>
                    <polygon id="Path" fill="#FB9723" points="0.1782 0.8019 0.2112 1.1121 0.2112 1.1319 0.1782 0.8217"></polygon>
                    <polygon id="Path" fill="#FA9623" points="0.1782 0.7821 0.2112 1.0923 0.2112 1.1121 0.1782 0.8019"></polygon>
                    <polygon id="Path" fill="#FA9522" points="0.1782 0.759 0.2112 1.0725 0.2112 1.0923 0.1782 0.7821"></polygon>
                    <polygon id="Path" fill="#FA9422" points="0.1782 0.7425 0.2112 1.0527 0.2112 1.0725 0.1782 0.759"></polygon>
                    <polygon id="Path" fill="#FA9321" points="0.1782 0.7194 0.2112 1.0329 0.2112 1.0527 0.1782 0.7425"></polygon>
                    <polygon id="Path" fill="#F99121" points="0.1782 0.6996 0.2112 1.0131 0.2112 1.0329 0.1782 0.7194"></polygon>
                    <polygon id="Path" fill="#F99020" points="0.1782 0.6798 0.2112 0.9933 0.2112 1.0131 0.1782 0.6996"></polygon>
                    <polygon id="Path" fill="#F98F20" points="0.1782 0.66 0.2112 0.9735 0.2112 0.9933 0.1782 0.6798"></polygon>
                    <polygon id="Path" fill="#F98E1F" points="0.1782 0.6402 0.2112 0.9537 0.2112 0.9735 0.1782 0.66"></polygon>
                    <polygon id="Path" fill="#F88D1F" points="0.1782 0.6204 0.2112 0.9339 0.2112 0.9537 0.1782 0.6402"></polygon>
                    <polygon id="Path" fill="#F88C1E" points="0.1782 0.6006 0.2112 0.9141 0.2112 0.9339 0.1782 0.6204"></polygon>
                    <polygon id="Path" fill="#F88B1D" points="0.1782 0.5808 0.2112 0.8943 0.2112 0.9141 0.1782 0.6006"></polygon>
                    <polygon id="Path" fill="#F88A1D" points="0.1782 0.561 0.2112 0.8745 0.2112 0.8943 0.1782 0.5808"></polygon>
                    <polygon id="Path" fill="#F8891C" points="0.1782 0.5412 0.2112 0.8547 0.2112 0.8745 0.1782 0.561"></polygon>
                    <polygon id="Path" fill="#F7881C" points="0.1782 0.5214 0.2112 0.8316 0.2112 0.8547 0.1782 0.5412"></polygon>
                    <polygon id="Path" fill="#F7871B" points="0.1782 0.5016 0.2112 0.8118 0.2112 0.8316 0.1782 0.5214"></polygon>
                    <polygon id="Path" fill="#F7861B" points="0.1782 0.4818 0.2112 0.792 0.2112 0.8118 0.1782 0.5016"></polygon>
                    <polygon id="Path" fill="#F7851A" points="0.1782 0.462 0.2112 0.7722 0.2112 0.792 0.1782 0.4818"></polygon>
                    <polygon id="Path" fill="#F6841A" points="0.1782 0.4422 0.2112 0.7524 0.2112 0.7722 0.1782 0.462"></polygon>
                    <polygon id="Path" fill="#F68319" points="0.1782 0.4191 0.2112 0.7326 0.2112 0.7524 0.1782 0.4422"></polygon>
                    <polygon id="Path" fill="#F68218" points="0.1782 0.3993 0.2112 0.7128 0.2112 0.7326 0.1782 0.4191"></polygon>
                    <polygon id="Path" fill="#F68118" points="0.1782 0.3795 0.2112 0.693 0.2112 0.7128 0.1782 0.3993"></polygon>
                    <polygon id="Path" fill="#F58017" points="0.1782 0.3597 0.2112 0.6732 0.2112 0.693 0.1782 0.3795"></polygon>
                    <polygon id="Path" fill="#F57F17" points="0.1782 0.3399 0.2112 0.6534 0.2112 0.6732 0.1782 0.3597"></polygon>
                    <polygon id="Path" fill="#F57E16" points="0.1782 0.3201 0.2112 0.6336 0.2112 0.6534 0.1782 0.3399"></polygon>
                    <polygon id="Path" fill="#F57D16" points="0.1782 0.3003 0.2112 0.6138 0.2112 0.6336 0.1782 0.3201"></polygon>
                    <polygon id="Path" fill="#F47C15" points="0.1782 0.2805 0.2112 0.594 0.2112 0.6138 0.1782 0.3003"></polygon>
                    <polygon id="Path" fill="#F47B15" points="0.1782 0.2607 0.2112 0.5742 0.2112 0.594 0.1782 0.2805"></polygon>
                    <polygon id="Path" fill="#F47A14" points="0.1782 0.2409 0.2112 0.5544 0.2112 0.5742 0.1782 0.2607"></polygon>
                    <polygon id="Path" fill="#F47A14" points="0.2112 0.5544 0.1782 0.2409 0.2112 0.2409"></polygon>
                </g>
                <path d="M64.8912,10.0782 C64.7239829,10.0702271 64.5892285,9.93830962 64.5777,9.7713 L64.544699,8.4975 C64.5442742,8.32389882 64.6784241,8.1796516 64.8516,8.1675 C64.9366731,8.16205554 65.0202375,8.19186165 65.0826616,8.24991604 C65.1450857,8.30797042 65.1808672,8.389156 65.1816,8.4744 L65.214601,9.7449 C65.2150258,9.91850118 65.0808759,10.0627484 64.9077,10.0749 L64.8912,10.0782 Z" id="Path" fill="#000000"></path>
                <g id="Group" transform="translate(65.670000, 9.900000)">
                    <polygon id="Path" fill="#FFAA2E" points="0.3465 0.4686 0.033 0.4983 0.033 0.4686"></polygon>
                    <polygon id="Path" fill="#FFAA2E" points="0.3663 0.4686 0.0528 0.4983 0.033 0.4983 0.3465 0.4686"></polygon>
                    <polygon id="Path" fill="#FFA92D" points="0.3861 0.4686 0.0726 0.4983 0.0528 0.4983 0.3663 0.4686"></polygon>
                    <polygon id="Path" fill="#FFA82D" points="0.4059 0.4686 0.0957 0.4983 0.0726 0.4983 0.3861 0.4686"></polygon>
                    <polygon id="Path" fill="#FEA72C" points="0.4257 0.4686 0.1155 0.4983 0.0957 0.4983 0.4059 0.4686"></polygon>
                    <polygon id="Path" fill="#FEA62C" points="0.4455 0.4686 0.1353 0.4983 0.1155 0.4983 0.4257 0.4686"></polygon>
                    <polygon id="Path" fill="#FEA52B" points="0.4653 0.4686 0.1551 0.4983 0.1353 0.4983 0.4455 0.4686"></polygon>
                    <polygon id="Path" fill="#FEA42B" points="0.4851 0.4686 0.1749 0.4983 0.1551 0.4983 0.4653 0.4686"></polygon>
                    <polygon id="Path" fill="#FDA32A" points="0.5049 0.4686 0.1947 0.4983 0.1749 0.4983 0.4851 0.4686"></polygon>
                    <polygon id="Path" fill="#FDA22A" points="0.5247 0.4686 0.2145 0.4983 0.1947 0.4983 0.5049 0.4686"></polygon>
                    <polygon id="Path" fill="#FDA129" points="0.5478 0.4686 0.2343 0.4983 0.2145 0.4983 0.5247 0.4686"></polygon>
                    <polygon id="Path" fill="#FDA028" points="0.5676 0.4686 0.2541 0.4983 0.2343 0.4983 0.5478 0.4686"></polygon>
                    <polygon id="Path" fill="#FC9F28" points="0.5874 0.4686 0.2739 0.4983 0.2541 0.4983 0.5676 0.4686"></polygon>
                    <polygon id="Path" fill="#FC9E27" points="0.6072 0.4686 0.2937 0.4983 0.2739 0.4983 0.5874 0.4686"></polygon>
                    <polygon id="Path" fill="#FC9D27" points="0.627 0.4686 0.3135 0.4983 0.2937 0.4983 0.6072 0.4686"></polygon>
                    <polygon id="Path" fill="#FC9C26" points="0.6468 0.4686 0.3333 0.4983 0.3135 0.4983 0.627 0.4686"></polygon>
                    <polygon id="Path" fill="#FB9B26" points="0.6666 0.4686 0.3531 0.4983 0.3333 0.4983 0.6468 0.4686"></polygon>
                    <polygon id="Path" fill="#FB9A25" points="0.6864 0.4686 0.3729 0.4983 0.3531 0.4983 0.6666 0.4686"></polygon>
                    <polygon id="Path" fill="#FB9925" points="0.7062 0.4686 0.3927 0.4983 0.3729 0.4983 0.6864 0.4686"></polygon>
                    <polygon id="Path" fill="#FB9824" points="0.726 0.4686 0.4125 0.4983 0.3927 0.4983 0.7062 0.4686"></polygon>
                    <polygon id="Path" fill="#FB9723" points="0.7458 0.4686 0.4323 0.4983 0.4125 0.4983 0.726 0.4686"></polygon>
                    <polygon id="Path" fill="#FA9623" points="0.7656 0.4686 0.4554 0.4983 0.4323 0.4983 0.7458 0.4686"></polygon>
                    <polygon id="Path" fill="#FA9522" points="0.7854 0.4686 0.4752 0.4983 0.4554 0.4983 0.7656 0.4686"></polygon>
                    <polygon id="Path" fill="#FA9422" points="0.8052 0.4686 0.495 0.4983 0.4752 0.4983 0.7854 0.4686"></polygon>
                    <polygon id="Path" fill="#FA9321" points="0.825 0.4686 0.5148 0.4983 0.495 0.4983 0.8052 0.4686"></polygon>
                    <polygon id="Path" fill="#F99121" points="0.8448 0.4686 0.5346 0.4983 0.5148 0.4983 0.825 0.4686"></polygon>
                    <polygon id="Path" fill="#F99020" points="0.8679 0.4686 0.5544 0.4983 0.5346 0.4983 0.8448 0.4686"></polygon>
                    <polygon id="Path" fill="#F98F20" points="0.8877 0.4686 0.5742 0.4983 0.5544 0.4983 0.8679 0.4686"></polygon>
                    <polygon id="Path" fill="#F98E1F" points="0.9075 0.4686 0.594 0.4983 0.5742 0.4983 0.8877 0.4686"></polygon>
                    <polygon id="Path" fill="#F88D1F" points="0.9273 0.4686 0.6138 0.4983 0.594 0.4983 0.9075 0.4686"></polygon>
                    <polygon id="Path" fill="#F88C1E" points="0.9471 0.4686 0.6336 0.4983 0.6138 0.4983 0.9273 0.4686"></polygon>
                    <polygon id="Path" fill="#F88B1D" points="0.9669 0.4686 0.6534 0.4983 0.6336 0.4983 0.9471 0.4686"></polygon>
                    <polygon id="Path" fill="#F88A1D" points="0.9867 0.4686 0.6732 0.4983 0.6534 0.4983 0.9669 0.4686"></polygon>
                    <polygon id="Path" fill="#F8891C" points="1.0065 0.4686 0.693 0.4983 0.6732 0.4983 0.9867 0.4686"></polygon>
                    <polygon id="Path" fill="#F7881C" points="1.0263 0.4686 0.7128 0.4983 0.693 0.4983 1.0065 0.4686"></polygon>
                    <polygon id="Path" fill="#F7871B" points="1.0461 0.4686 0.7326 0.4983 0.7128 0.4983 1.0263 0.4686"></polygon>
                    <polygon id="Path" fill="#F7861B" points="1.0659 0.4686 0.7524 0.4983 0.7326 0.4983 1.0461 0.4686"></polygon>
                    <polygon id="Path" fill="#F7851A" points="1.0857 0.4686 0.7722 0.4983 0.7524 0.4983 1.0659 0.4686"></polygon>
                    <polygon id="Path" fill="#F6841A" points="1.1055 0.4686 0.7953 0.4983 0.7722 0.4983 1.0857 0.4686"></polygon>
                    <polygon id="Path" fill="#F68319" points="1.1253 0.4686 0.8151 0.4983 0.7953 0.4983 1.1055 0.4686"></polygon>
                    <polygon id="Path" fill="#F68218" points="1.1451 0.4686 0.8349 0.4983 0.8151 0.4983 1.1253 0.4686"></polygon>
                    <polygon id="Path" fill="#F68118" points="1.1649 0.4686 0.8547 0.4983 0.8349 0.4983 1.1451 0.4686"></polygon>
                    <polygon id="Path" fill="#F58017" points="1.1847 0.4686 0.8745 0.4983 0.8547 0.4983 1.1649 0.4686"></polygon>
                    <polygon id="Path" fill="#F57F17" points="1.2078 0.4686 0.8943 0.4983 0.8745 0.4983 1.1847 0.4686"></polygon>
                    <polygon id="Path" fill="#F57E16" points="1.2276 0.4686 0.9141 0.4983 0.8943 0.4983 1.2078 0.4686"></polygon>
                    <polygon id="Path" fill="#F57D16" points="1.2474 0.4686 0.9339 0.4983 0.9141 0.4983 1.2276 0.4686"></polygon>
                    <polygon id="Path" fill="#F47C15" points="1.2672 0.4686 0.9537 0.4983 0.9339 0.4983 1.2474 0.4686"></polygon>
                    <polygon id="Path" fill="#F47B15" points="1.287 0.4686 0.9735 0.4983 0.9537 0.4983 1.2672 0.4686"></polygon>
                    <polygon id="Path" fill="#F47A14" points="1.3068 0.4686 0.9933 0.4983 0.9735 0.4983 1.287 0.4686"></polygon>
                    <polygon id="Path" fill="#F47A14" points="0.9933 0.4983 1.3068 0.4686 1.3068 0.4983"></polygon>
                </g>
                <path d="M65.703,10.7118 C65.5675764,10.6672884 65.4760425,10.5408512 65.4760425,10.3983 C65.4760425,10.2557488 65.5675764,10.1293116 65.703,10.0848 L66.9735,10.0518 C67.1090237,10.0097088 67.2562818,10.0589733 67.339195,10.1741416 C67.4221082,10.2893099 67.4221082,10.4445901 67.339195,10.5597584 C67.2562818,10.6749267 67.1090237,10.7241912 66.9735,10.6821 L65.703,10.7118 L65.703,10.7118 Z" id="Path" fill="#000000"></path>
                <g id="Group" transform="translate(64.680000, 10.890000)">
                    <polygon id="Path" fill="#FFAA2E" points="0.2013 0.4323 0.1716 0.1221 0.2013 0.1221"></polygon>
                    <polygon id="Path" fill="#FFAA2E" points="0.2013 0.4554 0.1716 0.1419 0.1716 0.1221 0.2013 0.4323"></polygon>
                    <polygon id="Path" fill="#FFA92D" points="0.2013 0.4752 0.1716 0.1617 0.1716 0.1419 0.2013 0.4554"></polygon>
                    <polygon id="Path" fill="#FFA82D" points="0.2013 0.495 0.1716 0.1815 0.1716 0.1617 0.2013 0.4752"></polygon>
                    <polygon id="Path" fill="#FEA72C" points="0.2013 0.5148 0.1716 0.2013 0.1716 0.1815 0.2013 0.495"></polygon>
                    <polygon id="Path" fill="#FEA62C" points="0.2013 0.5346 0.1716 0.2211 0.1716 0.2013 0.2013 0.5148"></polygon>
                    <polygon id="Path" fill="#FEA52B" points="0.2013 0.5544 0.1716 0.2409 0.1716 0.2211 0.2013 0.5346"></polygon>
                    <polygon id="Path" fill="#FEA42B" points="0.2013 0.5742 0.1716 0.2607 0.1716 0.2409 0.2013 0.5544"></polygon>
                    <polygon id="Path" fill="#FDA32A" points="0.2013 0.594 0.1716 0.2805 0.1716 0.2607 0.2013 0.5742"></polygon>
                    <polygon id="Path" fill="#FDA22A" points="0.2013 0.6138 0.1716 0.3003 0.1716 0.2805 0.2013 0.594"></polygon>
                    <polygon id="Path" fill="#FDA129" points="0.2013 0.6336 0.1716 0.3201 0.1716 0.3003 0.2013 0.6138"></polygon>
                    <polygon id="Path" fill="#FDA028" points="0.2013 0.6534 0.1716 0.3399 0.1716 0.3201 0.2013 0.6336"></polygon>
                    <polygon id="Path" fill="#FC9F28" points="0.2013 0.6732 0.1716 0.363 0.1716 0.3399 0.2013 0.6534"></polygon>
                    <polygon id="Path" fill="#FC9E27" points="0.2013 0.693 0.1716 0.3828 0.1716 0.363 0.2013 0.6732"></polygon>
                    <polygon id="Path" fill="#FC9D27" points="0.2013 0.7128 0.1716 0.4026 0.1716 0.3828 0.2013 0.693"></polygon>
                    <polygon id="Path" fill="#FC9C26" points="0.2013 0.7326 0.1716 0.4224 0.1716 0.4026 0.2013 0.7128"></polygon>
                    <polygon id="Path" fill="#FB9B26" points="0.2013 0.7524 0.1716 0.4422 0.1716 0.4224 0.2013 0.7326"></polygon>
                    <polygon id="Path" fill="#FB9A25" points="0.2013 0.7722 0.1716 0.462 0.1716 0.4422 0.2013 0.7524"></polygon>
                    <polygon id="Path" fill="#FB9925" points="0.2013 0.7953 0.1716 0.4818 0.1716 0.462 0.2013 0.7722"></polygon>
                    <polygon id="Path" fill="#FB9824" points="0.2013 0.8151 0.1716 0.5016 0.1716 0.4818 0.2013 0.7953"></polygon>
                    <polygon id="Path" fill="#FB9723" points="0.2013 0.8349 0.1716 0.5214 0.1716 0.5016 0.2013 0.8151"></polygon>
                    <polygon id="Path" fill="#FA9623" points="0.2013 0.8547 0.1716 0.5412 0.1716 0.5214 0.2013 0.8349"></polygon>
                    <polygon id="Path" fill="#FA9522" points="0.2013 0.8745 0.1716 0.561 0.1716 0.5412 0.2013 0.8547"></polygon>
                    <polygon id="Path" fill="#FA9422" points="0.2013 0.8943 0.1716 0.5808 0.1716 0.561 0.2013 0.8745"></polygon>
                    <polygon id="Path" fill="#FA9321" points="0.2013 0.9141 0.1716 0.6006 0.1716 0.5808 0.2013 0.8943"></polygon>
                    <polygon id="Path" fill="#F99121" points="0.2013 0.9339 0.1716 0.6204 0.1716 0.6006 0.2013 0.9141"></polygon>
                    <polygon id="Path" fill="#F99020" points="0.2013 0.9537 0.1716 0.6402 0.1716 0.6204 0.2013 0.9339"></polygon>
                    <polygon id="Path" fill="#F98F20" points="0.2013 0.9735 0.1716 0.66 0.1716 0.6402 0.2013 0.9537"></polygon>
                    <polygon id="Path" fill="#F98E1F" points="0.2013 0.9933 0.1716 0.6798 0.1716 0.66 0.2013 0.9735"></polygon>
                    <polygon id="Path" fill="#F88D1F" points="0.2013 1.0131 0.1716 0.7029 0.1716 0.6798 0.2013 0.9933"></polygon>
                    <polygon id="Path" fill="#F88C1E" points="0.2013 1.0329 0.1716 0.7227 0.1716 0.7029 0.2013 1.0131"></polygon>
                    <polygon id="Path" fill="#F88B1D" points="0.2013 1.0527 0.1716 0.7425 0.1716 0.7227 0.2013 1.0329"></polygon>
                    <polygon id="Path" fill="#F88A1D" points="0.2013 1.0725 0.1716 0.7623 0.1716 0.7425 0.2013 1.0527"></polygon>
                    <polygon id="Path" fill="#F8891C" points="0.2013 1.0923 0.1716 0.7821 0.1716 0.7623 0.2013 1.0725"></polygon>
                    <polygon id="Path" fill="#F7881C" points="0.2013 1.1121 0.1716 0.8019 0.1716 0.7821 0.2013 1.0923"></polygon>
                    <polygon id="Path" fill="#F7871B" points="0.2013 1.1352 0.1716 0.8217 0.1716 0.8019 0.2013 1.1121"></polygon>
                    <polygon id="Path" fill="#F7861B" points="0.2013 1.155 0.1716 0.8415 0.1716 0.8217 0.2013 1.1352"></polygon>
                    <polygon id="Path" fill="#F7851A" points="0.2013 1.1748 0.1716 0.8613 0.1716 0.8415 0.2013 1.155"></polygon>
                    <polygon id="Path" fill="#F6841A" points="0.2013 1.1946 0.1716 0.8811 0.1716 0.8613 0.2013 1.1748"></polygon>
                    <polygon id="Path" fill="#F68319" points="0.2013 1.2144 0.1716 0.9009 0.1716 0.8811 0.2013 1.1946"></polygon>
                    <polygon id="Path" fill="#F68218" points="0.2013 1.2342 0.1716 0.9207 0.1716 0.9009 0.2013 1.2144"></polygon>
                    <polygon id="Path" fill="#F68118" points="0.2013 1.254 0.1716 0.9405 0.1716 0.9207 0.2013 1.2342"></polygon>
                    <polygon id="Path" fill="#F58017" points="0.2013 1.2738 0.1716 0.9603 0.1716 0.9405 0.2013 1.254"></polygon>
                    <polygon id="Path" fill="#F57F17" points="0.2013 1.2936 0.1716 0.9801 0.1716 0.9603 0.2013 1.2738"></polygon>
                    <polygon id="Path" fill="#F57E16" points="0.2013 1.3134 0.1716 0.9999 0.1716 0.9801 0.2013 1.2936"></polygon>
                    <polygon id="Path" fill="#F57D16" points="0.2013 1.3332 0.1716 1.0197 0.1716 0.9999 0.2013 1.3134"></polygon>
                    <polygon id="Path" fill="#F47C15" points="0.2013 1.353 0.1716 1.0428 0.1716 1.0197 0.2013 1.3332"></polygon>
                    <polygon id="Path" fill="#F47B15" points="0.2013 1.3728 0.1716 1.0626 0.1716 1.0428 0.2013 1.353"></polygon>
                    <polygon id="Path" fill="#F47A14" points="0.2013 1.3926 0.2013 1.3926 0.1716 1.0824 0.1716 1.0626 0.2013 1.3728"></polygon>
                    <polygon id="Path" fill="#F47A14" points="0.1716 1.0824 0.2013 1.3926 0.1716 1.3926"></polygon>
                </g>
                <path d="M64.8813,12.5961 C64.7088771,12.5966526 64.565093,12.4643712 64.5513,12.2925 L64.5183,11.0187 C64.5611744,10.8806547 64.6888999,10.7865799 64.83345,10.7865799 C64.9780001,10.7865799 65.1057256,10.8806547 65.1486,11.0187 L65.1783,12.2925 C65.1837209,12.3770087 65.1543568,12.4600599 65.097022,12.5223803 C65.0396873,12.5847007 64.9593667,12.6208719 64.8747,12.6225 L64.8813,12.5961 Z" id="Path" fill="#000000"></path>
                <g id="Group" transform="translate(62.700000, 9.900000)">
                    <polygon id="Path" fill="#FFAA2E" points="1.023 0.5082 1.3365 0.4752 1.3365 0.5082"></polygon>
                    <polygon id="Path" fill="#FFAA2E" points="1.0032 0.5082 1.3167 0.4752 1.3365 0.4752 1.023 0.5082"></polygon>
                    <polygon id="Path" fill="#FFA92D" points="0.9834 0.5082 1.2969 0.4752 1.3167 0.4752 1.0032 0.5082"></polygon>
                    <polygon id="Path" fill="#FFA82D" points="0.9636 0.5082 1.2771 0.4752 1.2969 0.4752 0.9834 0.5082"></polygon>
                    <polygon id="Path" fill="#FEA72C" points="0.9438 0.5082 1.2573 0.4752 1.2771 0.4752 0.9636 0.5082"></polygon>
                    <polygon id="Path" fill="#FEA62C" points="0.924 0.5082 1.2375 0.4752 1.2573 0.4752 0.9438 0.5082"></polygon>
                    <polygon id="Path" fill="#FEA52B" points="0.9042 0.5082 1.2177 0.4752 1.2375 0.4752 0.924 0.5082"></polygon>
                    <polygon id="Path" fill="#FEA42B" points="0.8844 0.5082 1.1979 0.4752 1.2177 0.4752 0.9042 0.5082"></polygon>
                    <polygon id="Path" fill="#FDA32A" points="0.8646 0.5082 1.1781 0.4752 1.1979 0.4752 0.8844 0.5082"></polygon>
                    <polygon id="Path" fill="#FDA22A" points="0.8448 0.5082 1.155 0.4752 1.1781 0.4752 0.8646 0.5082"></polygon>
                    <polygon id="Path" fill="#FDA129" points="0.825 0.5082 1.1352 0.4752 1.155 0.4752 0.8448 0.5082"></polygon>
                    <polygon id="Path" fill="#FDA028" points="0.8052 0.5082 1.1154 0.4752 1.1352 0.4752 0.825 0.5082"></polygon>
                    <polygon id="Path" fill="#FC9F28" points="0.7854 0.5082 1.0956 0.4752 1.1154 0.4752 0.8052 0.5082"></polygon>
                    <polygon id="Path" fill="#FC9E27" points="0.7656 0.5082 1.0758 0.4752 1.0956 0.4752 0.7854 0.5082"></polygon>
                    <polygon id="Path" fill="#FC9D27" points="0.7458 0.5082 1.056 0.4752 1.0758 0.4752 0.7656 0.5082"></polygon>
                    <polygon id="Path" fill="#FC9C26" points="0.726 0.5082 1.0362 0.4752 1.056 0.4752 0.7458 0.5082"></polygon>
                    <polygon id="Path" fill="#FB9B26" points="0.7029 0.5082 1.0164 0.4752 1.0362 0.4752 0.726 0.5082"></polygon>
                    <polygon id="Path" fill="#FB9A25" points="0.6831 0.5082 0.9966 0.4752 1.0164 0.4752 0.7029 0.5082"></polygon>
                    <polygon id="Path" fill="#FB9925" points="0.6633 0.5082 0.9768 0.4752 0.9966 0.4752 0.6831 0.5082"></polygon>
                    <polygon id="Path" fill="#FB9824" points="0.6435 0.5082 0.957 0.4752 0.9768 0.4752 0.6633 0.5082"></polygon>
                    <polygon id="Path" fill="#FB9723" points="0.6237 0.5082 0.9372 0.4752 0.957 0.4752 0.6435 0.5082"></polygon>
                    <polygon id="Path" fill="#FA9623" points="0.6039 0.5082 0.9174 0.4752 0.9372 0.4752 0.6237 0.5082"></polygon>
                    <polygon id="Path" fill="#FA9522" points="0.5841 0.5082 0.8976 0.4752 0.9174 0.4752 0.6039 0.5082"></polygon>
                    <polygon id="Path" fill="#FA9422" points="0.5643 0.5082 0.8778 0.4752 0.8976 0.4752 0.5841 0.5082"></polygon>
                    <polygon id="Path" fill="#FA9321" points="0.5445 0.5082 0.858 0.4752 0.8778 0.4752 0.5643 0.5082"></polygon>
                    <polygon id="Path" fill="#F99121" points="0.5247 0.5082 0.8382 0.4752 0.858 0.4752 0.5445 0.5082"></polygon>
                    <polygon id="Path" fill="#F99020" points="0.5049 0.5082 0.8184 0.4752 0.8382 0.4752 0.5247 0.5082"></polygon>
                    <polygon id="Path" fill="#F98F20" points="0.4851 0.5082 0.7953 0.4752 0.8184 0.4752 0.5049 0.5082"></polygon>
                    <polygon id="Path" fill="#F98E1F" points="0.4653 0.5082 0.7755 0.4752 0.7953 0.4752 0.4851 0.5082"></polygon>
                    <polygon id="Path" fill="#F88D1F" points="0.4455 0.5082 0.7557 0.4752 0.7755 0.4752 0.4653 0.5082"></polygon>
                    <polygon id="Path" fill="#F88C1E" points="0.4257 0.5082 0.7359 0.4752 0.7557 0.4752 0.4455 0.5082"></polygon>
                    <polygon id="Path" fill="#F88B1D" points="0.4059 0.5082 0.7161 0.4752 0.7359 0.4752 0.4257 0.5082"></polygon>
                    <polygon id="Path" fill="#F88A1D" points="0.3861 0.5082 0.6963 0.4752 0.7161 0.4752 0.4059 0.5082"></polygon>
                    <polygon id="Path" fill="#F8891C" points="0.363 0.5082 0.6765 0.4752 0.6963 0.4752 0.3861 0.5082"></polygon>
                    <polygon id="Path" fill="#F7881C" points="0.3432 0.5082 0.6567 0.4752 0.6765 0.4752 0.363 0.5082"></polygon>
                    <polygon id="Path" fill="#F7871B" points="0.3234 0.5082 0.6369 0.4752 0.6567 0.4752 0.3432 0.5082"></polygon>
                    <polygon id="Path" fill="#F7861B" points="0.3036 0.5082 0.6171 0.4752 0.6369 0.4752 0.3234 0.5082"></polygon>
                    <polygon id="Path" fill="#F7851A" points="0.2838 0.5082 0.5973 0.4752 0.6171 0.4752 0.3036 0.5082"></polygon>
                    <polygon id="Path" fill="#F6841A" points="0.264 0.5082 0.5775 0.4752 0.5973 0.4752 0.2838 0.5082"></polygon>
                    <polygon id="Path" fill="#F68319" points="0.2442 0.5082 0.5577 0.4752 0.5775 0.4752 0.264 0.5082"></polygon>
                    <polygon id="Path" fill="#F68218" points="0.2244 0.5082 0.5379 0.4752 0.5577 0.4752 0.2442 0.5082"></polygon>
                    <polygon id="Path" fill="#F68118" points="0.2046 0.5082 0.5181 0.4752 0.5379 0.4752 0.2244 0.5082"></polygon>
                    <polygon id="Path" fill="#F58017" points="0.1848 0.5082 0.4983 0.4752 0.5181 0.4752 0.2046 0.5082"></polygon>
                    <polygon id="Path" fill="#F57F17" points="0.165 0.5082 0.4785 0.4752 0.4983 0.4752 0.1848 0.5082"></polygon>
                    <polygon id="Path" fill="#F57E16" points="0.1452 0.5082 0.4587 0.4752 0.4785 0.4752 0.165 0.5082"></polygon>
                    <polygon id="Path" fill="#F57D16" points="0.1254 0.5082 0.4356 0.4752 0.4587 0.4752 0.1452 0.5082"></polygon>
                    <polygon id="Path" fill="#F47C15" points="0.1056 0.5082 0.4158 0.4752 0.4356 0.4752 0.1254 0.5082"></polygon>
                    <polygon id="Path" fill="#F47B15" points="0.0858 0.5082 0.396 0.4752 0.4158 0.4752 0.1056 0.5082"></polygon>
                    <polygon id="Path" fill="#F47A14" points="0.066 0.5082 0.3762 0.4752 0.396 0.4752 0.0858 0.5082"></polygon>
                    <polygon id="Path" fill="#F47A14" points="0.3762 0.4752 0.066 0.5082 0.066 0.4752"></polygon>
                </g>
                <path d="M62.766,10.7217 C62.6305764,10.6771884 62.5390425,10.5507512 62.5390425,10.4082 C62.5390425,10.2656488 62.6305764,10.1392116 62.766,10.0947 L64.0398,10.0617 C64.1752236,10.1062116 64.2667575,10.2326488 64.2667575,10.3752 C64.2667575,10.5177512 64.1752236,10.6441884 64.0398,10.6887 L62.7693,10.7217 L62.766,10.7217 Z" id="Path" fill="#000000"></path>
            </g>
        </g>
    </g>
</svg>