<?xml version="1.0" encoding="UTF-8"?>
<svg width="64px" height="65px" viewBox="0 0 64 65" version="1.1" xmlns="http://www.w3.org/2000/svg" xmlns:xlink="http://www.w3.org/1999/xlink">
    <!-- Generator: Sketch 60.1 (88133) - https://sketch.com -->
    <title>Asset 1</title>
    <desc>Created with Sketch.</desc>
    <defs>
        <linearGradient x1="0.0909141638%" y1="50.009438%" x2="99.9828517%" y2="50.009438%" id="linearGradient-1">
            <stop stop-color="#F6CD2A" offset="0%"></stop>
            <stop stop-color="#F68D35" offset="100%"></stop>
        </linearGradient>
        <linearGradient x1="-0.0120147077%" y1="49.9577346%" x2="99.9019594%" y2="49.9577346%" id="linearGradient-2">
            <stop stop-color="#F6CD2A" offset="0%"></stop>
            <stop stop-color="#F68D35" offset="100%"></stop>
        </linearGradient>
        <linearGradient x1="0%" y1="49.9957019%" x2="100%" y2="49.9957019%" id="linearGradient-3">
            <stop stop-color="#F6992A" offset="0%"></stop>
            <stop stop-color="#F2278D" offset="100%"></stop>
        </linearGradient>
        <linearGradient x1="-14.5641026%" y1="50.3116093%" x2="39.2102564%" y2="50.0743951%" id="linearGradient-4">
            <stop stop-color="#F6992A" offset="0%"></stop>
            <stop stop-color="#F2278D" offset="100%"></stop>
        </linearGradient>
    </defs>
    <g id="Careers" stroke="none" stroke-width="1" fill="none" fill-rule="evenodd">
        <g id="01_About" transform="translate(-107.000000, -1688.000000)" fill-rule="nonzero">
            <g id="Asset-1" transform="translate(107.000000, 1688.000000)">
                <path d="M40.455,16.071 L40.866,15.6 C40.995,15.444 41.133,15.264 41.247,15.102 C41.7349675,14.4180711 42.1464289,13.6826719 42.474,12.909 C42.8520374,12.0563744 43.0677257,11.1407165 43.11,10.209 C43.1291082,9.60977322 43.0270708,9.0128543 42.81,8.454 C42.5466006,7.79441715 42.0987375,7.22469362 41.52,6.813 C41.4054113,6.73056414 41.2851082,6.65637721 41.16,6.591 L41.073,6.54 C40.944,6.474 40.794,6.411 40.644,6.345 C40.494,6.279 40.344,6.246 40.197,6.201 L40.176,6.201 C40.035556,6.16484313 39.8933748,6.13580611 39.75,6.114 C39.1743536,6.03120844 38.5883084,6.05664443 38.022,6.189 C37.1023018,6.41748568 36.2367557,6.82528126 35.475,7.389 C34.1778416,8.35898985 33.0609118,9.5490278 32.175,10.905 C31.3070526,12.2095123 30.6754219,13.6565762 30.309,15.18 C30.0731106,16.1635223 29.9403933,17.1689562 29.913,18.18 C30.441,17.313 30.957,16.491 31.518,15.708 C32.3041146,14.571911 33.209241,13.5229702 34.218,12.579 C35.1633194,11.6702437 36.2090573,10.872101 37.335,10.2 C37.7742985,9.93392018 38.2564585,9.74613156 38.76,9.645 C38.8391485,9.56383308 38.9466854,9.51651684 39.06,9.513 C39.2364261,9.50530615 39.3995422,9.60650961 39.471,9.768 C39.5576077,9.83907781 39.6152273,9.93937868 39.633,10.05 C39.6505396,10.164997 39.6225586,10.2823017 39.555,10.377 C39.5254842,10.8367102 39.4398483,11.2910842 39.3,11.73 C39.1182467,12.3248895 38.892628,12.9054815 38.625,13.467 L38.586,13.542 C38.532,13.656 38.481,13.758 38.418,13.869 L38.181,14.274 L38.163,14.301 C37.998,14.559 37.83,14.829 37.635,15.087 C36.8398388,16.1855176 35.89349,17.1662055 34.824,18 C34.0571037,18.6123187 33.2557937,19.1802472 32.424,19.701 C32.673,19.701 32.928,19.668 33.192,19.641 C33.9460913,19.5634885 34.6913153,19.4158498 35.418,19.2 C37.3444824,18.6262177 39.0831791,17.5492406 40.455,16.08 L40.455,16.071 Z" id="Path" fill="url(#linearGradient-1)"></path>
                <path d="M34.755,20.196 L30.483,20.196 C30.4816333,20.2089641 30.4816333,20.2220359 30.483,20.235 C30.527793,20.4217509 30.687576,20.5585349 30.879,20.574 C31.2,20.604 31.527,20.619 31.863,20.619 C32.3371213,20.6178327 32.8108256,20.5907925 33.282,20.538 C33.9136786,20.4710028 34.5394368,20.3566816 35.154,20.196 L34.752,20.196 L34.755,20.196 Z" id="Path" fill="#000000"></path>
                <path d="M44.01,10.239 C44.0340308,9.52234288 43.9136425,8.80817504 43.656,8.139 C43.632,8.076 43.602,8.01 43.572,7.947 L43.572,12.549 C43.8322897,11.8051269 43.979921,11.0265235 44.01,10.239 Z" id="Path" fill="#000000"></path>
                <path d="M29.076,19.743 C29.0931652,19.917628 29.2102705,20.0663517 29.376,20.124 L29.376,15.27 C29.0481779,16.7369332 28.9470045,18.2454284 29.076,19.743 L29.076,19.743 Z" id="Path" fill="#000000"></path>
                <path d="M37.395,5.568 L41.1,5.568 L40.965,5.511 C40.791,5.448 40.617,5.388 40.416,5.334 L40.374,5.334 C40.212,5.298 40.044,5.259 39.87,5.232 C39.1831319,5.1358783 38.4844195,5.16740681 37.809,5.325 C37.5243723,5.39393381 37.2439153,5.47907253 36.969,5.58 L37.383,5.58 L37.395,5.568 Z" id="Path" fill="#000000"></path>
                <path d="M40.14,17.616 C40.4828467,17.3242025 40.8083985,17.0126744 41.115,16.683 L41.547,16.2 C41.703,16.014 41.847,15.816 41.985,15.633 C42.5087619,14.8958458 42.951331,14.1042506 43.305,13.272 C43.395,13.05 43.488,12.813 43.572,12.558 L43.572,7.941 C43.2394907,7.19667574 42.7131528,6.55533089 42.048,6.084 C41.9088858,5.98394209 41.7635972,5.89276097 41.613,5.811 L41.505,5.751 C41.379,5.688 41.25,5.628 41.112,5.568 L36.981,5.568 C36.2587405,5.84380296 35.5766764,6.21510412 34.953,6.672 C33.5717763,7.70463774 32.3827039,8.97189853 31.44,10.416 C30.5147242,11.8105078 29.8396193,13.355635 29.445,14.982 L29.382,15.282 L29.382,20.124 L29.421,20.124 C29.6094462,20.1694724 29.8057234,20.088296 29.907,19.923 L30.405,19.11 C31.029,18.087 31.62,17.118 32.262,16.221 C33.0112901,15.1326302 33.8741364,14.1269817 34.836,13.221 C35.7286219,12.3615043 36.7147794,11.6047793 37.776,10.965 C38.0507021,10.8053024 38.3412643,10.6745997 38.643,10.575 C38.6019084,10.8725387 38.5377144,11.1664267 38.451,11.454 C38.2845837,12.0023071 38.0759601,12.536905 37.827,13.053 L37.791,13.128 C37.743,13.224 37.698,13.314 37.65,13.401 L37.413,13.803 C37.26,14.046 37.113,14.301 36.921,14.541 C36.1665313,15.5722616 35.2707562,16.4922742 34.26,17.274 C33.265163,18.0515591 32.2253599,18.7698045 31.146,19.425 L30.681,19.725 C30.5315244,19.8209766 30.4536396,19.9968074 30.483,20.172 L35.157,20.172 C35.331,20.127 35.505,20.079 35.676,20.028 C37.3152939,19.5425781 38.8355568,18.7211457 40.14,17.616 L40.14,17.616 Z M33.189,19.644 C32.925,19.671 32.67,19.692 32.421,19.704 C33.2527937,19.1832472 34.0541037,18.6153187 34.821,18.003 C35.8943159,17.1719042 36.8447235,16.1932167 37.644,15.096 C37.839,14.838 38.007,14.568 38.172,14.31 L38.19,14.283 L38.427,13.878 C38.49,13.767 38.541,13.665 38.595,13.551 L38.634,13.476 C38.8985583,12.9142276 39.1211666,12.333641 39.3,11.739 C39.4398483,11.3000842 39.5254842,10.8457102 39.555,10.386 C39.6225586,10.2913017 39.6505396,10.173997 39.633,10.059 C39.6152273,9.94837868 39.5576077,9.84807781 39.471,9.777 C39.3995422,9.61550961 39.2364261,9.51430615 39.06,9.522 C38.9466854,9.52551684 38.8391485,9.57283308 38.76,9.654 C38.257032,9.75233763 37.7749028,9.93706923 37.335,10.2 C36.211128,10.8792414 35.16839,11.6844445 34.227,12.6 C33.218241,13.5439702 32.3131146,14.592911 31.527,15.729 C30.966,16.512 30.45,17.334 29.922,18.201 C29.9493933,17.1899562 30.0821106,16.1845223 30.318,15.201 C30.6844219,13.6775762 31.3160526,12.2305123 32.184,10.926 C33.0699118,9.5700278 34.1868416,8.37998985 35.484,7.41 C36.2457557,6.84628126 37.1113018,6.43848568 38.031,6.21 C38.5973084,6.07764443 39.1833536,6.05220844 39.759,6.135 C39.9023748,6.15680611 40.044556,6.18584313 40.185,6.222 L40.2,6.222 C40.359,6.267 40.515,6.321 40.647,6.366 C40.779,6.411 40.947,6.495 41.076,6.561 L41.163,6.612 C41.2881082,6.67737721 41.4084113,6.75156414 41.523,6.834 C42.1017375,7.24569362 42.5496006,7.81541715 42.813,8.475 C43.0300708,9.0338543 43.1321082,9.63077322 43.113,10.23 C43.0707257,11.1617165 42.8550374,12.0773744 42.477,12.93 C42.1494289,13.7036719 41.7379675,14.4390711 41.25,15.123 C41.136,15.285 40.998,15.465 40.869,15.621 L40.458,16.086 C39.0846279,17.5534993 37.3449083,18.6283975 35.418,19.2 C34.6904373,19.417048 33.9441989,19.5656931 33.189,19.644 L33.189,19.644 Z" id="Shape" fill="#000000"></path>
                <path d="M29.43,9.51 C28.8367378,7.70935692 27.9320096,6.02682659 26.757,4.539 C26.0630622,3.6664369 25.2036161,2.9395269 24.228,2.4 C23.6224271,2.08211553 22.9633923,1.87870972 22.284,1.8 C22.1126757,1.78059881 21.9404183,1.77058385 21.768,1.77 L21.717,1.77 C21.567,1.77 21.378,1.785 21.159,1.803 C20.994,1.827 20.805,1.857 20.613,1.899 L20.52,1.923 C20.3625297,1.96143033 20.2072948,2.00850157 20.055,2.064 C19.2612097,2.36021743 18.5710345,2.88149781 18.069,3.564 C17.6492801,4.13950253 17.3521492,4.79502852 17.196,5.49 C16.9676433,6.55319753 16.935111,7.64912913 17.1,8.724 C17.2391204,9.69563653 17.4835591,10.6492494 17.829,11.568 C17.91,11.79 18.012,12.036 18.129,12.264 L18.459,12.924 C18.6833051,13.3369436 18.929661,13.7375223 19.197,14.124 C20.2515776,15.6664659 21.6180034,16.9705491 23.208,17.952 C23.9690515,18.4205926 24.7726113,18.8163458 25.608,19.134 C25.989,19.281 26.358,19.407 26.724,19.515 C25.8757446,18.6158967 25.0804063,17.6683022 24.342,16.677 C23.8630279,16.0330188 23.4232334,15.3608044 23.025,14.664 C22.6475078,13.9882756 22.3186741,13.2864963 22.041,12.564 C21.906,12.228 21.795,11.88 21.69,11.544 L21.69,11.511 L21.54,10.98 C21.504,10.833 21.477,10.701 21.447,10.56 L21.429,10.467 C21.2938165,9.7561523 21.2125849,9.03609908 21.186,8.313 C21.1602439,7.78134277 21.1985187,7.2485173 21.3,6.726 C21.2504609,6.61445056 21.2483589,6.48756291 21.2941762,6.37443386 C21.3399935,6.26130481 21.4297992,6.17163979 21.543,6.126 C21.6518268,5.97672087 21.8439964,5.91387296 22.02,5.97 C22.1405246,6.00415418 22.2415254,6.08669251 22.299,6.198 L22.299,6.198 C22.8336611,6.45788964 23.3181271,6.81032081 23.73,7.239 C24.7888428,8.33035908 25.720773,9.538044 26.508,10.839 C27.3595701,12.1992026 28.0635559,13.6463963 28.608,15.156 C28.908,15.963 29.181,16.791 29.421,17.556 L29.754,18.672 C29.847,18.309 29.928,17.931 30,17.532 C30.1594715,16.6604961 30.249753,15.7777428 30.27,14.892 C30.290383,13.9887646 30.2331729,13.0854469 30.099,12.192 C29.96318,11.2784843 29.7391324,10.3802845 29.43,9.51 Z" id="Path" fill="url(#linearGradient-2)"></path>
                <path d="M16.32,5.259 C16.0612386,6.44194089 16.0246166,7.66267477 16.212,8.859 C16.275,9.297 16.359,9.732 16.464,10.161 L16.464,4.761 C16.4075889,4.92445155 16.3595268,5.09066622 16.32,5.259 Z" id="Path" fill="#000000"></path>
                <path d="M28.056,20.289 L26.172,20.289 C26.7549413,20.477544 27.3504068,20.6249067 27.954,20.73 C27.9799164,20.7329486 28.0060836,20.7329486 28.032,20.73 C28.1508031,20.7300108 28.2646551,20.6824097 28.3480959,20.5978413 C28.4315367,20.5132729 28.4776054,20.3987923 28.476,20.28 L28.056,20.28 L28.056,20.289 Z" id="Path" fill="#000000"></path>
                <path d="M31.158,14.928 C31.1788654,13.9746158 31.1186486,13.0211833 30.978,12.078 C30.915,11.637 30.831,11.193 30.723,10.746 L30.723,18.447 C30.777,18.207 30.828,17.964 30.873,17.709 C31.0407276,16.7909005 31.1360211,15.861036 31.158,14.928 L31.158,14.928 Z" id="Path" fill="#000000"></path>
                <path d="M19.8,1.305 L24,1.305 C23.4833937,1.09897825 22.9416174,0.96277751 22.389,0.9 C22.188,0.876 21.987,0.87 21.789,0.864 L21.717,0.864 C21.525,0.864 21.315,0.864 21.051,0.903 C20.862,0.93 20.643,0.963 20.394,1.017 L20.286,1.047 C20.100481,1.08848663 19.9172355,1.13955505 19.737,1.2 C19.656,1.23 19.575,1.266 19.497,1.299 L19.797,1.299 L19.8,1.305 Z" id="Path" fill="#000000"></path>
                <path d="M29.826,20.289 L29.28,20.289 L29.301,20.355 C29.3552718,20.5401272 29.5221895,20.6695489 29.715,20.676 C29.9093477,20.6773602 30.084041,20.5577073 30.153,20.376 C30.153,20.343 30.174,20.31 30.186,20.28 L29.826,20.28 L29.826,20.289 Z" id="Path" fill="#000000"></path>
                <path d="M30.282,9.216 C29.6534751,7.31485694 28.6959289,5.53887779 27.453,3.969 C26.6853966,3.00181072 25.7328737,2.19716342 24.651,1.602 C24.4372125,1.49095728 24.2179309,1.39082867 23.994,1.302 L19.5,1.302 C18.6413654,1.66508893 17.8955602,2.25137473 17.34,3 C16.9533998,3.53061296 16.657391,4.12161677 16.464,4.749 L16.464,10.149 C16.6034672,10.735855 16.7777761,11.3138792 16.986,11.88 C17.076,12.126 17.187,12.39 17.313,12.654 L17.655,13.344 C17.8976917,13.7928308 18.1640675,14.2284452 18.453,14.649 C19.5805394,16.2898933 21.0400182,17.6757849 22.737,18.717 C23.5397687,19.2162631 24.3886731,19.6371992 25.272,19.974 C25.572,20.091 25.872,20.193 26.172,20.274 L28.476,20.274 C28.476446,20.1633361 28.4358257,20.0564407 28.362,19.974 L27.93,19.515 C26.9065807,18.4486496 25.945963,17.3237553 25.053,16.146 C24.595762,15.5301874 24.1750395,14.8880847 23.793,14.223 C23.4382798,13.5859785 23.1275544,12.9254364 22.863,12.246 C22.74,11.946 22.635,11.604 22.533,11.286 L22.386,10.758 C22.353,10.635 22.332,10.521 22.308,10.395 L22.287,10.305 C22.1620722,9.64254449 22.0868625,8.97167359 22.062,8.298 C22.047175,7.90689402 22.0682634,7.51525266 22.125,7.128 C22.4806472,7.34249544 22.8081719,7.60048416 23.1,7.896 C24.110531,8.93673058 24.9992568,10.0891553 25.749,11.331 C26.5617002,12.639762 27.2344053,14.0304213 27.756,15.48 C28.056,16.269 28.314,17.079 28.548,17.835 L29.28,20.289 L30.18,20.289 C30.3989222,19.6873494 30.5783041,19.0720391 30.717,18.447 L30.717,10.746 C30.601,10.236 30.456,9.726 30.282,9.216 Z M29.982,17.547 C29.91,17.946 29.829,18.324 29.736,18.687 L29.4,17.571 C29.16,16.8 28.893,15.972 28.587,15.171 C28.0425559,13.6613963 27.3385701,12.2142026 26.487,10.854 C25.699773,9.553044 24.7678428,8.34535908 23.709,7.254 C23.2971271,6.82532081 22.8126611,6.47288964 22.278,6.213 L22.278,6.213 C22.2205254,6.10169251 22.1195246,6.01915418 21.999,5.985 C21.8229964,5.92887296 21.6308268,5.99172087 21.522,6.141 C21.4087992,6.18663979 21.3189935,6.27630481 21.2731762,6.38943386 C21.2273589,6.50256291 21.2294609,6.62945056 21.279,6.741 C21.1735381,7.26707165 21.1322368,7.80398796 21.156,8.34 C21.1825849,9.06309908 21.2638165,9.7831523 21.399,10.494 L21.417,10.587 C21.447,10.728 21.474,10.86 21.51,11.007 L21.66,11.538 L21.66,11.571 C21.765,11.907 21.876,12.255 22.011,12.591 C22.2886741,13.3134963 22.6175078,14.0152756 22.995,14.691 C23.3932334,15.3878044 23.8330279,16.0600188 24.312,16.704 C25.0531797,17.6862237 25.8505092,18.6247887 26.7,19.515 C26.334,19.407 25.965,19.281 25.584,19.134 C24.7486113,18.8163458 23.9450515,18.4205926 23.184,17.952 C21.6049622,16.9710455 20.2480334,15.6713366 19.2,14.136 C18.932661,13.7495223 18.6863051,13.3489436 18.462,12.936 L18.132,12.276 C18.024,12.048 17.922,11.802 17.832,11.58 C17.4846939,10.6575065 17.239237,9.6998221 17.1,8.724 C16.9307969,7.64049211 16.9623213,6.53510372 17.193,5.463 C17.3491492,4.76802852 17.6462801,4.11250253 18.066,3.537 C18.5680345,2.85449781 19.2582097,2.33321743 20.052,2.037 C20.2042948,1.98150157 20.3595297,1.93443033 20.517,1.896 L20.61,1.872 C20.805,1.842 21,1.8 21.159,1.8 C21.378,1.782 21.567,1.77 21.717,1.767 L21.768,1.767 C21.9404183,1.76758385 22.1126757,1.77759881 22.284,1.797 C22.9633923,1.87570972 23.6224271,2.07911553 24.228,2.397 C25.2038879,2.93740947 26.0633537,3.66535561 26.757,4.539 C27.9320096,6.02682659 28.8367378,7.70935692 29.43,9.51 C29.7361811,10.3865229 29.9562208,11.290796 30.087,12.21 C30.2211729,13.1034469 30.278383,14.0067646 30.258,14.91 C30.2415574,15.7944215 30.1552892,16.676163 30,17.547 L29.982,17.547 Z" id="Shape" fill="#000000"></path>
                <path d="M3.9,57.993 C3.90330741,61.3202493 6.59975075,64.0166926 9.927,64.02 L50.772,64.02 C54.0992493,64.0166926 56.7956926,61.3202493 56.799,57.993 L56.799,29.121 L3.9,29.121 L3.9,57.993 Z" id="Path" fill="url(#linearGradient-3)"></path>
                <path d="M57.6990034,28.221 L2.99999661,28.221 L2.99999661,57.993 C2.99916745,58.8315909 3.15167525,59.6632668 3.45,60.447 L3.45,60.447 L3.45,28.671 L57.249,28.671 L57.249,60.444 L57.249,60.444 C57.5473247,59.6602668 57.6998326,58.8285909 57.6990034,57.99 L57.6990034,28.221 Z" id="Path" fill="#000000"></path>
                <path d="M9.927,64.47 L7.473,64.47 C8.25712968,64.7669038 9.08854261,64.9193633 9.927,64.92 L50.772,64.92 C51.6104816,64.9196283 52.4419417,64.7671601 53.226,64.47 L9.927,64.47 Z" id="Path" fill="#000000"></path>
                <path d="M57.249,60.096 L57.249,28.671 L3.45,28.671 L3.45,60.444 L3.45,60.444 C4.1559308,62.2980244 5.61950236,63.7626873 7.473,64.47 L53.226,64.47 C55.0788859,63.7633574 56.5423574,62.2998859 57.249,60.447 L57.249,60.447 L57.249,60.096 Z M56.799,57.996 C56.7956926,61.3232493 54.0992493,64.0196926 50.772,64.023 L9.927,64.023 C6.59858047,64.0196902 3.90165346,61.3214208 3.9,57.993 L3.9,29.121 L56.799,29.121 L56.799,57.996 Z" id="Shape" fill="#000000"></path>
                <path d="M59.4,27.522 C59.4,23.5455498 56.1764502,20.322 52.2,20.322 L8.1,20.322 C4.1235498,20.322 0.9,23.5455498 0.9,27.522 L0.9,30.021 L59.4,30.021 L59.4,27.522 Z" id="Path" fill="url(#linearGradient-4)"></path>
                <path d="M59.85,24.864 L59.85,30.471 L0.45,30.471 L0.45,24.864 C0.151471886,25.7183585 -0.000666276503,26.6169879 -2.17895136e-06,27.522 L-2.17895136e-06,30.921 L60.3000022,30.921 L60.3000022,27.522 C60.3006663,26.6169879 60.1485281,25.7183585 59.85,24.864 Z" id="Path" fill="#000000"></path>
                <path d="M6.162,19.869 L54.855,19.869 C54.0007135,19.5701923 53.1020362,19.418046 52.197,19.4189955 L8.1,19.4189955 C7.19496382,19.418046 6.29628646,19.5701923 5.442,19.869 L6.159,19.869 L6.162,19.869 Z" id="Path" fill="#000000"></path>
                <path d="M0.45,30.471 L59.85,30.471 L59.85,24.864 C59.0323528,22.5253334 57.1936666,20.6866472 54.855,19.869 L5.445,19.869 C3.10633339,20.6866472 1.2676472,22.5253334 0.45,24.864 L0.45,30.471 Z M0.9,27.522 C0.9,23.5455498 4.1235498,20.322 8.1,20.322 L52.2,20.322 C56.1764502,20.322 59.4,23.5455498 59.4,27.522 L59.4,30.021 L0.9,30.021 L0.9,27.522 Z" id="Shape" fill="#000000"></path>
                <rect id="Rectangle" fill="#FFFFFF" x="25.851" y="19.869" width="7.8" height="44.4"></rect>
                <path d="M34.101,64.719 L25.401,64.719 L25.401,19.419 L34.101,19.419 L34.101,64.719 Z M26.301,63.819 L33.201,63.819 L33.201,20.319 L26.301,20.319 L26.301,63.819 Z" id="Shape" fill="#231F20"></path>
                <rect id="Rectangle" fill="#FFFFFF" x="25.851" y="30.576" width="7.8" height="33.696"></rect>
                <path d="M34.101,64.719 L25.401,64.719 L25.401,30.126 L34.101,30.126 L34.101,64.719 Z M26.301,63.819 L33.201,63.819 L33.201,31.026 L26.301,31.026 L26.301,63.819 Z" id="Shape" fill="#231F20"></path>
                <g id="Group" transform="translate(57.000000, 15.000000)">
                    <polygon id="Path" fill="#FFAA2E" points="0.423 1.065 0.453 1.35 0.423 1.35"></polygon>
                    <polygon id="Path" fill="#FFAA2E" points="0.423 1.047 0.453 1.332 0.453 1.35 0.423 1.065"></polygon>
                    <polygon id="Path" fill="#FFA92D" points="0.423 1.029 0.453 1.314 0.453 1.332 0.423 1.047"></polygon>
                    <polygon id="Path" fill="#FFA82D" points="0.423 1.011 0.453 1.296 0.453 1.314 0.423 1.029"></polygon>
                    <polygon id="Path" fill="#FEA72C" points="0.423 0.993 0.453 1.278 0.453 1.296 0.423 1.011"></polygon>
                    <polygon id="Path" fill="#FEA62C" points="0.423 0.975 0.453 1.26 0.453 1.278 0.423 0.993"></polygon>
                    <polygon id="Path" fill="#FEA52B" points="0.423 0.957 0.453 1.239 0.453 1.26 0.423 0.975"></polygon>
                    <polygon id="Path" fill="#FEA42B" points="0.423 0.939 0.453 1.221 0.453 1.239 0.423 0.957"></polygon>
                    <polygon id="Path" fill="#FDA32A" points="0.423 0.921 0.453 1.203 0.453 1.221 0.423 0.939"></polygon>
                    <polygon id="Path" fill="#FDA22A" points="0.423 0.903 0.453 1.185 0.453 1.203 0.423 0.921"></polygon>
                    <polygon id="Path" fill="#FDA129" points="0.423 0.885 0.453 1.167 0.453 1.185 0.423 0.903"></polygon>
                    <polygon id="Path" fill="#FDA028" points="0.423 0.864 0.453 1.149 0.453 1.167 0.423 0.885"></polygon>
                    <polygon id="Path" fill="#FC9F28" points="0.423 0.846 0.453 1.131 0.453 1.149 0.423 0.864"></polygon>
                    <polygon id="Path" fill="#FC9E27" points="0.423 0.828 0.453 1.113 0.453 1.131 0.423 0.846"></polygon>
                    <polygon id="Path" fill="#FC9D27" points="0.423 0.81 0.453 1.095 0.453 1.113 0.423 0.828"></polygon>
                    <polygon id="Path" fill="#FC9C26" points="0.423 0.792 0.453 1.077 0.453 1.095 0.423 0.81"></polygon>
                    <polygon id="Path" fill="#FB9B26" points="0.423 0.774 0.453 1.059 0.453 1.077 0.423 0.792"></polygon>
                    <polygon id="Path" fill="#FB9A25" points="0.423 0.756 0.453 1.041 0.453 1.059 0.423 0.774"></polygon>
                    <polygon id="Path" fill="#FB9925" points="0.423 0.738 0.453 1.023 0.453 1.041 0.423 0.756"></polygon>
                    <polygon id="Path" fill="#FB9824" points="0.423 0.72 0.453 1.005 0.453 1.023 0.423 0.738"></polygon>
                    <polygon id="Path" fill="#FB9723" points="0.423 0.702 0.453 0.987 0.453 1.005 0.423 0.72"></polygon>
                    <polygon id="Path" fill="#FA9623" points="0.423 0.684 0.453 0.969 0.453 0.987 0.423 0.702"></polygon>
                    <polygon id="Path" fill="#FA9522" points="0.423 0.666 0.453 0.948 0.453 0.969 0.423 0.684"></polygon>
                    <polygon id="Path" fill="#FA9422" points="0.423 0.648 0.453 0.93 0.453 0.948 0.423 0.666"></polygon>
                    <polygon id="Path" fill="#FA9321" points="0.423 0.63 0.453 0.912 0.453 0.93 0.423 0.648"></polygon>
                    <polygon id="Path" fill="#F99121" points="0.423 0.612 0.453 0.894 0.453 0.912 0.423 0.63"></polygon>
                    <polygon id="Path" fill="#F99020" points="0.423 0.594 0.453 0.876 0.453 0.894 0.423 0.612"></polygon>
                    <polygon id="Path" fill="#F98F20" points="0.423 0.576 0.453 0.858 0.453 0.876 0.423 0.594"></polygon>
                    <polygon id="Path" fill="#F98E1F" points="0.423 0.555 0.453 0.84 0.453 0.858 0.423 0.576"></polygon>
                    <polygon id="Path" fill="#F88D1F" points="0.423 0.54 0.453 0.822 0.453 0.84 0.423 0.555"></polygon>
                    <polygon id="Path" fill="#F88C1E" points="0.423 0.519 0.453 0.804 0.453 0.822 0.423 0.54"></polygon>
                    <polygon id="Path" fill="#F88B1D" points="0.423 0.501 0.453 0.786 0.453 0.804 0.423 0.519"></polygon>
                    <polygon id="Path" fill="#F88A1D" points="0.423 0.483 0.453 0.768 0.453 0.786 0.423 0.501"></polygon>
                    <polygon id="Path" fill="#F8891C" points="0.423 0.465 0.453 0.75 0.453 0.768 0.423 0.483"></polygon>
                    <polygon id="Path" fill="#F7881C" points="0.423 0.447 0.453 0.732 0.453 0.75 0.423 0.465"></polygon>
                    <polygon id="Path" fill="#F7871B" points="0.423 0.429 0.453 0.714 0.453 0.732 0.423 0.447"></polygon>
                    <polygon id="Path" fill="#F7861B" points="0.423 0.411 0.453 0.696 0.453 0.714 0.423 0.429"></polygon>
                    <polygon id="Path" fill="#F7851A" points="0.423 0.393 0.453 0.678 0.453 0.696 0.423 0.411"></polygon>
                    <polygon id="Path" fill="#F6841A" points="0.423 0.375 0.453 0.66 0.453 0.678 0.423 0.393"></polygon>
                    <polygon id="Path" fill="#F68319" points="0.423 0.357 0.453 0.639 0.453 0.66 0.423 0.375"></polygon>
                    <polygon id="Path" fill="#F68218" points="0.423 0.339 0.453 0.624 0.453 0.639 0.423 0.357"></polygon>
                    <polygon id="Path" fill="#F68118" points="0.423 0.321 0.453 0.603 0.453 0.624 0.423 0.339"></polygon>
                    <polygon id="Path" fill="#F58017" points="0.423 0.303 0.453 0.585 0.453 0.603 0.423 0.321"></polygon>
                    <polygon id="Path" fill="#F57F17" points="0.423 0.285 0.453 0.567 0.453 0.585 0.423 0.303"></polygon>
                    <polygon id="Path" fill="#F57E16" points="0.423 0.267 0.453 0.549 0.453 0.567 0.423 0.285"></polygon>
                    <polygon id="Path" fill="#F57D16" points="0.423 0.249 0.453 0.531 0.453 0.549 0.423 0.267"></polygon>
                    <polygon id="Path" fill="#F47C15" points="0.423 0.231 0.453 0.513 0.453 0.531 0.423 0.249"></polygon>
                    <polygon id="Path" fill="#F47B15" points="0.423 0.21 0.453 0.495 0.453 0.513 0.423 0.231"></polygon>
                    <polygon id="Path" fill="#F47A14" points="0.423 0.192 0.453 0.477 0.453 0.495 0.423 0.21"></polygon>
                    <polygon id="Path" fill="#F47A14" points="0.453 0.477 0.423 0.192 0.453 0.192"></polygon>
                </g>
                <path d="M57.453,16.635 C57.3009845,16.6277519 57.1784805,16.5078269 57.168,16.356 L57.1379991,15.201 C57.1376129,15.0431807 57.2595674,14.9120469 57.417,14.901 C57.4943392,14.8960505 57.5703068,14.923147 57.627056,14.9759237 C57.6838051,15.0287004 57.7163338,15.1025055 57.717,15.18 L57.7470009,16.335 C57.7473871,16.4928193 57.6254326,16.6239531 57.468,16.635 L57.453,16.635 Z" id="Path" fill="#000000"></path>
                <g id="Group" transform="translate(57.900000, 16.500000)">
                    <polygon id="Path" fill="#FFAA2E" points="0.576 0.399 0.291 0.429 0.291 0.399"></polygon>
                    <polygon id="Path" fill="#FFAA2E" points="0.594 0.399 0.309 0.429 0.291 0.429 0.576 0.399"></polygon>
                    <polygon id="Path" fill="#FFA92D" points="0.612 0.399 0.327 0.429 0.309 0.429 0.594 0.399"></polygon>
                    <polygon id="Path" fill="#FFA82D" points="0.63 0.399 0.345 0.429 0.327 0.429 0.612 0.399"></polygon>
                    <polygon id="Path" fill="#FEA72C" points="0.648 0.399 0.366 0.429 0.345 0.429 0.63 0.399"></polygon>
                    <polygon id="Path" fill="#FEA62C" points="0.666 0.399 0.384 0.429 0.366 0.429 0.648 0.399"></polygon>
                    <polygon id="Path" fill="#FEA52B" points="0.684 0.399 0.402 0.429 0.384 0.429 0.666 0.399"></polygon>
                    <polygon id="Path" fill="#FEA42B" points="0.702 0.399 0.42 0.429 0.402 0.429 0.684 0.399"></polygon>
                    <polygon id="Path" fill="#FDA32A" points="0.72 0.399 0.438 0.429 0.42 0.429 0.702 0.399"></polygon>
                    <polygon id="Path" fill="#FDA22A" points="0.738 0.399 0.456 0.429 0.438 0.429 0.72 0.399"></polygon>
                    <polygon id="Path" fill="#FDA129" points="0.756 0.399 0.474 0.429 0.456 0.429 0.738 0.399"></polygon>
                    <polygon id="Path" fill="#FDA028" points="0.777 0.399 0.492 0.429 0.474 0.429 0.756 0.399"></polygon>
                    <polygon id="Path" fill="#FC9F28" points="0.795 0.399 0.51 0.429 0.492 0.429 0.777 0.399"></polygon>
                    <polygon id="Path" fill="#FC9E27" points="0.813 0.399 0.528 0.429 0.51 0.429 0.795 0.399"></polygon>
                    <polygon id="Path" fill="#FC9D27" points="0.831 0.399 0.546 0.429 0.528 0.429 0.813 0.399"></polygon>
                    <polygon id="Path" fill="#FC9C26" points="0.849 0.399 0.564 0.429 0.546 0.429 0.831 0.399"></polygon>
                    <polygon id="Path" fill="#FB9B26" points="0.867 0.399 0.582 0.429 0.564 0.429 0.849 0.399"></polygon>
                    <polygon id="Path" fill="#FB9A25" points="0.885 0.399 0.6 0.429 0.582 0.429 0.867 0.399"></polygon>
                    <polygon id="Path" fill="#FB9925" points="0.903 0.399 0.618 0.429 0.6 0.429 0.885 0.399"></polygon>
                    <polygon id="Path" fill="#FB9824" points="0.921 0.399 0.636 0.429 0.618 0.429 0.903 0.399"></polygon>
                    <polygon id="Path" fill="#FB9723" points="0.939 0.399 0.654 0.429 0.636 0.429 0.921 0.399"></polygon>
                    <polygon id="Path" fill="#FA9623" points="0.957 0.399 0.672 0.429 0.654 0.429 0.939 0.399"></polygon>
                    <polygon id="Path" fill="#FA9522" points="0.975 0.399 0.693 0.429 0.672 0.429 0.957 0.399"></polygon>
                    <polygon id="Path" fill="#FA9422" points="0.993 0.399 0.711 0.429 0.693 0.429 0.975 0.399"></polygon>
                    <polygon id="Path" fill="#FA9321" points="1.011 0.399 0.729 0.429 0.711 0.429 0.993 0.399"></polygon>
                    <polygon id="Path" fill="#F99121" points="1.029 0.399 0.747 0.429 0.729 0.429 1.011 0.399"></polygon>
                    <polygon id="Path" fill="#F99020" points="1.047 0.399 0.765 0.429 0.747 0.429 1.029 0.399"></polygon>
                    <polygon id="Path" fill="#F98F20" points="1.065 0.399 0.783 0.429 0.765 0.429 1.047 0.399"></polygon>
                    <polygon id="Path" fill="#F98E1F" points="1.086 0.399 0.801 0.429 0.783 0.429 1.065 0.399"></polygon>
                    <polygon id="Path" fill="#F88D1F" points="1.104 0.399 0.819 0.429 0.801 0.429 1.086 0.399"></polygon>
                    <polygon id="Path" fill="#F88C1E" points="1.122 0.399 0.837 0.429 0.819 0.429 1.104 0.399"></polygon>
                    <polygon id="Path" fill="#F88B1D" points="1.14 0.399 0.855 0.429 0.837 0.429 1.122 0.399"></polygon>
                    <polygon id="Path" fill="#F88A1D" points="1.158 0.399 0.873 0.429 0.855 0.429 1.14 0.399"></polygon>
                    <polygon id="Path" fill="#F8891C" points="1.176 0.399 0.891 0.429 0.873 0.429 1.158 0.399"></polygon>
                    <polygon id="Path" fill="#F7881C" points="1.194 0.399 0.909 0.429 0.891 0.429 1.176 0.399"></polygon>
                    <polygon id="Path" fill="#F7871B" points="1.212 0.399 0.927 0.429 0.909 0.429 1.194 0.399"></polygon>
                    <polygon id="Path" fill="#F7861B" points="1.23 0.399 0.945 0.429 0.927 0.429 1.212 0.399"></polygon>
                    <polygon id="Path" fill="#F7851A" points="1.248 0.399 0.963 0.429 0.945 0.429 1.23 0.399"></polygon>
                    <polygon id="Path" fill="#F6841A" points="1.266 0.399 0.981 0.429 0.963 0.429 1.248 0.399"></polygon>
                    <polygon id="Path" fill="#F68319" points="1.284 0.399 1.002 0.429 0.981 0.429 1.266 0.399"></polygon>
                    <polygon id="Path" fill="#F68218" points="1.302 0.399 1.02 0.429 1.002 0.429 1.284 0.399"></polygon>
                    <polygon id="Path" fill="#F68118" points="1.32 0.399 1.038 0.429 1.02 0.429 1.302 0.399"></polygon>
                    <polygon id="Path" fill="#F58017" points="1.338 0.399 1.056 0.429 1.038 0.429 1.32 0.399"></polygon>
                    <polygon id="Path" fill="#F57F17" points="1.356 0.399 1.074 0.429 1.056 0.429 1.338 0.399"></polygon>
                    <polygon id="Path" fill="#F57E16" points="1.374 0.399 1.092 0.429 1.074 0.429 1.356 0.399"></polygon>
                    <polygon id="Path" fill="#F57D16" points="1.392 0.399 1.11 0.429 1.092 0.429 1.374 0.399"></polygon>
                    <polygon id="Path" fill="#F47C15" points="1.413 0.399 1.128 0.429 1.11 0.429 1.392 0.399"></polygon>
                    <polygon id="Path" fill="#F47B15" points="1.431 0.399 1.146 0.429 1.128 0.429 1.413 0.399"></polygon>
                    <polygon id="Path" fill="#F47A14" points="1.449 0.399 1.164 0.429 1.146 0.429 1.431 0.399"></polygon>
                    <polygon id="Path" fill="#F47A14" points="1.164 0.429 1.449 0.399 1.449 0.429"></polygon>
                </g>
                <path d="M58.2,17.214 C58.0745042,17.1750233 57.9889817,17.0589092 57.9889817,16.9275 C57.9889817,16.7960908 58.0745042,16.6799767 58.2,16.641 L59.355,16.614 C59.4787077,16.5733393 59.61452,16.6171272 59.69118,16.7223894 C59.76784,16.8276516 59.76784,16.9703484 59.69118,17.0756106 C59.61452,17.1808728 59.4787077,17.2246607 59.355,17.184 L58.2,17.214 Z" id="Path" fill="#000000"></path>
                <g id="Group" transform="translate(57.000000, 17.400000)">
                    <polygon id="Path" fill="#FFAA2E" points="0.444 0.369 0.414 0.084 0.444 0.084"></polygon>
                    <polygon id="Path" fill="#FFAA2E" points="0.444 0.387 0.414 0.102 0.414 0.084 0.444 0.369"></polygon>
                    <polygon id="Path" fill="#FFA92D" points="0.444 0.405 0.414 0.12 0.414 0.102 0.444 0.387"></polygon>
                    <polygon id="Path" fill="#FFA82D" points="0.444 0.423 0.414 0.138 0.414 0.12 0.444 0.405"></polygon>
                    <polygon id="Path" fill="#FEA72C" points="0.444 0.441 0.414 0.156 0.414 0.138 0.444 0.423"></polygon>
                    <polygon id="Path" fill="#FEA62C" points="0.444 0.459 0.414 0.177 0.414 0.156 0.444 0.441"></polygon>
                    <polygon id="Path" fill="#FEA52B" points="0.444 0.477 0.414 0.195 0.414 0.177 0.444 0.459"></polygon>
                    <polygon id="Path" fill="#FEA42B" points="0.444 0.495 0.414 0.213 0.414 0.195 0.444 0.477"></polygon>
                    <polygon id="Path" fill="#FDA32A" points="0.444 0.513 0.414 0.231 0.414 0.213 0.444 0.495"></polygon>
                    <polygon id="Path" fill="#FDA22A" points="0.444 0.531 0.414 0.249 0.414 0.231 0.444 0.513"></polygon>
                    <polygon id="Path" fill="#FDA129" points="0.444 0.549 0.414 0.267 0.414 0.249 0.444 0.531"></polygon>
                    <polygon id="Path" fill="#FDA028" points="0.444 0.57 0.414 0.285 0.414 0.267 0.444 0.549"></polygon>
                    <polygon id="Path" fill="#FC9F28" points="0.444 0.585 0.414 0.303 0.414 0.285 0.444 0.57"></polygon>
                    <polygon id="Path" fill="#FC9E27" points="0.444 0.606 0.414 0.321 0.414 0.303 0.444 0.585"></polygon>
                    <polygon id="Path" fill="#FC9D27" points="0.444 0.624 0.414 0.339 0.414 0.321 0.444 0.606"></polygon>
                    <polygon id="Path" fill="#FC9C26" points="0.444 0.642 0.414 0.357 0.414 0.339 0.444 0.624"></polygon>
                    <polygon id="Path" fill="#FB9B26" points="0.444 0.66 0.414 0.375 0.414 0.357 0.444 0.642"></polygon>
                    <polygon id="Path" fill="#FB9A25" points="0.444 0.678 0.414 0.393 0.414 0.375 0.444 0.66"></polygon>
                    <polygon id="Path" fill="#FB9925" points="0.444 0.696 0.414 0.411 0.414 0.393 0.444 0.678"></polygon>
                    <polygon id="Path" fill="#FB9824" points="0.444 0.714 0.414 0.429 0.414 0.411 0.444 0.696"></polygon>
                    <polygon id="Path" fill="#FB9723" points="0.444 0.732 0.414 0.447 0.414 0.429 0.444 0.714"></polygon>
                    <polygon id="Path" fill="#FA9623" points="0.444 0.75 0.414 0.465 0.414 0.447 0.444 0.732"></polygon>
                    <polygon id="Path" fill="#FA9522" points="0.444 0.768 0.414 0.486 0.414 0.465 0.444 0.75"></polygon>
                    <polygon id="Path" fill="#FA9422" points="0.444 0.786 0.414 0.501 0.414 0.486 0.444 0.768"></polygon>
                    <polygon id="Path" fill="#FA9321" points="0.444 0.804 0.414 0.522 0.414 0.501 0.444 0.786"></polygon>
                    <polygon id="Path" fill="#F99121" points="0.444 0.822 0.414 0.54 0.414 0.522 0.444 0.804"></polygon>
                    <polygon id="Path" fill="#F99020" points="0.444 0.84 0.414 0.558 0.414 0.54 0.444 0.822"></polygon>
                    <polygon id="Path" fill="#F98F20" points="0.444 0.858 0.414 0.576 0.414 0.558 0.444 0.84"></polygon>
                    <polygon id="Path" fill="#F98E1F" points="0.444 0.876 0.414 0.594 0.414 0.576 0.444 0.858"></polygon>
                    <polygon id="Path" fill="#F88D1F" points="0.444 0.894 0.414 0.612 0.414 0.594 0.444 0.876"></polygon>
                    <polygon id="Path" fill="#F88C1E" points="0.444 0.915 0.414 0.63 0.414 0.612 0.444 0.894"></polygon>
                    <polygon id="Path" fill="#F88B1D" points="0.444 0.933 0.414 0.648 0.414 0.63 0.444 0.915"></polygon>
                    <polygon id="Path" fill="#F88A1D" points="0.444 0.951 0.414 0.666 0.414 0.648 0.444 0.933"></polygon>
                    <polygon id="Path" fill="#F8891C" points="0.444 0.969 0.414 0.684 0.414 0.666 0.444 0.951"></polygon>
                    <polygon id="Path" fill="#F7881C" points="0.444 0.987 0.414 0.702 0.414 0.684 0.444 0.969"></polygon>
                    <polygon id="Path" fill="#F7871B" points="0.444 1.005 0.414 0.72 0.414 0.702 0.444 0.987"></polygon>
                    <polygon id="Path" fill="#F7861B" points="0.444 1.023 0.414 0.738 0.414 0.72 0.444 1.005"></polygon>
                    <polygon id="Path" fill="#F7851A" points="0.444 1.041 0.414 0.756 0.414 0.738 0.444 1.023"></polygon>
                    <polygon id="Path" fill="#F6841A" points="0.444 1.059 0.414 0.774 0.414 0.756 0.444 1.041"></polygon>
                    <polygon id="Path" fill="#F68319" points="0.444 1.077 0.414 0.792 0.414 0.774 0.444 1.059"></polygon>
                    <polygon id="Path" fill="#F68218" points="0.444 1.095 0.414 0.81 0.414 0.792 0.444 1.077"></polygon>
                    <polygon id="Path" fill="#F68118" points="0.444 1.113 0.414 0.831 0.414 0.81 0.444 1.095"></polygon>
                    <polygon id="Path" fill="#F58017" points="0.444 1.131 0.414 0.849 0.414 0.831 0.444 1.113"></polygon>
                    <polygon id="Path" fill="#F57F17" points="0.444 1.149 0.414 0.867 0.414 0.849 0.444 1.131"></polygon>
                    <polygon id="Path" fill="#F57E16" points="0.444 1.167 0.414 0.885 0.414 0.867 0.444 1.149"></polygon>
                    <polygon id="Path" fill="#F57D16" points="0.444 1.185 0.414 0.903 0.414 0.885 0.444 1.167"></polygon>
                    <polygon id="Path" fill="#F47C15" points="0.444 1.206 0.414 0.921 0.414 0.903 0.444 1.185"></polygon>
                    <polygon id="Path" fill="#F47B15" points="0.444 1.224 0.414 0.939 0.414 0.921 0.444 1.206"></polygon>
                    <polygon id="Path" fill="#F47A14" points="0.444 1.242 0.414 0.957 0.414 0.939 0.444 1.224"></polygon>
                    <polygon id="Path" fill="#F47A14" points="0.414 0.957 0.444 1.242 0.414 1.242"></polygon>
                </g>
                <path d="M57.444,18.927 C57.2919845,18.9197519 57.1694805,18.7998269 57.159,18.648 L57.1289991,17.493 C57.1286129,17.3351807 57.2505674,17.2040469 57.408,17.1929991 C57.5658193,17.1926129 57.6969531,17.3145674 57.708,17.472 L57.7350016,18.627 C57.7355023,18.7837481 57.6152466,18.9144609 57.459,18.927 L57.444,18.927 Z" id="Path" fill="#000000"></path>
                <g id="Group" transform="translate(55.500000, 16.500000)">
                    <polygon id="Path" fill="#FFAA2E" points="0.891 0.435 1.176 0.405 1.176 0.435"></polygon>
                    <polygon id="Path" fill="#FFAA2E" points="0.873 0.435 1.158 0.405 1.176 0.405 0.891 0.435"></polygon>
                    <polygon id="Path" fill="#FFA92D" points="0.855 0.435 1.14 0.405 1.158 0.405 0.873 0.435"></polygon>
                    <polygon id="Path" fill="#FFA82D" points="0.837 0.435 1.122 0.405 1.14 0.405 0.855 0.435"></polygon>
                    <polygon id="Path" fill="#FEA72C" points="0.819 0.435 1.104 0.405 1.122 0.405 0.837 0.435"></polygon>
                    <polygon id="Path" fill="#FEA62C" points="0.801 0.435 1.086 0.405 1.104 0.405 0.819 0.435"></polygon>
                    <polygon id="Path" fill="#FEA52B" points="0.783 0.435 1.068 0.405 1.086 0.405 0.801 0.435"></polygon>
                    <polygon id="Path" fill="#FEA42B" points="0.765 0.435 1.05 0.405 1.068 0.405 0.783 0.435"></polygon>
                    <polygon id="Path" fill="#FDA32A" points="0.747 0.435 1.032 0.405 1.05 0.405 0.765 0.435"></polygon>
                    <polygon id="Path" fill="#FDA22A" points="0.729 0.435 1.011 0.405 1.032 0.405 0.747 0.435"></polygon>
                    <polygon id="Path" fill="#FDA129" points="0.711 0.435 0.993 0.405 1.011 0.405 0.729 0.435"></polygon>
                    <polygon id="Path" fill="#FDA028" points="0.693 0.435 0.975 0.405 0.993 0.405 0.711 0.435"></polygon>
                    <polygon id="Path" fill="#FC9F28" points="0.675 0.435 0.957 0.405 0.975 0.405 0.693 0.435"></polygon>
                    <polygon id="Path" fill="#FC9E27" points="0.657 0.435 0.939 0.405 0.957 0.405 0.675 0.435"></polygon>
                    <polygon id="Path" fill="#FC9D27" points="0.639 0.435 0.921 0.405 0.939 0.405 0.657 0.435"></polygon>
                    <polygon id="Path" fill="#FC9C26" points="0.618 0.435 0.903 0.405 0.921 0.405 0.639 0.435"></polygon>
                    <polygon id="Path" fill="#FB9B26" points="0.6 0.435 0.885 0.405 0.903 0.405 0.618 0.435"></polygon>
                    <polygon id="Path" fill="#FB9A25" points="0.582 0.435 0.867 0.405 0.885 0.405 0.6 0.435"></polygon>
                    <polygon id="Path" fill="#FB9925" points="0.564 0.435 0.849 0.405 0.867 0.405 0.582 0.435"></polygon>
                    <polygon id="Path" fill="#FB9824" points="0.546 0.435 0.831 0.405 0.849 0.405 0.564 0.435"></polygon>
                    <polygon id="Path" fill="#FB9723" points="0.528 0.435 0.813 0.405 0.831 0.405 0.546 0.435"></polygon>
                    <polygon id="Path" fill="#FA9623" points="0.51 0.435 0.795 0.405 0.813 0.405 0.528 0.435"></polygon>
                    <polygon id="Path" fill="#FA9522" points="0.492 0.435 0.777 0.405 0.795 0.405 0.51 0.435"></polygon>
                    <polygon id="Path" fill="#FA9422" points="0.474 0.435 0.759 0.405 0.777 0.405 0.492 0.435"></polygon>
                    <polygon id="Path" fill="#FA9321" points="0.456 0.435 0.741 0.405 0.759 0.405 0.474 0.435"></polygon>
                    <polygon id="Path" fill="#F99121" points="0.438 0.435 0.723 0.405 0.741 0.405 0.456 0.435"></polygon>
                    <polygon id="Path" fill="#F99020" points="0.42 0.435 0.702 0.405 0.723 0.405 0.438 0.435"></polygon>
                    <polygon id="Path" fill="#F98F20" points="0.402 0.435 0.684 0.405 0.702 0.405 0.42 0.435"></polygon>
                    <polygon id="Path" fill="#F98E1F" points="0.384 0.435 0.666 0.405 0.684 0.405 0.402 0.435"></polygon>
                    <polygon id="Path" fill="#F88D1F" points="0.366 0.435 0.648 0.405 0.666 0.405 0.384 0.435"></polygon>
                    <polygon id="Path" fill="#F88C1E" points="0.348 0.435 0.63 0.405 0.648 0.405 0.366 0.435"></polygon>
                    <polygon id="Path" fill="#F88B1D" points="0.327 0.435 0.612 0.405 0.63 0.405 0.348 0.435"></polygon>
                    <polygon id="Path" fill="#F88A1D" points="0.309 0.435 0.594 0.405 0.612 0.405 0.327 0.435"></polygon>
                    <polygon id="Path" fill="#F8891C" points="0.291 0.435 0.576 0.405 0.594 0.405 0.309 0.435"></polygon>
                    <polygon id="Path" fill="#F7881C" points="0.273 0.435 0.558 0.405 0.576 0.405 0.291 0.435"></polygon>
                    <polygon id="Path" fill="#F7871B" points="0.255 0.435 0.54 0.405 0.558 0.405 0.273 0.435"></polygon>
                    <polygon id="Path" fill="#F7861B" points="0.237 0.435 0.522 0.405 0.54 0.405 0.255 0.435"></polygon>
                    <polygon id="Path" fill="#F7851A" points="0.219 0.435 0.504 0.405 0.522 0.405 0.237 0.435"></polygon>
                    <polygon id="Path" fill="#F6841A" points="0.201 0.435 0.486 0.405 0.504 0.405 0.219 0.435"></polygon>
                    <polygon id="Path" fill="#F68319" points="0.183 0.435 0.468 0.405 0.486 0.405 0.201 0.435"></polygon>
                    <polygon id="Path" fill="#F68218" points="0.165 0.435 0.45 0.405 0.468 0.405 0.183 0.435"></polygon>
                    <polygon id="Path" fill="#F68118" points="0.147 0.435 0.432 0.405 0.45 0.405 0.165 0.435"></polygon>
                    <polygon id="Path" fill="#F58017" points="0.129 0.435 0.414 0.405 0.432 0.405 0.147 0.435"></polygon>
                    <polygon id="Path" fill="#F57F17" points="0.111 0.435 0.393 0.405 0.414 0.405 0.129 0.435"></polygon>
                    <polygon id="Path" fill="#F57E16" points="0.093 0.435 0.375 0.405 0.393 0.405 0.111 0.435"></polygon>
                    <polygon id="Path" fill="#F57D16" points="0.075 0.435 0.357 0.405 0.375 0.405 0.093 0.435"></polygon>
                    <polygon id="Path" fill="#F47C15" points="0.057 0.435 0.339 0.405 0.357 0.405 0.075 0.435"></polygon>
                    <polygon id="Path" fill="#F47B15" points="0.039 0.435 0.321 0.405 0.339 0.405 0.057 0.435"></polygon>
                    <polygon id="Path" fill="#F47A14" points="0.018 0.435 0.303 0.405 0.321 0.405 0.039 0.435"></polygon>
                    <polygon id="Path" fill="#F47A14" points="0.303 0.405 0.018 0.435 0.018 0.405"></polygon>
                </g>
                <path d="M55.518,17.22 C55.3948876,17.1795349 55.311675,17.064592 55.311675,16.935 C55.311675,16.805408 55.3948876,16.6904651 55.518,16.65 L56.676,16.62 C56.753786,16.6132018 56.8308116,16.6396698 56.8879892,16.692845 C56.9451667,16.7460201 56.9771452,16.8209259 56.976,16.899 C56.9809495,16.9763392 56.953853,17.0523068 56.9010763,17.109056 C56.8482996,17.1658051 56.7744945,17.1983338 56.697,17.199 L55.542,17.229 L55.518,17.22 Z" id="Path" fill="#000000"></path>
                <g id="Group" transform="translate(8.100000, 0.300000)">
                    <polygon id="Path" fill="#FFAA2E" points="0.399 1.158 0.426 1.443 0.399 1.443"></polygon>
                    <polygon id="Path" fill="#FFAA2E" points="0.399 1.14 0.426 1.425 0.426 1.443 0.399 1.158"></polygon>
                    <polygon id="Path" fill="#FFA92D" points="0.399 1.122 0.426 1.404 0.426 1.425 0.399 1.14"></polygon>
                    <polygon id="Path" fill="#FFA82D" points="0.399 1.104 0.426 1.389 0.426 1.404 0.399 1.122"></polygon>
                    <polygon id="Path" fill="#FEA72C" points="0.399 1.086 0.426 1.368 0.426 1.389 0.399 1.104"></polygon>
                    <polygon id="Path" fill="#FEA62C" points="0.399 1.068 0.426 1.35 0.426 1.368 0.399 1.086"></polygon>
                    <polygon id="Path" fill="#FEA52B" points="0.399 1.05 0.426 1.332 0.426 1.35 0.399 1.068"></polygon>
                    <polygon id="Path" fill="#FEA42B" points="0.399 1.032 0.426 1.314 0.426 1.332 0.399 1.05"></polygon>
                    <polygon id="Path" fill="#FDA32A" points="0.399 1.014 0.426 1.296 0.426 1.314 0.399 1.032"></polygon>
                    <polygon id="Path" fill="#FDA22A" points="0.399 0.993 0.426 1.278 0.426 1.296 0.399 1.014"></polygon>
                    <polygon id="Path" fill="#FDA129" points="0.399 0.975 0.426 1.26 0.426 1.278 0.399 0.993"></polygon>
                    <polygon id="Path" fill="#FDA028" points="0.399 0.957 0.426 1.242 0.426 1.26 0.399 0.975"></polygon>
                    <polygon id="Path" fill="#FC9F28" points="0.399 0.939 0.426 1.224 0.426 1.242 0.399 0.957"></polygon>
                    <polygon id="Path" fill="#FC9E27" points="0.399 0.921 0.426 1.206 0.426 1.224 0.399 0.939"></polygon>
                    <polygon id="Path" fill="#FC9D27" points="0.399 0.903 0.426 1.188 0.426 1.206 0.399 0.921"></polygon>
                    <polygon id="Path" fill="#FC9C26" points="0.399 0.885 0.426 1.17 0.426 1.188 0.399 0.903"></polygon>
                    <polygon id="Path" fill="#FB9B26" points="0.399 0.867 0.426 1.152 0.426 1.17 0.399 0.885"></polygon>
                    <polygon id="Path" fill="#FB9A25" points="0.399 0.849 0.426 1.134 0.426 1.152 0.399 0.867"></polygon>
                    <polygon id="Path" fill="#FB9925" points="0.399 0.831 0.426 1.116 0.426 1.134 0.399 0.849"></polygon>
                    <polygon id="Path" fill="#FB9824" points="0.399 0.813 0.426 1.098 0.426 1.116 0.399 0.831"></polygon>
                    <polygon id="Path" fill="#FB9723" points="0.399 0.795 0.426 1.08 0.426 1.098 0.399 0.813"></polygon>
                    <polygon id="Path" fill="#FA9623" points="0.399 0.777 0.426 1.059 0.426 1.08 0.399 0.795"></polygon>
                    <polygon id="Path" fill="#FA9522" points="0.399 0.759 0.426 1.041 0.426 1.059 0.399 0.777"></polygon>
                    <polygon id="Path" fill="#FA9422" points="0.399 0.741 0.426 1.023 0.426 1.041 0.399 0.759"></polygon>
                    <polygon id="Path" fill="#FA9321" points="0.399 0.723 0.426 1.005 0.426 1.023 0.399 0.741"></polygon>
                    <polygon id="Path" fill="#F99121" points="0.399 0.705 0.426 0.987 0.426 1.005 0.399 0.723"></polygon>
                    <polygon id="Path" fill="#F99020" points="0.399 0.687 0.426 0.969 0.426 0.987 0.399 0.705"></polygon>
                    <polygon id="Path" fill="#F98F20" points="0.399 0.669 0.426 0.951 0.426 0.969 0.399 0.687"></polygon>
                    <polygon id="Path" fill="#F98E1F" points="0.399 0.648 0.426 0.933 0.426 0.951 0.399 0.669"></polygon>
                    <polygon id="Path" fill="#F88D1F" points="0.399 0.63 0.426 0.915 0.426 0.933 0.399 0.648"></polygon>
                    <polygon id="Path" fill="#F88C1E" points="0.399 0.612 0.426 0.897 0.426 0.915 0.399 0.63"></polygon>
                    <polygon id="Path" fill="#F88B1D" points="0.399 0.594 0.426 0.879 0.426 0.897 0.399 0.612"></polygon>
                    <polygon id="Path" fill="#F88A1D" points="0.399 0.576 0.426 0.861 0.426 0.879 0.399 0.594"></polygon>
                    <polygon id="Path" fill="#F8891C" points="0.399 0.558 0.426 0.843 0.426 0.861 0.399 0.576"></polygon>
                    <polygon id="Path" fill="#F7881C" points="0.399 0.54 0.426 0.825 0.426 0.843 0.399 0.558"></polygon>
                    <polygon id="Path" fill="#F7871B" points="0.399 0.522 0.426 0.807 0.426 0.825 0.399 0.54"></polygon>
                    <polygon id="Path" fill="#F7861B" points="0.399 0.504 0.426 0.789 0.426 0.807 0.399 0.522"></polygon>
                    <polygon id="Path" fill="#F7851A" points="0.399 0.486 0.426 0.768 0.426 0.789 0.399 0.504"></polygon>
                    <polygon id="Path" fill="#F6841A" points="0.399 0.468 0.426 0.75 0.426 0.768 0.399 0.486"></polygon>
                    <polygon id="Path" fill="#F68319" points="0.399 0.45 0.426 0.732 0.426 0.75 0.399 0.468"></polygon>
                    <polygon id="Path" fill="#F68218" points="0.399 0.432 0.426 0.714 0.426 0.732 0.399 0.45"></polygon>
                    <polygon id="Path" fill="#F68118" points="0.399 0.414 0.426 0.696 0.426 0.714 0.399 0.432"></polygon>
                    <polygon id="Path" fill="#F58017" points="0.399 0.396 0.426 0.678 0.426 0.696 0.399 0.414"></polygon>
                    <polygon id="Path" fill="#F57F17" points="0.399 0.375 0.426 0.66 0.426 0.678 0.399 0.396"></polygon>
                    <polygon id="Path" fill="#F57E16" points="0.399 0.36 0.426 0.642 0.426 0.66 0.399 0.375"></polygon>
                    <polygon id="Path" fill="#F57D16" points="0.399 0.339 0.426 0.624 0.426 0.642 0.399 0.36"></polygon>
                    <polygon id="Path" fill="#F47C15" points="0.399 0.321 0.426 0.606 0.426 0.624 0.399 0.339"></polygon>
                    <polygon id="Path" fill="#F47B15" points="0.399 0.303 0.426 0.588 0.426 0.606 0.399 0.321"></polygon>
                    <polygon id="Path" fill="#F47A14" points="0.399 0.285 0.426 0.57 0.426 0.588 0.399 0.303"></polygon>
                    <polygon id="Path" fill="#F47A14" points="0.426 0.57 0.399 0.285 0.426 0.285"></polygon>
                </g>
                <path d="M8.526,2.028 C8.36818074,2.0283871 8.23704691,1.90643263 8.226,1.749 L8.214,0.6 C8.17333925,0.476292323 8.21712716,0.340479967 8.32238938,0.263820003 C8.4276516,0.187160039 8.5703484,0.187160039 8.67561062,0.263820003 C8.78087284,0.340479967 8.82466075,0.476292323 8.784,0.6 L8.81400092,1.755 C8.8143871,1.91281926 8.69243263,2.04395309 8.535,2.055 L8.526,2.028 Z" id="Path" fill="#000000"></path>
                <g id="Group" transform="translate(9.000000, 2.100000)">
                    <polygon id="Path" fill="#FFAA2E" points="0.552 0.192 0.267 0.222 0.267 0.192"></polygon>
                    <polygon id="Path" fill="#FFAA2E" points="0.57 0.192 0.285 0.222 0.267 0.222 0.552 0.192"></polygon>
                    <polygon id="Path" fill="#FFA92D" points="0.588 0.192 0.303 0.222 0.285 0.222 0.57 0.192"></polygon>
                    <polygon id="Path" fill="#FFA82D" points="0.606 0.192 0.321 0.222 0.303 0.222 0.588 0.192"></polygon>
                    <polygon id="Path" fill="#FEA72C" points="0.624 0.192 0.339 0.222 0.321 0.222 0.606 0.192"></polygon>
                    <polygon id="Path" fill="#FEA62C" points="0.642 0.192 0.357 0.222 0.339 0.222 0.624 0.192"></polygon>
                    <polygon id="Path" fill="#FEA52B" points="0.66 0.192 0.375 0.222 0.357 0.222 0.642 0.192"></polygon>
                    <polygon id="Path" fill="#FEA42B" points="0.678 0.192 0.393 0.222 0.375 0.222 0.66 0.192"></polygon>
                    <polygon id="Path" fill="#FDA32A" points="0.696 0.192 0.414 0.222 0.393 0.222 0.678 0.192"></polygon>
                    <polygon id="Path" fill="#FDA22A" points="0.714 0.192 0.429 0.222 0.414 0.222 0.696 0.192"></polygon>
                    <polygon id="Path" fill="#FDA129" points="0.732 0.192 0.45 0.222 0.429 0.222 0.714 0.192"></polygon>
                    <polygon id="Path" fill="#FDA028" points="0.75 0.192 0.468 0.222 0.45 0.222 0.732 0.192"></polygon>
                    <polygon id="Path" fill="#FC9F28" points="0.768 0.192 0.486 0.222 0.468 0.222 0.75 0.192"></polygon>
                    <polygon id="Path" fill="#FC9E27" points="0.786 0.192 0.504 0.222 0.486 0.222 0.768 0.192"></polygon>
                    <polygon id="Path" fill="#FC9D27" points="0.807 0.192 0.522 0.222 0.504 0.222 0.786 0.192"></polygon>
                    <polygon id="Path" fill="#FC9C26" points="0.822 0.192 0.54 0.222 0.522 0.222 0.807 0.192"></polygon>
                    <polygon id="Path" fill="#FB9B26" points="0.843 0.192 0.558 0.222 0.54 0.222 0.822 0.192"></polygon>
                    <polygon id="Path" fill="#FB9A25" points="0.861 0.192 0.576 0.222 0.558 0.222 0.843 0.192"></polygon>
                    <polygon id="Path" fill="#FB9925" points="0.879 0.192 0.594 0.222 0.576 0.222 0.861 0.192"></polygon>
                    <polygon id="Path" fill="#FB9824" points="0.897 0.192 0.612 0.222 0.594 0.222 0.879 0.192"></polygon>
                    <polygon id="Path" fill="#FB9723" points="0.915 0.192 0.63 0.222 0.612 0.222 0.897 0.192"></polygon>
                    <polygon id="Path" fill="#FA9623" points="0.933 0.192 0.648 0.222 0.63 0.222 0.915 0.192"></polygon>
                    <polygon id="Path" fill="#FA9522" points="0.951 0.192 0.666 0.222 0.648 0.222 0.933 0.192"></polygon>
                    <polygon id="Path" fill="#FA9422" points="0.969 0.192 0.684 0.222 0.666 0.222 0.951 0.192"></polygon>
                    <polygon id="Path" fill="#FA9321" points="0.987 0.192 0.702 0.222 0.684 0.222 0.969 0.192"></polygon>
                    <polygon id="Path" fill="#F99121" points="1.005 0.192 0.72 0.222 0.702 0.222 0.987 0.192"></polygon>
                    <polygon id="Path" fill="#F99020" points="1.023 0.192 0.741 0.222 0.72 0.222 1.005 0.192"></polygon>
                    <polygon id="Path" fill="#F98F20" points="1.041 0.192 0.759 0.222 0.741 0.222 1.023 0.192"></polygon>
                    <polygon id="Path" fill="#F98E1F" points="1.059 0.192 0.777 0.222 0.759 0.222 1.041 0.192"></polygon>
                    <polygon id="Path" fill="#F88D1F" points="1.077 0.192 0.795 0.222 0.777 0.222 1.059 0.192"></polygon>
                    <polygon id="Path" fill="#F88C1E" points="1.095 0.192 0.813 0.222 0.795 0.222 1.077 0.192"></polygon>
                    <polygon id="Path" fill="#F88B1D" points="1.113 0.192 0.831 0.222 0.813 0.222 1.095 0.192"></polygon>
                    <polygon id="Path" fill="#F88A1D" points="1.131 0.192 0.849 0.222 0.831 0.222 1.113 0.192"></polygon>
                    <polygon id="Path" fill="#F8891C" points="1.152 0.192 0.867 0.222 0.849 0.222 1.131 0.192"></polygon>
                    <polygon id="Path" fill="#F7881C" points="1.17 0.192 0.885 0.222 0.867 0.222 1.152 0.192"></polygon>
                    <polygon id="Path" fill="#F7871B" points="1.188 0.192 0.903 0.222 0.885 0.222 1.17 0.192"></polygon>
                    <polygon id="Path" fill="#F7861B" points="1.206 0.192 0.921 0.222 0.903 0.222 1.188 0.192"></polygon>
                    <polygon id="Path" fill="#F7851A" points="1.224 0.192 0.939 0.222 0.921 0.222 1.206 0.192"></polygon>
                    <polygon id="Path" fill="#F6841A" points="1.242 0.192 0.957 0.222 0.939 0.222 1.224 0.192"></polygon>
                    <polygon id="Path" fill="#F68319" points="1.26 0.192 0.975 0.222 0.957 0.222 1.242 0.192"></polygon>
                    <polygon id="Path" fill="#F68218" points="1.278 0.192 0.993 0.222 0.975 0.222 1.26 0.192"></polygon>
                    <polygon id="Path" fill="#F68118" points="1.296 0.192 1.011 0.222 0.993 0.222 1.278 0.192"></polygon>
                    <polygon id="Path" fill="#F58017" points="1.314 0.192 1.029 0.222 1.011 0.222 1.296 0.192"></polygon>
                    <polygon id="Path" fill="#F57F17" points="1.332 0.192 1.047 0.222 1.029 0.222 1.314 0.192"></polygon>
                    <polygon id="Path" fill="#F57E16" points="1.35 0.192 1.065 0.222 1.047 0.222 1.332 0.192"></polygon>
                    <polygon id="Path" fill="#F57D16" points="1.368 0.192 1.086 0.222 1.065 0.222 1.35 0.192"></polygon>
                    <polygon id="Path" fill="#F47C15" points="1.386 0.192 1.104 0.222 1.086 0.222 1.368 0.192"></polygon>
                    <polygon id="Path" fill="#F47B15" points="1.404 0.192 1.122 0.222 1.104 0.222 1.386 0.192"></polygon>
                    <polygon id="Path" fill="#F47A14" points="1.422 0.192 1.14 0.222 1.122 0.222 1.404 0.192"></polygon>
                    <polygon id="Path" fill="#F47A14" points="1.14 0.222 1.422 0.192 1.422 0.222"></polygon>
                </g>
                <path d="M9.267,2.607 C9.14150425,2.56802328 9.05598174,2.45190916 9.05598174,2.3205 C9.05598174,2.18909084 9.14150425,2.07297672 9.267,2.034 L10.422,2.007 C10.4988261,2.0020719 10.5743272,2.02876656 10.6309821,2.08088906 C10.687637,2.13301157 10.7205199,2.20603025 10.7220009,2.283 C10.7223871,2.44081926 10.6004326,2.57195309 10.443,2.583 L9.285,2.613 L9.267,2.607 Z" id="Path" fill="#000000"></path>
                <g id="Group" transform="translate(8.100000, 2.700000)">
                    <polygon id="Path" fill="#FFAA2E" points="0.42 0.462 0.39 0.177 0.42 0.177"></polygon>
                    <polygon id="Path" fill="#FFAA2E" points="0.42 0.48 0.39 0.195 0.39 0.177 0.42 0.462"></polygon>
                    <polygon id="Path" fill="#FFA92D" points="0.42 0.498 0.39 0.213 0.39 0.195 0.42 0.48"></polygon>
                    <polygon id="Path" fill="#FFA82D" points="0.42 0.516 0.39 0.231 0.39 0.213 0.42 0.498"></polygon>
                    <polygon id="Path" fill="#FEA72C" points="0.42 0.534 0.39 0.249 0.39 0.231 0.42 0.516"></polygon>
                    <polygon id="Path" fill="#FEA62C" points="0.42 0.552 0.39 0.267 0.39 0.249 0.42 0.534"></polygon>
                    <polygon id="Path" fill="#FEA52B" points="0.42 0.57 0.39 0.285 0.39 0.267 0.42 0.552"></polygon>
                    <polygon id="Path" fill="#FEA42B" points="0.42 0.588 0.39 0.306 0.39 0.285 0.42 0.57"></polygon>
                    <polygon id="Path" fill="#FDA32A" points="0.42 0.606 0.39 0.324 0.39 0.306 0.42 0.588"></polygon>
                    <polygon id="Path" fill="#FDA22A" points="0.42 0.624 0.39 0.342 0.39 0.324 0.42 0.606"></polygon>
                    <polygon id="Path" fill="#FDA129" points="0.42 0.642 0.39 0.36 0.39 0.342 0.42 0.624"></polygon>
                    <polygon id="Path" fill="#FDA028" points="0.42 0.66 0.39 0.378 0.39 0.36 0.42 0.642"></polygon>
                    <polygon id="Path" fill="#FC9F28" points="0.42 0.678 0.39 0.396 0.39 0.378 0.42 0.66"></polygon>
                    <polygon id="Path" fill="#FC9E27" points="0.42 0.696 0.39 0.414 0.39 0.396 0.42 0.678"></polygon>
                    <polygon id="Path" fill="#FC9D27" points="0.42 0.714 0.39 0.432 0.39 0.414 0.42 0.696"></polygon>
                    <polygon id="Path" fill="#FC9C26" points="0.42 0.735 0.39 0.45 0.39 0.432 0.42 0.714"></polygon>
                    <polygon id="Path" fill="#FB9B26" points="0.42 0.753 0.39 0.468 0.39 0.45 0.42 0.735"></polygon>
                    <polygon id="Path" fill="#FB9A25" points="0.42 0.771 0.39 0.486 0.39 0.468 0.42 0.753"></polygon>
                    <polygon id="Path" fill="#FB9925" points="0.42 0.789 0.39 0.504 0.39 0.486 0.42 0.771"></polygon>
                    <polygon id="Path" fill="#FB9824" points="0.42 0.807 0.39 0.522 0.39 0.504 0.42 0.789"></polygon>
                    <polygon id="Path" fill="#FB9723" points="0.42 0.825 0.39 0.54 0.39 0.522 0.42 0.807"></polygon>
                    <polygon id="Path" fill="#FA9623" points="0.42 0.843 0.39 0.558 0.39 0.54 0.42 0.825"></polygon>
                    <polygon id="Path" fill="#FA9522" points="0.42 0.861 0.39 0.576 0.39 0.558 0.42 0.843"></polygon>
                    <polygon id="Path" fill="#FA9422" points="0.42 0.879 0.39 0.594 0.39 0.576 0.42 0.861"></polygon>
                    <polygon id="Path" fill="#FA9321" points="0.42 0.897 0.39 0.612 0.39 0.594 0.42 0.879"></polygon>
                    <polygon id="Path" fill="#F99121" points="0.42 0.915 0.39 0.633 0.39 0.612 0.42 0.897"></polygon>
                    <polygon id="Path" fill="#F99020" points="0.42 0.933 0.39 0.651 0.39 0.633 0.42 0.915"></polygon>
                    <polygon id="Path" fill="#F98F20" points="0.42 0.951 0.39 0.669 0.39 0.651 0.42 0.933"></polygon>
                    <polygon id="Path" fill="#F98E1F" points="0.42 0.969 0.39 0.687 0.39 0.669 0.42 0.951"></polygon>
                    <polygon id="Path" fill="#F88D1F" points="0.42 0.987 0.39 0.705 0.39 0.687 0.42 0.969"></polygon>
                    <polygon id="Path" fill="#F88C1E" points="0.42 1.005 0.39 0.723 0.39 0.705 0.42 0.987"></polygon>
                    <polygon id="Path" fill="#F88B1D" points="0.42 1.023 0.39 0.741 0.39 0.723 0.42 1.005"></polygon>
                    <polygon id="Path" fill="#F88A1D" points="0.42 1.044 0.39 0.759 0.39 0.741 0.42 1.023"></polygon>
                    <polygon id="Path" fill="#F8891C" points="0.42 1.062 0.39 0.777 0.39 0.759 0.42 1.044"></polygon>
                    <polygon id="Path" fill="#F7881C" points="0.42 1.08 0.39 0.795 0.39 0.777 0.42 1.062"></polygon>
                    <polygon id="Path" fill="#F7871B" points="0.42 1.098 0.39 0.813 0.39 0.795 0.42 1.08"></polygon>
                    <polygon id="Path" fill="#F7861B" points="0.42 1.116 0.39 0.831 0.39 0.813 0.42 1.098"></polygon>
                    <polygon id="Path" fill="#F7851A" points="0.42 1.134 0.39 0.849 0.39 0.831 0.42 1.116"></polygon>
                    <polygon id="Path" fill="#F6841A" points="0.42 1.152 0.39 0.867 0.39 0.849 0.42 1.134"></polygon>
                    <polygon id="Path" fill="#F68319" points="0.42 1.17 0.39 0.885 0.39 0.867 0.42 1.152"></polygon>
                    <polygon id="Path" fill="#F68218" points="0.42 1.188 0.39 0.903 0.39 0.885 0.42 1.17"></polygon>
                    <polygon id="Path" fill="#F68118" points="0.42 1.206 0.39 0.921 0.39 0.903 0.42 1.188"></polygon>
                    <polygon id="Path" fill="#F58017" points="0.42 1.224 0.39 0.939 0.39 0.921 0.42 1.206"></polygon>
                    <polygon id="Path" fill="#F57F17" points="0.42 1.242 0.39 0.96 0.39 0.939 0.42 1.224"></polygon>
                    <polygon id="Path" fill="#F57E16" points="0.42 1.26 0.39 0.978 0.39 0.96 0.42 1.242"></polygon>
                    <polygon id="Path" fill="#F57D16" points="0.42 1.278 0.39 0.996 0.39 0.978 0.42 1.26"></polygon>
                    <polygon id="Path" fill="#F47C15" points="0.42 1.296 0.39 1.014 0.39 0.996 0.42 1.278"></polygon>
                    <polygon id="Path" fill="#F47B15" points="0.42 1.314 0.39 1.032 0.39 1.014 0.42 1.296"></polygon>
                    <polygon id="Path" fill="#F47A14" points="0.42 1.335 0.39 1.05 0.39 1.032 0.42 1.314"></polygon>
                    <polygon id="Path" fill="#F47A14" points="0.39 1.05 0.42 1.335 0.39 1.335"></polygon>
                </g>
                <path d="M8.52,4.32 C8.36798447,4.31275189 8.24548048,4.19282693 8.235,4.041 L8.20499908,2.883 C8.2046129,2.72518074 8.32656737,2.59404691 8.484,2.583 C8.56133919,2.57805049 8.63730683,2.60514696 8.69405599,2.65792367 C8.75080514,2.71070038 8.78333378,2.78450546 8.784,2.862 L8.81400092,4.017 C8.8143871,4.17481926 8.69243263,4.30595309 8.535,4.317 L8.52,4.32 Z" id="Path" fill="#000000"></path>
                <g id="Group" transform="translate(6.300000, 2.100000)">
                    <polygon id="Path" fill="#FFAA2E" points="1.167 0.228 1.452 0.198 1.452 0.228"></polygon>
                    <polygon id="Path" fill="#FFAA2E" points="1.149 0.228 1.434 0.198 1.452 0.198 1.167 0.228"></polygon>
                    <polygon id="Path" fill="#FFA92D" points="1.131 0.228 1.416 0.198 1.434 0.198 1.149 0.228"></polygon>
                    <polygon id="Path" fill="#FFA82D" points="1.113 0.228 1.398 0.198 1.416 0.198 1.131 0.228"></polygon>
                    <polygon id="Path" fill="#FEA72C" points="1.095 0.228 1.377 0.198 1.398 0.198 1.113 0.228"></polygon>
                    <polygon id="Path" fill="#FEA62C" points="1.077 0.228 1.359 0.198 1.377 0.198 1.095 0.228"></polygon>
                    <polygon id="Path" fill="#FEA52B" points="1.059 0.228 1.341 0.198 1.359 0.198 1.077 0.228"></polygon>
                    <polygon id="Path" fill="#FEA42B" points="1.041 0.228 1.323 0.198 1.341 0.198 1.059 0.228"></polygon>
                    <polygon id="Path" fill="#FDA32A" points="1.023 0.228 1.305 0.198 1.323 0.198 1.041 0.228"></polygon>
                    <polygon id="Path" fill="#FDA22A" points="1.002 0.228 1.287 0.198 1.305 0.198 1.023 0.228"></polygon>
                    <polygon id="Path" fill="#FDA129" points="0.987 0.228 1.269 0.198 1.287 0.198 1.002 0.228"></polygon>
                    <polygon id="Path" fill="#FDA028" points="0.966 0.228 1.251 0.198 1.269 0.198 0.987 0.228"></polygon>
                    <polygon id="Path" fill="#FC9F28" points="0.948 0.228 1.233 0.198 1.251 0.198 0.966 0.228"></polygon>
                    <polygon id="Path" fill="#FC9E27" points="0.93 0.228 1.215 0.198 1.233 0.198 0.948 0.228"></polygon>
                    <polygon id="Path" fill="#FC9D27" points="0.912 0.228 1.197 0.198 1.215 0.198 0.93 0.228"></polygon>
                    <polygon id="Path" fill="#FC9C26" points="0.894 0.228 1.179 0.198 1.197 0.198 0.912 0.228"></polygon>
                    <polygon id="Path" fill="#FB9B26" points="0.876 0.228 1.161 0.198 1.179 0.198 0.894 0.228"></polygon>
                    <polygon id="Path" fill="#FB9A25" points="0.858 0.228 1.143 0.198 1.161 0.198 0.876 0.228"></polygon>
                    <polygon id="Path" fill="#FB9925" points="0.84 0.228 1.125 0.198 1.143 0.198 0.858 0.228"></polygon>
                    <polygon id="Path" fill="#FB9824" points="0.822 0.228 1.107 0.198 1.125 0.198 0.84 0.228"></polygon>
                    <polygon id="Path" fill="#FB9723" points="0.804 0.228 1.089 0.198 1.107 0.198 0.822 0.228"></polygon>
                    <polygon id="Path" fill="#FA9623" points="0.786 0.228 1.071 0.198 1.089 0.198 0.804 0.228"></polygon>
                    <polygon id="Path" fill="#FA9522" points="0.768 0.228 1.05 0.198 1.071 0.198 0.786 0.228"></polygon>
                    <polygon id="Path" fill="#FA9422" points="0.75 0.228 1.032 0.198 1.05 0.198 0.768 0.228"></polygon>
                    <polygon id="Path" fill="#FA9321" points="0.732 0.228 1.014 0.198 1.032 0.198 0.75 0.228"></polygon>
                    <polygon id="Path" fill="#F99121" points="0.714 0.228 0.996 0.198 1.014 0.198 0.732 0.228"></polygon>
                    <polygon id="Path" fill="#F99020" points="0.696 0.228 0.978 0.198 0.996 0.198 0.714 0.228"></polygon>
                    <polygon id="Path" fill="#F98F20" points="0.675 0.228 0.96 0.198 0.978 0.198 0.696 0.228"></polygon>
                    <polygon id="Path" fill="#F98E1F" points="0.66 0.228 0.942 0.198 0.96 0.198 0.675 0.228"></polygon>
                    <polygon id="Path" fill="#F88D1F" points="0.639 0.228 0.924 0.198 0.942 0.198 0.66 0.228"></polygon>
                    <polygon id="Path" fill="#F88C1E" points="0.621 0.228 0.906 0.198 0.924 0.198 0.639 0.228"></polygon>
                    <polygon id="Path" fill="#F88B1D" points="0.603 0.228 0.888 0.198 0.906 0.198 0.621 0.228"></polygon>
                    <polygon id="Path" fill="#F88A1D" points="0.585 0.228 0.87 0.198 0.888 0.198 0.603 0.228"></polygon>
                    <polygon id="Path" fill="#F8891C" points="0.567 0.228 0.852 0.198 0.87 0.198 0.585 0.228"></polygon>
                    <polygon id="Path" fill="#F7881C" points="0.549 0.228 0.834 0.198 0.852 0.198 0.567 0.228"></polygon>
                    <polygon id="Path" fill="#F7871B" points="0.531 0.228 0.816 0.198 0.834 0.198 0.549 0.228"></polygon>
                    <polygon id="Path" fill="#F7861B" points="0.513 0.228 0.798 0.198 0.816 0.198 0.531 0.228"></polygon>
                    <polygon id="Path" fill="#F7851A" points="0.495 0.228 0.78 0.198 0.798 0.198 0.513 0.228"></polygon>
                    <polygon id="Path" fill="#F6841A" points="0.477 0.228 0.762 0.198 0.78 0.198 0.495 0.228"></polygon>
                    <polygon id="Path" fill="#F68319" points="0.459 0.228 0.744 0.198 0.762 0.198 0.477 0.228"></polygon>
                    <polygon id="Path" fill="#F68218" points="0.441 0.228 0.723 0.198 0.744 0.198 0.459 0.228"></polygon>
                    <polygon id="Path" fill="#F68118" points="0.423 0.228 0.705 0.198 0.723 0.198 0.441 0.228"></polygon>
                    <polygon id="Path" fill="#F58017" points="0.405 0.228 0.687 0.198 0.705 0.198 0.423 0.228"></polygon>
                    <polygon id="Path" fill="#F57F17" points="0.387 0.228 0.669 0.198 0.687 0.198 0.405 0.228"></polygon>
                    <polygon id="Path" fill="#F57E16" points="0.369 0.228 0.651 0.198 0.669 0.198 0.387 0.228"></polygon>
                    <polygon id="Path" fill="#F57D16" points="0.348 0.228 0.633 0.198 0.651 0.198 0.369 0.228"></polygon>
                    <polygon id="Path" fill="#F47C15" points="0.33 0.228 0.615 0.198 0.633 0.198 0.348 0.228"></polygon>
                    <polygon id="Path" fill="#F47B15" points="0.312 0.228 0.597 0.198 0.615 0.198 0.33 0.228"></polygon>
                    <polygon id="Path" fill="#F47A14" points="0.294 0.228 0.579 0.198 0.597 0.198 0.312 0.228"></polygon>
                    <polygon id="Path" fill="#F47A14" points="0.579 0.198 0.294 0.228 0.294 0.198"></polygon>
                </g>
                <path d="M6.6,2.613 C6.47688764,2.57253492 6.39367497,2.45759196 6.39367497,2.328 C6.39367497,2.19840804 6.47688764,2.08346508 6.6,2.043 L7.755,2.013 C7.87756821,1.96925449 8.01436248,2.00952288 8.09368131,2.11269826 C8.17300013,2.21587363 8.17675142,2.35842238 8.1029689,2.46562674 C8.02918638,2.57283109 7.89469936,2.62023847 7.77,2.583 L6.6,2.613 Z" id="Path" fill="#000000"></path>
                <path d="M62.64,64.89 L56.127,64.89 C55.8784719,64.89 55.677,64.6885281 55.677,64.44 C55.677,64.1914719 55.8784719,63.99 56.127,63.99 L62.64,63.99 C62.8885281,63.99 63.09,64.1914719 63.09,64.44 C63.09,64.6885281 62.8885281,64.89 62.64,64.89 L62.64,64.89 Z" id="Path" fill="#000000"></path>
                <path d="M8.595,64.89 L2.082,64.89 C1.83347186,64.89 1.632,64.6885281 1.632,64.44 C1.632,64.1914719 1.83347186,63.99 2.082,63.99 L8.595,63.99 C8.84352814,63.99 9.045,64.1914719 9.045,64.44 C9.045,64.6885281 8.84352814,64.89 8.595,64.89 Z" id="Path" fill="#000000"></path>
            </g>
        </g>
    </g>
</svg>