<?xml version="1.0" encoding="UTF-8"?>
<svg width="67px" height="70px" viewBox="0 0 67 70" version="1.1" xmlns="http://www.w3.org/2000/svg" xmlns:xlink="http://www.w3.org/1999/xlink">
    <!-- Generator: Sketch 60 (88103) - https://sketch.com -->
    <title>Group 3</title>
    <desc>Created with Sketch.</desc>
    <defs>
        <linearGradient x1="8.90957453%" y1="50%" x2="90.4851303%" y2="58.8948827%" id="linearGradient-1">
            <stop stop-color="#F82E94" offset="0%"></stop>
            <stop stop-color="#FF9E33" offset="100%"></stop>
        </linearGradient>
    </defs>
    <g id="Page-1" stroke="none" stroke-width="1" fill="none" fill-rule="evenodd">
        <g id="Icons" transform="translate(-74.000000, -175.000000)">
            <g id="Group-3" transform="translate(74.000000, 175.000000)">
                <circle id="Oval" fill="#FFECF0" cx="50.435" cy="16.335" r="16.335"></circle>
                <circle id="Oval" fill="#B3DDD5" cx="13.915" cy="55.715" r="13.915"></circle>
                <g id="Shape-2" transform="translate(8.800000, 8.800000)" fill="url(#linearGradient-1)" fill-rule="nonzero" stroke="#000000" stroke-width="0.55">
                    <path d="M33.8565865,0.0424553001 L33.9966769,0.0641251944 C36.3763104,0.432219115 37.8440814,1.59013638 38.5490821,3.28232014 C38.9447392,4.23199923 39.0570116,5.2225417 39.0001186,6.11647791 L38.9842442,6.3106194 L43.0774349,7.81675864 L43.1244232,7.92926188 L43.4392361,8.73195573 L43.4392361,8.73195573 L43.5765476,9.09892541 L43.793747,9.69661503 L44.0233227,10.3499987 C44.6952023,12.2937211 45.3668769,14.5048117 45.9936795,16.943277 C48.8688724,28.1287092 49.8373865,39.8908773 47.7798823,51.232153 L47.6413955,51.9711944 L47.5976155,52.1975829 L46.9774339,52.1968887 L46.9770646,53.9171395 L43.1055958,53.9171395 L43.1058239,52.1971138 L42.643866,52.1975829 L38.7719379,35.2871446 L38.7725344,47.9974616 C38.7725344,50.135447 37.0920805,51.8805206 34.9800237,51.9843194 L34.780792,51.989204 L13.9513707,51.989204 C11.8097408,51.989204 10.0620904,50.3029114 9.96397297,48.185389 L9.95962829,47.9974616 L9.96112062,35.782224 L6.23426511,52.0622573 L5.7727415,52.0619894 L5.7726683,53.9171395 L1.90066297,53.9171395 L1.90080942,52.0610125 L1.27997369,52.0622573 L1.11067045,51.1679445 C-0.963525331,39.8048781 0.00311915559,28.0169324 2.88431279,16.8080096 C3.51114562,14.369395 4.18285261,12.1581613 4.85476448,10.2143069 L5.08435122,9.56087874 C5.15888622,9.35229046 5.23135841,9.15298506 5.30156106,8.96314784 L5.50515373,8.422226 L5.63820651,8.07978498 L5.80064048,7.68102695 L9.96433345,6.14823115 C9.89630067,5.23510375 10.0036054,4.21590269 10.4102441,3.23986484 C11.0881294,1.61276507 12.4712388,0.479624708 14.6921145,0.0676328625 L14.9626494,0.021669894 L15.1027397,1.42108547e-14 L17.5762865,2.47204976 L18.7856827,2.99788041 C22.1918538,4.33752895 25.9612246,4.41012458 29.4050829,3.21197717 L29.7601547,3.08349776 L31.4207353,2.4246309 L31.43575,2.46259479 L33.8565865,0.0424553001 Z M5.21377607,52.1669573 L2.45955519,52.1669573 L2.45955519,53.3582473 L5.21377607,53.3582473 L5.21377607,52.1669573 Z M6.0928976,8.45723048 L5.9280739,8.88274104 L5.82557709,9.15748713 L5.61049381,9.74938481 L5.38299051,10.3968933 C4.71586826,12.3268912 4.04854113,14.5237066 3.42560878,16.9471469 C0.587744104,27.9875038 -0.380517194,39.5913327 1.60770207,50.7746262 L1.74157132,51.5033651 L5.78886871,51.5033651 L9.96168897,33.2767595 L9.96310962,19.2648335 L9.89740109,18.8277785 C9.92433224,15.7982558 9.14929213,13.1371877 7.84092755,10.8658693 C7.39136869,10.085436 6.9100473,9.40855144 6.42946723,8.83833879 C6.31055842,8.69725239 6.19788165,8.57017002 6.0928976,8.45723048 Z M6.01156691,51.5033651 L5.78886871,51.5033651 L5.76450227,51.6081002 L5.7726683,51.6080651 L5.77286,51.6921841 L6.01156691,51.5033651 Z M31.2173412,32.8775568 L17.3369622,32.8775568 L17.3369622,34.5360806 C17.3369622,38.388215 14.3191428,41.5356636 10.5187978,41.7431329 L10.5185205,47.9974616 C10.5185205,49.8343252 11.9608523,51.333915 13.774712,51.4258456 L13.9513707,51.4303118 L34.780792,51.4303118 C36.617507,51.4303118 38.1172362,49.988124 38.2091756,48.1741338 L38.2136422,47.9974616 L38.2136422,41.7485544 C34.3978969,41.6018539 31.3348715,38.5186235 31.220644,34.6947217 L31.2173412,34.4733059 L31.2173412,32.8775568 Z M42.1866324,8.08352177 L36.6970803,6.06617163 L33.8590276,6.06567479 L33.7359689,6.18150944 C32.4325163,7.40127324 30.9547305,8.32372175 29.3876297,8.94990478 L29.3868564,16.7110407 L28.8279642,16.7110407 L28.8284391,9.1594961 C25.8977028,10.1865752 22.6966433,10.2037368 19.7606775,9.21759231 L19.7606398,16.7110407 L19.2017476,16.7110407 L19.2012129,9.01624965 C17.5912182,8.3975758 16.0734811,7.46977721 14.7396272,6.23398528 L14.4351207,5.94333571 L14.4497466,5.92849575 L12.1828954,5.92378988 L6.46088015,8.0324999 C6.58373517,8.16294919 6.71640816,8.31155817 6.85682204,8.47816053 C7.35801098,9.0728258 7.85845859,9.77660763 8.32521747,10.5869002 C9.61939112,12.8335831 10.4099847,15.4481983 10.4519283,18.3672227 L10.4528009,18.7862901 L10.5185205,19.2208611 L10.518479,33.275091 L10.5344076,33.2799386 L10.5188073,33.3484424 L10.5194259,41.1832848 C13.9351302,40.9807008 16.6580462,38.2032855 16.7742085,34.7650041 L16.7780699,34.5360806 L16.7780699,32.3186646 L31.7762334,32.3186646 L31.7762334,34.4733059 C31.7762334,38.0901499 34.6331324,41.0398957 38.2131402,41.1891951 L38.2140407,17.9073143 L38.1862899,17.383025 C38.1583423,14.2394073 39.0102417,11.7459239 40.4495592,9.84267474 C40.9468883,9.18504281 41.4804375,8.64605082 42.0151598,8.21714117 L42.1866324,8.08352177 L42.1866324,8.08352177 Z M46.4175955,52.1967972 L43.6641381,52.1963253 L43.664488,53.3582473 L46.4181724,53.3582473 L46.4175955,52.1967972 Z M42.851119,8.75813545 L42.708933,8.39330007 L42.4890575,8.55550175 C42.4491734,8.58618843 42.4077395,8.61871737 42.3648594,8.65311216 C41.8648795,9.05415435 41.3637267,9.5604195 40.8953338,10.1797883 C39.5862205,11.9108648 38.7868721,14.1630056 38.7458081,16.9931863 L38.7447726,17.3656231 L38.7725344,17.8923966 L38.7727454,33.316306 L38.8885199,33.2905351 L43.0892624,51.6386907 L43.1054754,51.6380376 L43.1055958,51.6080651 L46.9770646,51.6080651 L46.9770853,51.6378124 L47.1360286,51.6386907 C49.253597,40.4739977 48.3908686,28.867507 45.6348007,17.803221 L45.452384,17.082416 C44.8861095,14.8794246 44.2831469,12.8637215 43.6770029,11.0655001 L43.3798768,10.2019752 L43.3798768,10.2019752 L43.2676057,9.88512456 L43.0525329,9.29326841 L42.851119,8.75813545 Z M19.7606398,23.3890963 L19.7606398,25.1392785 L19.2017476,25.1392785 L19.2017476,23.3890963 L19.7606398,23.3890963 Z M19.7606398,18.5342991 L19.7606398,21.6907435 L19.2017476,21.6907435 L19.2017476,18.5342991 L19.7606398,18.5342991 Z M29.3868564,23.3890963 L29.3868564,25.1392785 L28.8279642,25.1392785 L28.8279642,23.3890963 L29.3868564,23.3890963 Z M29.3868564,18.5342991 L29.3868564,21.6907435 L28.8279642,21.6907435 L28.8279642,18.5342991 L29.3868564,18.5342991 Z M21.4624742,7.1505038 L14.9089772,0.596645226 C12.8060694,0.956480211 11.543024,1.97415357 10.9261528,3.45480368 C10.5816769,4.28163488 10.4735018,5.15447463 10.5118718,5.94630507 L12.0238769,5.38919407 L12.1307661,5.3719538 L15.2319473,5.3719538 L15.3469924,5.39673397 C17.2958445,6.2771264 19.3560884,6.86619376 21.4624742,7.1505038 L14.9089772,0.596645226 L21.4624742,7.1505038 Z M19.2014038,8.41559697 L19.2015867,7.29868669 C17.9948512,7.01256966 16.8108313,6.62671652 15.6618698,6.14366955 L15.2978981,5.98638025 C16.4782573,7.04148032 17.8015498,7.85149153 19.2014038,8.41559697 L19.2015867,7.29868669 L19.2014038,8.41559697 Z M23.6863352,9.37469231 L22.0990442,7.78890261 C21.3132645,7.70816334 20.5327324,7.58623037 19.7606276,7.42375863 L19.7612224,8.62669911 C21.0311662,9.07328037 22.3553972,9.32280664 23.6863352,9.37469231 L22.0990442,7.78890261 L23.6863352,9.37469231 Z M30.5130227,3.38496536 L29.9615435,3.60482049 C26.4111791,4.93944073 22.5034144,4.95496641 18.9396268,3.65362818 L18.6448143,3.5411453 L22.3548418,7.25102924 L22.4146225,7.25795228 L22.4102626,7.30639759 L24.484787,9.38211307 L24.5187392,9.38137825 L24.5187392,9.38137825 L30.5130227,3.38496536 Z M28.8279893,8.56584155 L28.8281239,7.59894155 C28.3182707,7.70163707 27.8050477,7.78665719 27.2893278,7.8538535 L26.7740575,7.91448306 L25.3537257,9.336257 C26.5333023,9.23565546 27.7024986,8.97898703 28.8279893,8.56584155 L28.8281239,7.59894155 L28.8279893,8.56584155 Z M38.0331734,3.49725898 C37.4420052,2.07830263 36.2573888,1.08454541 34.3088531,0.687491202 L34.05035,0.639099567 L27.4189647,7.27239444 C28.8652564,7.0703048 30.2904238,6.7242497 31.67415,6.23768047 L32.1910651,6.04863715 L33.5672813,5.52551403 L33.6665722,5.50727941 L36.7468284,5.50727941 L36.8432682,5.52444799 L38.4402573,6.11212842 C38.496478,5.2882153 38.395638,4.36726755 38.0331734,3.49725898 Z M32.4481023,6.54948437 L32.3896012,6.57107752 C31.4083953,6.94385386 30.4052761,7.24686605 29.3872978,7.47891455 L29.387168,8.34613086 C30.4639826,7.89470124 31.4944359,7.29594391 32.4481023,6.54948437 Z" id="Shape"></path>
                </g>
            </g>
        </g>
    </g>
</svg>