<?xml version="1.0" encoding="UTF-8"?>
<svg width="64px" height="61px" viewBox="0 0 64 61" version="1.1" xmlns="http://www.w3.org/2000/svg" xmlns:xlink="http://www.w3.org/1999/xlink">
    <!-- Generator: Sketch 60.1 (88133) - https://sketch.com -->
    <title>Asset 3</title>
    <desc>Created with Sketch.</desc>
    <defs>
        <linearGradient x1="0%" y1="50.1944766%" x2="99.999973%" y2="50.1944766%" id="linearGradient-1">
            <stop stop-color="#F6992A" offset="0%"></stop>
            <stop stop-color="#F2278D" offset="100%"></stop>
        </linearGradient>
        <linearGradient x1="0.00342636702%" y1="50.003124%" x2="100.003967%" y2="50.003124%" id="linearGradient-2">
            <stop stop-color="#F6992A" offset="0%"></stop>
            <stop stop-color="#F2278D" offset="100%"></stop>
        </linearGradient>
        <linearGradient x1="2.79796313e-14%" y1="49.9719259%" x2="100%" y2="49.9719259%" id="linearGradient-3">
            <stop stop-color="#F6992A" offset="0%"></stop>
            <stop stop-color="#F2278D" offset="100%"></stop>
        </linearGradient>
        <linearGradient x1="0.0424354685%" y1="49.8500512%" x2="100.116365%" y2="49.8500512%" id="linearGradient-4">
            <stop stop-color="#F6992A" offset="0%"></stop>
            <stop stop-color="#F2278D" offset="100%"></stop>
        </linearGradient>
    </defs>
    <g id="Careers" stroke="none" stroke-width="1" fill="none" fill-rule="evenodd">
        <g id="01_About" transform="translate(-398.000000, -1689.000000)" fill-rule="nonzero">
            <g id="Asset-3" transform="translate(398.000000, 1689.000000)">
                <path d="M53.979,56.163 L54.831,59.19 C54.8381164,59.2150393 54.8620835,59.2314378 54.888,59.229 L61.683,57.729 C61.7087732,57.7171878 61.7252153,57.6913503 61.7250021,57.663 L60.957,54.663 L53.979,56.163 Z" id="Path" fill="url(#linearGradient-1)"></path>
                <path d="M59.226,54.147 L61.749,54.147 L61.731,54.081 C61.7164178,53.9692752 61.6581681,53.8678775 61.569,53.799 C61.4678484,53.7108617 61.3316855,53.6743302 61.2,53.7 L59.133,54.138 L59.232,54.138 L59.226,54.147 Z" id="Path" fill="#000000"></path>
                <path d="M53.322,55.383 C53.1972811,55.4066011 53.08833,55.4817773 53.022,55.59 C52.9559138,55.6967428 52.938455,55.8265925 52.974,55.947 L53.406,57.483 L53.406,55.365 L53.322,55.383 Z" id="Path" fill="#000000"></path>
                <path d="M56.7,59.724 L54.102,59.724 C54.2806292,59.9778558 54.5715952,60.1289343 54.882,60.129 C54.9485736,60.1293447 55.0149798,60.1223016 55.08,60.108 L56.841,59.724 L56.7,59.724 L56.7,59.724 Z" id="Path" fill="#000000"></path>
                <path d="M62.601,57.471 L62.601,57.471 L62.229,56.016 L62.229,58.476 C62.329993,58.4035099 62.4156389,58.3117465 62.481,58.206 C62.6189259,57.9873757 62.6622298,57.7221395 62.601,57.471 Z" id="Path" fill="#000000"></path>
                <path d="M61.749,54.147 L59.127,54.147 L53.427,55.365 L53.427,57.483 L53.979,59.436 C54.0080515,59.5424384 54.0536042,59.6436665 54.114,59.736 L56.853,59.736 L61.893,58.635 C62.016869,58.6053978 62.1339591,58.5524527 62.238,58.479 L62.238,56.019 L61.749,54.147 Z M61.683,57.747 L54.888,59.247 C54.8620835,59.2494378 54.8381164,59.2330393 54.831,59.208 L53.979,56.181 L60.957,54.681 L61.725,57.681 C61.7240636,57.7082603 61.7078032,57.7326509 61.683,57.744 L61.683,57.747 Z" id="Shape" fill="#000000"></path>
                <path d="M62.1,53.172 C62.1473164,53.3714811 62.1122543,53.5816133 62.0027347,53.7549252 C61.8932151,53.9282371 61.7184786,54.0501059 61.518,54.093 L61.281,54.147 L53.409,55.824 L52.743,55.962 C52.3416538,56.0488915 51.943638,55.8021217 51.843,55.404 L49.638,46.758 L49.638,46.758 L48.495,12.3 L51.027,6.732 L62.1,53.172 Z" id="Path" fill="#FFFFFF"></path>
                <path d="M52.581,56.43 C52.0340446,56.4260645 51.5567907,56.0580024 51.414,55.53 L49.227,46.953 C49.2018635,46.8982673 49.1875993,46.8391727 49.185,46.779 L48.045,12.324 C48.0424013,12.2545776 48.0568201,12.1855731 48.087,12.123 L50.619,6.555 C50.6994964,6.38085143 50.8809661,6.27629604 51.072,6.294 C51.2627596,6.3119883 51.4208382,6.44955288 51.465,6.636 L62.544,53.073 C62.6237749,53.3887385 62.5717979,53.7233408 62.4,54 C62.227783,54.2804324 61.9479535,54.4778314 61.626,54.546 L61.395,54.597 L52.842,56.4 C52.7562546,56.4188976 52.6687969,56.4289502 52.581,56.43 L52.581,56.43 Z M50.082,46.653 L52.284,55.293 C52.3010848,55.3724661 52.3496834,55.4415986 52.4186738,55.4845763 C52.4876642,55.5275539 52.5711409,55.5406979 52.65,55.521 L53.325,55.383 L61.425,53.655 C61.5109254,53.6358192 61.5861441,53.5842406 61.635,53.511 C61.6772142,53.4418774 61.6911811,53.3591504 61.674,53.28 L61.674,53.28 L50.895,8.115 L48.948,12.393 L50.082,46.653 Z" id="Shape" fill="#231F20"></path>
                <path d="M51.027,6.735 L48.495,12.3 L39.42,6.279 C40.6269809,4.90193584 41.4723738,3.24620296 41.88,1.461 L47.784,3.282 C49.4035454,3.77212206 50.6393257,5.08792511 51.027,6.735 Z" id="Path" fill="#FFFFFF"></path>
                <path d="M48.495,12.753 C48.4065563,12.7521899 48.320178,12.7261723 48.246,12.678 L39.174,6.654 C39.0641605,6.5839468 38.9915008,6.46835181 38.976,6.339 C38.9578487,6.20991582 38.9973396,6.07937642 39.084,5.982 C40.2336088,4.66372271 41.0422434,3.08353738 41.439,1.38 C41.4614598,1.2530307 41.5376536,1.14194468 41.6480158,1.07526754 C41.758378,1.0085904 41.892157,0.992817813 42.015,1.032 L47.916,2.853 C49.6860471,3.39379841 51.0367432,4.83240963 51.465,6.633 C51.492283,6.73300076 51.4827001,6.83947773 51.438,6.933 L48.9,12.489 C48.8426513,12.6123845 48.732228,12.7029316 48.6,12.735 C48.5659059,12.7454325 48.5306221,12.7514811 48.495,12.753 Z M40.095,6.183 L48.3,11.637 L50.547,6.693 C50.1540063,5.26974966 49.0608789,4.14606903 47.649,3.714 L42.207,2.031 C41.7857722,3.54271578 41.0655635,4.95456962 40.089,6.183 L40.095,6.183 Z" id="Shape" fill="#231F20"></path>
                <path d="M49.221,47.85 L49.185,46.773 L48.054,12.549 L39.492,6.867 C37.443,9 34.692,10.083 31.314,10.083 C27.936,10.083 25.167,9 23.133,6.858 L14.571,12.558 L13.395,47.85 C13.342579,49.41679 13.7787188,50.9611022 14.643,52.269 L16.35,54.873 L46.275,54.873 L47.982,52.269 C48.8425626,50.9598081 49.2754851,49.4157531 49.221,47.85 L49.221,47.85 Z" id="Path" fill="url(#linearGradient-2)"></path>
                <path d="M49.734,36.972 L49.734,50.652 C50.0252939,49.7363368 50.1562189,48.7772348 50.121,47.817 L49.734,36.15 L49.734,36.972 L49.734,36.972 Z" id="Path" fill="#000000"></path>
                <path d="M23.541,5.973 C23.3908136,5.79599915 23.1301347,5.76341429 22.941,5.898 L22.392,6.27 L23.82,6.27 C23.727,6.174 23.631,6.075 23.541,5.973 Z" id="Path" fill="#000000"></path>
                <path d="M39.669,5.904 C39.4827313,5.7810617 39.2343243,5.81435336 39.087,5.982 C38.997,6.081 38.904,6.177 38.811,6.282 L40.221,6.282 L39.669,5.904 Z" id="Path" fill="#000000"></path>
                <path d="M31.314,55.323 L15.57,55.323 L15.732,55.569 C15.8131591,55.6974362 15.9550791,55.7746407 16.107,55.773 L46.518,55.773 C46.6705565,55.7739605 46.813068,55.6970495 46.896,55.569 L47.058,55.323 L31.314,55.323 Z" id="Path" fill="#000000"></path>
                <path d="M12.9,49.893 L12.9,35.982 L12.54,46.743 L12.504,47.82 C12.4747647,48.7805924 12.6086634,49.7391859 12.9,50.655 L12.9,49.893 L12.9,49.893 Z" id="Path" fill="#000000"></path>
                <path d="M49.734,50.652 L49.734,36.15 L48.945,12.3 C48.9422019,12.1539961 48.8668234,12.0189898 48.744,11.94 L40.221,6.27 L38.811,6.27 C36.942,8.202 34.422,9.183 31.311,9.183 C28.2,9.183 25.671,8.202 23.811,6.27 L22.392,6.27 L13.881,11.928 C13.7570847,12.0115666 13.6819872,12.1505529 13.68,12.3 L12.891,36 L12.891,50.673 C13.1259942,51.4155506 13.4621536,52.122192 13.89,52.773 L15.57,55.332 L47.07,55.332 L48.747,52.773 C49.1728063,52.1152137 49.5049928,51.4013661 49.734,50.652 L49.734,50.652 Z M46.275,54.873 L16.35,54.873 L14.643,52.269 C13.7787188,50.9611022 13.342579,49.41679 13.395,47.85 L14.571,12.549 L23.133,6.849 C25.167,9 27.915,10.083 31.314,10.083 C34.713,10.083 37.443,9 39.492,6.867 L48.054,12.549 L49.2,46.773 L49.236,47.85 L49.236,47.85 C49.2904851,49.4157531 48.8575626,50.9598081 47.997,52.269 L46.275,54.873 Z" id="Shape" fill="#000000"></path>
                <path d="M46.518,55.323 L46.518,57.228 C46.518,57.732962 46.3172002,58.2171983 45.9598569,58.5739789 C45.6025136,58.9307594 45.1179613,59.1307965 44.613,59.1300214 L18,59.1300214 C17.4945504,59.1324019 17.0090653,58.932881 16.6513729,58.5757519 C16.2936805,58.2186228 16.0933948,57.7334527 16.0949904,57.228 L16.0949904,55.323 L46.518,55.323 Z" id="Path" fill="#FFFFFF"></path>
                <path d="M44.613,59.58 L18,59.58 C16.7005401,59.58 15.6466554,58.5274589 15.645,57.228 L15.645,55.323 C15.645,55.0744719 15.8464719,54.873 16.095,54.873 L46.518,54.873 C46.7665281,54.873 46.968,55.0744719 46.968,55.323 L46.968,57.228 C46.9663446,58.5274589 45.9124599,59.58 44.613,59.58 L44.613,59.58 Z M16.557,55.773 L16.557,57.228 C16.5586177,58.0257414 17.2022841,58.6734223 18,58.68 L44.601,58.68 C45.4034042,58.68 46.0543456,58.0304025 46.056,57.228 L46.056,55.773 L16.557,55.773 Z" id="Shape" fill="#231F20"></path>
                <path d="M39.42,6.279 C37.845,8.049 35.322,9.633 31.32,9.633 C27.318,9.633 24.777,8.049 23.22,6.27 C22.016794,4.89729188 21.1717109,3.24834935 20.76,1.47 L23.058,0.75 C23.058,0.75 23.742,7.41 31.314,7.41 C38.886,7.41 39.567,0.75 39.567,0.75 L41.88,1.461 C41.4723738,3.24620296 40.6269809,4.90193584 39.42,6.279 L39.42,6.279 Z" id="Path" fill="#FFFFFF"></path>
                <path d="M31.314,10.083 C27.765,10.083 24.924,8.901 22.866,6.57 C21.6051714,5.13406506 20.723427,3.40563984 20.301,1.542 C20.2605424,1.32036976 20.3880034,1.10241138 20.601,1.029 L22.926,0.321 C23.0546557,0.280566528 23.1946894,0.300434093 23.3070784,0.374917005 C23.4194673,0.44945477 23.492197,0.57074933 23.505,0.705 C23.532,0.96 24.252,6.96 31.305,6.96 C38.358,6.96 39.084,0.96 39.105,0.702 C39.1199209,0.569261214 39.192292,0.449739218 39.303,0.375 C39.4155113,0.300868767 39.5553202,0.281053343 39.684,0.321 L42,1.029 C42.2138653,1.10134886 42.3418096,1.32013368 42.3,1.542 C41.8786159,3.40869858 40.9968365,5.14028646 39.735,6.579 L39.735,6.579 C37.683,8.904 34.842,10.083 31.314,10.083 Z M21.282,1.767 C21.7144166,3.31712026 22.486029,4.75172509 23.541,5.967 C25.419,8.097 28.041,9.177 31.314,9.177 C34.587,9.177 37.2,8.1 39.084,5.982 C40.1378261,4.76547487 40.9101927,3.33137243 41.346,1.782 L39.918,1.344 C39.552,2.988 37.905,7.875 31.314,7.875 C24.723,7.875 23.073,2.973 22.707,1.329 L21.282,1.767 Z" id="Shape" fill="#231F20"></path>
                <path d="M31.314,3.633 C28.074,3.633 25.113,2.346 23.694,1.617 C24.18,3.36 25.842,6.96 31.314,6.96 C36.786,6.96 38.445,3.36 38.931,1.617 C37.5,2.346 34.548,3.633 31.314,3.633 Z" id="Path" fill="url(#linearGradient-3)"></path>
                <path d="M38.931,0.75 L39.567,0.75 L39.567,2.502 C39.7802614,1.95179568 39.930226,1.37911225 40.014,0.795 C40.0320818,0.625109564 39.9517417,0.459771995 39.807,0.369 C39.6614999,0.276339564 39.4755001,0.276339564 39.33,0.369 C39.33,0.369 39.072,0.525 38.64,0.75 L38.94,0.75 L38.931,0.75 Z" id="Path" fill="#000000"></path>
                <path d="M23.217,0.75 L24,0.75 C23.553,0.525 23.307,0.375 23.295,0.369 C23.1498042,0.279043135 22.9661958,0.279043135 22.821,0.369 C22.6745511,0.458479792 22.5927851,0.624347902 22.611,0.795 C22.6965358,1.37875504 22.8464494,1.95124356 23.058,2.502 L23.058,0.75 L23.217,0.75 Z" id="Path" fill="#000000"></path>
                <path d="M34.17,7.41 L28.143,7.41 C29.1710738,7.71989299 30.2402989,7.87162787 31.314,7.86 C32.3867182,7.87164949 33.454958,7.7199109 34.482,7.41 L34.182,7.41 L34.17,7.41 Z" id="Path" fill="#000000"></path>
                <path d="M39.567,2.502 L39.567,0.75 L38.64,0.75 C37.35,1.419 34.422,2.733 31.314,2.733 C28.206,2.733 25.272,1.419 24,0.75 L23.058,0.75 L23.058,2.502 C23.8814368,4.85551424 25.7746345,6.67743856 28.158,7.41 L34.497,7.41 C36.8689248,6.66928555 38.7496764,4.84862898 39.567,2.502 Z M31.314,6.96 C25.842,6.96 24.18,3.36 23.7,1.617 C25.119,2.346 28.08,3.633 31.32,3.633 C34.56,3.633 37.5,2.346 38.931,1.617 C38.445,3.357 36.783,6.96 31.314,6.96 Z" id="Shape" fill="#000000"></path>
                <path d="M23.205,6.27 L14.13,12.3 L11.598,6.735 C11.9851643,5.09074875 13.2166043,3.77591814 14.832,3.282 L20.745,1.461 C21.1553232,3.24253893 22.0004832,4.89472354 23.205,6.27 L23.205,6.27 Z" id="Path" fill="#FFFFFF"></path>
                <path d="M14.13,12.7530022 C14.0883341,12.7531343 14.0468802,12.7470679 14.007,12.735 C13.8755569,12.7013692 13.7657272,12.6113088 13.707,12.489 L11.187,6.921 C11.1422999,6.82747773 11.132717,6.72100076 11.16,6.621 C11.5914688,4.82781031 12.9371941,3.39541116 14.7,2.853 L20.613,1.032 C20.7356778,0.992410504 20.8695661,1.00887218 20.979,1.077 C21.0877571,1.14276417 21.1631176,1.25198226 21.186,1.377 C21.5866494,3.07642248 22.3949117,4.65279145 23.541,5.97 C23.6269825,6.06785754 23.6673351,6.19764036 23.652,6.327 C23.6301963,6.45002644 23.5585478,6.55858468 23.454,6.627 L14.379,12.678 C14.304822,12.7261723 14.2184437,12.7521899 14.13,12.7530022 Z M12.072,6.693 L14.322,11.634 L22.536,6.174 C21.560568,4.94819809 20.8404166,3.53951652 20.418,2.031 L14.964,3.714 C13.5547314,4.14830696 12.4643587,5.2714814 12.072,6.693 Z" id="Shape" fill="#231F20"></path>
                <path d="M11.598,6.735 L14.13,12.3 L12.981,46.758 L10.767,55.404 C10.7220782,55.5975932 10.6018641,55.7653055 10.4329572,55.8700278 C10.2640503,55.9747501 10.0603758,56.0078487 9.867,55.962 L9.192,55.815 L1.338,54.147 L1.101,54.093 C0.900521441,54.0501059 0.72578487,53.9282371 0.616265291,53.7549252 C0.506745712,53.5816133 0.471683639,53.3714811 0.519,53.172 L11.598,6.735 Z" id="Path" fill="#FFFFFF"></path>
                <path d="M10.047,56.430012 C9.95614613,56.430012 9.86554791,56.4203436 9.777,56.4 L9.105,56.256 L1.005,54.531 C0.685477182,54.4647351 0.406720103,54.2712017 0.232956657,53.9949914 C0.0591932107,53.7187811 0.00541032019,53.3837168 0.084,53.067 L11.16,6.63 C11.2081706,6.4480601 11.3644791,6.31531663 11.5518189,6.29725172 C11.7391587,6.27918681 11.9179518,6.37961691 12,6.549 L14.535,12.117 C14.5628697,12.1802398 14.576197,12.2489264 14.574,12.318 L13.431,46.773 C13.4339332,46.8059348 13.4339332,46.8390652 13.431,46.872 L11.217,55.518 C11.0841155,56.0555241 10.6007012,56.4323394 10.047,56.430012 Z M11.73,8.13 L0.957,53.277 C0.937298464,53.3570455 0.951402721,53.441671 0.996,53.511 C1.03981926,53.5845203 1.11295424,53.6358239 1.197,53.652 L1.44,53.709 L9.969,55.509 C10.0470098,55.5278566 10.1293226,55.51467 10.1975379,55.4723878 C10.2657532,55.4301056 10.3141825,55.3622537 10.332,55.284 L12.534,46.683 L13.677,12.393 L11.73,8.13 Z" id="Shape" fill="#231F20"></path>
                <path d="M0.9,57.684 C0.895623895,57.695601 0.895623895,57.708399 0.9,57.72 C0.907114462,57.7336225 0.92068905,57.7426722 0.936,57.744 L7.722,59.244 C7.73554946,59.2475868 7.7499779,59.2454392 7.76189537,59.2380618 C7.77381285,59.2306843 7.7821688,59.2187273 7.785,59.205 L8.631,56.172 L1.671,54.678 L0.9,57.684 Z" id="Path" fill="url(#linearGradient-4)"></path>
                <path d="M9.3,55.374 L9.207,55.356 L9.207,57.495 L9.639,55.944 C9.65103715,55.9051412 9.65710628,55.8646803 9.657,55.824 L9.657,55.824 C9.66046864,55.6080826 9.51104647,55.4197354 9.3,55.374 L9.3,55.374 Z" id="Path" fill="#000000"></path>
                <path d="M8.361,59.724 L5.778,59.724 L7.542,60.108 C7.60804201,60.1222571 7.67543727,60.1292984 7.743,60.129 C8.05352878,60.1294429 8.34471547,59.9782498 8.523,59.724 L8.361,59.724 L8.361,59.724 Z" id="Path" fill="#000000"></path>
                <path d="M1.038,54.147 L3.507,54.147 L1.431,53.7 C1.18585137,53.6522767 0.948325298,53.8119693 0.9,54.057 L0.876,54.147 L1.038,54.147 L1.038,54.147 Z" id="Path" fill="#000000"></path>
                <path d="M0.027,57.471 C-0.0335829468,57.7202159 0.00973168366,57.9833522 0.147,58.2 C0.213276262,58.3042001 0.298801631,58.3948163 0.399,58.467 L0.399,56.007 L0.027,57.471 Z" id="Path" fill="#000000"></path>
                <path d="M9.201,55.815 L9.201,55.356 L3.501,54.156 L0.876,54.156 L0.399,56.016 L0.399,58.476 C0.504498391,58.5507599 0.623813323,58.6037888 0.75,58.632 L5.778,59.733 L8.523,59.733 C8.58466865,59.6409793 8.63125463,59.5397054 8.661,59.433 L9.201,57.495 L9.201,55.815 L9.201,55.815 Z M7.8,59.19 C7.7971688,59.2037273 7.78881285,59.2156843 7.77689537,59.2230618 C7.7649779,59.2304392 7.75054946,59.2325868 7.737,59.229 L0.951,57.729 C0.933804114,57.7370629 0.913397417,57.7334617 0.9,57.72 C0.895623895,57.708399 0.895623895,57.695601 0.9,57.684 L1.671,54.684 L8.64,56.163 L7.8,59.19 Z" id="Shape" fill="#000000"></path>
                <g id="Group" transform="translate(6.300000, 0.900000)">
                    <polygon id="Path" fill="#FFAA2E" points="0.264 0.945 0.294 1.23 0.264 1.23"></polygon>
                    <polygon id="Path" fill="#FFAA2E" points="0.264 0.927 0.294 1.212 0.294 1.23 0.264 0.945"></polygon>
                    <polygon id="Path" fill="#FFA92D" points="0.264 0.909 0.294 1.191 0.294 1.212 0.264 0.927"></polygon>
                    <polygon id="Path" fill="#FFA82D" points="0.264 0.891 0.294 1.173 0.294 1.191 0.264 0.909"></polygon>
                    <polygon id="Path" fill="#FEA72C" points="0.264 0.873 0.294 1.155 0.294 1.173 0.264 0.891"></polygon>
                    <polygon id="Path" fill="#FEA62C" points="0.264 0.855 0.294 1.137 0.294 1.155 0.264 0.873"></polygon>
                    <polygon id="Path" fill="#FEA52B" points="0.264 0.837 0.294 1.119 0.294 1.137 0.264 0.855"></polygon>
                    <polygon id="Path" fill="#FEA42B" points="0.264 0.816 0.294 1.101 0.294 1.119 0.264 0.837"></polygon>
                    <polygon id="Path" fill="#FDA32A" points="0.264 0.801 0.294 1.083 0.294 1.101 0.264 0.816"></polygon>
                    <polygon id="Path" fill="#FDA22A" points="0.264 0.78 0.294 1.065 0.294 1.083 0.264 0.801"></polygon>
                    <polygon id="Path" fill="#FDA129" points="0.264 0.762 0.294 1.047 0.294 1.065 0.264 0.78"></polygon>
                    <polygon id="Path" fill="#FDA028" points="0.264 0.744 0.294 1.029 0.294 1.047 0.264 0.762"></polygon>
                    <polygon id="Path" fill="#FC9F28" points="0.264 0.726 0.294 1.011 0.294 1.029 0.264 0.744"></polygon>
                    <polygon id="Path" fill="#FC9E27" points="0.264 0.708 0.294 0.993 0.294 1.011 0.264 0.726"></polygon>
                    <polygon id="Path" fill="#FC9D27" points="0.264 0.69 0.294 0.975 0.294 0.993 0.264 0.708"></polygon>
                    <polygon id="Path" fill="#FC9C26" points="0.264 0.672 0.294 0.957 0.294 0.975 0.264 0.69"></polygon>
                    <polygon id="Path" fill="#FB9B26" points="0.264 0.654 0.294 0.939 0.294 0.957 0.264 0.672"></polygon>
                    <polygon id="Path" fill="#FB9A25" points="0.264 0.636 0.294 0.921 0.294 0.939 0.264 0.654"></polygon>
                    <polygon id="Path" fill="#FB9925" points="0.264 0.618 0.294 0.9 0.294 0.921 0.264 0.636"></polygon>
                    <polygon id="Path" fill="#FB9824" points="0.264 0.6 0.294 0.885 0.294 0.9 0.264 0.618"></polygon>
                    <polygon id="Path" fill="#FB9723" points="0.264 0.582 0.294 0.864 0.294 0.885 0.264 0.6"></polygon>
                    <polygon id="Path" fill="#FA9623" points="0.264 0.564 0.294 0.846 0.294 0.864 0.264 0.582"></polygon>
                    <polygon id="Path" fill="#FA9522" points="0.264 0.546 0.294 0.828 0.294 0.846 0.264 0.564"></polygon>
                    <polygon id="Path" fill="#FA9422" points="0.264 0.528 0.294 0.81 0.294 0.828 0.264 0.546"></polygon>
                    <polygon id="Path" fill="#FA9321" points="0.264 0.51 0.294 0.792 0.294 0.81 0.264 0.528"></polygon>
                    <polygon id="Path" fill="#F99121" points="0.264 0.489 0.294 0.774 0.294 0.792 0.264 0.51"></polygon>
                    <polygon id="Path" fill="#F99020" points="0.264 0.471 0.294 0.756 0.294 0.774 0.264 0.489"></polygon>
                    <polygon id="Path" fill="#F98F20" points="0.264 0.453 0.294 0.738 0.294 0.756 0.264 0.471"></polygon>
                    <polygon id="Path" fill="#F98E1F" points="0.264 0.435 0.294 0.72 0.294 0.738 0.264 0.453"></polygon>
                    <polygon id="Path" fill="#F88D1F" points="0.264 0.417 0.294 0.702 0.294 0.72 0.264 0.435"></polygon>
                    <polygon id="Path" fill="#F88C1E" points="0.264 0.399 0.294 0.684 0.294 0.702 0.264 0.417"></polygon>
                    <polygon id="Path" fill="#F88B1D" points="0.264 0.381 0.294 0.666 0.294 0.684 0.264 0.399"></polygon>
                    <polygon id="Path" fill="#F88A1D" points="0.264 0.363 0.294 0.648 0.294 0.666 0.264 0.381"></polygon>
                    <polygon id="Path" fill="#F8891C" points="0.264 0.345 0.294 0.63 0.294 0.648 0.264 0.363"></polygon>
                    <polygon id="Path" fill="#F7881C" points="0.264 0.327 0.294 0.612 0.294 0.63 0.264 0.345"></polygon>
                    <polygon id="Path" fill="#F7871B" points="0.264 0.309 0.294 0.594 0.294 0.612 0.264 0.327"></polygon>
                    <polygon id="Path" fill="#F7861B" points="0.264 0.291 0.294 0.576 0.294 0.594 0.264 0.309"></polygon>
                    <polygon id="Path" fill="#F7851A" points="0.264 0.273 0.294 0.555 0.294 0.576 0.264 0.291"></polygon>
                    <polygon id="Path" fill="#F6841A" points="0.264 0.255 0.294 0.537 0.294 0.555 0.264 0.273"></polygon>
                    <polygon id="Path" fill="#F68319" points="0.264 0.237 0.294 0.519 0.294 0.537 0.264 0.255"></polygon>
                    <polygon id="Path" fill="#F68218" points="0.264 0.219 0.294 0.501 0.294 0.519 0.264 0.237"></polygon>
                    <polygon id="Path" fill="#F68118" points="0.264 0.201 0.294 0.483 0.294 0.501 0.264 0.219"></polygon>
                    <polygon id="Path" fill="#F58017" points="0.264 0.18 0.294 0.465 0.294 0.483 0.264 0.201"></polygon>
                    <polygon id="Path" fill="#F57F17" points="0.264 0.162 0.294 0.447 0.294 0.465 0.264 0.18"></polygon>
                    <polygon id="Path" fill="#F57E16" points="0.264 0.144 0.294 0.429 0.294 0.447 0.264 0.162"></polygon>
                    <polygon id="Path" fill="#F57D16" points="0.264 0.126 0.294 0.411 0.294 0.429 0.264 0.144"></polygon>
                    <polygon id="Path" fill="#F47C15" points="0.264 0.108 0.294 0.393 0.294 0.411 0.264 0.126"></polygon>
                    <polygon id="Path" fill="#F47B15" points="0.264 0.09 0.294 0.375 0.294 0.393 0.264 0.108"></polygon>
                    <polygon id="Path" fill="#F47A14" points="0.264 0.072 0.294 0.357 0.294 0.375 0.264 0.09"></polygon>
                    <polygon id="Path" fill="#F47A14" points="0.294 0.357 0.264 0.072 0.294 0.072"></polygon>
                </g>
                <path d="M6.6,2.41500092 C6.44218074,2.4153871 6.31104691,2.29343263 6.3,2.136 L6.26999908,0.981 C6.2696129,0.823180742 6.39156737,0.692046907 6.549,0.681 C6.62656147,0.675145117 6.70304599,0.701934054 6.76000365,0.754904677 C6.81696131,0.807875301 6.84922067,0.882218168 6.849,0.96 L6.87900092,2.115 C6.8793871,2.27281926 6.75743263,2.40395309 6.6,2.41500092 Z" id="Path" fill="#000000"></path>
                <g id="Group" transform="translate(7.200000, 2.400000)">
                    <polygon id="Path" fill="#FFAA2E" points="0.417 0.279 0.135 0.306 0.135 0.279"></polygon>
                    <polygon id="Path" fill="#FFAA2E" points="0.435 0.279 0.153 0.306 0.135 0.306 0.417 0.279"></polygon>
                    <polygon id="Path" fill="#FFA92D" points="0.453 0.279 0.171 0.306 0.153 0.306 0.435 0.279"></polygon>
                    <polygon id="Path" fill="#FFA82D" points="0.471 0.279 0.189 0.306 0.171 0.306 0.453 0.279"></polygon>
                    <polygon id="Path" fill="#FEA72C" points="0.489 0.279 0.207 0.306 0.189 0.306 0.471 0.279"></polygon>
                    <polygon id="Path" fill="#FEA62C" points="0.51 0.279 0.225 0.306 0.207 0.306 0.489 0.279"></polygon>
                    <polygon id="Path" fill="#FEA52B" points="0.525 0.279 0.243 0.306 0.225 0.306 0.51 0.279"></polygon>
                    <polygon id="Path" fill="#FEA42B" points="0.546 0.279 0.261 0.306 0.243 0.306 0.525 0.279"></polygon>
                    <polygon id="Path" fill="#FDA32A" points="0.564 0.279 0.279 0.306 0.261 0.306 0.546 0.279"></polygon>
                    <polygon id="Path" fill="#FDA22A" points="0.582 0.279 0.297 0.306 0.279 0.306 0.564 0.279"></polygon>
                    <polygon id="Path" fill="#FDA129" points="0.6 0.279 0.315 0.306 0.297 0.306 0.582 0.279"></polygon>
                    <polygon id="Path" fill="#FDA028" points="0.618 0.279 0.333 0.306 0.315 0.306 0.6 0.279"></polygon>
                    <polygon id="Path" fill="#FC9F28" points="0.636 0.279 0.351 0.306 0.333 0.306 0.618 0.279"></polygon>
                    <polygon id="Path" fill="#FC9E27" points="0.654 0.279 0.369 0.306 0.351 0.306 0.636 0.279"></polygon>
                    <polygon id="Path" fill="#FC9D27" points="0.672 0.279 0.387 0.306 0.369 0.306 0.654 0.279"></polygon>
                    <polygon id="Path" fill="#FC9C26" points="0.69 0.279 0.405 0.306 0.387 0.306 0.672 0.279"></polygon>
                    <polygon id="Path" fill="#FB9B26" points="0.708 0.279 0.423 0.306 0.405 0.306 0.69 0.279"></polygon>
                    <polygon id="Path" fill="#FB9A25" points="0.726 0.279 0.444 0.306 0.423 0.306 0.708 0.279"></polygon>
                    <polygon id="Path" fill="#FB9925" points="0.744 0.279 0.462 0.306 0.444 0.306 0.726 0.279"></polygon>
                    <polygon id="Path" fill="#FB9824" points="0.762 0.279 0.48 0.306 0.462 0.306 0.744 0.279"></polygon>
                    <polygon id="Path" fill="#FB9723" points="0.78 0.279 0.498 0.306 0.48 0.306 0.762 0.279"></polygon>
                    <polygon id="Path" fill="#FA9623" points="0.798 0.279 0.516 0.306 0.498 0.306 0.78 0.279"></polygon>
                    <polygon id="Path" fill="#FA9522" points="0.816 0.279 0.534 0.306 0.516 0.306 0.798 0.279"></polygon>
                    <polygon id="Path" fill="#FA9422" points="0.837 0.279 0.552 0.306 0.534 0.306 0.816 0.279"></polygon>
                    <polygon id="Path" fill="#FA9321" points="0.852 0.279 0.57 0.306 0.552 0.306 0.837 0.279"></polygon>
                    <polygon id="Path" fill="#F99121" points="0.873 0.279 0.588 0.306 0.57 0.306 0.852 0.279"></polygon>
                    <polygon id="Path" fill="#F99020" points="0.891 0.279 0.606 0.306 0.588 0.306 0.873 0.279"></polygon>
                    <polygon id="Path" fill="#F98F20" points="0.909 0.279 0.624 0.306 0.606 0.306 0.891 0.279"></polygon>
                    <polygon id="Path" fill="#F98E1F" points="0.927 0.279 0.642 0.306 0.624 0.306 0.909 0.279"></polygon>
                    <polygon id="Path" fill="#F88D1F" points="0.945 0.279 0.66 0.306 0.642 0.306 0.927 0.279"></polygon>
                    <polygon id="Path" fill="#F88C1E" points="0.963 0.279 0.678 0.306 0.66 0.306 0.945 0.279"></polygon>
                    <polygon id="Path" fill="#F88B1D" points="0.981 0.279 0.696 0.306 0.678 0.306 0.963 0.279"></polygon>
                    <polygon id="Path" fill="#F88A1D" points="0.999 0.279 0.714 0.306 0.696 0.306 0.981 0.279"></polygon>
                    <polygon id="Path" fill="#F8891C" points="1.017 0.279 0.732 0.306 0.714 0.306 0.999 0.279"></polygon>
                    <polygon id="Path" fill="#F7881C" points="1.035 0.279 0.75 0.306 0.732 0.306 1.017 0.279"></polygon>
                    <polygon id="Path" fill="#F7871B" points="1.053 0.279 0.771 0.306 0.75 0.306 1.035 0.279"></polygon>
                    <polygon id="Path" fill="#F7861B" points="1.071 0.279 0.789 0.306 0.771 0.306 1.053 0.279"></polygon>
                    <polygon id="Path" fill="#F7851A" points="1.089 0.279 0.807 0.306 0.789 0.306 1.071 0.279"></polygon>
                    <polygon id="Path" fill="#F6841A" points="1.107 0.279 0.825 0.306 0.807 0.306 1.089 0.279"></polygon>
                    <polygon id="Path" fill="#F68319" points="1.125 0.279 0.843 0.306 0.825 0.306 1.107 0.279"></polygon>
                    <polygon id="Path" fill="#F68218" points="1.146 0.279 0.861 0.306 0.843 0.306 1.125 0.279"></polygon>
                    <polygon id="Path" fill="#F68118" points="1.164 0.279 0.879 0.306 0.861 0.306 1.146 0.279"></polygon>
                    <polygon id="Path" fill="#F58017" points="1.182 0.279 0.897 0.306 0.879 0.306 1.164 0.279"></polygon>
                    <polygon id="Path" fill="#F57F17" points="1.2 0.279 0.915 0.306 0.897 0.306 1.182 0.279"></polygon>
                    <polygon id="Path" fill="#F57E16" points="1.218 0.279 0.933 0.306 0.915 0.306 1.2 0.279"></polygon>
                    <polygon id="Path" fill="#F57D16" points="1.236 0.279 0.951 0.306 0.933 0.306 1.218 0.279"></polygon>
                    <polygon id="Path" fill="#F47C15" points="1.254 0.279 0.969 0.306 0.951 0.306 1.236 0.279"></polygon>
                    <polygon id="Path" fill="#F47B15" points="1.272 0.279 0.987 0.306 0.969 0.306 1.254 0.279"></polygon>
                    <polygon id="Path" fill="#F47A14" points="1.29 0.279 1.005 0.306 0.987 0.306 1.272 0.279"></polygon>
                    <polygon id="Path" fill="#F47A14" points="1.005 0.306 1.29 0.279 1.29 0.306"></polygon>
                </g>
                <path d="M7.335,3 C7.20950425,2.96102328 7.12398174,2.84490916 7.12398174,2.7135 C7.12398174,2.58209084 7.20950425,2.46597672 7.335,2.427 L8.484,2.4 C8.5610425,2.39418217 8.63704811,2.4205725 8.69390751,2.47288314 C8.7507669,2.52519379 8.78338858,2.59874056 8.78400092,2.676 C8.7843871,2.83381926 8.66243263,2.96495309 8.505,2.976 L7.341,3 L7.335,3 Z" id="Path" fill="#000000"></path>
                <g id="Group" transform="translate(6.300000, 3.000000)">
                    <polygon id="Path" fill="#FFAA2E" points="0.285 0.549 0.258 0.264 0.285 0.264"></polygon>
                    <polygon id="Path" fill="#FFAA2E" points="0.285 0.567 0.258 0.282 0.258 0.264 0.285 0.549"></polygon>
                    <polygon id="Path" fill="#FFA92D" points="0.285 0.585 0.258 0.3 0.258 0.282 0.285 0.567"></polygon>
                    <polygon id="Path" fill="#FFA82D" points="0.285 0.603 0.258 0.318 0.258 0.3 0.285 0.585"></polygon>
                    <polygon id="Path" fill="#FEA72C" points="0.285 0.621 0.258 0.336 0.258 0.318 0.285 0.603"></polygon>
                    <polygon id="Path" fill="#FEA62C" points="0.285 0.639 0.258 0.354 0.258 0.336 0.285 0.621"></polygon>
                    <polygon id="Path" fill="#FEA52B" points="0.285 0.657 0.258 0.372 0.258 0.354 0.285 0.639"></polygon>
                    <polygon id="Path" fill="#FEA42B" points="0.285 0.675 0.258 0.39 0.258 0.372 0.285 0.657"></polygon>
                    <polygon id="Path" fill="#FDA32A" points="0.285 0.693 0.258 0.411 0.258 0.39 0.285 0.675"></polygon>
                    <polygon id="Path" fill="#FDA22A" points="0.285 0.711 0.258 0.429 0.258 0.411 0.285 0.693"></polygon>
                    <polygon id="Path" fill="#FDA129" points="0.285 0.729 0.258 0.447 0.258 0.429 0.285 0.711"></polygon>
                    <polygon id="Path" fill="#FDA028" points="0.285 0.747 0.258 0.465 0.258 0.447 0.285 0.729"></polygon>
                    <polygon id="Path" fill="#FC9F28" points="0.285 0.765 0.258 0.483 0.258 0.465 0.285 0.747"></polygon>
                    <polygon id="Path" fill="#FC9E27" points="0.285 0.783 0.258 0.501 0.258 0.483 0.285 0.765"></polygon>
                    <polygon id="Path" fill="#FC9D27" points="0.285 0.804 0.258 0.519 0.258 0.501 0.285 0.783"></polygon>
                    <polygon id="Path" fill="#FC9C26" points="0.285 0.819 0.258 0.537 0.258 0.519 0.285 0.804"></polygon>
                    <polygon id="Path" fill="#FB9B26" points="0.285 0.84 0.258 0.555 0.258 0.537 0.285 0.819"></polygon>
                    <polygon id="Path" fill="#FB9A25" points="0.285 0.858 0.258 0.573 0.258 0.555 0.285 0.84"></polygon>
                    <polygon id="Path" fill="#FB9925" points="0.285 0.876 0.258 0.591 0.258 0.573 0.285 0.858"></polygon>
                    <polygon id="Path" fill="#FB9824" points="0.285 0.894 0.258 0.609 0.258 0.591 0.285 0.876"></polygon>
                    <polygon id="Path" fill="#FB9723" points="0.285 0.912 0.258 0.627 0.258 0.609 0.285 0.894"></polygon>
                    <polygon id="Path" fill="#FA9623" points="0.285 0.93 0.258 0.645 0.258 0.627 0.285 0.912"></polygon>
                    <polygon id="Path" fill="#FA9522" points="0.285 0.948 0.258 0.663 0.258 0.645 0.285 0.93"></polygon>
                    <polygon id="Path" fill="#FA9422" points="0.285 0.966 0.258 0.681 0.258 0.663 0.285 0.948"></polygon>
                    <polygon id="Path" fill="#FA9321" points="0.285 0.984 0.258 0.699 0.258 0.681 0.285 0.966"></polygon>
                    <polygon id="Path" fill="#F99121" points="0.285 1.002 0.258 0.717 0.258 0.699 0.285 0.984"></polygon>
                    <polygon id="Path" fill="#F99020" points="0.285 1.02 0.258 0.738 0.258 0.717 0.285 1.002"></polygon>
                    <polygon id="Path" fill="#F98F20" points="0.285 1.038 0.258 0.756 0.258 0.738 0.285 1.02"></polygon>
                    <polygon id="Path" fill="#F98E1F" points="0.285 1.056 0.258 0.774 0.258 0.756 0.285 1.038"></polygon>
                    <polygon id="Path" fill="#F88D1F" points="0.285 1.074 0.258 0.792 0.258 0.774 0.285 1.056"></polygon>
                    <polygon id="Path" fill="#F88C1E" points="0.285 1.092 0.258 0.81 0.258 0.792 0.285 1.074"></polygon>
                    <polygon id="Path" fill="#F88B1D" points="0.285 1.11 0.258 0.828 0.258 0.81 0.285 1.092"></polygon>
                    <polygon id="Path" fill="#F88A1D" points="0.285 1.131 0.258 0.846 0.258 0.828 0.285 1.11"></polygon>
                    <polygon id="Path" fill="#F8891C" points="0.285 1.146 0.258 0.864 0.258 0.846 0.285 1.131"></polygon>
                    <polygon id="Path" fill="#F7881C" points="0.285 1.167 0.258 0.882 0.258 0.864 0.285 1.146"></polygon>
                    <polygon id="Path" fill="#F7871B" points="0.285 1.185 0.258 0.9 0.258 0.882 0.285 1.167"></polygon>
                    <polygon id="Path" fill="#F7861B" points="0.285 1.203 0.258 0.918 0.258 0.9 0.285 1.185"></polygon>
                    <polygon id="Path" fill="#F7851A" points="0.285 1.221 0.258 0.936 0.258 0.918 0.285 1.203"></polygon>
                    <polygon id="Path" fill="#F6841A" points="0.285 1.239 0.258 0.954 0.258 0.936 0.285 1.221"></polygon>
                    <polygon id="Path" fill="#F68319" points="0.285 1.257 0.258 0.972 0.258 0.954 0.285 1.239"></polygon>
                    <polygon id="Path" fill="#F68218" points="0.285 1.275 0.258 0.99 0.258 0.972 0.285 1.257"></polygon>
                    <polygon id="Path" fill="#F68118" points="0.285 1.293 0.258 1.008 0.258 0.99 0.285 1.275"></polygon>
                    <polygon id="Path" fill="#F58017" points="0.285 1.311 0.258 1.026 0.258 1.008 0.285 1.293"></polygon>
                    <polygon id="Path" fill="#F57F17" points="0.285 1.329 0.258 1.044 0.258 1.026 0.285 1.311"></polygon>
                    <polygon id="Path" fill="#F57E16" points="0.285 1.347 0.258 1.062 0.258 1.044 0.285 1.329"></polygon>
                    <polygon id="Path" fill="#F57D16" points="0.285 1.365 0.258 1.083 0.258 1.062 0.285 1.347"></polygon>
                    <polygon id="Path" fill="#F47C15" points="0.285 1.383 0.258 1.101 0.258 1.083 0.285 1.365"></polygon>
                    <polygon id="Path" fill="#F47B15" points="0.285 1.401 0.258 1.119 0.258 1.101 0.285 1.383"></polygon>
                    <polygon id="Path" fill="#F47A14" points="0.285 1.419 0.285 1.419 0.258 1.137 0.258 1.119 0.285 1.401"></polygon>
                    <polygon id="Path" fill="#F47A14" points="0.258 1.137 0.285 1.419 0.258 1.419"></polygon>
                </g>
                <path d="M6.6,4.707 C6.44798447,4.69975189 6.32548048,4.57982693 6.315,4.428 L6.273,3.27 C6.2680719,3.19317392 6.29476656,3.11767283 6.34688906,3.06101794 C6.39901157,3.00436304 6.47203025,2.97148006 6.549,2.97 C6.62678596,2.96320182 6.7038116,2.98966983 6.76098918,3.04284497 C6.81816675,3.09602011 6.85014522,3.17092594 6.849,3.249 L6.87900092,4.404 C6.8793871,4.56181926 6.75743263,4.69295309 6.6,4.704 L6.6,4.707 Z" id="Path" fill="#000000"></path>
                <g id="Group" transform="translate(4.500000, 2.400000)">
                    <polygon id="Path" fill="#FFAA2E" points="1.035 0.315 1.317 0.285 1.317 0.315"></polygon>
                    <polygon id="Path" fill="#FFAA2E" points="1.017 0.315 1.299 0.285 1.317 0.285 1.035 0.315"></polygon>
                    <polygon id="Path" fill="#FFA92D" points="0.996 0.315 1.281 0.285 1.299 0.285 1.017 0.315"></polygon>
                    <polygon id="Path" fill="#FFA82D" points="0.978 0.315 1.263 0.285 1.281 0.285 0.996 0.315"></polygon>
                    <polygon id="Path" fill="#FEA72C" points="0.96 0.315 1.245 0.285 1.263 0.285 0.978 0.315"></polygon>
                    <polygon id="Path" fill="#FEA62C" points="0.942 0.315 1.227 0.285 1.245 0.285 0.96 0.315"></polygon>
                    <polygon id="Path" fill="#FEA52B" points="0.924 0.315 1.209 0.285 1.227 0.285 0.942 0.315"></polygon>
                    <polygon id="Path" fill="#FEA42B" points="0.906 0.315 1.191 0.285 1.209 0.285 0.924 0.315"></polygon>
                    <polygon id="Path" fill="#FDA32A" points="0.888 0.315 1.173 0.285 1.191 0.285 0.906 0.315"></polygon>
                    <polygon id="Path" fill="#FDA22A" points="0.87 0.315 1.155 0.285 1.173 0.285 0.888 0.315"></polygon>
                    <polygon id="Path" fill="#FDA129" points="0.852 0.315 1.137 0.285 1.155 0.285 0.87 0.315"></polygon>
                    <polygon id="Path" fill="#FDA028" points="0.834 0.315 1.119 0.285 1.137 0.285 0.852 0.315"></polygon>
                    <polygon id="Path" fill="#FC9F28" points="0.816 0.315 1.098 0.285 1.119 0.285 0.834 0.315"></polygon>
                    <polygon id="Path" fill="#FC9E27" points="0.798 0.315 1.083 0.285 1.098 0.285 0.816 0.315"></polygon>
                    <polygon id="Path" fill="#FC9D27" points="0.78 0.315 1.062 0.285 1.083 0.285 0.798 0.315"></polygon>
                    <polygon id="Path" fill="#FC9C26" points="0.762 0.315 1.044 0.285 1.062 0.285 0.78 0.315"></polygon>
                    <polygon id="Path" fill="#FB9B26" points="0.744 0.315 1.026 0.285 1.044 0.285 0.762 0.315"></polygon>
                    <polygon id="Path" fill="#FB9A25" points="0.726 0.315 1.008 0.285 1.026 0.285 0.744 0.315"></polygon>
                    <polygon id="Path" fill="#FB9925" points="0.708 0.315 0.99 0.285 1.008 0.285 0.726 0.315"></polygon>
                    <polygon id="Path" fill="#FB9824" points="0.69 0.315 0.972 0.285 0.99 0.285 0.708 0.315"></polygon>
                    <polygon id="Path" fill="#FB9723" points="0.669 0.315 0.954 0.285 0.972 0.285 0.69 0.315"></polygon>
                    <polygon id="Path" fill="#FA9623" points="0.651 0.315 0.936 0.285 0.954 0.285 0.669 0.315"></polygon>
                    <polygon id="Path" fill="#FA9522" points="0.633 0.315 0.918 0.285 0.936 0.285 0.651 0.315"></polygon>
                    <polygon id="Path" fill="#FA9422" points="0.615 0.315 0.9 0.285 0.918 0.285 0.633 0.315"></polygon>
                    <polygon id="Path" fill="#FA9321" points="0.597 0.315 0.882 0.285 0.9 0.285 0.615 0.315"></polygon>
                    <polygon id="Path" fill="#F99121" points="0.579 0.315 0.864 0.285 0.882 0.285 0.597 0.315"></polygon>
                    <polygon id="Path" fill="#F99020" points="0.561 0.315 0.846 0.285 0.864 0.285 0.579 0.315"></polygon>
                    <polygon id="Path" fill="#F98F20" points="0.543 0.315 0.828 0.285 0.846 0.285 0.561 0.315"></polygon>
                    <polygon id="Path" fill="#F98E1F" points="0.525 0.315 0.81 0.285 0.828 0.285 0.543 0.315"></polygon>
                    <polygon id="Path" fill="#F88D1F" points="0.507 0.315 0.792 0.285 0.81 0.285 0.525 0.315"></polygon>
                    <polygon id="Path" fill="#F88C1E" points="0.489 0.315 0.771 0.285 0.792 0.285 0.507 0.315"></polygon>
                    <polygon id="Path" fill="#F88B1D" points="0.471 0.315 0.753 0.285 0.771 0.285 0.489 0.315"></polygon>
                    <polygon id="Path" fill="#F88A1D" points="0.453 0.315 0.735 0.285 0.753 0.285 0.471 0.315"></polygon>
                    <polygon id="Path" fill="#F8891C" points="0.435 0.315 0.717 0.285 0.735 0.285 0.453 0.315"></polygon>
                    <polygon id="Path" fill="#F7881C" points="0.417 0.315 0.699 0.285 0.717 0.285 0.435 0.315"></polygon>
                    <polygon id="Path" fill="#F7871B" points="0.399 0.315 0.681 0.285 0.699 0.285 0.417 0.315"></polygon>
                    <polygon id="Path" fill="#F7861B" points="0.381 0.315 0.663 0.285 0.681 0.285 0.399 0.315"></polygon>
                    <polygon id="Path" fill="#F7851A" points="0.36 0.315 0.645 0.285 0.663 0.285 0.381 0.315"></polygon>
                    <polygon id="Path" fill="#F6841A" points="0.342 0.315 0.627 0.285 0.645 0.285 0.36 0.315"></polygon>
                    <polygon id="Path" fill="#F68319" points="0.324 0.315 0.609 0.285 0.627 0.285 0.342 0.315"></polygon>
                    <polygon id="Path" fill="#F68218" points="0.306 0.315 0.591 0.285 0.609 0.285 0.324 0.315"></polygon>
                    <polygon id="Path" fill="#F68118" points="0.288 0.315 0.573 0.285 0.591 0.285 0.306 0.315"></polygon>
                    <polygon id="Path" fill="#F58017" points="0.27 0.315 0.555 0.285 0.573 0.285 0.288 0.315"></polygon>
                    <polygon id="Path" fill="#F57F17" points="0.252 0.315 0.537 0.285 0.555 0.285 0.27 0.315"></polygon>
                    <polygon id="Path" fill="#F57E16" points="0.234 0.315 0.519 0.285 0.537 0.285 0.252 0.315"></polygon>
                    <polygon id="Path" fill="#F57D16" points="0.216 0.315 0.501 0.285 0.519 0.285 0.234 0.315"></polygon>
                    <polygon id="Path" fill="#F47C15" points="0.198 0.315 0.483 0.285 0.501 0.285 0.216 0.315"></polygon>
                    <polygon id="Path" fill="#F47B15" points="0.18 0.315 0.465 0.285 0.483 0.285 0.198 0.315"></polygon>
                    <polygon id="Path" fill="#F47A14" points="0.162 0.315 0.444 0.285 0.465 0.285 0.18 0.315"></polygon>
                    <polygon id="Path" fill="#F47A14" points="0.444 0.285 0.162 0.315 0.162 0.285"></polygon>
                </g>
                <path d="M4.662,3 C4.53888764,2.95953492 4.45567497,2.84459196 4.45567497,2.715 C4.45567497,2.58540804 4.53888764,2.47046508 4.662,2.43 L5.811,2.4 C5.88856147,2.39414512 5.96504599,2.42093405 6.02200365,2.47390468 C6.07896131,2.5268753 6.11122067,2.60121817 6.111,2.679 C6.1159281,2.75582608 6.08923344,2.83132717 6.03711094,2.88798206 C5.98498843,2.94463696 5.91196975,2.97751994 5.835,2.979 L4.668,3 L4.662,3 Z" id="Path" fill="#000000"></path>
                <g id="Group" transform="translate(61.200000, 27.300000)">
                    <polygon id="Path" fill="#FFAA2E" points="0.204 1.179 0.234 1.461 0.204 1.461"></polygon>
                    <polygon id="Path" fill="#FFAA2E" points="0.204 1.158 0.234 1.443 0.234 1.461 0.204 1.179"></polygon>
                    <polygon id="Path" fill="#FFA92D" points="0.204 1.143 0.234 1.425 0.234 1.443 0.204 1.158"></polygon>
                    <polygon id="Path" fill="#FFA82D" points="0.204 1.122 0.234 1.407 0.234 1.425 0.204 1.143"></polygon>
                    <polygon id="Path" fill="#FEA72C" points="0.204 1.104 0.234 1.389 0.234 1.407 0.204 1.122"></polygon>
                    <polygon id="Path" fill="#FEA62C" points="0.204 1.086 0.234 1.371 0.234 1.389 0.204 1.104"></polygon>
                    <polygon id="Path" fill="#FEA52B" points="0.204 1.068 0.234 1.353 0.234 1.371 0.204 1.086"></polygon>
                    <polygon id="Path" fill="#FEA42B" points="0.204 1.05 0.234 1.335 0.234 1.353 0.204 1.068"></polygon>
                    <polygon id="Path" fill="#FDA32A" points="0.204 1.032 0.234 1.317 0.234 1.335 0.204 1.05"></polygon>
                    <polygon id="Path" fill="#FDA22A" points="0.204 1.014 0.234 1.299 0.234 1.317 0.204 1.032"></polygon>
                    <polygon id="Path" fill="#FDA129" points="0.204 0.996 0.234 1.281 0.234 1.299 0.204 1.014"></polygon>
                    <polygon id="Path" fill="#FDA028" points="0.204 0.978 0.234 1.263 0.234 1.281 0.204 0.996"></polygon>
                    <polygon id="Path" fill="#FC9F28" points="0.204 0.96 0.234 1.242 0.234 1.263 0.204 0.978"></polygon>
                    <polygon id="Path" fill="#FC9E27" points="0.204 0.942 0.234 1.224 0.234 1.242 0.204 0.96"></polygon>
                    <polygon id="Path" fill="#FC9D27" points="0.204 0.924 0.234 1.206 0.234 1.224 0.204 0.942"></polygon>
                    <polygon id="Path" fill="#FC9C26" points="0.204 0.906 0.234 1.188 0.234 1.206 0.204 0.924"></polygon>
                    <polygon id="Path" fill="#FB9B26" points="0.204 0.888 0.234 1.17 0.234 1.188 0.204 0.906"></polygon>
                    <polygon id="Path" fill="#FB9A25" points="0.204 0.87 0.234 1.152 0.234 1.17 0.204 0.888"></polygon>
                    <polygon id="Path" fill="#FB9925" points="0.204 0.852 0.234 1.134 0.234 1.152 0.204 0.87"></polygon>
                    <polygon id="Path" fill="#FB9824" points="0.204 0.834 0.234 1.116 0.234 1.134 0.204 0.852"></polygon>
                    <polygon id="Path" fill="#FB9723" points="0.204 0.813 0.234 1.098 0.234 1.116 0.204 0.834"></polygon>
                    <polygon id="Path" fill="#FA9623" points="0.204 0.795 0.234 1.08 0.234 1.098 0.204 0.813"></polygon>
                    <polygon id="Path" fill="#FA9522" points="0.204 0.777 0.234 1.062 0.234 1.08 0.204 0.795"></polygon>
                    <polygon id="Path" fill="#FA9422" points="0.204 0.759 0.234 1.044 0.234 1.062 0.204 0.777"></polygon>
                    <polygon id="Path" fill="#FA9321" points="0.204 0.741 0.234 1.026 0.234 1.044 0.204 0.759"></polygon>
                    <polygon id="Path" fill="#F99121" points="0.204 0.723 0.234 1.008 0.234 1.026 0.204 0.741"></polygon>
                    <polygon id="Path" fill="#F99020" points="0.204 0.705 0.234 0.99 0.234 1.008 0.204 0.723"></polygon>
                    <polygon id="Path" fill="#F98F20" points="0.204 0.687 0.234 0.972 0.234 0.99 0.204 0.705"></polygon>
                    <polygon id="Path" fill="#F98E1F" points="0.204 0.669 0.234 0.954 0.234 0.972 0.204 0.687"></polygon>
                    <polygon id="Path" fill="#F88D1F" points="0.204 0.651 0.234 0.936 0.234 0.954 0.204 0.669"></polygon>
                    <polygon id="Path" fill="#F88C1E" points="0.204 0.633 0.234 0.918 0.234 0.936 0.204 0.651"></polygon>
                    <polygon id="Path" fill="#F88B1D" points="0.204 0.615 0.234 0.9 0.234 0.918 0.204 0.633"></polygon>
                    <polygon id="Path" fill="#F88A1D" points="0.204 0.597 0.234 0.879 0.234 0.9 0.204 0.615"></polygon>
                    <polygon id="Path" fill="#F8891C" points="0.204 0.579 0.234 0.861 0.234 0.879 0.204 0.597"></polygon>
                    <polygon id="Path" fill="#F7881C" points="0.204 0.561 0.234 0.843 0.234 0.861 0.204 0.579"></polygon>
                    <polygon id="Path" fill="#F7871B" points="0.204 0.543 0.234 0.825 0.234 0.843 0.204 0.561"></polygon>
                    <polygon id="Path" fill="#F7861B" points="0.204 0.525 0.234 0.807 0.234 0.825 0.204 0.543"></polygon>
                    <polygon id="Path" fill="#F7851A" points="0.204 0.507 0.234 0.789 0.234 0.807 0.204 0.525"></polygon>
                    <polygon id="Path" fill="#F6841A" points="0.204 0.486 0.234 0.771 0.234 0.789 0.204 0.507"></polygon>
                    <polygon id="Path" fill="#F68319" points="0.204 0.468 0.234 0.753 0.234 0.771 0.204 0.486"></polygon>
                    <polygon id="Path" fill="#F68218" points="0.204 0.45 0.234 0.735 0.234 0.753 0.204 0.468"></polygon>
                    <polygon id="Path" fill="#F68118" points="0.204 0.432 0.234 0.717 0.234 0.735 0.204 0.45"></polygon>
                    <polygon id="Path" fill="#F58017" points="0.204 0.414 0.234 0.699 0.234 0.717 0.204 0.432"></polygon>
                    <polygon id="Path" fill="#F57F17" points="0.204 0.396 0.234 0.681 0.234 0.699 0.204 0.414"></polygon>
                    <polygon id="Path" fill="#F57E16" points="0.204 0.378 0.234 0.663 0.234 0.681 0.204 0.396"></polygon>
                    <polygon id="Path" fill="#F57D16" points="0.204 0.36 0.234 0.645 0.234 0.663 0.204 0.378"></polygon>
                    <polygon id="Path" fill="#F47C15" points="0.204 0.342 0.234 0.627 0.234 0.645 0.204 0.36"></polygon>
                    <polygon id="Path" fill="#F47B15" points="0.204 0.324 0.234 0.609 0.234 0.627 0.204 0.342"></polygon>
                    <polygon id="Path" fill="#F47A14" points="0.204 0.306 0.234 0.591 0.234 0.609 0.204 0.324"></polygon>
                    <polygon id="Path" fill="#F47A14" points="0.234 0.591 0.204 0.306 0.234 0.306"></polygon>
                </g>
                <path d="M61.434,29.0460016 C61.2772519,29.0465023 61.1465391,28.9262466 61.134,28.77 L61.119,27.6 C61.1140719,27.5231739 61.1407666,27.4476728 61.1928891,27.3910179 C61.2450116,27.334363 61.3180303,27.3014801 61.395,27.3 L61.395,27.3 C61.5459563,27.307085 61.6680764,27.4253487 61.68,27.576 L61.7100009,28.734 C61.7103871,28.8918193 61.5884326,29.0229531 61.431,29.034 L61.434,29.0460016 Z" id="Path" fill="#000000"></path>
                <g id="Group" transform="translate(62.100000, 29.100000)">
                    <polygon id="Path" fill="#FFAA2E" points="0.357 0.21 0.072 0.24 0.072 0.21"></polygon>
                    <polygon id="Path" fill="#FFAA2E" points="0.375 0.21 0.09 0.24 0.072 0.24 0.357 0.21"></polygon>
                    <polygon id="Path" fill="#FFA92D" points="0.393 0.21 0.108 0.24 0.09 0.24 0.375 0.21"></polygon>
                    <polygon id="Path" fill="#FFA82D" points="0.411 0.21 0.126 0.24 0.108 0.24 0.393 0.21"></polygon>
                    <polygon id="Path" fill="#FEA72C" points="0.429 0.21 0.144 0.24 0.126 0.24 0.411 0.21"></polygon>
                    <polygon id="Path" fill="#FEA62C" points="0.447 0.21 0.162 0.24 0.144 0.24 0.429 0.21"></polygon>
                    <polygon id="Path" fill="#FEA52B" points="0.465 0.21 0.18 0.24 0.162 0.24 0.447 0.21"></polygon>
                    <polygon id="Path" fill="#FEA42B" points="0.483 0.21 0.198 0.24 0.18 0.24 0.465 0.21"></polygon>
                    <polygon id="Path" fill="#FDA32A" points="0.501 0.21 0.219 0.24 0.198 0.24 0.483 0.21"></polygon>
                    <polygon id="Path" fill="#FDA22A" points="0.519 0.21 0.237 0.24 0.219 0.24 0.501 0.21"></polygon>
                    <polygon id="Path" fill="#FDA129" points="0.537 0.21 0.255 0.24 0.237 0.24 0.519 0.21"></polygon>
                    <polygon id="Path" fill="#FDA028" points="0.555 0.21 0.273 0.24 0.255 0.24 0.537 0.21"></polygon>
                    <polygon id="Path" fill="#FC9F28" points="0.573 0.21 0.291 0.24 0.273 0.24 0.555 0.21"></polygon>
                    <polygon id="Path" fill="#FC9E27" points="0.591 0.21 0.309 0.24 0.291 0.24 0.573 0.21"></polygon>
                    <polygon id="Path" fill="#FC9D27" points="0.612 0.21 0.327 0.24 0.309 0.24 0.591 0.21"></polygon>
                    <polygon id="Path" fill="#FC9C26" points="0.63 0.21 0.345 0.24 0.327 0.24 0.612 0.21"></polygon>
                    <polygon id="Path" fill="#FB9B26" points="0.648 0.21 0.363 0.24 0.345 0.24 0.63 0.21"></polygon>
                    <polygon id="Path" fill="#FB9A25" points="0.666 0.21 0.381 0.24 0.363 0.24 0.648 0.21"></polygon>
                    <polygon id="Path" fill="#FB9925" points="0.684 0.21 0.399 0.24 0.381 0.24 0.666 0.21"></polygon>
                    <polygon id="Path" fill="#FB9824" points="0.702 0.21 0.417 0.24 0.399 0.24 0.684 0.21"></polygon>
                    <polygon id="Path" fill="#FB9723" points="0.72 0.21 0.435 0.24 0.417 0.24 0.702 0.21"></polygon>
                    <polygon id="Path" fill="#FA9623" points="0.738 0.21 0.453 0.24 0.435 0.24 0.72 0.21"></polygon>
                    <polygon id="Path" fill="#FA9522" points="0.756 0.21 0.471 0.24 0.453 0.24 0.738 0.21"></polygon>
                    <polygon id="Path" fill="#FA9422" points="0.774 0.21 0.489 0.24 0.471 0.24 0.756 0.21"></polygon>
                    <polygon id="Path" fill="#FA9321" points="0.792 0.21 0.507 0.24 0.489 0.24 0.774 0.21"></polygon>
                    <polygon id="Path" fill="#F99121" points="0.81 0.21 0.525 0.24 0.507 0.24 0.792 0.21"></polygon>
                    <polygon id="Path" fill="#F99020" points="0.828 0.21 0.546 0.24 0.525 0.24 0.81 0.21"></polygon>
                    <polygon id="Path" fill="#F98F20" points="0.846 0.21 0.564 0.24 0.546 0.24 0.828 0.21"></polygon>
                    <polygon id="Path" fill="#F98E1F" points="0.864 0.21 0.582 0.24 0.564 0.24 0.846 0.21"></polygon>
                    <polygon id="Path" fill="#F88D1F" points="0.882 0.21 0.6 0.24 0.582 0.24 0.864 0.21"></polygon>
                    <polygon id="Path" fill="#F88C1E" points="0.9 0.21 0.618 0.24 0.6 0.24 0.882 0.21"></polygon>
                    <polygon id="Path" fill="#F88B1D" points="0.918 0.21 0.636 0.24 0.618 0.24 0.9 0.21"></polygon>
                    <polygon id="Path" fill="#F88A1D" points="0.939 0.21 0.654 0.24 0.636 0.24 0.918 0.21"></polygon>
                    <polygon id="Path" fill="#F8891C" points="0.957 0.21 0.672 0.24 0.654 0.24 0.939 0.21"></polygon>
                    <polygon id="Path" fill="#F7881C" points="0.975 0.21 0.69 0.24 0.672 0.24 0.957 0.21"></polygon>
                    <polygon id="Path" fill="#F7871B" points="0.993 0.21 0.708 0.24 0.69 0.24 0.975 0.21"></polygon>
                    <polygon id="Path" fill="#F7861B" points="1.011 0.21 0.726 0.24 0.708 0.24 0.993 0.21"></polygon>
                    <polygon id="Path" fill="#F7851A" points="1.029 0.21 0.744 0.24 0.726 0.24 1.011 0.21"></polygon>
                    <polygon id="Path" fill="#F6841A" points="1.047 0.21 0.762 0.24 0.744 0.24 1.029 0.21"></polygon>
                    <polygon id="Path" fill="#F68319" points="1.065 0.21 0.78 0.24 0.762 0.24 1.047 0.21"></polygon>
                    <polygon id="Path" fill="#F68218" points="1.083 0.21 0.798 0.24 0.78 0.24 1.065 0.21"></polygon>
                    <polygon id="Path" fill="#F68118" points="1.101 0.21 0.816 0.24 0.798 0.24 1.083 0.21"></polygon>
                    <polygon id="Path" fill="#F58017" points="1.119 0.21 0.834 0.24 0.816 0.24 1.101 0.21"></polygon>
                    <polygon id="Path" fill="#F57F17" points="1.137 0.21 0.855 0.24 0.834 0.24 1.119 0.21"></polygon>
                    <polygon id="Path" fill="#F57E16" points="1.155 0.21 0.873 0.24 0.855 0.24 1.137 0.21"></polygon>
                    <polygon id="Path" fill="#F57D16" points="1.173 0.21 0.891 0.24 0.873 0.24 1.155 0.21"></polygon>
                    <polygon id="Path" fill="#F47C15" points="1.191 0.21 0.909 0.24 0.891 0.24 1.173 0.21"></polygon>
                    <polygon id="Path" fill="#F47B15" points="1.209 0.21 0.927 0.24 0.909 0.24 1.191 0.21"></polygon>
                    <polygon id="Path" fill="#F47A14" points="1.227 0.21 1.227 0.21 0.945 0.24 0.927 0.24 1.209 0.21"></polygon>
                    <polygon id="Path" fill="#F47A14" points="0.945 0.24 1.227 0.21 1.227 0.24"></polygon>
                </g>
                <path d="M62.172,29.625 C62.0488876,29.5845349 61.965675,29.469592 61.965675,29.34 C61.965675,29.210408 62.0488876,29.0954651 62.172,29.055 L63.327,29.025 C63.4491285,28.9836853 63.5839969,29.025022 63.6619996,29.127676 C63.7400022,29.2303301 63.7436937,29.3713428 63.6711687,29.4779374 C63.5986438,29.5845319 63.4661228,29.6328683 63.342,29.598 L62.187,29.625 L62.172,29.625 Z" id="Path" fill="#000000"></path>
                <g id="Group" transform="translate(61.200000, 29.700000)">
                    <polygon id="Path" fill="#FFAA2E" points="0.225 0.48 0.195 0.198 0.225 0.198"></polygon>
                    <polygon id="Path" fill="#FFAA2E" points="0.225 0.498 0.195 0.216 0.195 0.198 0.225 0.48"></polygon>
                    <polygon id="Path" fill="#FFA92D" points="0.225 0.516 0.195 0.234 0.195 0.216 0.225 0.498"></polygon>
                    <polygon id="Path" fill="#FFA82D" points="0.225 0.534 0.195 0.252 0.195 0.234 0.225 0.516"></polygon>
                    <polygon id="Path" fill="#FEA72C" points="0.225 0.552 0.195 0.27 0.195 0.252 0.225 0.534"></polygon>
                    <polygon id="Path" fill="#FEA62C" points="0.225 0.573 0.195 0.288 0.195 0.27 0.225 0.552"></polygon>
                    <polygon id="Path" fill="#FEA52B" points="0.225 0.591 0.195 0.306 0.195 0.288 0.225 0.573"></polygon>
                    <polygon id="Path" fill="#FEA42B" points="0.225 0.609 0.195 0.324 0.195 0.306 0.225 0.591"></polygon>
                    <polygon id="Path" fill="#FDA32A" points="0.225 0.627 0.195 0.342 0.195 0.324 0.225 0.609"></polygon>
                    <polygon id="Path" fill="#FDA22A" points="0.225 0.645 0.195 0.36 0.195 0.342 0.225 0.627"></polygon>
                    <polygon id="Path" fill="#FDA129" points="0.225 0.663 0.195 0.378 0.195 0.36 0.225 0.645"></polygon>
                    <polygon id="Path" fill="#FDA028" points="0.225 0.681 0.195 0.396 0.195 0.378 0.225 0.663"></polygon>
                    <polygon id="Path" fill="#FC9F28" points="0.225 0.699 0.195 0.414 0.195 0.396 0.225 0.681"></polygon>
                    <polygon id="Path" fill="#FC9E27" points="0.225 0.717 0.195 0.432 0.195 0.414 0.225 0.699"></polygon>
                    <polygon id="Path" fill="#FC9D27" points="0.225 0.735 0.195 0.45 0.195 0.432 0.225 0.717"></polygon>
                    <polygon id="Path" fill="#FC9C26" points="0.225 0.753 0.195 0.468 0.195 0.45 0.225 0.735"></polygon>
                    <polygon id="Path" fill="#FB9B26" points="0.225 0.771 0.195 0.489 0.195 0.468 0.225 0.753"></polygon>
                    <polygon id="Path" fill="#FB9A25" points="0.225 0.789 0.195 0.507 0.195 0.489 0.225 0.771"></polygon>
                    <polygon id="Path" fill="#FB9925" points="0.225 0.807 0.195 0.525 0.195 0.507 0.225 0.789"></polygon>
                    <polygon id="Path" fill="#FB9824" points="0.225 0.825 0.195 0.543 0.195 0.525 0.225 0.807"></polygon>
                    <polygon id="Path" fill="#FB9723" points="0.225 0.843 0.195 0.561 0.195 0.543 0.225 0.825"></polygon>
                    <polygon id="Path" fill="#FA9623" points="0.225 0.864 0.195 0.579 0.195 0.561 0.225 0.843"></polygon>
                    <polygon id="Path" fill="#FA9522" points="0.225 0.882 0.195 0.597 0.195 0.579 0.225 0.864"></polygon>
                    <polygon id="Path" fill="#FA9422" points="0.225 0.9 0.195 0.615 0.195 0.597 0.225 0.882"></polygon>
                    <polygon id="Path" fill="#FA9321" points="0.225 0.918 0.195 0.633 0.195 0.615 0.225 0.9"></polygon>
                    <polygon id="Path" fill="#F99121" points="0.225 0.936 0.195 0.651 0.195 0.633 0.225 0.918"></polygon>
                    <polygon id="Path" fill="#F99020" points="0.225 0.954 0.195 0.669 0.195 0.651 0.225 0.936"></polygon>
                    <polygon id="Path" fill="#F98F20" points="0.225 0.972 0.195 0.687 0.195 0.669 0.225 0.954"></polygon>
                    <polygon id="Path" fill="#F98E1F" points="0.225 0.99 0.195 0.705 0.195 0.687 0.225 0.972"></polygon>
                    <polygon id="Path" fill="#F88D1F" points="0.225 1.008 0.195 0.723 0.195 0.705 0.225 0.99"></polygon>
                    <polygon id="Path" fill="#F88C1E" points="0.225 1.026 0.195 0.741 0.195 0.723 0.225 1.008"></polygon>
                    <polygon id="Path" fill="#F88B1D" points="0.225 1.044 0.195 0.759 0.195 0.741 0.225 1.026"></polygon>
                    <polygon id="Path" fill="#F88A1D" points="0.225 1.062 0.195 0.777 0.195 0.759 0.225 1.044"></polygon>
                    <polygon id="Path" fill="#F8891C" points="0.225 1.08 0.195 0.798 0.195 0.777 0.225 1.062"></polygon>
                    <polygon id="Path" fill="#F7881C" points="0.225 1.098 0.195 0.816 0.195 0.798 0.225 1.08"></polygon>
                    <polygon id="Path" fill="#F7871B" points="0.225 1.116 0.195 0.834 0.195 0.816 0.225 1.098"></polygon>
                    <polygon id="Path" fill="#F7861B" points="0.225 1.134 0.195 0.852 0.195 0.834 0.225 1.116"></polygon>
                    <polygon id="Path" fill="#F7851A" points="0.225 1.152 0.195 0.87 0.195 0.852 0.225 1.134"></polygon>
                    <polygon id="Path" fill="#F6841A" points="0.225 1.173 0.195 0.888 0.195 0.87 0.225 1.152"></polygon>
                    <polygon id="Path" fill="#F68319" points="0.225 1.191 0.195 0.906 0.195 0.888 0.225 1.173"></polygon>
                    <polygon id="Path" fill="#F68218" points="0.225 1.209 0.195 0.924 0.195 0.906 0.225 1.191"></polygon>
                    <polygon id="Path" fill="#F68118" points="0.225 1.227 0.195 0.942 0.195 0.924 0.225 1.209"></polygon>
                    <polygon id="Path" fill="#F58017" points="0.225 1.245 0.195 0.96 0.195 0.942 0.225 1.227"></polygon>
                    <polygon id="Path" fill="#F57F17" points="0.225 1.263 0.195 0.978 0.195 0.96 0.225 1.245"></polygon>
                    <polygon id="Path" fill="#F57E16" points="0.225 1.281 0.195 0.996 0.195 0.978 0.225 1.263"></polygon>
                    <polygon id="Path" fill="#F57D16" points="0.225 1.299 0.195 1.014 0.195 0.996 0.225 1.281"></polygon>
                    <polygon id="Path" fill="#F47C15" points="0.225 1.317 0.195 1.032 0.195 1.014 0.225 1.299"></polygon>
                    <polygon id="Path" fill="#F47B15" points="0.225 1.335 0.195 1.05 0.195 1.032 0.225 1.317"></polygon>
                    <polygon id="Path" fill="#F47A14" points="0.225 1.353 0.195 1.068 0.195 1.05 0.225 1.335"></polygon>
                    <polygon id="Path" fill="#F47A14" points="0.195 1.068 0.225 1.353 0.195 1.353"></polygon>
                </g>
                <path d="M61.425,31.338 C61.2729845,31.3307519 61.1504805,31.2108269 61.14,31.059 L61.1099991,29.904 C61.1096129,29.7461807 61.2315674,29.6150469 61.389,29.604 C61.466261,29.5972555 61.5427946,29.6233284 61.5998696,29.6758374 C61.6569446,29.7283464 61.6892938,29.8024457 61.689,29.88 L61.719,31.038 C61.7239495,31.1153392 61.696853,31.1913068 61.6440763,31.248056 C61.5912996,31.3048051 61.5174945,31.3373338 61.44,31.338 L61.425,31.338 Z" id="Path" fill="#000000"></path>
                <g id="Group" transform="translate(59.400000, 29.100000)">
                    <polygon id="Path" fill="#FFAA2E" points="0.972 0.249 1.257 0.219 1.257 0.249"></polygon>
                    <polygon id="Path" fill="#FFAA2E" points="0.954 0.249 1.239 0.219 1.257 0.219 0.972 0.249"></polygon>
                    <polygon id="Path" fill="#FFA92D" points="0.936 0.249 1.221 0.219 1.239 0.219 0.954 0.249"></polygon>
                    <polygon id="Path" fill="#FFA82D" points="0.918 0.249 1.203 0.219 1.221 0.219 0.936 0.249"></polygon>
                    <polygon id="Path" fill="#FEA72C" points="0.9 0.249 1.185 0.219 1.203 0.219 0.918 0.249"></polygon>
                    <polygon id="Path" fill="#FEA62C" points="0.882 0.249 1.164 0.219 1.185 0.219 0.9 0.249"></polygon>
                    <polygon id="Path" fill="#FEA52B" points="0.864 0.249 1.146 0.219 1.164 0.219 0.882 0.249"></polygon>
                    <polygon id="Path" fill="#FEA42B" points="0.846 0.249 1.128 0.219 1.146 0.219 0.864 0.249"></polygon>
                    <polygon id="Path" fill="#FDA32A" points="0.828 0.249 1.11 0.219 1.128 0.219 0.846 0.249"></polygon>
                    <polygon id="Path" fill="#FDA22A" points="0.81 0.249 1.092 0.219 1.11 0.219 0.828 0.249"></polygon>
                    <polygon id="Path" fill="#FDA129" points="0.792 0.249 1.074 0.219 1.092 0.219 0.81 0.249"></polygon>
                    <polygon id="Path" fill="#FDA028" points="0.771 0.249 1.056 0.219 1.074 0.219 0.792 0.249"></polygon>
                    <polygon id="Path" fill="#FC9F28" points="0.753 0.249 1.038 0.219 1.056 0.219 0.771 0.249"></polygon>
                    <polygon id="Path" fill="#FC9E27" points="0.735 0.249 1.02 0.219 1.038 0.219 0.753 0.249"></polygon>
                    <polygon id="Path" fill="#FC9D27" points="0.717 0.249 1.002 0.219 1.02 0.219 0.735 0.249"></polygon>
                    <polygon id="Path" fill="#FC9C26" points="0.699 0.249 0.984 0.219 1.002 0.219 0.717 0.249"></polygon>
                    <polygon id="Path" fill="#FB9B26" points="0.681 0.249 0.966 0.219 0.984 0.219 0.699 0.249"></polygon>
                    <polygon id="Path" fill="#FB9A25" points="0.663 0.249 0.948 0.219 0.966 0.219 0.681 0.249"></polygon>
                    <polygon id="Path" fill="#FB9925" points="0.645 0.249 0.93 0.219 0.948 0.219 0.663 0.249"></polygon>
                    <polygon id="Path" fill="#FB9824" points="0.627 0.249 0.912 0.219 0.93 0.219 0.645 0.249"></polygon>
                    <polygon id="Path" fill="#FB9723" points="0.609 0.249 0.894 0.219 0.912 0.219 0.627 0.249"></polygon>
                    <polygon id="Path" fill="#FA9623" points="0.591 0.249 0.876 0.219 0.894 0.219 0.609 0.249"></polygon>
                    <polygon id="Path" fill="#FA9522" points="0.573 0.249 0.855 0.219 0.876 0.219 0.591 0.249"></polygon>
                    <polygon id="Path" fill="#FA9422" points="0.555 0.249 0.837 0.219 0.855 0.219 0.573 0.249"></polygon>
                    <polygon id="Path" fill="#FA9321" points="0.537 0.249 0.819 0.219 0.837 0.219 0.555 0.249"></polygon>
                    <polygon id="Path" fill="#F99121" points="0.519 0.249 0.801 0.219 0.819 0.219 0.537 0.249"></polygon>
                    <polygon id="Path" fill="#F99020" points="0.501 0.249 0.783 0.219 0.801 0.219 0.519 0.249"></polygon>
                    <polygon id="Path" fill="#F98F20" points="0.483 0.249 0.765 0.219 0.783 0.219 0.501 0.249"></polygon>
                    <polygon id="Path" fill="#F98E1F" points="0.462 0.249 0.747 0.219 0.765 0.219 0.483 0.249"></polygon>
                    <polygon id="Path" fill="#F88D1F" points="0.447 0.249 0.729 0.219 0.747 0.219 0.462 0.249"></polygon>
                    <polygon id="Path" fill="#F88C1E" points="0.426 0.249 0.711 0.219 0.729 0.219 0.447 0.249"></polygon>
                    <polygon id="Path" fill="#F88B1D" points="0.408 0.249 0.693 0.219 0.711 0.219 0.426 0.249"></polygon>
                    <polygon id="Path" fill="#F88A1D" points="0.39 0.249 0.675 0.219 0.693 0.219 0.408 0.249"></polygon>
                    <polygon id="Path" fill="#F8891C" points="0.372 0.249 0.657 0.219 0.675 0.219 0.39 0.249"></polygon>
                    <polygon id="Path" fill="#F7881C" points="0.354 0.249 0.639 0.219 0.657 0.219 0.372 0.249"></polygon>
                    <polygon id="Path" fill="#F7871B" points="0.336 0.249 0.621 0.219 0.639 0.219 0.354 0.249"></polygon>
                    <polygon id="Path" fill="#F7861B" points="0.318 0.249 0.603 0.219 0.621 0.219 0.336 0.249"></polygon>
                    <polygon id="Path" fill="#F7851A" points="0.3 0.249 0.585 0.219 0.603 0.219 0.318 0.249"></polygon>
                    <polygon id="Path" fill="#F6841A" points="0.282 0.249 0.567 0.219 0.585 0.219 0.3 0.249"></polygon>
                    <polygon id="Path" fill="#F68319" points="0.264 0.249 0.549 0.219 0.567 0.219 0.282 0.249"></polygon>
                    <polygon id="Path" fill="#F68218" points="0.246 0.249 0.528 0.219 0.549 0.219 0.264 0.249"></polygon>
                    <polygon id="Path" fill="#F68118" points="0.228 0.249 0.51 0.219 0.528 0.219 0.246 0.249"></polygon>
                    <polygon id="Path" fill="#F58017" points="0.21 0.249 0.492 0.219 0.51 0.219 0.228 0.249"></polygon>
                    <polygon id="Path" fill="#F57F17" points="0.192 0.249 0.474 0.219 0.492 0.219 0.21 0.249"></polygon>
                    <polygon id="Path" fill="#F57E16" points="0.174 0.249 0.456 0.219 0.474 0.219 0.192 0.249"></polygon>
                    <polygon id="Path" fill="#F57D16" points="0.156 0.249 0.438 0.219 0.456 0.219 0.174 0.249"></polygon>
                    <polygon id="Path" fill="#F47C15" points="0.138 0.249 0.42 0.219 0.438 0.219 0.156 0.249"></polygon>
                    <polygon id="Path" fill="#F47B15" points="0.12 0.249 0.402 0.219 0.42 0.219 0.138 0.249"></polygon>
                    <polygon id="Path" fill="#F47A14" points="0.099 0.249 0.384 0.219 0.402 0.219 0.12 0.249"></polygon>
                    <polygon id="Path" fill="#F47A14" points="0.384 0.219 0.099 0.249 0.099 0.219"></polygon>
                </g>
                <path d="M59.499,29.634 C59.3735042,29.5950233 59.2879817,29.4789092 59.2879817,29.3475 C59.2879817,29.2160908 59.3735042,29.0999767 59.499,29.061 L60.654,29.034 L60.654,29.034 C60.7771124,29.0744651 60.860325,29.189408 60.860325,29.319 C60.860325,29.448592 60.7771124,29.5635349 60.654,29.604 L59.499,29.634 Z" id="Path" fill="#000000"></path>
                <path d="M18.51,59.595 L12,59.595 C11.7514719,59.595 11.55,59.3935281 11.55,59.145 C11.55,58.8964719 11.7514719,58.695 12,58.695 L18.51,58.695 C18.7585281,58.695 18.96,58.8964719 18.96,59.145 C18.96,59.3935281 18.7585281,59.595 18.51,59.595 L18.51,59.595 Z" id="Path" fill="#000000"></path>
            </g>
        </g>
    </g>
</svg>