<?xml version="1.0" encoding="UTF-8"?>
<svg width="71px" height="66px" viewBox="0 0 71 66" version="1.1" xmlns="http://www.w3.org/2000/svg" xmlns:xlink="http://www.w3.org/1999/xlink">
    <!-- Generator: Sketch 60 (88103) - https://sketch.com -->
    <title>Group</title>
    <desc>Created with Sketch.</desc>
    <g id="Page-1" stroke="none" stroke-width="1" fill="none" fill-rule="evenodd">
        <g id="Icons" transform="translate(-74.000000, -85.000000)">
            <g id="Group" transform="translate(74.000000, 85.000000)">
                <circle id="Oval" fill="#FFECF0" cx="53.845" cy="16.335" r="16.335"></circle>
                <circle id="Oval" fill="#B3DDD5" cx="13.915" cy="51.425" r="13.915"></circle>
                <path d="M11.9252183,28.8727996 L11.9252183,56.87 L55.4942852,56.87 L55.4942852,28.8727996 C56.7419274,28.8012752 57.7384279,27.7730459 57.7384279,26.507657 L57.7384279,20.2457834 C57.7384279,18.9341457 56.6709409,17.8666586 55.3593032,17.8666586 L49.3066248,17.8666586 L49.3066248,11.6542605 C49.3066248,10.6894888 48.8694122,9.78817482 48.1073824,9.18102476 C47.3238415,8.55774139 46.312821,8.33079956 45.3319161,8.55505251 L38.1741062,10.202263 C37.6304138,9.74085046 36.9361439,9.45152651 36.1681986,9.45152651 L31.113634,9.45152651 C30.3596709,9.45152651 29.6772321,9.73117047 29.1373041,10.178063 L22.0859741,8.55505251 C21.1034558,8.32918623 20.0940486,8.55827917 19.3115833,9.18156253 C18.5490158,9.78817482 18.1118032,10.6900266 18.1118032,11.6542605 L18.1118032,17.8666586 L12.0591248,17.8666586 C10.747487,17.8666586 9.68,18.9336079 9.68,20.2457834 L9.68,26.507657 C9.68053778,27.7735837 10.6775761,28.801813 11.9252183,28.8727996 Z M13.4912245,28.886244 L27.9966794,28.886244 L27.9966794,55.3039938 L13.4912245,55.3039938 L13.4912245,28.886244 Z M29.5632234,19.4326648 L37.719147,19.4326648 L37.719147,27.3202378 L29.5632234,27.3202378 L29.5632234,19.4326648 Z M37.719147,28.886244 L37.719147,54.8463457 L29.5632234,54.8463457 L29.5632234,28.886244 L37.719147,28.886244 Z M53.928279,55.3039938 L39.2851532,55.3039938 L39.2851532,28.886244 L53.928279,28.886244 L53.928279,55.3039938 L53.928279,55.3039938 Z M55.3598409,19.4326648 C55.8078091,19.4326648 56.1724218,19.7972775 56.1724218,20.2452456 L56.1724218,26.5071192 C56.1724218,26.9550873 55.8078091,27.3197 55.3598409,27.3197 L39.2851532,27.3197 L39.2851532,19.4326648 L55.3598409,19.4326648 Z M45.6830844,10.0812632 C46.1993501,9.96456562 46.7247581,10.081801 47.1318552,10.4060804 C47.5185167,10.7142265 47.7406186,11.168648 47.7406186,11.6542605 L47.7406186,17.4998948 L39.2851532,17.4998948 L39.2851532,12.5679433 C39.2851532,12.2253795 39.2163178,11.9016378 39.1136024,11.5934917 L45.6830844,10.0812632 Z M29.5632234,12.5679433 C29.5632234,11.7128782 30.2591066,11.0175327 31.1141718,11.0175327 L36.1687364,11.0175327 C37.0238016,11.0175327 37.7196848,11.7128782 37.7196848,12.5679433 L37.7196848,17.8671964 L29.5632234,17.8671964 L29.5632234,12.5679433 Z M19.6783471,11.6542605 C19.6783471,11.1697235 19.8999112,10.7142265 20.2871105,10.4060804 C20.6952832,10.0812632 21.2239178,9.96456562 21.7353436,10.0812632 L28.1779102,11.563914 C28.0692793,11.8806645 27.9972172,12.214624 27.9972172,12.5679433 L27.9972172,17.5004326 L19.6783471,17.5004326 L19.6783471,11.6542605 Z M11.246544,20.2457834 C11.246544,19.7978153 11.6111567,19.4332026 12.0591248,19.4332026 L27.9972172,19.4332026 L27.9972172,27.3207756 L12.0591248,27.3207756 C11.6111567,27.3207756 11.246544,26.9561629 11.246544,26.5081948 L11.246544,20.2457834 Z" id="Shape" fill="#000000" fill-rule="nonzero"></path>
            </g>
        </g>
    </g>
</svg>