<svg xmlns="http://www.w3.org/2000/svg" xmlns:xlink="http://www.w3.org/1999/xlink" width="1172" height="455" viewBox="0 0 1172 455"><defs><image id="qrtcb" style="width: 100%;height: 100%;" xlink:href="video-bg.png"/><clipPath id="qrtca"><path d="M304.23.51l682.324 20-120 434.081-682.324-60z"/></clipPath><linearGradient id="qrtcc" x1="184.23" x2="980.65" y1="227.55" y2="267.94" gradientUnits="userSpaceOnUse"><stop offset="0" stop-color="#f82e94"/><stop offset="1" stop-color="#ff9e33"/></linearGradient><linearGradient id="qrtcd" x1="578.79" x2="598.45" y1="207" y2="209.05" gradientUnits="userSpaceOnUse"><stop offset="0" stop-color="#f82e94"/><stop offset="1" stop-color="#ff9e33"/></linearGradient></defs><g><g><g><g><g><g opacity=".78"><g clip-path="url(&quot;#qrtca&quot;)"><use xlink:href="#qrtcb"/></g></g><g opacity=".78"><path fill="url(#qrtcc)" d="M304.23.51l682.324 20-120 434.081-682.324-60z"/></g></g><g opacity=".78" transform="rotate(-2 584.5 208.5)"><path fill="none" stroke="#fff" stroke-miterlimit="50" d="M235.45 17.05v0h697.324v382.081H235.45v0z"/></g></g></g><g><path fill="#f49937" d="M131.5 144.25l-3.233 1.7.618-3.6-2.616-2.55 3.615-.525L131.5 136l1.616 3.275 3.615.525-2.616 2.55.618 3.6z"/></g><g><path fill="none" stroke="#f1556f" stroke-miterlimit="50" d="M194.5 219.25v0l-3.233 1.7v0l.618-3.6v0l-2.616-2.55v0l3.615-.525v0L194.5 211v0l1.616 3.275v0l3.615.525v0l-2.616 2.55v0l.618 3.6v0z"/></g><g><path fill="#ef2f8e" d="M54.5 209.25l-3.233 1.7.618-3.6-2.616-2.55 3.615-.525L54.5 201l1.616 3.275 3.615.525-2.616 2.55.618 3.6z"/></g><g><path fill="none" stroke="#f1556f" stroke-miterlimit="50" d="M1101.5 242.25v0l-3.233 1.7v0l.618-3.6v0l-2.616-2.55v0l3.615-.525v0L1101.5 234v0l1.616 3.275v0l3.615.525v0l-2.616 2.55v0l.618 3.6v0z"/></g><g><path fill="none" stroke="#f49937" stroke-miterlimit="50" d="M1004.5 197.25v0l-3.233 1.7v0l.618-3.6v0l-2.616-2.55v0l3.615-.525v0L1004.5 189v0l1.616 3.275v0l3.615.525v0l-2.616 2.55v0l.618 3.6v0z"/></g><g><path fill="#ef2f8e" d="M984.5 297.25l-3.233 1.7.618-3.6-2.616-2.55 3.615-.525L984.5 289l1.616 3.275 3.615.525-2.616 2.55.618 3.6z"/></g><g transform="matrix(0 -1 -1 0 1286.5 1286.5)"><g><path fill="none" stroke="#fff" stroke-dasharray="1 5" stroke-linecap="round" stroke-linejoin="round" stroke-miterlimit="50" d="M1021 115.5v180"/></g><g><path fill="none" stroke="#fff" stroke-linecap="round" stroke-linejoin="round" stroke-miterlimit="50" d="M1021 305.5v110"/></g></g><g transform="rotate(-90 151 175.5)"><g><path fill="none" stroke="#fff" stroke-dasharray="1 5" stroke-linecap="round" stroke-linejoin="round" stroke-miterlimit="50" d="M151 25.5v180"/></g><g><path fill="none" stroke="#fff" stroke-linecap="round" stroke-linejoin="round" stroke-miterlimit="50" d="M151 215.5v110"/></g></g><g transform="rotate(15 982 112)"><g><path fill="none" stroke="#fff" stroke-linecap="square" stroke-miterlimit="50" d="M982.19 51.56v77.974"/></g><g><path fill="none" stroke="#fff" stroke-dasharray="1 5" stroke-linecap="square" stroke-miterlimit="50" d="M982.19 135.89v36.403"/></g></g><g transform="rotate(-162 190 313)"><g><path fill="none" stroke="#fff" stroke-linecap="square" stroke-miterlimit="50" d="M190.19 251.56v77.974"/></g><g><path fill="none" stroke="#fff" stroke-dasharray="1 5" stroke-linecap="square" stroke-miterlimit="50" d="M190.19 335.89v36.403"/></g></g></g></g></svg>