<svg xmlns="http://www.w3.org/2000/svg" xmlns:xlink="http://www.w3.org/1999/xlink" width="18" height="26" viewBox="0 0 18 26"><defs><path id="yihma" d="M1264.493 7500.64c1.554 0 2.382 1.82 1.395 2.994l-4.672 5.469a1.821 1.821 0 1 1-2.79-2.344c5.022-5.882 4.95-6.12 6.067-6.12m10.75 11.315a1.81 1.81 0 0 1-.409 1.366l-6.363 7.578a1.823 1.823 0 1 1-2.794-2.343l4.962-5.908a.443.443 0 0 0-.055-.625l-1.9-1.593c-4.124 4.913-4.132 5.223-5.237 5.223a1.824 1.824 0 0 1-1.396-2.995l3.903-4.649c-.882-1.471.599-3.255 2.215-2.637l1.66-1.977a.443.443 0 0 0-.055-.624l-4.235-3.552a1.824 1.824 0 0 1 2.344-2.792c6.393 5.36 6.453 5.197 6.55 6.275.042.465-.087.985-.41 1.37l-2.994 3.565c3.785 3.174 4.172 3.268 4.214 4.318z"/></defs><g><g transform="translate(-1258 -7496)"><use fill="#6a6a6a" xlink:href="#yihma"/></g></g></svg>