<svg xmlns="http://www.w3.org/2000/svg" xmlns:xlink="http://www.w3.org/1999/xlink" width="19" height="18" viewBox="0 0 19 18"><defs><path id="phv1a" d="M308.456 578.89h-1.386"/><path id="phv1b" d="M307.695 576.62h-.995"/><path id="phv1c" d="M297.88 573.623c4.029-1.377 8.825-1.292 8.825-1.292 1.847 0 1.445 2.024.12 2.024h-.532"/><path id="phv1d" d="M297.88 580.473s3.798 2.989 3.526 6.116c-.207 2.372 4.192.558 1.743-5.43h5.428c1.514 0 1.51-2.27 0-2.27h-.117c1.514 0 1.51-2.27 0-2.27h-.76c1.514 0 1.51-2.269 0-2.269h-.876"/><path id="phv1e" d="M293.38 581.13v-9h4.5v9z"/></defs><g><g transform="translate(-292 -571)"><g><use fill="#fff" fill-opacity="0" stroke="#8c8c8c" stroke-linecap="round" stroke-linejoin="round" stroke-miterlimit="50" xlink:href="#phv1a"/></g><g><use fill="#fff" fill-opacity="0" stroke="#8c8c8c" stroke-linecap="round" stroke-linejoin="round" stroke-miterlimit="50" xlink:href="#phv1b"/></g><g><use fill="#fff" fill-opacity="0" stroke="#8c8c8c" stroke-linecap="round" stroke-linejoin="round" stroke-miterlimit="50" xlink:href="#phv1c"/></g><g><use fill="#fff" fill-opacity="0" stroke="#8c8c8c" stroke-linecap="round" stroke-linejoin="round" stroke-miterlimit="50" xlink:href="#phv1d"/></g><g><use fill="#fff" fill-opacity="0" stroke="#8c8c8c" stroke-linecap="round" stroke-linejoin="round" stroke-miterlimit="50" xlink:href="#phv1e"/></g></g></g></svg>