<svg xmlns="http://www.w3.org/2000/svg" xmlns:xlink="http://www.w3.org/1999/xlink" width="10" height="17" viewBox="0 0 10 17"><defs><path id="q6p8a" d="M557.623 365.004l-2.398-.004c-2.695 0-4.436 1.642-4.436 4.184v1.929h-2.412c-.208 0-.377.155-.377.347v2.794c0 .192.169.347.377.347h2.412v7.052c0 .192.169.347.377.347h3.146c.209 0 .378-.155.378-.347v-7.052h2.82c.208 0 .376-.155.376-.347l.002-2.794c0-.092-.04-.18-.11-.246a.395.395 0 0 0-.268-.101h-2.82v-1.636c0-.785.203-1.184 1.317-1.184l1.616-.001c.208 0 .377-.155.377-.347v-2.595c0-.191-.169-.346-.377-.346z"/></defs><g><g transform="translate(-548 -365)"><use fill="#111" xlink:href="#q6p8a"/></g></g></svg>