<svg xmlns="http://www.w3.org/2000/svg" xmlns:xlink="http://www.w3.org/1999/xlink" width="16" height="16" viewBox="0 0 16 16"><defs><path id="19g5a" d="M1158 278c-4.412 0-8 3.588-8 8 0 4.41 3.588 8 8 8 4.41 0 8-3.59 8-8 0-4.412-3.59-8-8-8z"/><path id="19g5b" d="M1159.09 284.61v5.56h-1.97v-5.56zm-2.09-1.52c0-.61.49-1.09 1.1-1.09.63 0 1.1.48 1.1 1.09 0 .63-.47 1.09-1.1 1.09-.63 0-1.1-.46-1.1-1.09z"/></defs><g><g transform="translate(-1150 -278)"><g><use xlink:href="#19g5a"/></g><g><use fill="#fff" xlink:href="#19g5b"/></g></g></g></svg>