<svg xmlns="http://www.w3.org/2000/svg" xmlns:xlink="http://www.w3.org/1999/xlink" width="14" height="14" viewBox="0 0 14 14"><defs><path id="9qmea" d="M546.178 539h3v-9.446h-3zm1.52-14c-1.026 0-1.698.705-1.698 1.632 0 .907.652 1.633 1.659 1.633h.02c1.046 0 1.697-.726 1.697-1.633-.02-.927-.65-1.632-1.677-1.632zm8.847 4.332c-1.594 0-2.306.918-2.705 1.56v.031h-.02l.02-.03v-1.34h-3.002c.04.887 0 9.447 0 9.447h3.002v-5.275c0-.283.02-.564.1-.766.217-.565.71-1.149 1.54-1.149 1.085 0 1.52.867 1.52 2.136V539h3v-5.417c0-2.901-1.48-4.251-3.455-4.251z"/></defs><g><g transform="translate(-546 -525)"><use fill="#111" xlink:href="#9qmea"/></g></g></svg>