<svg xmlns="http://www.w3.org/2000/svg" xmlns:xlink="http://www.w3.org/1999/xlink" width="78" height="75" viewBox="0 0 78 75"><defs><path id="u01qd" d="M70 75V0h78v75z"/><path id="u01qa" d="M129.815 25c.499 0 .921.437.96.953v9.807a.945.945 0 0 1-.269.675l-14.743 15.247a.985.985 0 0 1-.653.278h-.384c.5 0 .922-.436.922-.992-.077-2.343 0-8.18.038-9.768a.951.951 0 0 0-.268-.675l-6.028-6.234 8.715-9.013a.985.985 0 0 1 .653-.278h11.057z"/><path id="u01qf" d="M109.36 52h21.48V25h-21.48z"/><path id="u01qb" d="M99.979 25a.91.91 0 0 1 .652.278l8.754 9.053-6.028 6.234c-.192.159-.269.397-.269.675 0 1.588.077 7.425.039 9.767 0 .517.422.993.921.953h-.384a.881.881 0 0 1-.652-.278L88.269 36.435A1.051 1.051 0 0 1 88 35.76v-9.807c0-.516.422-.953.921-.953h11.058z"/><path id="u01qh" d="M88 52h21.48V25H88z"/><path id="u01qc" d="M115.606 51.006c0 .517-.422.993-.959.953H104.05c-.499 0-.921-.436-.921-.992.077-2.343 0-8.18-.039-9.768 0-.238.077-.476.269-.675l6.028-6.234 5.989 6.274c.192.159.269.397.269.675 0 1.588-.077 7.425-.039 9.767z"/><path id="u01qj" d="M103 52h12.72V34.24H103z"/><clipPath id="u01qe"><use xlink:href="#u01qa"/></clipPath><clipPath id="u01qg"><use xlink:href="#u01qb"/></clipPath><clipPath id="u01qi"><use xlink:href="#u01qc"/></clipPath></defs><g><g transform="translate(-70)"><g><use fill="#fff" xlink:href="#u01qd"/></g><g><g><g/><g clip-path="url(#u01qe)"><use fill="#6d6d6d" xlink:href="#u01qf"/></g></g><g><g/><g clip-path="url(#u01qg)"><use fill="#6d6d6d" xlink:href="#u01qh"/></g></g><g><g/><g clip-path="url(#u01qi)"><use fill="#2f2f2f" xlink:href="#u01qj"/></g></g></g></g></g></svg>