<svg xmlns="http://www.w3.org/2000/svg" xmlns:xlink="http://www.w3.org/1999/xlink" width="65" height="50" viewBox="0 0 65 50"><defs><path id="k74ra" d="M111.805 23.684h-11.057c-.23 0-.5.118-.653.274l-8.715 8.895 6.028 6.152a.928.928 0 0 1 .268.666c-.038 1.567-.115 7.327-.038 9.64 0 .548-.422.979-.921.979h.384c.23 0 .499-.118.652-.275l14.743-15.046a.928.928 0 0 0 .269-.666v-9.678c-.039-.51-.46-.94-.96-.94z"/><path id="k74rb" d="M85.127 49.35c.038-2.312-.039-8.072-.039-9.64 0-.274.077-.51.27-.666l6.027-6.152-8.754-8.934a.917.917 0 0 0-.652-.274H70.92c-.499 0-.921.431-.921.94v9.679c0 .235.115.51.269.666l14.743 15.046a.89.89 0 0 0 .652.275h.384c-.499.039-.921-.431-.921-.94z"/><path id="k74rc" d="M97.606 49.348c-.038-2.312.038-8.072.038-9.639 0-.274-.076-.51-.268-.666l-5.99-6.191-6.027 6.152a.928.928 0 0 0-.269.666c.038 1.567.115 7.327.038 9.639 0 .549.423.98.922.98h10.596c.538.039.96-.431.96-.94z"/></defs><g><g transform="translate(-59 -14)"><g><g><use fill="#303030" xlink:href="#k74ra"/></g><g><use fill="#303030" xlink:href="#k74rb"/></g><g><use fill="#878787" xlink:href="#k74rc"/></g></g></g></g></svg>