<svg xmlns="http://www.w3.org/2000/svg" xmlns:xlink="http://www.w3.org/1999/xlink" width="13" height="21" viewBox="0 0 13 21"><defs><path id="iqira" d="M182.077 638.359c0 3.12-5.648 11.703-5.648 11.703s-5.649-8.584-5.649-11.703a5.649 5.649 0 0 1 11.297 0z"/><path id="iqirb" d="M174.69 637.745a1.745 1.745 0 1 1 3.49 0 1.745 1.745 0 0 1-3.49 0z"/><path id="iqirc" d="M179.05 649.024c1.623.318 2.719.923 2.719 1.617 0 1.027-2.388 1.856-5.335 1.856s-5.334-.83-5.334-1.856c0-.697 1.106-1.304 2.74-1.621"/></defs><g><g transform="translate(-170 -632)"><g><use fill="#fff" fill-opacity="0" stroke="#111" stroke-linecap="round" stroke-linejoin="round" stroke-miterlimit="50" xlink:href="#iqira"/></g><g><use fill="#fff" fill-opacity="0" stroke="#111" stroke-linecap="round" stroke-linejoin="round" stroke-miterlimit="50" xlink:href="#iqirb"/></g><g><use fill="#fff" fill-opacity="0" stroke="#111" stroke-linecap="round" stroke-linejoin="round" stroke-miterlimit="50" xlink:href="#iqirc"/></g></g></g></svg>