<svg xmlns="http://www.w3.org/2000/svg" xmlns:xlink="http://www.w3.org/1999/xlink" width="24" height="16" viewBox="0 0 24 16"><defs><path id="h18aa" d="M882.291 267.59h-5.641a.503.503 0 0 0-.333.142l-4.447 4.599 3.075 3.18a.483.483 0 0 1 .138.345c-.02.81-.06 3.788-.02 4.983 0 .284-.215.507-.47.507h.196c.117 0 .254-.061.333-.142l7.522-7.78a.483.483 0 0 0 .137-.344v-5.004c-.02-.263-.235-.486-.49-.486z"/><path id="h18ab" d="M868.678 280.86c.02-1.196-.02-4.174-.02-4.984 0-.142.04-.263.138-.345l3.075-3.18-4.466-4.62a.465.465 0 0 0-.333-.141h-5.642a.485.485 0 0 0-.47.486v5.004c0 .122.059.264.137.345l7.522 7.779a.451.451 0 0 0 .333.142h.196c-.254.02-.47-.223-.47-.486z"/><path id="h18ac" d="M875.046 280.859c-.02-1.195.02-4.173.02-4.984 0-.142-.04-.263-.138-.344l-3.055-3.201-3.076 3.18a.483.483 0 0 0-.137.345c.02.81.059 3.788.02 4.984 0 .283.215.506.47.506h5.406c.275.02.49-.223.49-.486z"/><path id="h18ad" d="M860 287v-24h24v24z"/></defs><g><g transform="translate(-860 -267)"><g><use fill="#fff" xlink:href="#h18aa"/><use fill="#fff" fill-opacity="0" stroke="#111" stroke-miterlimit="50" xlink:href="#h18aa"/></g><g><use fill="#fff" xlink:href="#h18ab"/><use fill="#fff" fill-opacity="0" stroke="#111" stroke-miterlimit="50" xlink:href="#h18ab"/></g><g><use fill="#fff" xlink:href="#h18ac"/><use fill="#fff" fill-opacity="0" stroke="#111" stroke-miterlimit="50" xlink:href="#h18ac"/></g><g><use fill="#d8d8d8" xlink:href="#h18ad"/></g></g></g></svg>