<svg xmlns="http://www.w3.org/2000/svg" xmlns:xlink="http://www.w3.org/1999/xlink" width="70" height="71" viewBox="0 0 70 71"><defs><path id="l7iaa" d="M756.46 1796.154l5.687-9.934h18.792l6.147 9.934-6.147 4.335v6.235H761.27v-5.712z"/><path id="l7iab" d="M762.58 1808.77h19.216v24.136H762.58z"/><path id="l7iac" d="M760.6 1773.709s1.185-5.313 5.375-7.473c4.19-2.16 10.109-.964 12.864 2.404 2.755 3.368 2.3 7.141 2.3 7.141s-6.21-.363-7.541-2.383c-1.331-2.02-4.097 1.011-8.314 1.011-4.218 0-4.684-.7-4.684-.7z"/><path id="l7iad" d="M747.83 1798.15h-2.333v-2.331h-2.333v2.33H738.5v-9.324h9.33zm-4.66-15.843l4.187 4.174h-8.375zm7.817 4.523l-6.998-6.998a1.165 1.165 0 0 0-1.65 0l-6.997 6.998a1.166 1.166 0 0 0 .825 1.99v10.497c0 .645.522 1.167 1.166 1.167h11.663c.644 0 1.166-.522 1.166-1.167v-10.496a1.166 1.166 0 0 0 .825-1.991z"/><path id="l7iae" d="M796.812 1807.485h-10.974l-4.577-8.22 1.825-1.46.457-.366 3.953 7.114c.205.37.595.6 1.019.6h11.595a3.504 3.504 0 0 1-3.298 2.332zm-16.322-18.825l3.156 5.701-.49.393-1.089.874-1.578 1.266zm-2.343 16.483h-16.321v-19.817h16.32zm0 24.502h-6.995v-16.328h-2.332v16.328h-6.994v-22.16h16.32zm-17.455-55.349c1.297.345 2.669.533 4.048.533 2.58 0 5.078-.62 7.156-1.76a8.096 8.096 0 0 0 6.251 2.927c.294 0 .586-.042.878-.075-1.013 4.055-4.675 7.072-9.039 7.072-4.929 0-8.966-3.847-9.294-8.697zm.142-2.413c.026-.135.062-.267.094-.4.04-.17.08-.342.13-.508.022-.077.05-.15.074-.227.077-.232.157-.463.252-.687l.023-.054a9.367 9.367 0 0 1 5.79-5.246l.033-.01c.257-.08.519-.145.785-.203.046-.009.092-.022.139-.031.239-.048.482-.083.728-.112.063-.007.125-.019.19-.025.301-.031.605-.047.914-.047.32 0 .637.016.95.047.093.01.182.03.274.042.217.03.434.056.646.1.111.022.217.057.327.082.189.046.38.089.564.146.118.036.23.085.345.126.17.06.343.117.508.187.12.05.235.113.351.168.154.073.312.14.46.222.119.065.23.138.344.207.142.085.286.165.424.258.112.074.216.16.323.239.132.096.267.19.393.294.105.086.2.18.302.271.121.109.245.214.36.328.097.096.184.2.277.301.11.119.222.233.326.357.087.106.166.22.25.329.096.127.196.252.287.385.078.114.147.236.22.355.083.136.17.269.248.409.067.123.124.253.187.38.07.143.145.283.208.43.056.13.1.265.15.398.057.15.118.3.167.454.043.136.075.277.112.417.042.156.087.311.121.471.03.143.048.29.071.434.026.162.057.322.075.486.015.146.019.294.028.442.01.149.02.296.022.445a5.828 5.828 0 0 1-6.108-2.643 1.164 1.164 0 0 0-1.644-.351c-1.86 1.255-4.28 1.948-6.814 1.948-1.344 0-2.68-.199-3.911-.576l.005-.038zm-1.351 25.011l-1.58-1.266-1.087-.874-.49-.393 3.157-5.7zm-5.348 10.591H743.16a3.504 3.504 0 0 1-3.299-2.332h11.596c.423 0 .814-.23 1.019-.6l3.952-7.115.457.365 1.826 1.461zm47.341-4.665h-12.28l-3.811-6.859.492-.393c.444-.355.568-.98.292-1.477l-5.832-10.497c-.035-.063-.086-.11-.13-.163-.03-.038-.055-.08-.09-.112a1.159 1.159 0 0 0-.342-.23c-.014-.006-.03-.006-.043-.01a1.163 1.163 0 0 0-.373-.076c-.016-.002-.027-.01-.042-.01h-2.363a11.641 11.641 0 0 0 4.653-8.515c0-.004.003-.01.004-.014.02-.266.038-.532.038-.801 0-6.431-5.232-11.663-11.663-11.663-.396 0-.787.021-1.173.06-.054.005-.105.016-.158.022-.34.038-.677.087-1.008.154l-.045.01a11.562 11.562 0 0 0-8.355 6.868l-.008.02c-.12.284-.224.575-.32.871-.029.09-.062.177-.09.266-.06.204-.11.413-.16.622-.044.18-.09.356-.126.539-.023.115-.035.233-.054.35-.044.268-.086.536-.112.81l-.001.01v.005c-.03.35-.053.7-.053 1.056 0 3.817 1.852 7.202 4.696 9.33h-2.363c-.015 0-.028.008-.043.008-.126.005-.248.03-.363.074-.017.006-.036.006-.054.013-.126.053-.239.133-.339.228-.036.034-.06.076-.091.115-.044.053-.096.1-.13.162l-5.83 10.496a1.166 1.166 0 0 0 .29 1.478l.493.393-3.813 6.86h-12.28c-.643 0-1.166.522-1.166 1.167a5.838 5.838 0 0 0 5.831 5.831h11.663c.424 0 .813-.229 1.02-.6l3.646-6.545v28.138c0 .645.522 1.167 1.166 1.167h18.66c.644 0 1.167-.522 1.167-1.167v-28.138l3.646 6.546c.206.37.596.6 1.02.6h11.662a5.838 5.838 0 0 0 5.831-5.832c0-.645-.522-1.167-1.166-1.167z"/><path id="l7iaf" d="M798.422 1783.927c-.42.121-.74.464-.824.893l-.756 3.772a1.17 1.17 0 0 0 .1.75l.907 1.81-.906 1.812a1.165 1.165 0 0 0 0 1.043l.732 1.463-2.023 1.514v-12.07c0-.494-.312-.935-.779-1.098a5.84 5.84 0 0 1-3.89-5.492 5.84 5.84 0 0 1 5.836-5.83 5.84 5.84 0 0 1 5.837 5.83 5.854 5.854 0 0 1-4.234 5.603zm6.556-5.603c0-4.5-3.662-8.164-8.164-8.164s-8.164 3.663-8.164 8.164a8.175 8.175 0 0 0 4.665 7.37v13.623a1.168 1.168 0 0 0 1.866.933l4.665-3.498c.452-.339.595-.95.343-1.455l-.905-1.811.905-1.811a1.166 1.166 0 0 0 0-1.044l-.988-1.975.544-2.718c3.115-1.2 5.233-4.235 5.233-7.614z"/><path id="l7iag" d="M740.83 1793.49v-2.33h2.33v2.33z"/><path id="l7iah" d="M795.65 1777.16v-2.33h2.33v2.33z"/></defs><g><g transform="translate(-735 -1762)"><g><use fill="#fff686" xlink:href="#l7iaa"/></g><g><use fill="#f8f4e7" xlink:href="#l7iab"/></g><g><use fill="#f8f4e7" xlink:href="#l7iac"/></g><g><use fill="#2e2e2e" xlink:href="#l7iad"/></g><g><use fill="#2e2e2e" xlink:href="#l7iae"/></g><g><use fill="#2e2e2e" xlink:href="#l7iaf"/></g><g><use fill="#2e2e2e" xlink:href="#l7iag"/></g><g><use fill="#2e2e2e" xlink:href="#l7iah"/></g></g></g></svg>