<svg xmlns="http://www.w3.org/2000/svg" xmlns:xlink="http://www.w3.org/1999/xlink" width="19" height="18" viewBox="0 0 19 18"><defs><path id="5vnka" d="M886.456 108.16h-1.386"/><path id="5vnkb" d="M885.695 110.42h-.995"/><path id="5vnkc" d="M875.88 113.421c4.029 1.375 8.825 1.29 8.825 1.29 1.84 0 1.45-2.021.12-2.021h-.532"/><path id="5vnkd" d="M875.88 106.576s3.798-2.986 3.526-6.109c-.207-2.37 4.192-.557 1.743 5.424h5.428c1.514 0 1.51 2.267 0 2.267h-.117c1.526 0 1.486 2.267 0 2.267h-.76c1.514 0 1.51 2.267 0 2.267h-.876"/><path id="5vnke" d="M871.38 114.88v-9h4.5v9z"/></defs><g><g transform="translate(-870 -98)"><g><g><use fill="#fff" fill-opacity="0" stroke="#8c8c8c" stroke-linecap="round" stroke-linejoin="round" stroke-miterlimit="50" xlink:href="#5vnka"/></g><g><use fill="#fff" fill-opacity="0" stroke="#8c8c8c" stroke-linecap="round" stroke-linejoin="round" stroke-miterlimit="50" xlink:href="#5vnkb"/></g><g><use fill="#fff" fill-opacity="0" stroke="#8c8c8c" stroke-linecap="round" stroke-linejoin="round" stroke-miterlimit="50" xlink:href="#5vnkc"/></g><g><use fill="#fff" fill-opacity="0" stroke="#8c8c8c" stroke-linecap="round" stroke-linejoin="round" stroke-miterlimit="50" xlink:href="#5vnkd"/></g><g><use fill="#fff" fill-opacity="0" stroke="#8c8c8c" stroke-linecap="round" stroke-linejoin="round" stroke-miterlimit="50" xlink:href="#5vnke"/></g></g><g/></g></g></svg>