<svg xmlns="http://www.w3.org/2000/svg" xmlns:xlink="http://www.w3.org/1999/xlink" width="17" height="14" viewBox="0 0 17 14"><defs><path id="yd5ea" d="M707 2162v-24h24v24z"/><path id="yd5eb" d="M727.924 2144.694a7.067 7.067 0 0 1-1.962.532c-.006-.013-.012-.025-.016-.037a3.562 3.562 0 0 0 1.57-1.92c-.21.13-1.23.704-2.225.89a3.539 3.539 0 0 0-2.624-1.159c-2.196 0-3.548 1.802-3.548 3.55 0 .135.064.698.075.73a9.412 9.412 0 0 1-7.252-3.661c-1.207 2.197.057 4.102.924 4.781a3.697 3.697 0 0 1-1.419-.307 3.713 3.713 0 0 0 2.924 3.424c-.644.18-1.418.043-1.717-.034a3.714 3.714 0 0 0 3.335 2.523c-2.38 1.75-4.948 1.57-4.989 1.57a9.897 9.897 0 0 0 5.16 1.424c6.914-.045 10.464-6.181 10.042-10.584a3.568 3.568 0 0 0 1.722-1.722"/></defs><g><g transform="translate(-711 -2143)"><g><use fill="#d8d8d8" xlink:href="#yd5ea"/></g><g><use fill="#6a6a6a" xlink:href="#yd5eb"/></g></g></g></svg>