<svg xmlns="http://www.w3.org/2000/svg" xmlns:xlink="http://www.w3.org/1999/xlink" width="19" height="15" viewBox="0 0 19 15"><defs><path id="oq0oa" d="M533 491v-5h4v5zm2.05-1.72a.71.71 0 1 0 0-1.42.71.71 0 0 0 0 1.42z"/><path id="oq0ob" d="M529.297 494.323a3.59 3.59 0 0 1-3.587-3.586 3.59 3.59 0 0 1 3.587-3.587 3.59 3.59 0 0 1 3.586 3.587 3.59 3.59 0 0 1-3.586 3.586z"/><path id="oq0oc" d="M534.34 488.57a.71.71 0 1 1 1.42 0 .71.71 0 0 1-1.42 0z"/><path id="oq0oe" d="M529.267 488.561a2.103 2.103 0 0 0-2.176 2.176"/><path id="oq0of" d="M523.62 495.76c-.526 0-.91-.186-1.197-.512-.4-.451-.351-1.057-.351-1.2v-6.57c0-1.35 1.006-1.772 1.6-1.798h2.864c.097-1.44.575-2.88 1.914-2.88h2.521c1.34 0 1.817 1.44 1.914 2.88h4.206c1.174 0 1.53 1.05 1.569 1.608l-.028 6.777c0 1.182-.995 1.641-1.537 1.695h-13.474z"/><clipPath id="oq0od"><use fill="#fff" xlink:href="#oq0oa"/></clipPath></defs><g><g transform="translate(-521 -482)"><g><g><use fill="#fff" fill-opacity="0" stroke="#6a9c78" stroke-linecap="round" stroke-linejoin="round" stroke-miterlimit="50" xlink:href="#oq0ob"/></g><g><use fill="#fff" fill-opacity="0" stroke="#6a9c78" stroke-linecap="round" stroke-linejoin="round" stroke-miterlimit="50" stroke-width="2" clip-path="url(&quot;#oq0od&quot;)" xlink:href="#oq0oc"/></g><g><use fill="#fff" fill-opacity="0" stroke="#6a9c78" stroke-linecap="round" stroke-linejoin="round" stroke-miterlimit="50" xlink:href="#oq0oe"/></g><g><use fill="#fff" fill-opacity="0" stroke="#6a9c78" stroke-linecap="round" stroke-linejoin="round" stroke-miterlimit="50" xlink:href="#oq0of"/></g></g><g/></g></g></svg>