<svg xmlns="http://www.w3.org/2000/svg" xmlns:xlink="http://www.w3.org/1999/xlink" width="39" height="39" viewBox="0 0 39 39"><defs><path id="pyqka" d="M521 197.5c0-10.77 8.73-19.5 19.5-19.5s19.5 8.73 19.5 19.5-8.73 19.5-19.5 19.5-19.5-8.73-19.5-19.5z"/><path id="pyqkb" d="M547.177 205.027c-.037-2.386.037-8.332.037-9.95 0-.282-.074-.525-.261-.687l-5.827-6.39-5.865 6.35a.99.99 0 0 0-.261.687c.037 1.618.112 7.563.037 9.95 0 .566.411 1.01.897 1.01h10.31c.522.041.933-.444.933-.97z"/></defs><g><g transform="translate(-521 -178)"><g><use fill="#cacaca" xlink:href="#pyqka"/></g><g><use fill="#fff" xlink:href="#pyqkb"/></g></g></g></svg>