<svg xmlns="http://www.w3.org/2000/svg" xmlns:xlink="http://www.w3.org/1999/xlink" width="19" height="19" viewBox="0 0 19 19"><defs><path id="9se7a" d="M976.3 697.16a8.57 8.57 0 1 1 17.14 0 8.57 8.57 0 0 1-17.14 0z"/><path id="9se7b" d="M979.285 692.21s-1.146 2.63.24 2.14c1.026-.361 1.116-.783 1.116-.783l.603-1.055s.09 1.477.211 1.688c.12.21.603.814.784-.03.332-1.552.388-1.99.96-1.99.574 0 1.753-.452 1.873.935.12 1.386-.12.572-.874.934-.754.362-.934 1.628-.241 1.779.426.092 1.183.367 1.703.565 1.683.642 1.733 2.498 1.733 4.137 0 0 .03 1.9.724 1.447.693-.452 2.592-3.406 2.2-4.522-.392-1.115-.422-1.236.302-1.627.723-.392 1.236-.875 1.205-1.417"/><path id="9se7c" d="M977.87 699.321s.211-2.392.693-2.01c.483.383.693.383 1.116.805.422.422 2.23.663 1.627 1.205-.602.543-.834.512-1.657 2.924"/></defs><g><g transform="translate(-975 -688)"><g><g><use fill="#fff" fill-opacity="0" stroke="#fff" stroke-linecap="round" stroke-linejoin="round" stroke-miterlimit="50" xlink:href="#9se7a"/></g><g><use fill="#fff" fill-opacity="0" stroke="#fff" stroke-linecap="round" stroke-linejoin="round" stroke-miterlimit="50" xlink:href="#9se7b"/></g><g><use fill="#fff" fill-opacity="0" stroke="#fff" stroke-linecap="round" stroke-linejoin="round" stroke-miterlimit="50" xlink:href="#9se7c"/></g></g><g/></g></g></svg>