<svg xmlns="http://www.w3.org/2000/svg" xmlns:xlink="http://www.w3.org/1999/xlink" width="1440" height="1200" viewBox="0 0 1440 1200">
  <defs>
    <clipPath id="clip-path">
      <rect id="Rectangle_1" data-name="Rectangle 1" width="1440" height="1200" transform="translate(345 221)" fill="none"/>
    </clipPath>
  </defs>
  <g id="Mask_Group_1" data-name="Mask Group 1" transform="translate(-345 -221)" clip-path="url(#clip-path)">
    <g id="Page-1" transform="translate(1785.07 1421) rotate(-180)">
      <g id="About-" transform="translate(0 -2050)">
        <g id="Combined-Shape-11" transform="translate(-19 2050)">
          <g id="Combined-Shape-10">
            <path id="Combined-Shape" d="M1459,1118h.07v56.37c-.02,0-.03-.01-.05-.01-.42.17-.85.33-1.28.5.17.34.34.68.58,1.17.25-.02.5-.03.75-.05v7.54c-7.13-.24-14.5.77-21.4-.61-4.98,1.6-11.95-.43-15.91,1.16-4.43-.26-8.08-.48-11.85-.7-.54.6-.93,1.04-1.66,1.86-1.05-.76-1.89-1.37-2.12-1.54-7.62-.11-13.23-1.43-19.28-.86-2.87.26-5.51.89-8.32,1.37-.48-.16-1.16-.39-1.82-.62-1,.39-1.92.74-2.48.96.59.68,1.11,1.27,2.16,2.49-2.13-.72-2.8-.95-4.84-1.65,1.05,1.24,1.62,1.91,1.96,2.32,3.68-.1,6.67-.41,9.43-.22,11.91.83,11.88.88,26.59-.71,1.49-.16,3.12-.1,4.66-.2,4.41-.29,8.67,2.05,13.14.1,4.85-.03,9.7-.08,14.55-.09,4.88-.02,9.87-.25,14.6.08a11.258,11.258,0,0,0,2.59-.14v6.13c-7.76.09-15.53-.56-23.13.67-1.89-1.24-4.91-.07-7.44-.34-2.9-.31-5.84-.57-9.22-.9-.12.05-.81.29-1.94.69a38.1,38.1,0,0,0-19.91-.51c.57.26,1.15.52,2.67,1.2-7.52-.35-14.14.52-19.06-.48-7.14-.4-12.06,2.28-18.51.43a10.824,10.824,0,0,0-3.81,0c-6.04,1.21-12.49.61-18.76.69a42.958,42.958,0,0,1-8.2-.54c-2.77-.48-7.78.93-10.54.44-5.06-.9-10.1-.23-13.98-.67a63.565,63.565,0,0,1-6.75-1.33c-.37.12-1.03.33-2.12.67-1.87-.32-4.03-.69-6.54-1.11v-3.24c-4.88.14-3.72,1.61-3.94,2.71h-3.54v-3.58c-2.72-.05-5.14-.09-8.53-.16.63.79,1.03,1.3,1.6,2.01-1.3.32-3.15.79-5.6,1.41,1.83.5,3.35.93,5.29,1.47-1.64.85-2.87,1.48-4.55,2.34-2.31-.82-4.09-1.46-6.9-2.46-.82,1.01-1.45,1.78-1.68,2.07-9.5,0-16.95.1-24.37-.03-4.98-.09-10.27.67-14.93-.63-4.13,1.22-9.76.22-13.9,1.42h-27.46a17.864,17.864,0,0,1-2.68,1.04c-2.05.49-4.26.87-6.46,1.32-1.44-.83-2.77-1.59-3.96-2.28-4.82-.5-9.03,1.81-13.58.14a21.791,21.791,0,0,1-11.24-.62c.64-.27,1.28-.54,1.91-.82-1.7-1.35-3.39-2.69-5.75-4.56v3.32c-3.77.46-8.14-.42-10.04,1.8.49.62,1.28,1.61,2.06,2.6-1.88.58-1.94-.37-3.62-.43-3.08.45-6.75.98-10.41,1.51-1.29-.3-2.57-.6-4.22-.98-.82.66-1.43,1.17-2.13,1.73-1.38-.51-2.72-1-3.99-1.46-1.25.74-2.5,1.49-3.97,2.36-.72-.67-1.18-1.1-1.64-1.53-1.09.51-2.18,1.02-4.19,1.97-.71-1.3-1.13-2.08-1.96-3.61-.78,1.53-1.18,2.3-1.74,3.39-2.37-.65-4.11-1.13-6.76-1.87a19.57,19.57,0,0,0-4.5.06,35.073,35.073,0,0,1-11.89,1.65l-2.94-1.08c-1.05.21-2.11.43-3.74.76-.84-.35-1.97-.82-3.78-1.57,4.14-.6,7.41-1.07,10.75-1.56-2.22-.61-4.34-1.21-6.2-1.73-2.88.19-5.75.37-9.31.6-.9-1.09-1.62-1.95-2.64-3.17h4.66c.21.2.43.41.64.62.44-.21.88-.42.81-.62h3.53c.58.49,1.18,1,1.88,1.58.63-1.78.63-1.78-2.17-3.01a27.5,27.5,0,0,0-3.24,1.43h-1.45v-1.9l-4.1-1.58c-8.08.89-16.88-.13-22.97,2.14-1.71-.42-2.73-.68-4.02-1-1.18.26-2.49.54-3.97.86-1.23-.27-2.54-.55-3.78-.82-4.37.78-4.38.71-11.35.82-2.63.04-5.12,1.12-7.93.15-2.314,1.1-5.461.36-8.181.56-3,.22-6.391-.49-9.1.71-.495.22-2.995-.37-4.546-.35-2.781.04-5.571.21-8.309.42-2.369.18-4.655.66-7.005.69-2.673.04-5.375-.29-9.144-.52l-12.372,1.44c-.6-.27-1.747-.81-2.638-1.22.424-.54.487-.93.791-.96,2.933-.3,5.3-1.1,8.748-1.01a110.743,110.743,0,0,0,20.875-1.4,9.028,9.028,0,0,1,1.884-.05c6.421.4,12.253-.78,18.487-.95a3.937,3.937,0,0,0-1.943-1.11c-.275.09-.563.17-.881.27a5.583,5.583,0,0,0-4.893-.4,46.091,46.091,0,0,1-11.968.59c-3.177-.17-6.1,1.29-9.142.08-2.832.89-6.5.58-9.642,1.02a5.389,5.389,0,0,0-1.287.43c-4.471-1.41-8.811-.72-13.786.18-.774-.4-1.686-.88-3.012-1.57h7.9c-.482-.45-.6-.76-.861-.78-3.285-.25-6.589-.47-10.723-.75.451.66.865,1.26,1.363,1.98-.249.04-1,.17-2.239.39-1.191-.95-2.312-1.85-3.677-2.95,2.418-.15,4.212-.26,6.712-.42-.19-.21-.372-.41-.555-.6-1.77.13-3.357.23-4.906.21-2.349-.03-4.638-.51-7.005-.69-2.739-.21-5.528-.38-8.309-.42-1.551-.02-4.051.57-4.545.35-2.709-1.2-6.095-.49-9.1-.71-2.72-.2-5.869.54-8.177-.56-2.812.97-5.3-.11-7.936-.15-6.972-.11-6.98-.04-11.349-.82-1.239.27-2.551.55-3.783.82-1.474-.32-2.784-.6-3.967-.86-1.29.32-2.314.58-4.014,1-6.1-2.27-14.9-1.24-22.971-2.14-.887.34-2.5.96-4.109,1.59,0,.62,0,1.25,0,1.88h-1.453a28.729,28.729,0,0,0-3.236-1.42c-2.8,1.23-2.8,1.23-2.166,3.01.692-.58,1.294-1.09,1.88-1.59h3.522c-.065.21.373.42.81.63.214-.21.43-.42.643-.63h4.66c-1.018,1.23-1.734,2.09-2.64,3.18-3.563-.23-6.43-.41-9.3-.6-1.865.52-3.987,1.12-6.208,1.73,3.349.49,6.614.96,10.756,1.55-1.812.76-2.942,1.23-3.779,1.58-1.632-.33-2.7-.55-3.74-.76-1.665.61-3.049,1.12-2.939,1.08a35.021,35.021,0,0,1-11.89-1.65,19.645,19.645,0,0,0-4.509-.06c-2.645.73-4.384,1.22-6.755,1.87-.561-1.09-.955-1.86-1.74-3.4-.833,1.54-35.329,2.32-36.039,3.62-2.014-.95-3.1-1.46-4.191-1.98-.461.44-.918.87-1.635,1.54-1.471-.87-2.724-1.62-3.97-2.36-1.27.46-2.614.95-4,1.46-.69-.57-1.31-1.07-2.132-1.73-1.645.38-2.93.68-4.212.98-3.665-.53-7.334-1.07-10.409-1.51-1.687.06-1.749,1-3.626.43.786-.99,1.573-1.99,2.059-2.6-1.894-2.22-6.264-1.34-10.04-1.8v-3.32c-2.362,1.87-4.044,3.21-5.752,4.56.637.28,1.275.55,1.908.82a21.638,21.638,0,0,1-11.227.62c-4.563,1.67-8.768-.63-13.586-.14-1.192.69-2.518,1.45-3.961,2.27-2.2-.44-4.416-.82-6.456-1.31a17.559,17.559,0,0,1-2.679-1.04H646.442c-4.137-1.2-9.771-.2-13.9-1.41-4.656,1.3-9.945.53-14.924.62-7.422.13-14.872.03-24.373.03-.234-.29-.861-1.06-1.679-2.07-2.808,1-4.6,1.63-6.905,2.46-1.68-.86-2.9-1.49-4.553-2.34,1.949-.54,3.471-.97,5.3-1.48-2.454-.61-4.3-1.08-5.6-1.4.567-.71.975-1.22,1.6-2.01-3.391.07-5.808.11-8.534.16v3.58h-3.542c-.214-1.1.939-2.57-3.936-2.71v3.24c-2.514.43-4.671.79-6.546,1.11-1.084-.34-1.741-.55-2.114-.67a63.792,63.792,0,0,1-6.747,1.33c-3.881.45-8.929-.23-13.99.67-2.758.49-7.766-.92-10.537-.44a42.08,42.08,0,0,1-8.2.54c-6.267-.08-12.719.52-18.763-.7a11.014,11.014,0,0,0-3.8.01c-6.454,1.84-11.38-.83-18.522-.42-4.915.99-11.533.12-19.05.47,1.516-.68,2.1-.94,2.671-1.2a38.215,38.215,0,0,0-19.914.51c-1.131-.4-1.816-.64-1.945-.69-3.379.33-6.313.59-9.213.9-2.536.27-5.554-.9-7.438.34-8.892-1.43-18-.3-27.057-.79-.682-.27-1.6-.63-2.361-.92.54-.42,1.059-.83,1.589-1.24h-3.912c1.368-.87,2.155-1.36,2.943-1.86.171.07.343.15.514.22.133-.18.276-.38.41-.56-2.483-.36-4.971-.73-8.078-1.18.438.96.894,1.96,1.416,3.1-.9,2.23-5.508.88-8.275,1.59-2.587.66-5.409,1.09-7.921,1.57-.731-.37-1.141-.58-1.777-.91-1.339.62-2.692,1.24-4.288,1.98-1.085-.42-1.948-.75-2.86-1.1a2.916,2.916,0,0,1-1.113.57c-5.274.42-10.549.83-15.845,1.16-4.034.24-7.77-.16-10.468-1.64-2.332.81-4.609,1.6-6.991,2.43-1.746-.78-3.6-1.36-5.28.08a26.181,26.181,0,0,0-10.7-1.8c-2.639.07-5.33-.34-8.785-.6-.189.23-.679.82-1.383,1.66-1.161-.26-2.322-.51-3.673-.81-.537.19-1.39.48-2.718.94-1.235-.6-2.412-1.18-3.645-1.78-1.653.25-3.348.51-5.475.84-1.277-.94-2.489-1.84-4.052-2.99-.092,2.85-3.283,4.38-8.191,5.11-1.42-.15-4.083-.81-4.769-.46-3.334,1.71-6.136.23-8.9-.19-.851.41-1.479.7-2.381,1.13-3.295-.73-6.866-1.99-10.539-.01-2.384-.64-4.759-1.27-7.271-1.94-2.294.61-4.667,1.25-7.219,1.92-.888-.33-1.755-.66-2.5-.94a51.432,51.432,0,0,1-6.352.8c-12.972.08-25.948.04-38.632.04-.9-.46-1.512-.77-2.624-1.35,2.538-1.67,5.127-3.38,7.9-5.2,1.463.45,2.379.74,3.469,1.08.452-.48.985-1.03,1.54-1.61h3.6c2.416.41-1.061,2.49,2.673,2.59a2.84,2.84,0,0,0-.259.13l1.208.72c.185-.09.367-.19.549-.28a11.571,11.571,0,0,0-1.5-.57c-.078-.8-.078-1.64-.078-2.54h3.106c.249.88.48,1.69.778,2.73,1.222-.99,2.15-1.75,3.256-2.65h8.112c.183.9.4,1.99.659,3.24h6.485v-1.31c-1.157-.22-2.153-.41-3.208-.6v-1.95c1.993-.35,4.191-.74,6.519-1.15,2.571.31,5.451.66,9,1.09a5.48,5.48,0,0,0,.921,2.64c-1.009-1.29-1.009-1.29-4.5-.34-1.035-.25-2.036-.49-4.828-1.17,2.1,1.57,3.1,2.32,3.657,2.74,2.677,0,4.56,0,5.673-1.23.389-2.05,1.7-2.87,3.144-3.77,1.712.54,3.589,1.45,5.254-.04,1.123.34,2.221.66,3.263.97.951-.46,1.574-.75,2.467-1.18,3.545,1.42,7.85.98,12.015,1.01,4.032.02,8.064,0,11.8,0,1.271.96,2.395,1.81,4.281,3.23v-3.21c5.785.2,11.327-.59,17.09.64.8-.39,2.022-.98,3.13-1.51h5.628c.94.77,1.942,1.6,2.967,2.44.177-.06.854-.18.873-.32.4-2.95,6.066-1.86,8.9-2.96,1.277-.5,5.154-.46,5.711,0,2.223,1.86,5.761-.85,7.622.8,5.873-1.64,12.253-.55,18.359-.91a46.794,46.794,0,0,0,5.034-.89c.532.21,1.381.55,2.561,1.02.759-.17,1.734-.4,3.087-.71a6.256,6.256,0,0,0,5.53-.1,6.494,6.494,0,0,0,6.538-.17c1.849,1.62,3.622-.14,5.493-.09a51.636,51.636,0,0,0,6.948-.71c.231.5.459,1,.688,1.51a73.97,73.97,0,0,0,7.926-.55,8.293,8.293,0,0,1,1.74-.14c.257-.35.5-.68.782-1.07,1.1.42,1.648.63,2.242.86,1.045-.26,2.157-.54,3.514-.88.388.53.759,1.05,1.133,1.56,2.826-.12,5.717-.09,8.615-.05.443-.13.91-.26,1.432-.4v.42c.908.01,1.814.02,2.716.02,2.71.01,5.42.04,8.132.06v-1.58c1.71.34,3.022.59,4.489.88.118-.06.516-.26,1.48-.76,1.016.66,2,1.3,3.371,2.19-.025,0-.049.01-.07.01,3.453.33,6.822-1.03,10.28-.8,1.543.1,3.178.04,4.669.2,14.7,1.58,14.674,1.54,26.581.71,2.761-.19,5.754.12,9.427.22.347-.41.916-1.08,1.963-2.32-2.034.7-2.71.93-4.84,1.65,1.057-1.22,1.573-1.81,2.163-2.49-.557-.22-1.476-.57-2.475-.96-.67.23-1.345.46-1.819.62-2.813-.48-5.454-1.11-8.323-1.38-6.048-.56-11.656.76-19.281.87l-2.122,1.54c-.731-.82-1.123-1.26-1.663-1.86-3.771.22-7.412.44-11.844.7-3.961-1.59-10.937.44-15.914-1.16a37.933,37.933,0,0,1-5.44.65c.2.47.4.94.6,1.42-.5.01-.992.03-1.486.04v-1.43c-5.111.19-10.35-.27-15.463-.07-3.222.13-7,.42-9.634-.07a11.171,11.171,0,0,0-1.226-.17c-3.13.25-5.987.49-9.323.76-3.033-1.03-7.075-.71-11.262-.34a111.493,111.493,0,0,1-21.161.22c-2.981-.29-6.393.54-10.143.91-.337-.17-1.359-.7-1.986-1.02-3.916-.17-7.409-.33-11.284-.5-.982.65-2.031,1.34-3.084,2.03-1.346-.69-2.367-1.21-3.407-1.74-1.8.11-3.73,1.77-5.434-.49-1.274.91-2.255,1.6-3.3,2.34-1.465-.33-2.444-.55-3.834-.86a6.147,6.147,0,0,1-5.493-.11c-2.371,1.86-4.294-.57-6.73-.14-.835.46-1.81,1-2.457,1.36a111.052,111.052,0,0,0-24.958.22c-.253-.08-1.42-.41-2.663-.76-1.394.35-2.824.72-4.128,1.05-.906-.42-1.528-.71-2.147-1a7.641,7.641,0,0,1-1.244.62,5.105,5.105,0,0,1-1.472.23c-2.161-1.87-6.5,1.72-7.8-1.11-1.74.51-2.9.84-4.407,1.28-.792-.33-1.608-.67-2.394-1a6.068,6.068,0,0,1-1.961.81c-6.919.46-14.082-.83-20.846.79-2.912-1.45-6.734-.22-9.74-.83-2.693-.54-4.565,1.49-7.446.18-1.294-.59-4.111,1.17-6.213-.1-12.34,1.81-24.969.46-37.432.92a19.9,19.9,0,0,0-3.73.83,30.086,30.086,0,0,0-5.241-.8,43.73,43.73,0,0,0-6.219.83c-1.847.28-3.365-1.26-5.638-.08-1.031.54-3.208-1.28-5.481.02-1.447.83-3.349-.87-5.708-.35a36.113,36.113,0,0,1-6.615.39c-2.306.06-4.638.09-6.928-.02a12.661,12.661,0,0,1-2.8-.77c-.543.25-1.172.54-1.992.91-4-1.05-8.144-1.77-12.413-.03-1.141-.32-2.31-.65-3.846-1.08-.747.28-1.62.61-2.51.94-.524-.24-1.147-.54-1.288-.6-4.481.31-8.55.6-13.111.91-1.324-.67-2.522-1.28-3.914-2-1.733.47-3.871,1.05-5.938,1.6-1-.27-2.145-.59-3.524-.97-.52.76-.873,1.27-1.453,2.12l-4.7-1.03-3.361,1.03c-.743-.25-1.635-.56-2.571-.88-1.679.73-3.493,1.56-5.036-.15-.851.38-1.483.67-2.324,1.04-1.4-.35-2.824-.72-4.171-1.06-1.053.36-1.953.67-2.942,1.01-2.4-.63-4.775-1.26-8.111-2.15-.38.82-.824,1.78-1.286,2.77-2.5-.97-3.051-1.18-3.238-1.25-4.383.19-8.442.38-12.5.56-1.045-1-2.861-.33-4.5-.12v-6.1a22.658,22.658,0,0,1,2.845-.05,6.282,6.282,0,0,0,2.238-.86c1.577-.3,3.183-.59,5.728-1.05-1.149.93-1.62,1.31-2.463,1.99,5.21-.09,9.668.1,14.18-.15-2.255-1.62-4.155-2.98-5.738-4.12-4.142.7-7.936,1.34-11.707,1.98v1.35c-.867.02-1.73.02-2.818.02-.318-.48-.657-.99-1.139-1.72-.375.13-.737.26-1.126.4V1118H19V82H0V25.626a.359.359,0,0,0,.043.014l1.284-.5c-.169-.339-.335-.677-.58-1.172L0,24.02V16.483c7.13.237,14.494-.769,21.4.6,4.977-1.594,11.952.431,15.914-1.155,4.432.261,8.074.477,11.845.7.539-.6.931-1.039,1.665-1.857,1.045.759,1.884,1.373,2.12,1.541,7.622.112,13.233,1.427,19.281.863,2.869-.265,5.508-.9,8.323-1.376l1.82.62,2.473-.957-2.159-2.492,4.838,1.649C86.465,13.38,85.9,12.709,85.553,12.3c-3.675.1-6.665.4-9.429.214-11.907-.825-11.876-.871-26.584.712-1.49.161-3.126.106-4.667.208-4.4.29-8.662-2.053-13.139-.1-4.848.031-9.7.078-14.543.094-4.883.016-9.876.243-14.608-.084A11.458,11.458,0,0,0,0,13.48V7.355c7.756-.092,15.523.551,23.13-.676,1.887,1.245,4.9.073,7.44.341,2.9.308,5.836.571,9.213.9.13-.047.814-.288,1.945-.688a38.117,38.117,0,0,0,19.914.508c-.575-.259-1.155-.518-2.671-1.2,7.517.347,14.135-.52,19.051.476,7.14.4,12.066-2.272,18.52-.427a10.808,10.808,0,0,0,3.8,0c6.044-1.218,12.5-.614,18.763-.694a42.464,42.464,0,0,1,8.2.537c2.771.486,7.779-.929,10.538-.439,5.06.9,10.107.227,13.986.669A63.831,63.831,0,0,1,158.582,8l2.112-.665,6.546,1.108V11.68c4.875-.139,3.722-1.614,3.938-2.71h3.539v3.576l8.535.161-1.6-2,5.6-1.41-5.3-1.472,4.554-2.341c2.31.823,4.094,1.461,6.9,2.459l1.678-2.07c9.5,0,16.951-.1,24.374.033,4.979.092,10.27-.676,14.925.623,4.128-1.216,9.762-.214,13.9-1.414h27.466a17.553,17.553,0,0,1,2.679-1.041c2.041-.492,4.251-.874,6.455-1.316l3.962,2.27c4.818.5,9.024-1.808,13.584-.137a21.761,21.761,0,0,1,11.23.618l-1.91.822c1.708,1.355,3.391,2.69,5.752,4.561V7.568c3.777-.459,8.148.42,10.041-1.8-.487-.618-1.273-1.61-2.058-2.6,1.875-.576,1.936.367,3.624.433l10.409-1.518c1.285.3,2.567.6,4.213.982.821-.663,1.439-1.165,2.131-1.725l4,1.457L353.831.435c.718.676,1.175,1.108,1.636,1.539,1.09-.512,2.176-1.025,4.19-1.974.708,1.3,1.128,2.076,1.961,3.614.785-1.529,1.179-2.3,1.74-3.4l6.755,1.869a19.463,19.463,0,0,0,4.509-.057A34.972,34.972,0,0,1,386.511.382l2.94,1.08c1.043-.212,2.108-.429,3.74-.765.837.351,1.967.822,3.779,1.576L386.213,3.825l6.209,1.731,9.307-.6c.9,1.09,1.622,1.951,2.638,3.174h-4.66q-.321-.312-.643-.625c-.437.21-.873.418-.81.625h-3.522l-1.881-1.588c-.635,1.786-.635,1.786,2.171,3.016a27.464,27.464,0,0,0,3.232-1.427h1.453c0,.629,0,1.261,0,1.89,1.612.622,3.222,1.245,4.109,1.584,8.075-.894,16.874.135,22.971-2.137l4.014,1,3.967-.859,3.783.818c4.369-.775,4.377-.706,11.349-.814,2.635-.041,5.124-1.127,7.936-.157,2.31-1.092,5.457-.357,8.177-.559,3-.222,6.391.49,9.1-.71.494-.22,2.994.374,4.545.353,2.781-.039,5.571-.21,8.309-.42,2.369-.18,4.655-.665,7-.694,2.673-.033,5.375.29,9.144.525L516.48,6.508l2.638,1.22c-.424.541-.487.933-.791.963-2.933.3-5.3,1.1-8.748,1.006A110.4,110.4,0,0,0,488.7,11.1a9.058,9.058,0,0,1-1.884.051c-6.421-.4-12.253.776-18.487.951a3.92,3.92,0,0,0,1.943,1.1l.881-.263a15.018,15.018,0,0,0,1.59.639,14.506,14.506,0,0,0,3.3-.245,46.655,46.655,0,0,1,11.968-.59c3.177.177,6.1-1.286,9.142-.075,2.832-.888,6.5-.58,9.642-1.018a5.807,5.807,0,0,0,1.287-.433c4.471,1.414,8.811.722,13.786-.184.774.4,1.686.88,3.012,1.57h-7.9c.482.455.6.759.861.78,3.285.255,6.589.469,10.723.749-.451-.657-.865-1.253-1.363-1.974.249-.043,1-.174,2.239-.392l3.677,2.947c-2.418.151-4.212.265-6.712.424.19.21.372.406.555.6,1.771-.133,3.357-.237,4.906-.218,2.35.029,4.638.514,7.005.694,2.74.21,5.528.38,8.309.42,1.551.021,4.051-.571,4.545-.353,2.709,1.2,6.095.488,9.1.71,2.72.2,5.869-.533,8.177.559,2.812-.97,5.3.116,7.936.157,6.972.108,6.98.039,11.349.814,1.239-.267,2.551-.551,3.783-.818l3.967.861c1.29-.32,2.314-.576,4.014-1,6.1,2.272,14.9,1.243,22.971,2.139.887-.341,2.5-.963,4.109-1.586,0-.629,0-1.259,0-1.888h1.453a27.113,27.113,0,0,0,3.236,1.425c2.8-1.229,2.8-1.229,2.167-3.015-.693.586-1.295,1.1-1.881,1.59H628.58c.065-.21-.373-.418-.81-.627-.214.21-.429.418-.643.627h-4.66c1.018-1.224,1.734-2.086,2.64-3.176,3.563.229,6.43.414,9.3.6,1.865-.52,3.987-1.112,6.209-1.729-3.35-.484-6.615-.955-10.757-1.551L633.643,8.8l3.74.763c1.665-.612,3.049-1.12,2.94-1.078a34.915,34.915,0,0,1,11.889,1.647,19.571,19.571,0,0,0,4.509.057l6.755-1.868,1.74,3.4c.833-1.537,35.33-2.312,36.039-3.615,2.014.951,3.1,1.463,4.191,1.976l1.636-1.539c1.47.874,2.723,1.621,3.969,2.365,1.27-.465,2.614-.953,4-1.459.691.563,1.31,1.063,2.132,1.727l4.212-.982L731.8,11.7c1.687-.067,1.749-1.008,3.626-.433-.786.992-1.573,1.986-2.059,2.6,1.894,2.216,6.264,1.339,10.041,1.8v3.318c2.361-1.871,4.043-3.206,5.751-4.561q-.956-.412-1.908-.822a21.752,21.752,0,0,1,11.227-.616c4.563-1.673,8.768.635,13.586.137,1.192-.682,2.518-1.445,3.961-2.27,2.2.439,4.416.823,6.456,1.314a17.521,17.521,0,0,1,2.679,1.041h27.466c4.137,1.2,9.772.2,13.9,1.414,4.656-1.3,9.945-.531,14.924-.622,7.422-.135,14.872-.035,24.373-.035.234.288.861,1.065,1.679,2.072l6.905-2.459,4.553,2.339c-1.949.541-3.471.965-5.3,1.474l5.6,1.408c-.567.71-.974,1.218-1.6,2,3.391-.063,5.809-.108,8.534-.161V17.07h3.542c.214,1.1-.939,2.572,3.936,2.71V16.542c2.514-.427,4.671-.792,6.546-1.11,1.084.341,1.741.549,2.114.665a63.451,63.451,0,0,1,6.748-1.329c3.88-.443,8.928.229,13.989-.671,2.758-.49,7.766.925,10.537.439A42.456,42.456,0,0,1,941.8,14c6.268.078,12.719-.523,18.763.694a10.864,10.864,0,0,0,3.8,0c6.453-1.845,11.379.827,18.521.424,4.915-.992,11.533-.125,19.049-.474-1.52.678-2.1.939-2.67,1.2a38.1,38.1,0,0,0,19.91-.508c1.14.4,1.82.643,1.95.688,3.38-.327,6.31-.588,9.21-.9,2.54-.269,5.56.9,7.44-.339,8.89,1.433,18,.3,27.06.794.68.265,1.6.621,2.36.914l-1.59,1.247h3.91c-1.37.861-2.15,1.359-2.94,1.855-.17-.073-.35-.145-.52-.22-.13.184-.27.378-.41.563,2.49.361,4.98.723,8.08,1.176-.44-.959-.89-1.957-1.41-3.1.9-2.223,5.5-.876,8.27-1.584,2.59-.665,5.41-1.086,7.92-1.574.73.375,1.14.584,1.78.91,1.34-.616,2.69-1.239,4.29-1.972,1.08.416,1.94.747,2.86,1.1.31-.165.66-.527,1.11-.565,5.27-.421,10.55-.835,15.85-1.161,4.03-.247,7.77.159,10.46,1.637,2.34-.81,4.61-1.6,6.99-2.427,1.75.772,3.6,1.351,5.28-.082a26.132,26.132,0,0,0,10.7,1.8c2.64-.073,5.33.343,8.79.6.18-.227.67-.812,1.38-1.653l3.67.806,2.72-.943c1.24.606,2.41,1.182,3.65,1.788l5.47-.843c1.28.941,2.49,1.837,4.05,2.992.09-2.849,3.28-4.378,8.19-5.117,1.42.157,4.09.818,4.77.467,3.34-1.708,6.14-.227,8.91.184.85-.4,1.47-.7,2.38-1.124,3.29.724,6.86,1.99,10.53.012l7.28,1.931c2.29-.61,4.66-1.241,7.21-1.918.89.335,1.76.663,2.5.945a51.993,51.993,0,0,1,6.36-.8c12.97-.075,25.95-.037,38.63-.037.9.459,1.51.773,2.62,1.343-2.53,1.672-5.12,3.38-7.9,5.21-1.46-.457-2.38-.743-3.47-1.082l-1.53,1.612h-3.61c-2.42-.416,1.06-2.492-2.67-2.594.03-.01.14-.069.26-.125-.41-.243-.81-.484-1.21-.727-.19.094-.37.188-.55.28a11.565,11.565,0,0,0,1.5.572c.08.8.08,1.637.08,2.537h-3.11c-.25-.876-.48-1.688-.78-2.731-1.22,1-2.15,1.751-3.25,2.649h-8.12c-.18-.9-.4-1.988-.66-3.233h-6.48v1.312c1.16.218,2.15.4,3.21.6v1.943c-1.99.353-4.19.741-6.52,1.153l-9-1.086c0-.318,0-.865-.92-2.639,1.01,1.29,1.01,1.29,4.5.333,1.04.251,2.04.494,4.83,1.172-2.11-1.572-3.1-2.319-3.66-2.735-2.67,0-4.56,0-5.67,1.229-.39,2.047-1.7,2.867-3.14,3.769-1.72-.541-3.59-1.451-5.26.033l-3.26-.963c-.95.453-1.58.751-2.47,1.178-3.54-1.418-7.85-.978-12.01-1.008-4.04-.028-8.07,0-11.81,0-1.27-.961-2.39-1.81-4.28-3.233v3.218c-5.78-.2-11.32.584-17.09-.643l-3.13,1.514h-5.62c-.94-.776-1.95-1.6-2.97-2.447-.18.061-.85.18-.87.322-.4,2.949-6.07,1.863-8.91,2.963-1.28.494-5.15.461-5.71-.006-2.22-1.855-5.76.849-7.62-.8-5.88,1.645-12.25.551-18.36.914a46.369,46.369,0,0,0-5.03.886c-.54-.212-1.39-.549-2.57-1.018l-3.08.71a6.263,6.263,0,0,0-5.53.1,6.533,6.533,0,0,0-6.54.171c-1.85-1.616-3.62.141-5.49.094a51.233,51.233,0,0,0-6.95.71c-.23-.5-.46-1-.69-1.508a73.522,73.522,0,0,0-7.93.549,8.414,8.414,0,0,1-1.74.135c-.25.355-.49.686-.78,1.074-1.1-.425-1.65-.635-2.24-.865-1.04.263-2.16.543-3.51.884-.39-.533-.76-1.047-1.14-1.561-2.82.116-5.71.094-8.61.049-.45.125-.91.257-1.43.4v-.418c-.91-.012-1.82-.025-2.72-.028-2.71-.01-5.42-.035-8.13-.053v1.578c-1.71-.337-3.02-.592-4.49-.88-.12.059-.52.263-1.48.759-1.02-.659-2-1.3-3.37-2.188.02-.006.05-.008.07-.014-3.46-.333-6.82,1.035-10.28.806-1.54-.1-3.18-.047-4.67-.208-14.706-1.58-14.675-1.537-26.582-.71-2.761.19-5.754-.116-9.427-.216-.347.408-.916,1.08-1.963,2.316,2.034-.694,2.71-.924,4.84-1.647l-2.163,2.492c.557.214,1.477.571,2.475.955.67-.228,1.345-.457,1.82-.62,2.812.478,5.453,1.11,8.322,1.378,6.048.563,11.658-.753,19.278-.863.24-.171,1.08-.782,2.12-1.543.74.82,1.13,1.259,1.67,1.859l11.84-.7c3.96,1.584,10.94-.441,15.92,1.155a38.2,38.2,0,0,1,5.44-.647c-.2-.473-.41-.943-.61-1.416l1.49-.049v1.435c5.11-.192,10.35.269,15.46.065,3.22-.129,7-.416,9.64.078a11.846,11.846,0,0,0,1.22.165l9.33-.755c3.03,1.021,7.07.7,11.26.337a112.211,112.211,0,0,1,21.16-.226c2.98.3,6.39-.535,10.14-.906.34.172,1.36.7,1.99,1.018,3.91.174,7.41.329,11.28.5.98-.645,2.03-1.337,3.09-2.027,1.34.688,2.36,1.212,3.4,1.743,1.8-.114,3.73-1.774,5.44.482,1.27-.9,2.25-1.6,3.3-2.333,1.46.327,2.44.547,3.83.857a6.178,6.178,0,0,1,5.5.116c2.37-1.867,4.29.565,6.73.139.83-.465,1.81-1.006,2.45-1.365a111.161,111.161,0,0,0,24.96-.216c.25.073,1.42.4,2.66.757,1.4-.355,2.83-.718,4.13-1.049.91.422,1.53.71,2.15,1a7.8,7.8,0,0,1,1.24-.616,5.2,5.2,0,0,1,1.48-.229c2.16,1.872,6.49-1.724,7.8,1.1l4.4-1.274c.8.329,1.61.669,2.4.994a6.333,6.333,0,0,1,1.96-.81c6.92-.461,14.08.829,20.84-.786,2.92,1.451,6.74.216,9.74.827,2.7.547,4.57-1.484,7.45-.174,1.29.588,4.11-1.169,6.21.1,12.34-1.81,24.97-.463,37.43-.92a20.454,20.454,0,0,0,3.73-.831,30.983,30.983,0,0,0,5.25.8,43.943,43.943,0,0,0,6.21-.829c1.85-.286,3.37,1.257,5.64.074,1.03-.539,3.21,1.288,5.48-.016,1.45-.833,3.35.867,5.71.345a37.06,37.06,0,0,1,6.62-.386c2.3-.055,4.63-.09,6.93.024a12.856,12.856,0,0,1,2.79.767c.54-.249,1.17-.537,1.99-.914,4,1.055,8.15,1.774,12.42.035l3.84,1.078c.75-.28,1.62-.606,2.51-.941.52.245,1.15.537,1.29.6,4.48-.314,8.55-.6,13.11-.918,1.32.677,2.52,1.288,3.91,2,1.74-.469,3.88-1.045,5.94-1.6l3.53.971c.52-.757.87-1.271,1.45-2.116,1.41.31,2.78.608,4.7,1.025.71-.22,1.86-.569,3.36-1.027.74.255,1.64.563,2.57.884,1.68-.737,3.49-1.563,5.04.151.85-.382,1.48-.669,2.32-1.047,1.4.357,2.82.722,4.17,1.065,1.05-.363,1.95-.673,2.94-1.012,2.4.635,4.78,1.263,8.11,2.147.38-.819.83-1.774,1.29-2.768,2.5.971,3.05,1.184,3.24,1.257,4.38-.2,8.44-.382,12.5-.565,1.04,1,2.86.329,4.5.12v6.1a24.816,24.816,0,0,1-2.85.045,6.328,6.328,0,0,0-2.23.861c-1.58.306-3.19.594-5.73,1.049,1.15-.929,1.62-1.306,2.46-1.988-5.21.092-9.67-.1-14.18.147,2.26,1.623,4.16,2.988,5.74,4.127l11.71-1.986V26.489c.86-.021,1.73-.021,2.81-.021.32.48.66.994,1.14,1.725.38-.133.74-.261,1.13-.4V1118ZM516.932,41h.925l-.5-.176Zm47.546,0H566.2l-.657-.434Q565.011,40.79,564.478,41ZM1457.4,36.7c-.04.41-.43.658-.81.9-.17-.1-.35-.19-.52-.286q.675-.315,1.35-.632c.1.06.21.118.32.178.04-.412.42-.658.81-.906.17.1.34.192.52.286l-1.35.632C1457.61,36.814,1457.5,36.754,1457.4,36.7Zm-28.83-7.819c2.09-.359,4.1-.705,6.09-1.049-.17-.759-.3-1.347-.43-1.924-3.19.076-6.35-.459-7.57,1.151C1427.43,27.787,1428.09,28.42,1428.57,28.877Zm-6.18-.355c.92-.5,1.52-.826,3.23-1.752-3.95,0-6.74.1-9.49-.029-2.79-.135-5.54-.5-9.51-.879,1.6,1.312,2.56,2.1,3.65,3l3.55-.981c.67.281,1.3.548,1.99.836,1.5-.409,2.89-.788,4.15-1.133Zm-13.42,7.512c.27.79.4,1.19.29.878.64-.15,1.77-.418,3.71-.878Zm-3.63-8.3c.96-1.782-1.23-2.2-2.25-2.545-3.2.313-5.53.644-7.88.741-2.82.115-6.28.582-8.36-.1-3.23-1.068-5.32.739-8.27.187v3.173c2.38-.864,4.08-1.479,5.89-2.134.54.224,1.36.56,2.22.909l3.62-1.152c1.25.381,2.39.73,3.51,1.07.97-.313,1.83-.584,2.68-.858,1.04.6.25,2.432,3.5,1.554.46-.607.91-1.212,1.46-1.934C1403.12,27.107,1404.15,27.4,1405.34,27.731Zm-30.75.45h1.77v-.3h-1.77Zm-6.46.812h.59v-.908h-.59Zm-14.12-1.557c3.18,2.362,7.52,2.472,11.41,3.23-.71-1.841-1.29-3.325-1.78-4.586-2.81-1.139-4.67,1.106-7.77-.031-2.1-.766-5.96-.145-9.45-.145,2.22,1.017,3.79,1.739,5.34,2.448C1352.05,28.231,1352.7,27.968,1354.01,27.436Zm-12.14.951c.52.252,1.08.522,2.55,1.231-.19-1.853-.3-2.928-.4-3.948-3.64-.209-6.07.168-6.56,1.958-.15.5.21,1.046.42,1.892C1339.59,29.036,1340.71,28.717,1341.87,28.387Zm-8.14,1.251c.94-.991,1.81-1.889,2.62-2.8.04-.047-.38-.227-.32-.193h-18.68c2.13,1.482,3.14,2.187,4.24,2.945,1.81-2.411,5.63.8,7.77-1.016A36.133,36.133,0,0,1,1333.73,29.638Zm-20.31-.729,4.88-.957c-4.8-.836-7.94-1.681-11.25-1.891-6.59-.421-12.53,1.274-18.75,1.813,1.39.888,2.56,1.633,3.32,2.121l6.25-.942,4.66-2.286,3.82.174c.28.932.51,1.67.73,2.408.58.178,1.16.356,1.73.536q.93-1.165,1.86-2.328C1312.23,28.325,1313.24,28.818,1313.42,28.909ZM1274.33,30.4l11.8-2.165c-.3-.529-.54-.95-.63-1.116-12.74,0-25.15-.008-37.55.027-.41,0-.82.421-1.22.64-.62-.318-1.25-.638-1.63-.836l-11.97,1.312c1,.872,1.85,1.611,3.09,2.688,5.28-.573,10.58-1.15,16.94-1.843l1.69,1.293c3.67-.518,6.68-.946,9.42-1.333l2.98.786c.88-.451,1.51-.771,1.96-1C1271.11,29.428,1272.96,29.988,1274.33,30.4Zm-43.09.622c.14-.832.26-1.567.46-2.735l-4.68.667a45.888,45.888,0,0,0-14.56-.08,8.994,8.994,0,0,1-2.23.36c-6.79-1.558-13.53.85-20.26.027-1.81-.221-3.58-.518-5.77-.839-1.24.51-2.69,1.113-4.39,1.821-.94-.265-1.85-.53-2.96-.848l-1.47.583c-3.51-.314-7-.625-10.2-.908-1.41.677-2.42,1.166-3.27,1.571-2.18-.193-4.24-.312-6.22-.568a29.364,29.364,0,0,0-5.53-.12c-7.15.352-14.42.158-21.65.1a5.722,5.722,0,0,1-1.9-.766c-.51.229-1.08.479-1.79.8.06.174.12.345.18.525-.28.1-.96.345-11.02-.006-2.54-.22-4.29-.389-5.5-.523-.85-.022-1.69-.036-2.54-.045,1.32.1,3.68.271,8.04.568,2.72,1.213-3.5.33-9.44-.43-2.47-.316-1.9.576-3.79.283-.02-.136-.04-.3-.06-.458-1.24-.087-2.59-.238-4.33-.36-.31.209-1.28.85-1.6,1.061a83.3,83.3,0,0,1-10.35.14,26.59,26.59,0,0,1-6.2.381,17.3,17.3,0,0,0-1.99.469,3.667,3.667,0,0,0-1.64-.736l-4.17,1.785c-.9-.269-1.57-.468-2.71-.812v1.5c1.02,0,2.02.027,3,.049.01,0,.01-.006.02-.009,1.69-.1,3.33-.125,4.93-.094a11.205,11.205,0,0,1,3.09.156c1.04.08,2.06.205,3.07.345a4.288,4.288,0,0,0,1.25-.2c3.27-1.126,4.16,1.1,6.5.514.92-.292,1.59-.51,2.31-.741a4.52,4.52,0,0,0,1.07.463,89.889,89.889,0,0,1,14.24-1.4c5.85-.122,11.96.874,17.55-.7,3.13,1.424,6.98.592,10.5.712,2.41.083,5.05.423,7.13-.765,2.06-1.182,3.73,1.364,6.64.258,1.19-.449,4.44.481,6.76.5,2.09.015,4.2-.36,7.24-.65.07.024.95.321,2.13.728,2,.276,4.31-1.94,6.76-.111,1.8-1.5,5.25-.32,7.75-1.086,1.76-.537,4.78.794,6.8-.63.78.269,1.41.512,2.1.7a4.6,4.6,0,0,0,1.45.245c1.9-.883,3.79,0,5.53-.073a52.382,52.382,0,0,0,7.55-1.375,4.952,4.952,0,0,0,5.39-.316c4.24,1.17,8.67,1.64,12.76.031,1.25.39,2.16.672,3.2,1l3.85-1C1229.03,30.246,1229.89,30.551,1231.24,31.023Zm-169.71,3.066,3.82-1.346-4.46-.362c-.23.506-.38.852-.54,1.2C1060.75,33.747,1061.14,33.919,1061.53,34.089Zm-6.07-.708c.26-.418.51-.836.77-1.254l-1.72-.084v1.28C1054.83,33.342,1055.14,33.362,1055.46,33.381Zm-7.07-.959h1.99v-.256h-1.99Zm-57.568-4.4c.339-.65.518-.99.783-1.5l-6-.462C988.189,27.032,989.252,27.43,990.822,28.02ZM956.49,23.2h.664v-.772h-.664ZM941,19.9h1.992v-.256H941Zm-1.4,1.115h.664v-.77H939.6ZM923.822,22.4c2.829.534,5.824.154,9-.2l-6.243-1.232C925.651,21.458,924.9,21.846,923.822,22.4Zm-34.114-.076H891.7v-.256h-1.992ZM871.42,18.488c.186-.394.353-.736.545-1.136-2.563-.6-4.157-.586-3.988,1.136Zm-7.69,3.885c1.714.036,2.644.052,4,.081-.86-.869-1.6-1.615-2.977-3C864.3,20.751,864.035,21.508,863.73,22.373Zm-20.1-5.061h.666V16.54h-.666Zm-18.758,1V16.983c-.269-.08-.534-.162-.8-.242l-1.2,1.57ZM797.85,19.7q.378-.968.754-1.935-.882-.034-1.766-.065v1.962Zm-29-2.714h10c-1.283-.676-1.826-1.26-2.717-1.374-2.165-.274-5.033.462-7.283-.542ZM732.9,19.9c1.893-1.563-.593-2.885-2.258-4.266l-2.918.787-3.429-.777c-2.658,1.028-5.083,1.966-7.715,2.983l12.152,2.007Zm-28.373-1.5h1.992v-.256h-1.992Zm1.322,7.153q.093-.333.187-.666h-2.865l-.135.366Zm-44.267-7.979c.986-.073,37.309,1.845,38.851-.393-1.626-.387-37.418-.8-39.169-1.216-1.088.254-2.353.55-3.753.879-.831-.733-1.459-1.283-2.255-1.984-1.733.354-3.335.683-5.114,1.045-.727-.219-1.464-.441-2.721-.822l-5.988,2.623c4.308.577,7.6,1.016,11.035,1.474v1.2c2.29.379,4.684.775,8.986,1.483l-5.78-3.007C657.821,18.389,659.368,18.054,661.586,17.575Zm2.169,7.365c.393-.982.937-1.9-3.751-1.026Zm-8.134-.146,3.359-.983-4.717-.422-1.131.273c-.906-.137-1.992-.3-3.6-.551l-2.222.468c-2.329.227-3.621-1.282-6.717-.347-.812.247-3.581-.227-5.476-.27-2.527-.056-5.073-.015-8.134-.015.167.525.282.882.474,1.48l3.655-.6c2.683.149,4.766.221,6.764.392,1.73.149,3.369.409,5.585.687l2.347-.656c.81.221,1.528.415,2.453.669l4.858-.782Zm-13.057,4.971,7.106-1.454c-4.161-.044-6.98-1.2-10.733-.312-.881.207-3.123-.565-6.267-1.192l2.329,3c1.514-.422,2.369-.662,3.752-1.051Zm-11.751-1.013c.386-.738.565-1.08.853-1.636h-6C628.065,27.878,629.157,28.224,630.813,28.752Zm-5.751-5.3V21.878H598.1c-1.035-.586-2.16-1.227-4.04-2.292v4c2.019-.372,3.584-.657,5.313-.973,4.121.763,8.483,1.643,12.905.011C616.2,24.046,620.646,23.139,625.062,23.455Zm-2.513,4.289c.047-.122.09-.244.135-.366l-2.814-.3c-.063.222-.123.444-.186.666Zm-15.913,1.037,11-.736-7.427-1.264Zm-5.975-1.647q1.452.138,2.9.28c.032-.22.063-.442.1-.66h-2.885C600.736,26.879,600.7,27.005,600.661,27.133Zm-6.985.214,4,.282v-2C595.811,26.43,594.965,26.793,593.676,27.347Zm23.754,6.177c-.411-.057-.818-.124-1.227-.183a39.405,39.405,0,0,0,4.147-1.184c-1.737-.671-2.887-1.114-3.258-1.258-5.13-.232-9.708-.015-13.243-.713-3.6-.715-7.993.573-10.775-1.046-2,1.555-5.225-.106-7.744-.172l-.656.458-.8-.234a2.545,2.545,0,0,0-.807.469l-2.713-.409c.915,1.254,1.617,2.219,2.267,3.113.794.062,1.45.121,1.883.189,3.693.577,7.489-.647,10.943.324.367-.466.735-.926,1.316-1.659,1.512.99,2.666,1.748,4.193,2.749,1.808-.036,4.241-.085,7.181-.147L605.69,32.7l2.8-1.167,3,.954c1.237-.358,2.2-.639,3.332-.967.762.473,1.523.946.683,1.738-.276-.034-.549-.075-.832-.092s-.673.294.374.447C615.059,33.806,616.246,33.665,617.43,33.525Zm-37.1-1.308V29.645l-4.655-.6a22.364,22.364,0,0,1-6.18.333c-.854.618-1.685,1.22-2.728,1.977l-10.808-2.586.2-.079-1.894-.236c-.169.393-.346.807-.556,1.3-1.126,0-2.35,0-3.665.037.04-.009.169-.055.3-.1l-1.381-.576-.627.221a17.592,17.592,0,0,0,1.709.455c.09.2.09.434.193.7-.024-.013-.153-.059-.28-.106l-1.622.492c.209.075.418.148.627.221a9.128,9.128,0,0,0,1.275-.607c1.12-.024,2.28-.029,2.624-.031,2.934.541,4.4.81,5.682,1.046l-.213.154c4.523-.123,8.995-.234,12.926.8.358-.1.69-.188,1-.274-.617-.551-1.226-1.092-1.858-1.657h5.18v1.262C577.1,31.977,578.778,32.113,580.333,32.217ZM556.69,22.54l-.88-.224c-.274.266-.546.53-.812.784.108.064.2.114.3.18l1.388.088Zm-17.677-1.531a45.628,45.628,0,0,1,11.358.521,6.189,6.189,0,0,0,1.109-.477l1.32.816c2.215.147,4.84-.186,5.908-1.539-6.238-.182-12.071-1.419-18.5-1a8.627,8.627,0,0,1-1.886-.054,105.391,105.391,0,0,0-14.566-1.454l-1.09.233c-.322-.1-.63-.184-.944-.275-1.423-.017-2.847-.027-4.283.014-.589.017-1.115-.023-1.648-.054-2.16.322-4.387.653-6.812,1.012-.34-.072-1.142-.24-2.1-.442l-17.84.992,2.847,1.489c-4.166-.442-7.715-.818-11.256-1.192-3.742.533-7.491,1.07-11.2,1.6l-1.47-.554c-.632,0-1.242.031-1.846.072,1.061.184,2.136.37,3.269.568l-4.3,1.4c-1.466-.481-3.143-.812-3.579-1.4q-1.041.161-2.08.3c.018.027.032.052.049.078h-.727a21.585,21.585,0,0,1-5.429,0H452.3l.338-.111c-.32-.056-.63-.085-.96-.161L443.73,22.56c-2.407-2.086-7.275,1.522-9.939-.5-2.761,1.568-7.12.318-10.7,1.012-3.506.68-8.054.469-13.147.692l-3.237,1.223a40.463,40.463,0,0,0,4.118,1.148c-.406.058-.811.122-1.219.178,1.176.136,2.355.273,2.367.089,1.039-.151.651-.45.37-.434s-.551.056-.826.087c-.832-.766-.078-1.225.679-1.684,1.124.318,2.082.589,3.31.938l2.98-.925,2.777,1.132-2.425,1.082,7.131.145,4.164-2.669c.577.711.94,1.159,1.306,1.611,3.43-.944,7.2.246,10.866-.314,1.736-.266,7.055-.4,10.685-1.084.826.256,1.786.556,3.057.952,7.648-2.3,17.387.43,25.469-1.646a25.563,25.563,0,0,1,4.814-.041c3.9,0,8.449.512,11.543-.132.11-.021.2-.027.31-.048-1.409-.093-2.725-.18-4.3-.285l3.679-3.1c1.238.227,1.993.368,2.24.411-.5.76-.912,1.39-1.363,2.08,4.136-.3,7.442-.521,10.728-.789.265-.021.379-.343.861-.82h-7.907l3.014-1.655c4.978.954,9.32,1.684,13.793.192a5.59,5.59,0,0,0,1.289.459c3.143.458,6.812.134,9.647,1.072C532.905,19.652,535.838,21.193,539.013,21.009Zm-11.165,6.061a7.669,7.669,0,0,0,1.644-.174c-1.019-.05-2.011-.1-3-.148C526.866,26.837,527.334,26.949,527.848,27.069ZM520.3,21.527c.366-.048.748-.1,1.126-.146v-.058l-.98-.054ZM521.5,26.95l4-.476-4-.234Zm-4.8-.972h-1.176v.258h1.992v-.142ZM511.806,22.1h4v-.386h-4Zm-8.55,18.222c.318-.058.494-.118.494-.178a3.915,3.915,0,0,1-.494.082Zm-2.748-.14c.779-.056,1.453-.116,2-.176h-1.923C500.56,40.062,500.531,40.126,500.508,40.182Zm-8.422-7.14c.488.306.972.612,1.477.93l1.117-.282.267.194C493.133,34.03,491.444,34.2,492.086,33.042Zm-12.99.9q1.408-.147,2.813-.3c-.047-.124-.09-.246-.135-.368h-2.865C478.971,33.5,479.032,33.719,479.1,33.939Zm-5.3-.231c.042-.236.085-.474.131-.744-1.66-.044-2.885-.078-4.3,0,.133-.05.271-.1.4-.152l-1.446-.63-.656.244a8.454,8.454,0,0,0,1.892.43c-.346.138-.694.274-1.04.41.331.08.663.158,1,.24C471.12,33.573,472.457,33.643,473.8,33.709Zm-13.845-1.158c.7.062,1.361.12,1.992.178.061-.248-.2-.562-1-.966C460.606,32.035,460.281,32.291,459.956,32.551Zm-1.414,4.9,1.07-.422c.062-.508-.713-.486-4-.372Zm-16.756.576h.228c-.142-.092-.266-.17-.4-.256h-.6v.256h.52l.136-.044C441.71,38,441.746,38.018,441.786,38.032ZM403.722,19.294c.045.12.09.244.135.366h2.865q-.091-.333-.186-.666Zm16.048.663c-1.309-.731-2.3-1.287-3.573-2l-7.427,1.265Zm7.043-1.18c-.04-.126-.077-.252-.117-.38h-2.883c.033.22.064.44.1.66Q425.361,18.919,426.813,18.777ZM433.8,19.9l-4-1.716v2Zm-31.686-3.847c4.416-.316,8.862.591,12.781-.832,4.421,1.631,8.783.755,12.9-.013,1.729.318,3.292.6,5.316.974v-4c-1.884,1.068-3.009,1.7-4.041,2.291H402.111Zm-5.59,4.64,5.147-1.638h-6C395.958,19.608,396.135,19.952,396.521,20.69ZM392.265,22l2.329-3c-3.143.627-5.386,1.4-6.267,1.192-3.753-.884-6.572.266-10.733.31,3.022.62,5.128,1.051,7.106,1.456l3.815-1.009C389.9,21.333,390.751,21.571,392.265,22ZM371.273,16.7l2.505-.652c1.665.266,3.266.525,4.859.781l2.452-.67c.618.175,1.294.363,2.348.657,2.216-.28,3.853-.54,5.585-.688,2-.17,4.078-.242,6.762-.392.388.064,1.694.278,3.656.6.19-.6.3-.953.474-1.478-3.062,0-5.609-.043-8.137.015-1.893.042-4.662.515-5.474.27-3.1-.937-4.388.574-6.716.345l-2.222-.466-3.6.551L372.63,15.3l-4.716.422C369.606,16.215,370.478,16.471,371.273,16.7Zm-8.2.488c1.3-.356,2.382-.654,3.751-1.026C362.131,15.287,362.677,16.207,363.07,17.191Zm-2.814-7.829c1.546,2.24,3.8.323,4.792.393,2.223.481,3.776.816,5.924,1.278l-5.8,3.008,9.013-1.482v-1.2c3.444-.458,6.748-.9,11.069-1.476L379.25,7.265c-1.259.379-2,.6-2.728.822-1.786-.364-3.393-.691-5.129-1.047l-2.264,1.986-3.762-.88Zm13.41-5.451c-.208.082-.42.162-.628.244a2.675,2.675,0,0,0,1.34.08Zm2.952.063q-.977.388-1.957.771l5.033,1.694c.544-.845.666-1.3,1.146-1.694a9.677,9.677,0,0,1,1.821-.843C381.434,3.413,380.74,3.14,376.618,3.974Zm9.13,1.88-3.206.265a13.516,13.516,0,0,0,3.7,1.716.073.073,0,0,1,0,.018c.1,0,.2,0,.3,0C386.286,7.209,386.031,6.566,385.748,5.854Zm4.644,3.887c-.11-.514-.181-.848-.281-1.312-1.1-.034-2.144-.062-3.719-.074.1.482.187.934.309,1.546Zm48.251,10.444c-.258-.418-.516-.838-.772-1.256l-.95.06v1.28Zm14.246-1.129c-.233-.534-.38-.872-.444-1.02-.872.348-1.855.742-2.556,1.02Zm7.263-3.394-2.6-1.653c-.467.118-.934.237-1.4.357a5.863,5.863,0,0,0,1.113.984,12.836,12.836,0,0,0,1.788.659Zm5.315-.314c-.218-.03-.446-.046-.664-.078v.454h.664Zm.774-3.895-32,.991c1.142.95,2.129,1.773,3.117,2.595.8.137,1.6.277,2.4.414q.922-.987,1.839-1.972l2.194.784c1.351-.452,2.7-.906,5.224-1.753l2.957,2.26c.495-.889.674-1.208.9-1.613,2.9-.241,6.026-.5,8.459-.7,1.22.131,2.206.237,3.223.344.487-.067.984-.126,1.435-.188.1.031.164.055.254.086Zm12.6,4.409h.662V15.09h-.662Zm12.443-1.346h1.992v-.256h-1.992Zm14.177-.762v1.278l1.708-.042L506.44,13.7Zm5.907.3h4v-.386h-4Zm50.13,9.6h.664v-.772H561.5Zm9.385-1.54-1.4-.355q-1.307.826-2.6,1.651.549.175,1.1.349a12.549,12.549,0,0,0,1.789-.661A5.929,5.929,0,0,0,570.882,22.107Zm6.7,5.46c-.428-.172-.963-.386-1.515-.6l-1.248.06c-.068.154-.14.322-.237.544Zm11.9-1.039c-.314-.02-.63-.04-.946-.058l-.774,1.254,1.72.084Zm-28.552-6.216v1.046h4.512l.4-.042c.16.013.345.029.513.042h2.981c.025.086.047.169.072.255,1.6.131,3.273.271,4.893.406.225.4.4.723.9,1.61,1.325-1.015,2.143-1.636,2.957-2.259l5.22,1.754c.536-.191.995-.357,2.194-.785l1.839,1.973,2.4-.415,3.117-2.592C581.609,20.953,571.346,20.636,560.932,20.312Zm76.828-4.35c-.1.464-.171.8-.281,1.314l3.69.158c.123-.612.213-1.064.31-1.546C639.9,15.9,638.858,15.93,637.76,15.962Zm3.649-2.087c-.287.714-.543,1.355-.8,2,.1,0,.2,0,.3,0l.006-.017a13.6,13.6,0,0,0,3.7-1.718Zm9.4-2.041c-4.123-.834-4.817-.561-6.042-.071a9.824,9.824,0,0,1,1.819.842c.48.389.6.848,1.148,1.695,2.21-.745,3.622-1.218,5.033-1.693Zm3.09-.362c-.234.108-.47.214-.708.322a2.7,2.7,0,0,0,1.336-.078C654.323,11.635,654.113,11.555,653.9,11.473ZM355.956,17.309q1.408-.153,2.813-.3l-.135-.366h-2.865Q355.863,16.973,355.956,17.309Zm-.691-7.293h1.992V9.76h-1.992Zm-23.208,2.438c4.258-.7,8.615-1.423,12.149-2.007l-7.714-2.982-3.429.775c-1.014-.272-1.965-.529-2.916-.787-1.667,1.38-4.153,2.7-2.262,4.266ZM292.22,9.027V7.109c-2.25,1.006-5.118.27-7.282.544-.893.112-1.436.7-2.718,1.374Zm-27.341,2.387V9.454l-1.764.067q.378.965.754,1.933Zm-28.886-1.061h2c-.31-.4-.752-.988-1.2-1.57l-.8.244Zm-19.353-.8h.664V8.784h-.664Zm-24,5.066,4-.079c-.3-.865-.57-1.622-1.024-2.921Zm-3.2-4.525h3.444c.171-1.72-1.425-1.732-3.987-1.134C189.086,9.362,189.251,9.706,189.439,10.1ZM169.53,14.07h1.992v-.256H169.53Zm-41.122.635c3.178.35,6.171.728,9,.2-1.076-.558-1.827-.948-2.757-1.428C132.485,13.9,130.447,14.3,128.408,14.7Zm-7.234-1.8h.664v-.772h-.664Zm-2.59-1.4h1.992v-.256h-1.992Zm-14.648,4.2h.664v-.772h-.664ZM69.709,20.057l5.219-1.96-6,.462C69.193,19.065,69.369,19.4,69.709,20.057Zm-58.261,4.01h1.992v-.256H11.447Zm-4.2,1.06V23.849l-1.722.084c.258.418.518.836.776,1.254C6.617,25.167,6.933,25.149,7.249,25.127ZM43.725,11.7l.694-.244a7.307,7.307,0,0,0-2.2-.376c.144-.048.287-.1.431-.15l-1.537-.63-.694.242a7.25,7.25,0,0,0,2.2.378l-.431.15Zm-8.787-.417h1V9.739h-1Zm-8.485-.705c1.361-.25,2.68-.5,4-.74-.226-.124-.453-.246-.681-.368H26.453ZM21.138,9.92H21.8V9.148h-.664Zm-5.224,1.034h1V9.411h-1ZM7.36,10.885h4V10.5h-4ZM1019,19.088c.14.048.29.1.43.15a7.245,7.245,0,0,0-2.2.376l.69.242c.51-.21,1.03-.42,1.54-.63-.14-.05-.29-.1-.43-.15a7.245,7.245,0,0,0,2.2-.376c-.23-.082-.46-.162-.69-.242C1020.02,18.668,1019.51,18.876,1019,19.088Zm5.79.261h.99V17.807h-.99Zm6.23-1.835c-.23.124-.46.246-.68.368,1.32.244,2.63.49,4,.742v-1.11Zm8.04.432h.66v-.772h-.66Zm5.82.8h.99V17.207h-.99Zm5.48-.09h4v-.386h-4Zm30.7.973-1.54.092.69,1.482c.29-.024.57-.048.85-.07Zm19.39-.479h3V18.7h-3ZM1.673,1163.3c.039-.41.424-.65.806-.9.174.1.347.19.521.29l-1.352.63c-.1-.06-.213-.12-.321-.18-.037.41-.422.66-.8.91-.174-.1-.349-.2-.523-.29l1.352-.63C1.458,1163.19,1.566,1163.25,1.673,1163.3Zm28.821,7.82c-2.084.36-4.094.71-6.083,1.05.168.76.3,1.35.425,1.93,3.192-.08,6.352.46,7.575-1.16C31.64,1172.21,30.974,1171.58,30.493,1171.12Zm6.185.36c-.922.5-1.524.82-3.234,1.75,3.95,0,6.74-.1,9.49.03,2.791.13,5.542.5,9.51.88-1.6-1.32-2.555-2.11-3.646-3-1.438.4-2.531.7-3.55.98-.668-.28-1.3-.55-1.99-.84-1.5.41-2.892.79-4.154,1.14C38.076,1172.02,37.34,1171.73,36.678,1171.48Zm13.418-7.51c-.263-.79-.394-1.19-.293-.88l-3.707.88Zm3.635,8.3c-.967,1.78,1.228,2.2,2.248,2.54,3.2-.31,5.526-.64,7.878-.74,2.818-.11,6.278-.58,8.358.1,3.238,1.07,5.329-.73,8.276-.18v-3.18c-2.387.87-4.087,1.48-5.888,2.14-.547-.23-1.368-.56-2.226-.91-1.348.43-2.476.79-3.615,1.15-1.253-.38-2.395-.73-3.509-1.07-.979.31-1.834.59-2.689.86-1.037-.61-.244-2.43-3.5-1.55-.458.6-.913,1.21-1.456,1.93C55.947,1172.89,54.915,1172.6,53.731,1172.27Zm30.745-.45H82.7v.3h1.772Zm6.462-.81h-.59v.91h.59Zm14.12,1.55c-3.184-2.36-7.52-2.47-11.411-3.23.715,1.85,1.291,3.33,1.783,4.59,2.813,1.14,4.667-1.11,7.77.03,2.1.77,5.956.15,9.447.15-2.217-1.02-3.793-1.74-5.334-2.45Zm12.144-.95c-.525-.25-1.087-.52-2.557-1.23.193,1.85.3,2.93.407,3.95,3.641.21,6.061-.17,6.561-1.96.142-.5-.218-1.04-.428-1.89C119.482,1170.96,118.362,1171.28,117.2,1171.61Zm8.136-1.25c-.941.99-1.808,1.89-2.62,2.8-.04.05.385.23.323.2h18.675c-2.131-1.48-3.143-2.19-4.234-2.95-1.817,2.41-5.636-.8-7.776,1.02A37.423,37.423,0,0,1,125.338,1170.36Zm20.31.73c-1.241.24-2.458.48-4.885.96,4.806.83,7.948,1.68,11.255,1.89,6.594.42,12.534-1.27,18.745-1.81-1.386-.89-2.552-1.64-3.315-2.12-2.1.31-3.611.54-6.25.94-1.1.54-3.032,1.48-4.662,2.28-1.778-.08-2.842-.13-3.819-.17-.284-.93-.508-1.67-.73-2.41l-1.732-.54c-.619.78-1.239,1.56-1.857,2.33C146.836,1171.68,145.83,1171.18,145.648,1171.09Zm39.09-1.49c-4.123.76-7.905,1.45-11.8,2.16.3.53.542.95.635,1.12,12.739,0,25.142.01,37.543-.03.412,0,.822-.42,1.222-.64.626.32,1.251.64,1.637.84,3.967-.44,7.692-.85,11.963-1.31-1-.88-1.852-1.61-3.091-2.69-5.273.57-10.578,1.15-16.941,1.84-.189-.14-1.159-.88-1.691-1.29-3.668.52-6.678.94-9.41,1.33-1.131-.29-2.1-.55-2.985-.78-.884.45-1.511.77-1.958,1C187.959,1170.57,186.109,1170.01,184.738,1169.6Zm43.094-.62c-.141.83-.265,1.56-.465,2.73,1.829-.26,2.994-.42,4.684-.66a46.278,46.278,0,0,0,14.558.08,8.64,8.64,0,0,1,2.225-.36c6.795,1.55,13.529-.85,20.265-.03,1.812.22,3.578.52,5.774.84,1.233-.51,2.682-1.12,4.389-1.82.932.26,1.849.53,2.961.84.39-.15.978-.38,1.466-.58,3.513.32,7,.63,10.2.91,1.41-.68,2.423-1.17,3.268-1.57,2.184.19,4.243.31,6.221.57a29.863,29.863,0,0,0,5.538.12c7.146-.36,14.419-.16,21.642-.11a5.92,5.92,0,0,1,1.9.77c.518-.23,1.086-.48,1.8-.79-.063-.18-.123-.35-.188-.53.28-.1.964-.34,11.024.01,2.54.22,4.287.39,5.5.52.845.02,1.689.04,2.534.04-1.311-.1-3.673-.27-8.035-.56-2.72-1.22,3.5-.33,9.437.43,2.472.31,1.9-.58,3.788-.29.021.14.045.3.068.46,1.232.09,2.59.24,4.323.36.316-.21,1.28-.85,1.6-1.06a84.2,84.2,0,0,1,10.357-.14,26.389,26.389,0,0,1,6.2-.38,17.07,17.07,0,0,0,2-.47,3.624,3.624,0,0,0,1.635.74c1.439-.62,2.833-1.22,4.174-1.79.9.27,1.564.47,2.705.81v-1.5c-1.021,0-2.021-.03-3-.05,0,0-.01.01-.014.01-1.69.1-3.327.13-4.931.1a11.184,11.184,0,0,1-3.089-.16c-1.043-.08-2.061-.21-3.07-.35a4.4,4.4,0,0,0-1.247.21c-3.276,1.12-4.164-1.11-6.507-.52-.914.3-1.592.51-2.311.74a4.683,4.683,0,0,0-1.063-.46,89.442,89.442,0,0,1-14.241,1.4c-5.852.12-11.958-.87-17.558.7-3.121-1.42-6.979-.59-10.492-.71-2.415-.08-5.054-.42-7.13.76s-3.735-1.36-6.646-.25c-1.186.44-4.435-.49-6.754-.5-2.094-.02-4.2.36-7.246.65-.068-.03-.943-.33-2.127-.73-2-.28-4.311,1.94-6.755.11-1.8,1.5-5.258.32-7.758,1.08-1.757.54-4.782-.79-6.793.63-.788-.26-1.413-.51-2.1-.7a4.787,4.787,0,0,0-1.454-.25c-1.9.89-3.788,0-5.525.08a52.994,52.994,0,0,0-7.559,1.37,4.95,4.95,0,0,0-5.388.32c-4.236-1.17-8.669-1.64-12.754-.03-1.253-.39-2.159-.67-3.2-1-1.153.3-2.325.6-3.856,1C230.039,1169.75,229.175,1169.45,227.832,1168.98Zm74.43-17.85H296.51c.123.3.223.55.323.79.689.12,1.414.26,2.207.41H297c.067.16.13.31.209.51,1.951-.23,3.628-.43,5.3-.63Q302.385,1151.67,302.262,1151.13Zm5.593-.04h-.59v.91h.59Zm7.523-.84c-.51.03-1.02.06-1.53.1q.345.735.688,1.47l.748-.06.094-.07Zm82.158,15.66c-.985.35-1.969.7-3.822,1.35l4.469.36c.224-.51.379-.85.531-1.2Zm6.073.71c-.258.42-.516.84-.774,1.25l1.722.09v-1.28Zm7.069.96h-1.992v.26h1.992Zm57.568,4.4c-.339.65-.518.99-.783,1.5,1.282.1,2.442.19,6,.46Zm34.332,4.82h-.664v.77h.664Zm15.488,3.3h-1.992v.26h1.992Zm1.4-1.11H518.8v.77h.664Zm15.779-1.39c-2.829-.54-5.824-.16-9,.19,2.038.4,4.076.81,6.243,1.23C533.417,1178.54,534.17,1178.15,535.246,1177.6Zm34.114.07h-1.992v.26h1.992Zm18.288,3.84c-.186.4-.353.74-.544,1.14,2.562.6,4.156.58,3.987-1.14Zm7.69-3.88c-1.714-.04-2.644-.05-4-.08.86.87,1.6,1.61,2.977,3C594.768,1179.25,595.033,1178.49,595.338,1177.63Zm20.1,5.06h-.666v.77h.666Zm18.758-1v1.33l.8.24c.444-.58.886-1.16,1.2-1.57Zm27.017-1.39c-.252.64-.5,1.28-.754,1.93.588.02,1.176.04,1.766.07v-1.97Zm29,2.71h-10c1.283.68,1.826,1.26,2.717,1.37,2.166.28,5.033-.46,7.283.55Zm35.946-2.91c-1.893,1.56.593,2.88,2.258,4.26.953-.25,1.9-.51,2.918-.78,1.464.33,2.753.62,3.43.77,2.657-1.02,5.082-1.96,7.714-2.98-3.537-.58-7.892-1.3-12.152-2.01C729.143,1179.57,727.78,1179.81,726.164,1180.1Zm28.373,1.5h-1.992v.26h1.992Zm-1.321-7.15c-.063.22-.125.44-.188.66h2.865l.135-.36Zm44.266,7.98c-.986.07-37.309-1.85-38.851.39,1.626.39,37.418.8,39.169,1.21,1.088-.25,2.353-.54,3.753-.87.831.73,1.459,1.28,2.255,1.98,1.733-.35,3.335-.68,5.114-1.04.727.21,1.464.44,2.721.82l5.988-2.63c-4.307-.57-7.6-1.01-11.035-1.47v-1.2c-2.29-.38-4.684-.77-8.986-1.48,2.753,1.43,4.159,2.16,5.78,3.01C801.247,1181.61,799.7,1181.95,797.482,1182.43Zm-2.169-7.37c-.392.98-.937,1.9,3.751,1.03C797.7,1175.71,796.615,1175.42,795.313,1175.06Zm8.134.15c-.8.23-1.667.48-3.359.98,1.284.11,2.485.22,4.717.42.269-.06.669-.16,1.131-.27.906.14,1.992.3,3.6.55l2.222-.47c2.329-.23,3.621,1.28,6.717.35.812-.25,3.581.23,5.476.27,2.527.05,5.074.01,8.134.01-.167-.52-.282-.88-.474-1.48-1.96.32-3.266.54-3.655.6-2.683-.15-4.766-.22-6.764-.39-1.73-.15-3.369-.41-5.585-.69-1.052.29-1.728.48-2.347.66-.81-.22-1.528-.42-2.453-.67-1.592.25-3.193.51-4.858.78C805.1,1175.64,804.375,1175.45,803.447,1175.21Zm13.058-4.98c-1.979.41-4.085.84-7.107,1.46,4.161.04,6.98,1.19,10.733.31.881-.21,3.124.57,6.267,1.19-1.01-1.3-1.575-2.03-2.329-3-1.514.42-2.369.66-3.752,1.05C819.242,1170.96,817.988,1170.63,816.505,1170.23Zm2.95-28.2h-1.992v.26h1.992Zm8.8,29.22c-.385.74-.564,1.08-.853,1.63h6C831,1172.12,829.911,1171.78,828.255,1171.25Zm5.751,5.29v1.58h26.961c1.034.59,2.159,1.23,4.039,2.29v-4c-2.019.38-3.584.66-5.313.98-4.121-.77-8.483-1.65-12.9-.01C842.869,1175.95,838.422,1176.86,834.006,1176.54Zm2.513-4.28c-.046.12-.09.24-.135.36l2.814.3c.063-.22.124-.44.186-.66Zm15.913-1.04c-4.058.27-7.164.48-11,.74,2.409.4,4.344.74,7.427,1.26C850.133,1172.51,851.124,1171.95,852.432,1171.22Zm5.976,1.65c-.969-.1-1.938-.19-2.906-.28q-.048.33-.094.66h2.884C858.332,1173.12,858.369,1172.99,858.408,1172.87Zm6.984-.22c-1.8-.12-2.642-.18-4-.28v2C863.257,1173.57,864.1,1173.21,865.392,1172.65Zm-23.754-6.17c.411.05.818.12,1.227.18a40.1,40.1,0,0,0-4.147,1.18c1.737.67,2.887,1.12,3.258,1.26,5.13.23,9.708.02,13.243.71,3.6.72,7.993-.57,10.775,1.05,2-1.55,5.225.11,7.744.17.22-.15.407-.28.656-.46.279.09.534.16.8.24a2.487,2.487,0,0,0,.806-.47c.921.14,1.814.27,2.713.41-.915-1.26-1.617-2.22-2.267-3.11-.794-.07-1.45-.13-1.883-.19-3.693-.58-7.489.64-10.943-.33-.367.47-.735.93-1.316,1.66-1.512-.99-2.665-1.75-4.193-2.75-1.808.04-4.24.09-7.181.15,1.194.55,1.818.83,2.443,1.12-.974.4-1.9.79-2.8,1.16-.963-.3-1.923-.61-3-.95l-3.331.97c-.763-.48-1.524-.95-.684-1.74.277.03.549.07.832.09s.674-.29-.374-.45C844.009,1166.19,842.822,1166.33,841.638,1166.48Zm33.124-12.56h-1.994v.25h1.994Zm3.973,13.86v2.57c1.613.21,3.191.42,4.655.61a22.34,22.34,0,0,1,6.18-.34c.854-.61,1.685-1.22,2.728-1.97,3.674.88,7.233,1.73,10.808,2.58-.072.03-.128.05-.2.08l1.894.24c.169-.4.346-.81.557-1.3,1.126,0,2.349,0,3.664-.04-.04.01-.169.06-.3.1l1.381.58c.209-.07.418-.15.627-.22a16.96,16.96,0,0,0-1.709-.46c-.09-.2-.09-.43-.193-.7l.28.11c.542-.17,1.081-.33,1.622-.49-.209-.08-.418-.15-.627-.23a10.645,10.645,0,0,0-1.275.61c-1.12.03-2.28.03-2.624.03-2.934-.54-4.4-.81-5.681-1.04.075-.06.139-.1.212-.16-4.523.13-8.995.24-12.926-.79-.358.1-.69.19-1.005.27.617.55,1.226,1.09,1.858,1.66h-5.18v-1.26C881.967,1168.02,880.29,1167.89,878.735,1167.78Zm17.772-9.49c-1.926-.26-3.913-.55-6-.86.979.65,1.957,1.3,3.022,2Q895,1158.815,896.507,1158.29Zm-5.038-3.67c-.876.24-1.97.53-3.743,1.02C892.028,1155.78,892.028,1155.78,891.469,1154.62ZM908,1144.25h-.96v.26H908Zm.7.07h-.368v.26h.368Zm5.206-.91h-.664v.77h.664Zm-11.531,34.05c.294.07.586.15.88.22.274-.26.547-.53.812-.78-.107-.06-.2-.11-.3-.18-.381-.02-.857-.05-1.388-.09Zm17.677,1.53a45.359,45.359,0,0,1-11.358-.52,6.367,6.367,0,0,0-1.108.48c-.444-.28-.881-.55-1.321-.82-2.215-.14-4.84.19-5.907,1.54,6.237.18,12.07,1.42,18.495,1a8.394,8.394,0,0,1,1.886.06,106.136,106.136,0,0,0,14.566,1.45c.359-.08.72-.15,1.091-.23.321.09.629.18.943.27,1.423.02,2.847.03,4.283-.01.589-.02,1.115.02,1.648.05l6.813-1.01c.339.07,1.141.24,2.1.44,5.488-.3,11.187-.62,17.84-.99l-2.847-1.49c4.166.44,7.715.82,11.256,1.19,3.742-.53,7.491-1.07,11.2-1.6.8.3,1.5.56,1.47.55.632.01,1.242-.03,1.846-.07-1.061-.18-2.136-.37-3.268-.57,1.638-.53,3.009-.98,4.3-1.4,1.466.49,3.143.82,3.579,1.41q1.043-.165,2.08-.3c-.018-.03-.032-.05-.049-.08h.729a21.439,21.439,0,0,1,5.43,0h1.01c-.12.04-.22.07-.33.11.32.06.63.09.96.17,2.44-.37,5.16-.77,7.95-1.18,2.4,2.09,7.27-1.52,9.94.5,2.76-1.56,7.12-.31,10.7-1.01,3.5-.68,8.05-.47,13.14-.69.37-.14,1.52-.57,3.24-1.22a38.459,38.459,0,0,0-4.12-1.15l1.22-.18c-1.17-.14-2.35-.27-2.37-.09-1.04.15-.65.45-.37.44s.56-.06.83-.09c.83.77.08,1.22-.68,1.68-1.12-.32-2.08-.59-3.31-.94-1.07.34-2.02.63-2.98.93-.89-.36-1.81-.74-2.78-1.13.62-.28,1.24-.56,2.43-1.08-2.92-.06-5.34-.11-7.13-.15-1.52.97-2.66,1.71-4.17,2.67-.57-.71-.94-1.16-1.3-1.61-3.43.94-7.2-.25-10.87.31-1.73.27-7.05.41-10.68,1.09-.83-.26-1.79-.56-3.06-.96-7.648,2.3-17.387-.42-25.468,1.65a25.374,25.374,0,0,1-4.815.04c-3.9,0-8.449-.51-11.543.13-.11.03-.2.03-.31.05,1.409.1,2.726.18,4.3.29-1.365,1.15-2.488,2.1-3.679,3.1-1.238-.23-1.993-.37-2.24-.41.5-.76.912-1.39,1.363-2.08-4.136.29-7.442.52-10.728.79-.265.02-.379.34-.861.82h7.907c-1.327.73-2.241,1.23-3.014,1.65-4.978-.95-9.319-1.68-13.793-.19a5.762,5.762,0,0,0-1.289-.46c-3.143-.46-6.812-.13-9.647-1.07C926.163,1180.35,923.23,1178.81,920.055,1178.99Zm2.428-33.76h-1.992v.25h1.992Zm3.76-1.51c-.508.26-.938.49-1.391.72.375.3.825.66,1.391,1.11Zm4.977,29.21a8.359,8.359,0,0,0-1.644.17l3,.15C932.2,1173.16,931.734,1173.05,931.22,1172.93Zm7.552,5.54c-.366.05-.748.1-1.126.15v.06c.326.01.654.03.98.05Zm-1.207-5.42c-1.328.16-2.435.29-4,.48,1.354.08,2.688.15,4,.23Zm4.8.97h1.176v-.26h-1.992v.15C941.826,1173.94,942.1,1173.98,942.368,1174.02Zm4.894,3.88h-4v.39h4Zm8.55-18.22c-.318.06-.494.12-.494.18a3.6,3.6,0,0,1,.494-.09Zm2.748.14c-.779.05-1.453.11-2,.17h1.923C958.508,1159.94,958.537,1159.87,958.56,1159.82ZM942.822,1158c-2.889.05-5.678.12-8.166.22a3.516,3.516,0,0,1,1.09.74c1.846-.05,3.833-.1,5.885-.15-.178.05-.358.1-.528.15l.606.22.933-.39c5.8-.13,11.975-.26,16.748-.4.084-.16.173-.33.266-.5-2.361,0-5.07,0-7.921.01-.217-.01-.436-.03-.651-.05q-.012.03-.021.06c-1.474.01-2.977.02-4.484.04-.046-.25-.094-.5-.145-.77C945.034,1157.5,943.9,1157.76,942.822,1158Zm6.79-9.08h-.664v.77h.664Zm16.028,9.32c-.564-.01-1.206-.01-1.914-.02.338.11.7.24,1.062.36.3-.01.59-.03.852-.04Zm1.342,8.72c-.488-.31-.972-.61-1.477-.93-.4.1-.768.19-1.117.28-.092-.07-.173-.13-.267-.19C965.935,1165.97,967.624,1165.8,966.982,1166.96Zm2.324-17.59h-4v.38h4Zm.068,2.79v1.2c.512-.39.984-.76,1.43-1.1C970.34,1152.23,969.838,1152.18,969.374,1152.16Zm.574-1.54v.25c.2.02.384.03.562.04C970.328,1150.82,970.158,1150.73,969.948,1150.62Zm6.828,2.43h-1.4v.26h1.4Zm3.2,13.01-2.813.3c.047.12.09.24.135.37h2.865C980.1,1166.5,980.036,1166.28,979.972,1166.06Zm4.485-13.7h-.664v.77h.664Zm.81,13.93c-.041.24-.085.48-.131.75,1.66.04,2.885.07,4.3,0l-.4.15,1.446.63.656-.24a8.347,8.347,0,0,0-1.892-.43c.346-.14.694-.28,1.04-.41l-1-.24Zm5.909-14.26h-1.992v.26h1.992Zm7.936,15.42c-.7-.06-1.361-.12-1.992-.18-.061.25.2.56,1,.97C998.462,1167.96,998.787,1167.71,999.112,1167.45Zm1.418-4.91c-.36.15-.726.29-1.074.43-.062.5.714.48,3.994.37C1002.18,1162.99,1001.27,1162.75,1000.53,1162.54Zm16.75-.57h-.23c.15.09.27.17.4.25h.6v-.25h-.52c-.04.01-.09.03-.13.04C1017.36,1162,1017.32,1161.98,1017.28,1161.97Zm22.13-11.58h-1.99v.26h1.99Zm15.94,30.32c-.05-.12-.09-.25-.14-.37h-2.86c.06.22.12.44.18.67Zm-16.05-.67c1.31.73,2.29,1.29,3.57,2,3.08-.52,5.02-.85,7.43-1.26C1046.46,1180.52,1043.36,1180.31,1039.3,1180.04Zm-7.04,1.18c.04.13.07.26.11.38h2.89c-.04-.22-.07-.44-.1-.66C1034.19,1181.04,1033.22,1181.13,1032.26,1181.22Zm-6.99-1.12c1.29.56,2.14.92,4,1.72v-2C1027.91,1179.92,1027.08,1179.98,1025.27,1180.1Zm31.69,3.85c-4.42.32-8.87-.59-12.78.83-4.42-1.63-8.79-.75-12.91.02-1.73-.32-3.29-.61-5.31-.98v4c1.88-1.07,3.01-1.7,4.04-2.29h26.96Zm5.59-4.64c-1.66.53-2.75.87-5.15,1.64h6C1063.11,1180.39,1062.93,1180.05,1062.55,1179.31Zm4.25-1.31c-.75.98-1.32,1.7-2.33,3,3.15-.62,5.39-1.39,6.27-1.19,3.75.89,6.57-.26,10.73-.31-3.02-.62-5.12-1.05-7.1-1.45-1.49.39-2.74.72-3.82,1.01Zm21,5.3-2.51.65c-1.66-.27-3.27-.53-4.86-.78-.92.25-1.64.45-2.45.67-.62-.18-1.29-.36-2.35-.66-2.21.28-3.85.54-5.58.69-2,.17-4.08.24-6.77.39-.38-.06-1.69-.28-3.65-.59-.19.59-.31.95-.48,1.47,3.07,0,5.61.05,8.14-.01,1.89-.04,4.66-.52,5.48-.27,3.09.94,4.38-.58,6.71-.35.9.19,1.8.38,2.22.47,1.61-.25,2.7-.41,3.6-.55.47.11.87.21,1.14.27,2.23-.2,3.43-.3,4.71-.42C1089.46,1183.78,1088.59,1183.53,1087.8,1183.3Zm8.2-.49c-1.3.36-2.38.65-3.75,1.03C1096.94,1184.71,1096.39,1183.79,1096,1182.81Zm2.81,7.83c-1.54-2.24-3.8-.32-4.79-.39-2.22-.49-3.78-.82-5.92-1.28,1.62-.85,3.03-1.58,5.79-3.01-4.31.71-6.71,1.1-9.01,1.48v1.2c-3.44.46-6.75.9-11.07,1.47,2.56,1.12,4.34,1.9,6.01,2.62,1.26-.37,2-.6,2.73-.82,1.78.37,3.39.69,5.13,1.05.8-.7,1.42-1.25,2.26-1.99,1.4.33,2.67.63,3.76.88C1095.46,1191.44,1097.18,1191.03,1098.81,1190.64Zm-13.41,5.45.63-.24a2.6,2.6,0,0,0-1.34-.08C1084.93,1195.87,1085.17,1195.98,1085.4,1196.09Zm-2.95-.06c.65-.26,1.3-.52,1.96-.78-1.41-.47-2.82-.94-5.04-1.69-.54.85-.66,1.31-1.14,1.69a9.325,9.325,0,0,1-1.82.85C1077.63,1196.59,1078.33,1196.86,1082.45,1196.03Zm-9.13-1.88c1.51-.13,2.36-.2,3.21-.27a13.674,13.674,0,0,0-3.7-1.72v-.01h-.3C1072.78,1192.79,1073.04,1193.43,1073.32,1194.15Zm-4.64-3.89c.11.51.18.85.28,1.31,1.09.04,2.14.06,3.72.08-.1-.49-.19-.94-.31-1.55C1070.93,1190.16,1069.86,1190.21,1068.68,1190.26Zm-48.26-10.44c.26.41.52.83.78,1.25l.95-.06v-1.28Zm-14.24,1.12c.23.54.38.88.44,1.02.88-.34,1.86-.74,2.56-1.02Zm-7.264,3.4q1.3.825,2.6,1.65l1.4-.36a6.091,6.091,0,0,0-1.12-.98,14.312,14.312,0,0,0-1.78-.66C999.649,1184.11,999.282,1184.22,998.916,1184.34Zm-5.315.31c.218.03.446.05.664.08v-.45H993.6Zm-.774,3.9c10.413-.33,20.673-.64,32-.99-1.14-.95-2.13-1.78-3.12-2.6-.8-.14-1.6-.28-2.4-.41-.61.66-1.23,1.31-1.84,1.97-1.19-.43-1.66-.59-2.19-.78-1.35.45-2.7.9-5.22,1.75-.82-.62-1.63-1.25-2.96-2.26-.5.89-.68,1.21-.9,1.61-2.91.24-6.03.5-8.461.7-1.22-.13-2.206-.23-3.223-.34-.487.07-.984.13-1.435.19-.095-.03-.164-.06-.254-.09Zm-12.6-4.41h-.662v.77h.662Zm-12.442,1.34h-1.992v.26h1.992Zm-14.178.77v-1.28c-.568.01-1.138.03-1.708.04l.728,1.29C952.954,1186.28,953.28,1186.26,953.608,1186.25Zm-5.907-.3h-4v.39h4Zm-50.13-9.6h-.664v.78h.664Zm-9.385,1.54,1.4.36q1.307-.825,2.6-1.65c-.366-.12-.732-.24-1.1-.35a12.547,12.547,0,0,0-1.789.66A5.747,5.747,0,0,0,888.186,1177.89Zm-6.7-5.46c.428.18.963.39,1.515.61l1.248-.06c.068-.16.14-.32.237-.55Zm-11.9,1.04.946.06c.258-.42.516-.84.774-1.25l-1.72-.09Zm28.552,6.22v-1.05h-4.512c-.138.02-.258.03-.4.04-.16-.01-.345-.02-.513-.04h-2.98c-.026-.08-.048-.17-.073-.25-1.6-.13-3.273-.27-4.893-.41-.225-.4-.4-.72-.9-1.61-1.325,1.02-2.143,1.64-2.957,2.26-2.519-.85-3.872-1.3-5.22-1.75-.536.19-.995.35-2.194.78-.611-.65-1.224-1.31-1.839-1.97-.8.14-1.6.27-2.4.41-.988.82-1.975,1.65-3.117,2.6C877.459,1179.05,887.722,1179.36,898.136,1179.69Zm-76.828,4.35c.1-.47.171-.8.282-1.32-1.187-.05-2.258-.09-3.691-.15-.122.61-.213,1.06-.309,1.54C819.164,1184.1,820.21,1184.07,821.308,1184.04Zm-3.649,2.08c.288-.71.543-1.35.8-1.99-.1,0-.2-.01-.3-.01,0,.01,0,.02-.006.02a13.521,13.521,0,0,0-3.7,1.72C815.309,1185.93,816.148,1186,817.659,1186.12Zm-9.4,2.05c4.124.83,4.818.56,6.043.07a9.407,9.407,0,0,1-1.82-.85c-.48-.38-.6-.84-1.148-1.69-2.21.75-3.622,1.22-5.032,1.69Zm-3.09.36c.234-.11.47-.22.708-.32a2.77,2.77,0,0,0-1.336.07C804.745,1188.37,804.955,1188.45,805.165,1188.53Zm297.945-5.84-2.81.3c.04.12.09.24.13.37h2.87C1103.24,1183.14,1103.17,1182.92,1103.11,1182.69Zm.69,7.29h-1.99v.26h1.99Zm23.21-2.43c-4.26.7-8.61,1.42-12.15,2,2.63,1.02,5.06,1.96,7.72,2.98l3.43-.77c1.01.27,1.96.53,2.91.79,1.67-1.38,4.15-2.71,2.26-4.27C1129.56,1188,1128.2,1187.75,1127.01,1187.55Zm39.84,3.42v1.92c2.25-1,5.12-.27,7.28-.54.89-.11,1.44-.7,2.72-1.38Zm27.34-2.38v1.96c.59-.03,1.18-.05,1.76-.07-.25-.64-.5-1.29-.75-1.93Zm28.89,1.06h-2c.31.4.75.99,1.19,1.57.27-.08.54-.16.81-.25Zm19.35.79h-.67v.78h.67Zm24-5.06c-1.36.02-2.29.04-4,.08.3.86.57,1.62,1.02,2.92C1264.82,1186.99,1265.57,1186.24,1266.43,1185.38Zm3.2,4.52h-3.45c-.17,1.72,1.43,1.73,3.99,1.14C1269.98,1190.64,1269.82,1190.29,1269.63,1189.9Zm19.91-3.97h-1.99v.26h1.99Zm41.12-.63c-3.18-.35-6.17-.73-9-.2,1.08.56,1.83.95,2.76,1.43C1326.58,1186.1,1328.62,1185.7,1330.66,1185.3Zm7.23,1.79h-.66v.78h.66Zm2.59,1.4h-1.99v.26h1.99Zm14.65-4.2h-.66v.77h.66Zm34.23-4.35c-1.57.59-2.63.99-5.22,1.96,3.56-.27,4.72-.36,6-.46C1389.88,1180.94,1389.7,1180.6,1389.36,1179.94Zm58.26-4.01h-1.99v.26h1.99Zm4.2-1.06v1.28c.57-.03,1.15-.06,1.72-.08l-.78-1.26Zm-36.48,13.43c-.23.08-.46.16-.69.25a7.667,7.667,0,0,0,2.2.37c-.14.05-.29.1-.43.15l1.53.63c.23-.08.47-.16.7-.24a7.3,7.3,0,0,0-2.2-.38c.14-.05.29-.1.43-.15Zm8.79.42h-1v1.54h1Zm8.48.7c-1.36.25-2.67.5-4,.74.23.13.46.25.69.37h3.31Zm5.32.66h-.66v.77h.66Zm5.22-1.03h-.99v1.54h.99Zm8.56.07h-4v.38h4Zm-1011.64-8.21-.432-.15a7.336,7.336,0,0,0,2.2-.37l-.693-.25-1.539.63.432.15a7.263,7.263,0,0,0-2.2.38l.693.24Zm-5.788-.26h-1v1.54h1Zm-6.232,1.84c.228-.13.454-.25.681-.37-1.32-.25-2.638-.49-4-.74v1.11Zm-8.04-.44h-.664v.78h.664Zm-5.819-.8h-1v1.54h1Zm-5.481.09h-4v.39h4Zm-30.7-.97,1.532-.09c-.23-.5-.46-.99-.69-1.49-.282.03-.562.05-.842.07Zm-19.391.48h-3v.45h3Z" fill="#230e31"/>
          </g>
        </g>
      </g>
    </g>
  </g>
</svg>
