<?xml version="1.0" encoding="UTF-8"?>
<svg width="191px" height="145px" viewBox="0 0 191 145" version="1.1" xmlns="http://www.w3.org/2000/svg" xmlns:xlink="http://www.w3.org/1999/xlink">
    <!-- Generator: Sketch 59.1 (86144) - https://sketch.com -->
    <title>Group 45</title>
    <desc>Created with Sketch.</desc>
    <defs>
        <linearGradient x1="100.839563%" y1="50%" x2="1.19073174%" y2="50%" id="linearGradient-1">
            <stop stop-color="#FF933D" offset="0%"></stop>
            <stop stop-color="#FF29A4" offset="100%"></stop>
        </linearGradient>
        <linearGradient x1="100.839563%" y1="50%" x2="1.19073174%" y2="50%" id="linearGradient-2">
            <stop stop-color="#FF933D" offset="0%"></stop>
            <stop stop-color="#FF29A4" offset="100%"></stop>
        </linearGradient>
    </defs>
    <g id="Careers" stroke="none" stroke-width="1" fill="none" fill-rule="evenodd">
        <g id="01_Careers" transform="translate(-1136.000000, -4289.000000)" fill-rule="nonzero">
            <g id="Group-50" transform="translate(-26.000000, 4125.000000)">
                <g id="Group-45" transform="translate(1162.000000, 164.000000)">
                    <path d="M0.512219819,144.301728 C40.1088406,106.815367 41.975648,73.9177722 22.5769734,71.2003341 C-7.40748577,67 0.088629019,120.904287 52.5614325,120.904287 C87.5433015,120.904287 119.193564,102.936191 147.51222,67" id="Path" stroke="url(#linearGradient-1)" opacity="0.5" stroke-dasharray="4,4"></path>
                    <g id="Combined-Shape-4" transform="translate(116.000000, 0.000000)" fill="url(#linearGradient-2)" opacity="0.699999988">
                        <path d="M85.4841198,11.0200665 C85.6707011,10.9592678 85.8368292,11.043612 85.9274924,11.1791086 C85.932861,11.1871028 85.9378489,11.1950087 85.9425631,11.2030796 C86.0171584,11.3319293 86.0262305,11.4991393 85.9275442,11.6327647 L53.2033554,70.7944576 C53.056359,71.060221 52.6786388,71.0703144 52.5177148,70.8127791 L42.133,54.193 L26.894605,57.6603855 C26.6364913,57.7462706 26.3283417,57.5379748 26.3754088,57.220823 L29.0796003,38.9991993 L8.26967583,31.8912643 C7.89584535,31.763577 7.91570992,31.227181 8.29795668,31.1276065 Z M84.418,12.711 L37.572,45.391 L52.8342483,69.8159403 L84.418,12.711 Z M36.983776,45.9529803 L27.855,56.623 L41.685,53.477 L36.983776,45.9529803 Z M81.1774448,14.0009934 L29.884,38.995 L27.3662052,55.9687505 L36.7316377,45.0218527 L36.739103,45.0132426 C36.7588498,44.9914934 36.7813203,44.9716065 36.806423,44.954095 L36.767,44.987 L36.7949168,44.9621806 C36.7977438,44.960044 36.8005922,44.957951 36.8034612,44.9559014 L36.806423,44.954095 L81.1774448,14.0009934 Z M81.823,12.798 L9.7827435,31.565169 L29.495,38.298 L81.823,12.798 Z" id="Combined-Shape" transform="translate(47.000000, 41.000000) rotate(-18.000000) translate(-47.000000, -41.000000) "></path>
                    </g>
                </g>
            </g>
        </g>
    </g>
</svg>