<?xml version="1.0" encoding="UTF-8"?>
<svg width="230px" height="230px" viewBox="0 0 230 230" version="1.1" xmlns="http://www.w3.org/2000/svg" xmlns:xlink="http://www.w3.org/1999/xlink">
    <!-- Generator: Sketch 60 (88103) - https://sketch.com -->
    <title>Group 87</title>
    <desc>Created with Sketch.</desc>
    <g id="Careers" stroke="none" stroke-width="1" fill="none" fill-rule="evenodd">
        <g id="01_Careers" transform="translate(-924.000000, -2277.000000)">
            <g id="Group-87" transform="translate(924.000000, 2277.000000)">
                <circle id="Oval-Copy-14" fill="none" fill-rule="nonzero" cx="115" cy="115" r="115"></circle>
                <g id="Group-3" opacity="0.24093192" transform="translate(111.886376, 118.907713) rotate(-339.000000) translate(-111.886376, -118.907713) translate(67.386376, 32.407713)" fill="#FFFFFF">
                    <path d="M44.1453029,27.8972845 C44.1453029,30.2064274 42.2340959,32.0821584 39.88128,32.0821584 L37.3228662,32.0821584 L37.3228662,20.8282761 L39.88128,20.8282761 C42.2340959,20.8282761 44.1453029,22.7040072 44.1453029,25.01315 L44.1453029,27.8972845 Z M26.7090453,45.756108 L23.6163444,45.756108 C22.588869,45.756108 21.7566139,44.9393013 21.7566139,43.9308979 C21.7566139,42.9224946 22.588869,42.105587 23.6163444,42.105587 L26.7090453,42.105587 C27.7365207,42.105587 28.568673,42.9224946 28.568673,43.9308979 C28.568673,44.9393013 27.7365207,45.756108 26.7090453,45.756108 L26.7090453,45.756108 Z M9.9098225,32.0821584 L7.35140875,32.0821584 C4.99849008,32.0821584 3.08738584,30.2064274 3.08738584,27.8972845 L3.08738584,25.01315 C3.08738584,22.7040072 4.99849008,20.8282761 7.35140875,20.8282761 L9.9098225,20.8282761 L9.9098225,32.0821584 Z M40.3332664,18.4283769 L40.3332664,16.5829988 C40.3332664,12.1661921 38.7406795,8.06199038 35.8535764,5.01661223 C32.8944472,1.89056181 28.8255419,0.176276094 24.3869509,0.176276094 L22.8354631,0.176276094 C18.3967693,0.176276094 14.3279667,1.89056181 11.3688376,5.01661223 C8.48163169,8.06199038 6.88904482,12.1661921 6.88904482,16.5829988 L6.88904482,18.4283769 C3.3853537,18.6602089 0.600895364,21.5241753 0.600895364,25.0233349 L0.600895364,27.9073685 C0.600895364,31.5476038 3.62167305,34.5124105 7.33085924,34.5124105 L11.1222435,34.5124105 C11.8003772,34.5124105 12.355214,33.9677719 12.355214,33.3023265 L12.355214,19.6181921 C12.355214,18.9527467 11.8003772,18.408108 11.1222435,18.408108 L9.35498579,18.408108 L9.35498579,16.5829988 C9.35498579,8.60652819 15.1499471,2.59644416 22.8251883,2.59644416 L24.3766762,2.59644416 C32.0620894,2.59644416 37.8468787,8.60652819 37.8468787,16.5829988 L37.8468787,18.408108 L36.079621,18.408108 C35.4013845,18.408108 34.8466505,18.9527467 34.8466505,19.6181921 L34.8466505,33.2922425 C34.8466505,33.9577887 35.4013845,34.5023265 36.079621,34.5023265 L37.8057797,34.5023265 C37.302214,40.8149316 32.8738977,42.2771164 30.8189469,42.6097887 C30.2538355,40.9056879 28.6200468,39.6754358 26.6987706,39.6754358 L23.6163444,39.6754358 C21.2326014,39.6754358 19.2906729,41.5812173 19.2906729,43.9207131 C19.2906729,46.2603097 21.2326014,48.1762761 23.6163444,48.1762761 L26.7090453,48.1762761 C28.7023476,48.1762761 30.3771325,46.8450828 30.8804927,45.0502257 C31.8875213,44.9089484 33.4801082,44.5560072 35.0624203,43.6484442 C37.292042,42.3678727 39.9326537,39.756108 40.2818926,34.4921416 C43.806236,34.2804778 46.6008954,31.4065282 46.6008954,27.8972845 L46.6008954,25.01315 C46.6112438,21.5241753 43.8370603,18.6502257 40.3332664,18.4283769 L40.3332664,18.4283769 Z" id="Fill-1"></path>
                    <g id="Group-9" transform="translate(47.000000, 131.000000)">
                        <path d="M21.6851054,29.9576589 C19.6896697,29.9576589 18.0689228,28.336912 18.0689228,26.3414763 C18.0689228,24.3461278 19.6896697,22.7252938 21.6851054,22.7252938 C23.6805411,22.7252938 25.301288,24.3461278 25.301288,26.3414763 C25.301288,28.336912 23.6805411,29.9576589 21.6851054,29.9576589 M22.8614539,20.4858747 L22.8614539,1.26346805 C22.8614539,0.609941079 22.3386324,0.0871195021 21.6851054,0.0871195021 C21.0315784,0.0871195021 20.5087568,0.609941079 20.5087568,1.26346805 L20.5087568,20.4858747 C17.781371,21.0348373 15.7162257,23.4485303 15.7162257,26.3414763 C15.7162257,29.2344224 17.781371,31.6481154 20.5087568,32.197078 L20.5087568,40.7539245 C20.5087568,41.4074515 21.0315784,41.930273 21.6851054,41.930273 C22.3386324,41.930273 22.8614539,41.4074515 22.8614539,40.7539245 L22.8614539,32.197078 C25.5888398,31.6481154 27.6539851,29.2344224 27.6539851,26.3414763 C27.6539851,23.457244 25.5975535,21.0348373 22.8614539,20.4858747" id="Fill-1"></path>
                        <path d="M36.001729,20.0937846 C34.0062934,20.0937846 32.3855465,18.4730378 32.3855465,16.4776021 C32.3855465,14.4821664 34.0062934,12.8614195 36.001729,12.8614195 C37.9970776,12.8614195 39.6179116,14.4821664 39.6179116,16.4776021 C39.6179116,18.4730378 37.9970776,20.0937846 36.001729,20.0937846 M37.1780776,10.6220004 L37.1780776,1.26349419 C37.1780776,0.60996722 36.655256,0.0871456432 36.001729,0.0871456432 C35.3482021,0.0871456432 34.8253805,0.60996722 34.8253805,1.26349419 L34.8253805,10.6220004 C32.0979946,11.1709631 30.0328494,13.584656 30.0328494,16.4776021 C30.0328494,19.3705481 32.0979946,21.7842411 34.8253805,22.3332037 L34.8253805,40.7626643 C34.8253805,41.4161913 35.3482021,41.9390129 36.001729,41.9390129 C36.655256,41.9390129 37.1780776,41.4161913 37.1780776,40.7626643 L37.1780776,22.32449 C39.9054635,21.7755274 41.9706087,19.3618344 41.9706087,16.4688884 C41.9706087,13.5759423 39.91409,11.1709631 37.1780776,10.6220004" id="Fill-6"></path>
                        <path d="M7.12672905,20.0937846 C5.13129336,20.0937846 3.51054647,18.4730378 3.51054647,16.4776021 C3.51054647,14.4821664 5.13129336,12.8614195 7.12672905,12.8614195 C9.12207759,12.8614195 10.7429116,14.4821664 10.7429116,16.4776021 C10.7429116,18.4730378 9.12207759,20.0937846 7.12672905,20.0937846 M8.30307759,10.6220004 L8.30307759,1.26349419 C8.30307759,0.60996722 7.78025602,0.0871456432 7.12672905,0.0871456432 C6.47320207,0.0871456432 5.9503805,0.60996722 5.9503805,1.26349419 L5.9503805,10.6220004 C3.22299461,11.1709631 1.15784938,13.584656 1.15784938,16.4776021 C1.15784938,19.3705481 3.22299461,21.7842411 5.9503805,22.3332037 L5.9503805,40.7626643 C5.9503805,41.4161913 6.47320207,41.9390129 7.12672905,41.9390129 C7.78025602,41.9390129 8.30307759,41.4161913 8.30307759,40.7626643 L8.30307759,22.32449 C11.0304635,21.7755274 13.0956087,19.3618344 13.0956087,16.4688884 C13.0956087,13.5759423 11.03909,11.1709631 8.30307759,10.6220004" id="Fill-6-Copy"></path>
                    </g>
                </g>
            </g>
        </g>
    </g>
</svg>