<?xml version="1.0" encoding="UTF-8"?>
<svg width="316px" height="316px" viewBox="0 0 316 316" version="1.1" xmlns="http://www.w3.org/2000/svg" xmlns:xlink="http://www.w3.org/1999/xlink">
    <!-- Generator: Sketch 60 (88103) - https://sketch.com -->
    <title>Group 88</title>
    <desc>Created with Sketch.</desc>
    <g id="Careers" stroke="none" stroke-width="1" fill="none" fill-rule="evenodd">
        <g id="01_Careers" transform="translate(-966.000000, -1916.000000)">
            <g id="Group-88" transform="translate(966.000000, 1916.000000)">
                <circle id="Oval-Copy-12" fill="none" fill-rule="nonzero" cx="158" cy="158" r="158"></circle>
                <g id="Group-80" opacity="0.242745536" transform="translate(60.000000, 48.000000)" fill="#FFFFFF">
                    <g id="Group-7" transform="translate(48.292969, 29.500000) rotate(-34.000000) translate(-48.292969, -29.500000) translate(27.292969, 8.500000)">
                        <path d="M39.5390625,39.5390625 L27.234375,39.5390625 L27.234375,38.3085938 C27.234375,34.8706641 29.9947266,32.0742188 33.3867188,32.0742188 C36.7787109,32.0742188 39.5390625,34.8706641 39.5390625,38.3085938 L39.5390625,39.5390625 Z M26.8742578,15.2077734 C26.6429297,14.9772656 26.3303906,14.8476562 26.0039062,14.8476562 L18.5390625,14.8476562 C17.8606641,14.8476562 17.3085938,14.2955859 17.3085938,13.6171875 L17.3085938,3.7734375 C17.3085938,3.07453125 17.8836328,2.4609375 18.5390625,2.4609375 L35.8476562,2.4609375 C36.5030859,2.4609375 37.078125,3.07453125 37.078125,3.7734375 L37.078125,13.6171875 C37.078125,14.2955859 36.5260547,14.8476562 35.8476562,14.8476562 L30.9257812,14.8476562 C30.2465625,14.8476562 29.6953125,15.3989062 29.6953125,16.078125 L29.6953125,18.0296484 L26.8742578,15.2077734 Z M33.3867188,22.2304688 C35.4219141,22.2304688 37.078125,23.8866797 37.078125,25.921875 C37.078125,27.9570703 35.4219141,29.6132812 33.3867188,29.6132812 C31.3515234,29.6132812 29.6953125,27.9570703 29.6953125,25.921875 C29.6953125,23.8866797 31.3515234,22.2304688 33.3867188,22.2304688 L33.3867188,22.2304688 Z M13.5351562,14.8476562 C13.2086719,14.8476562 12.8961328,14.9772656 12.6648047,15.2077734 L9.84375,18.0296484 L9.84375,16.078125 C9.84375,15.3989062 9.2925,14.8476562 8.61328125,14.8476562 L6.15234375,14.8476562 C5.47394531,14.8476562 4.921875,14.2955859 4.921875,13.6171875 L4.921875,6.234375 C4.921875,5.55597656 5.47394531,5.00390625 6.15234375,5.00390625 L14.8476562,5.00390625 L14.8476562,7.46484375 L8.61328125,7.46484375 C7.9340625,7.46484375 7.3828125,8.01609375 7.3828125,8.6953125 C7.3828125,9.37453125 7.9340625,9.92578125 8.61328125,9.92578125 L14.8476562,9.92578125 L14.8476562,13.6171875 C14.8476562,14.0486719 14.923125,14.4629297 15.0592969,14.8476562 L13.5351562,14.8476562 Z M11.2226953,23.3132812 C11.89125,23.9810156 12.3046875,24.9046875 12.3046875,25.921875 C12.3046875,27.9570703 10.6484766,29.6132812 8.61328125,29.6132812 C6.57808594,29.6132812 4.921875,27.9570703 4.921875,25.921875 C4.921875,23.8866797 6.57726563,22.2312891 8.61246094,22.2304688 L8.61328125,22.2304688 C9.63128906,22.2304688 10.5541406,22.6447266 11.2226953,23.3132812 L11.2226953,23.3132812 Z M14.765625,38.3085938 L14.765625,39.5390625 L2.4609375,39.5390625 L2.4609375,38.3085938 C2.4609375,34.8706641 5.22128906,32.0742188 8.61328125,32.0742188 C12.0052734,32.0742188 14.765625,34.8706641 14.765625,38.3085938 L14.765625,38.3085938 Z M37.3734375,30.6025781 C38.6974219,29.4730078 39.5390625,27.7946484 39.5390625,25.921875 C39.5390625,22.5290625 36.7787109,19.7695312 33.3867188,19.7695312 C32.9650781,19.7695312 32.5541016,19.8121875 32.15625,19.8933984 L32.15625,17.3085938 L35.8476562,17.3085938 C37.8828516,17.3085938 39.5390625,15.6523828 39.5390625,13.6171875 L39.5390625,3.7734375 C39.5390625,1.73332031 37.8902344,0 35.8476562,0 L18.5390625,0 C16.8984375,0 15.5457422,1.11152344 15.0535547,2.54296875 L6.15234375,2.54296875 C4.11714844,2.54296875 2.4609375,4.19917969 2.4609375,6.234375 L2.4609375,13.6171875 C2.4609375,15.6523828 4.11714844,17.3085938 6.15234375,17.3085938 L7.3828125,17.3085938 L7.3828125,19.8933984 C4.57816406,20.4651562 2.4609375,22.9507031 2.4609375,25.921875 C2.4609375,27.7946484 3.30257812,29.4730078 4.6265625,30.6025781 C1.87933594,32.0569922 0,34.965 0,38.3085938 L0,40.7695312 C0,41.44875 0.55125,42 1.23046875,42 L15.9960938,42 C16.6753125,42 17.2265625,41.44875 17.2265625,40.7695312 L17.2265625,38.3085938 C17.2265625,34.965 15.3472266,32.0569922 12.6,30.6025781 C13.9239844,29.4730078 14.765625,27.7946484 14.765625,25.921875 C14.765625,23.4026953 13.243125,21.2337891 11.0701172,20.2830469 L14.0445703,17.3085938 L25.4944922,17.3085938 L29.4147656,21.2288672 C28.0825781,22.3584375 27.234375,24.0425391 27.234375,25.921875 C27.234375,27.7946484 28.0760156,29.4730078 29.4,30.6025781 C26.6527734,32.0569922 24.7734375,34.965 24.7734375,38.3085938 L24.7734375,40.7695312 C24.7734375,41.44875 25.3246875,42 26.0039062,42 L40.7695312,42 C41.44875,42 42,41.44875 42,40.7695312 L42,38.3085938 C42,34.965 40.1206641,32.0569922 37.3734375,30.6025781 L37.3734375,30.6025781 Z" id="Fill-1"></path>
                        <path d="M33.3867188,5.00390625 L21,5.00390625 C20.3204531,5.00390625 19.7695312,5.55482813 19.7695312,6.234375 C19.7695312,6.91392187 20.3204531,7.46484375 21,7.46484375 L33.3867188,7.46484375 C34.0662656,7.46484375 34.6171875,6.91392187 34.6171875,6.234375 C34.6171875,5.55482813 34.0662656,5.00390625 33.3867188,5.00390625" id="Fill-3"></path>
                        <path d="M33.3867188,9.92578125 L21,9.92578125 C20.3204531,9.92578125 19.7695312,10.4767031 19.7695312,11.15625 C19.7695312,11.8357969 20.3204531,12.3867188 21,12.3867188 L33.3867188,12.3867188 C34.0662656,12.3867188 34.6171875,11.8357969 34.6171875,11.15625 C34.6171875,10.4767031 34.0662656,9.92578125 33.3867188,9.92578125" id="Fill-5"></path>
                    </g>
                    <g id="Group-11" transform="translate(25.750000, 173.355469) rotate(14.000000) translate(-25.750000, -173.355469) translate(4.750000, 152.355469)">
                        <path d="M26.0039062,7.46484375 C26.6834531,7.46484375 27.234375,8.01576563 27.234375,8.6953125 C27.234375,9.37485937 26.6834531,9.92578125 26.0039062,9.92578125 C25.3243594,9.92578125 24.7734375,9.37485937 24.7734375,8.6953125 C24.7734375,8.01576563 25.3243594,7.46484375 26.0039062,7.46484375" id="Fill-1"></path>
                        <path d="M30.9257812,7.46484375 C31.6053281,7.46484375 32.15625,8.01576563 32.15625,8.6953125 C32.15625,9.37485937 31.6053281,9.92578125 30.9257812,9.92578125 C30.2462344,9.92578125 29.6953125,9.37485937 29.6953125,8.6953125 C29.6953125,8.01576563 30.2462344,7.46484375 30.9257812,7.46484375" id="Fill-3"></path>
                        <path d="M35.8476562,7.46484375 C36.5272031,7.46484375 37.078125,8.01576563 37.078125,8.6953125 C37.078125,9.37485937 36.5272031,9.92578125 35.8476562,9.92578125 C35.1681094,9.92578125 34.6171875,9.37485937 34.6171875,8.6953125 C34.6171875,8.01576563 35.1681094,7.46484375 35.8476562,7.46484375" id="Fill-5"></path>
                        <path d="M30.9257812,14.8476562 C30.0505078,14.8476562 29.1399609,14.7270703 28.14,14.4785156 C27.8044922,14.3948437 27.4484766,14.4563672 27.1605469,14.6483203 L24.7734375,16.2397266 L24.7734375,13.531875 C24.7734375,13.1733984 24.6167578,12.8321484 24.3444141,12.5983594 C23.4174609,11.8026562 22.3125,10.4803125 22.3125,8.6953125 C22.3125,5.29265625 26.2327734,2.4609375 30.9257812,2.4609375 C35.6187891,2.4609375 39.5390625,5.29265625 39.5390625,8.6953125 C39.5390625,12.0782812 35.6384766,14.8476562 30.9257812,14.8476562 M30.9257812,0 C24.819375,0 19.8515625,3.90058594 19.8515625,8.6953125 C19.8515625,10.6484766 20.7210937,12.5401172 22.3125,14.0757422 L22.3125,18.5390625 C22.3125,18.9926953 22.561875,19.4094141 22.9621875,19.6243359 C23.3625,19.8376172 23.848125,19.8146484 24.2254687,19.5628125 L28.0833984,16.9911328 C29.0767969,17.2044141 30.0111328,17.3085938 30.9257812,17.3085938 C36.9247266,17.3085938 42,13.5802734 42,8.6953125 C42,3.90058594 37.0321875,0 30.9257812,0" id="Fill-7"></path>
                        <path d="M19.7695312,39.5390625 L2.4609375,39.5390625 L2.4609375,35.9707031 C2.4609375,31.2210938 6.36152344,27.3574219 11.15625,27.3574219 C15.9058594,27.3574219 19.7695312,31.2210938 19.7695312,35.9707031 L19.7695312,39.5390625 Z M6.15234375,19.7695312 C6.15234375,17.0559375 8.39671875,14.8476562 11.15625,14.8476562 C13.8698437,14.8476562 16.078125,17.0559375 16.078125,19.7695312 C16.078125,22.483125 13.8698437,24.6914062 11.15625,24.6914062 C8.39671875,24.6914062 6.15234375,22.483125 6.15234375,19.7695312 L6.15234375,19.7695312 Z M15.4579688,25.7660156 C17.3225391,24.4248047 18.5390625,22.2370313 18.5390625,19.7695312 C18.5390625,15.6983203 15.2274609,12.3867188 11.15625,12.3867188 C7.07601562,12.3867188 3.69140625,15.6868359 3.69140625,19.7695312 C3.69140625,22.1738672 4.86199219,24.3698437 6.82171875,25.7668359 C2.81695312,27.4492969 0,31.3892578 0,35.9707031 L0,40.7695312 C0,41.44875 0.55125,42 1.23046875,42 L21,42 C21.6792187,42 22.2304688,41.44875 22.2304688,40.7695312 L22.2304688,35.9707031 C22.2304688,31.3892578 19.4340234,27.4484766 15.4579688,25.7660156 L15.4579688,25.7660156 Z" id="Fill-9"></path>
                    </g>
                    <g id="Group-3" transform="translate(147.412975, 195.053425) rotate(-15.000000) translate(-147.412975, -195.053425) translate(117.412975, 174.053425)">
                        <path d="M57.427817,29.9488398 C57.427817,30.1158852 56.8789534,30.9272489 54.3016807,31.7147489 C51.855658,32.4545216 48.6103227,32.8602034 45.1500955,32.8602034 C38.599408,32.8602034 34.1607716,31.3927091 33.1823625,30.2352034 L33.1586182,29.209067 L33.1107716,26.4766807 C33.9817943,26.9182773 34.8887318,27.2641807 35.8312261,27.5148682 C38.396567,28.2307773 41.7016807,28.6363398 45.1380443,28.6363398 C48.765317,28.6363398 52.2255443,28.2067943 54.8863398,27.4192943 C55.8050898,27.1569136 56.6880443,26.8107716 57.5232716,26.3692943 L57.5232716,29.4357716 L57.5352034,29.4357716 C57.5352034,29.5908852 57.427817,29.7698625 57.427817,29.9488398 L57.427817,29.9488398 Z M57.5352034,36.559067 C57.5352034,36.7261125 56.9982716,37.549408 54.4687261,38.336908 C52.046567,39.0887318 48.8249761,39.5063455 45.3887318,39.5063455 C41.940317,39.5063455 38.7187261,39.1005443 36.3323625,38.3728227 C33.802817,37.5972545 33.2897489,36.7977034 33.2897489,36.6187261 L33.2897489,36.5948625 L33.2300898,33.146567 C36.0698625,34.590317 40.8067943,35.246567 45.1500955,35.246567 C48.836908,35.246567 52.3209989,34.8050898 54.9938455,33.9937261 C55.8766807,33.7312261 56.7239591,33.3732716 57.5352034,32.9438455 L57.5352034,36.559067 Z M33.0272489,23.2790727 C33.146567,22.9448625 34.0175898,22.1692943 36.4636125,21.4772489 C38.790317,20.8209989 41.8209989,20.4630443 45.0067943,20.4630443 L45.161908,20.4630443 C48.574408,20.4630443 51.915317,20.8567943 54.349408,21.596567 C56.8670216,22.3602034 57.4636125,23.1238398 57.4995273,23.3266807 L57.4995273,23.3387318 C57.4874761,23.5177091 56.8908852,24.3408852 54.2420216,25.1285045 C51.7959989,25.8562261 48.574408,26.2499761 45.161908,26.2499761 C41.940317,26.2499761 38.861908,25.8800898 36.4995273,25.2238398 C34.2204307,24.5795216 33.3016807,23.8516807 33.0749761,23.4817943 C33.0630443,23.4102034 33.0511125,23.3387318 33.0272489,23.2790727 L33.0272489,23.2790727 Z M31.4285045,21.4414534 L31.3209989,21.4414534 C30.1756636,21.4414534 29.0658852,21.3937261 28.0397489,21.3221352 C27.5863398,19.7232716 26.8704307,18.2198625 25.9039534,16.8834989 C27.6937261,17.1102034 29.4954307,17.2295216 31.3091864,17.2295216 C34.9959989,17.2295216 38.5039534,16.7880443 41.1886125,15.9766807 C42.1074818,15.690317 42.9783852,15.3442943 43.8136125,14.902817 L43.8136125,18.0647489 C38.6829307,18.2079307 33.3852034,19.2817943 31.4285045,21.4414534 L31.4285045,21.4414534 Z M28.493158,23.7323625 C29.1971352,23.7800898 29.9249761,23.8039534 30.6647489,23.8160045 C30.6647489,23.8397489 30.6766807,23.8756636 30.6766807,23.899408 L30.7482716,28.0397489 C29.9011125,28.027817 29.077817,27.9921409 28.2783852,27.9324818 C28.4573625,27.0136125 28.552817,26.0709989 28.552817,25.140317 C28.5647489,24.6749761 28.5408852,24.2096352 28.493158,23.7323625 L28.493158,23.7323625 Z M25.3192943,34.2084989 C26.2857716,33.0272489 27.0613398,31.702817 27.6102034,30.2829307 C28.624408,30.3664534 29.6982716,30.4261125 30.7959989,30.4381636 L30.7959989,30.652817 L30.855658,34.6977034 C29.0062261,34.6739591 27.1567943,34.5067943 25.3192943,34.2084989 L25.3192943,34.2084989 Z M22.2886125,33.9459989 C17.4323625,38.3728227 9.90338523,38.0148682 5.4886125,33.1584989 C1.07383977,28.3022489 1.4198625,20.7732716 6.2761125,16.3584989 C8.47156705,14.3658852 11.3232716,13.2562261 14.2823625,13.2562261 C15.4755443,13.2562261 16.6687261,13.4352034 17.8141807,13.7812261 C21.9425898,15.0817943 25.0567943,18.5062261 25.9516807,22.7421409 C26.1067943,23.5295216 26.190317,24.3408852 26.190317,25.140317 C26.190317,28.5050898 24.7704307,31.702817 22.2886125,33.9459989 L22.2886125,33.9459989 Z M43.8136125,8.28065795 L43.8136125,11.3352034 C43.7062261,11.5022489 43.646567,11.7050898 43.6586182,11.9079307 C43.6586182,12.0630443 43.0977034,12.8863398 40.4966864,13.6738398 C38.074408,14.4016807 34.721567,14.8312261 31.3091864,14.8312261 C28.361908,14.8312261 25.474408,14.5209989 23.1834989,13.9363398 C23.1477034,13.924408 23.1238398,13.924408 23.0880443,13.9124761 C21.9545216,13.0175898 20.7016807,12.3136125 19.3533852,11.8005443 L19.2698625,8.43577159 C20.093158,8.85338523 20.9522489,9.18747614 21.8471352,9.4261125 C24.4363398,10.177817 27.7891807,10.5834989 31.3091864,10.5834989 C34.9959989,10.5834989 38.5039534,10.1420216 41.1766807,9.33065795 C42.0954307,9.08008977 42.9783852,8.72213523 43.8136125,8.28065795 L43.8136125,8.28065795 Z M22.252817,3.53179432 C24.6630443,2.79202159 27.8846352,2.37440795 31.3209989,2.37440795 C34.7334989,2.37440795 38.074408,2.79202159 40.5084989,3.53179432 C43.0977034,4.31929432 43.6586182,5.13065795 43.6586182,5.29770341 C43.6586182,5.46474886 43.0977034,6.28804432 40.4966864,7.0636125 C38.074408,7.79145341 34.7334989,8.22099886 31.3209989,8.22099886 C28.027817,8.22099886 24.9016807,7.83918068 22.5272489,7.14713523 C19.961908,6.4073625 19.2459989,5.58406705 19.1863398,5.32156705 C19.1863398,5.29770341 19.1863398,5.28577159 19.174408,5.28577159 C19.1863398,5.11872614 19.7352034,4.3073625 22.252817,3.53179432 L22.252817,3.53179432 Z M59.8380443,22.9807773 C59.6232716,21.4296409 58.024408,20.1886125 55.0295216,19.2817943 C52.6074818,18.5539534 49.5408852,18.1124761 46.1999761,18.0408852 L46.1999761,5.30963523 C46.1999761,5.04713523 46.1164534,4.79656705 45.949408,4.59372614 C45.555658,3.20963523 43.9569136,2.08804432 41.1886125,1.25281705 C38.5039534,0.441453409 34.9959989,-2.38636364e-05 31.3091864,-2.38636364e-05 C27.634067,-2.38636364e-05 24.161908,0.441453409 21.536908,1.25281705 C19.3772489,1.92099886 16.7880443,3.16190795 16.7880443,5.29770341 C16.7880443,5.42895341 16.7999761,5.56020341 16.8238398,5.69145341 L16.9550898,11.1323625 C9.21133977,9.64088523 1.73008977,14.7357716 0.250544318,22.4914534 C0.0834988636,23.3624761 -2.38636364e-05,24.2573625 -2.38636364e-05,25.1522489 C-2.38636364e-05,33.0272489 6.4073625,39.4346352 14.2823625,39.4346352 C17.5636125,39.4346352 20.7374761,38.3011125 23.2908852,36.236908 C25.534067,36.7620273 28.159067,37.0482716 30.9391807,37.0721352 C31.5478227,40.3772489 38.7069136,41.8927091 45.3887318,41.8927091 C49.0636125,41.8927091 52.5238398,41.4391807 55.1728227,40.6158852 C57.3442943,39.9477034 59.921567,38.6948625 59.921567,36.559067 L59.921567,23.4459989 C59.921567,23.2908852 59.8977034,23.1238398 59.8380443,22.9807773 L59.8380443,22.9807773 Z" id="Fill-1"></path>
                    </g>
                    <g id="Group-3" transform="translate(123.000000, 12.000000)">
                        <path d="M54.2408875,52.4065657 C53.5223457,53.6892984 52.3075937,54.5360667 50.9080292,54.7297791 C49.5116934,54.9230463 48.1397395,54.4631462 47.1442018,53.4680876 C47.0585869,53.382587 46.9766459,53.2934124 46.9002716,53.202902 C46.896709,53.1986715 46.8931463,53.1945523 46.8894724,53.1904331 L42.8391856,48.5365472 L48.5161557,42.8597704 L53.1642995,46.9140384 C53.1677508,46.9170443 53.1714247,46.9201615 53.1749874,46.9232787 C53.5229024,47.2189685 53.8316282,47.5743307 54.0935942,47.9801248 C54.9354927,49.2811155 54.9946104,51.0600415 54.2408875,52.4065657 L54.2408875,52.4065657 Z M39.9089067,45.169513 L45.1524582,39.9259174 L46.834474,41.3927882 L41.3741575,46.8530301 L39.9089067,45.169513 Z M26.4403118,29.6963414 L29.6942351,26.4426402 L43.4706652,38.4589352 L38.4435446,43.485996 L26.4403118,29.6963414 Z M24.1348324,28.8530242 C24.1326058,28.8552508 24.1304905,28.8573661 24.1282638,28.8594813 L23.3442583,29.6435714 C23.1339507,29.8537606 22.8543941,29.9695427 22.5566902,29.9695427 C22.2590977,29.9695427 21.9794297,29.8537606 21.7692334,29.6433488 C21.5587031,29.4330483 21.4428057,29.1531672 21.4428057,28.8553622 C21.4428057,28.5639028 21.5540272,28.2896995 21.7558735,28.0828503 L28.079687,21.759252 C28.5131055,21.3377605 29.2138341,21.3429929 29.6421313,21.7708302 C29.8525503,21.981242 29.9684477,22.2611231 29.9684477,22.5588169 C29.9684477,22.8565106 29.8528843,23.1356124 29.64202,23.3459129 L28.8625792,24.1253272 C28.8572352,24.1305596 28.8518912,24.1359034 28.8466586,24.1412472 L24.1348324,28.8530242 Z M20.159584,26.5305901 L17.046608,29.6435714 L7.59935323,20.1966383 L20.1947652,7.6013211 L29.6419087,17.0483656 L26.5232547,20.1670247 C26.5131234,20.176599 26.5032148,20.1859507 26.4925268,20.1965269 L20.1979938,26.490957 C20.1849679,26.5037598 20.1723873,26.5171193 20.159584,26.5305901 L20.159584,26.5305901 Z M15.4722511,34.3659247 C14.6040781,35.2340682 13.1911537,35.2341796 12.3229806,34.3659247 L2.87672783,24.9198822 C2.00844344,24.0517387 2.00844344,22.6391964 2.87672783,21.7708302 C3.29667509,21.3507859 3.85578834,21.1194443 4.45075074,21.1194443 C5.04560181,21.1194443 5.60438106,21.3505633 6.02421699,21.7702736 L15.4721398,31.2179861 C16.3403128,32.0857956 16.3403128,33.4980039 15.4722511,34.3659247 L15.4722511,34.3659247 Z M21.7693448,2.87907913 C22.1900714,2.45836686 22.7491846,2.2265799 23.3433677,2.2265799 C23.9383301,2.2265799 24.4977773,2.45836686 24.9183926,2.87907913 L34.3647567,12.3250104 C34.7854833,12.7456113 35.0171668,13.3049282 35.0171668,13.8995363 C35.0171668,14.4941445 34.7854833,15.05335 34.3646454,15.4740623 C33.4968063,16.3420945 32.0844386,16.3420945 31.2165996,15.4740623 L21.7699014,6.02768576 L21.7693448,6.02712912 C20.901283,5.15909695 20.901283,3.74699998 21.7693448,2.87907913 L21.7693448,2.87907913 Z M55.963985,46.7718713 C55.5857875,46.1859468 55.1346671,45.6678216 54.6229816,45.2318573 L49.4208459,40.6948668 C49.3803208,40.6338585 49.3333383,40.5758561 49.2795646,40.5221955 C49.1891624,40.4317963 49.0867362,40.3614364 48.9779641,40.3086665 L45.8319222,37.5649634 L31.2707073,24.8633271 C31.866783,24.2402187 32.1949921,23.4254018 32.1949921,22.5588169 C32.1949921,21.6662923 31.8475225,20.8274283 31.2159316,20.1959703 C30.9404943,19.9208763 30.6274265,19.7045641 30.2928714,19.5460316 L31.6399981,18.1990621 C32.0165256,18.2991469 32.4034071,18.3503582 32.7906225,18.3503582 C33.9307815,18.3502469 35.0710519,17.9162865 35.9390023,17.0482543 C36.7804555,16.2070524 37.2438225,15.0887526 37.2438225,13.899425 C37.2438225,12.7100973 36.7804555,11.5917976 35.9391136,10.7504844 L26.4927495,1.30466449 C25.6514076,0.463351276 24.5329585,0 23.3432563,0 C22.1541109,0 21.0359957,0.463351276 20.1947652,1.30466449 C19.0320056,2.46738451 18.6492435,4.11828217 19.0440295,5.60363362 L5.60337906,19.0437152 C5.23197289,18.9449664 4.8455368,18.8928644 4.45075074,18.8928644 C3.26082594,18.8928644 2.14293344,19.3557704 1.30225959,20.1964156 C-0.434086528,21.9325913 -0.434086528,24.7578985 1.30225959,26.4942968 L10.7485124,35.9403394 C11.6167968,36.8084829 12.7571785,37.2425546 13.8975602,37.2425546 C15.0380533,37.2425546 16.178435,36.8084829 17.0467194,35.9403394 C18.209479,34.7773967 18.5922411,33.1266104 18.197455,31.6413702 L19.5417984,30.29685 C19.7033423,30.6342882 19.9225565,30.945564 20.1948765,31.2177634 C20.8256881,31.8485535 21.664358,32.1960113 22.5568016,32.1960113 C23.422414,32.1960113 24.2369246,31.8683701 24.8609449,31.2729826 L40.3702698,49.0916335 C40.4130216,49.1583196 40.4628987,49.2219998 40.5213484,49.2803362 C40.5411656,49.3002641 40.5624302,49.3184107 40.5833608,49.336446 L45.204896,54.6460597 C45.3197914,54.7817698 45.4427028,54.9150306 45.5700675,55.0426136 C46.8394839,56.3114302 48.515933,57 50.2762157,57 C50.5863888,57 50.8995679,56.9785135 51.2131924,56.9352065 C53.3094774,56.6449718 55.1211958,55.3910734 56.1835332,53.49425 C57.3472948,51.4154036 57.2606779,48.7761272 55.963985,46.7718713 L55.963985,46.7718713 Z" id="Fill-1"></path>
                    </g>
                </g>
            </g>
        </g>
    </g>
</svg>