<svg xmlns="http://www.w3.org/2000/svg" width="83" height="80" viewBox="0 0 83 80"><defs><linearGradient id="ebmqb" x1="66.91" x2="16.74" y1="35.83" y2="35.83" gradientUnits="userSpaceOnUse"><stop offset="0" stop-color="#ff933d"/><stop offset="1" stop-color="#ff29a4"/></linearGradient><linearGradient id="ebmqd" x1="54.42" x2="78.21" y1="67.27" y2="67.27" gradientUnits="userSpaceOnUse"><stop offset="0" stop-color="#fb3887"/><stop offset="1" stop-color="#ff952a"/></linearGradient><linearGradient id="ebmqg" x1="72.85" x2="60.23" y1="67.07" y2="67.07" gradientUnits="userSpaceOnUse"><stop offset="0" stop-color="#ff933d"/><stop offset="1" stop-color="#ff29a4"/></linearGradient><clipPath id="ebmqa"><path d="M19.259.68a3.116 3.116 0 0 0-3.119 3.119v64.067a3.116 3.116 0 0 0 3.119 3.118h35.929L66.49 54.383V3.799A3.116 3.116 0 0 0 63.372.68z"/></clipPath><clipPath id="ebmqc"><path d="M54.42 67.267c0 6.377 5.325 11.547 11.894 11.547s11.894-5.17 11.894-11.547c0-6.377-5.325-11.547-11.894-11.547-6.57 0-11.894 5.17-11.894 11.547"/></clipPath><clipPath id="ebmqe"><path d="M53.62 54.29h25.579v25.579H53.62z"/></clipPath><clipPath id="ebmqf"><path d="M66.105 61.231l-1.691 3.43a.34.34 0 0 1-.256.188l-3.787.548a.34.34 0 0 0-.187.581l2.74 2.67a.342.342 0 0 1 .099.3l-.649 3.77a.34.34 0 0 0 .493.357l3.387-1.78a.334.334 0 0 1 .315 0l3.388 1.78a.339.339 0 0 0 .492-.357l-.648-3.77a.342.342 0 0 1 .1-.3l2.74-2.67a.34.34 0 0 0-.188-.58l-3.788-.55a.346.346 0 0 1-.254-.187l-1.693-3.43a.341.341 0 0 0-.613 0"/></clipPath></defs><g><g><g><g/><g clip-path="url(#ebmqa)"><path fill="url(#ebmqb)" d="M19.259.68a3.116 3.116 0 0 0-3.119 3.119v64.067a3.116 3.116 0 0 0 3.119 3.118h35.929L66.49 54.383V3.799A3.116 3.116 0 0 0 63.372.68z"/></g></g><g><g><path fill="#fff" d="M40.477 6.4c4.228 0 7.656 3.916 7.656 8.747 0 4.83-3.428 8.747-7.656 8.747-4.229 0-7.657-3.916-7.657-8.747 0-4.83 3.428-8.747 7.657-8.747"/></g><g><path d="M10.531 61.546H.708a.708.708 0 0 1 0-1.416h9.823a.708.708 0 0 1 0 1.416"/></g><g><path d="M82.075 61.546h-5.377a.708.708 0 0 1 0-1.416h5.377a.708.708 0 0 1 0 1.416"/></g><g><path d="M54.726 72.067h-35.93a3.831 3.831 0 0 1-3.826-3.827V4.177A3.831 3.831 0 0 1 18.797.35H62.91a3.831 3.831 0 0 1 3.827 3.827V54.76a.708.708 0 0 1-1.416 0V4.177c0-1.33-1.082-2.411-2.411-2.411H18.797a2.414 2.414 0 0 0-2.411 2.41V68.24a2.414 2.414 0 0 0 2.41 2.41h35.93a.708.708 0 0 1 0 1.417"/></g><g><path d="M40.618 44.326h-17.77a.708.708 0 0 1 0-1.416h17.77a.708.708 0 0 1 0 1.416"/></g><g><path d="M40.618 57.106h-17.77a.708.708 0 0 1 0-1.416h17.77a.708.708 0 0 1 0 1.416"/></g><g><path d="M57.765 50.556H22.848a.708.708 0 0 1 0-1.416h34.917a.708.708 0 0 1 0 1.416"/></g></g><g><g/><g clip-path="url(#ebmqc)"><path fill="url(#ebmqd)" d="M54.42 67.267c0 6.377 5.325 11.547 11.894 11.547s11.894-5.17 11.894-11.547c0-6.377-5.325-11.547-11.894-11.547-6.57 0-11.894 5.17-11.894 11.547"/></g></g><g><g><path d="M54.607 64.436H22.848a.708.708 0 0 1 0-1.416h31.76a.708.708 0 0 1 0 1.416"/></g><g><path fill="#fff" d="M27.18 35.018l.05-.74c.25-3.808 2.725-7.132 6.325-8.396 3.572-1.253 8.492-1.964 14.057.053 3.78 1.37 6.28 4.984 6.28 9.002"/></g><g><path fill="#f9f8f7" d="M66.411 54.99c6.673 0 12.082 5.409 12.082 12.081 0 6.673-5.409 12.082-12.082 12.082-6.672 0-12.081-5.41-12.081-12.082 0-6.672 5.409-12.081 12.081-12.081"/></g><g><g/><g clip-path="url(#ebmqe)"><path d="M66.41 79.869c-7.053 0-12.79-5.738-12.79-12.79 0-7.052 5.737-12.789 12.79-12.789 7.051 0 12.789 5.737 12.789 12.79 0 7.051-5.738 12.789-12.79 12.789m-.005-24.163c-6.268 0-11.368 5.1-11.368 11.368 0 6.27 5.1 11.369 11.368 11.369 6.27 0 11.369-5.1 11.369-11.369 0-6.268-5.1-11.368-11.369-11.368"/></g></g><g><path fill="#fff" d="M33.29 25.385a35.429 35.429 0 0 0 5.455 3.451c.793.407 1.66.793 2.545.676.665-.088 1.26-.456 1.827-.817 1.5-.949 3.001-1.894 4.502-2.843-.948-.286-1.809-1.069-2.796-1.171-1.26-.131-2.715.208-3.975.077-1.813-.187-3.611-.155-5.377.294-.705.18-1.459.457-2.128.177"/></g><g><path d="M54.885 35.442l-28.335-.201.1-1.49c.272-4.128 2.942-7.668 6.801-9.017 4.78-1.677 9.806-1.658 14.532.056 4.064 1.474 6.902 5.561 6.902 9.94zm-1.446-1.426c-.294-3.473-2.701-6.721-5.939-7.895-4.479-1.624-9.048-1.641-13.58-.05-3.321 1.16-5.619 4.207-5.857 7.765z"/></g><g><path d="M41.006 30.616c-.39 0-.697-.182-.982-.35l-.043-.025-1.222-.717a631.726 631.726 0 0 1-3.31-1.942l-.188-.111c-.363-.217-.729-.435-1.089-.658l-.065-.033c-.288-.147-.645-.33-.758-.712a.708.708 0 0 1 1.236-.638c.05.03.124.068.166.089.074.038.136.071.171.093.349.216.707.43 1.064.642l.185.11c1.098.65 2.197 1.293 3.3 1.937.409.238.82.48 1.23.72l.042.026c.094.056.209.123.267.147a.741.741 0 0 0 .099-.05c.127-.072.253-.148.379-.224l.262-.157c.565-.336 1.133-.67 1.7-1.003l3.42-2.003c.08-.046.157-.088.235-.13.146-.08.283-.153.387-.23a.708.708 0 1 1 .846 1.134 4.429 4.429 0 0 1-.56.34c-.066.037-.132.072-.196.11l-3.415 2c-.565.333-1.13.665-1.696 1l-.252.151c-.135.082-.27.163-.405.24-.307.177-.573.244-.808.244"/></g><g><path d="M40.978 24.78c-4.741 0-8.598-4.242-8.598-9.455 0-5.214 3.857-9.455 8.598-9.455 4.741 0 8.599 4.241 8.599 9.455 0 5.213-3.858 9.455-8.599 9.455m0-17.494c-3.96 0-7.182 3.604-7.182 8.034 0 4.43 3.222 8.034 7.182 8.034 3.96 0 7.183-3.604 7.183-8.034 0-4.43-3.222-8.034-7.183-8.034"/></g><g><path d="M37.138 13.08a.71.71 0 0 1-.673-.926 4.22 4.22 0 0 1 3.498-2.85.709.709 0 0 1 .156 1.408c-1.037.115-1.986.887-2.307 1.879a.708.708 0 0 1-.674.49"/></g><g><path d="M10.3 21.336H8.888a.708.708 0 0 1 0-1.416H10.3a.708.708 0 0 1 0 1.416"/></g><g><path d="M6.908 18.484a.708.708 0 0 1-.708-.708v-1.278a.708.708 0 0 1 1.416 0v1.278c0 .39-.317.708-.708.708"/></g><g><path d="M6.908 25.58a.708.708 0 0 1-.708-.709v-1.483a.708.708 0 0 1 1.416 0v1.483c0 .391-.317.708-.708.708"/></g><g><path d="M5.127 21.336H3.658a.708.708 0 0 1 0-1.416h1.469a.708.708 0 0 1 0 1.416"/></g><g><path d="M79.39 43.776h-1.412a.708.708 0 0 1 0-1.416h1.412a.708.708 0 0 1 0 1.416"/></g><g><path d="M75.998 40.934a.708.708 0 0 1-.708-.708v-1.278a.708.708 0 0 1 1.416 0v1.278c0 .39-.317.708-.708.708"/></g><g><path d="M75.998 48.03a.708.708 0 0 1-.708-.709v-1.483a.708.708 0 0 1 1.416 0v1.483c0 .39-.317.708-.708.708"/></g><g><path d="M74.217 43.776h-1.469a.708.708 0 0 1 0-1.416h1.469a.708.708 0 0 1 0 1.416"/></g></g><g><g/><g clip-path="url(#ebmqf)"><path fill="url(#ebmqg)" d="M66.105 61.231l-1.691 3.43a.34.34 0 0 1-.256.188l-3.787.548a.34.34 0 0 0-.187.581l2.74 2.67a.342.342 0 0 1 .099.3l-.649 3.77a.34.34 0 0 0 .493.357l3.387-1.78a.334.334 0 0 1 .315 0l3.388 1.78a.339.339 0 0 0 .492-.357l-.648-3.77a.342.342 0 0 1 .1-.3l2.74-2.67a.34.34 0 0 0-.188-.58l-3.788-.55a.346.346 0 0 1-.254-.187l-1.693-3.43a.341.341 0 0 0-.613 0"/></g></g><g><path d="M69.624 73.7l-3.214-1.69-3.216 1.69a1.04 1.04 0 0 1-1.105-.082 1.038 1.038 0 0 1-.413-1.027l.614-3.573-2.602-2.535a1.046 1.046 0 0 1-.267-1.074c.123-.38.446-.654.842-.714l3.598-.52 1.607-3.259c.182-.363.543-.586.943-.586h.006c.401.002.759.227.935.587l1.607 3.258 3.593.52a1.047 1.047 0 0 1 .582 1.787l-2.604 2.536.615 3.578c.066.402-.096.794-.421 1.028a1.043 1.043 0 0 1-1.1.075zm-8.415-7.71l2.207 2.148c.244.234.359.58.303.923l-.522 3.038 2.726-1.433c.304-.162.67-.162.977.002l2.723 1.43-.521-3.032c-.057-.35.06-.696.308-.933l2.2-2.144-3.048-.441a1.062 1.062 0 0 1-.787-.573l-1.365-2.766-1.363 2.763a1.05 1.05 0 0 1-.778.574z"/></g></g></g></svg>