<svg xmlns="http://www.w3.org/2000/svg" width="89" height="80" viewBox="0 0 89 80"><defs><linearGradient id="k2gib" x1="29.77" x2="25.78" y1="26.86" y2="26.86" gradientUnits="userSpaceOnUse"><stop offset="0" stop-color="#ff933d"/><stop offset="1" stop-color="#ff29a4"/></linearGradient><linearGradient id="k2gid" x1="38.98" x2="34.98" y1="17.77" y2="17.77" gradientUnits="userSpaceOnUse"><stop offset="0" stop-color="#ff933d"/><stop offset="1" stop-color="#ff29a4"/></linearGradient><linearGradient id="k2gif" x1="51.02" x2="47.02" y1="14.82" y2="14.82" gradientUnits="userSpaceOnUse"><stop offset="0" stop-color="#ff933d"/><stop offset="1" stop-color="#ff29a4"/></linearGradient><linearGradient id="k2gih" x1="63.61" x2="59.61" y1="18.09" y2="18.09" gradientUnits="userSpaceOnUse"><stop offset="0" stop-color="#ff933d"/><stop offset="1" stop-color="#ff29a4"/></linearGradient><linearGradient id="k2gij" x1="72.5" x2="68.5" y1="27.1" y2="27.1" gradientUnits="userSpaceOnUse"><stop offset="0" stop-color="#ff933d"/><stop offset="1" stop-color="#ff29a4"/></linearGradient><linearGradient id="k2gil" x1="65.77" x2="35.97" y1="47.03" y2="47.03" gradientUnits="userSpaceOnUse"><stop offset="0" stop-color="#ff933d"/><stop offset="1" stop-color="#ff29a4"/></linearGradient><clipPath id="k2gia"><path d="M25.73 26.855c0 1.29.9 2.335 2.01 2.335 1.109 0 2.008-1.046 2.008-2.335 0-1.29-.9-2.335-2.009-2.335-1.11 0-2.009 1.045-2.009 2.335"/></clipPath><clipPath id="k2gic"><path d="M34.93 17.775c0 1.29.9 2.335 2.009 2.335 1.11 0 2.01-1.046 2.01-2.335 0-1.29-.9-2.335-2.01-2.335-1.11 0-2.009 1.045-2.009 2.335"/></clipPath><clipPath id="k2gie"><path d="M46.97 14.825c0 1.29.9 2.335 2.01 2.335 1.109 0 2.008-1.046 2.008-2.335 0-1.29-.9-2.335-2.008-2.335-1.11 0-2.01 1.045-2.01 2.335"/></clipPath><clipPath id="k2gig"><path d="M59.56 18.084c0 1.29.9 2.336 2.009 2.336 1.11 0 2.01-1.046 2.01-2.336 0-1.289-.9-2.334-2.01-2.334-1.11 0-2.009 1.045-2.009 2.334"/></clipPath><clipPath id="k2gii"><path d="M68.45 27.095c0 1.29.9 2.335 2.01 2.335 1.109 0 2.008-1.045 2.008-2.335s-.9-2.335-2.009-2.335c-1.11 0-2.009 1.046-2.009 2.335"/></clipPath><clipPath id="k2gik"><path d="M48.786 35.866c-1.075 1.296-1.629.007-2.487-.814-.753-.717-1.625-1.3-2.508-1.854-.645-.402-1.322-.818-2.085-.89-2.223-.207-4.163 2.2-5.04 3.913-.999 1.95-1.288 4.224-.872 6.364.529 2.722 1.799 5.042 3.211 7.257 2.813 4.41 6.237 8.16 9.82 11.733 1.167 1.165 1.605 1.016 2.77-.134 1.444-1.43 3.555-3.298 4.901-4.844 2.831-3.243 5.5-6.056 7.443-10.107.869-1.802 1.55-3.681 1.55-5.788-.008-.637.147-1.343-.174-1.9-1.586-2.733-3.95-6.693-7.523-7.074a8.644 8.644 0 0 0-.913-.048c-3.21 0-6.111 1.79-8.093 4.186"/></clipPath></defs><g><g><g><g/><g clip-path="url(#k2gia)"><path fill="url(#k2gib)" d="M25.73 26.855c0 1.29.9 2.335 2.01 2.335 1.109 0 2.008-1.046 2.008-2.335 0-1.29-.9-2.335-2.009-2.335-1.11 0-2.009 1.045-2.009 2.335"/></g></g><g><g/><g clip-path="url(#k2gic)"><path fill="url(#k2gid)" d="M34.93 17.775c0 1.29.9 2.335 2.009 2.335 1.11 0 2.01-1.046 2.01-2.335 0-1.29-.9-2.335-2.01-2.335-1.11 0-2.009 1.045-2.009 2.335"/></g></g><g><g/><g clip-path="url(#k2gie)"><path fill="url(#k2gif)" d="M46.97 14.825c0 1.29.9 2.335 2.01 2.335 1.109 0 2.008-1.046 2.008-2.335 0-1.29-.9-2.335-2.008-2.335-1.11 0-2.01 1.045-2.01 2.335"/></g></g><g><g/><g clip-path="url(#k2gig)"><path fill="url(#k2gih)" d="M59.56 18.084c0 1.29.9 2.336 2.009 2.336 1.11 0 2.01-1.046 2.01-2.336 0-1.289-.9-2.334-2.01-2.334-1.11 0-2.009 1.045-2.009 2.334"/></g></g><g><g/><g clip-path="url(#k2gii)"><path fill="url(#k2gij)" d="M68.45 27.095c0 1.29.9 2.335 2.01 2.335 1.109 0 2.008-1.045 2.008-2.335s-.9-2.335-2.009-2.335c-1.11 0-2.009 1.046-2.009 2.335"/></g></g><g><g/><g clip-path="url(#k2gik)"><path fill="url(#k2gil)" d="M48.786 35.866c-1.075 1.296-1.629.007-2.487-.814-.753-.717-1.625-1.3-2.508-1.854-.645-.402-1.322-.818-2.085-.89-2.223-.207-4.163 2.2-5.04 3.913-.999 1.95-1.288 4.224-.872 6.364.529 2.722 1.799 5.042 3.211 7.257 2.813 4.41 6.237 8.16 9.82 11.733 1.167 1.165 1.605 1.016 2.77-.134 1.444-1.43 3.555-3.298 4.901-4.844 2.831-3.243 5.5-6.056 7.443-10.107.869-1.802 1.55-3.681 1.55-5.788-.008-.637.147-1.343-.174-1.9-1.586-2.733-3.95-6.693-7.523-7.074a8.644 8.644 0 0 0-.913-.048c-3.21 0-6.111 1.79-8.093 4.186"/></g></g><g><g><path d="M26.635 30.19a3.349 3.349 0 0 1-3.345-3.345c0-1.845 1.5-3.345 3.345-3.345 1.844 0 3.345 1.5 3.345 3.345 0 1.844-1.5 3.345-3.345 3.345m0-5.242a1.899 1.899 0 0 0-1.897 1.897c0 1.046.85 1.897 1.897 1.897 1.046 0 1.897-.851 1.897-1.897s-.851-1.897-1.897-1.897"/></g><g><path d="M69.585 30.19a3.349 3.349 0 0 1-3.345-3.345c0-1.845 1.5-3.345 3.345-3.345 1.844 0 3.345 1.5 3.345 3.345 0 1.844-1.5 3.345-3.345 3.345m0-5.242a1.899 1.899 0 0 0-1.897 1.897c0 1.046.85 1.897 1.897 1.897 1.046 0 1.897-.851 1.897-1.897s-.851-1.897-1.897-1.897"/></g><g><path d="M35.905 21.17a3.349 3.349 0 0 1-3.345-3.345c0-1.845 1.5-3.345 3.345-3.345 1.844 0 3.345 1.5 3.345 3.345 0 1.844-1.5 3.345-3.345 3.345m0-5.242a1.9 1.9 0 0 0-1.897 1.897 1.9 1.9 0 0 0 1.897 1.897 1.899 1.899 0 0 0 1.897-1.897c0-1.046-.851-1.897-1.897-1.897"/></g><g><path d="M60.515 21.17a3.349 3.349 0 0 1-3.345-3.345c0-1.845 1.5-3.345 3.345-3.345 1.844 0 3.345 1.5 3.345 3.345 0 1.844-1.5 3.345-3.345 3.345m0-5.242a1.899 1.899 0 0 0-1.897 1.897c0 1.046.85 1.897 1.897 1.897a1.899 1.899 0 0 0 1.897-1.897c0-1.046-.851-1.897-1.897-1.897"/></g><g><path d="M48.115 17.91a3.349 3.349 0 0 1-3.345-3.345c0-1.845 1.5-3.345 3.345-3.345 1.844 0 3.345 1.5 3.345 3.345 0 1.844-1.5 3.345-3.345 3.345m0-5.242a1.899 1.899 0 0 0-1.897 1.897c0 1.046.85 1.897 1.897 1.897a1.899 1.899 0 0 0 1.897-1.897c0-1.046-.851-1.897-1.897-1.897"/></g><g><path d="M76.128 52.808h-1.444a.724.724 0 0 1 0-1.448h1.444a.724.724 0 0 1 0 1.448"/></g><g><path d="M72.654 49.895a.724.724 0 0 1-.724-.724v-1.307a.724.724 0 0 1 1.448 0v1.307c0 .4-.324.724-.724.724"/></g><g><path d="M72.654 57.144a.724.724 0 0 1-.724-.724v-1.516a.724.724 0 0 1 1.448 0v1.516c0 .4-.324.724-.724.724"/></g><g><path d="M70.836 52.808h-1.502a.724.724 0 0 1 0-1.448h1.502a.724.724 0 0 1 0 1.448"/></g><g><path d="M30.175 59.228h-1.441a.724.724 0 0 1 0-1.448h1.44a.724.724 0 0 1 0 1.448"/></g><g><path d="M26.714 56.325a.724.724 0 0 1-.724-.724v-1.307a.724.724 0 0 1 1.448 0v1.307c0 .4-.324.724-.724.724"/></g><g><path d="M26.714 63.575a.724.724 0 0 1-.724-.724v-1.517a.724.724 0 0 1 1.448 0v1.517c0 .4-.324.724-.724.724"/></g><g><path d="M24.896 59.228h-1.502a.724.724 0 0 1 0-1.448h1.502a.724.724 0 0 1 0 1.448"/></g><g><path d="M48.683 79.763A39.683 39.683 0 0 1 22.68 70.06C15.541 63.87 10.836 55.34 9.43 46.046a40.106 40.106 0 0 1-.449-5.983.724.724 0 1 1 1.448 0c0 1.925.146 3.865.434 5.767C12.216 54.783 16.75 63 23.628 68.968a38.234 38.234 0 0 0 25.055 9.347c21.094 0 38.255-17.16 38.255-38.252 0-21.094-17.161-38.255-38.255-38.255-14.736 0-28.325 8.618-34.617 21.956a.724.724 0 0 1-1.31-.618C19.286 9.304 33.389.36 48.683.36c21.893 0 39.703 17.81 39.703 39.703 0 21.89-17.81 39.7-39.703 39.7"/></g><g><path d="M.724 49.148a.723.723 0 0 1-.513-1.235l8.231-8.275a1.84 1.84 0 0 1 1.313-.548h.003c.494 0 .96.192 1.311.54l8.19 8.172a.725.725 0 0 1-1.023 1.026l-8.188-8.17a.41.41 0 0 0-.29-.12.402.402 0 0 0-.288.12l-8.233 8.276a.72.72 0 0 1-.513.214"/></g><g><path d="M48.115 63.774c-.822 0-1.644-.35-2.443-1.049-3.647-3.188-7.843-7.09-11.302-11.851-1.502-2.065-3.126-4.575-3.781-7.527-.868-3.92.775-7.91 4.185-10.162 3.4-2.242 7.304-2.155 10.708.236 1.115.783 1.954 1.514 2.633 2.291 1.869-2.012 3.702-3.234 5.764-3.84 2.299-.677 4.893-.308 7.115 1.014 2.39 1.42 4.087 3.743 4.653 6.373.14.622.211 1.293.215 2.045v.004c0 2.437-.991 4.56-1.855 6.136-2.15 3.925-5.012 7.164-8.647 10.82a88.157 88.157 0 0 1-4.825 4.482c-.791.685-1.605 1.028-2.42 1.028m-8.18-30.77c-1.481 0-2.958.462-4.365 1.39-2.904 1.918-4.304 5.31-3.568 8.64.597 2.685 2.053 4.946 3.538 6.988 3.374 4.646 7.495 8.477 11.08 11.613 1.053.922 1.91.927 2.962.016a86.517 86.517 0 0 0 4.745-4.41c3.547-3.567 6.332-6.717 8.4-10.493.83-1.513 1.677-3.342 1.677-5.437a8.074 8.074 0 0 0-.18-1.74c-.484-2.244-1.933-4.224-3.978-5.44-1.877-1.116-4.052-1.434-5.966-.87-1.814.534-3.451 1.64-5.15 3.481-.174.186-.537.56-1.051.56-.468-.008-.793-.327-.998-.566-.61-.714-1.384-1.39-2.435-2.13-1.52-1.068-3.118-1.603-4.71-1.603"/></g><g><path d="M48.114 52.528a.724.724 0 0 1-.724-.724v-8.29a.724.724 0 0 1 1.448 0v8.29c0 .4-.324.724-.724.724"/></g><g><path d="M52.25 48.378h-8.286a.724.724 0 0 1 0-1.448h8.286a.724.724 0 0 1 0 1.448"/></g></g></g></g></svg>