<?xml version="1.0" encoding="UTF-8"?>
<svg width="244px" height="244px" viewBox="0 0 244 244" version="1.1" xmlns="http://www.w3.org/2000/svg" xmlns:xlink="http://www.w3.org/1999/xlink">
    <!-- Generator: Sketch 60 (88103) - https://sketch.com -->
    <title>Group 84</title>
    <desc>Created with Sketch.</desc>
    <g id="Careers" stroke="none" stroke-width="1" fill="none" fill-rule="evenodd">
        <g id="01_Careers" transform="translate(-176.000000, -2004.000000)">
            <g id="Group-84" transform="translate(176.000000, 2004.000000)">
                <circle id="Oval" fill="none" fill-rule="nonzero" cx="122" cy="122" r="122"></circle>
                <g id="Group-71" opacity="0.331589472" transform="translate(86.000000, 31.000000)" fill="#FFFFFF">
                    <g id="Group-3" transform="translate(49.710938, 34.117188) rotate(21.000000) translate(-49.710938, -34.117188) translate(23.710938, 8.117188)" stroke="#F9398B" stroke-width="0.5">
                        <path d="M49.6520053,26.4416793 C49.3362256,26.4416793 49.0793181,26.1847718 49.0793181,25.8689921 C49.0793181,25.5532123 49.3362256,25.2963048 49.6520053,25.2963048 C49.967785,25.2963048 50.2246925,25.5532123 50.2246925,25.8689921 C50.2246925,26.1847718 49.967785,26.4416793 49.6520053,26.4416793 L49.6520053,26.4416793 Z M26.7280229,28.7324282 L28.7324282,28.7324282 L28.7324282,26.7280229 L26.7280229,26.7280229 L26.7280229,28.7324282 Z M23.0055559,28.7324282 L25.0099612,28.7324282 L25.0099612,26.7280229 L23.0055559,26.7280229 L23.0055559,28.7324282 Z M23.0055559,25.0099612 L25.0099612,25.0099612 L25.0099612,23.0055559 L23.0055559,23.0055559 L23.0055559,25.0099612 Z M26.7280229,25.0099612 L28.7324282,25.0099612 L28.7324282,23.0055559 L26.7280229,23.0055559 L26.7280229,25.0099612 Z M37.2819612,32.9703137 C37.2819612,33.2860934 37.0250537,33.5430009 36.709274,33.5430009 C36.3934943,33.5430009 36.1365868,33.2860934 36.1365868,32.9703137 C36.1365868,32.6545339 36.3934943,32.3976264 36.709274,32.3976264 C37.0250537,32.3976264 37.2819612,32.6545339 37.2819612,32.9703137 L37.2819612,32.9703137 Z M33.5430009,36.709274 C33.5430009,37.0250537 33.2860934,37.2819612 32.9703137,37.2819612 C32.6545339,37.2819612 32.3976264,37.0250537 32.3976264,36.709274 C32.3976264,36.3934943 32.6545339,36.1365868 32.9703137,36.1365868 C33.2860934,36.1365868 33.5430009,36.3934943 33.5430009,36.709274 L33.5430009,36.709274 Z M25.8689921,50.2246925 C25.5532123,50.2246925 25.2963048,49.967785 25.2963048,49.6520053 C25.2963048,49.3362256 25.5532123,49.0793181 25.8689921,49.0793181 C26.1847718,49.0793181 26.4416793,49.3362256 26.4416793,49.6520053 C26.4416793,49.967785 26.1847718,50.2246925 25.8689921,50.2246925 L25.8689921,50.2246925 Z M18.9724634,41.936763 C18.6566837,41.936763 18.3997762,41.6798555 18.3997762,41.3640758 C18.3997762,41.048296 18.6566837,40.7913885 18.9724634,40.7913885 C19.2882432,40.7913885 19.5451507,41.048296 19.5451507,41.3640758 C19.5451507,41.6798555 19.2881286,41.936763 18.9724634,41.936763 L18.9724634,41.936763 Z M15.2335031,33.5430009 C14.9177233,33.5430009 14.6608159,33.2860934 14.6608159,32.9703137 C14.6608159,32.6545339 14.9177233,32.3976264 15.2335031,32.3976264 C15.5492828,32.3976264 15.8061903,32.6545339 15.8061903,32.9703137 C15.8061903,33.2860934 15.5492828,33.5430009 15.2335031,33.5430009 L15.2335031,33.5430009 Z M2.29077181,26.4416793 C1.97499207,26.4416793 1.71808458,26.1847718 1.71808458,25.8689921 C1.71808458,25.5532123 1.97499207,25.2963048 2.29077181,25.2963048 C2.60655154,25.2963048 2.86345903,25.5532123 2.86345903,25.8689921 C2.86345903,26.1847718 2.60655154,26.4416793 2.29077181,26.4416793 L2.29077181,26.4416793 Z M10.5785868,19.5451507 C10.262807,19.5451507 10.0058996,19.2882432 10.0058996,18.9724634 C10.0058996,18.6566837 10.262807,18.3997762 10.5785868,18.3997762 C10.8943665,18.3997762 11.151274,18.6566837 11.151274,18.9724634 C11.151274,19.2882432 10.8943665,19.5451507 10.5785868,19.5451507 L10.5785868,19.5451507 Z M18.3997762,10.5787013 C18.3997762,10.2629216 18.6566837,10.0060141 18.9724634,10.0060141 C19.2882432,10.0060141 19.5451507,10.2629216 19.5451507,10.5787013 C19.5451507,10.8944811 19.2882432,11.1513885 18.9724634,11.1513885 C18.6566837,11.1513885 18.3997762,10.8944811 18.3997762,10.5787013 L18.3997762,10.5787013 Z M25.8689921,1.71808458 C26.1847718,1.71808458 26.4416793,1.97499207 26.4416793,2.29077181 C26.4416793,2.60655154 26.1847718,2.86345903 25.8689921,2.86345903 C25.5532123,2.86345903 25.2963048,2.60655154 25.2963048,2.29077181 C25.2963048,1.97499207 25.5533269,1.71808458 25.8689921,1.71808458 L25.8689921,1.71808458 Z M32.9703137,14.6608159 C33.2860934,14.6608159 33.5430009,14.9177233 33.5430009,15.2335031 C33.5430009,15.5492828 33.2860934,15.8061903 32.9703137,15.8061903 C32.6545339,15.8061903 32.3976264,15.5492828 32.3976264,15.2335031 C32.3976264,14.9177233 32.6546485,14.6608159 32.9703137,14.6608159 L32.9703137,14.6608159 Z M41.3640758,18.3997762 C41.6798555,18.3997762 41.936763,18.6566837 41.936763,18.9724634 C41.936763,19.2882432 41.6798555,19.5451507 41.3640758,19.5451507 C41.048296,19.5451507 40.7913885,19.2882432 40.7913885,18.9724634 C40.7913885,18.6566837 41.048296,18.3997762 41.3640758,18.3997762 L41.3640758,18.3997762 Z M49.6520053,23.5782432 C48.6927542,23.5782432 47.8706044,24.1715471 47.5298555,25.0099612 L30.4504899,25.0099612 L30.4504899,23.0055559 L37.9934678,23.0055559 C38.2212828,23.0055559 38.4397057,22.9150714 38.6009744,22.7539172 L40.3374767,21.017415 C40.6467278,21.1733004 40.9946925,21.2632123 41.3639612,21.2632123 C42.6270802,21.2632123 43.6547101,20.2355824 43.6547101,18.9724634 C43.6547101,17.7093445 42.6270802,16.6817145 41.3639612,16.6817145 C40.1008423,16.6817145 39.0732123,17.7093445 39.0732123,18.9724634 C39.0732123,19.2356705 39.1200581,19.4875383 39.202067,19.7230273 L37.6377145,21.2874943 L30.4504899,21.2874943 L30.4504899,18.9108423 L32.0376352,17.3236969 C32.322948,17.4515207 32.6380405,17.5241374 32.9703137,17.5241374 C34.2334326,17.5241374 35.2610626,16.4965075 35.2610626,15.2333885 C35.2610626,13.9702696 34.2334326,12.9426396 32.9703137,12.9426396 C31.7071947,12.9426396 30.6795648,13.9702696 30.6795648,15.2333885 C30.6795648,15.5347366 30.7395824,15.8219965 30.8457586,16.0857762 L28.9839524,17.9475824 C28.8229128,18.108622 28.7324282,18.3271595 28.7324282,18.5549744 L28.7324282,21.2873797 L26.7280229,21.2873797 L26.7280229,4.41292159 C27.566437,4.07228722 28.159741,3.25013744 28.159741,2.29077181 C28.159741,1.02765286 27.132111,2.2907489e-05 25.8689921,2.2907489e-05 C24.6058731,2.2907489e-05 23.5782432,1.02765286 23.5782432,2.29077181 C23.5782432,3.25002291 24.1715471,4.07217269 25.0099612,4.41292159 L25.0099612,21.2876088 L23.0055559,21.2876088 L23.0055559,13.9493093 C23.0055559,13.7214943 22.9150714,13.5029568 22.7540317,13.3419172 L21.0173004,11.605415 C21.1731859,11.2961639 21.2630978,10.9481991 21.2630978,10.5788159 C21.2630978,9.31569692 20.2354678,8.28806696 18.9723489,8.28806696 C17.70923,8.28806696 16.6816,9.31569692 16.6816,10.5788159 C16.6816,11.8419348 17.70923,12.8695648 18.9723489,12.8695648 C19.2354414,12.8695648 19.4873093,12.8227189 19.7229128,12.7407101 L21.2874943,14.3051771 L21.2874943,21.2876088 L14.304948,21.2876088 L12.7404811,19.7230273 C12.8224899,19.4875383 12.8693357,19.2356705 12.8693357,18.9724634 C12.8693357,17.7093445 11.8417057,16.6817145 10.5785868,16.6817145 C9.31546784,16.6817145 8.28783789,17.7093445 8.28783789,18.9724634 C8.28783789,20.2355824 9.31546784,21.2632123 10.5785868,21.2632123 C10.9478555,21.2632123 11.2959348,21.1733004 11.6051859,21.017415 L13.3416881,22.7540317 C13.5028423,22.9150714 13.7212652,23.0056705 13.9491947,23.0056705 L21.2874943,23.0056705 L21.2874943,25.0100758 L4.41292159,25.0100758 C4.07228722,24.1716617 3.25013744,23.5783577 2.29077181,23.5783577 C1.02765286,23.5783577 2.2907489e-05,24.6059877 2.2907489e-05,25.8691066 C2.2907489e-05,27.1322256 1.02765286,28.1598555 2.29077181,28.1598555 C3.25002291,28.1598555 4.07217269,27.5665515 4.41292159,26.7281374 L21.2876088,26.7281374 L21.2876088,28.7325427 L18.555089,28.7325427 C18.327274,28.7325427 18.1088511,28.8230273 17.9475824,28.9841815 L16.0858907,30.8458731 C15.822111,30.7395824 15.5348511,30.6796793 15.2335031,30.6796793 C13.9703841,30.6796793 12.9427542,31.7073093 12.9427542,32.9704282 C12.9427542,34.2335471 13.9703841,35.2611771 15.2335031,35.2611771 C16.496622,35.2611771 17.524252,34.2335471 17.524252,32.9704282 C17.524252,32.6381551 17.4515207,32.3230626 17.3238115,32.0377498 L18.9109568,30.4506044 L21.2876088,30.4506044 L21.2876088,37.6378291 L19.7230273,39.202296 C19.4875383,39.1202872 19.2356705,39.0734414 18.9724634,39.0734414 C17.7093445,39.0734414 16.6817145,40.1010714 16.6817145,41.3641903 C16.6817145,42.6271947 17.7093445,43.6549392 18.9724634,43.6549392 C20.2355824,43.6549392 21.2632123,42.6271947 21.2632123,41.3641903 C21.2632123,40.9949216 21.1733004,40.6467278 21.017415,40.3375912 L22.7541463,38.601089 C22.9151859,38.4400493 23.0056705,38.2215119 23.0056705,37.9935824 L23.0056705,30.4507189 L25.0100758,30.4507189 L25.0100758,47.5300846 C24.1716617,47.8707189 23.5783577,48.6928687 23.5783577,49.6522344 C23.5783577,50.9153533 24.6059877,51.9429833 25.8691066,51.9429833 C27.1322256,51.9429833 28.1598555,50.9153533 28.1598555,49.6522344 C28.1598555,48.6929833 27.5665515,47.8708335 26.7281374,47.5300846 L26.7281374,30.4504899 L28.7325427,30.4504899 L28.7325427,33.3876881 C28.7325427,33.6155031 28.8230273,33.8340405 28.984067,33.9950802 L30.8458731,35.8568863 C30.7396969,36.1206661 30.6796793,36.407926 30.6796793,36.709274 C30.6796793,37.972393 31.7073093,39.0000229 32.9704282,39.0000229 C34.2335471,39.0000229 35.2611771,37.972393 35.2611771,36.709274 C35.2611771,35.4461551 34.2335471,34.4185251 32.9704282,34.4185251 C32.6381551,34.4185251 32.3230626,34.4912564 32.0377498,34.6189656 L30.4506044,33.0318203 L30.4506044,30.4504899 L33.0319348,30.4504899 L34.6190802,32.0375207 C34.4912564,32.322948 34.4186396,32.6380405 34.4186396,32.9703137 C34.4186396,34.2334326 35.4462696,35.2610626 36.7093885,35.2610626 C37.9725075,35.2610626 39.0001374,34.2334326 39.0001374,32.9703137 C39.0001374,31.7071947 37.9725075,30.6795648 36.7093885,30.6795648 C36.4080405,30.6795648 36.1207806,30.7394678 35.8570009,30.8457586 L33.9953093,28.984067 C33.8341551,28.8230273 33.6157322,28.7324282 33.3878026,28.7324282 L30.4506044,28.7324282 L30.4506044,26.7280229 L47.52997,26.7280229 C47.8706044,27.566437 48.6927542,28.159741 49.6521198,28.159741 C50.9152388,28.159741 51.9428687,27.132111 51.9428687,25.8689921 C51.9428687,24.6058731 50.9151242,23.5782432 49.6520053,23.5782432 L49.6520053,23.5782432 Z" id="Fill-1"></path>
                    </g>
                    <g id="Group-12" transform="translate(26.912014, 151.819453) rotate(14.000000) translate(-26.912014, -151.819453) translate(4.412014, 130.819453)">
                        <path d="M43.6363636,39.2407182 C43.6327273,40.0336273 42.987,40.6734455 42.1940909,40.6699147 C42.1874545,40.6699147 42.1808182,40.6699147 42.1741818,40.6696273 L29.7173636,40.6696273 C28.9328182,40.6828091 28.2860909,40.0575364 28.2729091,39.2729909 C28.2726521,39.2621727 28.2726521,39.2514455 28.2726521,39.2407182 L28.2726521,20.8679909 C28.2646364,20.0636273 28.9102727,19.4049909 29.7145455,19.3969 C29.7155455,19.3969 29.7164545,19.3969 29.7173636,19.3969 L32.0066364,19.3969 C32.2869091,20.3220818 33.1439091,20.9515364 34.1106364,20.9423545 L37.7809091,20.9423545 C38.7476364,20.9515364 39.6045455,20.3220818 39.8848182,19.3969 L42.1741818,19.3969 C42.983,19.4019909 43.6361818,20.0590818 43.6363636,20.8679909 L43.6363636,39.2407182 Z M27,20.8679909 L27,34.0280818 L18.3636364,39.0221727 L18.3636364,20.7918091 L34.0909091,11.6773545 L34.0909091,16.4878091 L34.1106364,16.4878091 C33.1154545,16.4971727 32.2468182,17.1648091 31.9818182,18.1241727 L29.7173636,18.1241727 C28.2093636,18.1314455 26.9927273,19.3599 27,20.8679909 L27,20.8679909 Z M17.6958182,19.6896273 L10.2714545,15.4031727 L26.0570909,6.28944545 L33.4818182,10.5759 L17.6958182,19.6896273 Z M17.0909091,39.0221727 L1.27272727,29.9077182 L1.27272727,11.6773545 L17.0909091,20.7918091 L17.0909091,39.0221727 Z M17.6958182,1.46208182 L24.7843636,5.55462727 L8.99872727,14.6684455 L1.91027273,10.5759 L17.6958182,1.46208182 Z M37.8035455,17.7605364 C38.3137273,17.7605364 38.7272727,18.1740818 38.7272727,18.6842636 L38.7272727,18.7459 C38.7272727,19.2559909 38.3137273,19.6696273 37.8035455,19.6696273 L34.1055455,19.6696273 C33.5953636,19.6696273 33.1818182,19.2559909 33.1818182,18.7459 L33.1818182,18.6842636 C33.1818182,18.1740818 33.5953636,17.7605364 34.1055455,17.7605364 L37.8035455,17.7605364 Z M42.1741818,18.1241727 L39.9097273,18.1241727 C39.6447273,17.1648091 38.7760909,16.4971727 37.7809091,16.4878091 L35.3636364,16.4878091 L35.3636364,10.5765364 C35.3692727,10.3513545 35.2529091,10.1407182 35.0594545,10.0254455 L18.007,0.176172727 C17.8113636,0.0624454545 17.5697273,0.0624454545 17.3740909,0.176172727 L0.316363636,10.0254455 C0.119909091,10.1392636 -0.000727272727,10.3494455 -3.26986763e-06,10.5765364 L-3.26986763e-06,30.2751727 C-3.26986763e-06,30.5025364 0.121272727,30.7125364 0.318181818,30.8261727 L17.3776364,40.6755364 C17.4743636,40.7313545 17.5840909,40.7608091 17.6958182,40.7608091 C17.8104545,40.7609 17.9230909,40.7314455 18.0230909,40.6755364 L26.9999967,35.4976273 L26.9999967,39.2407182 C26.9960909,40.7289 28.1994545,41.9385364 29.6876364,41.9424741 C29.6976364,41.9424741 29.7074545,41.9424741 29.7173636,41.9424741 L42.1741818,41.9424741 C43.6706364,41.9562636 44.8950909,40.7543545 44.9090909,39.2579 C44.9090909,39.2521727 44.9090909,39.2463545 44.9090909,39.2407182 L44.9090909,20.8679909 C44.9081818,19.3564455 43.6857273,18.1299909 42.1741818,18.1241727 L42.1741818,18.1241727 Z" id="Fill-1"></path>
                        <path d="M39.4110455,33.9640818 L37.5474091,35.8277182 L36.9805,35.2607182 C36.7319545,35.0121727 36.3290455,35.0121727 36.0804091,35.2607182 C35.8319545,35.5092636 35.8319545,35.9122636 36.0804091,36.1607182 L37.0975,37.1776273 C37.3459545,37.4261727 37.7488636,37.4261727 37.9974091,37.1777182 L37.9974091,37.1776273 L40.3112273,34.8638091 C40.5598636,34.6152636 40.5598636,34.2122636 40.3112273,33.9638091 C40.0627727,33.7153545 39.6597727,33.7153545 39.4113182,33.9638091 L39.4110455,33.9640818 Z" id="Fill-4"></path>
                        <path d="M40.9425636,23.1369364 L30.5820182,23.1369364 C30.2305636,23.1369364 29.9456545,23.4219364 29.9456545,23.7733 C29.9456545,24.1247545 30.2305636,24.4096636 30.5820182,24.4096636 L40.9425636,24.4096636 C41.2940182,24.4096636 41.5789273,24.1247545 41.5789273,23.7733 C41.5789273,23.4219364 41.2940182,23.1369364 40.9425636,23.1369364" id="Fill-6"></path>
                        <path d="M38.273,26.1293909 L30.6396364,26.1293909 C30.2882727,26.1293909 30.0032727,26.4143 30.0032727,26.7657545 C30.0032727,27.1172091 30.2882727,27.4021182 30.6396364,27.4021182 L38.273,27.4021182 C38.6243636,27.4021182 38.9093636,27.1172091 38.9093636,26.7657545 C38.9093636,26.4143 38.6243636,26.1293909 38.273,26.1293909" id="Fill-8"></path>
                        <path d="M34.5789273,28.8911091 L30.5820182,28.8911091 C30.2305636,28.8911091 29.9456545,29.1760182 29.9456545,29.5274727 C29.9456545,29.8789273 30.2305636,30.1638364 30.5820182,30.1638364 L34.5789273,30.1638364 C34.9303818,30.1638364 35.2152909,29.8789273 35.2152909,29.5274727 C35.2152909,29.1760182 34.9303818,28.8911091 34.5789273,28.8911091" id="Fill-10"></path>
                    </g>
                </g>
            </g>
        </g>
    </g>
</svg>