<?xml version="1.0" encoding="UTF-8"?>
<svg width="280px" height="280px" viewBox="0 0 280 280" version="1.1" xmlns="http://www.w3.org/2000/svg" xmlns:xlink="http://www.w3.org/1999/xlink">
    <!-- Generator: Sketch 60 (88103) - https://sketch.com -->
    <title>Group 86</title>
    <desc>Created with Sketch.</desc>
    <g id="Careers" stroke="none" stroke-width="1" fill="none" fill-rule="evenodd">
        <g id="01_Careers" transform="translate(-613.000000, -2371.000000)">
            <g id="Group-86" transform="translate(613.000000, 2371.000000)">
                <circle id="Oval-Copy-13" fill="none" fill-rule="nonzero" cx="140" cy="140" r="140"></circle>
                <g id="Group-72" opacity="0.257114955" transform="translate(23.000000, 28.000000)" fill="#FFFFFF">
                    <path d="M47.1597191,66.7968436 C45.4522503,66.7968436 44.0629718,65.38171 44.0629718,63.6422442 C44.0629718,61.9028772 45.4521532,60.4876447 47.1597191,60.4876447 C48.8671878,60.4876447 50.2565634,61.9027783 50.2565634,63.6422442 C50.2565634,65.38171 48.8671878,66.7968436 47.1597191,66.7968436 M34.1570313,80.042442 C32.4495625,80.042442 31.060284,78.6273084 31.060284,76.8878426 C31.060284,75.1483767 32.4494654,73.7331443 34.1570313,73.7331443 C35.8645,73.7331443 37.2537786,75.1483767 37.2537786,76.8878426 C37.2536815,78.6273084 35.8645,80.042442 34.1570313,80.042442 M21.005298,66.7968436 C19.2978293,66.7968436 17.9085507,65.38171 17.9085507,63.6422442 C17.9085507,61.9028772 19.2977322,60.4876447 21.005298,60.4876447 C22.7128639,60.4876447 24.1020453,61.9027783 24.1020453,63.6422442 C24.1020453,65.38171 22.7128639,66.7968436 21.005298,66.7968436 M8.00261026,80.042442 C6.2950444,80.042442 4.90586296,78.6273084 4.90586296,76.8879415 C4.90586296,75.1484756 6.2950444,73.7333421 8.00261026,73.7333421 C9.71017612,73.7333421 11.0993576,75.1484756 11.0993576,76.8879415 C11.0993576,78.6273084 9.71027322,80.042442 8.00261026,80.042442 M47.1597191,58.2650928 C44.2491087,58.2650928 41.8812762,60.6773579 41.8812762,63.6423431 C41.8812762,64.7237476 42.1973303,65.7307704 42.7387489,66.5747862 L37.0357935,72.3841828 C36.207159,71.8326497 35.2187011,71.5106912 34.1570313,71.5106912 C33.0570078,71.5106912 32.0346627,71.8556962 31.1882592,72.4445191 L25.4265595,66.5743905 C25.967881,65.7303747 26.2837409,64.7234509 26.2837409,63.6422442 C26.2837409,60.677259 23.9158113,58.2650928 21.0052009,58.2650928 C18.0945906,58.2650928 15.726661,60.677259 15.726661,63.6422442 C15.726661,64.7234509 16.042618,65.730078 16.5837453,66.5740938 L10.8806928,72.3837872 C10.0522525,71.8324519 9.06389167,71.5106912 8.00261026,71.5106912 C5.09199987,71.5106912 2.72407035,73.9229563 2.72407035,76.8879415 C2.72407035,79.8529266 5.09199987,82.2650928 8.00261026,82.2650928 C10.9132206,82.2650928 13.2811502,79.8529266 13.2811502,76.8879415 C13.2811502,75.8065369 12.9650961,74.7995142 12.4236775,73.9553994 L18.1265358,68.1460028 C18.9551703,68.6975359 19.9437253,69.0194944 21.005298,69.0194944 C22.0667736,69.0194944 23.0553286,68.6975359 23.8838661,68.1460028 L29.6773168,74.0484756 C29.1718245,74.8732036 28.8786856,75.8461017 28.8786856,76.8878426 C28.8786856,79.8528277 31.246518,82.2650928 34.1571284,82.2650928 C37.0677388,82.2650928 39.4356683,79.8528277 39.4356683,76.8878426 C39.4356683,75.8066358 39.1197113,74.7999098 38.578584,73.9559929 L44.2817336,68.1462995 C45.1103681,68.6976349 46.0986318,69.0193955 47.1598161,69.0193955 C50.0705236,69.0193955 52.4383561,66.6072293 52.4383561,63.6422442 C52.4383561,60.6771601 50.0704265,58.2650928 47.1597191,58.2650928" id="Fill-1" transform="translate(27.581213, 70.265093) rotate(-28.000000) translate(-27.581213, -70.265093) "></path>
                    <path d="M132.203583,208.004152 L132.203583,199.774491 C134.091746,200.159616 135.518558,201.858041 135.518558,203.889277 C135.518558,205.920602 134.091658,207.619117 132.203583,208.004152 L132.203583,208.004152 Z M130.031534,217.593982 C130.031534,217.609962 130.031534,217.622728 130.008001,217.636744 C129.980166,217.653171 129.963394,217.643797 129.950047,217.636209 C123.273559,213.840307 116.035004,211.561605 108.420801,210.855007 L108.420801,196.924797 C116.035618,196.217127 123.274261,193.938247 129.949784,190.142702 C129.963482,190.135114 129.980517,190.125741 130.008001,190.142167 C130.031534,190.156183 130.031534,190.16877 130.031534,190.18475 L130.031534,217.593982 Z M111.180294,226.03549 C111.183806,226.044595 111.18609,226.051023 111.176694,226.064503 C111.167474,226.077984 111.160625,226.077984 111.151405,226.077984 L106.085953,226.077984 C106.073045,226.077984 106.061191,226.069681 106.057239,226.05879 L101.38289,212.943288 L106.511916,212.943288 L111.180294,226.03549 Z M99.8387642,210.626289 C99.4128894,210.432208 99.1150404,209.997894 99.1150404,209.493589 L99.1150404,198.288626 L99.1151283,198.288626 C99.1151283,197.604167 99.6629701,197.04728 100.336204,197.04728 L106.248663,197.04728 L106.248663,210.735023 C106.248663,210.735023 100.28466,210.732702 100.258931,210.731095 C100.041077,210.705474 99.9952403,210.694047 99.8387642,210.626289 L99.8387642,210.626289 Z M96.9429032,207.691607 L95.5488436,207.691607 C95.1934796,207.691607 94.9044994,207.397808 94.9044994,207.036519 L94.9044994,200.745695 C94.9044994,200.384674 95.1934796,200.090697 95.5488436,200.090697 L96.9429032,200.090697 L96.9429032,207.691607 Z M132.203583,197.539087 L132.203583,190.18475 C132.203583,189.374863 131.79369,188.646839 131.107197,188.237342 C130.417895,187.826238 129.588975,187.817757 128.889926,188.215291 C122.214228,192.010836 114.952316,194.227403 107.305887,194.803841 C107.247318,194.808216 100.336291,194.838926 100.336291,194.838926 C98.6005661,194.838926 97.1659386,196.171152 96.9674019,197.882343 L95.5488436,197.882343 C93.9959371,197.882343 92.7323621,199.166807 92.7323621,200.745695 L92.7323621,207.036608 C92.7323621,208.615496 93.9959371,209.90005 95.5488436,209.90005 L96.9672263,209.90005 C97.1101798,211.131576 97.893087,212.166075 98.96796,212.649579 L104.015674,226.812614 C104.331173,227.694188 105.163078,228.286606 106.086041,228.286606 L111.151493,228.286606 C111.869597,228.286606 112.544147,227.929602 112.95606,227.331649 C113.367974,226.733518 113.467286,225.966928 113.222122,225.281933 L108.885312,213.119603 C115.952375,213.866018 122.674788,216.030003 128.88975,219.56362 C129.232646,219.758593 129.606801,219.855811 129.980429,219.855811 C130.368282,219.855722 130.755697,219.750915 131.106934,219.54148 C131.793427,219.131894 132.203496,218.403959 132.203496,217.593893 L132.203496,210.239557 C135.294469,209.832381 137.690695,207.140969 137.690695,203.889366 C137.690695,200.637675 135.294469,197.946084 132.203583,197.539087 L132.203583,197.539087 Z" id="Fill-1" transform="translate(115.211529, 208.104788) rotate(-33.000000) translate(-115.211529, -208.104788) "></path>
                    <g id="Group-14" transform="translate(177.757812, 33.363281) rotate(48.000000) translate(-177.757812, -33.363281) translate(154.757812, 10.363281)">
                        <path d="M31.111058,27.3090171 C28.6138212,29.8530988 27.3090171,33.3735069 27.3090171,37.1943233 L27.3090171,38.0766784 L18.8130988,38.0766784 L18.8130988,37.1943233 C18.8130988,33.5705559 17.311058,29.9562702 14.8138212,27.2151396 C12.6171804,24.8682008 11.715862,21.8359559 12.1102416,18.7004457 C12.8143233,14.0065682 17.1796294,9.59432327 23.0094253,9.59432327 C29.1113722,9.59432327 34.0117804,14.3913722 34.0117804,20.1648416 C34.0117804,22.8028947 33.0072906,25.3469763 31.111058,27.3090171 L31.111058,27.3090171 Z M27.3934131,42.2824865 C27.3934131,43.2587192 26.5954539,44.0473845 25.5909641,44.0473845 L20.6906498,44.0473845 C19.68616,44.0473845 18.8882008,43.2682008 18.8882008,42.2824865 L18.8882008,40.0294253 L27.3841192,40.0294253 L27.3841192,42.2824865 L27.3934131,42.2824865 Z M23.0000376,7.63218857 C16.0342294,7.63218857 11.0024865,12.823711 10.2045273,18.4000376 C9.70697633,22.1175886 10.908609,25.741262 13.405658,28.4824865 C15.6024865,30.8294253 16.8041192,33.9648416 16.8041192,37.1943233 L16.7947314,42.2824865 C16.7947314,44.338311 18.4939151,46.0000376 20.5967722,46.0000376 L25.4970865,46.0000376 C27.6000376,46.0000376 29.2991273,44.338311 29.2991273,42.2824865 L29.308609,37.1943233 C29.308609,33.8709641 30.4069763,30.8294253 32.5097396,28.6796294 C34.8097396,26.3326906 36.0113722,23.3004457 36.0113722,20.1648416 C36.0020784,13.208609 30.0970865,7.63218857 23.0000376,7.63218857 L23.0000376,7.63218857 Z" id="Fill-1"></path>
                        <path d="M22.9953249,0 L22.9953249,0 C23.5475127,0 23.9950269,0.447608163 23.9950269,0.999795918 L23.9950269,3.69408163 C23.9950269,4.24626939 23.5475127,4.69387755 22.9953249,4.69387755 C22.4431371,4.69387755 21.995529,4.24626939 21.995529,3.69408163 L21.995529,0.999795918 C21.995529,0.447608163 22.4431371,0 22.9953249,0" id="Fill-4"></path>
                        <path d="M35.83216,9.76239224 L35.83216,9.76239224 C36.2133029,10.1435351 36.8293273,10.1495433 37.2178865,9.77591061 L39.2150376,7.8552698 C39.6154253,7.47027796 39.6205886,6.83134735 39.2264906,6.43987796 L39.223862,6.43724939 C38.842062,6.05798408 38.2269763,6.05338408 37.8395437,6.42701673 L35.8450212,8.35028612 C35.4466049,8.73452694 35.4406906,9.37092286 35.83216,9.76239224" id="Fill-6"></path>
                        <path d="M42.0806122,21.1412433 L45.0189796,21.1412433 C45.5607469,21.1412433 46,21.5804024 46,22.1222637 C46,22.664031 45.5607469,23.1031902 45.0189796,23.1031902 L42.0806122,23.1031902 C41.5388449,23.1031902 41.0995918,22.664031 41.0995918,22.1222637 C41.0995918,21.5804024 41.5388449,21.1412433 42.0806122,21.1412433" id="Fill-8"></path>
                        <path d="M0.981039184,21.1412433 L3.91940653,21.1412433 C4.46117388,21.1412433 4.90042694,21.5804024 4.90042694,22.1222637 C4.90042694,22.664031 4.46117388,23.1031902 3.91940653,23.1031902 L0.981039184,23.1031902 C0.439271837,23.1031902 1.87755102e-05,22.664031 1.87755102e-05,22.1222637 C1.87755102e-05,21.5804024 0.439271837,21.1412433 0.981039184,21.1412433" id="Fill-10"></path>
                        <path d="M6.73860571,6.42786163 L6.73588327,6.4304902 C6.34187918,6.82195959 6.34704245,7.4608902 6.74733633,7.84588204 L8.74458122,9.76652286 C9.13314041,10.1401555 9.7491649,10.1340535 10.1303078,9.75300449 C10.5216833,9.3615351 10.5159567,8.72513918 10.1174465,8.34089837 L8.12292408,6.41762898 C7.73549143,6.04399633 7.12040571,6.04850245 6.73860571,6.42786163" id="Fill-12"></path>
                    </g>
                </g>
            </g>
        </g>
    </g>
</svg>