<svg xmlns="http://www.w3.org/2000/svg" width="87" height="90" viewBox="0 0 87 90"><defs><linearGradient id="6szcb" x1="84.64" x2="7.2" y1="55.25" y2="55.25" gradientUnits="userSpaceOnUse"><stop offset="0" stop-color="#ff933d"/><stop offset="1" stop-color="#ff29a4"/></linearGradient><linearGradient id="6szcd" x1="43.58" x2="25.13" y1="15.29" y2="15.29" gradientUnits="userSpaceOnUse"><stop offset="0" stop-color="#ff933d"/><stop offset="1" stop-color="#ff29a4"/></linearGradient><linearGradient id="6szcf" x1="74.68" x2="45.06" y1="35.94" y2="35.94" gradientUnits="userSpaceOnUse"><stop offset="0" stop-color="#ff933d"/><stop offset="1" stop-color="#ff29a4"/></linearGradient><clipPath id="6szca"><path d="M7.081 53.39a.811.811 0 0 0-.811.811v2.085c0 .449.363.812.811.812h76.093a.811.811 0 0 0 .81-.812v-2.085a.811.811 0 0 0-.81-.811z"/></clipPath><clipPath id="6szcc"><path d="M32.491 11.13a7.582 7.582 0 0 0-7.581 7.581v.738h18.508v-.738a7.582 7.582 0 0 0-7.582-7.581z"/></clipPath><clipPath id="6szce"><path d="M58.205 33.729a2.711 2.711 0 0 1 2.71 2.715 2.707 2.707 0 0 1-2.71 2.715 2.711 2.711 0 0 1-2.71-2.715c0-1.5 1.213-2.715 2.71-2.715zm-9.821-8.289a3.673 3.673 0 0 0-3.674 3.674V42.77a3.673 3.673 0 0 0 3.674 3.674h22.37a3.674 3.674 0 0 0 3.675-3.674V29.114a3.674 3.674 0 0 0-3.675-3.674z"/></clipPath><clipPath id="6szcg"><path d="M.3 51.94h84.907v6.622H.3z"/></clipPath><clipPath id="6szch"><path d="M82.91 12.83h4.004v1.481H82.91z"/></clipPath><clipPath id="6szci"><path d="M31.53.11h1.481v11.76H31.53z"/></clipPath></defs><g><g><g><g><g/><g clip-path="url(#6szca)"><path fill="url(#6szcb)" d="M7.081 53.39a.811.811 0 0 0-.811.811v2.085c0 .449.363.812.811.812h76.093a.811.811 0 0 0 .81-.812v-2.085a.811.811 0 0 0-.81-.811z"/></g></g><g><g/><g clip-path="url(#6szcc)"><path fill="url(#6szcd)" d="M32.491 11.13a7.582 7.582 0 0 0-7.581 7.581v.738h18.508v-.738a7.582 7.582 0 0 0-7.582-7.581z"/></g></g><g><g/><g clip-path="url(#6szce)"><path fill="url(#6szcf)" d="M58.205 33.729a2.711 2.711 0 0 1 2.71 2.715 2.707 2.707 0 0 1-2.71 2.715 2.711 2.711 0 0 1-2.71-2.715c0-1.5 1.213-2.715 2.71-2.715zm-9.821-8.289a3.673 3.673 0 0 0-3.674 3.674V42.77a3.673 3.673 0 0 0 3.674 3.674h22.37a3.674 3.674 0 0 0 3.675-3.674V29.114a3.674 3.674 0 0 0-3.675-3.674z"/></g></g><g><g><path d="M7.15 89.628a.741.741 0 0 1-.74-.74V58.02a.741.741 0 0 1 1.481 0v30.866c0 .41-.331.741-.74.741"/></g><g><path d="M79.45 89.631a.741.741 0 0 1-.74-.74V57.86a.74.74 0 0 1 1.481 0v31.03c0 .408-.331.74-.74.74"/></g><g><path d="M79.45 67.061H7.22a.741.741 0 0 1 0-1.481h72.23a.741.741 0 0 1 0 1.481"/></g><g><path d="M50.46 89.512a.741.741 0 0 1-.74-.74V66.63a.74.74 0 0 1 1.481 0v22.14c0 .41-.331.741-.74.741"/></g><g><path d="M79.324 77.091H50.621a.741.741 0 0 1 0-1.481h28.703a.741.741 0 0 1 0 1.481"/></g><g><g/><g clip-path="url(#6szcg)"><path d="M2.248 58.562A1.95 1.95 0 0 1 .3 56.614V53.89a1.95 1.95 0 0 1 1.948-1.949H83.26a1.95 1.95 0 0 1 1.948 1.949v2.725a1.95 1.95 0 0 1-1.948 1.948zm0-5.14a.467.467 0 0 0-.467.467v2.725c0 .257.21.467.467.467H83.27c.258 0 .467-.21.467-.467V53.89a.467.467 0 0 0-.467-.468z"/></g></g><g><path d="M58.106 39.881a3.46 3.46 0 0 1-3.456-3.455 3.46 3.46 0 0 1 3.456-3.456 3.46 3.46 0 0 1 3.455 3.456 3.46 3.46 0 0 1-3.455 3.455m0-5.427a1.975 1.975 0 0 0-1.975 1.972 1.975 1.975 0 0 0 3.949 0 1.975 1.975 0 0 0-1.974-1.972"/></g><g><path d="M79.57 52.446a.741.741 0 0 1-.74-.74 1.976 1.976 0 0 0-1.975-1.975 1.976 1.976 0 0 0-1.974 1.975.741.741 0 0 1-1.481 0 3.459 3.459 0 0 1 3.455-3.456 3.46 3.46 0 0 1 3.456 3.456c0 .408-.332.74-.741.74"/></g><g><path d="M21.3 47.261H7.11a.74.74 0 0 1 0-1.481H21.3a.741.741 0 0 1 0 1.481"/></g><g><path d="M21.3 49.831H7.11a.74.74 0 0 1 0-1.481H21.3a.741.741 0 0 1 0 1.481"/></g><g><path d="M21.3 52.521H7.11a.74.74 0 0 1 0-1.481H21.3a.741.741 0 0 1 0 1.481"/></g><g><path d="M77.32 8.133a.741.741 0 0 1-.74-.74V4.71a.74.74 0 0 1 1.481 0v2.681c0 .41-.331.741-.74.741"/></g><g><path d="M72.19 10.125a.738.738 0 0 1-.505-.2l-1.93-1.803a.74.74 0 1 1 1.012-1.083l1.93 1.804a.74.74 0 0 1-.506 1.282"/></g><g><path d="M81.53 10.437a.74.74 0 0 1-.506-1.281L83.08 7.23a.74.74 0 0 1 1.013 1.081l-2.056 1.926a.738.738 0 0 1-.506.2"/></g><g><path d="M70.97 20.24a.74.74 0 0 1-.505-1.282l2.007-1.878a.74.74 0 1 1 1.012 1.082l-2.007 1.878a.738.738 0 0 1-.506.2"/></g><g><path d="M82.786 20.24a.739.739 0 0 1-.507-.2l-2.015-1.889a.74.74 0 0 1 1.014-1.08l2.014 1.888a.74.74 0 0 1-.506 1.281"/></g><g><path d="M77.32 22.905a.741.741 0 0 1-.74-.741v-2.633a.741.741 0 0 1 1.481 0v2.633c0 .409-.331.74-.74.74"/></g><g><path d="M70.848 14.311h-2.507a.741.741 0 0 1 0-1.481h2.507a.741.741 0 0 1 0 1.481"/></g><g><g/><g clip-path="url(#6szch)"><path d="M86.173 14.311h-2.522a.741.741 0 0 1 0-1.481h2.522a.741.741 0 0 1 0 1.481"/></g></g><g><path d="M79.039 15.987a.738.738 0 0 1-.524-.217l-1.995-1.994V10.42a.74.74 0 0 1 1.481 0v2.741l1.561 1.561a.74.74 0 0 1-.523 1.264"/></g><g><path d="M44.157 20.19H20.39v-.74c0-4.996 4.064-9.06 9.06-9.06h5.644c4.997 0 9.063 4.064 9.063 9.06zm-1.518-1.481c-.373-3.833-3.615-6.838-7.545-6.838h-5.645c-3.928 0-7.168 3.005-7.542 6.838z"/></g><g><g/><g clip-path="url(#6szci)"><path d="M32.27 11.87a.741.741 0 0 1-.74-.741V.85a.741.741 0 0 1 1.481 0v10.278c0 .408-.331.74-.74.74"/></g></g><g><path d="M32.272 24.597c-2.162 0-3.922-1.869-3.922-4.166a.74.74 0 0 1 1.481 0c0 1.48 1.095 2.685 2.441 2.685 1.346 0 2.441-1.205 2.441-2.685a.74.74 0 0 1 1.481 0c0 2.297-1.76 4.166-3.922 4.166"/></g><g><path d="M33.617 53.393l-6.208-.104-.828-7.377c-.053-.429.084-.869.377-1.198.294-.33.72-.51 1.161-.514l4.925.03a1.544 1.544 0 0 1 1.52 1.732zm-4.88-1.563l3.578.06.779-6.113c0-.005.003-.025-.015-.046a.057.057 0 0 0-.045-.02l-4.926-.03c-.009 0-.028 0-.044.019a.045.045 0 0 0-.012.039z"/></g><g><path d="M33.93 51.387a.741.741 0 0 1 0-1.481c.683 0 1.238-.555 1.238-1.237 0-.683-.555-1.238-1.237-1.238a.74.74 0 0 1 0-1.481 2.722 2.722 0 0 1 2.718 2.719c0 1.499-1.22 2.718-2.718 2.718"/></g><g><path d="M29.3 43.272a.741.741 0 0 1-.74-.74V41.06a.741.741 0 0 1 1.481 0v1.47c0 .409-.331.74-.74.74"/></g><g><path d="M32.05 43.272a.741.741 0 0 1-.74-.74V41.06a.741.741 0 0 1 1.481 0v1.47c0 .409-.331.74-.74.74"/></g><g><path d="M44.978 47.675a4.683 4.683 0 0 1-4.678-4.678v-13.13a4.683 4.683 0 0 1 4.678-4.677h26.255a4.683 4.683 0 0 1 4.678 4.678v13.13a4.683 4.683 0 0 1-4.678 4.677zm0-21.004a3.2 3.2 0 0 0-3.197 3.196v13.13a3.2 3.2 0 0 0 3.197 3.197h26.255a3.2 3.2 0 0 0 3.197-3.196v-13.13a3.2 3.2 0 0 0-3.197-3.197z"/></g><g><path d="M62.936 53.42a.741.741 0 0 1-.741-.741v-.245c0-.603-.49-1.093-1.093-1.093h-7.278c-.603 0-1.093.49-1.093 1.093a.74.74 0 0 1-1.481 0 2.577 2.577 0 0 1 2.574-2.574h7.278a2.577 2.577 0 0 1 2.574 2.574v.245c0 .408-.332.74-.74.74"/></g><g><path d="M55.35 50.725a.741.741 0 0 1-.74-.741v-2.933a.741.741 0 0 1 1.481 0v2.933c0 .409-.331.74-.74.74"/></g><g><path d="M59.51 50.725a.741.741 0 0 1-.74-.741v-2.933a.741.741 0 0 1 1.481 0v2.933c0 .409-.331.74-.74.74"/></g></g></g></g></g></svg>