<svg xmlns="http://www.w3.org/2000/svg" width="84" height="85" viewBox="0 0 84 85"><defs><linearGradient id="phz8b" x1="59.96" x2="28.46" y1="32.17" y2="32.17" gradientUnits="userSpaceOnUse"><stop offset="0" stop-color="#ff933d"/><stop offset="1" stop-color="#ff29a4"/></linearGradient><linearGradient id="phz8e" x1="66.35" x2="18.46" y1="69.58" y2="69.58" gradientUnits="userSpaceOnUse"><stop offset="0" stop-color="#ff933d"/><stop offset="1" stop-color="#ff29a4"/></linearGradient><clipPath id="phz8a"><path d="M42.976 25.296a6.387 6.387 0 0 1 6.388 6.388 6.39 6.39 0 0 1-6.388 6.388 6.387 6.387 0 0 1-6.388-6.388 6.387 6.387 0 0 1 6.388-6.388zm-.58-10.404c-.112 0-.205.1-.198.217l.268 4.17a.205.205 0 0 1-.105.194c-.55.294-3.148.26-4.081.941-.078.058-2.428 1.223-2.494 1.15l-1.534-1.917c-.077-.081-2.582 2.552-2.582 2.552a.207.207 0 0 0 .012.298l2.985 2.563c.074.062.093.17.047.256-.345.608-1.654 2.981-1.743 4.062a.195.195 0 0 1-.197.182l-4.496-.04a.2.2 0 0 0-.198.21l.194 5.088a.2.2 0 0 0 .205.194l4.326-.16a.196.196 0 0 1 .2.164c.133.69.66 3.318 1.321 4.123a.206.206 0 0 1-.023.287l-4.008 3.74a.203.203 0 0 0-.003.307l2.4 2.454a.193.193 0 0 0 .287-.027l2.702-3.283a.189.189 0 0 1 .268-.04c.569.419 2.807 1.763 4.297 1.708a.2.2 0 0 1 .21.21l-.105 4.642a.201.201 0 0 0 .19.213l5.057.16a.2.2 0 0 0 .202-.222l-.384-4.654a.203.203 0 0 1 .124-.205c.658-.263 3.396-1.565 4.062-1.824a.192.192 0 0 1 .225.07l2.482 3.492a.194.194 0 0 0 .298.02l4.348-4.283a.204.204 0 0 0-.027-.305l-3.523-2.7a.194.194 0 0 1-.07-.232c.255-.685 1.34-3.62 1.564-4.313.027-.09 2.048.077 2.137.085l2.443.243a.199.199 0 0 0 .21-.209l-.155-5.115a.197.197 0 0 0-.217-.193l-4.062.615a.195.195 0 0 1-.201-.124c-.252-.666-.93-3.802-1.39-4.46a.204.204 0 0 1 .027-.275l2.97-2.482c.089-.082.089-.22.004-.302l-2.56-3.005a.19.19 0 0 0-.29.03l-1.696 2.29a.195.195 0 0 1-.24.065c-.609-.29-3.207-.987-4.167-1.231-.085-.023-2.044-.581-2.044-.67v-4.585a.2.2 0 0 0-.198-.201z"/></clipPath><clipPath id="phz8c"><path d="M42.8.39h1.72v7.005H42.8z"/></clipPath><clipPath id="phz8d"><path d="M17.89 56.814l.298 19.586a1.492 1.492 0 0 0 1.236 1.448c4.05.708 17.11 3.124 22.129 5.715a2.764 2.764 0 0 0 2.59-.02c4.5-2.493 16.48-4.94 20.302-5.676a1.495 1.495 0 0 0 1.208-1.444l.298-19.605a1.498 1.498 0 0 0-1.506-1.518c-12.124.09-17.463 3.795-20.073 5.847a2.436 2.436 0 0 1-3.017 0c-2.61-2.052-9.83-5.758-21.958-5.847h-.022c-.83 0-1.5.685-1.485 1.514"/></clipPath><clipPath id="phz8f"><path d="M17.12 54.52h49.61v30.126H17.12z"/></clipPath><clipPath id="phz8g"><path d="M0 71.75h12.29v1.549H0z"/></clipPath></defs><g><g><g><g/><g clip-path="url(#phz8a)"><path fill="url(#phz8b)" d="M42.976 25.296a6.387 6.387 0 0 1 6.388 6.388 6.39 6.39 0 0 1-6.388 6.388 6.387 6.387 0 0 1-6.388-6.388 6.387 6.387 0 0 1 6.388-6.388zm-.58-10.404c-.112 0-.205.1-.198.217l.268 4.17a.205.205 0 0 1-.105.194c-.55.294-3.148.26-4.081.941-.078.058-2.428 1.223-2.494 1.15l-1.534-1.917c-.077-.081-2.582 2.552-2.582 2.552a.207.207 0 0 0 .012.298l2.985 2.563c.074.062.093.17.047.256-.345.608-1.654 2.981-1.743 4.062a.195.195 0 0 1-.197.182l-4.496-.04a.2.2 0 0 0-.198.21l.194 5.088a.2.2 0 0 0 .205.194l4.326-.16a.196.196 0 0 1 .2.164c.133.69.66 3.318 1.321 4.123a.206.206 0 0 1-.023.287l-4.008 3.74a.203.203 0 0 0-.003.307l2.4 2.454a.193.193 0 0 0 .287-.027l2.702-3.283a.189.189 0 0 1 .268-.04c.569.419 2.807 1.763 4.297 1.708a.2.2 0 0 1 .21.21l-.105 4.642a.201.201 0 0 0 .19.213l5.057.16a.2.2 0 0 0 .202-.222l-.384-4.654a.203.203 0 0 1 .124-.205c.658-.263 3.396-1.565 4.062-1.824a.192.192 0 0 1 .225.07l2.482 3.492a.194.194 0 0 0 .298.02l4.348-4.283a.204.204 0 0 0-.027-.305l-3.523-2.7a.194.194 0 0 1-.07-.232c.255-.685 1.34-3.62 1.564-4.313.027-.09 2.048.077 2.137.085l2.443.243a.199.199 0 0 0 .21-.209l-.155-5.115a.197.197 0 0 0-.217-.193l-4.062.615a.195.195 0 0 1-.201-.124c-.252-.666-.93-3.802-1.39-4.46a.204.204 0 0 1 .027-.275l2.97-2.482c.089-.082.089-.22.004-.302l-2.56-3.005a.19.19 0 0 0-.29.03l-1.696 2.29a.195.195 0 0 1-.24.065c-.609-.29-3.207-.987-4.167-1.231-.085-.023-2.044-.581-2.044-.67v-4.585a.2.2 0 0 0-.198-.201z"/></g></g><g><g><path d="M45.196 50.008l-5.19-.158a.98.98 0 0 1-.946-1.04l.201-3.753c-1.323-.18-2.76-1.004-3.632-1.581l-2.227 2.837a.985.985 0 0 1-.691.37.966.966 0 0 1-.734-.25l-4.002-3.53a.973.973 0 0 1 .032-1.491l2.74-2.274c-.514-.957-.895-2.508-1.103-3.502l-3.955.142a.979.979 0 0 1-1.01-.94l-.198-5.082a.98.98 0 0 1 .273-.715.987.987 0 0 1 .705-.298l4.148.034c.269-1.031.993-2.437 1.553-3.433l-2.7-2.257a.992.992 0 0 1-.349-.715.98.98 0 0 1 .286-.725l3.535-3.535a.955.955 0 0 1 .703-.286.983.983 0 0 1 .696.304l2.558 2.694c.856-.542 2.203-1.272 3.348-1.873l-.25-3.799a.979.979 0 0 1 .974-1.042h5.336c.538 0 .975.438.975.976v4.15c.99.323 2.526 1.006 3.323 1.369l2.05-2.802a.976.976 0 0 1 1.446-.145l3.89 3.576c.199.181.314.444.314.717 0 .276-.117.541-.321.727l-2.991 2.644c.475.882 1.13 2.486 1.525 3.484l3.722-.35a.972.972 0 0 1 1.067.94l.159 5.104a.98.98 0 0 1-1.04 1.006l-4.041-.284c-.317.881-.96 2.578-1.312 3.504l3.156 2.245a.98.98 0 0 1 .136 1.474l-4.11 4.187a.977.977 0 0 1-1.475-.093l-2.41-3.191c-.658.255-1.811.705-2.719 1.06l-.796.31.359 4.23a.992.992 0 0 1-.274.764.975.975 0 0 1-.7.296h-.034zm-4.558-1.689l3.968.121-.34-4.016a.976.976 0 0 1 .588-.981l1.224-.478a692.839 692.839 0 0 1 3.132-1.22.974.974 0 0 1 1.13.332l2.264 2.997 3.17-3.23-2.969-2.112a.975.975 0 0 1-.352-1.13l.142-.376c.378-.995 1.263-3.326 1.457-3.914a.974.974 0 0 1 1.005-.665l3.83.269-.12-3.861-3.543.334a.982.982 0 0 1-1.002-.62c-.628-1.612-1.448-3.55-1.762-3.984a.984.984 0 0 1 .15-1.317l2.855-2.523-2.948-2.71-1.949 2.662a.973.973 0 0 1-1.189.314c-1.007-.47-3.11-1.403-3.914-1.599a.979.979 0 0 1-.742-.946V15.66h-4.15l.234 3.561a.977.977 0 0 1-.522.93c-1.933 1.008-3.324 1.794-3.918 2.215a.968.968 0 0 1-1.285-.142l-2.47-2.601-2.678 2.679 2.586 2.161c.362.29.461.83.216 1.244-.956 1.65-1.634 3.152-1.684 3.734a.976.976 0 0 1-.973.89l-4.027-.034.152 3.914 3.87-.139a.97.97 0 0 1 .994.791c.29 1.517.79 3.3 1.187 3.771a.969.969 0 0 1-.13 1.374l-2.623 2.177 3.056 2.696 2.186-2.784a.98.98 0 0 1 1.34-.187c1.082.774 2.722 1.672 3.737 1.634.28-.007.552.099.746.298.19.196.289.464.271.735z"/></g><g><path d="M42.814 38.899a7.082 7.082 0 0 1-7.074-7.075c0-3.9 3.174-7.074 7.074-7.074 3.901 0 7.075 3.174 7.075 7.074 0 3.901-3.174 7.075-7.075 7.075m0-12.6a5.532 5.532 0 0 0-5.525 5.525 5.532 5.532 0 0 0 5.525 5.526 5.532 5.532 0 0 0 5.526-5.526 5.532 5.532 0 0 0-5.526-5.525"/></g><g><path d="M32.94 59.814a.775.775 0 0 1-.741-.554c-.965-3.237-3.167-5.66-5.497-8.225-1.037-1.142-2.11-2.322-3.056-3.576-4.09-5.423-5.71-12.395-4.445-19.13 1.656-8.808 8.023-15.85 16.615-18.38 2.771-.817 5.814-.989 7.878-.989 12.079 0 22.013 7.965 24.157 19.369a24.452 24.452 0 0 1-1.16 13.144c-1.6 4.259-4.57 7.73-7.734 11.202-1.481 1.626-3.287 3.842-4.105 6.581a.774.774 0 1 1-1.484-.443c.907-3.04 2.852-5.434 4.445-7.18 3.056-3.358 5.925-6.703 7.429-10.705a22.904 22.904 0 0 0 1.086-12.313c-2.004-10.66-11.312-18.106-22.634-18.106-1.962 0-4.846.16-7.44.925-8.031 2.365-13.982 8.948-15.531 17.181-1.185 6.307.33 12.836 4.16 17.911.903 1.197 1.951 2.351 2.966 3.468 2.344 2.58 4.768 5.249 5.834 8.824a.774.774 0 0 1-.742.996"/></g><g><path d="M42.654 62.62a.775.775 0 0 1-.774-.775v-12.34a.774.774 0 0 1 1.549 0v12.34a.775.775 0 0 1-.775.774"/></g><g><path d="M68.635 20.777a.774.774 0 0 1-.49-1.374l5.119-4.178a.775.775 0 0 1 .979 1.2l-5.119 4.177a.77.77 0 0 1-.49.175"/></g><g><path d="M57.644 10.118a.774.774 0 0 1-.678-1.148l2.815-5.119a.774.774 0 0 1 1.357.747l-2.814 5.119a.775.775 0 0 1-.68.401"/></g><g><path d="M14.08 20.777a.77.77 0 0 1-.49-.175l-5.116-4.178a.774.774 0 0 1 .98-1.2l5.115 4.179a.774.774 0 0 1-.49 1.374"/></g><g><path d="M25.077 10.118a.774.774 0 0 1-.68-.402l-2.811-5.119a.774.774 0 0 1 1.357-.745l2.812 5.119a.774.774 0 0 1-.678 1.147"/></g><g><g/><g clip-path="url(#phz8c)"><path d="M43.744 7.395a.774.774 0 0 1-.773-.75l-.17-5.456a.775.775 0 0 1 .75-.798.763.763 0 0 1 .798.75l.17 5.455a.775.775 0 0 1-.75.799h-.025"/></g></g></g><g><g/><g clip-path="url(#phz8d)"><path fill="url(#phz8e)" d="M17.89 56.814l.298 19.586a1.492 1.492 0 0 0 1.236 1.448c4.05.708 17.11 3.124 22.129 5.715a2.764 2.764 0 0 0 2.59-.02c4.5-2.493 16.48-4.94 20.302-5.676a1.495 1.495 0 0 0 1.208-1.444l.298-19.605a1.498 1.498 0 0 0-1.506-1.518c-12.124.09-17.463 3.795-20.073 5.847a2.436 2.436 0 0 1-3.017 0c-2.61-2.052-9.83-5.758-21.958-5.847h-.022c-.83 0-1.5.685-1.485 1.514"/></g></g><g><g><path d="M11.135 77.879h-6.52a.774.774 0 0 1 0-1.549h6.52a.775.775 0 0 1 0 1.549"/></g><g><g/><g clip-path="url(#phz8f)"><path d="M41.204 84.246c-4.917-2.538-18.012-4.96-21.909-5.642a2.27 2.27 0 0 1-1.876-2.198l-.298-19.583a2.245 2.245 0 0 1 .659-1.637 2.328 2.328 0 0 1 1.632-.666c14.2.104 21.173 5.026 22.427 6.012a1.66 1.66 0 0 0 2.059 0c2.058-1.618 7.525-5.917 20.546-6.012a2.272 2.272 0 0 1 2.287 2.303l-.299 19.606A2.282 2.282 0 0 1 64.6 78.62c-3.59.691-15.638 3.135-20.075 5.594a3.473 3.473 0 0 1-1.68.431 3.59 3.59 0 0 1-1.64-.4zM19.385 56.07a.706.706 0 0 0-.507.21.707.707 0 0 0-.209.515v.003l.299 19.585a.719.719 0 0 0 .594.697c5.064.886 17.38 3.224 22.35 5.79a1.977 1.977 0 0 0 1.863-.01c4.636-2.569 16.885-5.057 20.528-5.758a.715.715 0 0 0 .58-.696l.299-19.604a.72.72 0 0 0-.212-.52.709.709 0 0 0-.506-.212h-.007c-12.493.091-17.658 4.152-19.602 5.681-1.17.92-2.804.92-3.973 0-1.184-.93-7.786-5.58-21.486-5.681z"/></g></g><g><path d="M42.694 84.612a.775.775 0 0 1-.774-.774V61.584a.775.775 0 0 1 1.549 0v22.254a.775.775 0 0 1-.775.774"/></g><g><path fill="#fafafc" d="M48.09 67.402s5.37-3.07 11.38-3.582"/></g><g><path d="M48.095 68.18a.773.773 0 0 1-.385-1.446c.225-.129 5.59-3.161 11.699-3.681a.775.775 0 0 1 .131 1.543c-5.772.491-11.009 3.453-11.062 3.483a.77.77 0 0 1-.383.102"/></g><g><path fill="#fafafc" d="M24.05 63.21s6.176.325 11.512 3.144"/></g><g><path d="M35.565 67.133a.772.772 0 0 1-.36-.09c-5.115-2.702-11.132-3.052-11.192-3.055a.775.775 0 0 1 .082-1.547c.26.014 6.409.367 11.833 3.232a.775.775 0 0 1-.363 1.46"/></g><g><path fill="#fafafc" d="M49.33 74.646s3.373-1.797 7.74-2.726"/></g><g><path d="M49.325 75.415a.775.775 0 0 1-.364-1.458c.141-.075 3.519-1.858 7.943-2.8a.774.774 0 1 1 .322 1.515c-4.2.894-7.505 2.635-7.538 2.653a.77.77 0 0 1-.363.09"/></g><g><g/><g clip-path="url(#phz8g)"><path d="M11.516 73.299H.774a.775.775 0 0 1 0-1.549h10.742a.775.775 0 0 1 0 1.549"/></g></g><g><path d="M82.88 73.299H72.134a.775.775 0 0 1 0-1.549H82.88a.775.775 0 0 1 0 1.549"/></g></g></g></g></svg>