<?xml version="1.0" encoding="UTF-8"?>
<svg width="1440px" height="81px" viewBox="0 0 1440 81" preserveAspectRatio="none" version="1.1" xmlns="http://www.w3.org/2000/svg" xmlns:xlink="http://www.w3.org/1999/xlink">
    <!-- Generator: Sketch 59.1 (86144) - https://sketch.com -->
    <title>Fill 1</title>
    <desc>Created with Sketch.</desc>
    <g id="Page-1" stroke="none" stroke-width="1" fill="none" fill-rule="evenodd">
        <g id="Careers-Copy-2" transform="translate(0.000000, -500.000000)" fill="#FFFFFF">
            <path d="M1438.23097,536.597389 C1438.19032,536.994429 1437.79161,537.234589 1437.39484,537.472813 C1437.21484,537.379848 1437.03484,537.288819 1436.85484,537.195854 C1437.32129,536.992492 1437.78774,536.78913 1438.25613,536.583831 C1438.36452,536.641935 1438.47677,536.698101 1438.58903,536.756205 C1438.62774,536.357228 1439.02645,536.119004 1439.42323,535.878844 C1439.60323,535.971809 1439.78516,536.064775 1439.96516,536.155803 C1439.49677,536.359165 1439.03032,536.564464 1438.56387,536.767826 C1438.45355,536.711659 1438.34129,536.653556 1438.23097,536.597389 L1438.23097,536.597389 Z M1409.95355,528.581058 C1409.45419,528.069748 1408.76323,527.362823 1407.96387,526.545502 C1409.23355,524.746234 1412.51419,525.344699 1415.82774,525.259481 C1415.95935,525.904428 1416.09484,526.560997 1416.26903,527.409306 C1414.20387,527.792788 1412.11742,528.180144 1409.95355,528.581058 L1409.95355,528.581058 Z M1403.50258,527.796662 C1402.84258,527.556501 1402.10903,527.287289 1401.08323,526.911554 C1399.82516,527.236933 1398.43355,527.595237 1396.94129,527.980656 C1396.25806,527.709507 1395.62323,527.457726 1394.95742,527.192387 C1393.94129,527.457726 1392.85161,527.742432 1391.41742,528.118167 C1390.32968,527.271795 1389.37355,526.526135 1387.78258,525.288532 C1391.73871,525.646837 1394.48129,525.989647 1397.26452,526.117474 C1400.0071,526.241428 1402.78839,526.144589 1406.7271,526.144589 C1405.02194,527.018077 1404.42194,527.324088 1403.50258,527.796662 L1403.50258,527.796662 Z M1390.21548,535.86916 L1394.42323,535.86916 C1392.38516,536.314619 1391.18903,536.574148 1390.52323,536.719406 C1390.62968,537.021544 1390.49226,536.634188 1390.21548,535.86916 L1390.21548,535.86916 Z M1386.69871,527.817967 C1385.51419,527.504208 1384.48065,527.231122 1382.81613,526.791473 C1382.27226,527.471283 1381.81742,528.040696 1381.35871,528.612046 C1378.10323,529.439051 1378.89677,527.719191 1377.85935,527.149778 C1377.00387,527.407369 1376.14839,527.663024 1375.16903,527.957415 C1374.05419,527.637846 1372.91226,527.308594 1371.65806,526.950289 C1370.51806,527.291163 1369.38968,527.630099 1368.04065,528.034886 C1367.18129,527.705633 1366.36065,527.389938 1365.8129,527.178829 C1364.01097,527.794725 1362.30968,528.373822 1359.92129,529.18727 L1359.92129,526.200756 C1362.87097,526.719813 1364.96323,525.01932 1368.20323,526.024509 C1370.28387,526.667519 1373.74645,526.22787 1376.56645,526.119411 C1378.92,526.028382 1381.24452,525.716561 1384.44968,525.42217 C1385.46968,525.745612 1387.66645,526.140715 1386.69871,527.817967 L1386.69871,527.817967 Z M1356.20129,528.484219 L1357.91613,528.484219 L1357.91613,528.191765 L1356.20129,528.191765 L1356.20129,528.484219 Z M1349.92258,528.776673 L1350.49355,528.776673 L1350.49355,527.897375 L1349.92258,527.897375 L1349.92258,528.776673 Z M1335.9329,527.577806 C1334.64581,528.075558 1334.01097,528.321529 1333.72258,528.433863 C1332.21097,527.771484 1330.66645,527.095548 1328.4929,526.144589 C1331.91484,526.144589 1335.69871,525.563555 1337.75419,526.280164 C1340.79677,527.343456 1342.61419,525.243986 1345.37226,526.309215 C1345.85419,527.488714 1346.41935,528.877385 1347.12,530.599182 C1343.30516,529.890321 1339.05484,529.787672 1335.9329,527.577806 L1335.9329,527.577806 Z M1324.67032,527.992277 C1323.51484,528.319593 1322.4,528.635288 1320.70452,529.115609 C1320.49548,528.276983 1320.13742,527.740495 1320.27871,527.240806 C1320.77613,525.466716 1323.18581,525.092918 1326.81097,525.300153 C1326.91355,526.311152 1327.02387,527.376381 1327.21548,529.212448 C1325.75226,528.509397 1325.1929,528.242121 1324.67032,527.992277 L1324.67032,527.992277 Z M1315.70903,528.887069 C1314.19355,528.546196 1311.63871,527.841208 1311.48774,527.957415 C1309.42065,529.539764 1305.72968,526.741117 1303.97419,528.842523 C1302.91935,528.182081 1301.94194,527.568122 1299.88258,526.27629 L1317.92903,526.27629 C1317.86903,526.247238 1318.27935,526.404117 1318.24065,526.44479 C1317.45677,527.240806 1316.61871,528.023265 1315.70903,528.887069 L1315.70903,528.887069 Z M1296.19548,528.306035 C1296.01355,528.211133 1295.00516,527.69595 1293.43935,526.894123 C1292.82,527.703697 1292.19871,528.515207 1291.57742,529.326718 C1290.99871,529.13885 1290.42,528.95292 1289.84129,528.766989 C1289.61871,527.99615 1289.39419,527.225312 1289.10968,526.251112 C1288.13032,526.204629 1287.06387,526.154273 1285.28129,526.069055 C1283.64774,526.903807 1281.71032,527.893501 1280.60903,528.457104 C1277.96323,528.873512 1276.44968,529.109799 1274.34387,529.440988 C1273.57935,528.931615 1272.41032,528.15303 1271.02065,527.225312 C1277.2471,526.661709 1283.20065,524.891493 1289.81032,525.331142 C1293.12581,525.549998 1296.27484,526.433169 1301.09226,527.306657 C1298.65935,527.802472 1297.44,528.052317 1296.19548,528.306035 L1296.19548,528.306035 Z M1257.45677,530.293171 C1256.10968,529.913562 1254.29226,529.398379 1252.42452,528.869638 C1251.98516,529.080747 1251.36968,529.375137 1250.50065,529.789608 C1249.63161,529.576563 1248.67935,529.340275 1247.56839,529.06719 C1244.88387,529.423557 1241.92645,529.816723 1238.32258,530.293171 C1237.8,529.919373 1236.84774,529.237626 1236.66194,529.103988 C1230.41032,529.741189 1225.19806,530.271866 1220.01677,530.798671 C1218.79935,529.808976 1217.96323,529.129166 1216.98,528.32734 C1221.17613,527.897375 1224.83613,527.521639 1228.73419,527.120726 C1229.11355,527.302783 1229.7271,527.597174 1230.34258,527.889627 C1230.73548,527.688202 1231.13806,527.300846 1231.54258,527.300846 C1243.72645,527.267921 1255.91226,527.275668 1268.42903,527.275668 C1268.52,527.428674 1268.75613,527.81603 1269.05226,528.302162 C1265.22387,528.95873 1261.50774,529.597867 1257.45677,530.293171 L1257.45677,530.293171 Z M1215.43355,530.649539 C1214.10774,530.145976 1213.25419,529.820597 1212.5071,529.537827 C1210.99548,529.961982 1209.83806,530.285424 1208.7,530.603056 C1207.67226,530.256372 1206.77806,529.956171 1205.54129,529.539764 C1201.50774,531.255751 1197.13161,530.754125 1192.94903,529.506839 C1191.01355,530.812228 1189.22323,530.831596 1187.63032,529.843838 C1185.05613,530.3842 1182.67355,531.1899 1180.1671,531.30998 C1178.45226,531.389388 1176.59032,530.446177 1174.7129,531.387452 C1174.54839,531.468796 1173.72387,531.261561 1173.27677,531.125986 C1172.59935,530.920688 1171.98194,530.661159 1171.20387,530.374516 C1169.21806,531.892951 1166.23161,530.473292 1164.49742,531.046578 C1162.02968,531.863899 1158.61548,530.603056 1156.83871,532.204773 C1154.42516,530.254435 1152.1471,532.617307 1150.16903,532.322916 C1149,531.889078 1148.13677,531.571446 1148.06903,531.546268 C1145.06323,531.856152 1142.98258,532.255129 1140.91548,532.239635 C1138.62581,532.220267 1135.41871,531.228636 1134.24774,531.70702 C1131.37355,532.886519 1129.72645,530.171154 1127.68645,531.431998 C1125.63677,532.698651 1123.03161,532.336474 1120.6471,532.247382 C1117.17871,532.119554 1113.36968,533.006599 1110.28839,531.488164 C1104.76065,533.167352 1098.73161,532.105997 1092.95419,532.235761 C1088.01097,532.346158 1083.36,532.853594 1078.89484,533.727081 C1078.54065,533.610875 1078.19032,533.461743 1077.84581,533.233203 C1077.13548,533.479174 1076.46581,533.711587 1075.56387,534.023409 C1073.25097,534.652862 1072.37419,532.274497 1069.14,533.4753 C1068.73935,533.624432 1068.32903,533.676725 1067.90903,533.692219 C1066.91226,533.543087 1065.90774,533.40945 1064.87806,533.324231 C1063.92194,533.155731 1062.91161,533.027904 1061.82774,533.157668 C1060.24452,533.124743 1058.62839,533.147984 1056.96,533.258381 C1056.95613,533.262254 1056.95032,533.266128 1056.94645,533.268065 C1055.97677,533.244823 1054.98968,533.215772 1053.98129,533.215772 L1053.98129,531.614055 C1055.10774,531.980106 1055.76387,532.193152 1056.65226,532.479795 C1057.97613,531.867773 1059.35226,531.232509 1060.7729,530.575941 C1061.34,530.694084 1061.88581,530.922624 1062.3871,531.360337 C1063.03355,531.149228 1063.69161,530.988475 1064.35742,530.860648 C1066.48839,531.083377 1068.48774,530.740567 1070.47355,530.453924 C1073.69419,530.496533 1077.09484,530.725073 1080.69871,530.304792 C1081.01419,530.080125 1081.96645,529.396442 1082.27806,529.173712 C1083.98903,529.303477 1085.33032,529.464229 1086.54581,529.557195 C1086.56903,529.723758 1086.59226,529.900005 1086.61355,530.045263 C1088.47935,530.357085 1087.91226,529.406126 1090.3529,529.743126 C1096.21742,530.554636 1102.35484,531.495911 1099.67032,530.202142 C1095.36387,529.884511 1093.03161,529.70439 1091.73677,529.59593 C1092.57097,529.605614 1093.40516,529.621109 1094.23935,529.64435 C1095.43742,529.787672 1097.16194,529.967792 1099.67032,530.202142 C1109.60129,530.575941 1110.27677,530.314476 1110.55355,530.207953 C1110.48968,530.016212 1110.42968,529.834154 1110.36774,529.648223 C1111.07032,529.311224 1111.63161,529.043948 1112.14258,528.799914 C1112.76194,529.082684 1113.38323,529.613361 1114.02,529.617235 C1121.15032,529.677275 1128.33097,529.884511 1135.38581,529.508775 C1137.38903,529.402252 1138.99742,529.375137 1140.85355,529.636603 C1142.80645,529.909689 1144.83871,530.037516 1146.99484,530.242815 C1147.82903,529.810913 1148.82968,529.289919 1150.22129,528.5675 C1153.37419,528.869638 1156.81935,529.200827 1160.28774,529.53589 C1160.76968,529.328655 1161.35032,529.07881 1161.73548,528.914184 C1162.8329,529.25312 1163.73871,529.53589 1164.65806,529.81866 C1166.34387,529.063316 1167.77419,528.420305 1168.99161,527.87607 C1171.15935,528.21888 1172.90323,528.534575 1174.69161,528.770862 C1181.34194,529.648223 1187.99032,527.080054 1194.69871,528.741811 C1195.19419,528.865764 1196.14065,528.482282 1196.89548,528.358328 C1201.94129,527.529386 1206.94452,527.626225 1211.26839,528.443546 C1212.93677,528.185955 1214.08645,528.009708 1215.89226,527.732748 C1215.69484,528.978098 1215.5729,529.762493 1215.43355,530.649539 L1215.43355,530.649539 Z M1142.12323,548.737124 C1142.04581,548.386567 1141.97032,548.037947 1141.8929,547.689326 C1143.4471,547.497585 1145.00516,547.307781 1146.81871,547.086988 C1146.89226,547.274855 1146.95032,547.422051 1147.01226,547.580867 L1145.11742,547.580867 C1145.85484,547.724188 1146.52839,547.853952 1147.16903,547.97597 C1147.26194,548.21032 1147.35484,548.44467 1147.46903,548.737124 L1142.12323,548.737124 Z M1135.84258,548.963727 L1136.41355,548.963727 L1136.41355,548.086366 L1135.84258,548.086366 L1135.84258,548.963727 Z M1128.71226,548.824279 L1128.71226,547.429798 L1128.80323,547.36201 C1129.04516,547.340706 1129.28516,547.321338 1129.5271,547.30197 C1129.74774,547.776481 1129.97032,548.254866 1130.1929,548.729377 C1129.69935,548.760365 1129.20581,548.793291 1128.71226,548.824279 L1128.71226,548.824279 Z M1047.05613,533.330042 C1046.63226,533.165415 1046.21032,532.998852 1045.78645,532.834226 C1045.95097,532.5011 1046.11742,532.166037 1046.35935,531.676032 C1047.6929,531.772871 1048.76903,531.852279 1051.1729,532.026589 C1049.17742,532.657979 1048.11677,532.993042 1047.05613,533.330042 L1047.05613,533.330042 Z M1041.37161,533.136364 C1041.06581,533.118933 1040.76,533.099565 1040.45419,533.080197 L1040.45419,531.840658 C1041.00968,531.867773 1041.56516,531.894888 1042.12065,531.922003 C1041.87097,532.32679 1041.62129,532.731577 1041.37161,533.136364 L1041.37161,533.136364 Z M1034.34,532.220267 L1036.26774,532.220267 L1036.26774,531.972359 L1034.34,531.972359 L1034.34,532.220267 Z M977.914839,528.174334 C976.482581,527.602984 975.512903,527.217565 973.155484,526.27629 C976.40129,526.541629 977.46,526.628784 978.629032,526.723686 C978.387097,527.215628 978.224516,527.544881 977.914839,528.174334 L977.914839,528.174334 Z M944.367097,523.506695 L945.009677,523.506695 L945.009677,522.759098 L944.367097,522.759098 L944.367097,523.506695 Z M928.300645,519.524676 L930.228387,519.524676 L930.228387,519.276768 L928.300645,519.276768 L928.300645,519.524676 Z M927.015484,521.265841 L927.658065,521.265841 L927.658065,520.520181 L927.015484,520.520181 L927.015484,521.265841 Z M911.204516,522.495696 C912.301935,521.955335 913.070323,521.579599 914.016774,521.112835 C916.227097,521.527306 918.305806,521.916599 920.384516,522.305892 C917.144516,522.644828 914.090323,523.012816 911.204516,522.495696 L911.204516,522.495696 Z M878.173548,522.51119 L880.10129,522.51119 L880.10129,522.263282 L878.173548,522.263282 L878.173548,522.51119 Z M860.425161,518.215413 L856.987742,518.215413 C856.819355,516.547846 858.410323,516.536225 860.969032,517.115322 C860.777419,517.502678 860.610968,517.833867 860.425161,518.215413 L860.425161,518.215413 Z M852.961935,521.916599 C853.240645,521.172876 853.482581,520.522118 853.896774,519.406532 C855.152903,520.597652 855.830323,521.238726 856.616129,521.986323 C855.377419,521.961145 854.527742,521.947587 852.961935,521.916599 L852.961935,521.916599 Z M832.542581,517.53173 L833.187097,517.53173 L833.187097,516.784133 L832.542581,516.784133 L832.542581,517.53173 Z M814.211613,518.219286 L812.127097,518.219286 C812.450323,517.82612 812.910968,517.262517 813.373548,516.698914 C813.654194,516.776386 813.930968,516.855794 814.211613,516.933265 L814.211613,518.219286 Z M786.93871,519.669934 C786.611613,519.656377 786.286452,519.644756 785.959355,519.631199 L785.959355,517.647936 C786.530323,517.669241 787.099355,517.690546 787.668387,517.713787 C787.424516,518.366482 787.182581,519.01724 786.93871,519.669934 L786.93871,519.669934 Z M758.802581,517.409713 L758.802581,515.554278 C761.129032,516.526541 764.094194,515.813806 766.333548,516.079145 C767.254839,516.189541 767.816129,516.755081 769.141935,517.409713 L758.802581,517.409713 Z M723.454839,519.576969 C721.850323,519.857802 720.497419,520.096026 719.316774,520.303261 C715.087742,519.607958 710.763871,518.895223 707.252903,518.318062 C709.865806,517.312874 712.273548,516.385156 714.911613,515.368347 C715.583226,515.519416 716.862581,515.809933 718.316129,516.137248 C719.322581,515.866099 720.267097,515.612381 721.213548,515.358663 C722.866452,516.724093 725.334194,518.031419 723.454839,519.576969 L723.454839,519.576969 Z M695.010968,518.029482 L696.93871,518.029482 L696.93871,517.781574 L695.010968,517.781574 L695.010968,518.029482 Z M696.425806,525.027067 C695.37871,524.930228 694.333548,524.833389 693.288387,524.73655 C693.33871,524.618407 693.389032,524.500263 693.439355,524.382119 L696.634839,524.382119 C696.565161,524.597102 696.495484,524.812085 696.425806,525.027067 L696.425806,525.027067 Z M653.020645,517.653747 C650.831613,518.099206 649.304516,518.411028 647.189032,518.84293 C648.789677,519.627325 650.177419,520.307135 652.894839,521.639639 C648.648387,520.981134 646.285161,520.613146 644.024516,520.260652 L644.024516,519.147004 C640.637419,518.720912 637.383871,518.312252 633.131613,517.775764 C635.647742,516.73765 637.403226,516.013294 639.042581,515.335422 C640.283226,515.689852 641.010968,515.897088 641.729032,516.10045 C643.484516,515.76345 645.065806,515.457439 646.776774,515.128186 C647.562581,515.780881 648.181935,516.292191 649.002581,516.973937 C650.384516,516.667926 651.632903,516.392903 652.707097,516.156616 C654.435484,516.543972 689.765806,516.927454 691.370323,517.287695 C689.849032,519.369734 653.994194,517.58596 653.020645,517.653747 L653.020645,517.653747 Z M655.275484,524.89924 C653.850968,524.554493 652.664516,524.267849 651.170323,523.905672 C656.30129,523.057362 655.705161,523.948281 655.275484,524.89924 L655.275484,524.89924 Z M646.908387,524.945722 C646.002581,524.659079 645.294194,524.436349 644.461935,524.172947 C642.836129,524.490579 641.272258,524.794654 639.718065,525.098728 C638.814194,524.798527 638.113548,524.56805 637.321935,524.306585 C636.718065,524.511884 636.058065,524.734613 635.030323,525.083234 C632.866452,524.753981 631.265806,524.446033 629.576129,524.269786 C627.625161,524.066424 625.590968,523.981206 622.970323,523.804959 C622.590968,523.880494 621.315484,524.132275 619.40129,524.511884 C619.213548,523.803022 619.10129,523.380804 618.93871,522.759098 C621.927097,522.759098 624.414194,522.710679 626.881935,522.776529 C628.732258,522.826885 631.436129,523.388551 632.229677,523.096098 C635.252903,521.98826 636.514839,523.775907 638.789032,523.506695 C639.669677,523.282029 640.548387,523.057362 640.95871,522.952776 C642.532258,523.24523 643.592903,523.442781 644.477419,523.605471 C644.928387,523.47377 645.319355,523.3595 645.582581,523.282029 C647.761935,523.518316 648.934839,523.646143 650.189032,523.781718 C648.536129,524.368562 647.684516,524.6707 646.908387,524.945722 L646.908387,524.945722 Z M634.081935,529.537827 C632.632258,529.177586 631.407097,528.873512 630.356129,528.612046 C629.005161,528.968414 628.169032,529.189207 626.690323,529.576563 C625.952903,528.685644 625.40129,528.017455 624.414194,526.822462 C627.485806,527.397685 629.676774,528.106547 630.538065,527.916742 C634.205806,527.105232 636.96,528.162713 641.026452,528.203386 C638.072903,528.770862 636.015484,529.165965 634.081935,529.537827 L634.081935,529.537827 Z M631.387742,557.615322 L633.315484,557.615322 L633.315484,557.365477 L631.387742,557.365477 L631.387742,557.615322 Z M622.223226,529.022644 C620.610968,528.511334 619.548387,528.176271 617.212258,527.438358 L623.053548,527.438358 C622.772903,527.976783 622.59871,528.307972 622.223226,529.022644 L622.223226,529.022644 Z M616.863871,523.557051 C612.549677,523.272345 608.204516,524.089666 604.376129,522.807518 C600.056129,524.27947 595.794194,523.48539 591.768387,522.797834 C590.07871,523.08254 588.549677,523.340132 586.577419,523.675195 L586.577419,520.068911 C588.414194,521.029554 589.513548,521.606714 590.523871,522.135455 L616.863871,522.135455 L616.863871,523.557051 Z M614.748387,527.860576 L611.554839,527.860576 C611.624516,527.645593 611.692258,527.430611 611.761935,527.215628 C612.807097,527.312467 613.854194,527.409306 614.899355,527.506145 C614.849032,527.624289 614.800645,527.742432 614.748387,527.860576 L614.748387,527.860576 Z M599.084516,528.559753 C600.342581,527.703697 601.294839,527.056812 602.52,526.223997 C605.485161,526.836019 607.345161,527.221438 609.661935,527.699823 C605.972903,528.000024 602.986452,528.242121 599.084516,528.559753 L599.084516,528.559753 Z M592.143871,526.990962 C592.186452,526.867008 592.227097,526.744991 592.271613,526.622974 L595.470968,526.622974 C595.436129,526.834083 595.40129,527.049065 595.366452,527.262111 C594.292258,527.171082 593.218065,527.080054 592.143871,526.990962 L592.143871,526.990962 Z M585.443226,527.759863 C586.76129,527.132347 587.626452,526.721749 589.534839,525.817273 L589.534839,528.079432 C588.145161,527.970972 587.287742,527.903185 585.443226,527.759863 L585.443226,527.759863 Z M609.319355,533.564392 C608.16,533.692219 606.996774,533.820047 606.985161,533.647673 C605.959355,533.508225 606.342581,533.227392 606.619355,533.24095 C606.896129,533.256444 607.163226,533.293243 607.434194,533.324231 C608.256774,532.603749 607.511613,532.173784 606.764516,531.743819 C605.655484,532.042083 604.712903,532.297738 603.50129,532.623117 C602.444516,532.311295 601.503871,532.034336 600.56129,531.75544 C599.682581,532.096313 598.774839,532.44687 597.820645,532.816795 C598.432258,533.076323 599.043871,533.335852 600.212903,533.833604 C597.332903,533.889771 594.950323,533.934317 593.179355,533.967242 C591.683226,533.056956 590.552903,532.367462 589.072258,531.46686 C588.503226,532.133112 588.143226,532.551456 587.783226,532.975611 C584.4,532.092439 580.681935,533.206088 577.064516,532.68122 C576.640645,532.619243 575.998065,532.565014 575.22,532.508847 C574.583226,531.6954 573.896129,530.818038 573,529.677275 C573.880645,529.801229 574.755484,529.923246 575.657419,530.049137 C575.895484,529.853522 576.164516,529.721821 576.447097,529.623045 C576.712258,529.694706 576.961935,529.762493 577.234839,529.836091 C577.47871,529.677275 577.662581,529.559132 577.877419,529.419683 C580.345161,529.479724 583.507742,530.990412 585.462581,529.576563 C588.187742,531.048515 592.486452,529.876763 596.016774,530.527521 C599.479355,531.162785 603.963871,530.965234 608.988387,531.176343 C609.352258,531.308044 610.47871,531.710894 612.18,532.320979 C611.082581,532.665726 610.331613,532.900077 608.117419,533.397829 C608.518065,533.452059 608.916774,533.512099 609.319355,533.564392 L609.319355,533.564392 Z M576.543871,545.665391 L578.473548,545.665391 L578.473548,545.417484 L576.543871,545.417484 L576.543871,545.665391 Z M572.341935,532.307422 C570.828387,532.197025 569.196774,532.053704 567.718065,531.848405 L567.718065,530.512027 L562.678065,530.512027 C563.293548,531.110492 563.885806,531.683779 564.485806,532.26675 C564.18,532.357778 563.856774,532.45268 563.508387,532.557267 C559.683871,531.46686 555.332903,531.585003 550.931613,531.714767 C551.003226,531.658601 551.065161,531.610181 551.13871,531.552078 C549.892258,531.302233 548.465806,531.017527 545.610968,530.44424 C545.276129,530.446177 544.147742,530.451987 543.058065,530.477165 C542.711613,530.713452 542.264516,530.916814 541.817419,531.120176 C541.614194,531.042705 541.410968,530.965234 541.207742,530.885826 C541.734194,530.711515 542.25871,530.539142 542.785161,530.364832 C542.909032,530.415188 543.034839,530.463608 543.058065,530.477165 C542.957419,530.194395 542.957419,529.944551 542.870323,529.735379 C542.25871,529.601741 541.734194,529.427431 541.207742,529.25312 C541.410968,529.175649 541.614194,529.096241 541.817419,529.01877 L543.160645,529.628856 C543.034839,529.677275 542.909032,529.725695 542.870323,529.735379 C544.149677,529.696643 545.34,529.696643 546.435484,529.696643 C546.640645,529.175649 546.812903,528.737937 546.977419,528.321529 C547.589032,528.404811 548.206452,528.488092 548.82,528.571374 C548.754194,528.600426 548.7,528.623667 548.630323,528.654655 C552.108387,529.561068 555.570968,530.461671 559.145806,531.393262 C560.16,530.591435 560.969032,529.954235 561.799355,529.299603 C563.690323,529.448735 565.647097,529.42162 567.812903,528.947109 C569.237419,529.148534 570.772258,529.363517 572.341935,529.58431 L572.341935,532.307422 Z M555.609677,540.937712 C556.585161,540.594902 557.547097,540.221104 558.495484,539.810506 C559.527097,540.50581 560.475484,541.144948 561.423871,541.786022 C559.40129,541.480011 557.475484,541.201114 555.609677,540.937712 L555.609677,540.937712 Z M559.981935,544.95072 C559.374194,543.823514 559.374194,543.823514 564.050323,543.966836 C562.122581,544.4336 560.934194,544.720243 559.981935,544.95072 L559.981935,544.95072 Z M544.244516,555.374468 L545.173548,555.374468 L545.173548,555.12656 L544.244516,555.12656 L544.244516,555.374468 Z M543.243871,555.374468 L543.6,555.374468 L543.6,555.12656 L543.243871,555.12656 L543.243871,555.374468 Z M538.105161,555.622376 L538.747742,555.622376 L538.747742,554.876716 L538.105161,554.876716 L538.105161,555.622376 Z M549.236129,522.147076 L549.236129,522.948902 C548.723226,522.915977 548.262581,522.886926 547.892903,522.863684 C547.788387,522.79977 547.703226,522.751351 547.59871,522.689374 C547.856129,522.443403 548.119355,522.187748 548.384516,521.930156 C548.669032,522.001817 548.951613,522.075415 549.236129,522.147076 L549.236129,522.147076 Z M531.799355,520.593778 C528.667742,520.766152 525.774194,519.321314 522.778065,520.520181 C519.98129,519.640883 516.361935,519.944957 513.26129,519.514992 C512.729032,519.441394 512.343871,519.208981 511.989677,519.085027 C507.576774,520.483382 503.293548,519.799699 498.383226,518.904907 C497.620645,519.301946 496.71871,519.772584 495.410323,520.456267 L503.210323,520.456267 C502.734194,520.903663 502.621935,521.205801 502.360645,521.225169 C499.11871,521.47695 495.857419,521.688059 491.777419,521.965018 C492.222581,521.318134 492.630968,520.727416 493.122581,520.014681 C492.87871,519.974009 492.133548,519.842308 490.912258,519.629262 C489.737419,520.570537 488.630323,521.457582 487.283226,522.538305 C488.833548,522.637081 490.132258,522.718426 491.521935,522.805581 C491.417419,522.824949 491.324516,522.830759 491.216129,522.850127 C488.163871,523.454402 483.679355,522.974081 479.829677,522.974081 C478.225161,522.974081 476.229677,522.73392 475.08,523.012816 C467.107742,524.95928 457.5,522.402731 449.955484,524.55643 C448.70129,524.184568 447.754839,523.903735 446.94,523.663574 C443.359355,524.300775 438.112258,524.430539 436.399355,524.680384 C432.781935,525.205251 429.063871,524.089666 425.680645,524.974774 C425.31871,524.550619 424.960645,524.130338 424.391613,523.464086 C422.909032,524.366625 421.77871,525.056119 420.284516,525.966405 C418.513548,525.931543 416.129032,525.886997 413.249032,525.830831 C414.418065,525.335015 415.031613,525.075487 415.64129,524.815958 C414.687097,524.446033 413.779355,524.093539 412.902581,523.754603 C411.958065,524.033499 411.017419,524.310459 409.962581,524.62228 C408.750968,524.294964 407.806452,524.041246 406.697419,523.742982 C405.950323,524.172947 405.207097,524.602912 406.027742,525.321458 C406.29871,525.292406 406.567742,525.255607 406.842581,525.240113 C407.119355,525.224619 407.502581,525.505452 406.476774,525.646837 C406.465161,525.81921 405.301935,525.691383 404.142581,525.563555 C404.545161,525.511262 404.943871,525.451222 405.344516,525.396992 C403.130323,524.897303 402.38129,524.664889 401.281935,524.320143 C402.983226,523.710057 404.109677,523.30527 404.475484,523.173569 C409.5,522.964397 413.986452,523.161948 417.445161,522.524748 C420.975484,521.87399 425.276129,523.045741 427.999355,521.575726 C430.627742,523.475707 435.429677,520.092152 437.804516,522.0483 C440.552903,521.662881 443.237419,521.285209 445.649032,520.946272 C445.974194,521.017933 446.28,521.045048 446.595484,521.097341 C446.479355,521.13414 446.386452,521.163192 446.262581,521.201927 L447.265161,521.201927 C449.154194,521.444025 450.907742,521.387858 452.620645,521.201927 L453.33871,521.201927 C453.32129,521.176749 453.307742,521.153508 453.290323,521.12833 C453.973548,521.043111 454.656774,520.950146 455.341935,520.849433 C455.771613,521.405289 457.426452,521.715174 458.872258,522.166443 C460.143871,521.773277 461.496774,521.352996 463.112903,520.853307 C461.996129,520.667376 460.935484,520.493066 459.888387,520.320692 C460.484516,520.281957 461.086452,520.250968 461.709677,520.252905 C461.682581,520.243221 462.373548,520.491129 463.159355,520.771962 C466.82129,520.27421 470.52,519.770647 474.210968,519.270958 C477.704516,519.621515 481.205806,519.974009 485.314839,520.38848 C484.23871,519.853929 483.336774,519.404596 482.506452,518.992062 C489.069677,518.645378 494.692258,518.349051 500.105806,518.062407 C501.048387,518.252212 501.84,518.409091 502.174839,518.476878 C504.567097,518.139879 506.763871,517.829994 508.894839,517.527856 C509.42129,517.556908 509.94,517.593707 510.520645,517.578212 C511.937419,517.539477 513.342581,517.549161 514.745806,517.564655 C515.055484,517.649873 515.359355,517.733155 515.676774,517.822247 C516.042581,517.748649 516.39871,517.675051 516.752903,517.603391 C521.663226,517.750586 526.47871,518.205729 531.121935,518.966883 C531.665806,519.055975 532.38,519.055975 532.981935,519.01724 C539.320645,518.62601 545.074839,519.786141 551.227742,519.956578 C550.174839,521.225169 547.585161,521.53699 545.4,521.399479 C544.966452,521.143824 544.534839,520.892042 544.097419,520.634451 C543.750968,520.820382 543.38129,520.963703 543.003871,521.081847 C539.233548,520.38848 535.455484,520.392353 531.799355,520.593778 L531.799355,520.593778 Z M529.749677,554.628808 L531.677419,554.628808 L531.677419,554.378963 L529.749677,554.378963 L529.749677,554.628808 Z M525.952258,555.92645 L525.952258,554.156234 C526.5,554.593946 526.935484,554.942566 527.299355,555.231146 C526.86,555.45775 526.443871,555.674669 525.952258,555.92645 L525.952258,555.92645 Z M521.247097,526.72756 C520.784516,526.611353 520.362581,526.502893 520.025806,526.415738 C520.916129,526.464158 521.810323,526.51064 522.727742,526.55906 C522.232258,526.661709 521.740645,526.741117 521.247097,526.72756 L521.247097,526.72756 Z M513.429677,521.583473 L513.570968,521.333628 C513.886452,521.351059 514.203871,521.36849 514.519355,521.385921 L514.519355,521.442088 C514.153548,521.488571 513.783871,521.53699 513.429677,521.583473 L513.429677,521.583473 Z M514.211613,526.797284 L514.211613,526.109727 C515.620645,526.183325 517.052903,526.258859 518.506452,526.33633 C516.826452,526.516451 515.638065,526.644278 514.211613,526.797284 L514.211613,526.797284 Z M509.392258,526.210439 C509.651613,526.247238 509.916774,526.285974 510.181935,526.322773 L510.181935,526.460284 L508.254194,526.460284 L508.254194,526.210439 L509.392258,526.210439 Z M505.209677,521.827507 L509.065161,521.827507 L509.065161,521.453709 L505.209677,521.453709 L505.209677,521.827507 Z M496.685806,539.998374 L496.685806,539.905409 C496.902581,539.878294 497.069032,539.853116 497.163871,539.826001 C497.163871,539.884104 496.993548,539.942207 496.685806,539.998374 L496.685806,539.998374 Z M493.349032,540.323753 C493.374194,540.269523 493.405161,540.207546 493.432258,540.153316 L495.495484,540.153316 C494.909032,540.21142 494.185161,540.269523 493.349032,540.323753 L493.349032,540.323753 Z M509.641935,541.288269 C508.565806,541.559418 507.431613,541.842188 506.032258,542.192745 C505.981935,541.894481 505.933548,541.625269 505.887097,541.350246 C504.38129,541.369614 502.879355,541.383172 501.406452,541.394792 C501.400645,541.41416 501.392903,541.437401 501.385161,541.458706 C501.170323,541.439338 500.951613,541.418034 500.734839,541.398666 C497.885806,541.416097 495.178065,541.418034 492.81871,541.410286 C492.911613,541.222419 493.000645,541.036488 493.083871,540.866051 C497.854839,540.718856 504.029032,540.575534 509.821935,540.430276 C510.131613,540.288891 510.443226,540.147506 510.754839,540.008058 L511.360645,540.242408 C511.190323,540.300512 511.010323,540.350868 510.832258,540.405098 C512.883871,540.352805 514.869677,540.300512 516.714194,540.246282 C516.92129,540.509684 517.292903,540.778896 517.803871,541.050045 C515.316774,541.156568 512.529677,541.23404 509.641935,541.288269 L509.641935,541.288269 Z M503.113548,550.608053 L503.756129,550.608053 L503.756129,549.862393 L503.113548,549.862393 L503.113548,550.608053 Z M487.354839,541.367677 L487.354839,541.079097 C487.608387,541.067476 487.892903,541.053919 488.179355,541.042298 C488.533548,541.160442 488.88,541.278585 489.207097,541.388982 C488.521935,541.383172 487.900645,541.375424 487.354839,541.367677 L487.354839,541.367677 Z M485.458065,532.491416 C486.013548,532.787743 486.563226,533.084071 487.138065,533.392019 C487.589032,533.29518 488.010968,533.204151 488.407742,533.118933 C488.512258,533.182846 488.605161,533.24095 488.711613,533.3068 C486.648387,533.448185 484.728387,533.616685 485.458065,532.491416 L485.458065,532.491416 Z M483.191613,550.422122 L487.047097,550.422122 L487.047097,550.048324 L483.191613,550.048324 L483.191613,550.422122 Z M482.754194,547.387189 C482.305161,547.369758 481.819355,547.325212 481.370323,547.294223 C481.801935,546.963034 482.25871,546.606666 482.754194,546.223184 L482.754194,547.387189 Z M482.754194,548.729377 C482.550968,548.622854 482.386452,548.537636 482.210323,548.446607 C482.382581,548.460165 482.562581,548.471785 482.754194,548.485343 L482.754194,548.729377 Z M475.476774,546.626034 L476.835484,546.626034 L476.835484,546.37619 L475.476774,546.37619 L475.476774,546.626034 Z M472.136129,533.455932 C472.064516,533.242887 471.996774,533.025967 471.927097,532.810985 L475.122581,532.810985 C475.172903,532.929128 475.22129,533.047272 475.273548,533.167352 C474.228387,533.264191 473.183226,533.36103 472.136129,533.455932 L472.136129,533.455932 Z M468.408387,547.621539 L469.050968,547.621539 L469.050968,546.873942 L468.408387,546.873942 L468.408387,547.621539 Z M467.610968,533.486921 C466.362581,533.423007 465.12,533.35522 463.877419,533.287432 C463.565806,533.208024 463.258065,533.13249 462.950323,533.055019 C463.271613,532.923318 463.594839,532.791617 463.916129,532.657979 C463.209677,532.588255 462.685161,532.415882 462.15871,532.241571 C462.363871,532.162163 462.565161,532.084692 462.768387,532.005284 L464.111613,532.61537 C463.987742,532.665726 463.86,532.714146 463.736129,532.762565 C465.052258,532.690904 466.190323,532.72383 467.732903,532.766439 C467.690323,533.027904 467.649677,533.258381 467.610968,533.486921 L467.610968,533.486921 Z M461.982581,547.371694 L463.910323,547.371694 L463.910323,547.123787 L461.982581,547.123787 L461.982581,547.371694 Z M453.836129,532.572761 C454.205806,532.320979 454.575484,532.073072 454.966452,531.80967 C455.872258,532.200899 456.172258,532.504973 456.102581,532.745134 C455.384516,532.688968 454.631613,532.632801 453.836129,532.572761 L453.836129,532.572761 Z M452.589677,536.7349 C451.782581,536.539286 450.791613,536.299125 449.411613,535.965999 C452.976774,535.855602 453.81871,535.834298 453.750968,536.32624 C453.373548,536.459878 452.97871,536.597389 452.589677,536.7349 L452.589677,536.7349 Z M435.737419,537.662618 C435.69871,537.64906 435.663871,537.633566 435.625161,537.620009 C435.582581,537.633566 435.536129,537.64906 435.493548,537.662618 L434.990323,537.662618 L434.990323,537.41471 L435.572903,537.41471 C435.700645,537.497991 435.820645,537.573526 435.958065,537.662618 L435.737419,537.662618 Z M413.78129,549.614485 L415.709032,549.614485 L415.709032,549.364641 L413.78129,549.364641 L413.78129,549.614485 Z M398.562581,519.505308 C399.607742,519.408469 400.654839,519.31163 401.7,519.214791 C401.769677,519.429774 401.839355,519.644756 401.907097,519.859739 L398.713548,519.859739 C398.663226,519.741595 398.612903,519.621515 398.562581,519.505308 L398.562581,519.505308 Z M414.377419,520.55698 C410.475484,520.241284 407.490968,519.999187 403.8,519.698986 C406.116774,519.218665 407.976774,518.835182 410.941935,518.221223 C412.169032,519.054039 413.119355,519.70286 414.377419,520.55698 L414.377419,520.55698 Z M421.32,518.988188 C420.245806,519.079217 419.171613,519.170245 418.099355,519.259337 C418.062581,519.046291 418.027742,518.833246 417.990968,518.6202 L421.190323,518.6202 C421.234839,518.744154 421.275484,518.866171 421.32,518.988188 L421.32,518.988188 Z M428.020645,519.75709 C426.174194,519.902348 425.316774,519.970135 423.927097,520.078595 L423.927097,517.816436 C425.835484,518.720912 426.700645,519.13151 428.020645,519.75709 L428.020645,519.75709 Z M396.598065,515.556214 L396.598065,514.132681 L422.94,514.132681 C423.948387,513.603941 425.047742,513.030654 426.888387,512.068074 L426.888387,515.672421 C424.910323,515.339295 423.383226,515.081703 421.693548,514.79506 C417.667742,515.48649 413.405806,516.276696 409.085806,514.806681 C405.257419,516.088829 400.912258,515.271508 396.598065,515.556214 L396.598065,515.556214 Z M391.23871,521.021807 C390.863226,520.307135 390.690968,519.974009 390.408387,519.435584 L396.249677,519.435584 C393.915484,520.175434 392.854839,520.510497 391.23871,521.021807 L391.23871,521.021807 Z M386.771613,521.575726 C385.292903,521.186433 384.456774,520.967577 383.107742,520.611209 C382.05871,520.870738 380.829677,521.176749 379.38,521.53699 C377.446452,521.165128 375.389032,520.770025 372.435484,520.200612 C376.501935,520.15994 379.256129,519.104395 382.923871,519.915906 C383.785161,520.10571 385.976129,519.396849 389.047742,518.821625 C388.060645,520.016618 387.509032,520.684807 386.771613,521.575726 L386.771613,521.575726 Z M366.553548,516.944885 C365.777419,516.669863 364.925806,516.367725 363.272903,515.778944 C364.527097,515.64337 365.7,515.515542 367.879355,515.279255 C368.142581,515.356726 368.533548,515.470996 368.986452,515.604634 C369.870968,515.440008 370.931613,515.244393 372.503226,514.951939 C372.913548,515.056525 373.794194,515.281192 374.672903,515.503921 C376.947097,515.775071 378.209032,513.985486 381.232258,515.095261 C382.025806,515.385778 384.729677,514.826048 386.578065,514.775692 C389.047742,514.707905 391.534839,514.758261 394.525161,514.758261 C394.360645,515.379967 394.248387,515.802185 394.062581,516.50911 C392.146452,516.131438 390.870968,515.87772 390.491613,515.802185 C387.870968,515.980369 385.83871,516.065587 383.887742,516.267013 C382.196129,516.44326 380.597419,516.751207 378.433548,517.082397 C377.403871,516.733776 376.743871,516.511047 376.14,516.303811 C375.348387,516.567213 374.647742,516.79769 373.745806,517.097891 C372.189677,516.793817 370.625806,516.487805 369,516.17211 C368.167742,516.435512 367.46129,516.658242 366.553548,516.944885 L366.553548,516.944885 Z M358.188387,516.898403 C357.75871,515.945507 357.160645,515.054588 362.295484,515.904835 C360.797419,516.265076 359.610968,516.553656 358.188387,516.898403 L358.188387,516.898403 Z M355.726452,509.284922 C357.329032,508.924681 359.026452,508.543135 360.756774,508.153842 C361.829032,508.392066 363.077419,508.667089 364.459355,508.9731 C365.281935,508.291354 365.899355,507.780044 366.687097,507.125412 C368.396129,507.456602 369.977419,507.760676 371.734839,508.099613 C372.452903,507.896251 373.180645,507.687079 374.419355,507.334585 C376.05871,508.010521 377.814194,508.734876 380.330323,509.77299 C376.078065,510.309478 372.826452,510.720076 369.437419,511.146167 L369.437419,512.259815 C367.176774,512.610373 364.813548,512.978361 360.567097,513.638803 C363.284516,512.306298 364.672258,511.624552 366.272903,510.840156 C364.159355,510.410191 362.630323,510.098369 360.443226,509.650973 C359.469677,509.585123 357.247742,511.368897 355.726452,509.284922 L355.726452,509.284922 Z M368.295484,503.623715 C368.523871,503.728301 368.756129,503.832887 368.984516,503.937473 C368.192903,504.022691 367.937419,503.943283 367.687742,503.860002 C367.889032,503.780594 368.094194,503.703123 368.295484,503.623715 L368.295484,503.623715 Z M371.299355,503.954904 C375.220645,503.186003 375.880645,503.437784 377.047742,503.889054 C376.496129,504.127278 375.708387,504.357754 375.315484,504.665702 C374.85871,505.024007 374.742581,505.448161 374.225806,506.226747 C372.12,505.541127 370.77871,505.103414 369.437419,504.665702 C370.05871,504.429415 370.68,504.193128 371.299355,503.954904 L371.299355,503.954904 Z M380.448387,505.678638 C380.725161,506.515327 380.974839,507.270671 381.224516,508.024078 C381.127742,508.026015 381.029032,508.027952 380.932258,508.027952 C380.932258,508.022141 380.930323,508.014394 380.928387,508.006647 C379.196129,507.384941 378.313548,506.728373 377.314839,505.99046 C378.147097,505.907178 378.969677,505.825833 380.448387,505.678638 L380.448387,505.678638 Z M384.867097,509.387571 C383.7,509.437927 382.647097,509.482473 381.238065,509.542514 C381.118065,508.949859 381.029032,508.512147 380.934194,508.045383 C382.482581,508.057003 383.512258,508.084118 384.590323,508.117044 C384.689032,508.566377 384.75871,508.889819 384.867097,509.387571 L384.867097,509.387571 Z M433.128387,519.788078 C432.572903,519.815193 432.017419,519.842308 431.461935,519.869423 L431.461935,518.629884 C431.767742,518.610516 432.073548,518.591148 432.38129,518.57178 C432.629032,518.976567 432.87871,519.383291 433.128387,519.788078 L433.128387,519.788078 Z M446.740645,519.052102 L443.744516,519.052102 C444.445161,518.782889 445.426452,518.401344 446.297419,518.064344 C446.36129,518.207666 446.508387,518.534982 446.740645,519.052102 L446.740645,519.052102 Z M454.573548,515.858352 C454.172903,515.99199 453.772258,516.127564 453.371613,516.261202 C452.707742,516.009421 451.896774,515.792502 451.416774,515.496174 C450.857419,515.151427 450.592258,514.736957 450.199355,514.353474 C450.706452,514.214026 451.217419,514.076515 451.728387,513.939003 C452.676774,514.578141 453.625161,515.219215 454.573548,515.858352 L454.573548,515.858352 Z M459.410323,515.141744 L459.410323,515.505858 L458.767742,515.505858 L458.767742,515.066209 C458.97871,515.097198 459.199355,515.112692 459.410323,515.141744 L459.410323,515.141744 Z M459.863226,511.744632 L459.863226,513.067453 C459.774194,513.034527 459.706452,513.009349 459.613548,512.976424 C459.170323,513.042274 458.682581,513.104251 458.204516,513.175912 C457.205806,513.061642 456.238065,512.949309 455.04,512.809861 C452.651613,513.02678 449.585806,513.301803 446.734839,513.557458 C446.512258,513.987423 446.336129,514.326359 445.850323,515.271508 C444.545806,514.192722 443.744516,513.530343 442.947097,512.869901 C440.469677,513.770504 439.143871,514.252762 437.818065,514.733083 C437.293548,514.529721 436.840645,514.355411 435.663871,513.900268 C435.063871,514.597508 434.461935,515.296686 433.858065,515.995863 C433.074194,515.850605 432.290323,515.701473 431.504516,515.556214 C430.534839,514.682727 429.565161,513.807302 428.444516,512.79824 C439.561935,512.426378 449.64,512.087442 459.863226,511.744632 L459.863226,511.744632 Z M472.265806,515.505858 L472.906452,515.505858 L472.906452,514.758261 L472.265806,514.758261 L472.265806,515.505858 Z M485.119355,514.508417 L487.047097,514.508417 L487.047097,514.260509 L485.119355,514.260509 L485.119355,514.508417 Z M498.942581,513.383148 C499.26,513.365717 499.575484,513.350222 499.890968,513.332791 L500.595484,514.580077 C500.043871,514.593635 499.492258,514.607192 498.942581,514.62075 L498.942581,513.383148 Z M504.39871,513.824733 L508.254194,513.824733 L508.254194,513.450935 L504.39871,513.450935 L504.39871,513.824733 Z M554.051613,523.506695 L554.694194,523.506695 L554.694194,522.759098 L554.051613,522.759098 L554.051613,523.506695 Z M563.264516,522.354311 C562.869677,522.737794 562.604516,523.154201 562.047097,523.497011 C561.567097,523.795275 560.756129,524.012195 560.090323,524.263976 C559.689677,524.130338 559.289032,523.994764 558.888387,523.859189 C559.836774,523.220052 560.785161,522.580914 561.737419,521.941777 C562.244516,522.079288 562.755484,522.2168 563.264516,522.354311 L563.264516,522.354311 Z M569.717419,527.054875 L566.72129,527.054875 C566.818065,526.839893 566.889677,526.677203 566.957419,526.528071 C567.367742,526.508704 567.781935,526.489336 568.203871,526.469968 C568.755484,526.681077 569.289677,526.888312 569.717419,527.054875 L569.717419,527.054875 Z M581.998065,526.630721 L581.998065,527.87026 C581.444516,527.843145 580.889032,527.81603 580.333548,527.788915 C580.583226,527.384128 580.832903,526.979341 581.082581,526.574554 C581.388387,526.591985 581.694194,526.611353 581.998065,526.630721 L581.998065,526.630721 Z M553.59871,519.745469 C563.823871,520.090216 573.9,520.427215 585.017419,520.801014 C583.896774,521.810076 582.927097,522.683564 581.957419,523.557051 C581.173548,523.704247 580.387742,523.851442 579.603871,523.998637 C579,523.297523 578.398065,522.598345 577.798065,521.901105 C576.62129,522.356248 576.170323,522.532495 575.643871,522.735857 C574.32,522.253599 572.992258,521.77134 570.51871,520.870738 C569.719355,521.533117 568.916129,522.193558 567.615484,523.272345 C567.125806,522.329133 566.949677,521.990197 566.729032,521.560231 C565.138065,521.41691 563.492903,521.267778 561.925161,521.12833 C561.9,521.037301 561.87871,520.948209 561.853548,520.85718 L558.927097,520.85718 C558.762581,520.843623 558.580645,520.826192 558.423871,520.812634 C558.282581,520.828129 558.164516,520.841686 558.029032,520.85718 L553.59871,520.85718 L553.59871,519.745469 Z M628.871613,516.117881 C629.951613,516.086892 630.979355,516.05784 632.527742,516.04622 C632.432903,516.512984 632.343871,516.950696 632.223871,517.54335 C630.814839,517.48331 629.761935,517.438764 628.594839,517.390345 C628.703226,516.892592 628.772903,516.567213 628.871613,516.117881 L628.871613,516.117881 Z M633.017419,513.679475 C634.494194,513.82667 635.314839,513.908015 636.147097,513.991296 C635.148387,514.72921 634.265806,515.385778 632.535484,516.009421 C632.533548,516.015231 632.531613,516.022978 632.529677,516.028789 C632.432903,516.028789 632.334194,516.026852 632.237419,516.024915 C632.487097,515.271508 632.736774,514.518101 633.017419,513.679475 L633.017419,513.679475 Z M642.162581,511.955741 C642.783871,512.193965 643.405161,512.430252 644.024516,512.668476 C642.683226,513.106188 641.34,513.541964 639.238065,514.22952 C638.719355,513.448998 638.603226,513.024843 638.146452,512.666539 C637.753548,512.360528 636.967742,512.128114 636.416129,511.88989 C637.58129,511.438621 638.24129,511.186839 642.162581,511.955741 L642.162581,511.955741 Z M645.166452,511.624552 C645.369677,511.70396 645.572903,511.781431 645.774194,511.860839 C645.528387,511.94412 645.26129,512.019655 644.48129,511.936373 C644.711613,511.831787 644.94,511.729138 645.166452,511.624552 L645.166452,511.624552 Z M350.670968,517.02623 C350.60129,516.809311 350.531613,516.594328 350.461935,516.381283 L353.657419,516.381283 C353.707742,516.499426 353.758065,516.61757 353.808387,516.735713 C352.763226,516.830615 351.718065,516.927454 350.670968,517.02623 L350.670968,517.02623 Z M350.158065,510.026708 L352.085806,510.026708 L352.085806,509.778801 L350.158065,509.778801 L350.158065,510.026708 Z M327.781935,512.302425 C326.599355,512.095189 325.246452,511.856965 323.64,511.576132 C321.762581,510.030582 324.230323,508.721319 325.885161,507.355889 C326.829677,507.611544 327.774194,507.865262 328.780645,508.134475 C330.234194,507.807159 331.513548,507.518579 332.185161,507.36751 C334.823226,508.384319 337.232903,509.312037 339.843871,510.317225 C336.334839,510.894386 332.009032,511.605184 327.781935,512.302425 L327.781935,512.302425 Z M288.294194,509.408876 L277.954839,509.408876 C279.280645,508.754244 279.841935,508.186768 280.765161,508.078308 C283.002581,507.812969 285.967742,508.525704 288.294194,507.551504 L288.294194,509.408876 Z M261.135484,511.628425 L260.158065,511.669098 C259.916129,511.016403 259.672258,510.363708 259.428387,509.71295 C259.997419,509.689709 260.568387,509.668404 261.135484,509.645163 L261.135484,511.628425 Z M232.885161,510.216513 L232.885161,508.932428 C233.163871,508.85302 233.442581,508.775549 233.723226,508.696141 C234.185806,509.259744 234.646452,509.825283 234.969677,510.216513 L232.885161,510.216513 Z M213.911613,509.530893 L214.554194,509.530893 L214.554194,508.783296 L213.911613,508.783296 L213.911613,509.530893 Z M190.480645,513.983549 C191.266452,513.237889 191.943871,512.594878 193.2,511.403759 C193.614194,512.521281 193.858065,513.172039 194.134839,513.915762 C192.569032,513.944814 191.719355,513.960308 190.480645,513.983549 L190.480645,513.983549 Z M186.671613,510.212639 C186.483871,509.83303 186.319355,509.499904 186.129677,509.114485 C188.686452,508.535388 190.279355,508.547009 190.109032,510.212639 L186.671613,510.212639 Z M166.995484,514.510353 L168.923226,514.510353 L168.923226,514.262446 L166.995484,514.262446 L166.995484,514.510353 Z M126.710323,514.305055 C128.790968,513.915762 130.869677,513.524533 133.08,513.111998 C134.028387,513.576826 134.794839,513.954498 135.892258,514.494859 C133.006452,515.010043 129.952258,514.643991 126.710323,514.305055 L126.710323,514.305055 Z M119.43871,513.265004 L120.08129,513.265004 L120.08129,512.517407 L119.43871,512.517407 L119.43871,513.265004 Z M116.868387,511.521902 L118.796129,511.521902 L118.796129,511.273995 L116.868387,511.273995 L116.868387,511.521902 Z M102.087097,515.505858 L102.729677,515.505858 L102.729677,514.758261 L102.087097,514.758261 L102.087097,515.505858 Z M69.1819355,520.173497 C68.8722581,519.542107 68.7116129,519.212854 68.4696774,518.722849 C69.6387097,518.627947 70.6954839,518.540792 73.9412903,518.275453 C71.583871,519.214791 70.616129,519.602147 69.1819355,520.173497 L69.1819355,520.173497 Z M10.8270968,524.21943 L12.7548387,524.21943 L12.7548387,523.971522 L10.8270968,523.971522 L10.8270968,524.21943 Z M6.64258065,525.077423 C6.33677419,525.098728 6.03096774,525.116159 5.72709677,525.135527 C5.47741935,524.73074 5.22580645,524.325953 4.97612903,523.921166 C5.5316129,523.894051 6.08709677,523.866936 6.64258065,523.839821 L6.64258065,525.077423 Z M42.8187097,511.702023 L41.4735484,511.091937 C41.5993548,511.043518 41.7251613,510.995098 41.8509677,510.946679 C40.976129,510.929248 40.4516129,510.754938 39.9251613,510.580627 C40.1283871,510.503156 40.3316129,510.423748 40.5329032,510.346277 C40.9819355,510.549639 41.4290323,510.753001 41.8780645,510.956363 C41.7522581,511.004782 41.6264516,511.055138 41.5006452,511.101621 C42.3754839,511.119052 42.9019355,511.293362 43.4264516,511.465736 C43.2232258,511.545144 43.0219355,511.622615 42.8187097,511.702023 L42.8187097,511.702023 Z M34.4458065,511.02415 L35.4096774,511.02415 L35.4096774,509.530893 L34.4458065,509.530893 L34.4458065,511.02415 Z M26.4077419,510.733633 L26.4077419,509.660657 L29.7251613,509.660657 C29.9535484,509.778801 30.18,509.896944 30.4064516,510.017025 C29.0864516,510.253312 27.7683871,510.491536 26.4077419,510.733633 L26.4077419,510.733633 Z M21.1103226,510.27849 L21.7529032,510.27849 L21.7529032,509.530893 L21.1103226,509.530893 L21.1103226,510.27849 Z M15.1664516,511.02415 L16.1303226,511.02415 L16.1303226,509.530893 L15.1664516,509.530893 L15.1664516,511.02415 Z M6.9716129,510.838219 L10.8270968,510.838219 L10.8270968,510.464421 L6.9716129,510.464421 L6.9716129,510.838219 Z M1005.21871,518.959136 C1005.66774,518.753838 1006.11484,518.552413 1006.56387,518.349051 C1006.76516,518.426522 1006.96839,518.503993 1007.16968,518.583401 C1006.6471,518.757711 1006.12065,518.930085 1005.24581,518.947516 C1005.36968,518.995935 1005.49742,519.044355 1005.62323,519.092774 C1005.17419,519.296136 1004.72516,519.499498 1004.27806,519.70286 L1003.67226,519.468509 C1004.19677,519.294199 1004.72129,519.121826 1005.59613,519.104395 C1005.47032,519.054039 1005.34452,519.005619 1005.21871,518.959136 L1005.21871,518.959136 Z M1011.6871,519.024987 L1012.65097,519.024987 L1012.65097,517.53173 L1011.6871,517.53173 L1011.6871,519.024987 Z M1017.37161,517.661494 L1020.69097,517.661494 L1020.69097,518.736407 C1019.32839,518.492372 1018.01032,518.254149 1016.69032,518.017861 C1016.91677,517.899718 1017.14323,517.781574 1017.37161,517.661494 L1017.37161,517.661494 Z M1025.34387,518.279327 L1025.98645,518.279327 L1025.98645,517.53173 L1025.34387,517.53173 L1025.34387,518.279327 Z M1030.96645,519.024987 L1031.93032,519.024987 L1031.93032,517.53173 L1030.96645,517.53173 L1030.96645,519.024987 Z M1036.26774,518.839056 L1040.12323,518.839056 L1040.12323,518.465258 L1036.26774,518.465258 L1036.26774,518.839056 Z M1066.4729,519.261274 L1066.4729,520.717732 C1066.20194,520.739037 1065.93097,520.762278 1065.65806,520.78552 C1065.43548,520.307135 1065.2129,519.82875 1064.99032,519.350366 C1065.48387,519.321314 1065.97935,519.290326 1066.4729,519.261274 L1066.4729,519.261274 Z M1085.60516,518.904907 L1089.03097,518.904907 L1089.03097,518.465258 L1085.60516,518.465258 L1085.60516,518.904907 Z M1440,527.453852 C1439.61677,527.591363 1439.25871,527.717254 1438.88903,527.848955 C1438.4129,527.126536 1438.07806,526.6191 1437.76452,526.144589 C1436.69032,526.144589 1435.83871,526.144589 1434.98323,526.165894 L1434.98323,527.498398 C1431.26129,528.129788 1427.51613,528.766989 1423.42839,529.460356 C1421.86645,528.335087 1419.99097,526.987088 1417.76516,525.383435 C1422.21871,525.1394 1426.61806,525.329205 1431.76065,525.238176 C1430.92839,525.912175 1430.46387,526.284037 1429.32968,527.202071 C1431.84194,526.752738 1433.4271,526.468031 1434.98323,526.165894 C1435.72452,525.852135 1436.53161,525.274975 1437.19161,525.315647 C1438.10129,525.371814 1439.04968,525.323394 1440,525.271101 L1440,519.241906 C1438.38,519.449142 1436.58774,520.11152 1435.55613,519.123763 C1431.55161,519.303883 1427.54516,519.48594 1423.21935,519.681555 C1423.03548,519.609894 1422.48968,519.398785 1420.02387,518.440079 C1419.5671,519.422027 1419.12968,520.365238 1418.75419,521.174812 C1415.46194,520.301325 1413.11613,519.681555 1410.74903,519.054039 C1409.77355,519.389101 1408.88516,519.695113 1407.84581,520.053417 C1406.51613,519.71448 1405.10903,519.354239 1403.72903,519.001745 C1402.89871,519.375544 1402.27548,519.658314 1401.43548,520.035986 C1399.91226,518.34324 1398.12194,519.158625 1396.46516,519.886854 C1395.54194,519.569222 1394.66129,519.265148 1393.92774,519.013366 C1392.44516,519.466573 1391.31677,519.811319 1390.61032,520.028239 C1388.72129,519.615705 1387.36645,519.321314 1385.9729,519.015303 C1385.4,519.850055 1385.05161,520.357491 1384.53871,521.105088 C1383.17806,520.729353 1382.04581,520.417531 1381.06065,520.146382 C1379.02065,520.696428 1376.91097,521.265841 1375.2,521.728731 C1373.82581,521.023743 1372.64323,520.419468 1371.33677,519.751279 C1366.83484,520.065038 1362.81871,520.347807 1358.39613,520.657692 C1358.25677,520.591842 1357.64129,520.303261 1357.12452,520.061164 C1356.24581,520.392353 1355.38452,520.713859 1354.6471,520.990818 C1353.13161,520.566663 1351.97806,520.241284 1350.85161,519.925589 C1346.63806,521.643513 1342.54645,520.932715 1338.6,519.890727 C1337.79097,520.262589 1337.16968,520.547296 1336.63355,520.793267 C1335.71419,520.529865 1334.83161,520.084405 1333.87548,520.035986 C1331.61484,519.923653 1329.31355,519.958515 1327.03742,520.012744 C1324.83677,520.065038 1322.4329,519.966262 1320.50903,520.39429 C1318.18065,520.909473 1316.30323,519.230285 1314.87484,520.053417 C1312.63161,521.341375 1310.48323,519.536297 1309.46516,520.068911 C1307.22194,521.236789 1305.72387,519.712544 1303.90065,519.995313 C1301.86645,520.311009 1299.81871,520.793267 1297.76323,520.814571 C1296.01355,520.832002 1294.23871,520.297451 1292.58968,520.026302 C1291.31613,520.320692 1290.14323,520.801014 1288.90839,520.847497 C1276.60839,521.298766 1264.14387,519.968199 1251.96387,521.755846 C1249.88903,520.500813 1247.10968,522.236168 1245.83226,521.655134 C1242.98903,520.361365 1241.14065,522.367869 1238.48323,521.827507 C1235.51613,521.223232 1231.74387,522.443403 1228.86968,521.010186 C1222.19419,522.606092 1215.12387,521.331691 1208.29548,521.786835 C1207.59871,521.833317 1207.01032,522.305892 1206.36,522.586725 C1205.58387,522.265219 1204.77871,521.930156 1203.99677,521.604777 C1202.51226,522.034742 1201.36452,522.365932 1199.64774,522.863684 C1198.36258,520.070848 1194.08129,523.622902 1191.94839,521.773277 C1191.88258,521.715174 1190.93032,521.862369 1190.49484,521.99988 C1190.02258,522.150949 1189.67226,522.400794 1189.26774,522.608029 C1188.65613,522.325259 1188.04258,522.040553 1187.14839,521.624145 C1185.86129,521.951461 1184.45032,522.309765 1183.07419,522.660322 C1181.8471,522.311702 1180.69548,521.984386 1180.44581,521.912725 C1171.74194,523.005069 1163.99806,522.888862 1155.8129,522.125771 C1155.17419,522.480202 1154.21226,523.014753 1153.38774,523.47377 C1150.98387,523.894051 1149.08516,521.492444 1146.74516,523.336258 C1144.8,522.418225 1142.81613,522.435656 1141.32387,523.221988 C1139.95161,522.915977 1138.98581,522.699058 1137.54,522.375616 C1136.50645,523.103845 1135.53871,523.787528 1134.28065,524.680384 C1132.59871,522.45115 1130.69032,524.091603 1128.91742,524.203936 C1127.89161,523.679068 1126.88323,523.161948 1125.55548,522.482139 C1124.51613,523.163885 1123.48065,523.847568 1122.51097,524.484769 C1118.68645,524.316269 1115.23935,524.163263 1111.37419,523.99089 C1110.75484,523.673258 1109.74645,523.156138 1109.41355,522.985701 C1105.7129,523.351753 1102.34516,524.174884 1099.40323,523.880494 C1092.31355,523.167759 1085.42903,523.500885 1078.51742,524.103223 C1074.38516,524.463464 1070.39613,524.779159 1067.40194,523.770097 C1064.10968,524.037373 1061.28968,524.265913 1058.20065,524.515757 C1057.80968,524.482832 1057.40903,524.432476 1056.99097,524.353068 C1054.39161,523.864999 1050.66194,524.147769 1047.48194,524.275597 C1042.43613,524.477022 1037.26452,524.021878 1032.22065,524.211683 L1032.22065,522.79396 C1031.7329,522.809454 1031.24323,522.826885 1030.75355,522.84238 C1030.95097,523.309144 1031.15032,523.773971 1031.34774,524.240735 C1029.53613,524.337574 1027.74194,524.529315 1025.97871,524.879872 C1021.06645,523.303333 1014.18194,525.304027 1010.27226,523.739109 C1005.89806,523.9967 1002.30387,524.207809 998.581935,524.426665 C998.049677,523.834011 997.662581,523.400172 996.940645,522.590598 C995.907097,523.342069 995.07871,523.946344 994.846452,524.114844 C987.32129,524.223304 981.785806,525.522883 975.816774,524.967027 C972.985161,524.701688 970.378065,524.078045 967.602581,523.605471 C967.134194,523.766224 966.468387,523.992827 965.806452,524.217493 C964.82129,523.837884 963.913548,523.48539 963.363871,523.274281 C963.946452,522.602219 964.455484,522.015375 965.49871,520.812634 C963.396774,521.527306 962.729032,521.753909 960.721935,522.439529 C961.755484,521.219358 962.316774,520.555043 962.659355,520.152193 C966.284516,520.250968 969.238065,520.553106 971.963226,520.365238 C983.715484,519.547917 983.684516,519.505308 998.19871,521.066353 C999.669677,521.225169 1001.28387,521.170939 1002.8071,521.271651 C1006.21935,521.498255 1009.54452,520.146382 1012.9529,520.475635 C1012.93161,520.481445 1012.90839,520.483382 1012.88323,520.489192 C1014.24,521.36849 1015.20774,521.99988 1016.21032,522.650638 C1017.16258,522.160633 1017.55548,521.959208 1017.67161,521.901105 C1019.11935,522.185811 1020.41419,522.437593 1022.10194,522.770719 L1022.10194,521.211611 C1024.77871,521.229042 1027.45355,521.25422 1030.12839,521.263904 C1031.01871,521.265841 1031.9129,521.279398 1032.80903,521.291019 L1032.80903,521.703553 C1033.32387,521.560231 1033.78452,521.430467 1034.22194,521.306513 C1037.08258,521.351059 1039.93548,521.372364 1042.72452,521.258094 C1043.09419,521.76553 1043.46,522.272966 1043.84323,522.79977 C1045.18258,522.462771 1046.28,522.185811 1047.31161,521.926283 C1047.89806,522.152886 1048.43806,522.360121 1049.52387,522.780403 C1049.80452,522.39692 1050.04258,522.069605 1050.29613,521.719047 C1050.83226,521.728731 1051.39161,521.701616 1052.0129,521.58541 C1053.94452,521.225169 1056.35226,521.232916 1059.83613,521.043111 C1060.06258,521.5428 1060.2871,522.036679 1060.51548,522.532495 C1062.80129,522.272966 1065.11613,521.773277 1067.3729,521.831381 C1069.21935,521.877863 1070.96903,520.142509 1072.79419,521.738415 C1074.83806,520.589905 1076.97677,520.411721 1079.2471,521.569915 C1081.20581,520.706112 1083.18968,520.642198 1084.70516,521.475013 C1086.04065,521.167065 1087.00258,520.946272 1087.75161,520.773899 C1088.91677,521.236789 1089.75484,521.569915 1090.27935,521.779088 C1092.26516,521.418847 1093.71871,520.996629 1095.24774,520.903663 C1101.27484,520.545359 1107.57097,521.626082 1113.36774,520.001124 C1115.20452,521.628019 1118.69613,518.9572 1120.89097,520.789393 C1121.44065,521.250347 1125.2671,521.283272 1126.5271,520.795203 C1129.32968,519.70867 1134.92516,520.781646 1135.31613,517.868729 C1135.33548,517.729281 1136.00323,517.611138 1136.17742,517.551098 C1137.18968,518.383913 1138.17871,519.201234 1139.10581,519.968199 L1144.66065,519.968199 C1145.75419,519.437521 1146.96,518.85455 1147.74968,518.473005 C1153.43806,519.685429 1158.90774,518.906843 1164.61742,519.108268 L1164.61742,515.930013 C1166.47935,517.336115 1167.58839,518.174741 1168.84258,519.123763 C1172.53161,519.123763 1176.51097,519.100521 1180.49032,519.127636 C1184.60129,519.156688 1188.84968,518.722849 1192.34903,520.123141 C1193.22968,519.700923 1193.84516,519.406532 1194.78387,518.959136 C1195.81161,519.263211 1196.89548,519.582779 1198.00452,519.910095 C1199.64774,518.443953 1201.5,519.342619 1203.18968,519.87717 C1204.61419,518.986251 1205.90903,518.176677 1206.29226,516.154679 C1207.39161,514.940318 1209.24968,514.940318 1211.89161,514.940318 C1212.43935,515.350916 1213.42452,516.088829 1215.50129,517.642126 C1212.74516,516.972 1211.75806,516.73184 1210.73613,516.483932 C1207.28903,517.42908 1207.28903,517.42908 1206.29226,516.154679 C1207.20194,517.907465 1207.20194,518.447827 1207.20194,518.761585 C1210.70323,519.18574 1213.54645,519.52855 1216.08387,519.834561 C1218.38129,519.427837 1220.55097,519.044355 1222.51742,518.695734 L1222.51742,516.776386 C1221.47613,516.582708 1220.4929,516.398714 1219.35097,516.183731 L1219.35097,514.888025 L1225.75161,514.888025 C1226.00323,516.117881 1226.22194,517.196667 1226.40194,518.081775 L1234.40903,518.081775 C1235.50065,517.19473 1236.41613,516.44907 1237.62194,515.465186 C1237.91613,516.495553 1238.14452,517.297379 1238.39032,518.16312 L1241.45613,518.16312 C1241.45613,517.274138 1241.45613,516.44326 1241.37871,515.656927 C1240.83484,515.500048 1240.36839,515.296686 1239.9,515.091387 C1240.08,515.000359 1240.26,514.907393 1240.44194,514.814428 C1240.83871,515.054588 1241.23742,515.292812 1241.63419,515.532973 C1241.52194,515.58914 1241.41355,515.647243 1241.37871,515.656927 C1245.06387,515.75764 1241.63226,517.808689 1244.01677,518.219286 L1247.57419,518.219286 C1248.12194,517.646 1248.64839,517.095954 1249.09355,516.627254 C1250.16968,516.962316 1251.07355,517.245086 1252.51742,517.696356 C1255.25419,515.889341 1257.80903,514.202405 1260.31355,512.550332 C1259.21613,511.986729 1258.61032,511.676845 1257.72387,511.223638 C1245.20516,511.223638 1232.39806,511.186839 1219.59484,511.260437 C1217.53355,511.272058 1215.48194,511.767873 1213.32581,512.054517 C1212.59032,511.77562 1211.73484,511.452178 1210.85806,511.120989 C1208.34,511.789178 1205.99806,512.412821 1203.73355,513.015159 C1201.25419,512.354718 1198.91032,511.733011 1196.55677,511.107431 C1192.93161,513.061642 1189.4071,511.810483 1186.15548,511.095811 C1185.26516,511.516092 1184.64581,511.808546 1183.80581,512.205586 C1181.07484,511.798862 1178.30903,510.336593 1175.01871,512.023528 C1174.34129,512.370212 1171.7129,511.717517 1170.31161,511.562575 C1165.4671,512.292741 1162.31806,513.803429 1162.2271,516.61757 C1160.68452,515.476806 1159.48839,514.591698 1158.22839,513.662044 C1156.12839,513.985486 1154.45613,514.243078 1152.82452,514.494859 C1151.6071,513.896394 1150.44581,513.326981 1149.22645,512.728516 C1147.91613,513.183659 1147.07419,513.476113 1146.54387,513.660107 C1145.21032,513.367653 1144.06452,513.115872 1142.91871,512.864091 C1142.22387,513.694969 1141.74,514.27213 1141.55419,514.496796 C1138.14387,514.245015 1135.48839,513.834417 1132.88323,513.906078 C1128.8129,514.018411 1125.44516,513.377337 1122.32516,512.131988 C1120.66645,513.547774 1118.83742,512.976424 1117.11484,512.213333 C1114.76323,513.030654 1112.51613,513.811176 1110.21484,514.611066 C1107.55161,513.150734 1103.86452,512.749821 1099.88323,512.993855 C1094.65548,513.31536 1089.44903,513.724021 1084.24452,514.140428 C1083.79935,514.177227 1083.45097,514.535532 1083.14516,514.698221 C1082.24516,514.353474 1081.39355,514.026158 1080.32323,513.615561 C1078.74774,514.339917 1077.41226,514.955813 1076.09032,515.563962 C1075.46323,515.242456 1075.05871,515.035221 1074.33677,514.665296 C1071.85742,515.147554 1069.07226,515.563962 1066.51935,516.22053 C1063.78839,516.919707 1059.24194,515.58914 1058.35161,517.785448 C1058.86645,518.918464 1059.31742,519.904285 1059.74903,520.85137 C1056.68323,520.403974 1054.2271,520.04567 1051.77677,519.689302 C1051.90839,519.507245 1052.04968,519.315504 1052.18129,519.133447 C1052.34968,519.207044 1052.52,519.278705 1052.68839,519.350366 C1053.46645,518.860361 1054.24258,518.368419 1055.59355,517.518172 L1051.73226,517.518172 C1052.25484,517.107575 1052.76774,516.704725 1053.3,516.28638 C1052.55097,515.9978 1051.64323,515.645306 1050.96968,515.383841 C1042.03161,514.899646 1033.04129,516.015231 1024.26581,514.599445 C1022.40581,515.827364 1019.4271,514.669169 1016.92452,514.934508 C1014.06194,515.240519 1011.16645,515.498111 1007.83161,515.821553 C1007.70387,515.777007 1007.02839,515.536847 1005.91161,515.141744 C999.845806,517.103701 993.12,517.148247 986.256774,515.64337 C986.823871,515.389651 987.396774,515.13206 988.892903,514.461934 C981.474194,514.806681 974.941935,513.950624 970.091613,514.930635 C963.042581,515.329611 958.180645,512.68978 951.810968,514.51229 C950.980645,514.750514 949.068387,514.719526 948.056129,514.516164 C942.090968,513.313424 935.723226,513.908015 929.537419,513.830544 C926.870323,513.797618 924.319355,513.853785 921.449032,514.359285 C918.714194,514.839606 913.770968,513.441251 911.049677,513.925446 C906.054194,514.814428 901.072258,514.150112 897.241935,514.587825 C894.472258,514.901583 892.745806,515.457439 890.581935,515.900961 C890.214194,515.786691 889.565806,515.581393 888.495484,515.244393 C886.645161,515.558151 884.516129,515.918392 882.034839,516.34061 L882.034839,519.538233 C877.223226,519.402659 878.36129,517.946201 878.150323,516.861604 L874.654839,516.861604 L874.654839,520.39429 C871.964516,520.446583 869.578065,520.491129 866.231613,520.553106 C866.852903,519.776457 867.255484,519.274831 867.814839,518.573717 C866.527742,518.250275 864.708387,517.793195 862.287097,517.183109 C864.089032,516.679547 865.590968,516.261202 867.514839,515.726651 C865.887097,514.889962 864.679355,514.268256 863.020645,513.416073 C860.740645,514.22952 858.977419,514.857037 856.205806,515.844795 C855.39871,514.84929 854.779355,514.082325 854.549032,513.797618 C845.171613,513.797618 837.81871,513.698843 830.492903,513.832481 C825.57871,513.921572 820.35871,513.162355 815.763871,514.44644 C811.687742,513.245636 806.127097,514.237267 802.043226,513.050022 L774.934839,513.050022 C774.102581,512.716895 773.347742,512.27531 772.290968,512.021592 C770.278065,511.537397 768.094839,511.157788 765.919355,510.723949 C764.494839,511.539333 763.186452,512.292741 762.009677,512.96674 C757.254194,513.458682 753.104516,511.179092 748.600645,512.831165 C744.470323,511.88408 740.912903,512.480608 737.52,513.439314 C738.145161,513.710463 738.774194,513.979676 739.403226,514.250825 C737.717419,515.58914 736.056774,516.908087 733.726452,518.755774 L733.726452,515.478743 C729.99871,515.025537 725.686452,515.891277 723.816774,513.702716 C724.296774,513.094567 725.072903,512.11262 725.849032,511.13261 C723.996774,510.565133 723.934839,511.494787 722.270323,511.560638 C719.235484,511.119052 715.614194,510.590311 711.996774,510.063507 C710.730968,510.357898 709.463226,510.654225 707.839355,511.033834 C707.028387,510.377266 706.416774,509.883387 705.735484,509.327531 C704.370968,509.82722 703.045161,510.309478 701.790968,510.768495 C700.561935,510.034456 699.325161,509.296542 697.873548,508.432739 C697.165161,509.100928 696.714194,509.525082 696.259355,509.953111 C695.185161,509.445675 694.110968,508.940175 692.123226,508.000837 C691.422581,509.288795 657.375484,510.053823 656.552903,511.572259 C655.77871,510.059634 655.389677,509.298479 654.836129,508.217756 C652.496129,508.864641 650.779355,509.341088 648.168387,510.063507 C647.36129,510.063507 644.922581,510.354024 643.71871,510.007341 C640.525161,509.08156 637.331613,508.244871 631.983871,508.380446 C632.092258,508.339773 630.725806,508.841399 629.082581,509.445675 C628.052903,509.236502 627.001935,509.02152 625.391613,508.692267 C624.565161,509.037014 623.450323,509.501841 621.661935,510.249438 C625.749677,510.838219 628.972258,511.303046 632.278065,511.781431 C630.085161,512.391516 627.990968,512.976424 626.150323,513.489671 C623.312903,513.30955 620.483226,513.127493 616.966452,512.900889 C616.072258,513.977739 615.365806,514.829922 614.36129,516.038473 L618.96,516.038473 C619.170968,515.831237 619.383871,515.625939 619.594839,515.418703 C620.026452,515.625939 620.458065,515.831237 620.394194,516.038473 L623.870323,516.038473 C624.449032,515.550404 625.043226,515.046841 625.726452,514.467744 C626.353548,516.232151 626.353548,516.232151 623.587742,517.446511 C622.683871,517.103701 621.78,516.757018 620.394194,516.038473 L618.96,516.038473 C618.96,516.660179 618.96,517.281885 618.963871,517.903591 C617.376774,518.519487 615.783871,519.133447 614.909032,519.470446 C606.93871,518.585338 598.256129,519.602147 592.236774,517.35742 C590.55871,517.773827 589.548387,518.027545 588.274839,518.34324 C587.107742,518.089522 585.814839,517.808689 584.359355,517.492994 C583.143871,517.756396 581.849032,518.037229 580.625806,518.300631 C576.313548,517.535603 576.305806,517.603391 569.425161,517.496868 C566.823871,517.456195 564.367742,516.383219 561.592258,517.341925 C559.314194,516.263139 556.205806,516.989431 553.52129,516.789943 C550.56,516.571087 547.217419,517.274138 544.544516,516.088829 C544.056774,515.873846 541.589032,516.458754 540.058065,516.437449 C537.313548,516.398714 534.56129,516.230214 531.857419,516.022978 C529.52129,515.844795 527.262581,515.36641 524.943871,515.337358 C523.414839,515.317991 521.849032,515.42064 520.10129,515.552341 C519.92129,515.356726 519.74129,515.163048 519.553548,514.955813 C522.02129,514.798934 523.792258,514.6866 526.17871,514.537468 C524.831613,513.456745 523.724516,512.5697 522.549677,511.626488 C521.330323,511.841471 520.585161,511.971235 520.339355,512.013844 C520.830968,512.726579 521.239355,513.31536 521.684516,513.964182 C517.604516,513.687222 514.343226,513.476113 511.10129,513.224332 C510.843871,513.203027 510.727742,512.902826 510.251613,512.453493 L518.051613,512.453493 C516.743226,511.771747 515.843226,511.301109 515.07871,510.902133 C510.168387,511.796925 505.885161,512.480608 501.472258,511.08419 C501.118065,511.208144 500.732903,511.438621 500.202581,511.512218 C497.1,511.94412 493.480645,511.640046 490.685806,512.517407 C487.687742,511.320477 484.798065,512.765315 481.662581,512.591005 C477.809032,512.379896 473.823871,512.360528 469.850323,513.173975 C468.936774,513.359906 467.763871,513.460619 466.590968,513.416073 C466.039355,513.220458 465.497419,513.019033 465.02129,512.784683 C464.707742,512.877648 464.423226,512.962866 464.152258,513.044211 C463.352903,512.809861 462.66,512.468988 462.234194,511.955741 C468.387097,511.783368 474.143226,510.623237 480.48,511.016403 C481.083871,511.055138 481.796129,511.055138 482.34,510.966047 C488.934194,509.883387 495.859355,509.381761 502.943226,509.577376 C506.347742,509.670341 508.681935,508.876261 511.577419,508.583808 C511.877419,508.554756 511.939355,508.1674 512.357419,507.632849 C511.47871,507.226125 510.344516,506.701258 509.754194,506.428172 C504.323226,507.063436 500.345806,507.528263 497.543226,507.855578 C493.823226,507.623165 491.156129,507.303596 488.518065,507.336521 C486.199355,507.365573 483.942581,507.843958 481.604516,508.022141 C478.902581,508.229377 476.148387,508.397877 473.403871,508.436612 C471.872903,508.457917 469.405161,507.871073 468.917419,508.087992 C466.248387,509.273301 462.901935,508.57025 459.940645,508.789106 C457.256129,508.988595 454.149677,508.262302 451.869677,509.341088 C449.094194,508.382382 446.638065,509.455358 444.036774,509.496031 C437.156129,509.602554 437.148387,509.534766 432.836129,510.299794 C431.612903,510.034456 430.318065,509.755559 429.102581,509.492157 C427.647097,509.807852 426.354194,510.086749 425.187097,510.340467 C423.917419,510.024772 422.903226,509.77299 421.225161,509.356583 C415.207742,511.60131 406.523226,510.584501 398.552903,511.467673 C397.678065,511.13261 396.089032,510.516714 394.498065,509.902755 C394.501935,509.281048 394.501935,508.657405 394.501935,508.035699 L393.067742,508.035699 C391.681935,508.756181 390.778065,509.100928 389.878065,509.445675 C387.108387,508.231314 387.108387,508.231314 387.735484,506.466907 C388.420645,507.046004 389.012903,507.54763 389.591613,508.035699 L393.067742,508.035699 C393.005806,507.8304 393.435484,507.625102 393.867097,507.417866 C394.078065,507.625102 394.290968,507.8304 394.501935,508.035699 L399.100645,508.035699 C398.098065,506.827148 397.389677,505.976902 396.497419,504.900053 C392.97871,505.124719 390.150968,505.306776 387.311613,505.488834 C385.470968,504.975587 383.376774,504.39068 381.183871,503.778657 C384.489677,503.302209 387.712258,502.837382 391.8,502.246664 C390.011613,501.501004 388.896774,501.036177 388.070323,500.689494 C386.46,501.020683 385.409032,501.235665 384.379355,501.444838 C382.736129,500.840562 381.369677,500.338936 381.478065,500.377672 C376.130323,500.242097 372.93871,501.080723 369.743226,502.004567 C368.539355,502.353187 366.100645,502.060734 365.293548,502.060734 C362.682581,501.338315 360.965806,500.863804 358.625806,500.214983 C358.072258,501.295706 357.683226,502.058797 356.909032,503.569485 C356.086452,502.05105 355.672258,501.287958 354.973548,500 C352.985806,500.937401 351.913548,501.444838 350.837419,501.950337 C350.382581,501.524246 349.931613,501.098154 349.223226,500.429965 C347.771613,501.295706 346.534839,502.033619 345.305806,502.765721 C344.051613,502.308641 342.727742,501.824446 341.36129,501.326694 C340.678065,501.880613 340.068387,502.376429 339.257419,503.03106 C337.633548,502.653388 336.367742,502.357061 335.1,502.060734 C331.482581,502.589474 327.863226,503.116279 324.826452,503.559801 C323.16,503.493951 323.1,502.56236 321.249677,503.131773 C322.023871,504.111783 322.8,505.091794 323.28,505.701879 C321.412258,507.89044 317.098065,507.022763 313.370323,507.47597 L313.370323,510.754938 C311.04,508.90725 309.379355,507.588303 307.693548,506.249988 C308.320645,505.978839 308.951613,505.70769 309.57871,505.438477 C306.185806,504.479771 302.626452,503.881306 298.494194,504.828392 C293.994194,503.178255 289.842581,505.457845 285.087097,504.963966 C283.912258,504.289967 282.601935,503.538496 281.177419,502.721175 C279.001935,503.156951 276.820645,503.534623 274.805806,504.020755 C273.750968,504.274473 272.994194,504.716059 272.161935,505.049185 L245.053548,505.049185 C240.969677,506.234494 235.409032,505.244799 231.334839,506.445603 C226.74,505.161518 221.518065,505.920735 216.603871,505.829707 C209.278065,505.698006 201.925161,505.796782 192.547742,505.796782 C192.317419,506.081488 191.698065,506.846516 190.890968,507.842021 C188.119355,506.8562 186.358065,506.226747 184.078065,505.413299 C182.419355,506.267419 181.209677,506.889125 179.583871,507.725814 C181.505806,508.260365 183.005806,508.67871 184.811613,509.180336 C182.388387,509.790421 180.569032,510.249438 179.281935,510.57288 C179.843226,511.273995 180.243871,511.77562 180.865161,512.552269 C177.51871,512.488355 175.132258,512.443809 172.441935,512.393453 L172.441935,508.860767 L168.948387,508.860767 C168.735484,509.943427 169.873548,511.399885 165.061935,511.537397 L165.061935,508.337837 C162.580645,507.917555 160.451613,507.557314 158.60129,507.243556 C157.529032,507.580556 156.882581,507.783918 156.516774,507.900124 C154.352903,507.456602 152.626452,506.900746 149.852903,506.585051 C146.024516,506.149276 141.042581,506.813591 136.049032,505.924609 C133.325806,505.440414 128.382581,506.838769 125.647742,506.358448 C122.779355,505.852948 120.226452,505.794845 117.559355,505.82777 C111.373548,505.907178 105.005806,505.31065 99.0406452,506.51339 C98.0303226,506.718689 96.1180645,506.74774 95.2858065,506.509517 C88.916129,504.687007 84.0541935,507.328774 77.0070968,506.931734 C72.1548387,505.94785 65.6225806,506.803907 58.203871,506.461097 C59.7,507.131223 60.2729032,507.386878 60.84,507.642533 C53.9767742,509.14741 47.2509677,509.102865 41.1851613,507.140907 C40.0683871,507.53601 39.3929032,507.774234 39.2651613,507.820716 C35.9322581,507.497274 33.0348387,507.237746 30.1722581,506.933671 C27.6696774,506.668332 24.6909677,507.826527 22.8290323,506.596672 C15.3212903,507.809096 7.65483871,507.173832 0,507.264861 L0,513.31536 C0.781935484,513.197217 1.60064516,513.111998 2.55096774,513.177849 C7.22129032,513.501291 12.1490323,513.276625 16.9683871,513.261131 C21.7529032,513.245636 26.5374194,513.199154 31.3219355,513.168165 C35.7406452,511.243006 39.9425806,513.557458 44.2896774,513.270814 C45.8109677,513.170102 47.4251613,513.224332 48.896129,513.065516 C63.4122581,511.502535 63.3812903,511.54708 75.1335484,512.362465 C77.8606452,512.550332 80.8122581,512.248195 84.4393548,512.151356 C84.78,512.554206 85.3393548,513.216585 86.3748387,514.438693 C84.3677419,513.753073 83.7,513.526469 81.6,512.809861 C82.6412903,514.012601 83.1503226,514.601382 83.7309677,515.271508 C83.1832258,515.484554 82.2735484,515.835111 81.2903226,516.216656 C80.6303226,515.99199 79.9625806,515.76345 79.4941935,515.604634 C76.7167742,516.077208 74.1116129,516.702788 71.28,516.964253 C65.3109677,517.522046 59.7735484,516.222467 52.2503226,516.11207 C52.0180645,515.945507 51.1896774,515.339295 50.1580645,514.589761 C49.4341935,515.397398 49.0470968,515.831237 48.5148387,516.423892 C44.7929032,516.206972 41.1987097,515.993927 36.8245161,515.736335 C32.9148387,517.30319 26.0303226,515.302496 21.1180645,516.877098 C14.3051613,515.523289 7.03741935,516.516857 0,516.282507 L0,523.727488 C0.243870968,523.710057 0.487741935,523.692626 0.737419355,523.675195 C0.979354839,524.1652 1.14387097,524.498326 1.31032258,524.833389 C0.888387097,524.998015 0.464516129,525.162642 0.0425806452,525.327268 C0.0290322581,525.323394 0,525.319521 0,525.31371 L0,581 L1440,581 L1440,527.453852 Z" id="Fill-1"></path>
        </g>
    </g>
</svg>