<svg width="303" height="131" xmlns="http://www.w3.org/2000/svg" xmlns:xlink="http://www.w3.org/1999/xlink"><defs><linearGradient x1="100.84%" y1="50%" x2="1.191%" y2="50%" id="linearGradient-1"><stop stop-color="#FF933D" offset="0%"/><stop stop-color="#FF29A4" offset="100%"/></linearGradient><filter x="-2.8%" y="-8%" width="105.5%" height="115.8%" filterUnits="objectBoundingBox" id="filter-3"><feMorphology radius=".5" operator="dilate" in="SourceAlpha" result="shadowSpreadOuter1"/><feOffset in="shadowSpreadOuter1" result="shadowOffsetOuter1"/><feGaussianBlur stdDeviation="1" in="shadowOffsetOuter1" result="shadowBlurOuter1"/><feColorMatrix values="0 0 0 0 0 0 0 0 0 0 0 0 0 0 0 0 0 0 0.12 0" in="shadowBlurOuter1"/></filter><path d="M109.8 102.341c.296.235.577.486.841.752l.779.784c.72.704.91 1.514.572 2.43 0 .065-.032.129-.096.193-.02.042-.084.096-.19.16a2.01 2.01 0 01-1.24-.272 4.272 4.272 0 01-1.048-.88 2.572 2.572 0 00-.556.72c-.137.266-.26.528-.365.784a19.54 19.54 0 00-.81 2.287 36.291 36.291 0 00-.588 2.35.26.26 0 00-.016.16 1.1 1.1 0 01.016.16c.063.128.19.171.381.128.36-.106.704-.138 1.033-.096.328.043.672.139 1.032.288.17.192.35.384.54.576l.604.608c.148.085.148.234 0 .448a15.287 15.287 0 00-1.398.064 7.556 7.556 0 00-1.205.19l-.13.033a5.336 5.336 0 00-.73.24c-.233.096-.466.198-.699.304a4.636 4.636 0 00-.286.944c-.063.33-.116.666-.159 1.007-.233 1.28-.445 2.57-.635 3.87a80.648 80.648 0 00-.477 3.935 91.15 91.15 0 00-.11 1.695 6.769 6.769 0 00.11 1.664.848.848 0 01-.556.128 2.42 2.42 0 00-.556 0 3.096 3.096 0 01-.366-.164l-.078-.044a2.91 2.91 0 00-.445-.208 4.297 4.297 0 01-.247-.162l-.087-.062a1.559 1.559 0 00-.333-.192 2.183 2.183 0 01-.35-.704 4.096 4.096 0 01-.127-.703 14.575 14.575 0 01-.095-3.455l.127-2.43c.042-.811.116-1.622.222-2.432.17-1.3.344-2.601.524-3.902.09-.65.197-1.297.322-1.941a5.91 5.91 0 01-1.386-.458c-.127.085-.196.176-.206.272a2.672 2.672 0 00-.016.304c.02.426.016.858-.016 1.295a6.61 6.61 0 01-.239 1.327c-.105.171-.217.342-.333.512-.117.17-.228.373-.334.608 0 .064.006.133.016.208.01.074.027.165.048.272a3.24 3.24 0 00-.214.47l-.04.121c-.064.203-.149.39-.254.56-.297.405-.588.816-.874 1.232a6.062 6.062 0 01-.97 1.103c-1.482 1.173-3.092 1.418-4.828.736a3.301 3.301 0 01-.285-.133l-.08-.043a3.626 3.626 0 00-.366-.176 14.493 14.493 0 01-.747-.512c-.2-.149-.37-.309-.508-.48a3.127 3.127 0 01-.381-.623l-.09-.195a21.165 21.165 0 01-.307-.717 10.195 10.195 0 01.031-2.67c.127-.843.35-1.67.668-2.48a20.43 20.43 0 01.984-2.175c.36-.682.731-1.343 1.112-1.983a6.73 6.73 0 01.43-.608c.137-.17.28-.34.428-.511a1.9 1.9 0 01.413-.368 1.2 1.2 0 01.54-.176c.373.187.732.385 1.078.593l.257.158c.423.267.868.528 1.334.784l.122-.12c.04-.038.076-.073.112-.105l.052-.047c.085-.074.18-.165.286-.272.36.192.736.374 1.128.544.392.17.768.363 1.128.576.423.234.836.442 1.239.624.402.18.805.367 1.207.56.09.042.18.082.273.12l.013-.057c.233-.853.492-1.679.778-2.479.286-.8.641-1.572 1.065-2.319.211-.426.44-.831.683-1.215.243-.384.513-.736.81-1.056.148-.149.296-.277.445-.383a2.69 2.69 0 01.396-.236l.112-.052c.741-.363 1.461-.224 2.16.415zm27.195-6.62c.042.02.1.037.175.047.074.01.143.038.206.08.254.128.503.262.745.402l.24.142c.318.192.657.384 1.017.576.063.256.17.49.318.703a39.475 39.475 0 00-.7 2.048 58.454 58.454 0 00-.968 3.23l-.433 1.608-.441 1.623a95.12 95.12 0 00-.715 2.879l-.337 1.447-.346 1.463a.249.249 0 01-.027.105l-.02.04a.333.333 0 00-.045.11l-.003.033a8.073 8.073 0 01-.366 1.967c-.2.63-.365 1.275-.492 1.936a5.08 5.08 0 00-.078.365l-.017.114c-.016.112-.038.23-.066.354l-.03.126a499.9 499.9 0 00-.445 1.871c-.118.504-.223 1.01-.315 1.52l-.066.384a4.707 4.707 0 01-.152.665l-.054.166a7.377 7.377 0 00-.239.864l-.354.098c-.22.059-.403.106-.551.142a1.87 1.87 0 01-.635.048 2.289 2.289 0 01-.668-.192l-.432-.192-.568-.256c-.212-.192-.318-.458-.318-.8 0-.175-.003-.342-.009-.5l-.007-.155a4.628 4.628 0 01.016-.656c.119-.734.22-1.467.305-2.2l.06-.55c.096-.918.228-1.856.397-2.816.032-.208.067-.407.105-.596l.038-.187c.053-.246.101-.517.143-.816v-.48c-1.016.064-1.874.17-2.573.32-.699.15-1.281.341-1.747.576-.551.853-1.112 1.7-1.684 2.543a38.262 38.262 0 00-1.62 2.607 1.47 1.47 0 01-.277.423l-.057.056c-.138.128-.26.278-.366.448v.352l-.416.128a42.71 42.71 0 00-.203.064 3.046 3.046 0 01-.62.128 2.39 2.39 0 01-.826-.016 1.56 1.56 0 01-.762-.4c-.148-.277-.127-.544.063-.8.488-.874.996-1.748 1.525-2.622.127-.176.249-.355.364-.537l.113-.183c.148-.245.307-.485.476-.72a.74.74 0 00.096-.208 1.41 1.41 0 01.095-.24l-.222.002a8.358 8.358 0 00-.922.062 7.35 7.35 0 00-.873-.431 52.38 52.38 0 01-.874-.368c-.085-.278-.106-.485-.064-.624.043-.139.17-.283.382-.432a6.14 6.14 0 011.016-.576c.34-.149.72-.256 1.144-.32.847-.191 1.737-.383 2.669-.575l.35-.352a86.296 86.296 0 012.541-3.487 309.38 309.38 0 012.669-3.422l1.405-1.799 2.12-2.71.7-.897.449-.552.457-.567c.307-.384.609-.768.905-1.152.085-.107.18-.208.286-.304a.734.734 0 01.413-.176zm32.168 9.323c.095.011.206.016.333.016a74.767 74.767 0 012.891 2.047c.043.086.08.176.112.272l.11.336c-.338.086-.72.25-1.143.496a14.37 14.37 0 00-1.27.832c-.424.309-.821.623-1.192.943a18.66 18.66 0 00-.737.666l-.137.134a3.905 3.905 0 01-.413.352 1.724 1.724 0 00-.27.352.877.877 0 00-.111.447c.402.15.789.31 1.16.48.37.17.736.341 1.096.512.042.107.084.197.127.272a.983.983 0 00.159.208c.444.49.603 1.045.476 1.663a2.88 2.88 0 00-.08.448c-.01.128-.026.277-.047.448a1.15 1.15 0 01-.143.176.588.588 0 00-.111.144c-.021.298-.1.543-.238.735-.138.192-.27.384-.397.576-.17.213-.318.405-.445.576-.127.17-.276.341-.445.512l-.747.623a6.89 6.89 0 01-.778.56 3.83 3.83 0 01-.492.32 1.532 1.532 0 01-.588.16 2.898 2.898 0 00-.583.173l-.116.05a4.618 4.618 0 01-.7.257 2.79 2.79 0 01-1.095.096 6.535 6.535 0 01-1.065-.224 6.56 6.56 0 01-.176-.093l-.201-.11-.29-.15c.032-.095.055-.188.069-.278l.01-.089c.011-.117.038-.23.08-.336.381-.192.752-.384 1.112-.576.36-.191.7-.426 1.017-.703a23.48 23.48 0 002.51-2.527c.106-.128.196-.25.27-.368.074-.117.143-.25.206-.4.051-.085.099-.184.143-.297l.032-.087c.053-.149.122-.309.206-.48h-.254c-.762.598-1.662.875-2.7.832a4.587 4.587 0 01-1.712-.623l.114-.177-.345.53a45.543 45.543 0 01-2.918 3.917c-.233.234-.466.458-.699.671l-.699.64c-.233.15-.424.256-.572.32a8.271 8.271 0 01-2.065.304c-.678.01-1.356-.165-2.033-.528-1.102-.576-1.758-1.482-1.97-2.719a7.374 7.374 0 01-.095-1.52c.02-.5.074-.996.158-1.487.255-1.236.583-2.436.985-3.598a16.702 16.702 0 011.62-3.375c.403-.597.79-1.029 1.16-1.295.371-.267.747-.405 1.128-.416.381-.01.784.07 1.207.24.424.17.89.394 1.398.672.593.298 1.033.687 1.319 1.167.286.48.482 1.03.588 1.647v.352c0 .128-.011.235-.032.32-.148.49-.313.97-.493 1.44-.18.469-.45.895-.81 1.28a30.868 30.868 0 00-1.522 1.59l-.289.328a25.314 25.314 0 01-1.81 1.887 3.18 3.18 0 00-.318.288 8.522 8.522 0 00-.08.896c-.01.299-.016.608-.016.928l.138-.032c.212-.05.335-.093.37-.128a7.169 7.169 0 001.335-.976 14.46 14.46 0 001.176-1.231 24.765 24.765 0 001.477-1.904 96.94 96.94 0 001.382-2.03l.092-.143a3.11 3.11 0 01.099-.53 5.01 5.01 0 01.38-.831c.149-.256.308-.523.477-.8.424-.597.895-1.14 1.414-1.631.52-.49 1.064-.949 1.636-1.376.127-.106.329-.25.604-.431l.874-.576c.245-.162.48-.314.706-.456l.422-.26c.155-.095.282-.17.38-.228a.906.906 0 01.414-.096.755.755 0 01.27-.016zm17.362.016l.461.288c.138.085.26.15.366.192l.335.123c.273.098.526.185.76.261l.65.213.32.107a.308.308 0 01.19.128c.043.064.096.138.16.224a8.054 8.054 0 00-.207.815 1.235 1.235 0 01-.398.688c-.02.47-.1.912-.238 1.327-.138.416-.26.827-.365 1.232a20.13 20.13 0 01-.763 2.239v.304a.42.42 0 00.064.24c.127.021.212-.006.254-.08a4.92 4.92 0 00.127-.24c.24-.37.475-.74.706-1.109l.343-.554c.338-.555.677-1.088 1.016-1.6a7.58 7.58 0 011.049-1.407c.254-.256.519-.507.794-.752s.625-.42 1.048-.528c.297.15.604.288.922.416.317.128.656.277 1.016.448.048.08.099.154.152.222l.055.066a.996.996 0 01.175.288c.084.362.095.714.031 1.055a8.48 8.48 0 00-.127.992c-.042.299-.1.608-.174.928-.075.32-.154.64-.239.96.106.042.186.036.239-.017l.142-.144c.424-.554.853-1.109 1.287-1.663.434-.554.863-1.12 1.287-1.695.268-.37.532-.74.79-1.11l.385-.554c.382-.554.784-1.109 1.208-1.663l.176-.22.094-.116a.908.908 0 01.429-.272c.423.17.852.341 1.286.512.435.17.874.373 1.319.608.042.07.082.14.12.206l.055.098c.053.096.11.197.174.304a18.378 18.378 0 00-.238 1.63 6.635 6.635 0 01-.297 1.4l-.068.2c-.17.49-.323.992-.461 1.504a6.772 6.772 0 01-.588 1.471 1.561 1.561 0 00-.032.304.823.823 0 01-.063.304l-.127.703a1.47 1.47 0 00.727-.475l.051-.068c.18-.256.397-.459.652-.608l.21.032.096.016.013.002a28.2 28.2 0 01.729-2.465 16.702 16.702 0 011.62-3.375c.403-.597.79-1.029 1.16-1.295.37-.267.747-.405 1.128-.416.381-.01.783.07 1.207.24.424.17.89.394 1.398.672.593.298 1.032.687 1.318 1.167.286.48.482 1.03.588 1.647v.352c0 .128-.01.235-.032.32-.148.49-.312.97-.492 1.44-.18.469-.45.895-.81 1.28a30.868 30.868 0 00-1.523 1.59l-.288.328a25.314 25.314 0 01-1.811 1.887 3.18 3.18 0 00-.318.288 8.521 8.521 0 00-.08.896c-.01.299-.015.608-.015.928l.138-.032c.211-.05.335-.093.37-.128a7.169 7.169 0 001.335-.976 14.46 14.46 0 001.175-1.231 24.764 24.764 0 001.477-1.904c.456-.65.917-1.327 1.383-2.03l.38-.577.188.042c.178.039.324.074.44.104l.056.014c.159.043.296.086.413.128.116.043.217.096.302.16l.112.087c.06.049.13.105.205.17a1.135 1.135 0 01-.19.351c-.085.107-.117.256-.096.448.022.106-.015.23-.11.368a6.662 6.662 0 01-.27.368 45.743 45.743 0 01-3.368 4.606c-.233.234-.466.458-.7.671l-.698.64-.167.104a3.49 3.49 0 01-.405.216 8.271 8.271 0 01-2.065.304c-.678.01-1.356-.165-2.034-.528-1.101-.576-1.758-1.482-1.97-2.719a7.434 7.434 0 01-.1-1.27l-.154.199c-.155.206-.31.414-.466.625l-.233.318c-.233.32-.476.645-.73.976-.254.33-.456.709-.604 1.135a1.573 1.573 0 00-.224-.03l-.046-.002a.979.979 0 01-.238-.032 3 3 0 01-.268-.057l-.082-.023a1.094 1.094 0 00-.317-.048c-.742.064-1.409-.18-2.002-.735a12.778 12.778 0 010-2.559c.034-.341.078-.672.132-.993l.043-.239c.074-.394.132-.805.174-1.231l-.254.064a62.272 62.272 0 00-1.413 1.999c-.456.672-.917 1.37-1.383 2.095l-.158.08c-.064.032-.149.08-.255.144v.176c0 .075.011.154.032.24-.063.234-.201.378-.413.432a8.153 8.153 0 00-.603.176l-.022.095a.664.664 0 01-.042.128l-.095.192c-.34.171-.689.224-1.049.16-.72-.064-1.281-.405-1.684-1.023a9.461 9.461 0 01-.19-1.52 5.849 5.849 0 01.127-1.487c.054-.201.085-.422.093-.662l.002-.122c0-.288.021-.56.064-.815-.085-.107-.154-.144-.207-.112a.255.255 0 00-.11.144.998.998 0 01-.223.463c-.106.118-.202.24-.286.368a.98.98 0 00-.188.342l-.019.074c-.032.15-.132.277-.302.384a.743.743 0 00-.11.144.337.337 0 00-.048.176 1.357 1.357 0 01-.29.682l-.06.07c-.19.202-.307.442-.35.72-.14.16-.256.33-.346.512l-.05.11a1.526 1.526 0 01-.461.593.676.676 0 00-.223.32.696.696 0 01-.127.255c-.275.192-.519.374-.73.544v.032a.215.215 0 01-.16.064c-.486.213-.936.267-1.35.16a6.294 6.294 0 01-1.254-.48 2.162 2.162 0 01-.858-.703 1.777 1.777 0 01-.318-1.056 17.216 17.216 0 01-.08-1.263c-.01-.416.006-.837.048-1.264.052-1.132.187-2.265.404-3.397a9.036 9.036 0 01-.483-.105 5.91 5.91 0 01-1.128-.4c-.127.085-.196.176-.207.272-.01.096-.015.197-.015.304.02.426.015.858-.016 1.295-.032.437-.112.88-.239 1.327-.105.171-.217.342-.333.512-.117.17-.228.373-.334.608 0 .064.006.133.016.208.01.074.027.165.048.272a3.24 3.24 0 00-.214.47l-.04.121a2.44 2.44 0 01-.255.56c-.296.405-.587.816-.873 1.232a6.062 6.062 0 01-.97 1.103c-1.482 1.173-3.092 1.418-4.828.736a3.301 3.301 0 01-.285-.133l-.08-.043a3.626 3.626 0 00-.366-.176 14.493 14.493 0 01-.747-.512c-.2-.149-.37-.309-.508-.48a3.127 3.127 0 01-.381-.623l-.09-.195a21.166 21.166 0 01-.307-.717 10.195 10.195 0 01.031-2.67c.127-.843.35-1.67.668-2.48a20.43 20.43 0 01.984-2.175c.36-.682.731-1.343 1.112-1.983a6.73 6.73 0 01.43-.608c.137-.17.28-.34.428-.511a1.9 1.9 0 01.413-.368 1.2 1.2 0 01.54-.176c.466.234.911.485 1.335.751.423.267.868.528 1.334.784l.122-.12c.039-.038.076-.073.112-.105l.052-.047c.085-.074.18-.165.286-.272.288.154.586.3.895.44l.233.104c.392.17.768.363 1.128.576.423.234.836.442 1.239.624.402.18.805.367 1.207.56.165.078.335.148.511.21l.093-.339c.127-.447.286-.895.476-1.343.19-.448.392-.906.604-1.375.101-.188.213-.362.335-.522l.094-.118c.159-.192.312-.405.46-.64a.527.527 0 01.203-.2l.052-.024a.846.846 0 00.285-.192zm-34.534.768c.339.107.667.197.985.272.317.075.614.261.89.56a6.515 6.515 0 01-.43.607c-.137.171-.28.352-.429.544-.105.17-.217.336-.333.496-.117.16-.238.336-.365.528a8.533 8.533 0 01-.226.384l-.124.191a6.982 6.982 0 00-.413.736 1.46 1.46 0 01-.143.448 4.8 4.8 0 01-.254.448c-.095.15-.19.309-.286.48-.095.17-.175.351-.238.543a6.41 6.41 0 01-.413 1.056c-.17.341-.34.704-.509 1.087l-.254.256c0 .057.003.112.007.164l.009.076c.01.075.016.176.016.304-.085.15-.212.33-.381.544a5.757 5.757 0 00-.051.307l-.013.093c-.021.16-.042.336-.063.528l-.135.092-.072.051-.238.176a.139.139 0 00-.04.13l.008.03c.064.235.106.427.127.576a.905.905 0 01-.016.384.93.93 0 01-.159.304 4.229 4.229 0 01-.333.368c.021.17.032.335.032.495 0 .16-.106.326-.318.496a3.39 3.39 0 01-.7.256 2.067 2.067 0 01-.715.046l-.11-.014a3.047 3.047 0 01-1.144-.336c-.339-.181-.656-.496-.953-.943-.19-.555-.376-1.11-.556-1.664a4.284 4.284 0 01-.206-1.663c-.106-.085-.186-.112-.239-.08a.424.424 0 00-.11.099l-.033.045a4.75 4.75 0 00-.35.544l-.317.576c-.19.447-.397.874-.62 1.279a6.466 6.466 0 01-.81 1.152 1.046 1.046 0 01-.172.03l-.05.001a.928.928 0 00-.222.032l-.274.057a6.922 6.922 0 01-.41.071 3.355 3.355 0 01-.444.032c-.138 0-.286-.02-.445-.064l-.148-.041c-.133-.04-.29-.09-.472-.15-.628-.184-1.033-.612-1.215-1.283l-.024-.093a6.118 6.118 0 01-.179-.995l-.011-.156a4.92 4.92 0 01.047-1.312c.05-.284.097-.569.142-.853l.065-.426c.254-1.77.678-3.423 1.27-4.958.128-.299.26-.576.398-.832s.312-.501.524-.736c.085 0 .175-.005.27-.016a.619.619 0 01.302.048l1 .336c.35.118.673.293.97.528a.81.81 0 01.095.192c.021.064.053.15.095.256a5.242 5.242 0 01-.317.352l-.318.32a.658.658 0 01.032.207c0 .075.02.166.063.272a42.59 42.59 0 00-.524 2c-.159.671-.26 1.38-.302 2.127l.127.192c.487-.704.943-1.424 1.366-2.16a95.47 95.47 0 001.208-2.159c.047-.176.098-.345.152-.51l.054-.161c.074-.214.143-.437.207-.672l.29-.128.139-.064c.137-.064.27-.128.397-.192l.699.256c.233.085.466.181.699.288.275.256.413.608.413 1.055 0 .356.002.709.007 1.06l.009.524c.01.522.015 1.05.015 1.583 0 .107-.005.208-.015.304a.48.48 0 00.047.272l.085.462.042.226c.043.223.096.474.16.751.105-.192.195-.389.27-.592l.206-.56c.339-.98.736-1.918 1.191-2.814.456-.896.959-1.791 1.51-2.687.169-.256.343-.512.523-.768s.366-.5.556-.735c.255-.256.562-.512.922-.768zm26.37 2.399l-.123.269a24.723 24.723 0 01-.418.883l-.115.06-.048.026-.043.025c-.053.032-.1.06-.143.08-.127.299-.244.608-.35.928-.106.32-.211.618-.317.896-.191.447-.376.9-.556 1.36-.18.458-.323.943-.43 1.454l-.126.512c-.36.832-.593 1.802-.7 2.911 0 .043.011.08.033.112.02.032.042.07.063.112l.127.064a.498.498 0 01.127.096c.487-.363.937-.73 1.35-1.104a5.85 5.85 0 001.097-1.36c.338-.554.587-1.13.746-1.726.159-.597.27-1.205.334-1.824.084-.938.084-1.695 0-2.27-.085-.576-.254-1.078-.509-1.504zm-80.348 0l-.18.393-.106.23c-.085.182-.17.358-.255.529l-.115.06-.048.026-.043.025c-.053.032-.1.06-.143.08-.095.224-.185.454-.268.69l-.082.238c-.105.32-.211.618-.317.896-.19.447-.376.9-.556 1.36-.18.458-.323.943-.43 1.454l-.126.512c-.36.832-.593 1.802-.7 2.911 0 .043.011.08.033.112.02.032.042.07.063.112l.127.064a.498.498 0 01.127.096c.487-.363.938-.73 1.35-1.104a5.85 5.85 0 001.097-1.36c.339-.554.587-1.13.746-1.726.16-.597.27-1.205.334-1.824.085-.938.085-1.695 0-2.27-.085-.576-.254-1.078-.508-1.504zm112.563.096l-.175.176a.45.45 0 00-.111.176l-.247.45-.087.158a3.071 3.071 0 00-.27.671 2.368 2.368 0 01-.254.576 2.18 2.18 0 01-.413.48 9.54 9.54 0 00-.063 1.087c0 .043.053.096.158.16.318-.32.615-.66.89-1.023a5.24 5.24 0 00.699-1.28c0-.277.016-.544.048-.8.031-.255-.027-.533-.175-.831zm-52.136 0l-.174.176a.45.45 0 00-.112.176l-.247.45-.086.158a3.071 3.071 0 00-.27.671 2.368 2.368 0 01-.254.576c-.106.17-.244.33-.414.48a9.56 9.56 0 00-.063 1.087c0 .043.053.096.159.16.318-.32.614-.66.89-1.023a5.24 5.24 0 00.698-1.28c0-.277.016-.544.048-.8.032-.255-.026-.533-.175-.831zm-26.052-2.815l-1.922 2.447a220.1 220.1 0 00-1.922 2.48v.255c.377.095.757.13 1.142.107l.145-.011a6.06 6.06 0 011.382.032c.085-.341.18-.672.286-.992l.17-.76c.027-.126.056-.25.084-.375.085-.373.18-.741.286-1.104l.17-.547.084-.268c.085-.267.159-.539.222-.816a.535.535 0 00.08-.24c.01-.096-.058-.165-.207-.208zm56.213-35.22c.265.107.526.187.784.242l.154.03c.307.053.598.165.873.336.043.042.064.085.064.128 0 .042.01.085.032.128a2.078 2.078 0 01-.223.191.878.878 0 00-.222.256.645.645 0 00-.239.24c-.052.096-.11.197-.174.304a35.723 35.723 0 00-1.382 2.015 98.524 98.524 0 00-1.287 2.08 65.01 65.01 0 01-.762 1.247 6.816 6.816 0 00-.636 1.311 2.084 2.084 0 01-.238.32 8.371 8.371 0 01-.302.32c-.042.32-.132.608-.27.864a5.54 5.54 0 01-.46.72c-.17.223-.345.447-.525.671-.18.224-.334.475-.46.752a.624.624 0 01.028.128l.003.064c0 .064.021.149.064.256a4.728 4.728 0 00-.164.422l-.043.137a7.688 7.688 0 01-.175.528c-.07.029-.14.06-.211.093l-.106.051a4.177 4.177 0 01-.318.144c.085.213.138.421.159.624a1 1 0 01-.095.56 8.154 8.154 0 00-.572 1.407c-.149.49-.307.98-.477 1.471-.08.064-.153.125-.22.183l-.066.057c-.085.075-.17.144-.254.208l.127.64a88.328 88.328 0 00-.937 3.662 39.202 39.202 0 00-.683 3.759 24.71 24.71 0 00-.473.135l-.242.073c-.244.074-.524.154-.842.24-.296 0-.63-.043-1-.128-.371-.086-.726-.31-1.065-.672a41.837 41.837 0 00-.365-1.711 22.1 22.1 0 01-.334-1.712 35.113 35.113 0 01-.206-1.775 89.217 89.217 0 01-.143-1.775c-.053-.498-.08-1-.082-1.504l.002-.303a11.35 11.35 0 00-.143-1.936c-.236.512-.449 1-.638 1.465l-.093.23a34.746 34.746 0 01-.667 1.568 12.497 12.497 0 01-.826 1.823 1.21 1.21 0 01-.254.384 5.241 5.241 0 00-.318.352c-.148.49-.307.965-.476 1.423-.17.459-.403.901-.7 1.328-.147.149-.253.33-.317.544a11.473 11.473 0 01-.953 1.455 4.553 4.553 0 01-1.334 1.135c-.17 0-.329.032-.477.096-.487.171-.948.214-1.382.128a7.2 7.2 0 01-1.35-.415c-.53-.235-.927-.555-1.192-.96a3.961 3.961 0 01-.556-1.44 11.828 11.828 0 01-.19-1.679 42.321 42.321 0 01-.032-1.647 13.459 13.459 0 01.048-2.175 47.38 47.38 0 01.27-2.111c.106-.853.222-1.685.35-2.495.126-.81.275-1.62.444-2.431.254-1.301.55-2.58.89-3.839a37.886 37.886 0 011.207-3.71c.159-.368.32-.73.485-1.086l.166-.353c.223-.47.44-.939.651-1.408a25.2 25.2 0 00.985-.767c.371.055.73.152 1.076.29l.148.061c.391.17.8.235 1.223.192.106.107.19.208.254.304.063.096.138.197.222.304l-.155.184a6.79 6.79 0 01-.147.168 3.017 3.017 0 00-.301.416 5.76 5.76 0 01-.302 1.631 58.93 58.93 0 00-.524 1.631 11.426 11.426 0 01-.43 1.568c-.18.511-.333 1.013-.46 1.503-.08.368-.156.745-.23 1.13l-.072.39a48.124 48.124 0 01-.302 1.519l-.17.974-.084.481c-.085.48-.18.965-.286 1.456l-.084.632-.085.622-.085.633a41.837 41.837 0 00-.213 1.852l-.041.467c-.064.778-.148 1.54-.254 2.287 0 .085.005.17.016.256a.32.32 0 01-.048.224c-.127.32-.164.65-.111.991.053.341.058.672.016.992l.127.064a.498.498 0 01.127.096c.36-.384.693-.805 1-1.264.308-.458.599-.911.874-1.36.805-1.45 1.573-2.905 2.304-4.365.73-1.461 1.435-2.96 2.112-4.494.22-.495.43-.997.63-1.505l.149-.383c.243-.64.503-1.28.778-1.919.085-.192.154-.394.207-.608.053-.213.1-.426.143-.64a15 15 0 01.333-.911c.117-.288.313-.56.588-.816.186.086.366.157.539.215l.128.041c.212.064.434.15.667.256.032.048.06.102.087.162l.025.062c.031.085.068.17.11.256.102.085.2.157.296.215l.07.04c.117.065.228.15.334.257.02.064.042.133.063.208a.69.69 0 01.032.176v2.638c0 .864.01 1.744.032 2.64 0 .49-.01.986-.032 1.487a8.62 8.62 0 00.095 1.615 2.6 2.6 0 01.19-.295l.033-.04a.647.647 0 00.127-.209c.145-.402.31-.78.494-1.136l.094-.175c.222-.405.418-.842.587-1.312.318-.789.71-1.588 1.176-2.399.614-1.13 1.25-2.25 1.906-3.358a84.21 84.21 0 012.033-3.263c.382-.554.768-1.093 1.16-1.615a17.12 17.12 0 011.287-1.52c.127-.17.264-.325.413-.463.148-.139.307-.283.476-.432zM80.771 70c.354.32.681.629.983.926l.177.178c.35.351.705.698 1.065 1.04.127.745.217 1.492.27 2.238a9.33 9.33 0 01-.076 2.015l-.035.224a4.046 4.046 0 00-.061.584l-.003.152c0 .256-.021.512-.063.768-.022.447-.075.9-.16 1.359-.084.458-.18.912-.285 1.36-.17.703-.318 1.418-.445 2.143a15.11 15.11 0 01-.54 2.143l-.223.744-.143.471c-.116.384-.259.778-.428 1.184a1.287 1.287 0 01-.191.4c-.085.117-.18.271-.286.463a.86.86 0 01-.014.128l-.018.096a2.207 2.207 0 00-.032.416c-.084.213-.18.426-.285.64a3.473 3.473 0 00-.255.703 6.673 6.673 0 01-.953 1.92 11.67 11.67 0 00-.635 1.12 4.05 4.05 0 01-.763 1.055 1.45 1.45 0 00-.335.533l-.03.09c-.074.246-.249.422-.524.528-.297.32-.63.576-1.001.768-.37.192-.736.416-1.096.672-.305 0-.617.01-.935.03l-.24.018a14.84 14.84 0 01-1.176.048 4.065 4.065 0 01-1.763-.384 9.11 9.11 0 01-1.541-.928 4.298 4.298 0 01-.254-.624 11.29 11.29 0 00-.191-.56 8.801 8.801 0 00-.092-.376l-.051-.183A6.933 6.933 0 0168 93.51a4.52 4.52 0 00.205-.22l.097-.116a4.58 4.58 0 01.302-.336l.526.251c.259.123.513.242.76.357.413.192.821.395 1.224.608.296-.17.545-.368.746-.592a6.04 6.04 0 00.588-.784c.53-.703 1-1.444 1.414-2.223.413-.778.8-1.562 1.16-2.35a44.275 44.275 0 001.508-3.839c.435-1.28.832-2.59 1.192-3.934.233-.81.455-1.637.667-2.48.212-.842.413-1.668.604-2.478a.741.741 0 00.063-.256v-.256c-.173-.078-.294-.076-.362.005l-.02.027a.733.733 0 01-.253.256c-.19.106-.403.245-.636.416-.07.042-.143.083-.219.12l-.114.056a3.85 3.85 0 00-.43.24 2.895 2.895 0 01-.428.575c-.18.192-.376.373-.588.544-.445.426-.842.88-1.191 1.36-.35.48-.704.975-1.065 1.487-.508.66-.857 1.471-1.048 2.43l.127.385c.042.128.095.277.159.447a1.257 1.257 0 00-.078.135l-.033.073a1.292 1.292 0 01-.111.208H71.43l-.269-.088a9.88 9.88 0 01-.859-.328 4.45 4.45 0 01-.746-.415 2.318 2.318 0 01-.54-.528 6.5 6.5 0 01-.477-.784c-.127-.96.01-1.887.413-2.783.212-.447.418-.89.62-1.327.2-.437.492-.816.873-1.136a6.986 6.986 0 011.922-1.983 144.95 144.95 0 012.304-1.535 11.4 11.4 0 012.192-1.216 32.808 32.808 0 011.922-.767l.783-.287c.395-.146.796-.295 1.203-.449zm49.182 1.727c.237.222.484.43.742.625l.195.143c.328.235.651.49.969.768a1 1 0 01.224.256l.046.08c.074.138.164.26.27.367a14.537 14.537 0 00.064 1.312.794.794 0 00.587-.032 1.22 1.22 0 01.525-.128 6.73 6.73 0 001.175-.096l.192-.018a19.9 19.9 0 01.92-1.677c.19-.278.402-.528.635-.752.233-.224.53-.39.89-.496.085.043.18.08.286.112a.67.67 0 01.286.176 24 24 0 00.937.704c.328.234.599.533.81.895l-.036.173a3.72 3.72 0 01-.09.34c-.128.271-.246.546-.355.824l-.106.279-.13.345c.11.196.2.417.273.662-.23.168-.444.27-.643.303l.07-.207a55.923 55.923 0 00-.825 2.575c-.255.864-.52 1.733-.795 2.607l-.572 1.92c-.19.639-.38 1.268-.571 1.886-.127.427-.25.848-.366 1.264-.116.416-.227.837-.333 1.263a.697.697 0 00-.016.256c.01.086.016.181.016.288a7.64 7.64 0 001.08-1.343 79.136 79.136 0 014.352-5.246l.227-.264c.077-.09.155-.184.234-.28.159-.192.376-.33.651-.416.36.17.715.368 1.065.592.35.224.704.41 1.064.56.17.17.275.346.318.528.042.18.074.357.095.527 0 .406-.037.795-.111 1.168-.056.28-.12.557-.194.83l-.373 1.333-.148.524a37.56 37.56 0 01-.477 1.551 1.492 1.492 0 00-.031.288c0 .085.031.181.095.288a.871.871 0 01.122-.048l.053-.016a.395.395 0 00.174-.096 99.47 99.47 0 012.13-2.143c.126-.128.253-.23.38-.304l.027-.017c.138-.48.288-.954.45-1.422a16.702 16.702 0 011.62-3.375c.403-.597.79-1.029 1.16-1.295.37-.267.746-.406 1.128-.416.381-.011.783.069 1.207.24.424.17.89.394 1.398.671.593.299 1.032.688 1.318 1.168.286.48.482 1.029.588 1.647v.352c0 .128-.01.235-.032.32-.148.49-.312.97-.492 1.44-.18.468-.45.895-.81 1.279a30.869 30.869 0 00-1.523 1.59l-.288.329a25.314 25.314 0 01-1.811 1.887 3.18 3.18 0 00-.318.288 8.521 8.521 0 00-.08.896c-.01.298-.015.607-.015.927l.138-.03c.211-.051.335-.094.37-.13a7.169 7.169 0 001.335-.975 14.46 14.46 0 001.175-1.232 24.765 24.765 0 001.477-1.903c.456-.65.916-1.327 1.382-2.031l.382-.576.187.041c.177.04.324.074.44.104l.056.015c.159.043.296.085.413.128.116.043.217.096.302.16l.111.087c.061.049.13.105.206.169a1.135 1.135 0 01-.19.352c-.085.106-.117.256-.096.447.022.107-.015.23-.11.368a6.662 6.662 0 01-.27.368 45.743 45.743 0 01-3.369 4.606c-.233.235-.466.459-.698.672l-.7.64-.166.104a3.49 3.49 0 01-.405.216 8.271 8.271 0 01-2.065.303c-.678.011-1.356-.165-2.034-.527-1.101-.576-1.758-1.482-1.97-2.72a7.374 7.374 0 01-.095-1.519l.012-.166c-.16.156-.323.313-.488.47-.36.299-.71.603-1.049.912-.339.31-.656.645-.953 1.007-.19.214-.381.448-.572.704-.19.256-.381.523-.572.8a3.665 3.665 0 01-.879.057l-.106-.01a2.881 2.881 0 00-.286-.015 2.71 2.71 0 01-.668-.341l-.078-.059a3.594 3.594 0 00-.62-.4 3.123 3.123 0 01-.063-1.071c.042-.33.074-.656.095-.976.028-.199.059-.4.092-.604l.051-.308c.035-.206.068-.41.099-.61l.044-.301c.042-.32.106-.635.19-.944a4.81 4.81 0 00.16-.975.329.329 0 01-.133.02l-.026-.004c-.043-.011-.074-.006-.096.016a2.244 2.244 0 00-.158.32.582.582 0 01-.191.255 5.43 5.43 0 00-.778.992c-.223.362-.45.725-.684 1.087l-.515.798-.505.778c-.114.176-.23.354-.346.536a21.4 21.4 0 00-.497.662l-.154.217c-.201.288-.408.57-.62.848a1.697 1.697 0 01-.277.069l-.088.01a1.201 1.201 0 00-.333.08c-.106.107-.16.214-.16.32 0 .107-.02.225-.063.352-.113.029-.228.06-.346.093l-.407.118c-.12.035-.25.071-.39.11-.17-.086-.34-.169-.509-.25l-.254-.118c-.254-.118-.508-.24-.763-.368a4.385 4.385 0 00-.174-.112.74.74 0 01-.143-.112 2.793 2.793 0 01-.334-.944 5.973 5.973 0 01-.08-.943c0-.747.043-1.466.128-2.16.084-.693.18-1.38.286-2.063.148-1.151.339-2.276.572-3.374.233-1.098.497-2.202.794-3.31.39-1.373.86-2.716 1.412-4.028a24.78 24.78 0 00-.523.109c-.338.074-.688.133-1.048.176a.892.892 0 01-.286.016 3.985 3.985 0 01-.286-.048c-.063.106-.132.218-.206.336a1.97 1.97 0 00-.175.335l-.127.448a13.5 13.5 0 00-.127.48c-.19.79-.371 1.573-.54 2.351-.17.778-.36 1.54-.572 2.287a20.59 20.59 0 00-.366 1.615 36.79 36.79 0 01-.333 1.616 24.955 24.955 0 00-.27 1.551 9.233 9.233 0 01-.334 1.487c-.088.303-.15.608-.187.918l-.02.186a7.72 7.72 0 01-.174 1.104c-.064.32-.117.65-.159.991-.042.341-.085.714-.127 1.12-.17.064-.339.117-.508.16-.17.042-.35.085-.54.128a4.747 4.747 0 01-.906-.448 14.67 14.67 0 01-.937-.64 41.877 41.877 0 01-.159-1.695 9.8 9.8 0 01.032-1.76l.212-1.869.105-.93c.106-.927.255-1.87.445-2.83.127-.832.28-1.663.46-2.495.18-.832.356-1.653.525-2.463l.095-.576a.731.731 0 01-.077-.092l-.034-.052a.743.743 0 00-.111-.144.3.3 0 01-.122.02l-.02-.004c-.033-.01-.06-.005-.08.016-.297.277-.593.464-.89.56a6.277 6.277 0 00-.89.368c-.232.106-.45.128-.65.064a5.301 5.301 0 00-.652-.16 4.42 4.42 0 01-.667-.608 3.148 3.148 0 01-.54-.863c0-.256.058-.443.174-.56.117-.118.239-.208.366-.272.226-.071.45-.14.67-.206l.33-.098a51.17 51.17 0 001.001-.304c.325-.07.652-.14.982-.206l.496-.098c.497-.096 1-.197 1.509-.304a6.51 6.51 0 00.222-.495c.064-.16.127-.326.19-.496l.224-.504.214-.49.103-.238c.17-.394.35-.805.54-1.231l.159-.32c.042-.085.09-.16.143-.224a1.99 1.99 0 01.206-.208c.085-.074.201-.165.35-.272zM103.9 80.316c.148.01.275.037.381.08l.67.213.33.106c.33.107.694.235 1.097.384a3.9 3.9 0 00.183.226l.055.062c.096.107.186.213.27.32 0 .107.006.208.016.304a.995.995 0 01-.016.304l-.254 1.203-.254 1.18a14.59 14.59 0 01-.699 2.287c-.085.32-.117.618-.095.895-.191.128-.212.192-.064.192.016 0 .029-.009.039-.027l.009-.02a.315.315 0 01.08-.113c.079-.08.161-.15.246-.212l.087-.06c.116-.074.227-.165.333-.271a56.16 56.16 0 014.17-4.061l.405-.353c.34-.299.683-.587 1.033-.864.35-.277.704-.565 1.064-.864.043 0 .1-.005.175-.016a.443.443 0 01.206.016c.445.107.89.224 1.335.352.445.128.868.245 1.27.352.17.17.292.346.366.528.074.181.111.362.111.544 0 .18-.01.357-.032.527l-.063.512c-.127.363-.244.714-.35 1.056-.105.34-.233.682-.38 1.023a26.2 26.2 0 00-.303.976c-.095.33-.206.656-.333.975-.033.133-.073.31-.118.534l-.041.202c-.048.24-.098.486-.152.738l-.055.254a58.25 58.25 0 00-.157.75l-.136.673c-.027.128-.05.24-.072.336.127-.043.334-.219.62-.528.286-.31.587-.656.905-1.04l.309-.376c.15-.185.293-.364.43-.539l.659-.844.635-.767c.071-.071.144-.143.22-.214l.114-.106c.116-.107.228-.213.334-.32.169-.017.325-.03.467-.041l.104-.007c.17-.01.36-.027.572-.048.029.043.061.085.1.128l.06.064c.063.064.116.128.158.192l.048.152c.01.037.016.061.016.072.063.384-.043.682-.318.895-.254.235-.477.48-.667.736-.191.256-.382.522-.572.8l-.189.26a53.08 53.08 0 01-1.384 1.804c-.291.363-.564.713-.818 1.047l-.605.808a16.16 16.16 0 00-.15.207c-.127.17-.254.282-.38.336-.085.035-.17.069-.255.1l-.127.044a2.234 2.234 0 00-.365.16c-.117.064-.217.192-.302.384a.427.427 0 01-.08.111l-.11.112c-.234-.02-.462-.037-.684-.048a5.167 5.167 0 01-.683-.08 15.165 15.165 0 01-1-.223c-.329-.086-.63-.288-.906-.608a14.539 14.539 0 00-.132-.85l-.043-.222a14.009 14.009 0 01-.175-1.103 3.088 3.088 0 01-.045-.882l.014-.142c.042-.448.09-.917.143-1.407.052-.49.1-.992.142-1.504.022-.106.038-.234.048-.383a.534.534 0 00-.111-.384c-.064 0-.095.01-.095.032-.36.362-.705.73-1.033 1.103-.328.373-.651.752-.969 1.136-.07.07-.136.142-.198.213l-.088.107c-.085.106-.18.213-.286.32-.24.298-.48.599-.72.902l-.36.457c-.36.458-.72.912-1.08 1.36a.605.605 0 01-.223.271c-.105.075-.2.144-.286.208-.169.064-.333.123-.492.176l-.429.144a2.48 2.48 0 00-.077.222l-.018.066c-.021.085-.053.17-.095.256a1.15 1.15 0 01-.2.078l-.07.018a1.954 1.954 0 00-.302.096 1.639 1.639 0 00-.302.16 7.502 7.502 0 01-.302.192 4.63 4.63 0 00-.651-.208 15.395 15.395 0 01-.667-.176 3.754 3.754 0 01-.652-.256 1.45 1.45 0 01-.54-.48 4.237 4.237 0 01-.238-1.295c-.01-.438.005-.901.047-1.392.057-.429.122-.854.193-1.274l-.39.499a159.6 159.6 0 01-.31.391l-.147.182a7.512 7.512 0 01-.457.522.391.391 0 01-.087.069l-.025.011c-.031.01-.058.037-.08.08a3.332 3.332 0 01-.714 1.072 6.143 6.143 0 00-.81 1.007c-.148.17-.302.336-.46.496l-.493.496a4.22 4.22 0 01-1.525-.08 2.63 2.63 0 01-1.24-.72 2.78 2.78 0 01-.222-.896 6.777 6.777 0 010-.927c.106-.96.265-1.903.477-2.831.176-.773.375-1.55.596-2.33l.135-.469.029-.094a9.302 9.302 0 01-.522-.114 5.91 5.91 0 01-1.128-.4c-.127.086-.196.176-.206.272a2.94 2.94 0 00-.016.304c.021.427.016.858-.016 1.296a6.61 6.61 0 01-.238 1.327c-.106.17-.217.341-.334.512-.116.17-.228.373-.333.608 0 .064.005.133.015.207.011.075.027.166.048.272-.085.154-.156.31-.213.471l-.041.121c-.064.203-.148.39-.254.56-.297.405-.588.816-.874 1.231a6.062 6.062 0 01-.969 1.104c-1.483 1.173-3.092 1.418-4.829.736a3.3 3.3 0 01-.285-.133l-.08-.043a3.626 3.626 0 00-.366-.176 14.494 14.494 0 01-.746-.512 2.799 2.799 0 01-.509-.48 3.127 3.127 0 01-.381-.624l-.09-.194a21.165 21.165 0 01-.307-.717 10.195 10.195 0 01.032-2.671c.127-.842.35-1.669.667-2.479a20.43 20.43 0 01.985-2.175c.36-.682.73-1.344 1.112-1.983.148-.235.291-.437.429-.608.137-.17.28-.341.429-.512a1.9 1.9 0 01.413-.368 1.2 1.2 0 01.54-.176c.466.235.91.486 1.334.752.424.267.868.528 1.334.784.085-.086.163-.16.234-.225l.052-.047a5.93 5.93 0 00.286-.272c.36.192.736.373 1.128.544.392.17.768.362 1.128.576.424.234.837.442 1.239.623.402.182.805.368 1.207.56.236.112.482.207.74.287a19.8 19.8 0 01.817-1.726 3.58 3.58 0 01.445-.768l.524-.176c.159-.053.323-.101.493-.144.079.032.155.058.229.078l.072.018c.072.016.14.038.206.066l.064.03c.187.085.36.17.519.256l.117.064a8.7 8.7 0 00.635.32c.028.042.057.087.085.135l.042.073a.835.835 0 00.127.176c0 .426-.095.794-.286 1.103-.166.27-.284.562-.354.873l-.027.135a6.026 6.026 0 01-.27 1.023c-.116.32-.228.661-.333 1.024-.08.256-.156.506-.23.75l-.22.73-.154.503c-.106.299-.233.618-.381.96-.149.34-.212.735-.191 1.183.275-.277.583-.645.921-1.103l.78-1.05.906-1.204.411-.545c.34-.448.646-.81.922-1.088.02-.062.037-.128.052-.194l.138-.573c.148-.64.344-1.253.588-1.84a29.02 29.02 0 01.81-1.775 4.39 4.39 0 01.508-.832 1.5 1.5 0 01.223-.287l.222-.224a.915.915 0 01.477-.112zm125.684-9.228c.424.255.848.506 1.271.751.424.245.805.581 1.144 1.008a3.797 3.797 0 01-.254 1.007 2.12 2.12 0 01-.604.816 2.84 2.84 0 010 .848 7.33 7.33 0 01-.19.847 773.723 773.723 0 01-.842 3.295 110.884 110.884 0 00-.81 3.359 350.905 350.905 0 01-.842 3.566 82.256 82.256 0 00-.779 3.567c-.08.463-.153.921-.22 1.373l-.066.45c-.084.597-.18 1.183-.286 1.759a2.582 2.582 0 00-.02.389l.013.25c.005.114.007.242.007.385l-.172.028a3.167 3.167 0 00-.431.1.894.894 0 00-.27.095 4.864 4.864 0 01-.239.128 4.586 4.586 0 00-.372-.078l-.12-.018a4.44 4.44 0 01-.493-.095 3.684 3.684 0 01-.294-.114l-.26-.118a6.54 6.54 0 00-.208-.088 1.653 1.653 0 01-.302-.592c-.053-.203-.08-.4-.08-.592-.02-.448-.031-.89-.031-1.327v-1.328c0-.085-.005-.17-.016-.256a.762.762 0 00-.111-.288c-.19.107-.275.246-.254.416a.773.773 0 01-.127.512c-.106.128-.212.25-.318.368a3.39 3.39 0 01-.35.336c.022.17.016.336-.015.496-.032.16-.101.325-.207.495-.148.192-.296.39-.445.592-.148.203-.317.39-.508.56-.212.17-.45.293-.715.368a2.306 2.306 0 01-.81.08 4.535 4.535 0 01-1.35-.256 2.425 2.425 0 01-1.065-.768 3.558 3.558 0 01-.333-.975 5.775 5.775 0 01-.08-.976c0-.554.027-1.104.08-1.647l.059-.588-.237.268a57.242 57.242 0 00-1.3 1.535 63.043 63.043 0 00-1.874 2.415 3.04 3.04 0 00-.46.608l-.174.292-.287.476a.217.217 0 01-.218-.008l-.037-.024a.568.568 0 00-.349-.096 3.631 3.631 0 00-.297.1l-.148.06a3.129 3.129 0 01-.476.16 1.19 1.19 0 00-.239-.07l-.08-.01a1.128 1.128 0 01-.237-.051l-.08-.03c-.508-.17-.91-.437-1.207-.8a2.98 2.98 0 01-.604-1.279 7.373 7.373 0 01-.19-1.359 9.151 9.151 0 01.031-1.327c.034-.41.082-.816.143-1.219l.009-.057a16.552 16.552 0 01-2.01 1.74c-.456.33-.863.538-1.223.623a4.505 4.505 0 01-.652-.096 2.732 2.732 0 01-.54-.192 6.685 6.685 0 01-.587-.32 13.62 13.62 0 01-.731-.48 4.478 4.478 0 01-.143-1.79c.074-.598.164-1.174.27-1.728-.085-.064-.154-.096-.207-.096a.407.407 0 00-.106.014l-.052.018a.388.388 0 01-.143.032c-.043 0-.085-.021-.128-.064-.127.363-.28.661-.46.896-.18.234-.366.469-.556.703a49.53 49.53 0 00-1.716 2.223 23.93 23.93 0 00-1.525 2.383c-.148.15-.265.31-.35.48a.791.791 0 01-.27.08c-.095.01-.206.038-.333.08-.042.043-.095.16-.159.352.043.107.08.213.111.32l.052.168c.019.058.038.12.06.184-.17.042-.329.08-.477.112a.9.9 0 01-.445-.016 2.904 2.904 0 01-1.143-.496c-.34-.245-.594-.613-.763-1.104a3.163 3.163 0 01-.08-1.231c.054-.437.101-.87.144-1.296l.158-.915c.053-.301.106-.599.16-.892.105-.586.222-1.178.349-1.775l.125-.569a5.91 5.91 0 01-1.364-.455c-.127.086-.196.176-.207.272a2.94 2.94 0 00-.016.304c.022.427.016.858-.016 1.296a6.61 6.61 0 01-.238 1.327c-.106.17-.217.341-.333.512-.117.17-.228.373-.334.608 0 .064.005.133.016.207.01.075.026.166.048.272-.085.154-.156.31-.214.471l-.04.121a2.44 2.44 0 01-.255.56c-.296.405-.588.816-.874 1.231a6.062 6.062 0 01-.969 1.104c-1.482 1.173-3.092 1.418-4.829.736a3.3 3.3 0 01-.284-.133l-.081-.043a3.626 3.626 0 00-.365-.176 14.494 14.494 0 01-.747-.512c-.201-.15-.37-.31-.508-.48a3.127 3.127 0 01-.382-.624l-.09-.194a21.166 21.166 0 01-.307-.717 10.195 10.195 0 01.032-2.671c.127-.842.35-1.669.667-2.479a20.43 20.43 0 01.985-2.175c.36-.682.73-1.344 1.112-1.983.148-.235.291-.437.429-.608.138-.17.28-.341.429-.512a1.9 1.9 0 01.413-.368 1.2 1.2 0 01.54-.176c.373.188.732.386 1.078.594l.256.158c.424.267.869.528 1.335.784.085-.086.162-.16.234-.225l.052-.047c.084-.075.18-.165.286-.272.288.154.586.3.894.44l.234.104c.391.17.767.362 1.127.576.424.234.837.442 1.24.623.402.182.804.368 1.207.56.105.05.212.096.322.14l-.003.007.047-.15a11.8 11.8 0 01.65-1.596 5.46 5.46 0 01.35-.656 3.66 3.66 0 01.508-.624c.106 0 .19-.01.254-.032.064-.021.149-.01.255.032.335.16.674.298 1.017.413l.206.067c.413.128.8.31 1.16.544.232.256.285.522.158.8-.085.298-.175.602-.27.911-.095.31-.249.592-.46.848a1.16 1.16 0 01-.162.678l-.045.073a1.095 1.095 0 00-.175.784c.17 0 .28-.043.334-.128a3.66 3.66 0 01.175-.256c.105-.085.2-.176.285-.272.085-.096.18-.197.286-.304.127-.17.286-.32.477-.447l.1-.104.106-.12c.056-.064.12-.128.194-.192l.077-.064c.084-.068.155-.137.213-.205l.04-.051a1.81 1.81 0 01.287-.288.783.783 0 01.206-.24l.097-.071.173-.137.174-.142.096-.082c.074-.064.154-.128.238-.192.08-.063.15-.127.212-.191l.059-.064a.789.789 0 01.238-.192c.08-.08.162-.151.247-.213l.086-.06a1.61 1.61 0 00.27-.207c.106-.085.207-.16.302-.224.096-.064.196-.128.302-.192.318.178.65.333.997.467l.21.077c.424.15.816.32 1.176.512.233.255.339.506.318.751-.022.246.01.485.095.72-.127.384-.26.765-.4 1.142l-.14.377c-.19.501-.37 1.03-.54 1.584a2.74 2.74 0 01-.172.47l-.05.105a4.298 4.298 0 00-.255.624 1.74 1.74 0 00-.095.496c0 .128.085.181.254.16.085-.021.302-.17.651-.448.35-.277.72-.592 1.112-.944.392-.351.763-.698 1.112-1.04l.119-.118.048-.408c.095-.75.215-1.496.357-2.24.191-.992.403-1.978.636-2.959a26.53 26.53 0 013.082-7.58 6.14 6.14 0 01.238-.357l.08-.107c.105-.139.211-.283.317-.432a1.64 1.64 0 01.207-.176l.155-.114.083-.062 1.01.299.499.149c.498.15.99.33 1.477.544.048.128.096.247.143.356l.048.107c.063.139.138.294.222.464l-.254 1.012-.127.497-.127.49a50.18 50.18 0 00-.477 2c-.105.55-.237 1.098-.395 1.641l-.097.326c-.201.65-.365 1.306-.492 1.967a1.81 1.81 0 01-.153.4l-.054.096c-.095.16-.185.346-.27.56l.064.191a91.325 91.325 0 00-1.144 4.606 46.842 46.842 0 00-.413 1.52l-.254.995-.128.492a1.083 1.083 0 00-.015.32c.01.107.015.213.015.32.128 0 .223-.043.286-.128.064-.085.128-.16.191-.224.275-.32.53-.634.763-.944a8.54 8.54 0 01.762-.88c.233-.32.492-.623.778-.91.286-.289.578-.56.874-.816.092-.13.204-.232.336-.305.08-.486.17-.966.268-1.439a31.56 31.56 0 01.508-2.095c.106-.362.233-.72.381-1.071.149-.352.34-.688.572-1.008.17-.299.36-.544.572-.736.212-.192.477-.34.794-.447.085-.022.17-.048.255-.08l.091-.036.1-.044c.296-.043.576-.043.841 0 .265.042.535.106.81.192.288.136.586.255.895.358l.233.073c.392.118.768.262 1.128.432.17-.128.27-.256.302-.384l.11-.447a38.123 38.123 0 011.113-4.127c.233-.746.492-1.476.778-2.19.286-.715.63-1.403 1.033-2.064.17-.256.344-.49.524-.704.18-.213.44-.384.778-.511zm-38.887 11.707l-.179.393-.107.23c-.084.182-.17.358-.254.528l-.115.06-.049.027-.042.025a2.107 2.107 0 01-.143.08c-.096.224-.185.454-.268.69l-.082.238c-.106.32-.212.618-.318.895-.19.448-.376.901-.556 1.36-.18.458-.323.943-.428 1.455l-.128.512c-.36.832-.593 1.802-.699 2.91 0 .043.011.08.032.113.021.032.043.069.064.112l.127.064a.498.498 0 01.127.095c.487-.362.937-.73 1.35-1.103a5.85 5.85 0 001.096-1.36c.34-.554.588-1.13.747-1.727.159-.597.27-1.205.334-1.823.084-.938.084-1.695 0-2.271-.085-.576-.255-1.077-.509-1.503zm-101.475 0l-.18.393-.106.23c-.085.182-.17.358-.254.528l-.115.06a2.71 2.71 0 00-.05.027l-.042.025a1.89 1.89 0 01-.143.08c-.095.224-.184.454-.268.69l-.081.238c-.106.32-.212.618-.318.895-.19.448-.376.901-.556 1.36-.18.458-.323.943-.429 1.455l-.127.512c-.36.832-.593 1.802-.699 2.91 0 .043.01.08.032.113.021.032.042.069.063.112l.127.064a.498.498 0 01.128.095c.487-.362.937-.73 1.35-1.103a5.85 5.85 0 001.096-1.36c.339-.554.588-1.13.747-1.727.158-.597.27-1.205.333-1.823.085-.938.085-1.695 0-2.271-.085-.576-.254-1.077-.508-1.503zm134.04.415a4.1 4.1 0 00-.212.093l-.106.051a4.177 4.177 0 01-.317.144c-.17.441-.342.882-.516 1.322l-.263.661a131.64 131.64 0 00-.81 2.08v.4c0 .127-.013.266-.04.414l-.023.113a2.451 2.451 0 01-.112.416 1.43 1.43 0 00-.079.48.94.94 0 01-.127.432c-.085.16-.064.346.063.56.297-.47.572-.944.826-1.424.255-.48.509-.965.763-1.455.2-.42.434-.83.704-1.226l.138-.198c.328-.458.609-.954.842-1.487a9.725 9.725 0 01-.22-.423l-.066-.137a9.397 9.397 0 00-.286-.56l-.064-.128a.501.501 0 00-.095-.128zm-70.88-.32l-.175.176a.45.45 0 00-.111.176l-.247.45-.087.158a3.071 3.071 0 00-.27.672 2.368 2.368 0 01-.254.576c-.106.17-.244.33-.413.48a9.531 9.531 0 00-.064 1.087c0 .043.053.096.16.16.317-.32.614-.661.889-1.024a5.24 5.24 0 00.699-1.28c0-.276.016-.543.048-.799.031-.256-.027-.533-.175-.831zm-54.487-5.053c.381.234.768.432 1.16.591.392.16.736.422 1.032.784a6.421 6.421 0 00-.063.832c-.17.234-.366.373-.588.416l-.345.064-.37.064a2.35 2.35 0 01-.842-.448 8.005 8.005 0 01-.683-.672c0-.107-.01-.213-.032-.32l-.063-.32c.17-.405.434-.735.794-.991z" id="path-2"/></defs><g id="Careers" stroke="none" stroke-width="1" fill="none" fill-rule="evenodd"><g id="Mobile" transform="translate(-10 -65)"><g id="Group" transform="translate(10 65)"><path d="M228.005 33.97c1.785 0 3.451.177 4.999.533 1.547.355 2.88.865 3.999 1.53l-2.571 5.054a12.018 12.018 0 00-3.231-1.358 14.21 14.21 0 00-3.625-.464c-1.404 0-2.505.217-3.303.653-.797.435-1.196.997-1.196 1.685 0 .596.345 1.054 1.036 1.375.69.32 1.761.665 3.213 1.031 1.619.39 2.958.791 4.017 1.204a7.074 7.074 0 012.732 1.89c.762.849 1.143 1.96 1.143 3.336 0 1.696-.494 3.192-1.482 4.487s-2.393 2.298-4.214 3.008c-1.82.71-3.934 1.066-6.338 1.066-2.07 0-4.035-.24-5.892-.722-1.856-.481-3.368-1.1-4.535-1.857l2.786-5.088c1.261.78 2.606 1.37 4.035 1.77 1.428.402 2.856.602 4.285.602 1.356 0 2.41-.189 3.16-.567.75-.378 1.124-.9 1.124-1.565 0-.573-.339-1.02-1.017-1.34-.679-.321-1.732-.665-3.16-1.032-1.62-.413-2.964-.83-4.035-1.255a7.2 7.2 0 01-2.768-1.943c-.773-.87-1.16-2.017-1.16-3.438 0-1.719.488-3.226 1.464-4.521s2.368-2.298 4.178-3.008c1.809-.711 3.928-1.066 6.356-1.066zm-152.222 0c2.309 0 4.356.395 6.141 1.186 1.786.79 3.119 1.908 4 3.352l-5.106 3.92c-1.215-1.88-3.048-2.82-5.5-2.82-1.594 0-2.999.361-4.213 1.083a7.532 7.532 0 00-2.839 2.992c-.678 1.272-1.017 2.699-1.017 4.28 0 1.628.547 2.934 1.642 3.92 1.095.985 2.583 1.478 4.464 1.478 2.38 0 4.415-.928 6.106-2.785l4.177 3.954c-1.356 1.582-2.94 2.722-4.749 3.421-1.809.7-3.88 1.049-6.213 1.049-2.523 0-4.737-.441-6.641-1.324-1.905-.882-3.369-2.126-4.392-3.73-1.024-1.605-1.536-3.45-1.536-5.536 0-2.75.66-5.226 1.982-7.426 1.321-2.2 3.172-3.92 5.552-5.158 2.38-1.237 5.095-1.856 8.142-1.856zm127.333.481c3.19 0 5.666.676 7.428 2.029 1.761 1.352 2.642 3.232 2.642 5.638 0 2.2-.607 4.098-1.821 5.69-1.214 1.594-2.916 2.757-5.106 3.49l4.249 7.22h-7.392l-3.713-6.394h-3.571l-1.321 6.395h-7.07l4.999-24.068h10.676zm-15.104 0l-1.107 5.26H174.3l-.821 4.058h11.105l-1.035 5.088h-11.141l-.893 4.401h13.105l-1.143 5.26h-20.032l5-24.067h19.567zm-23.996 0l-1.106 5.26h-12.605l-.822 4.058h11.106l-1.036 5.088h-11.14l-.893 4.401h13.104l-1.142 5.26H139.45l4.999-24.067h19.567zm-35.314 0c3.19 0 5.665.676 7.427 2.029 1.761 1.352 2.642 3.232 2.642 5.638 0 2.2-.607 4.098-1.821 5.69-1.214 1.594-2.916 2.757-5.106 3.49l4.25 7.22h-7.392l-3.714-6.394h-3.57l-1.322 6.395h-7.07l4.999-24.068h10.677zm-23.746 0l6.035 24.068h-7.035l-1-4.676h-10.64l-2.893 4.676H81.96L97.993 34.45h6.963zm-4.75 6.567l-4.784 7.805h6.463l-1.678-7.805zm101.91-1.203h-3.713l-1.5 7.048h4.214c1.57 0 2.785-.355 3.642-1.066.857-.71 1.285-1.719 1.285-3.025 0-.986-.345-1.725-1.035-2.218-.69-.493-1.655-.74-2.892-.74zm-74.414 0h-3.714l-1.5 7.048h4.214c1.571 0 2.785-.355 3.642-1.066.857-.71 1.286-1.719 1.286-3.025 0-.986-.346-1.725-1.036-2.218-.69-.493-1.654-.74-2.892-.74zM247.859 0c2.31 0 4.356.395 6.142 1.186 1.785.791 3.118 1.908 3.999 3.352l-5.106 3.92c-1.214-1.88-3.047-2.82-5.5-2.82-1.594 0-2.999.362-4.213 1.084a7.532 7.532 0 00-2.838 2.991c-.679 1.272-1.018 2.699-1.018 4.28 0 1.628.547 2.935 1.642 3.92 1.095.986 2.583 1.479 4.464 1.479 2.38 0 4.416-.929 6.106-2.785l4.178 3.954c-1.357 1.581-2.94 2.722-4.75 3.42-1.809.7-3.88 1.05-6.213 1.05-2.523 0-4.737-.442-6.641-1.324-1.905-.883-3.369-2.126-4.392-3.73-1.024-1.605-1.536-3.45-1.536-5.536 0-2.751.66-5.227 1.982-7.427 1.321-2.2 3.172-3.92 5.553-5.157C242.098.619 244.812 0 247.859 0zM82.314.481l-2.75 13.238a9.357 9.357 0 00-.214 1.89c0 2.522 1.381 3.783 4.143 3.783 1.5 0 2.684-.442 3.552-1.324.87-.883 1.518-2.332 1.947-4.35L91.74.482h6.963l-2.82 13.65c-1.524 7.266-5.94 10.9-13.248 10.9-2.167 0-4.035-.35-5.607-1.05-1.57-.698-2.773-1.701-3.606-3.008-.833-1.306-1.25-2.842-1.25-4.607 0-.734.095-1.582.286-2.544L75.244.482h7.07zm148.762 0l-4.999 24.068h-7.07l5-24.068h7.07zm-22.46 0c3.238 0 5.737.677 7.499 2.029 1.761 1.352 2.642 3.255 2.642 5.707 0 2.017-.506 3.782-1.517 5.295-1.012 1.513-2.452 2.682-4.321 3.507-1.869.825-4.04 1.238-6.517 1.238h-4.999l-1.285 6.292h-7.07L198.047.481h10.57zm-14.997 0l-1.107 5.26h-12.605l-.821 4.058h11.105l-1.035 5.089h-11.141l-.893 4.4h13.105l-1.143 5.261h-20.032l5-24.068h19.567zm-45.353 0c2.571 0 4.797.407 6.678 1.22 1.88.815 3.326 1.984 4.338 3.508s1.518 3.318 1.518 5.38c0 2.797-.66 5.25-1.982 7.359-1.321 2.108-3.16 3.736-5.517 4.882-2.357 1.146-5.058 1.719-8.106 1.719h-12.783l5-24.068h10.854zm-25.566 0l-3.857 18.67h11.927l-1.143 5.398H110.63l5-24.068h7.07zm-12.105 0l-5 24.068h-7.07l5-24.068h7.07zm-49.955 0c2.809 0 4.957.487 6.445 1.462 1.488.974 2.232 2.366 2.232 4.177 0 1.398-.393 2.607-1.179 3.627-.785 1.02-1.88 1.817-3.285 2.39 1.071.458 1.899 1.094 2.482 1.908.583.814.875 1.77.875 2.871 0 2.499-1.06 4.395-3.178 5.69-2.119 1.295-4.88 1.943-8.285 1.943H43L48 .481h12.64zM58.247 14.75h-6.249l-1 4.882h6.142c1.262 0 2.25-.24 2.964-.722.714-.481 1.071-1.192 1.071-2.131 0-.688-.262-1.198-.785-1.53-.524-.333-1.238-.499-2.143-.499zm89.234-8.836h-4.142l-2.714 13.203h4.785c1.714 0 3.196-.35 4.445-1.05 1.25-.698 2.196-1.66 2.839-2.887.643-1.227.964-2.619.964-4.178 0-1.627-.524-2.882-1.571-3.765-1.047-.882-2.583-1.323-4.606-1.323zm60.207-.069h-3.714l-1.464 7.048h4.214c1.57 0 2.779-.355 3.624-1.065.845-.711 1.268-1.72 1.268-3.026 0-.986-.34-1.725-1.018-2.218-.678-.493-1.648-.739-2.91-.739zM58.96 5.398h-4.999l-.964 4.642h5.07c1.262 0 2.22-.235 2.875-.705.655-.47.982-1.152.982-2.046 0-1.26-.988-1.891-2.964-1.891z" id="Combined-Shape" fill="#FFF"/><g id="Combined-Shape" fill-rule="nonzero"><use fill="#000" filter="url(#filter-3)" xlink:href="#path-2"/><use fill="url(#linearGradient-1)" xlink:href="#path-2"/></g><g id="Group-2" transform="translate(263 17.5)" stroke="#FFF" stroke-width="1.1"><path id="Path-2" d="M0 .5h13.951"/><path id="Path-2" stroke-dasharray="3.3" d="M16 .5h24.951"/></g><g id="Group-2" transform="translate(249 40.5)" stroke="#FFF" stroke-width="1.1"><path id="Path-2" d="M0 .5h17.951"/><path id="Path-2" stroke-dasharray="3.3" d="M20 .5h24.951"/></g><g id="Group-2" transform="translate(0 17.5)" stroke="#FFF" stroke-width="1.1"><path id="Path-2" d="M0 .5h13.951"/><path id="Path-2" stroke-dasharray="3.3" d="M16 .5h24.951"/></g><g id="Group-2" transform="translate(10 40.5)" stroke="#FFF" stroke-width="1.1"><path id="Path-2" d="M0 .5h13.951"/><path id="Path-2" stroke-dasharray="3.3" d="M16 .5h24.951"/></g></g></g></g></svg>