<svg xmlns="http://www.w3.org/2000/svg" preserveAspectRatio="none" width="1440" height="81" viewBox="0 0 1440 81"><g><g><path fill="#f7f7f7" d="M1440 81H0V25.314c.014.006.029.01.043.013l1.267-.494-.573-1.158-.737.052v-7.444c7.037.234 14.305-.76 21.118.594 4.912-1.575 11.797.426 15.707-1.14 4.374.257 7.968.47 11.69.687l1.643-1.834c1.032.75 1.86 1.356 2.092 1.522 7.524.11 13.061 1.41 19.03.852 2.832-.261 5.437-.887 8.214-1.36l1.796.613 2.441-.945L81.6 12.81c2.1.716 2.768.943 4.775 1.629-1.036-1.222-1.595-1.885-1.936-2.288-3.627.097-6.578.4-9.305.211-11.753-.815-11.722-.86-26.238.704-1.47.158-3.085.104-4.606.205-4.347.286-8.55-2.028-12.968-.103-4.785.031-9.57.078-14.354.093-4.819.016-9.747.24-14.417-.083-.95-.066-1.77.02-2.551.137v-6.05c7.655-.091 15.321.544 22.829-.668 1.862 1.23 4.84.071 7.343.337 2.863.304 5.76.563 9.093.887.128-.047.803-.285 1.92-.68 6.066 1.962 12.792 2.006 19.655.502-.567-.256-1.14-.512-2.636-1.182 7.419.343 13.95-.513 18.803.47 7.047.398 11.91-2.244 18.279-.421.832.238 2.744.209 3.755.003 5.965-1.202 12.333-.606 18.518-.685 2.667-.033 5.22.025 8.089.53 2.735.48 7.678-.918 10.401-.433 4.994.889 9.976.224 13.804.66 2.773.316 4.5.872 6.664 1.315.366-.116 1.012-.32 2.084-.656l6.46 1.094v3.2c4.813-.138 3.674-1.595 3.887-2.677h3.494v3.532c2.69.05 5.077.095 8.423.16l-1.583-1.98 5.53-1.393c-1.806-.501-3.306-.92-5.228-1.454l4.494-2.313c2.28.814 4.041 1.443 6.813 2.429l1.657-2.045c9.377 0 16.73-.099 24.056.033 4.914.09 10.136-.668 14.73.616 4.075-1.201 9.636-.212 13.72-1.397h27.108c.832-.333 1.589-.775 2.644-1.028 2.015-.486 4.196-.864 6.371-1.3l3.91 2.243c4.756.494 8.907-1.786 13.407-.136 4.132-.947 7.692-.348 11.085.61-.627.27-1.258.54-1.885.812 1.685 1.338 3.346 2.657 5.676 4.505V7.476c3.728-.453 8.042.414 9.91-1.774-.48-.61-1.256-1.59-2.03-2.57 1.85-.57 1.91.362 3.576.428 3.037-.444 6.657-.97 10.274-1.5 1.268.297 2.534.593 4.157.971.811-.655 1.421-1.15 2.104-1.704 1.367.497 2.69.982 3.945 1.439L349.223.43c.709.668 1.16 1.094 1.614 1.52 1.077-.505 2.149-1.013 4.137-1.95l1.935 3.57 1.717-3.355c2.34.649 4.057 1.123 6.668 1.846.807 0 3.245.292 4.45-.056 3.195-.924 6.386-1.763 11.733-1.627l2.902 1.067c1.03-.21 2.081-.424 3.691-.756.827.347 1.942.812 3.73 1.558l-10.616 1.532 6.128 1.71 9.185-.589 2.604 3.136h-4.6c-.21-.206-.423-.41-.634-.618-.432.207-.861.412-.8.618h-3.475c-.58-.488-1.171-.99-1.857-1.57-.627 1.765-.627 1.765 2.143 2.98.9-.345 1.804-.69 3.19-1.41h1.434c0 .621 0 1.245-.004 1.867 1.591.614 3.18 1.23 4.055 1.565 7.97-.883 16.655.133 22.672-2.111l3.962.983 3.916-.848c1.215.264 2.51.542 3.733.808 4.312-.765 4.32-.697 11.2-.804 2.602-.04 5.058-1.114 7.834-.155 2.28-1.079 5.386-.352 8.07-.552 2.962-.219 6.308.484 8.977-.701.488-.217 2.956.37 4.487.349 2.744-.04 5.499-.208 8.2-.415 2.339-.178 4.595-.656 6.914-.685 2.638-.033 5.305.286 9.025.519l12.211-1.428 2.603 1.205c-.418.534-.48.922-.78.95-2.895.293-5.23 1.087-8.634.994a108.866 108.866 0 0 0-20.603 1.39c-.544.088-1.256.088-1.86.05-6.337-.394-12.093.766-18.246.939.426.513 1.119.854 1.918 1.088l.87-.26c.475.235 1.017.436 1.569.632 1.173.045 2.346-.056 3.26-.242 3.973-.813 7.958-.794 11.812-.583 3.135.174 6.025-1.27 9.023-.074 2.795-.877 6.414-.573 9.517-1.005.53-.073.915-.304 1.27-.428 4.412 1.397 8.695.713 13.606-.182.764.4 1.664.87 2.973 1.551h-7.8c.476.45.592.75.85.771 3.241.252 6.503.463 10.583.74-.446-.649-.854-1.237-1.346-1.95l2.21-.388 3.63 2.911-6.625.419c.187.207.367.4.547.596 1.748-.131 3.314-.234 4.843-.215 2.319.03 4.577.508 6.913.686 2.704.207 5.457.376 8.201.414 1.531.022 3.999-.563 4.487-.348 2.672 1.185 6.015.482 8.976.7 2.685.2 5.793-.526 8.071.553 2.776-.959 5.232.114 7.833.155 6.88.106 6.889.039 11.2.804l3.734-.808 3.916.85c1.273-.315 2.284-.57 3.962-.986 6.02 2.245 14.702 1.228 22.672 2.113.875-.337 2.468-.95 4.055-1.566-.004-.622-.004-1.244-.004-1.866h1.434a26.77 26.77 0 0 0 3.194 1.409c2.766-1.215 2.766-1.215 2.138-2.98-.683.58-1.277 1.083-1.856 1.571h-3.476c.064-.207-.368-.412-.8-.62-.21.208-.423.413-.634.62h-4.599c1.005-1.208 1.711-2.06 2.605-3.137 3.517.226 6.347.409 9.184.589l6.128-1.709-10.616-1.532 3.73-1.557c1.61.33 2.66.545 3.69.754 1.644-.605 3.01-1.106 2.902-1.066 5.348-.135 8.541.702 11.735 1.627 1.204.347 3.642.057 4.45.057 2.61-.723 4.327-1.2 6.667-1.846l1.717 3.354c.822-1.518 34.87-2.283 35.57-3.571 1.988.94 3.062 1.445 4.136 1.952l1.615-1.52c1.451.864 2.688 1.601 3.917 2.336 1.254-.46 2.58-.942 3.944-1.441.682.555 1.293 1.05 2.104 1.706 1.624-.38 2.892-.676 4.158-.97 3.617.526 7.238 1.055 10.273 1.497 1.665-.066 1.727-.996 3.579-.428l-2.032 2.57c1.87 2.188 6.182 1.323 9.91 1.776v3.277c2.33-1.848 3.99-3.167 5.676-4.505-.629-.271-1.258-.54-1.883-.812 3.393-.958 6.95-1.555 11.08-.608 4.505-1.652 8.654.628 13.41.136 1.176-.674 2.485-1.428 3.91-2.243 2.175.434 4.358.813 6.371 1.298 1.057.253 1.812.695 2.644 1.028h27.108c4.084 1.187 9.645.196 13.72 1.396 4.596-1.284 9.816-.524 14.73-.614 7.326-.133 14.679-.034 24.056-.034l1.657 2.047c2.771-.988 4.535-1.615 6.815-2.429l4.494 2.31c-1.924.535-3.426.954-5.228 1.457 2.421.61 4.24 1.067 5.528 1.39l-1.583 1.98c3.346-.062 5.733-.106 8.423-.159v-3.532h3.495c.211 1.084-.927 2.54 3.885 2.676v-3.197c2.481-.423 4.61-.783 6.46-1.097 1.07.337 1.72.543 2.087.657 2.164-.444 3.89-1 6.66-1.313 3.83-.438 8.812.226 13.808-.663 2.721-.484 7.664.915 10.399.434 2.87-.505 5.421-.561 8.088-.528 6.186.077 12.554-.518 18.52.685 1.011.204 2.924.235 3.754-.004 6.37-1.822 11.232.818 18.28.419 4.85-.98 11.383-.124 18.802-.47l-2.636 1.182c6.863 1.505 13.589 1.46 19.655-.501l1.92.68c3.334-.324 6.23-.581 9.093-.887 2.502-.266 5.48.892 7.34-.336 8.776 1.416 17.767.3 26.705.785.673.261 1.581.614 2.33.902l-1.568 1.232h3.862c-1.351.85-2.128 1.342-2.906 1.832-.168-.071-.338-.143-.507-.217-.131.183-.273.374-.404.556l7.972 1.162c-.432-.947-.883-1.933-1.397-3.066.89-2.196 5.436-.865 8.167-1.564 2.553-.657 5.338-1.073 7.818-1.556l1.753.899 4.233-1.948 2.822 1.082c.306-.162.654-.52 1.1-.558 5.204-.416 10.41-.825 15.638-1.146 3.982-.244 7.669.157 10.332 1.617l6.9-2.398c1.722.763 3.551 1.335 5.21-.081 3.12 1.245 6.488 1.886 10.558 1.774 2.605-.072 5.26.339 8.671.59.186-.224.67-.801 1.365-1.632l3.625.796 2.682-.931c1.22.598 2.381 1.167 3.599 1.766l5.403-.833 4 2.956c.09-2.815 3.24-4.325 8.084-5.055 1.4.155 4.03.807 4.707.46 3.29-1.686 6.056-.224 8.787.183l2.35-1.11c3.251.714 6.776 1.966 10.4.011l7.178 1.908c2.264-.602 4.606-1.226 7.124-1.894l2.468.934c2.156-.287 4.208-.783 6.269-.795 12.803-.073 25.61-.036 38.129-.036l2.59 1.326c-2.505 1.652-5.06 3.34-7.797 5.146l-3.423-1.069c-.446.469-.972 1.019-1.52 1.592h-3.557c-2.385-.41 1.047-2.461-2.638-2.562.035-.01.143-.068.255-.124-.397-.24-.795-.478-1.192-.719l-.542.277c.468.206.935.41 1.479.566.077.786.077 1.617.077 2.506h-3.066c-.245-.866-.474-1.667-.768-2.698-1.206.984-2.121 1.73-3.213 2.617h-8.007l-.65-3.194h-6.401v1.296c1.142.215 2.125.399 3.166.592v1.92l-6.433 1.139-8.882-1.073c0-.314 0-.855-.91-2.607.997 1.274.997 1.274 4.444.329l4.765 1.158a4314.89 4314.89 0 0 1-3.61-2.702c-2.641 0-4.5 0-5.599 1.215-.383 2.022-1.678 2.831-3.102 3.722-1.69-.534-3.542-1.433-5.185.033l-3.221-.95c-.939.447-1.554.74-2.435 1.163-3.5-1.4-7.748-.966-11.859-.995-3.979-.027-7.958-.004-11.647-.004-1.255-.95-2.364-1.788-4.226-3.194v3.178c-5.71-.201-11.179.577-16.867-.635l-3.09 1.495h-5.554c-.927-.767-1.916-1.584-2.929-2.417-.174.06-.842.178-.86.318-.392 2.913-5.987 1.84-8.79 2.926-1.26.488-5.086.455-5.636-.006-2.195-1.832-5.686.839-7.523-.788-5.797 1.625-12.093.544-18.12.903-1.53.093-2.983.515-4.969.875-.524-.21-1.362-.542-2.527-1.005l-3.047.701c-1.515-.833-3.5-.769-5.458.095-2.27-1.158-4.409-.98-6.453.168-1.825-1.595-3.575.14-5.421.093-2.257-.058-4.572.442-6.858.701-.228-.495-.452-.99-.679-1.489-3.484.19-5.891.182-7.823.542a8.32 8.32 0 0 1-1.717.134c-.253.35-.491.678-.772 1.061l-2.212-.854-3.469.874-1.118-1.542c-2.79.114-5.642.093-8.503.049l-1.413.397v-.413c-.896-.012-1.79-.025-2.68-.027-2.675-.01-5.35-.035-8.027-.052v1.559c-1.688-.333-2.983-.585-4.43-.87-.117.058-.51.26-1.462.75-1.002-.651-1.97-1.283-3.327-2.162.025-.006.049-.008.07-.013-3.408-.33-6.734 1.022-10.146.796-1.523-.101-3.137-.047-4.608-.206-14.514-1.56-14.484-1.518-26.236-.7-2.725.187-5.678-.115-9.304-.214l-1.937 2.288c2.007-.686 2.675-.913 4.777-1.627l-2.135 2.461c.55.211 1.457.564 2.442.943a617.24 617.24 0 0 0 1.797-.612c2.775.473 5.382 1.097 8.214 1.362 5.969.556 11.504-.744 19.03-.852.232-.169 1.06-.773 2.094-1.524.722.81 1.109 1.243 1.64 1.836l11.691-.688c3.91 1.565 10.794-.436 15.707 1.14 1.763-.35 3.557-.541 5.369-.638-.198-.467-.397-.932-.594-1.399.49-.015.979-.033 1.467-.048v1.418c5.044-.19 10.215.265 15.26.064 3.18-.128 6.91-.411 9.51.077.418.08.819.13 1.21.163l9.2-.746c2.995 1.01 6.984.693 11.116.333 6.912-.602 13.797-.935 20.886-.223 2.942.295 6.31-.528 10.01-.894l1.961 1.005 11.137.494c.97-.637 2.005-1.321 3.044-2.003l3.362 1.722c1.773-.112 3.682-1.753 5.364.476 1.258-.892 2.225-1.576 3.259-2.304l3.784.846c1.492-.786 3.476-.804 5.421.114 2.34-1.844 4.239.558 6.643.138.824-.46 1.786-.994 2.425-1.348 8.185.763 15.929.88 24.633-.213l2.628.747 4.074-1.036c.895.417 1.508.701 2.12.984.404-.207.755-.457 1.227-.608.435-.138 1.388-.285 1.453-.227 2.133 1.85 6.415-1.702 7.7 1.09l4.349-1.258 2.363.982c.65-.281 1.239-.754 1.935-.8 6.829-.455 13.9.82 20.575-.777 2.874 1.433 6.646.213 9.613.818 2.658.54 4.506-1.467 7.35-.173 1.277.581 4.056-1.154 6.13.1 12.18-1.787 24.645-.456 36.945-.907 1.235-.047 2.408-.527 3.682-.822 1.649.271 3.424.806 5.173.789 2.056-.022 4.103-.504 6.138-.82 1.823-.282 3.32 1.242 5.564.074 1.018-.533 3.167 1.272 5.41-.016 1.428-.823 3.306.856 5.634.341 1.924-.428 4.328-.329 6.528-.381 2.277-.054 4.578-.09 6.838.023.957.048 1.84.494 2.759.757l1.966-.902c3.946 1.042 8.038 1.753 12.252.035l3.795 1.065c.738-.277 1.599-.599 2.478-.93.516.242 1.132.53 1.271.597 4.423-.31 8.439-.593 12.94-.907 1.307.668 2.49 1.273 3.864 1.978 1.711-.463 3.82-1.033 5.86-1.583.986.272 2.118.583 3.479.96l1.434-2.09 4.637 1.012 3.318-1.015 2.537.874c1.657-.728 3.447-1.544 4.97.149l2.294-1.034 4.117 1.051 2.903-.999c2.367.628 4.713 1.247 8.005 2.12l1.27-2.734 3.195 1.242c4.326-.196 8.333-.378 12.337-.558 1.032.988 2.824.325 4.444.118v6.03c-.95.051-1.899.1-2.808.044-.66-.041-1.467.536-2.209.85-1.556.302-3.141.587-5.653 1.036 1.134-.918 1.598-1.29 2.43-1.964-5.142.091-9.541-.099-13.995.145 2.226 1.604 4.101 2.952 5.663 4.077 4.088-.693 7.833-1.33 11.555-1.962v-1.332c.856-.021 1.707-.021 2.782-.021l1.124 1.704 1.111-.395zM381.478.378c-.008-.003-.008-.003 0 0zm704.127 18.52h3.416v-.437h-3.416zm-19.132.362l-1.483.089.668 1.428c.273-.024.544-.047.815-.068zm-30.205-.42h3.845v-.375h-3.845zm-5.302.185h.964v-1.493h-.964zm-5.625-.753h.639v-.743h-.64zm-7.97-.61l-.68.356 4 .718v-1.075zm-5.684 1.363h.964v-1.493h-.964zm-6.468-.07c.126.046.251.094.377.144-.875.017-1.4.189-1.924.362l.606.233 1.345-.607-.377-.144c.875-.017 1.401-.189 1.924-.362-.202-.08-.405-.156-.606-.233-.45.202-.896.402-1.345.607zM6.972 10.838h3.855v-.374H6.972zm8.194.186h.964V9.531h-.964zm5.944-.752h.643v-.744h-.643zm5.298.462c1.36-.242 2.678-.48 3.998-.717-.226-.12-.452-.238-.68-.356h-3.318zm8.038.29h.964V9.531h-.964zm8.373.67c.203-.08.404-.157.607-.236-.524-.171-1.05-.344-1.925-.362.125-.046.251-.096.377-.144l-1.345-.607-.608.233c.527.173 1.051.347 1.926.364l-.377.145zM6.643 23.84l-1.667.081.751 1.215c.304-.02.61-.037.916-.059zm4.184.374h1.928v-.247h-1.928zm58.355-4.05l4.76-1.889c-3.247.264-4.303.351-5.472.445.242.488.402.816.712 1.444zm32.905-4.658h.643v-.748h-.643zm14.781-3.984h1.928v-.248h-1.928zm2.57 1.743h.643v-.748h-.642zm7.272 1.04c3.242.339 6.296.705 9.182.19-1.097-.54-1.864-.918-2.812-1.383l-6.37 1.193zm40.285.2h1.928v-.247h-1.928zm23.114-4.292c.17-1.666-1.423-1.678-3.98-1.099l.543 1.099zm.372 3.77l3.654-.067-.935-2.512-2.72 2.58zm23.427-4.452h.64v-.748h-.64zm21.062.677c-.324-.39-.784-.952-1.247-1.513-.28.08-.56.156-.838.235v1.278zm26.165-.563l-1.707.068c.244.65.488 1.303.73 1.956l.977-.04zm27.16-2.093c-2.327.974-5.292.261-7.53.526-.923.109-1.484.676-2.81 1.33h10.34zm39.484 4.74c4.225-.695 8.548-1.405 12.055-1.98l-7.654-2.944c-.672.15-1.95.438-3.403.765-1.006-.269-1.95-.522-2.894-.777-1.653 1.363-4.12 2.67-2.243 4.212l4.14.724zm22.38-2.265h1.927v-.248h-1.928zm.512 6.993c1.047-.099 2.092-.195 3.137-.29l-.15-.352h-3.196c.07.212.14.426.209.642zm294.495-5.395c-.226.104-.454.207-.685.311.78.084 1.047.008 1.293-.075-.201-.08-.404-.157-.608-.236zm-3.011.33c-3.916-.768-4.575-.516-5.739-.065.551.238 1.336.47 1.728.777.456.358.572.782 1.09 1.563 2.1-.688 3.441-1.124 4.78-1.562-.618-.238-1.238-.474-1.859-.712zm-9.138 1.724l-.78 2.346c.097.002.196.004.293.004l.005-.02c1.73-.623 2.613-1.28 3.612-2.018l-3.13-.312zm-4.145 2.437c-.099.447-.168.771-.277 1.266 1.17.048 2.226.093 3.638.153l.305-1.49c-1.553.012-2.583.04-3.666.071zM553.6 20.857h4.43l.395-.044.503.044h2.927c.025.091.046.18.071.271l4.804.432c.22.43.397.77.886 1.712 1.301-1.078 2.104-1.739 2.904-2.401l5.125 1.865c.526-.204.977-.38 2.154-.835L579.604 24l2.353-.442 3.06-2.756c-11.117-.374-21.193-.71-31.418-1.056zm28.39 5.774c-.303-.02-.607-.039-.911-.056l-.745 1.214 1.656.081zm-12.272.424c-.427-.167-.962-.374-1.513-.585l-1.247.058-.236.527zm-6.462-4.7l-1.524-.413c-.95.639-1.896 1.278-2.843 1.917l1.2.405c.664-.252 1.473-.469 1.952-.767.556-.343.82-.76 1.215-1.143zm-9.207 1.152h.64v-.748h-.64zm-49.65-9.682h3.846v-.374H504.4zm-5.455.796l1.652-.04-.704-1.248-.948.05zm-13.824-.118h1.918v-.247h-1.918zm-12.857 1.003h.638v-.748h-.638zm-12.399-3.761L428.445 12.8l3.06 2.764c.785.146 1.57.295 2.353.44.604-.7 1.206-1.4 1.806-2.1l2.154.835c1.326-.481 2.652-.965 5.13-1.867l2.902 2.407c.486-.948.662-1.287.885-1.718 2.85-.257 5.917-.532 8.305-.75 1.198.14 2.166.253 3.165.367.478-.072.965-.134 1.409-.2l.25.092zm-.453 3.393c-.21-.03-.431-.045-.642-.076v.438h.642zm-4.836.72l-2.846-1.919c-.51.138-1.022.275-1.529.414.393.384.658.798 1.218 1.143.48.296 1.29.513 1.955.765.4-.133.8-.269 1.202-.403zm-7.833 3.194l-.444-.988c-.87.337-1.852.719-2.552.988zm-13.622.736c-.248-.405-.497-.811-.743-1.216l-.915.058v1.24l1.658-.082zM384.877 9.38c-.109-.496-.178-.817-.277-1.264-1.081-.033-2.113-.06-3.666-.072l.305 1.49 3.638-.154zm-4.429-3.701l-3.133.311c.999.738 1.881 1.395 3.613 2.017.002.007.004.015.004.021.097 0 .196-.002.293-.004l-.777-2.345zM371.3 3.957c-.619.239-1.24.476-1.862.713 1.342.44 2.683.879 4.789 1.567.517-.782.633-1.207 1.09-1.567.392-.309 1.18-.54 1.732-.78-1.167-.452-1.827-.705-5.749.067zm-3.008-.333c-.2.08-.405.157-.605.236.248.083.503.163 1.29.077l-.685-.313zm-12.565 5.66c1.522 2.085 3.744.301 4.717.367 2.187.447 3.716.76 5.83 1.19l-5.706 2.798 8.87-1.38v-1.113c3.39-.426 6.641-.837 10.893-1.373l-5.91-2.438c-1.24.352-1.967.561-2.685.765-1.758-.34-3.339-.643-5.048-.975-.788.655-1.405 1.166-2.228 1.848-1.382-.306-2.63-.58-3.702-.82l-5.03 1.132zm2.462 7.614c1.423-.344 2.61-.633 4.107-.993-5.134-.85-4.536.04-4.107.993zm8.367.047l2.447-.773c1.626.316 3.19.622 4.747.926.902-.3 1.603-.53 2.395-.794.604.207 1.264.43 2.294.778 2.165-.33 3.764-.639 5.456-.815 1.952-.201 3.985-.287 6.606-.465.38.076 1.656.33 3.572.707.186-.707.299-1.129.463-1.75-2.991 0-5.479-.051-7.95.017-1.848.05-4.553.61-5.347.32-3.024-1.11-4.287.68-6.561.408l-2.17-.552-3.519.653-1.107-.326-4.608.5c1.653.589 2.505.89 3.282 1.166zm20.217 4.64c.737-.893 1.289-1.564 2.276-2.763-3.072.577-5.263 1.288-6.124 1.098-3.668-.815-6.422.245-10.489.286 2.954.571 5.011.968 6.945 1.34 1.45-.36 2.679-.668 3.728-.928l3.664.968zm4.467-.563l5.01-1.586h-5.84c.282.538.454.871.83 1.586zm5.36-5.466c4.313-.284 8.658.533 12.487-.75 4.32 1.47 8.582.68 12.608-.01l5.194.876v-3.604c-1.84.963-2.94 1.536-3.948 2.065h-26.342zm31.422 4.201l-4.094-1.94v2.262l4.094-.322zm-6.701-.769c-.045-.122-.085-.244-.13-.368h-3.199c.037.213.072.426.108.64 1.073-.09 2.147-.18 3.221-.272zm-6.943 1.569c-1.258-.854-2.208-1.503-3.435-2.336L403.8 19.7l10.577.858zm-15.814-1.052l.151.355h3.203c-.068-.215-.138-.43-.208-.645l-3.146.29zm15.218 30.11h1.918v-.25h-1.918zm22.17-11.952c-.137-.09-.256-.165-.384-.248h-.58v.248h.501l.131-.043c.039.014.074.03.112.043zm16.639-.928c.389-.138.784-.275 1.161-.409.068-.492-.774-.47-4.34-.36l3.179.769zm1.246-4.162c.792.06 1.542.116 2.257.172.069-.24-.23-.544-1.131-.935-.39.263-.758.511-1.126.763zm8.147 14.799h1.917v-.248h-1.917zm5.628-13.894c.039-.227.08-.457.122-.717-1.543-.042-2.68-.075-3.997-.004.124-.048.252-.096.376-.146l-1.344-.607c-.203.08-.404.156-.61.235.527.174 1.052.345 1.758.414-.321.133-.644.264-.966.395.308.077.616.153.927.232 1.243.067 2.486.135 3.734.198zm.797 14.144h.643v-.748h-.643zm3.728-14.173c1.043-.094 2.086-.19 3.128-.287-.053-.12-.1-.237-.151-.354h-3.186c.07.214.137.43.209.641zm3.34 13.177h1.351v-.25h-1.352zm7.278 1.86c-.191-.014-.371-.026-.544-.04l.544.283zm0-2.265c-.495.382-.952.736-1.384 1.066.45.03.935.075 1.384.092zm.438 4.195h3.855v-.372h-3.855zm2.266-17.925c-.73 1.126 1.19.957 3.254.816l-.304-.188-1.27.273c-.575-.308-1.124-.604-1.68-.9zm1.897 8.87c.546.009 1.167.016 1.852.022-.327-.11-.673-.227-1.028-.345l-.824.037zm15.755 9.24h.64v-.742h-.64zm6.525-9.313c2.887-.054 5.673-.131 8.159-.238-.51-.271-.882-.54-1.09-.804-1.843.055-3.828.107-5.879.16.178-.055.358-.105.528-.164l-.605-.234c-.312.14-.623.28-.933.422-5.79.146-11.962.289-16.731.436-.083.17-.172.356-.265.544 2.358.008 5.065.006 7.913-.011l.65.06.021-.064c1.472-.012 2.974-.025 4.479-.045.046.275.095.544.145.843 1.399-.35 2.533-.634 3.608-.905zm-16.286-.964c.836-.054 1.56-.113 2.146-.17h-2.063a6.88 6.88 0 0 0-.083.17zm3.333-.326c.306-.056.476-.114.476-.172-.095.027-.26.052-.476.08zm8.528-18.17h3.855v-.374h-3.855zm3.044 4.378v.249h1.928v-.137l-.79-.112zm5.958.585l4.304-.459-4.304-.225zm-.784-5.208c.352-.046.72-.094 1.084-.14v-.057l-.944-.052zm7.82 5.145c.493.013.984-.066 1.48-.169l-2.702-.143c.337.087.759.195 1.221.312zm4.703 29.198c.489-.251.903-.468 1.34-.695-.362-.288-.795-.637-1.34-1.075zm3.799-1.303h1.917v-.248h-1.917zm2.05-34.03c3.655-.2 7.434-.205 11.204.489a6.262 6.262 0 0 0 1.093-.448l1.303.765c2.185.138 4.775-.174 5.828-1.442-6.153-.17-11.907-1.331-18.246-.94-.602.039-1.316.039-1.86-.05a109.217 109.217 0 0 0-14.37-1.364l-1.075.22c-.318-.09-.622-.173-.931-.258a109.809 109.809 0 0 0-4.225.013c-.581.016-1.1-.021-1.626-.05-2.131.302-4.328.612-6.72.949l-2.07-.415-17.599.93 2.809 1.396-11.104-1.117c-3.691.5-7.39 1.003-11.052 1.501-.756-.27-1.424-.51-1.45-.52-.623-.001-1.224.03-1.82.069 1.046.172 2.107.346 3.224.532l-4.24 1.313c-1.447-.45-3.101-.76-3.531-1.317-.685.101-1.368.194-2.052.28.018.025.031.048.049.073h-.718c-1.713.186-3.467.242-5.356 0h-1.002l.332-.105c-.315-.052-.62-.08-.946-.15l-7.844 1.101c-2.375-1.956-7.177 1.428-9.806-.472-2.723 1.47-7.024.298-10.554.949-3.459.637-7.945.44-12.97.649l-3.193 1.146c1.1.345 1.848.577 4.063 1.077-.401.054-.8.114-1.202.167 1.159.127 2.322.255 2.334.083 1.026-.142.642-.422.366-.407-.275.016-.544.052-.815.081-.82-.718-.078-1.148.67-1.578 1.108.298 2.053.552 3.265.88 1.054-.313 1.995-.59 2.94-.868l2.738 1.061c-.61.26-1.223.519-2.392 1.015 2.88.056 5.265.1 7.036.135 1.494-.91 2.624-1.6 4.107-2.502l1.289 1.51c3.383-.884 7.1.231 10.718-.294 1.713-.25 6.96-.38 10.541-1.016.815.24 1.761.52 3.015.892 7.545-2.153 17.153.403 25.125-1.543 1.15-.28 3.145-.039 4.75-.039 3.85 0 8.334.48 11.386-.124.109-.02.201-.025.306-.044l-4.239-.268 3.63-2.909c1.22.213 1.966.345 2.21.386l-1.346 1.95c4.08-.277 7.342-.488 10.584-.74.26-.02.373-.321.85-.769h-7.8l2.972-1.551c4.91.895 9.194 1.578 13.607.18.354.124.739.356 1.271.43 3.1.43 6.72.126 9.517 1.005 2.996-1.199 5.89.246 9.021.074zm-70.09-.34c-.001 0-.001 0 0 0zm87.526 1.894l-.851-.217c-.266.258-.529.513-.786.76.104.061.19.11.294.174l1.343.085zm-11.134 33.475h.64v-.745h-.64zm5.142-.248h.356v-.247h-.356zm1 0h.93v-.247h-.93zm15.738-10.431l4.068-.979c-4.676-.142-4.676-.142-4.068.979zm-4.372-4.005c1.865.263 3.791.542 5.814.848l-2.929-1.975c-.948.41-1.91.784-2.885 1.127zm16.732-11.354c-1.57-.22-3.105-.435-4.53-.637-2.165.475-4.122.502-6.013.353-.83.654-1.639 1.291-2.653 2.093l-10.516-2.738.19-.084-1.843-.25-.542 1.376c-1.095 0-2.285 0-3.565.038.039-.01.165-.058.29-.106l-1.343-.61c-.203.077-.406.157-.61.234.527.174 1.052.349 1.663.482.087.21.087.46.188.742-.023-.013-.149-.062-.273-.112l-1.577.52c.203.08.406.158.61.235.447-.203.894-.407 1.24-.643 1.09-.025 2.218-.03 2.553-.033 2.855.574 4.281.858 5.528 1.108l-.207.163c4.4-.13 8.752-.248 12.576.842l.978-.29-1.808-1.755h5.04v1.336c1.479.206 3.11.349 4.624.46zm4.202 16.081h1.93v-.248h-1.93zm32.775-12.1c-.402-.053-.8-.113-1.202-.167 2.215-.498 2.966-.732 4.063-1.077-1.701-.61-2.828-1.013-3.192-1.145-5.024-.21-9.509-.013-12.971-.648-3.53-.651-7.83.52-10.554-.951-1.955 1.413-5.118-.097-7.586-.157-.214.14-.398.257-.642.416l-.788-.213c-.282.099-.552.23-.79.426L573 29.677c.896 1.141 1.583 2.018 2.22 2.832.778.056 1.42.11 1.845.172 3.617.525 7.335-.589 10.718.295.36-.425.72-.843 1.29-1.51 1.48.901 2.61 1.591 4.106 2.501a7503.8 7503.8 0 0 0 7.034-.133c-1.17-.498-1.78-.758-2.392-1.017.954-.37 1.862-.72 2.74-1.062.943.28 1.884.556 2.94.868 1.212-.325 2.154-.58 3.264-.88.747.43 1.492.86.67 1.581-.272-.03-.539-.068-.816-.083-.276-.014-.66.267.366.407.012.172 1.175.044 2.334-.084zm-23.876-5.805c1.845.143 2.702.211 4.092.32v-2.263c-1.909.905-2.774 1.315-4.092 1.943zm6.7-.769l3.223.271.105-.639h-3.2c-.044.122-.085.244-.127.368zm6.942 1.569l10.577-.86-7.142-1.476-3.435 2.336zm15.673-.7c.052-.118.1-.236.151-.354l-3.146-.29-.208.645zm2.096-5.725h-26.331l-3.946-2.066v3.606c1.972-.335 3.5-.592 5.19-.877 4.024.687 8.285 1.481 12.603.01 3.827 1.282 8.171.464 12.484.75zm5.37 6.888c.375-.715.549-1.046.83-1.585h-5.842c2.336.738 3.399 1.073 5.011 1.585zm9.164 28.592h1.927v-.25h-1.927zm2.7-28.067l6.948-1.34c-4.068-.04-6.824-1.102-10.494-.287-.862.19-3.054-.521-6.128-1.099l2.278 2.765c1.48-.39 2.316-.61 3.668-.968l3.728.929zm12.82-4.602l3.281-1.164-4.606-.5-1.106.323c-.884-.162-1.945-.36-3.518-.652l-2.17.554c-2.274.269-3.536-1.519-6.56-.41-.793.292-3.497-.27-5.347-.32-2.468-.066-4.955-.018-7.943-.018.162.622.275 1.044.462 1.753l3.57-.707c2.62.176 4.654.261 6.605.465 1.69.176 3.29.484 5.454.813l2.292-.776c.792.261 1.492.492 2.396.792l4.744-.926 2.446.773zm8.367-.047c.43-.95 1.026-1.842-4.105-.993l4.105.993zm-2.254-7.245c.973-.068 36.828 1.716 38.35-.366-1.605-.36-36.936-.744-38.664-1.131-1.074.236-2.322.51-3.704.817l-2.226-1.846c-1.711.33-3.292.635-5.048.972-.718-.203-1.446-.41-2.686-.765-1.64.678-3.395 1.403-5.911 2.44 4.252.537 7.505.946 10.893 1.372v1.114c2.26.352 4.623.72 8.87 1.379l-5.706-2.797 5.832-1.19zm43.395 7.366l.209-.641h-3.186l-.15.352 3.127.29zm-1.405-6.996h1.918v-.247h-1.918zm28.444 1.553c1.88-1.546-.589-2.853-2.241-4.218-.947.253-1.891.507-2.898.778-1.453-.327-2.733-.618-3.404-.769-2.638 1.017-5.046 1.945-7.66 2.95l12.065 1.985 4.138-.726zm45.687-2.167c-1.326-.655-1.887-1.22-2.808-1.33-2.24-.266-5.205.447-7.531-.526v1.856zm17.791 2.26l.726-1.956c-.566-.023-1.132-.045-1.7-.066v1.983l.974.039zm27.279-2.737c-.281-.077-.558-.157-.838-.234l-1.247 1.52h2.085zm18.327.599h.641v-.748h-.64zm20.423 4.385c1.57.03 2.422.044 3.664.07-.788-.748-1.467-1.39-2.727-2.58a834.575 834.575 0 0 1-.937 2.51zm7.463-3.702c.186-.381.352-.712.544-1.1-2.559-.579-4.15-.567-3.981 1.1zm17.749 4.296h1.927v-.248h-1.927zm33.03-.015c2.886.517 5.94.149 9.18-.19l-6.367-1.193c-.947.467-1.715.842-2.812 1.383zm15.808-1.23h.64v-.746h-.64zm1.289-1.741h1.917v-.248h-1.917zm16.066 3.982h.643v-.748h-.643zm33.548 4.657l.714-1.443c-1.169-.094-2.228-.18-5.474-.445 2.358.937 3.328 1.32 4.76 1.888zm56.425 4.05h1.918v-.246h-1.918zm7.032.922l.749-1.214-1.667-.081v1.24c.306.019.612.038.918.055zm5.682.194c1.058-.337 2.117-.672 4.109-1.303l-4.805-.351-.572 1.158 1.268.496zm81.658 15.494c.494-.03.987-.064 1.48-.095-.222-.474-.444-.953-.665-1.427l-.724.06-.09.068zm7.13.132h.572v-.872h-.571zm11.627-.219c-.114-.292-.207-.527-.3-.761-.64-.122-1.314-.252-2.052-.395h1.895l-.193-.494c-1.814.22-3.372.41-4.926.602l.23 1.048zm67.965-18.087c.139-.888.26-1.672.458-2.917l-4.624.71c-4.323-.817-9.327-.914-14.373-.085-.754.124-1.7.508-2.196.384-6.709-1.662-13.357.906-20.007.029-1.789-.236-3.533-.552-5.7-.895-1.218.544-2.648 1.187-4.334 1.943-.92-.283-1.825-.566-2.923-.905l-1.447.622c-3.469-.335-6.914-.666-10.067-.969-1.391.723-2.392 1.244-3.226 1.676-2.156-.205-4.189-.333-6.141-.606-1.857-.262-3.465-.235-5.468-.128-7.055.376-14.236.168-21.366.108-.637-.004-1.258-.534-1.877-.817-.511.244-1.073.511-1.775.848l.186.56c-.277.106-.953.368-10.884-.006a221.911 221.911 0 0 1-5.43-.558c-.835-.023-1.669-.038-2.503-.048 1.295.108 3.627.289 7.933.606 2.685 1.294-3.453.353-9.317-.459-2.44-.337-1.874.614-3.74.302l-.067-.488c-1.216-.093-2.557-.254-4.268-.383-.312.222-1.264.906-1.58 1.13-3.603.421-7.004.193-10.224.15-1.986.287-3.986.63-6.117.407-.665.127-1.323.288-1.97.5a3.451 3.451 0 0 0-1.614-.785l-4.12 1.904c-.89-.287-1.545-.5-2.672-.866v1.602c1.009 0 1.996.029 2.965.052a.059.059 0 0 0 .014-.01 55.848 55.848 0 0 1 4.868-.1c1.084-.13 2.094-.002 3.05.166 1.03.085 2.034.22 3.031.368.42-.015.83-.068 1.231-.217 3.234-1.2 4.111 1.178 6.424.548.902-.311 1.571-.544 2.282-.79.344.229.695.378 1.049.494 4.465-.873 9.116-1.38 14.06-1.491 5.777-.13 11.806.931 17.333-.748 3.082 1.519 6.89.632 10.36.76 2.384.088 4.989.45 7.038-.816 2.04-1.26 3.688 1.455 6.562.275 1.17-.478 4.378.513 6.667.533 2.068.015 4.148-.384 7.154-.694.068.025.931.343 2.1.777 1.978.294 4.256-2.069 6.67-.118 1.776-1.602 5.19-.341 7.658-1.158 1.735-.574 4.721.846 6.707-.672.778.286 1.395.546 2.073.751.447.136 1.271.343 1.436.261 1.877-.94 3.74.002 5.454-.077 2.507-.12 4.89-.926 7.463-1.466 1.593.988 3.384.968 5.319-.337 4.183 1.247 8.559 1.749 12.592.033 1.237.416 2.131.716 3.159 1.063l3.807-1.065 2.927 1.112zm42.023-.357l11.595-1.99c-.296-.487-.532-.874-.623-1.027-12.517 0-24.703-.008-36.886.025-.405 0-.808.387-1.2.589-.616-.293-1.23-.587-1.609-.77-3.898.402-7.558.777-11.754 1.207.983.802 1.82 1.482 3.037 2.472l16.645-1.695 1.66 1.19c3.604-.477 6.562-.87 9.246-1.227 1.111.273 2.064.51 2.933.723a776.77 776.77 0 0 0 1.924-.92c1.867.528 3.685 1.044 5.032 1.423zm38.738-1.987l4.897-1c-4.817-.873-7.966-1.756-11.282-1.975-6.61-.44-12.563 1.33-18.79 1.894 1.39.928 2.56 1.707 3.324 2.216 2.106-.331 3.62-.567 6.265-.984 1.101-.564 3.039-1.553 4.672-2.388l3.829.182c.284.974.509 1.745.731 2.516.579.186 1.158.372 1.736.56l1.862-2.433c1.566.802 2.575 1.317 2.756 1.412zm19.514.591c.91-.867 1.748-1.652 2.532-2.452.038-.04-.372-.198-.312-.169h-18.046c2.059 1.297 3.036 1.913 4.091 2.576 1.756-2.11 5.447.7 7.514-.888.15-.117 2.706.59 4.221.933zm8.961-.905c.523.25 1.082.517 2.545 1.22-.191-1.836-.301-2.9-.404-3.912-3.625-.207-6.035.167-6.532 1.94-.142.5.216 1.037.426 1.876l3.965-1.124zm11.263-.414c3.122 2.21 7.372 2.312 11.187 3.021-.7-1.722-1.266-3.11-1.748-4.29-2.758-1.065-4.575 1.034-7.618-.029-2.055-.716-5.84-.135-9.261-.135 2.173.95 3.718 1.626 5.23 2.289l2.21-.856zm13.99 1.199h.57v-.88h-.57zm6.278-.293h1.715v-.292h-1.715zm30.498-.666c.967-1.677-1.23-2.072-2.25-2.396-3.204.295-5.529.606-7.883.697-2.82.109-6.282.549-8.363-.094-3.24-1.006-5.332.695-8.282.176v2.986c2.389-.813 4.09-1.392 5.892-2.008.548.21 1.368.527 2.228.856l3.617-1.085 3.511 1.007 2.69-.807c1.038.57.244 2.289 3.5 1.462l1.457-1.82 3.883 1.026zm3.516 8.049c.277.76.414 1.146.308.846l3.89-.846zm13.296-8.07c.92-.473 1.52-.779 3.226-1.652-3.94 0-6.723.096-9.467-.028-2.785-.127-5.53-.47-9.487-.828 1.591 1.237 2.548 1.983 3.636 2.83 1.435-.377 2.526-.661 3.542-.927.666.266 1.302.518 1.985.789 1.493-.386 2.886-.744 4.144-1.07 1.027.376 1.76.646 2.42.886zm6.443.784c2.163-.4 4.25-.788 6.315-1.172-.174-.848-.31-1.505-.441-2.15-3.314.086-6.594-.513-7.864 1.287l1.99 2.035zm28.281 8.012l.334.17 1.406-.61a71.93 71.93 0 0 1-.543-.275c-.399.239-.799.476-.837.873-.113-.058-.226-.114-.334-.172l-1.406.61c.18.092.361.182.542.275.398-.237.798-.476.838-.871z"/></g></g></svg>