<svg xmlns="http://www.w3.org/2000/svg" width="46" height="48" viewBox="0 0 46 48"><g><g><g><path fill="#fff" d="M5.84 36.704l.128 9.766a.908.908 0 0 0 .903.896c3.044.023 12.953.09 14.747.042 2.281-.06 4.622.265 6.89-.07 1.501-.218 3.097-.591 4.493-1.192 1.335-.576 2.748-1.015 4.05-1.685 2.174-1.117 3.356-2.843 4.775-4.756l1.55-2.087c.194-.263 1.079-1.632 1.33-2.185 1.111-2.06.66-3.47-1.522-3.671-1.46-.135-1.986.96-2.823 1.906a38.42 38.42 0 0 1-1.78 1.925c-1.415 1.403-2.992 2.363-4.92 2.894-.95.26-1.92.45-2.87.701-.8.213-1.605.544-2.45.432-.768-.1-1.6-1.799 2.146-3.89 1.216-.33 2.544-.738 3.303-1.824 1.593-2.281-2.528-2.825-3.923-2.965-2.356-.235-4.838.092-6.92 1.273-1.58.899-3.134 1.827-4.718 2.718-.903.51-1.918.915-2.951.818l-8.533.03a.915.915 0 0 0-.905.924"/></g><g><path fill="#cc066f" d="M26.101 47.947c-.657 0-1.31-.023-1.956-.047a41.927 41.927 0 0 0-2.508-.038c-2.026.055-14.243-.037-14.763-.04a1.372 1.372 0 0 1-1.356-1.348l-.128-9.768a1.364 1.364 0 0 1 .393-.974c.257-.262.6-.408.965-.411l8.557-.03.022.002c.782.072 1.635-.169 2.684-.761.868-.488 1.741-.996 2.586-1.488.709-.412 1.417-.823 2.13-1.23 2.538-1.44 5.312-1.518 7.193-1.33 2.58.258 4.115.88 4.56 1.849.176.383.265 1.011-.308 1.832-.817 1.169-2.175 1.627-3.504 1.989-2.013 1.134-2.618 2.138-2.51 2.702.04.206.174.299.25.308.575.078 1.155-.094 1.768-.276.168-.05.337-.1.505-.144.452-.12.91-.226 1.356-.33.498-.115 1.013-.234 1.511-.37 1.81-.499 3.31-1.382 4.718-2.778.597-.59 1.15-1.21 1.76-1.902.146-.166.286-.34.421-.51.632-.788 1.349-1.683 2.786-1.55 1.139.106 1.907.515 2.284 1.218.423.79.291 1.837-.394 3.112-.281.609-1.185 2-1.372 2.254L41.93 40.34c-1.303 1.764-2.533 3.43-4.662 4.525-.831.426-1.706.763-2.553 1.088-.505.194-1.028.394-1.526.61-1.289.554-2.84.967-4.608 1.225-.822.12-1.653.158-2.48.158m-3.876-1.006c.654 0 1.312.023 1.953.046 1.415.05 2.878.102 4.27-.103 1.69-.247 3.164-.637 4.38-1.16.514-.222 1.045-.426 1.559-.624.824-.316 1.676-.643 2.463-1.048 1.938-.996 3.054-2.506 4.345-4.254l1.821-2.455c.195-.263 1.052-1.597 1.281-2.102l.014-.028c.521-.966.663-1.768.4-2.26-.277-.517-1.002-.687-1.562-.738-.905-.082-1.324.381-1.988 1.211-.142.178-.29.361-.45.543-.62.704-1.185 1.336-1.802 1.947-1.503 1.49-3.177 2.475-5.119 3.01-.515.14-1.04.262-1.547.38-.438.101-.89.206-1.328.322-.16.042-.32.09-.48.137-.677.2-1.379.408-2.147.306-.507-.067-.92-.486-1.027-1.043-.131-.681.087-2.067 3.01-3.7l.05-.027.054-.015c1.233-.333 2.395-.71 3.047-1.644.394-.564.269-.838.227-.928-.283-.616-1.71-1.11-3.82-1.32-1.748-.175-4.322-.106-6.65 1.216-.71.404-1.416.814-2.122 1.225-.848.492-1.725 1.002-2.597 1.493-1.21.683-2.226.962-3.195.877l-8.511.03a.45.45 0 0 0-.318.137.455.455 0 0 0-.132.325l.128 9.765a.453.453 0 0 0 .448.445c.52.004 12.723.096 14.733.041.203-.005.407-.007.612-.007"/></g><g><path fill="#cc066f" d="M24.6 27.904c-.302 0-.605-.086-.867-.258l-5.495-3.623a1.578 1.578 0 0 1-.708-1.316v-4.144c0-.52.254-1.004.68-1.298l5.824-4.01a1.587 1.587 0 0 1 1.794.004l5.441 3.767c.41.284.663.75.68 1.248l.116 3.772a1.576 1.576 0 0 1-.657 1.329l-5.885 4.235a1.583 1.583 0 0 1-.922.294m.328-14.01a.668.668 0 0 0-.377.116l-5.824 4.008a.661.661 0 0 0-.284.545v4.144c0 .222.111.43.298.554l5.494 3.622a.67.67 0 0 0 .754-.016l5.885-4.234a.664.664 0 0 0 .276-.56l-.116-3.77a.67.67 0 0 0-.287-.526l-5.442-3.766a.66.66 0 0 0-.377-.118"/></g><g><path fill="#cc066f" d="M24.627 23.422l-6.564-4.935a.457.457 0 1 1 .549-.731l6.017 4.523 6.468-4.828a.457.457 0 1 1 .547.732z"/></g><g><path fill="#cc066f" d="M24.627 27.936a.457.457 0 0 1-.457-.457v-4.882a.457.457 0 1 1 .914 0v4.882a.457.457 0 0 1-.457.457"/></g><g><path fill="#cc066f" d="M44.24 29.189a.457.457 0 0 1-.428-.618 20.41 20.41 0 0 0 1.295-7.181 20.42 20.42 0 0 0-3.058-10.772.457.457 0 1 1 .777-.482 21.336 21.336 0 0 1 3.195 11.254c0 2.58-.455 5.105-1.352 7.502a.457.457 0 0 1-.428.297"/></g><g><path fill="#cc066f" d="M7.677 9.563a.457.457 0 0 1-.37-.726A21.475 21.475 0 0 1 24.63 0c5.04 0 9.935 1.787 13.783 5.031a.457.457 0 0 1-.59.7A20.494 20.494 0 0 0 24.63.913a20.558 20.558 0 0 0-16.583 8.46.456.456 0 0 1-.37.19"/></g><g><path fill="#cc066f" d="M6.477 32.28a.457.457 0 0 1-.397-.229 21.384 21.384 0 0 1-2.84-10.66c0-2.197.332-4.364.986-6.44a.457.457 0 1 1 .872.274 20.503 20.503 0 0 0-.944 6.166c0 3.588.94 7.116 2.719 10.204a.457.457 0 0 1-.396.685"/></g><g><path fill="#cc066f" d="M14.418 31.867a.457.457 0 0 1-.33-.14 14.313 14.313 0 0 1-4.008-9.963c0-7.931 6.453-14.384 14.384-14.384s14.384 6.453 14.384 14.384c0 2.28-.546 4.55-1.58 6.56a.458.458 0 0 1-.813-.417 13.313 13.313 0 0 0 1.479-6.143c0-7.427-6.043-13.47-13.47-13.47-7.427 0-13.47 6.043-13.47 13.47 0 3.496 1.333 6.81 3.754 9.329a.457.457 0 0 1-.33.774"/></g><g><path fill="#cc066f" d="M15.467 47.615a.457.457 0 0 1-.457-.457v-9.56a.457.457 0 1 1 .914 0v9.56a.457.457 0 0 1-.457.457"/></g><g><path fill="#cc066f" d="M12.447 40.779a.457.457 0 0 1-.457-.458v-2.114a.457.457 0 0 1 .914 0v2.114a.457.457 0 0 1-.457.458"/></g><g><path fill="#fff" d="M5.827 10.13a1.787 1.787 0 1 1 0 3.575 1.787 1.787 0 0 1 0-3.575"/></g><g><path fill="#cc066f" d="M5.835 14.17a2.247 2.247 0 0 1-2.245-2.245A2.247 2.247 0 0 1 5.835 9.68a2.247 2.247 0 0 1 2.244 2.245 2.247 2.247 0 0 1-2.244 2.244m0-3.577a1.333 1.333 0 0 0 0 2.665 1.333 1.333 0 0 0 0-2.665"/></g><g><path fill="#cc066f" d="M43.657 5.445a.456.456 0 0 1-.323-.78l1.408-1.41a.457.457 0 1 1 .646.645L43.98 5.31a.456.456 0 0 1-.323.135"/></g><g><path fill="#cc066f" d="M18.815 34.996a.453.453 0 0 1-.128-.019c-1.912-.558-2.706-1.417-2.739-1.453a.457.457 0 0 1 .676-.616c.016.017.691.717 2.32 1.191a.457.457 0 0 1-.129.897"/></g><g><path fill="#cc066f" d="M2.272 10.45a.456.456 0 0 1-.19-.042L.269 9.583a.457.457 0 0 1 .379-.832l1.814.825a.457.457 0 0 1-.19.874"/></g><g><path fill="#fff" d="M38.359 7.093l3.095-.54a.216.216 0 0 1 .247.263l-.76 3.212a.215.215 0 0 1-.372.091l-2.336-2.672a.216.216 0 0 1 .126-.354"/></g><g><path fill="#cc066f" d="M40.233 10.418l-2.337-2.672a.673.673 0 0 1 .39-1.106h.001l3.095-.54a.675.675 0 0 1 .771.814l-.76 3.216a.67.67 0 0 1-1.16.288zm-1.366-2.95l1.745 1.995.567-2.4z"/></g></g></g></svg>