<svg xmlns="http://www.w3.org/2000/svg" width="52" height="48" viewBox="0 0 52 48"><g><g><g><path fill="#cc066f" d="M43.821 38.511H.471a.47.47 0 0 1 0-.941h43.35a.47.47 0 0 1 0 .941"/></g><g><path fill="#cc066f" d="M49.52 38.511h-2.94a.47.47 0 0 1 0-.941h2.94a.47.47 0 0 1 0 .941"/></g><g><path fill="#cc066f" d="M7.353 31.25a4.518 4.518 0 0 1-4.513-4.513V5.603A4.518 4.518 0 0 1 7.353 1.09h27.816a4.518 4.518 0 0 1 4.513 4.513v21.134a4.475 4.475 0 0 1-1.319 3.189 4.484 4.484 0 0 1-3.194 1.324zm0-29.219A3.576 3.576 0 0 0 3.78 5.603v21.134a3.576 3.576 0 0 0 3.572 3.572h27.816a3.55 3.55 0 0 0 2.528-1.048 3.542 3.542 0 0 0 1.044-2.523V5.603A3.576 3.576 0 0 0 35.17 2.03z"/></g><g><path fill="#cc066f" d="M21.96 38.192a.47.47 0 0 1-.47-.47V30.78a.47.47 0 0 1 .941 0v6.94c0 .26-.21.471-.47.471"/></g><g><path fill="#cc066f" d="M38.59 26.741H3.62a.47.47 0 0 1 0-.941h34.97a.47.47 0 0 1 0 .941"/></g><g><path fill="#cc066f" d="M10.2 28.861H7.79a.47.47 0 0 1 0-.941h2.41a.47.47 0 0 1 0 .941"/></g><g><path fill="#fff" d="M43.471 19.765H26.645a1.995 1.995 0 0 1-1.995-1.996v-7.614c0-1.103.894-1.995 1.995-1.995h16.826c1.104 0 1.995.894 1.995 1.995v7.612a1.994 1.994 0 0 1-1.995 1.998"/></g><g><path fill="#cc066f" d="M26.646 20.155a2.388 2.388 0 0 1-2.386-2.385v-7.614a2.388 2.388 0 0 1 2.386-2.386h16.826a2.388 2.388 0 0 1 2.385 2.386v7.611a2.366 2.366 0 0 1-.696 1.688c-.45.452-1.05.7-1.69.7zm0-11.604c-.885 0-1.605.72-1.605 1.605v7.614c0 .885.72 1.605 1.605 1.605h16.826c.43 0 .833-.168 1.136-.472a1.59 1.59 0 0 0 .468-1.135v-7.612c0-.885-.72-1.605-1.604-1.605z"/></g><g><path fill="#cc066f" d="M35.096 11.66H27.87a.39.39 0 0 1 0-.78h7.226a.39.39 0 0 1 0 .78"/></g><g><path fill="#cc066f" d="M37.739 14.69H27.87a.39.39 0 0 1 0-.78h9.868a.39.39 0 0 1 0 .78"/></g><g><path fill="#cc066f" d="M43.56 2.8a.39.39 0 0 1-.354-.554l.932-2.02a.39.39 0 1 1 .709.328l-.932 2.019a.39.39 0 0 1-.355.227"/></g><g><path fill="#cc066f" d="M48.33 7.125a.39.39 0 0 1-.206-.722l2.073-1.294a.39.39 0 0 1 .413.662l-2.073 1.295a.39.39 0 0 1-.206.059"/></g><g><path fill="#cc066f" d="M49 13.442a.39.39 0 0 1-.008-.78l2.331-.052a.39.39 0 0 1 .018.78l-2.332.052H49"/></g><g><path fill="#cc066f" d="M24.6 13.841H12.71a.47.47 0 0 1 0-.941H24.6a.47.47 0 0 1 0 .941"/></g><g><path fill="#cc066f" d="M24.601 17.651h-7.07a.47.47 0 0 1 0-.941h7.07a.47.47 0 0 1 0 .941"/></g><g><path fill="#fff" d="M5.173 41.115l-3.47 5.144a.537.537 0 0 0 .444.838h38.829c.435 0 .689-.492.437-.848l-3.642-5.143a.538.538 0 0 0-.438-.226H5.618a.527.527 0 0 0-.445.235"/></g><g><path fill="#cc066f" d="M2.147 47.568a1.008 1.008 0 0 1-.836-1.57l3.471-5.144a.994.994 0 0 1 .83-.444h31.721c.325 0 .631.158.82.423l3.644 5.145c.219.309.247.71.073 1.045a1.003 1.003 0 0 1-.894.545zm3.47-6.217a.06.06 0 0 0-.052.026l-.002.002-3.47 5.144a.062.062 0 0 0-.004.069c.019.034.047.034.058.034h38.829c.01 0 .04 0 .058-.035a.061.061 0 0 0-.005-.07l-3.642-5.143a.066.066 0 0 0-.054-.027z"/></g><g><path fill="#cc066f" d="M28.384 44.431H3.67a.47.47 0 0 1 0-.941h24.713a.47.47 0 0 1 0 .941"/></g><g><path fill="#cc066f" d="M30.199 47.329a.47.47 0 0 1-.42-.258l-2.798-5.518a.47.47 0 0 1 .84-.425l2.797 5.517a.47.47 0 0 1-.419.684"/></g><g><path fill="#cc066f" d="M7.97 47.094a.47.47 0 0 1-.43-.66l2.484-5.672a.47.47 0 0 1 .862.377l-2.484 5.673a.471.471 0 0 1-.432.282"/></g><g><path fill="#cc066f" d="M23.434 47.327a.47.47 0 0 1-.447-.323l-1.943-5.906a.47.47 0 0 1 .894-.295l1.943 5.907a.47.47 0 0 1-.447.617"/></g><g><path fill="#cc066f" d="M15.9 47.254a.47.47 0 0 1-.47-.47V41.11a.47.47 0 0 1 .941 0v5.673c0 .26-.21.47-.47.47"/></g><g><path fill="#fff" d="M46.122 41.94c1.73 0 3.132.84 3.132 1.878 0 1.037-1.402 1.877-3.132 1.877-1.73 0-3.132-.84-3.132-1.877s1.402-1.878 3.132-1.878"/></g><g><path fill="#cc066f" d="M46.123 46.166c-2.02 0-3.603-1.031-3.603-2.348 0-1.316 1.583-2.348 3.603-2.348 2.02 0 3.602 1.032 3.602 2.348 0 1.317-1.582 2.348-3.602 2.348m0-3.755c-1.568 0-2.66.744-2.66 1.412 0 .668 1.092 1.412 2.66 1.412 1.567 0 2.66-.744 2.66-1.412 0-.668-1.093-1.412-2.66-1.412"/></g><g><path fill="#cc066f" d="M43.564 43.211H39.29a.47.47 0 0 1 0-.941h4.273a.47.47 0 0 1 0 .941"/></g><g><path fill="#cc066f" d="M46.12 43.912a.47.47 0 0 1-.47-.47V41.94a.47.47 0 0 1 .941 0v1.5c0 .26-.21.471-.47.471"/></g></g></g></svg>