<svg xmlns="http://www.w3.org/2000/svg" width="54" height="48" viewBox="0 0 54 48"><g><g><g><path fill="#fff" d="M20.896.4c7.106 0 12.867 5.76 12.867 12.866s-5.76 12.867-12.867 12.867c-7.106 0-12.866-5.76-12.866-12.867C8.03 6.16 13.79.4 20.896.4"/></g><g><path fill="#cc066f" d="M20.895 26.53c-7.314 0-13.265-5.951-13.265-13.265C7.63 5.95 13.58 0 20.895 0c7.314 0 13.264 5.95 13.264 13.265 0 7.314-5.95 13.264-13.264 13.264M20.89.796C14.017.796 8.426 6.387 8.426 13.26c0 6.872 5.591 12.463 12.464 12.463 6.872 0 12.463-5.591 12.463-12.463C33.353 6.387 27.762.796 20.89.796"/></g><g><path fill="#cc066f" d="M44.528 12.857a.398.398 0 0 1-.361-.565l1.104-2.39a.397.397 0 1 1 .723.333l-1.104 2.39a.398.398 0 0 1-.362.232"/></g><g><path fill="#cc066f" d="M50.169 17.968a.398.398 0 0 1-.212-.736l2.45-1.531a.398.398 0 1 1 .423.675l-2.45 1.531a.397.397 0 0 1-.211.06"/></g><g><path fill="#cc066f" d="M50.958 25.45a.398.398 0 0 1-.009-.797l2.758-.062c.218-.015.402.169.407.389a.398.398 0 0 1-.39.407l-2.757.062h-.01"/></g><g><path fill="#fff" d="M39.714 35.315l.015 3.705c.002.814-.5 1.541-1.258 1.831L21.208 47.46a1.954 1.954 0 0 1-1.37.01L1.684 40.837A1.953 1.953 0 0 1 .4 39V9.808c0-1.333 1.3-2.275 2.568-1.858l16.934 5.568c.404.132.84.13 1.244-.007L37.06 8.08a1.955 1.955 0 0 1 2.587 1.845l.012 4.388"/></g><g><path fill="#cc066f" d="M20.507 47.985c-.274 0-.548-.048-.809-.144l-18.152-6.63A2.36 2.36 0 0 1 0 38.997V9.807c0-.765.355-1.46.974-1.908a2.33 2.33 0 0 1 2.117-.328l16.934 5.568c.32.105.671.102.99-.006L36.93 7.702a2.33 2.33 0 0 1 2.129.312c.624.446.983 1.142.985 1.91l.012 4.386c0 .22-.177.399-.397.4h-.001a.398.398 0 0 1-.399-.397l-.012-4.388a1.538 1.538 0 0 0-.65-1.263 1.541 1.541 0 0 0-1.41-.206l-15.915 5.43a2.377 2.377 0 0 1-1.495.01L2.842 8.326a1.543 1.543 0 0 0-1.401.217c-.41.296-.644.757-.644 1.263v29.191c0 .654.41 1.242 1.021 1.464l18.155 6.631c.351.13.739.127 1.092-.007l17.262-6.607a1.565 1.565 0 0 0 1.002-1.458l-.015-3.705c0-.22.177-.4.397-.4h.002c.219 0 .397.177.398.396l.014 3.706a2.365 2.365 0 0 1-1.513 2.204L21.348 47.83a2.369 2.369 0 0 1-.841.155"/></g><g><path fill="#cc066f" d="M20.528 47.48a.398.398 0 0 1-.398-.398V13.998a.398.398 0 0 1 .796 0v33.084c0 .22-.178.398-.398.398"/></g><g><path fill="#cc066f" d="M11.795 17.155a.403.403 0 0 1-.13-.022L4.68 14.745a.398.398 0 1 1 .258-.753l6.987 2.388a.398.398 0 0 1-.13.775"/></g><g><path fill="#cc066f" d="M9.477 19.41a.39.39 0 0 1-.124-.02l-4.779-1.563a.398.398 0 1 1 .248-.757L9.6 18.633a.398.398 0 0 1-.123.776"/></g><g><path fill="#fff" d="M37.57 15.93a8.5 8.5 0 1 1 0 17.002 8.5 8.5 0 0 1 0-17.002"/></g><g><path fill="#cc066f" d="M37.569 33.328c-4.907 0-8.899-3.992-8.899-8.899 0-4.907 3.992-8.899 8.899-8.899 4.907 0 8.899 3.992 8.899 8.899 0 4.907-3.992 8.899-8.899 8.899m-.005-17.002c-4.465 0-8.098 3.633-8.098 8.098 0 4.465 3.633 8.097 8.098 8.097 4.465 0 8.098-3.632 8.098-8.097s-3.633-8.098-8.098-8.098"/></g><g><path fill="#fff" d="M40.02 32.724l8.295 11.812a1.418 1.418 0 0 0 2.356-1.581L44.064 32.63"/></g><g><path fill="#cc066f" d="M49.49 45.533c-.574 0-1.14-.269-1.493-.77L39.702 32.95a.398.398 0 1 1 .652-.457l8.294 11.813c.32.453.952.568 1.409.257.46-.313.586-.926.287-1.396l-6.607-10.324a.398.398 0 0 1 .67-.43l6.608 10.325a1.81 1.81 0 0 1-.51 2.483c-.31.211-.664.312-1.015.312"/></g><g><path fill="#fff" d="M33.39 26.316l1.505 1.505a.61.61 0 0 0 .857.005l5.91-5.796"/></g><g><path fill="#cc066f" d="M35.322 28.394c-.258 0-.516-.098-.71-.293l-1.505-1.505a.398.398 0 1 1 .563-.563l1.504 1.505c.081.08.215.082.299 0l5.91-5.794a.398.398 0 1 1 .557.569l-5.912 5.796c-.195.19-.45.285-.705.285"/></g><g><path fill="#cc066f" d="M23.828 41.781a.398.398 0 0 1-.132-.773l8.7-3.065a.397.397 0 1 1 .265.75l-8.7 3.066a.392.392 0 0 1-.133.022"/></g><g><path fill="#fff" d="M3.748 33.385l-.017 4.48a.695.695 0 0 0 .451.685l5.887 2.153a.691.691 0 0 0 .927-.605l.177-4.863a.689.689 0 0 0-.501-.708l-6.05-1.77a.69.69 0 0 0-.874.628"/></g><g><path fill="#cc066f" d="M10.316 41.142c-.126 0-.253-.022-.376-.067l-5.886-2.153a1.09 1.09 0 0 1-.713-1.077l.017-4.483a1.087 1.087 0 0 1 1.38-.99l6.054 1.771c.488.138.82.609.787 1.117l-.177 4.85a1.089 1.089 0 0 1-1.086 1.032m-6.162-7.746l-.017 4.463a.302.302 0 0 0 .192.309l5.876 2.149a.294.294 0 0 0 .392-.258l.177-4.843a.296.296 0 0 0-.212-.31l-6.045-1.77a.293.293 0 0 0-.363.26"/></g><g><path fill="#fff" d="M20.248.58s-5.974 4.226-5.422 10.934"/></g><g><path fill="#cc066f" d="M14.824 11.91a.398.398 0 0 1-.396-.365C13.864 4.69 19.765.431 20.016.253a.398.398 0 0 1 .46.65c-.057.041-5.78 4.181-5.255 10.577a.398.398 0 0 1-.397.43"/></g><g><path fill="#fff" d="M22.24.58s5.974 4.226 5.422 10.934"/></g><g><path fill="#cc066f" d="M27.66 11.91h-.033a.398.398 0 0 1-.364-.43C27.79 5.073 22.066.944 22.008.903a.398.398 0 1 1 .46-.65c.252.178 6.153 4.437 5.589 11.292a.398.398 0 0 1-.397.366"/></g><g><path fill="#cc066f" d="M21.168 13.658a.398.398 0 0 1-.398-.398V.578a.398.398 0 0 1 .796 0V13.26c0 .22-.178.398-.398.398"/></g><g><path fill="#cc066f" d="M20.504 9.493c-6.469 0-11.15-1.536-11.223-1.56a.398.398 0 0 1 .254-.755c.109.036 11.008 3.606 22.467-.316a.398.398 0 1 1 .258.753c-4.145 1.419-8.218 1.878-11.756 1.878"/></g><g><path fill="#cc066f" d="M23.388 38.566a.398.398 0 0 1-.123-.777l3.17-1.03a.399.399 0 0 1 .247.758l-3.17 1.03a.4.4 0 0 1-.124.019"/></g></g></g></svg>