<svg xmlns="http://www.w3.org/2000/svg" width="227" height="248" viewBox="0 0 227 248"><defs><linearGradient id="beyxa" x1="115.11" x2="52.39" y1="14.55" y2="14.55" gradientUnits="userSpaceOnUse"><stop offset="0" stop-color="#ff933d"/><stop offset="1" stop-color="#ff29a4"/></linearGradient><linearGradient id="beyxb" x1="31.09" x2="-6.61" y1="141.61" y2="141.61" gradientUnits="userSpaceOnUse"><stop offset="0" stop-color="#ff933d"/><stop offset="1" stop-color="#ff29a4"/></linearGradient><linearGradient id="beyxc" x1="243.95" x2="191.48" y1="68.81" y2="68.81" gradientUnits="userSpaceOnUse"><stop offset="0" stop-color="#ff933d"/><stop offset="1" stop-color="#ff29a4"/></linearGradient><linearGradient id="beyxd" x1="134.42" x2="83.96" y1="107.93" y2="107.93" gradientUnits="userSpaceOnUse"><stop offset="0" stop-color="#ff933d"/><stop offset="1" stop-color="#ff29a4"/></linearGradient><linearGradient id="beyxe" x1="125.98" x2="81.84" y1="221.01" y2="221.01" gradientUnits="userSpaceOnUse"><stop offset="0" stop-color="#ff933d"/><stop offset="1" stop-color="#ff29a4"/></linearGradient><linearGradient id="beyxf" x1="213.97" x2="164.48" y1="165.2" y2="165.2" gradientUnits="userSpaceOnUse"><stop offset="0" stop-color="#ff933d"/><stop offset="1" stop-color="#ff29a4"/></linearGradient></defs><g><g transform="rotate(-30 113.5 124)"><g opacity=".4"><g opacity=".4"><path fill="url(#beyxa)" d="M63.727 11.997a5.821 5.821 0 0 1 5.821-5.821h26.46a5.821 5.821 0 0 1 5.822 5.821v.986l11.355-4.42a.53.53 0 0 0-.01-.99L84.007-3.056a4.234 4.234 0 0 0-2.808-.032L53.275 6.377a.53.53 0 0 0-.061.978l10.513 5.095zm19.684 21.466l-.633.003-.632-.003c-10.291-.08-18.419-2.112-18.419-5.025V13.626l-7.01-3.397v8.264l2.756 5.2-.935.495-2.434-4.593-3.628 4.67-.836-.65 4.019-5.172V9.716l-2.907-1.409a1.588 1.588 0 0 1 .183-2.932L80.859-4.09a5.292 5.292 0 0 1 3.51.04l29.168 10.628a1.588 1.588 0 0 1 .032 2.971l-11.547 4.495-.192-.493v14.887c0 2.913-8.128 4.945-18.419 5.025zm-1.265-10.05l.632-.002.633.002c8.089.063 14.84 1.332 17.36 3.286V11.997a4.763 4.763 0 0 0-4.763-4.763h-26.46a4.763 4.763 0 0 0-4.762 4.763v.966l.23.111-.23.477v13.148c2.52-1.954 9.271-3.223 17.36-3.286zm1.223 1.059l-.59-.003-.59.003c-9.602.076-17.403 2.01-17.403 3.966 0 1.957 7.8 3.89 17.402 3.967l.59.002.59-.002c9.602-.077 17.403-2.01 17.403-3.967 0-1.956-7.8-3.89-17.402-3.966z"/></g><g opacity=".4" transform="rotate(-10 33.5 197)"><path fill="url(#beyxb)" d="M17.05 156.583c-.175 0-.35-.009-.521-.025l3.579 5.987.553-2.509a.416.416 0 0 1 .407-.326h2.578l-2.633-4.85a5.4 5.4 0 0 1-3.962 1.723zm-1.595-.217a.421.421 0 0 1-.017-.03 5.422 5.422 0 0 1-2.712-1.922L9.85 159.71h2.578c.196 0 .365.135.407.326l.553 2.51 2.88-4.818zm1.6-10.594a5.406 5.406 0 0 1 4.52 8.375l3.135 5.78a.416.416 0 0 1-.366.614h-2.94l-.707 3.207a.416.416 0 0 1-.764.124l-3.185-5.333-3.185 5.333a.416.416 0 0 1-.763-.124l-.707-3.207h-2.94a.416.416 0 0 1-.366-.614l3.275-6.037a.414.414 0 0 1 .21-.188 5.406 5.406 0 0 1 4.783-7.93zm0 .831a4.576 4.576 0 0 0-4.578 4.574 4.576 4.576 0 0 0 4.578 4.574c1.468 0 2.774-.69 3.612-1.763a.415.415 0 0 1 .184-.253 4.576 4.576 0 0 0-3.796-7.131zm-17.55-1.59c0-.23.187-.416.417-.416h7.456a.416.416 0 1 1 0 .832H-.078a.416.416 0 0 1-.416-.416zm0-5.575c0-.23.187-.415.417-.415h23.242a.416.416 0 1 1 0 .831H-.078a.416.416 0 0 1-.416-.416zm0-5.224c0-.23.187-.416.417-.416h23.242a.416.416 0 1 1 0 .832H-.078a.416.416 0 0 1-.416-.416zm19.294-5.896h10.575l-10.575-10.801zm-.245-12.068c.112 0 .22.045.298.125l11.806 12.067c.074.075.12.178.12.292v36.58c0 .919-.745 1.664-1.663 1.664H-5.397a1.663 1.663 0 0 1-1.663-1.664v-47.4c0-.92.745-1.664 1.663-1.664zm-23.951.832a.832.832 0 0 0-.832.831v47.401c0 .46.373.832.832.832h34.512c.46 0 .831-.372.831-.832V129.15H18.39a.416.416 0 0 1-.416-.416v-11.652z"/></g><g opacity=".4" transform="rotate(49 174 28.5)"><path fill="url(#beyxc)" d="M238.614 73.1a5.717 5.717 0 0 1-5.715 5.719 5.717 5.717 0 0 1-5.716-5.72 5.717 5.717 0 0 1 5.716-5.718 5.717 5.717 0 0 1 5.715 5.719zm-15.513 0a5.717 5.717 0 0 1-5.715 5.719 5.717 5.717 0 0 1-5.716-5.72 5.717 5.717 0 0 1 5.716-5.718A5.717 5.717 0 0 1 223.1 73.1zm-15.513 0a5.717 5.717 0 0 1-5.716 5.719 5.717 5.717 0 0 1-5.715-5.72 5.717 5.717 0 0 1 5.715-5.718 5.717 5.717 0 0 1 5.716 5.719zm-15.922 15.922v-1.634c0-4.287 3.473-7.763 7.757-7.763h35.517c4.284 0 7.756 3.476 7.756 7.763v1.634zm19.844-13.07a6.573 6.573 0 0 0 2.71 2.867h-9.183a6.573 6.573 0 0 0 2.71-2.867zm15.514 0a6.573 6.573 0 0 0 2.71 2.867h-9.184a6.573 6.573 0 0 0 2.71-2.867zm12.081-.806a6.532 6.532 0 1 0-12.413 0h-3.1a6.532 6.532 0 1 0-12.413 0h-3.1a6.532 6.532 0 1 0-12.413 0h-1.142l-.088-.002a2.041 2.041 0 0 1-1.953-2.04V50.648l.002-.089a2.041 2.041 0 0 1 2.04-1.953h45.314l.088.002a2.041 2.041 0 0 1 1.953 2.04v22.456l-.002.089a2.041 2.041 0 0 1-2.04 1.953zm.734-27.356h-45.315l-.098.002a2.858 2.858 0 0 0-2.76 2.856V73.1l.002.098a2.858 2.858 0 0 0 2.856 2.76h1.473a6.56 6.56 0 0 0 2.758 2.883 8.574 8.574 0 0 0-7.905 8.547v2.45h52.663v-2.45a8.574 8.574 0 0 0-7.559-8.513 6.56 6.56 0 0 0 2.82-2.917h1.065l.098-.002a2.858 2.858 0 0 0 2.76-2.856V50.648l-.002-.099a2.858 2.858 0 0 0-2.856-2.759z"/></g><g opacity=".4" transform="rotate(30 100.5 116.5)"><path fill="url(#beyxd)" d="M95.153 114.24c0-.225.183-.408.408-.408h26.322a.408.408 0 0 1 0 .816H95.56a.408.408 0 0 1-.408-.408zm37.196-27.439c.902 0 1.633.731 1.633 1.633v29.802c0 .902-.731 1.633-1.633 1.633h-14.695l4.617 13.477a.408.408 0 0 1-.772.265l-4.708-13.742h-7.66v9.344a.408.408 0 0 1-.817 0v-9.344h-7.612l-4.757 13.743a.408.408 0 1 1-.772-.267l4.665-13.476H84.993a1.633 1.633 0 0 1-1.633-1.633V88.434c0-.902.731-1.633 1.633-1.633h23.27v-4.423a.408.408 0 0 1 .816 0v4.423zm0 .817H84.993a.816.816 0 0 0-.816.816v29.802c0 .45.365.816.816.816H132.35c.45 0 .816-.365.816-.816V88.434a.816.816 0 0 0-.816-.816z"/></g><g opacity=".4" transform="rotate(30 152.5 217)"><path fill="url(#beyxe)" d="M110.837 207.906a3.57 3.57 0 0 1-3.568 3.572 3.57 3.57 0 0 1-3.568-3.572 3.57 3.57 0 0 1 3.568-3.572 3.57 3.57 0 0 1 3.568 3.572zm-3.81 36.435h1.582l2.477 6.192H82.535l2.89-6.192zm-.187-40.94a4.525 4.525 0 0 0-2.745 7.732l-.06-.022-6.99 19.211a.476.476 0 0 1-.558.301l-.066-.02-6.324-2.404a.476.476 0 0 1-.278-.608l13.028-35.805a.476.476 0 0 1 .557-.3l.066.02 6.324 2.404a.476.476 0 0 1 .278.608zm-2.01 8.317a4.526 4.526 0 0 0 6.88-2.946 17.63 17.63 0 0 1 12.942 16.994c0 9.727-7.88 17.612-17.603 17.623H85.12a.476.476 0 0 0-.432.275l-3.334 7.144a.476.476 0 0 0 .432.677h30.005c.337 0 .568-.34.443-.653l-2.666-6.663c9.058-1.238 16.036-9.006 16.036-18.403 0-8.488-5.74-15.825-13.814-17.958a4.526 4.526 0 0 0-3.94-4.39l3.12-8.574a1.429 1.429 0 0 0-.835-1.825l-6.351-2.412a1.429 1.429 0 0 0-1.832.854l-13.031 35.804a1.429 1.429 0 0 0 .835 1.824l6.351 2.413a1.429 1.429 0 0 0 1.831-.854z"/></g><g opacity=".4" transform="rotate(50 197.5 128)"><path fill="url(#beyxf)" d="M180.555 146.836l-.284.132c-3.054 1.413-7.774 2.57-14.17 3.479l-.692.096-.705.095v33.475c3.005-.05 5.573-.659 8.675-1.85l.388-.152c.385-.156 2.37-.96 3.214-1.278l.217-.08c1.223-.436 2.173-.65 3.06-.65 2.355 0 5.038 1.193 8.059 3.56v-33.291c-2.24-3.745-4.789-4.885-7.762-3.536zm16.686-.74l.285.133c3.127 1.446 8.122 2.634 14.975 3.553l.703.093c.203.026.355.2.355.405v34.244a.408.408 0 0 1-.407.408c-3.298 0-6.048-.63-9.376-1.909l-.366-.143c-.353-.142-2.784-1.128-3.429-1.358l-.188-.066c-1.05-.363-1.865-.537-2.599-.537-2.29 0-5.01 1.28-8.146 3.862a.415.415 0 0 1-.323.152.415.415 0 0 1-.324-.152c-3.137-2.582-5.857-3.862-8.146-3.862-.734 0-1.548.174-2.6.537l-.187.066c-.645.23-3.076 1.216-3.429 1.358l-.366.143c-3.328 1.279-6.078 1.91-9.376 1.91a.408.408 0 0 1-.407-.409V150.28c0-.206.152-.379.355-.405l.703-.093c6.853-.92 11.848-2.107 14.975-3.553l.285-.133c3.26-1.485 6.133-.319 8.517 3.396 2.383-3.715 5.255-4.88 8.516-3.396zm-.05 34.007c.888 0 1.837.214 3.06.65l.217.08c.845.319 2.83 1.122 3.214 1.278l.388.152c3.102 1.191 5.67 1.8 8.675 1.85v-33.475l-.704-.095-.692-.096c-6.397-.909-11.117-2.066-14.17-3.479l-.285-.132c-2.973-1.35-5.522-.21-7.761 3.536v33.291c3.02-2.367 5.703-3.56 8.058-3.56z"/></g></g></g></g></svg>