<?xml version="1.0" encoding="UTF-8"?>
<svg width="316px" height="316px" viewBox="0 0 316 316" version="1.1" xmlns="http://www.w3.org/2000/svg" xmlns:xlink="http://www.w3.org/1999/xlink">
    <!-- Generator: Sketch 60 (88103) - https://sketch.com -->
    <title>Group 85</title>
    <desc>Created with Sketch.</desc>
    <g id="Careers" stroke="none" stroke-width="1" fill="none" fill-rule="evenodd">
        <g id="01_Careers" transform="translate(-256.000000, -2268.000000)">
            <g id="Group-85" transform="translate(256.000000, 2268.000000)">
                <circle id="Oval-Copy-11" fill="none" fill-rule="nonzero" cx="158" cy="158" r="158"></circle>
                <g id="Group-79" opacity="0.255743118" transform="translate(24.000000, 22.000000)" fill="#FFFFFF">
                    <g id="Group-3" transform="translate(181.000000, 237.500000) rotate(-23.000000) translate(-181.000000, -237.500000) translate(158.000000, 208.000000)">
                        <path d="M42.1539076,52.4185558 L38.2306475,53.8508811 C38.0451127,53.9185099 37.8585471,53.9825137 37.6723251,54.0476503 C37.101061,51.6224167 35.4446472,45.4455421 32.4361197,40.6684811 C32.1016989,40.1374196 31.3954067,39.9752012 30.8585009,40.3058685 C30.3215952,40.6367624 30.157477,41.3353665 30.4918978,41.8665413 C33.3734142,46.4417354 34.9848186,52.6178171 35.4839302,54.7541841 C30.0896766,56.3421575 24.4635045,56.9087892 18.9031857,56.4564581 C18.9493404,55.2829799 19.1920245,53.1820699 20.2311341,51.0843318 C20.5094364,50.5224579 20.2745401,49.8437913 19.7065974,49.5682918 C19.1387692,49.2931322 18.4526338,49.5253583 18.1741025,50.087119 C17.0046604,52.4481222 16.6919998,54.7914535 16.6213363,56.2143765 C14.040226,55.8730608 11.4827084,55.3096009 8.97844624,54.5250165 C9.54581635,51.3189369 11.7748685,40.5977937 17.0687959,34.5895945 C17.4843023,34.1178923 17.4347118,33.4025226 16.9578186,32.9911992 C16.4810399,32.5802156 15.7575685,32.6294929 15.3418331,33.1010818 C9.7980063,39.3931633 7.4646194,50.0001191 6.78191991,53.7760024 L3.06320622,52.4184425 C2.59868196,52.2488608 2.32679326,51.7754594 2.41692654,51.2928822 C4.40203477,40.6547741 8.60485695,34.2992553 11.781053,30.8408987 C14.4350029,27.9508731 16.8332125,26.5468681 17.795474,26.0540956 C19.318234,26.7425044 20.9562089,27.087785 22.5947563,27.087785 C24.2388012,27.087785 25.8822733,26.7400122 27.4093854,26.0469589 C29.5943444,27.1602848 39.4053579,33.099949 42.8001873,51.2928822 C42.8903206,51.7755727 42.6184319,52.2488608 42.1539076,52.4185558 M13.6268956,10.5753758 C13.6268956,9.61271363 14.1939221,8.75449655 15.0739528,8.2019117 C15.1138085,8.18095471 15.1521752,8.15761881 15.1890531,8.13224386 C15.8096786,7.77223675 16.5718603,7.55915514 17.3953143,7.55915514 C19.3817969,7.55915514 21.0338586,8.80128162 21.1564032,10.3875559 C21.2137816,11.1279607 21.8457453,11.7080728 22.5948709,11.7080728 C23.3441109,11.7080728 23.9761892,11.1279607 24.0335676,10.387216 C24.1561122,8.80128162 25.8082885,7.55915514 27.7946565,7.55915514 C28.6061996,7.55915514 29.3580738,7.76611958 29.9737746,8.11672436 C30.024854,8.15342742 30.0787965,8.18605235 30.1356022,8.21414605 C31.0042947,8.76695747 31.5629607,9.61894408 31.5629607,10.57345 C31.5625026,10.6359812 31.3030974,16.9790391 26.7967768,23.657862 C26.7403147,23.7415767 26.683738,23.8251781 26.6259015,23.909006 C25.7489631,24.3287122 24.8207163,24.603532 23.8767792,24.7339185 C24.1171728,24.4216027 24.3661559,24.0608026 24.6004796,23.657862 C24.9170341,23.1137732 25.206331,22.4926533 25.4091595,21.806057 C25.5865629,21.205441 25.2380551,20.5765047 24.6309439,20.4010324 C24.0237182,20.2256734 23.3878605,20.570161 23.2105717,21.170777 C22.8999726,22.2227046 22.2950374,23.0907771 21.8149374,23.6577487 C21.4340183,24.1078142 21.1317798,24.3683606 21.1182655,24.379802 C21.0197717,24.4623838 20.9399459,24.5585594 20.8770702,24.6623249 C20.083737,24.5143798 19.3054069,24.2636889 18.5638402,23.9087795 C18.5061183,23.8250648 18.4495416,23.7413501 18.3930794,23.6577487 C13.8867589,16.9792656 13.6274683,10.6360944 13.6268956,10.5753758 M45.0528322,50.8816721 C44.1283648,45.927213 42.6626396,41.4259913 40.6968865,37.502956 C39.113885,34.3440013 37.2042505,31.5495848 35.0208948,29.1974176 C32.6019558,26.5912742 30.3836692,25.1058201 29.0687769,24.3609973 C33.7173408,17.1638004 33.8533997,10.6422116 33.8533997,10.5752625 C33.8533997,8.99703124 33.0545691,7.57943244 31.7916724,6.61076637 L31.7916724,2.00702536 C31.7916724,1.38148752 31.278932,0.874215071 30.6463957,0.874215071 C30.0140884,0.874215071 29.5011189,1.38148752 29.5011189,2.00702536 L29.5011189,5.50808883 C28.9595175,5.36920629 28.3872227,5.293308 27.794542,5.293308 C25.6028258,5.293308 23.6595202,6.32246615 22.5948709,7.86671313 C21.5303361,6.32223959 19.5868014,5.293308 17.3951998,5.293308 C16.8004576,5.293308 16.2259867,5.36965942 15.6823238,5.50956149 L15.6823238,2.00702536 C15.6823238,1.38148752 15.1695834,0.874215071 14.5370471,0.874215071 C13.9045107,0.874215071 13.3917703,1.38148752 13.3917703,2.00702536 L13.3917703,6.61541089 C12.132653,7.58396368 11.336113,8.9996367 11.336113,10.5752625 C11.336113,10.6422116 11.4722864,17.1707106 16.1280656,24.3724387 C14.8108827,25.1207732 12.6029036,26.6045281 10.196219,29.1974176 C8.01286339,31.5496981 6.10334342,34.3441145 4.52034186,37.502956 C2.55435975,41.4258781 1.08886359,45.9270997 0.164281648,50.8816721 C-0.128680151,52.4514073 0.756962379,53.9918027 2.27010205,54.544161 L6.19336218,55.9762598 C6.55973622,56.1100447 6.92771364,56.2381655 7.29660729,56.3625481 C7.3086327,56.3669661 7.32100169,56.3707043 7.33325615,56.3745559 C10.667844,57.496831 14.0998949,58.2409741 17.5640136,58.6069851 C17.6189869,58.616614 17.67522,58.6220515 17.7323693,58.6235242 C19.353394,58.7890277 20.9808323,58.8742151 22.6084997,58.8742151 C28.1696201,58.8742151 33.7308551,57.9082677 39.0236372,55.9762598 L42.9468973,54.544161 C44.460266,53.9918027 45.345794,52.4514073 45.0528322,50.8816721" id="Fill-1"></path>
                    </g>
                    <g id="Group-8" transform="translate(148.500000, 41.000000) rotate(20.000000) translate(-148.500000, -41.000000) translate(117.000000, 9.000000)">
                        <path d="M53.7471254,30.1294394 L47.3654915,23.7478056 L45.9315761,25.1817211 L48.6767028,27.9268479 L48.6767028,52.8591296 L41.5781113,52.8591296 C41.0180831,52.8591296 40.5640268,53.3131859 40.5640268,53.8732141 L40.5640268,60.9718056 L31.4109,60.9718056 C33.0987169,58.7851859 32.6944775,55.6444394 30.5079845,53.9564958 C30.4713507,53.9282282 30.4343366,53.9004676 30.3968155,53.8732141 C32.6370549,52.2363549 33.1262239,49.0933268 31.4893648,46.8529606 C31.1837451,46.4346507 30.8152521,46.0661577 30.3968155,45.760538 C32.6455479,44.1058056 33.1269845,40.9413549 31.4721254,38.6927493 C30.5153366,37.3925662 28.9950972,36.6275662 27.3809282,36.6337775 L14.1978296,36.6337775 L14.1978296,27.9268479 L16.9429563,25.1817211 L15.5090408,23.7478056 L9.12740704,30.1294394 L2.44864648,23.4506789 L11.6484211,14.2509042 L21.3836324,12.4813268 C22.0468437,16.8783972 26.3019423,20.2816648 31.435238,20.2816648 C36.5685338,20.2816648 40.8236324,16.8783972 41.4868437,12.4813268 L51.2220549,14.2509042 L60.4258859,23.4506789 L53.7471254,30.1294394 Z M42.5921958,59.5378901 L42.5921958,54.8872986 L47.2427873,54.8872986 L42.5921958,59.5378901 Z M27.3809282,60.9718056 L25.3527592,60.9718056 L5.07106901,60.9718056 C3.39085775,60.9718056 2.02881549,59.6097634 2.02881549,57.9295521 C2.02881549,56.2493408 3.39085775,54.8872986 5.07106901,54.8872986 L27.3809282,54.8872986 C29.0611394,54.8872986 30.4231817,56.2493408 30.4231817,57.9295521 C30.4231817,59.6097634 29.0611394,60.9718056 27.3809282,60.9718056 L27.3809282,60.9718056 Z M2.02881549,49.8168761 C2.02881549,48.1366648 3.39085775,46.7746225 5.07106901,46.7746225 L27.3809282,46.7746225 C29.0611394,46.7746225 30.4231817,48.1366648 30.4231817,49.8168761 C30.4231817,51.4970873 29.0611394,52.8591296 27.3809282,52.8591296 L5.07106901,52.8591296 C3.39085775,52.8591296 2.02881549,51.4969606 2.02881549,49.8168761 L2.02881549,49.8168761 Z M2.02881549,41.7042 C2.02881549,40.0239887 3.39085775,38.6619465 5.07106901,38.6619465 L27.3809282,38.6619465 C29.0611394,38.6619465 30.4231817,40.0239887 30.4231817,41.7042 C30.4231817,43.3844113 29.0611394,44.7464535 27.3809282,44.7464535 L5.07106901,44.7464535 C3.39085775,44.7464535 2.02881549,43.3842845 2.02881549,41.7042 L2.02881549,41.7042 Z M31.4372662,12.3261718 L38.8116887,14.1697775 C37.2832099,16.7750873 34.4565761,18.3403268 31.4372662,18.2534958 C28.4179563,18.3403268 25.5913225,16.7750873 24.0628437,14.1697775 L31.4372662,12.3261718 Z M62.5767592,22.7337211 L52.4359141,12.5928761 C52.2900127,12.4473549 52.1032944,12.3497493 51.9006042,12.3129887 L40.7456746,10.2848197 C40.1945197,10.1845521 39.666562,10.5500028 39.5662944,11.101031 C39.555393,11.1606085 39.5499423,11.2210732 39.5499423,11.2816648 C39.5471535,11.6038901 39.5181254,11.9253549 39.4637451,12.2430169 L32.4513507,10.4906789 L32.4513507,10.1661718 C35.1952099,9.60614366 36.9652944,6.92781972 36.4052662,4.18408732 C35.845238,1.44035493 33.1670408,-0.329856338 30.4231817,0.230171831 C28.0627732,0.711988732 26.3673507,2.78807324 26.3668437,5.19715775 L28.3950127,5.19715775 C28.3950127,3.51694648 29.7570549,2.15490423 31.4372662,2.15490423 C33.1174775,2.15490423 34.4795197,3.51694648 34.4795197,5.19715775 C34.4795197,6.87736901 33.1174775,8.23941127 31.4372662,8.23941127 C30.877238,8.23941127 30.4231817,8.69346761 30.4231817,9.25349577 L30.4231817,10.4896648 L23.4107873,12.2430169 C23.356407,11.9253549 23.3275056,11.6038901 23.3245901,11.2816648 C23.3247169,10.980862 23.1913648,10.6956507 22.9605338,10.5028479 C22.7309704,10.3073831 22.4248437,10.2271437 22.1289845,10.2848197 L10.9740549,12.3129887 C10.771238,12.3497493 10.5845197,12.4473549 10.4386183,12.5928761 L0.297773239,22.7337211 C-0.0981,23.1297211 -0.0981,23.7716366 0.297773239,24.1676366 L8.4104493,32.2803127 C8.8064493,32.6761859 9.44836479,32.6761859 9.84436479,32.2803127 L12.1696606,29.9550169 L12.1696606,36.6337775 L5.07106901,36.6337775 C2.27916761,36.6257915 0.00939295775,38.8825099 0.00128028169,41.6744113 C-0.00340985915,43.2869324 0.76146338,44.8048901 2.06025211,45.760538 C-0.179987324,47.3973972 -0.669156338,50.5404254 0.967829577,52.7806648 C1.2734493,53.1989746 1.64194225,53.5674676 2.06025211,53.8730873 C-0.188353521,55.5278197 -0.669790141,58.6922704 0.984942254,60.9408761 C1.9407169,62.239538 3.45867465,63.0044113 5.07106901,62.9998682 L41.5781113,62.9998682 C41.8470972,62.9998682 42.1049282,62.892862 42.295069,62.7027211 L50.4077451,54.5900451 C50.5954775,54.3990169 50.6991676,54.1409324 50.6957451,53.8730873 L50.7048718,53.8730873 L50.7048718,29.9550169 L53.0301676,32.2803127 C53.4261676,32.6761859 54.0680831,32.6761859 54.4640831,32.2803127 L62.5767592,24.1676366 C62.9726324,23.7716366 62.9726324,23.1295944 62.5767592,22.7337211 L62.5767592,22.7337211 Z" id="Fill-1"></path>
                    </g>
                    <g id="Group-3" transform="translate(36.000000, 180.000000) rotate(-384.000000) translate(-36.000000, -180.000000) translate(7.000000, 157.000000)">
                        <path d="M4.66303428,7.00093817 C5.49621235,5.6135945 6.53690565,4.36610092 7.76373921,3.28309134 C13.5400991,8.02407512 18.6460423,13.5115887 22.9512039,19.6053403 L30.3458263,30.0745433 C31.8261535,32.7558868 35.3860861,34.6951191 38.8432629,34.6951191 C41.0359774,34.6951191 43.4920938,33.9205308 45.0437822,32.7719044 C48.414012,33.40841 50.9275735,35.4308232 52.1539618,36.6149093 C54.0869482,38.4807921 55.0980283,40.3958322 55.0980283,41.3235265 C55.0980283,42.2706628 53.2959634,42.7772603 51.7834625,43.0357509 C49.3668675,43.4482313 46.0195713,43.5328484 41.7377886,43.5328484 L32.6328355,43.5328484 C30.4349999,43.5328484 28.4258652,42.2047145 27.5148689,40.1484987 C22.6938138,29.2723386 13.7836846,20.6077096 2.66959674,16.0297738 C2.26558775,13.3113137 2.87444009,9.98054009 4.66303428,7.00093817 M9.22747856,32.3132492 L9.22747856,43.5328484 L7.00092037,43.5328484 L7.00092037,31.0019062 C7.00092037,30.6696242 6.99001024,30.3114931 6.96919192,29.93867 C6.63042109,23.8828083 3.97814498,19.8844881 3.47972993,18.7957343 C6.30289438,20.0950365 8.98088724,21.6843122 11.4722945,23.540253 C10.2702871,25.4707584 9.22747856,28.8576488 9.22747856,32.3132492 M0.590882017,17.0563352 C0.847826831,18.31123 1.28400958,19.4917812 1.8876295,20.5654011 C3.85245577,24.0618739 4.77436219,27.7029468 4.77436219,31.0019062 L4.77436219,44.6379511 C4.77436219,45.2476135 5.27277724,45.7426121 5.88764128,45.7426121 L10.341203,45.7426121 C10.9556217,45.7426121 11.4544821,45.2476135 11.4544821,44.6379511 L11.4544821,32.3132492 C11.4544821,29.823012 12.0328305,27.3237167 13.1282972,25.0820283 L13.2300509,24.9193117 C18.50165,29.2732223 22.7216458,34.8228179 25.4765662,41.0378612 C26.7429212,43.8957295 29.5521696,45.7426121 32.6328355,45.7426121 L41.7377886,45.7426121 C46.1340164,45.7426121 49.5890781,45.6524717 52.1613094,45.2131481 C53.4385745,44.9947566 57.3250318,44.3315182 57.3250318,41.3235265 C57.3250318,39.6225696 55.9047103,37.1525478 53.7064294,35.0312674 C52.230444,33.6060338 49.1220575,31.1235293 44.8937122,30.5064657 C44.5649608,30.4586339 44.232313,30.5587162 43.9857217,30.7792065 C42.8820168,31.7677676 40.7189156,32.4853553 38.8432629,32.4853553 C36.1770708,32.4853553 33.3539064,30.9750629 32.2766975,28.9724231 C32.2554339,28.9332077 32.2319437,28.8952073 32.206227,28.8585326 L24.7741984,18.3370791 C20.1745745,11.8260971 14.6834367,5.98906875 8.45386092,0.988710592 C8.04762537,0.66250422 7.46794095,0.660405364 7.05959018,0.983518686 C5.32187285,2.35793781 3.87204948,4.00200467 2.74997549,5.86998631 C0.586094917,9.47438445 -0.110595139,13.5844964 0.583868359,17.0231954 C0.586094917,17.0343525 0.588210147,17.04562 0.590882017,17.0563352" id="Fill-1"></path>
                    </g>
                </g>
            </g>
        </g>
    </g>
</svg>