<?xml version="1.0" encoding="UTF-8"?>
<svg width="535px" height="560px" viewBox="0 0 535 560" version="1.1" xmlns="http://www.w3.org/2000/svg" xmlns:xlink="http://www.w3.org/1999/xlink">
    <!-- Generator: Sketch 59.1 (86144) - https://sketch.com -->
    <title>Group 40</title>
    <desc>Created with Sketch.</desc>
    <defs>
        <linearGradient x1="51.0781816%" y1="-48.3898043%" x2="50%" y2="97.825869%" id="linearGradient-1">
            <stop stop-color="#FFE8F3" offset="0%"></stop>
            <stop stop-color="#FFFBF6" offset="100%"></stop>
        </linearGradient>
        <linearGradient x1="0%" y1="50%" x2="99.2634596%" y2="58.5081099%" id="linearGradient-2">
            <stop stop-color="#F82E94" offset="0%"></stop>
            <stop stop-color="#FF9E33" offset="100%"></stop>
        </linearGradient>
        <path d="M124.679518,62.1887352 L121.421343,89.4911067 L147.703959,89.4911067 L147.703959,121.99393 L117.29432,121.99393 L113.601721,151.679842 L78.8478485,151.679842 L82.5404475,121.99393 L61.0364888,121.99393 L57.3438898,151.679842 L22.5900172,151.679842 L26.2826162,121.99393 L0,121.99393 L0,89.4911067 L30.4096386,89.4911067 L33.6678141,62.1887352 L7.38519793,62.1887352 L7.38519793,29.6859119 L37.7948365,29.6859119 L41.4874355,1.13686838e-13 L76.2413081,1.13686838e-13 L72.5487091,29.6859119 L94.0526678,29.6859119 L97.7452668,1.13686838e-13 L132.499139,1.13686838e-13 L128.80654,29.6859119 L155.089157,29.6859119 L155.089157,62.1887352 L124.679518,62.1887352 Z M89.4043373,61.8853755 L67.7494737,61.8853755 L64.4684337,89.187747 L86.1232974,89.187747 L89.4043373,61.8853755 Z" id="path-3"></path>
    </defs>
    <g id="Careers" stroke="none" stroke-width="1" fill="none" fill-rule="evenodd">
        <g id="01_Careers" transform="translate(-405.000000, -1881.000000)">
            <g id="Group-40" transform="translate(405.997621, 1881.997621)">
                <g id="Group-15" transform="translate(302.420396, 272.190479) rotate(-7.000000) translate(-302.420396, -272.190479) translate(57.920396, 140.690479)">
                    <g id="Group-9" transform="translate(0.000000, 12.799479)">
                        <path d="M78.8478485,151.679842 L81.971,126.569 L61.6922914,126.569806 L60.222,128.536 L57.3438898,151.679842 L42.925,151.679 L34.0587952,163.542953 L21.8349314,152.538999 L22.645,151.236 L25.626,127.265 L21.286747,126.569806 L12.1638554,134.08498 L0.132,121.993 L-1.13044719e-14,121.99393 L-3.34357619e-15,89.4911067 L30.4096386,89.4911067 L32.52,71.801 L19.4621687,74.6264822 L7.90650602,62.4920949 L8.247,62.188 L7.38519793,62.1887352 L7.38519793,29.6859119 L37.7948365,29.6859119 L41.4874355,-3.24710731e-14 L76.2413081,-2.39588294e-14 L76.212,0.235 L87.6734868,12.1343874 L80.043,29.685 L94.0526678,29.6859119 L97.7452668,-1.86918785e-14 L132.499139,-1.01796348e-14 L132.439,0.485 L143.533494,12.1343874 L134.410602,27.3023715 L134.892,29.685 L155.089157,29.6859119 L155.089,30.821 L155.52019,30.3359684 L166.688171,41.8636364 L155.089,53.124 L155.089157,62.1887352 L144.545,62.188 L131.977831,71.5928854 L129.59,89.491 L147.703959,89.4911067 L147.703,90.139 L147.790843,89.7944664 L159.954699,101.928854 L147.703,117.964 L147.703959,121.99393 L141.905,121.993 L124.679518,130.761365 L115.031,140.185 L113.601721,151.679842 L105.779,151.679 L101.992024,156.533597 L91.2289157,163.814229 L79.0650602,151.679842 L78.8478485,151.679842 Z M89.4043373,61.8853755 L71.921,61.885 L70.5503614,71.5928854 L69.153,89.187 L86.1232974,89.187747 L89.4043373,61.8853755 Z" id="Combined-Shape" fill="#353A50" fill-rule="nonzero"></path>
                        <path d="M136.843373,74.3231225 L133.585198,101.625494 L159.867814,101.625494 L159.867814,134.128317 L129.458176,134.128317 L125.765577,163.814229 L91.011704,163.814229 L94.7043029,134.128317 L73.2003442,134.128317 L69.5077453,163.814229 L34.7538726,163.814229 L38.4464716,134.128317 L12.1638554,134.128317 L12.1638554,101.625494 L42.573494,101.625494 L45.8316695,74.3231225 L19.5490534,74.3231225 L19.5490534,41.8202993 L49.9586919,41.8202993 L53.6512909,12.1343874 L88.4051635,12.1343874 L84.7125645,41.8202993 L106.216523,41.8202993 L109.909122,12.1343874 L144.662995,12.1343874 L140.970396,41.8202993 L167.253012,41.8202993 L167.253012,74.3231225 L136.843373,74.3231225 Z M101.568193,74.0197628 L79.9133291,74.0197628 L76.6322892,101.322134 L98.2871528,101.322134 L101.568193,74.0197628 Z" id="#" fill="url(#linearGradient-1)" transform="translate(89.708434, 87.974308) rotate(-360.000000) translate(-89.708434, -87.974308) "></path>
                        <g id="Combined-Shape" transform="translate(12.163855, 12.134387)">
                            <mask id="mask-4" fill="white">
                                <use xlink:href="#path-3"></use>
                            </mask>
                            <use id="Mask" fill="url(#linearGradient-2)" transform="translate(77.544578, 75.839921) rotate(-360.000000) translate(-77.544578, -75.839921) " xlink:href="#path-3"></use>
                        </g>
                    </g>
                    <g id="Group-13" transform="translate(102.592771, 0.606719)" fill-rule="nonzero">
                        <path d="M186.840329,116.570943 C187.817042,116.564459 188.719291,116.725253 189.547104,117.053329 C190.374916,117.381405 191.270614,117.665717 192.234223,117.906273 C192.185119,118.282558 192.186326,118.603216 192.237845,118.868257 C192.289363,119.133297 192.331468,119.507128 192.364158,119.98976 C193.052865,121.017232 193.479387,122.11093 193.643737,123.270889 C193.808086,124.430847 193.951571,125.640684 194.074196,126.900438 C194.146062,128.842415 194.132443,130.816259 194.033339,132.82203 L193.831315,136.813918 C193.797009,137.47596 193.762384,138.136367 193.727442,138.795141 C193.598061,140.959606 193.401199,143.091314 193.13685,145.190329 C192.938588,146.76459 192.758503,148.343896 192.596592,149.928274 L192.440739,151.514343 C192.38998,152.196566 192.250876,152.895951 192.023423,153.61252 C191.691278,154.104946 191.58245,154.64564 191.696936,155.234619 C191.840803,156.918107 191.421076,158.374948 190.437744,159.605184 C190.436503,159.834638 190.453436,160.069151 190.488545,160.308729 L190.529712,160.549995 C190.592679,160.873933 190.623335,161.188867 190.62168,161.494805 C190.28788,162.293169 190.001533,163.021176 189.762632,163.678846 C189.52373,164.336517 189.332281,164.923833 189.188278,165.44081 C189.196416,166.111585 189.219693,166.703004 189.258108,167.215085 C189.296523,167.727166 189.302627,168.230239 189.27642,168.724319 C188.940965,169.828622 188.599791,170.903459 188.252887,171.948863 C187.905983,172.994267 187.594257,174.06338 187.3177,175.156233 C187.257147,175.47362 187.176147,175.764416 187.074696,176.028629 C186.973246,176.292842 186.886521,176.554189 186.81452,176.812678 C186.585412,177.835185 186.265513,178.783642 185.854815,179.658076 C185.444116,180.532511 184.994975,181.444968 184.507379,182.395473 C184.279926,183.112042 183.902785,183.766013 183.375946,184.357407 C182.849106,184.948801 182.378723,185.437529 181.964783,185.823608 C180.371229,186.744596 178.810044,187.124463 177.28118,186.963219 C175.752316,186.801975 174.247614,186.529078 172.767027,186.144518 C172.521641,185.825477 172.455813,185.486819 172.569539,185.128534 C172.683266,184.77025 172.799853,184.426695 172.919304,184.09786 C173.382348,183.335496 173.73373,182.549007 173.973459,181.738367 L174.337654,180.487137 C174.460587,180.058302 174.585054,179.617709 174.711057,179.165353 C175.288723,176.791504 175.795622,174.446725 176.231768,172.130946 L177.202734,166.999844 C177.309468,166.438541 177.415818,165.880177 177.521786,165.32475 C177.798343,164.231896 178.036448,163.177094 178.236107,162.160311 C178.435766,161.143529 178.591249,160.135347 178.702561,159.135738 C178.965784,157.607426 179.251155,156.138496 179.558679,154.728919 L179.745851,153.890295 C180.125514,152.22729 180.478998,150.508275 180.806315,148.733199 C180.878316,148.47471 180.906144,148.224811 180.889798,147.983495 C180.873453,147.742179 180.777762,147.485729 180.602724,147.214136 C180.178989,147.235378 179.951574,147.401828 179.92047,147.713491 C179.889366,148.025153 179.773193,148.292225 179.571947,148.514713 C179.421013,148.681579 179.27491,148.87329 179.133636,149.08985 L178.993971,149.314694 C178.809898,149.625529 178.587793,149.89791 178.32765,150.131847 C178.244199,150.331437 178.113716,150.524888 177.936195,150.712203 L177.565338,151.11028 C177.500892,151.180534 177.435129,151.252742 177.368047,151.326905 L177.086695,151.65298 C176.998606,151.75323 176.91621,151.845039 176.839508,151.928406 L176.573421,152.206245 C176.395952,152.383998 176.151992,152.617652 175.841537,152.907211 C175.393251,153.116596 174.909799,153.302253 174.391166,153.464188 L173.740539,153.664005 C173.40109,153.766661 173.04044,153.873438 172.658583,153.984337 C170.604828,154.326244 168.424598,154.155527 166.117837,153.47218 L165.654797,153.328676 C164.879331,153.112672 164.187324,152.697083 163.578758,152.081896 C162.970191,151.46671 162.432807,150.746015 161.966588,149.919789 C161.197741,148.480032 160.75284,146.97733 160.63187,145.411638 C160.5109,143.845946 160.454553,142.298278 160.462828,140.768586 C160.533447,136.415105 160.950895,132.116516 161.715185,127.872692 L161.862497,126.743843 C161.911601,126.367558 161.995877,126.015003 162.115328,125.686168 C162.259331,125.16919 162.458953,124.702531 162.7142,124.286176 C162.969447,123.869821 163.398105,123.480887 164.000188,123.11936 C165.045592,123.466264 166.096705,123.842611 167.153558,124.248413 L170.3241,125.465812 C170.841078,125.609815 171.23984,125.853196 171.520399,126.195962 C171.800958,126.538729 172.045926,126.934249 172.25531,127.382535 C172.217519,130.018183 172.167865,132.671378 172.106349,135.3422 C172.044833,138.013021 172.247113,140.861735 172.713195,143.888426 C172.950111,143.597881 173.156657,143.352361 173.332836,143.151861 L173.778938,142.649816 C173.891422,142.520987 174.009838,142.383364 174.134186,142.236946 C174.989929,140.664771 175.81621,139.098343 176.613055,137.537616 C177.4099,135.976889 178.224733,134.351564 179.057579,132.661592 L179.890222,130.872343 C180.165519,130.284006 180.438566,129.703746 180.709365,129.13156 C181.250963,127.987188 181.74838,126.851419 182.201631,125.72422 C182.653227,124.902959 183.052057,124.046124 183.398133,123.153689 C183.74421,122.261254 183.9729,121.315245 184.084212,120.315635 C184.218422,119.433822 184.56939,118.723815 185.137127,118.185595 L186.840329,116.570943 Z M152.36947,100.07522 C152.933897,100.148877 153.559661,100.302291 154.246781,100.535468 C154.933901,100.768646 155.755563,101.143752 156.711793,101.660797 L158.866974,102.834686 C159.397187,103.124943 159.978162,103.443762 160.609902,103.791144 C160.684496,103.92334 160.792856,104.07831 160.934983,104.256056 L161.04791,104.393637 C161.246674,104.630056 161.433572,104.884058 161.608611,105.155651 L161.8004,105.463105 C161.858244,105.559438 161.910002,105.649618 161.955674,105.733647 L162.019619,105.855077 C162.118587,106.049771 162.255588,106.282911 162.430627,106.554503 C162.422351,108.084186 162.320422,109.525104 162.124832,110.877273 C161.929243,112.229443 161.692345,113.604903 161.414133,115.003695 C161.088472,116.472833 160.827436,117.95995 160.631019,119.465089 C160.434602,120.970228 160.232464,122.445896 160.024598,123.892137 C159.924735,124.950644 159.730803,125.99686 159.442797,127.030816 C159.154791,128.064772 158.737547,129.062711 158.191052,130.024666 C158.279331,131.107725 158.350022,132.178907 158.403128,133.238242 C158.456234,134.297577 158.279888,135.355655 157.874087,136.412508 C157.757983,138.841807 157.513808,141.214074 157.141558,143.529363 L156.974181,144.518142 C156.506931,147.145583 156.265862,149.835985 156.250967,152.589429 C156.128207,153.530141 156.014448,154.438528 155.909688,155.314618 C155.804927,156.190708 155.779514,157.081922 155.833447,157.988288 C155.965866,159.612878 156.013212,161.192857 155.975489,162.728272 C155.937765,164.263688 155.962215,165.725873 156.048839,167.114871 L156.231098,167.782983 C156.378307,168.315701 156.513833,168.788318 156.637679,169.20084 L156.976813,170.31663 C157.032063,170.49605 157.086677,170.672199 157.140655,170.845077 C156.914857,171.255707 156.657993,171.427881 156.370055,171.361604 C156.082117,171.295327 155.849805,171.279362 155.673111,171.313707 C155.452244,171.35664 155.242882,171.414526 155.04502,171.487368 L154.850993,171.565196 C154.597401,171.675612 154.382261,171.747992 154.205567,171.782338 C152.947469,171.599024 151.849321,171.216539 150.911092,170.634871 C149.972862,170.053203 149.011336,169.430233 148.026485,168.765943 C147.064531,168.219448 146.369283,167.31551 145.94072,166.054101 C145.440155,165.051182 145.01322,164.033967 144.6599,163.002425 C144.357055,162.118247 144.147368,161.19352 144.030836,160.228223 L143.980333,159.742193 C143.834811,158.364644 143.704016,156.984253 143.587943,155.600979 C143.47187,154.217705 143.370523,152.83159 143.283899,151.442592 C143.294491,149.484588 143.29173,147.55854 143.275618,145.664414 L143.26103,144.249804 C143.232545,141.902094 143.224922,139.504522 143.238161,137.057016 C143.215264,136.93922 143.081125,136.720804 142.83574,136.401763 C141.947306,137.491306 141.246198,138.758352 140.732394,140.202938 C140.437877,140.700274 140.167706,141.222212 139.921876,141.76876 L139.742067,142.183286 C139.449992,142.881854 139.12561,143.571412 138.768913,144.25198 C138.538747,144.744958 138.315127,145.236658 138.098051,145.727088 L137.777345,146.461781 C137.461545,147.195522 137.131025,147.932115 136.785776,148.671581 C136.440528,149.411047 136.086698,150.106329 135.724276,150.757448 C135.361854,151.408567 135.066921,152.092401 134.839468,152.80897 C134.600842,153.415651 134.340069,153.962961 134.057142,154.450911 L133.884728,154.736558 C133.534582,155.293606 133.321857,156.007302 133.246546,156.877667 C133.04759,157.111935 132.822462,157.312169 132.571158,157.478374 L132.377772,157.596647 C132.047281,157.783134 131.728244,158.028516 131.420651,158.332799 C131.435916,158.41133 131.444637,158.491131 131.446813,158.572206 L131.445169,158.694771 C131.438617,158.818291 131.44679,158.938948 131.469687,159.056743 L131.577823,159.450003 C131.686381,159.87261 131.733337,160.168529 131.718693,160.337767 L131.698413,160.497573 C131.659395,160.749649 131.572464,161.157731 131.43762,161.721827 C130.881332,162.318945 130.219947,162.768398 129.453447,163.070199 C128.686946,163.372 127.926595,163.626761 127.17237,163.83449 C127.075817,164.281122 127.112611,164.549021 127.282753,164.638195 C127.452895,164.72737 127.667207,164.807956 127.925696,164.879958 C128.254531,164.999409 128.586224,165.133582 128.920784,165.282482 C129.255343,165.431381 129.485587,165.829764 129.611522,166.477641 L129.220616,166.854465 L128.649559,167.395238 C128.607786,167.43583 128.567676,167.475143 128.529227,167.513178 C128.410603,167.689045 128.345382,167.812083 128.333562,167.882294 L128.332878,167.918083 C128.331224,168.224021 128.367603,168.568403 128.442019,168.951239 C128.516435,169.334076 128.540539,169.772528 128.514332,170.266609 L128.306785,170.702341 C128.088041,171.168901 127.835702,171.727943 127.549764,172.379476 C126.016763,172.983078 124.479302,173.327772 122.937335,173.413568 C121.395368,173.499365 119.886594,172.891076 118.410974,171.588711 C117.953302,164.831863 117.892365,158.150806 118.22816,151.54534 C118.563955,144.939875 118.956194,138.231852 119.404888,131.421071 C118.503351,132.757654 117.810829,134.068873 117.327301,135.354766 C116.843774,136.640659 116.304219,137.952705 115.70862,139.290944 C115.289714,140.594837 114.826643,141.907296 114.319391,143.228362 C113.812138,144.549428 113.29017,145.873337 112.753469,147.200127 C112.434933,148.077021 112.117673,148.960451 111.801684,149.850428 L111.328653,151.190305 C110.856574,152.535096 110.357916,153.900315 109.832663,155.286003 C109.761489,155.391523 109.667079,155.510154 109.54943,155.641898 L109.053178,156.176089 C108.988733,156.246343 108.922969,156.318551 108.855887,156.392714 L108.898484,157.083529 C108.910536,157.302756 108.920441,157.510941 108.9282,157.708083 L108.95542,158.477017 C108.95932,158.6019 108.962903,158.725147 108.966167,158.846759 C108.267395,161.855383 107.187457,164.632442 105.726322,167.17802 C106.023985,168.709366 105.998538,170.150689 105.649979,171.502031 C105.481424,172.207151 105.357044,172.903674 105.276836,173.591622 C105.196628,174.279569 105.037076,174.952368 104.798174,175.610039 C104.492433,176.193383 104.288263,176.77943 104.185658,177.368193 L104.142819,177.662801 C104.062611,178.350749 103.79754,178.952375 103.347599,179.467698 C103.370496,179.585493 103.380305,179.705832 103.377025,179.828716 L103.362289,180.014949 C103.337737,180.203091 103.342634,180.385507 103.37698,180.562201 C103.16263,181.031729 102.930698,181.489388 102.681175,181.935192 C102.431652,182.380996 102.135098,182.820655 101.791505,183.254183 C100.363196,184.081928 98.9435289,184.403725 97.5324611,184.219584 C96.1213933,184.035443 94.6944152,183.533509 93.251484,182.713767 C92.399187,181.4736 91.7530425,180.193383 91.313031,178.873077 C90.8730195,177.55277 90.574533,176.174414 90.4175625,174.737966 C90.203349,173.007029 89.9744145,171.27898 89.7307521,169.553768 C89.4870897,167.828555 89.3465007,166.083333 89.308981,164.31805 C89.0360056,160.398097 88.8509662,156.537512 88.7538571,152.736182 C88.656748,148.934851 88.7187451,145.08737 88.9398503,141.193623 C89.2788873,135.076514 90.1177167,129.015151 91.4563635,123.009353 C91.8900272,121.152482 92.3559951,119.304638 92.854281,117.465767 C93.352567,115.626896 93.9477773,113.815052 94.6399299,112.030182 C95.093181,110.902983 95.6139086,109.808525 96.2021283,108.746775 C96.7903481,107.685026 97.5507332,106.880156 98.4833063,106.332142 C99.6154705,105.867579 100.732859,105.955992 101.835507,106.597386 C102.609318,107.119328 103.451429,107.52102 104.361865,107.802475 C105.2723,108.083929 106.001514,108.690933 106.549527,109.623506 C106.803051,110.613322 106.710155,111.471813 106.270835,112.199002 C105.831515,112.926192 105.597927,113.689785 105.570065,114.489804 L105.135392,114.706322 C105.068379,114.738907 105.004081,114.769742 104.942499,114.798827 L104.6056,114.952331 C104.352008,115.062747 104.089419,115.205473 103.817827,115.380512 C103.904932,115.592793 103.977082,115.816573 104.034277,116.051858 L104.086488,116.290977 C104.149455,116.614915 104.239008,116.9184 104.355149,117.201442 C104.247781,117.906893 104.178109,118.605008 104.146131,119.295802 L104.129216,119.812525 C104.112802,120.671441 104.049354,121.524207 103.93887,122.370848 C103.828385,123.217489 103.653281,124.046116 103.413552,124.856756 C103.173823,125.667396 102.787268,126.430162 102.253877,127.145076 C102.458297,128.511176 102.545333,129.82367 102.514989,131.082596 C102.484645,132.341523 102.377817,133.600016 102.194504,134.858115 C102.052617,136.434152 101.916003,138.002357 101.784661,139.562751 L101.591602,141.897487 C101.402496,144.226369 101.201531,146.572803 100.988701,148.936859 L100.925851,151.129128 C100.91474,151.491234 100.903311,151.851704 100.891564,152.21054 C100.856323,153.287048 100.794495,154.383989 100.706081,155.501395 C100.704426,155.807333 100.789461,156.402027 100.96119,157.285496 C101.186988,156.874866 101.406231,156.58776 101.618926,156.424169 C102.64005,152.558285 103.81085,148.755044 105.13136,145.014335 C106.451871,141.273625 107.892604,137.601282 109.453603,133.997196 C110.705354,131.003331 111.968534,128.068409 113.243182,125.19234 C114.51783,122.316271 115.857081,119.458246 117.260973,116.618178 C117.940022,115.080348 118.677544,113.607576 119.473562,112.199818 L121.826015,108.029325 C122.074711,107.736491 122.338126,107.440798 122.616271,107.142239 C122.894415,106.84368 123.152106,106.518539 123.389353,106.166807 C123.729637,106.345156 124.029019,106.470329 124.287508,106.54233 C124.545997,106.614332 124.786482,106.750953 125.00897,106.952199 C125.571742,107.331794 126.105471,107.640624 126.610173,107.878698 C127.114875,108.116772 127.702604,108.231738 128.373378,108.223599 C129.56113,108.359461 130.50507,108.970571 131.205225,110.056941 C131.659995,110.824269 131.860343,111.854967 131.806274,113.149066 C131.701445,115.125389 131.605619,117.069371 131.518791,118.981071 C131.431963,120.892771 131.265791,122.789305 131.020269,124.670729 L130.426056,130.103933 C130.227984,131.91501 130.065088,133.749785 129.937362,135.608311 C129.86782,135.774635 129.863606,135.949485 129.924719,136.132861 L129.969226,136.243909 C130.021059,136.354883 130.067077,136.474479 130.107279,136.602696 L130.163221,136.801488 C130.585291,136.577718 130.889147,136.243823 131.074797,135.799796 C131.283422,135.300819 131.524355,134.810849 131.797602,134.329872 L134.899862,128.592522 C135.933953,126.680062 136.962305,124.738183 137.984948,122.766825 C138.394819,122.045359 138.789731,121.335404 139.169689,120.636948 L139.544664,119.942323 C140.037985,119.021267 140.56361,118.109224 141.121553,117.206168 C141.597701,116.196764 142.153188,115.202514 142.788029,114.223387 C143.422871,113.24426 144.042979,112.26801 144.648372,111.294607 C145.253764,110.321204 145.856286,109.333092 146.455954,108.33024 C147.055622,107.327389 147.488004,106.250103 147.753113,105.098352 C147.88838,104.746067 148.028918,104.385971 148.174729,104.018056 L148.397399,103.460321 C148.624025,102.896721 148.838785,102.350716 149.041686,101.82229 C149.219621,101.558491 149.394101,101.321151 149.56513,101.110268 L149.735008,100.908203 C149.959979,100.650542 150.191084,100.34585 150.428331,99.994117 C151.158003,99.9745297 151.805043,100.001564 152.36947,100.07522 Z M251.106452,80.6993262 C251.885174,81.1836403 252.684831,81.6247614 253.505436,82.0226926 L254.124819,82.313043 C255.163672,82.783467 256.199233,83.315643 257.231533,83.9095871 C257.571817,84.0879358 257.882234,84.3484894 258.162792,84.6912559 C258.443351,85.0340223 258.759492,85.3240259 259.111225,85.5612711 C259.225711,86.1502504 259.35492,86.7363616 259.498854,87.3196136 C259.642789,87.9028686 259.80717,88.5127012 259.992003,89.1491298 C260.615328,89.2113376 261.154401,89.0759912 261.609239,88.7430864 C262.064077,88.4101816 262.527081,88.197938 262.998264,88.1063492 C264.176223,87.8773773 265.248645,87.5772359 266.215564,87.2059159 L266.881701,87.0104191 C267.09478,86.9494414 267.298894,86.8926514 267.494042,86.8400489 L267.780041,86.7642857 C268.2455,86.643248 268.737539,86.5017636 269.256172,86.3398283 C269.833702,86.1664444 270.384638,86.0135115 270.908995,85.8810252 C271.433352,85.7485389 271.960563,85.6307788 272.490644,85.5277414 C273.009277,85.3658061 273.551213,85.2451839 274.116467,85.1658712 C274.681722,85.0865585 275.229382,84.9953848 275.759463,84.8923475 L276.839794,85.8513299 C277.19111,86.1650587 277.533633,86.4728564 277.867366,86.7747252 C278.53483,87.378463 279.113112,88.1523311 279.602227,89.0963529 C279.045939,89.6934708 278.496624,90.0905781 277.954267,90.2876867 C277.41191,90.4847953 276.84625,90.6405902 276.25727,90.7550762 C274.549231,91.0870855 272.896424,91.5458839 271.298801,92.1314853 C269.701177,92.7170867 268.076992,93.3231278 266.426195,93.9496267 C265.459276,94.3209466 264.524682,94.701261 263.622385,95.0905813 C262.720089,95.4799016 261.779771,95.8307675 260.801403,96.1431895 C260.518362,96.2593304 260.256188,96.3255726 260.014872,96.341918 C259.773556,96.3582634 259.499932,96.3656086 259.193994,96.3639536 C259.074543,96.692789 258.943232,97.0392059 258.800057,97.4032146 C258.656881,97.7672232 258.555019,98.1079159 258.494466,98.4253027 L258.381499,99.7308442 C258.343844,100.166027 258.311913,100.630652 258.285706,101.124732 C258.179223,103.406993 258.099327,105.668771 258.046018,107.910134 C257.992708,110.151497 257.871916,112.360102 257.683638,114.536015 C257.569016,116.147501 257.51943,117.70048 257.53488,119.194998 C257.55033,120.689516 257.530195,122.236778 257.47447,123.836808 C257.454745,125.307594 257.482058,126.78451 257.556406,128.26758 C257.630754,129.750649 257.58772,131.180109 257.427304,132.556004 C257.344084,133.438094 257.33443,134.316485 257.39834,135.191195 L257.445514,135.71558 C257.557518,136.763466 257.593036,137.810923 257.55207,138.857982 C257.547106,139.775797 257.577314,140.717322 257.642695,141.682586 L257.713801,142.677295 C257.765021,143.360065 257.823874,144.082102 257.890358,144.843403 C257.45352,145.111686 257.010965,145.350516 256.562679,145.5599 C256.114393,145.769285 255.636665,145.984391 255.12948,146.205224 C254.247666,146.071015 253.328245,145.821875 252.371187,145.457799 C251.41413,145.093722 250.430914,144.673616 249.421511,144.197468 C248.947154,142.700467 248.496528,141.168317 248.06962,139.60097 C247.727481,138.344843 247.476243,137.051433 247.315902,135.720715 L246.814283,136.732804 C246.596211,137.165701 246.371231,137.606731 246.139342,138.055896 L245.42295,139.427797 C244.808684,140.591388 244.237601,141.704126 243.709689,142.766034 L242.628377,144.979274 C242.421598,145.409126 242.264622,145.741433 242.157447,145.976197 C241.895648,146.516072 241.60237,146.893972 241.277604,147.109908 C240.952838,147.325844 240.625215,147.527053 240.294725,147.713541 C239.964234,147.900028 239.654197,148.113099 239.364605,148.35276 C239.075012,148.592421 238.863941,149.000184 238.731387,149.576059 C238.695386,149.705304 238.6418,149.822684 238.570626,149.928204 L238.321518,150.297521 C237.662192,150.364558 237.020463,150.443456 236.39631,150.534217 C235.772158,150.624978 235.124704,150.674428 234.45393,150.682566 C233.477217,150.68905 232.509519,150.663223 231.550807,150.605085 C230.592095,150.546946 229.644052,150.150565 228.70665,149.415927 C228.465871,148.680352 228.191329,147.922009 227.883019,147.140886 L227.645455,146.550772 C227.238962,145.560128 226.87951,144.575637 226.567088,143.59727 C226.272235,142.905823 226.072589,142.102286 225.968145,141.18664 L225.929211,140.787356 C225.806587,139.527603 225.68724,138.206109 225.571167,136.822835 C225.455094,135.439561 225.318574,134.029722 225.161604,132.593275 C225.163259,132.287336 225.138741,131.925368 225.08805,131.507358 C225.037358,131.089348 224.865598,130.756001 224.572763,130.507305 C224.39607,130.541651 224.313448,130.588272 224.324897,130.64717 C223.518258,131.843061 222.758667,133.045072 222.046099,134.253239 C221.333532,135.461406 220.638562,136.681417 219.961167,137.913309 C219.803003,138.147797 219.657928,138.379739 219.525942,138.609138 L219.337777,138.951328 C219.159429,139.291612 218.951634,139.637615 218.714388,139.989348 C218.207158,140.94367 217.701206,141.904526 217.196524,142.87193 L216.440453,144.327948 C215.685333,145.788879 214.927362,147.235064 214.166518,148.666547 C214.105965,148.983934 213.948481,149.274316 213.694062,149.537702 L213.332374,149.917442 C213.218459,150.038909 213.11119,150.155265 213.010567,150.266509 C212.573729,150.534791 212.148761,150.785483 211.735648,151.018593 L210.620248,151.647985 C210.559695,151.965371 210.522868,152.247581 210.509764,152.494621 C210.496661,152.741661 210.454109,152.994422 210.382107,153.252911 C210.222586,153.375604 210.051565,153.48334 209.86904,153.576122 L209.682681,153.663919 C209.429089,153.774336 209.166501,153.917062 208.894908,154.0921 C208.623316,154.267139 208.372176,154.468762 208.141481,154.696974 C207.910786,154.925187 207.66537,155.156258 207.405226,155.390195 C206.770453,155.269089 206.129551,155.19502 205.482501,155.167985 C204.835451,155.140951 204.185549,155.099192 203.532775,155.042709 C202.880001,154.986225 202.230513,154.867984 201.584291,154.68798 C200.938068,154.507976 200.35158,154.16356 199.824809,153.654721 C199.183551,152.556903 198.730857,151.407169 198.466712,150.205486 C198.202567,149.003803 197.997736,147.714206 197.852214,146.336656 C197.690415,143.617558 197.643136,140.937363 197.710377,138.295991 C197.764169,136.182893 197.838905,134.026631 197.934585,131.827163 L198.010272,130.169461 C198.079099,128.322383 198.294755,126.523195 198.657244,124.771843 C199.019734,123.020491 199.452978,121.240131 199.956988,119.430709 C200.161544,118.596344 200.483891,117.739095 200.924038,116.858936 C201.043489,116.530101 201.198111,116.224994 201.387908,115.943608 L201.886123,115.204973 C202.311512,114.877793 202.733205,114.68886 203.151215,114.638169 C203.569225,114.587478 203.936918,114.592408 204.254305,114.652961 C204.920711,114.727169 205.580567,114.802649 206.233881,114.8794 L207.208946,114.995482 C208.179107,115.112519 209.263771,115.268415 210.462972,115.463178 C210.640962,115.624174 210.850885,115.798521 211.092743,115.986221 L211.280126,116.1295 C211.602409,116.37247 211.909964,116.6183 212.202798,116.866995 C212.260041,117.161485 212.329146,117.438384 212.410113,117.6977 C212.491081,117.957016 212.530737,118.239639 212.529082,118.545578 C212.492945,120.875288 212.448223,123.16079 212.394913,125.402153 C212.341603,127.643516 212.103017,129.875018 211.679147,132.096726 C211.615284,133.025989 211.687217,133.86772 211.894946,134.621944 L211.733688,134.790206 C211.434775,135.123771 211.463976,135.255824 211.82129,135.186369 C211.865464,135.177782 211.896524,135.145959 211.914473,135.090897 L211.928051,135.02809 C211.940327,134.934019 211.993913,134.816638 212.088812,134.675945 C212.266747,134.412146 212.457792,134.171587 212.661951,133.954264 L212.870481,133.744686 C213.154349,133.475576 213.414903,133.165159 213.65215,132.813427 C216.513857,128.223029 219.651833,123.733065 223.066159,119.343421 L224.00419,118.148733 C224.786277,117.140984 225.5888,116.159837 226.411784,115.205262 C227.234768,114.250687 228.06674,113.263816 228.907724,112.244619 C229.02552,112.221722 229.184625,112.175514 229.385043,112.105995 C229.585461,112.036476 229.779739,112.013993 229.967881,112.038545 C231.261981,112.092614 232.561785,112.176131 233.867333,112.289098 L235.402965,112.416018 C236.15527,112.475158 236.88431,112.527817 237.590092,112.573997 C238.152864,112.953591 238.585971,113.373663 238.889427,113.834226 C239.192883,114.294788 239.393265,114.775378 239.490578,115.276011 C239.587891,115.776643 239.652892,116.268268 239.685582,116.7509 L239.783655,118.198788 C239.624893,119.268745 239.489859,120.303517 239.378546,121.303122 C239.267234,122.302732 239.097027,123.313775 238.867919,124.336282 C238.745158,125.276994 238.639986,126.229554 238.552398,127.19399 C238.464811,128.158427 238.33019,129.116711 238.148531,130.068872 L238.132634,130.429645 C238.118309,130.821806 238.108706,131.308128 238.103822,131.888614 L238.101774,132.186704 C238.09805,132.875065 238.089264,133.581593 238.075415,134.3063 L238.059879,135.037067 C238.042655,135.773895 238.030494,136.492539 238.023395,137.193013 L238.010333,138.84301 C238.004935,139.331133 237.997623,139.747997 237.988399,140.093609 C238.31889,139.907121 238.798686,139.309599 239.427804,138.301023 C240.056921,137.292447 240.710167,136.17223 241.387561,134.940338 L242.044228,133.732854 C242.468189,132.944135 242.864515,132.187956 243.233213,131.464307 L244.3303,129.32568 L245.685082,126.861909 C245.843246,126.627421 246.007953,126.391662 246.179205,126.154631 L246.51315,125.699357 C246.366063,123.434504 246.298595,121.123716 246.311362,118.763621 C246.218254,116.39791 246.198769,114.017924 246.252906,111.623592 L246.327361,108.056345 C246.34993,106.875343 246.370248,105.702419 246.388316,104.537564 L246.344245,102.89581 C246.25045,102.832544 246.161927,102.761463 246.078677,102.682565 L245.957755,102.558356 C245.840787,102.428284 245.711958,102.3158 245.571265,102.220902 C245.439069,102.295497 245.329649,102.336325 245.243005,102.343387 L245.182292,102.342352 C245.088221,102.330076 245.017462,102.359111 244.970012,102.429458 C244.294273,103.355411 243.569888,104.031038 242.796836,104.456359 C242.023784,104.88168 241.265054,105.380616 240.520623,105.953182 C239.929989,106.373606 239.337742,106.54985 238.743866,106.481917 C238.14999,106.413985 237.517675,106.384089 236.8469,106.392228 C236.107434,106.046979 235.380255,105.607666 234.665341,105.074274 C233.950428,104.540883 233.295249,103.843085 232.699786,102.980858 C232.562403,102.274083 232.624196,101.727251 232.885167,101.340345 C233.146139,100.953439 233.436141,100.637298 233.755182,100.391913 C234.345265,100.073468 234.93007,99.7628425 235.509604,99.4600323 L236.374954,99.0116779 C237.236353,98.569184 238.109601,98.1091104 238.994725,97.6314432 C239.859665,97.2595716 240.732412,96.8929758 241.612978,96.531651 L242.939693,95.9936163 C244.272276,95.4595336 245.616701,94.9078726 246.973008,94.3386166 C247.117011,93.8216388 247.234425,93.3251173 247.325254,92.849037 C247.416084,92.3729568 247.50405,91.8821594 247.589155,91.3766302 L247.94047,89.8633926 C248.054237,89.3669651 248.164666,88.8785218 248.271757,88.3980603 L248.751165,86.2419694 C248.916808,85.5093036 249.089962,84.7586759 249.270627,83.9900783 L249.540631,83.0207498 C249.612633,82.7622609 249.705082,82.5303623 249.817981,82.3250471 C249.93088,82.1197318 250.085088,81.891109 250.280609,81.6391719 C250.476131,81.3872348 250.751409,81.073956 251.106452,80.6993262 Z M316.873886,93.5870926 C317.647544,93.654036 318.318094,93.873828 318.88555,94.2464741 L319.093514,94.3933814 C319.702908,94.8555986 320.448501,95.1538074 321.330315,95.2880167 C321.590459,95.0540799 321.826875,94.8553194 322.039569,94.6917292 C322.252264,94.5281389 322.459231,94.3351026 322.660477,94.1126144 C323.3427,94.1633737 324.02205,94.1994078 324.698549,94.2207181 C325.375047,94.2420283 326.060122,94.307511 326.753794,94.4171682 L326.952704,94.7624339 C327.140725,95.0811639 327.29608,95.3202871 327.418773,95.4798079 L328.421206,96.1559575 C328.737765,96.3694795 329.07763,96.6243089 329.440811,96.9204535 C329.429869,97.4930647 329.411111,98.060398 329.384536,98.6224611 L329.338812,99.461604 C329.287225,100.296796 329.253225,101.143838 329.236812,102.002755 L329.123484,104.19083 L329.019364,106.308352 C328.953018,107.696522 328.874812,109.102258 328.784742,110.525602 C328.812468,111.926049 328.790297,113.305612 328.718227,114.664334 C328.646158,116.023056 328.594538,117.408343 328.563366,118.820239 C328.491365,119.078728 328.469261,119.358075 328.497055,119.658289 C328.524849,119.958503 328.71461,120.227229 329.066342,120.464476 C329.912292,118.527464 330.743504,116.593343 331.560004,114.662056 C332.376504,112.730768 333.436753,110.874372 334.740782,109.092812 L336.203383,109.175249 C336.443878,109.189624 336.682737,109.204318 336.919961,109.21933 C337.631632,109.264364 338.351466,109.430055 339.079484,109.716406 C338.626233,110.843605 338.129229,111.90289 337.588459,112.894293 C337.047688,113.885697 336.48034,114.897533 335.886396,115.929834 C334.402363,118.357616 333.086044,120.783328 331.937398,123.207041 C330.788752,125.630754 329.784091,128.087569 328.923383,130.577559 C328.486546,130.845842 328.064439,131.111258 327.65705,131.373816 C327.249662,131.636375 326.821831,131.872343 326.373544,132.081727 C323.746035,132.71471 321.418842,132.219673 319.391897,130.596603 C318.982921,130.064866 318.677021,129.513103 318.474189,128.941297 C318.271356,128.36949 318.106974,127.759658 317.98104,127.111781 L317.603238,125.168159 C317.477303,124.520282 317.321922,123.878138 317.13709,123.24171 C316.825393,123.760722 316.531875,124.284791 316.25653,124.813926 L315.987243,125.34475 C315.63627,126.054767 315.252991,126.755773 314.837396,127.44779 C314.4218,128.139806 313.924004,128.80195 313.343991,129.434242 C312.763978,130.066533 312.037144,130.650952 311.163469,131.187517 C309.535569,131.931812 307.845142,132.275679 306.092135,132.219127 C304.339128,132.162576 302.671665,131.52402 301.089696,130.303441 C300.178501,129.074723 299.60884,127.79492 299.380695,126.463992 C299.187951,125.339579 299.091836,124.207304 299.092349,123.067143 L299.099764,122.4982 L298.991439,122.64213 C298.091785,123.808697 297.175318,124.888709 296.242016,125.882191 C295.153164,127.041254 294.131018,127.835882 293.175548,128.2661 C292.457324,128.344585 291.836457,128.373586 291.312927,128.353103 C290.789397,128.33262 290.254427,128.253241 289.708001,128.114962 C289.161574,127.976684 288.559531,127.788097 287.901863,127.549195 C287.244192,127.310293 286.481013,127.000222 285.612303,126.618973 C284.820559,125.061419 284.367484,123.438061 284.253066,121.748849 C284.138648,120.059637 284.079853,118.420761 284.07668,116.832172 C283.806742,116.701273 283.598154,116.650135 283.450909,116.678756 C283.352746,116.697837 283.257128,116.730006 283.164054,116.775264 L283.02635,116.852967 C282.890554,116.940486 282.763759,116.995694 282.645964,117.018591 C282.528168,117.041488 282.398925,117.005488 282.258232,116.910589 C282.099471,117.980545 281.832745,118.888105 281.458047,119.633295 C281.208249,120.130089 280.951909,120.628149 280.689023,121.127484 L280.289786,121.877441 C279.029897,124.200532 277.837509,126.556311 276.712589,128.944851 C275.587668,131.333391 274.600592,133.802068 273.751333,136.350956 C273.419188,136.843382 273.181118,137.348076 273.037115,137.865054 C272.82442,138.028644 272.588418,138.150921 272.329102,138.231889 C272.069785,138.312856 271.774887,138.446582 271.444396,138.633069 C271.349498,138.773762 271.265221,139.126317 271.191565,139.690744 C271.308257,139.871806 271.418405,140.054138 271.522008,140.237742 L272.034588,141.182928 C272.078653,141.262227 272.123997,141.343188 272.170619,141.42581 L271.518133,141.724549 C271.307285,141.819016 271.103083,141.908371 270.905527,141.992615 C270.510415,142.161102 270.095273,142.226517 269.66009,142.188861 C268.436343,142.18224 267.287466,141.931861 266.21344,141.437712 C265.139418,140.943563 264.235164,140.064971 263.500663,138.801907 C263.0001,137.798987 262.706095,136.67953 262.618644,135.443501 C262.531192,134.207472 262.43188,132.989048 262.320704,131.788192 C262.283184,130.022909 262.254252,128.301826 262.233905,126.62489 C262.213558,124.947954 262.219798,123.250595 262.252625,121.532761 C262.275658,119.450092 262.378036,117.382591 262.559763,115.330198 C262.74149,113.277805 263.102353,111.282305 263.642364,109.343638 C263.810919,108.638518 264.017506,107.971857 264.262132,107.343635 C264.506758,106.715413 264.866312,106.04958 265.340806,105.346114 C265.635295,105.288871 265.865159,105.213629 266.030404,105.120385 C266.19565,105.027142 266.436962,105.010797 266.754349,105.071349 C267.772764,105.331814 268.789466,105.528937 269.804476,105.662722 L270.413279,105.735393 C271.63048,105.865533 272.802663,106.157224 273.929862,106.610475 C274.715122,107.191315 275.00547,107.898907 274.800915,108.733272 C274.725603,109.603637 274.638431,110.491576 274.539395,111.397115 C274.440359,112.302653 274.165047,113.16604 273.713451,113.987301 C273.890104,114.613095 273.861683,115.266365 273.628187,115.947127 L273.54276,116.175066 C273.232684,116.938257 273.210961,117.691229 273.477588,118.434004 C273.948772,118.342416 274.235084,118.164517 274.336535,117.900304 C274.437985,117.636091 274.554158,117.36902 274.685058,117.099082 C274.933753,116.806247 275.150134,116.504417 275.334207,116.193582 C275.51828,115.882747 275.728937,115.551468 275.966183,115.199735 C276.227982,114.65986 276.589571,114.161718 277.050961,113.705293 L277.271232,113.364502 C277.346905,113.242828 277.424829,113.113076 277.505003,112.975245 C277.625264,112.768498 277.770371,112.556925 277.940327,112.34052 L278.118565,112.122504 C278.317521,111.888236 278.478781,111.661299 278.602347,111.441686 L278.687954,111.27835 C278.818854,111.008413 279.032372,110.691858 279.328517,110.328677 C279.447968,109.999841 279.596452,109.74177 279.773973,109.554455 C279.91599,109.404603 280.08078,109.220987 280.268348,109.003604 L280.413294,108.834234 C280.612251,108.599967 280.786597,108.390044 280.936338,108.204463 L281.044029,108.06984 C281.215826,107.853077 281.402345,107.633454 281.603591,107.410966 C281.790112,107.19134 281.951785,106.976546 282.08861,106.766581 L282.217153,106.558225 C282.377502,106.282563 282.56402,106.062941 282.776714,105.899351 C283.013961,105.547618 283.274515,105.237201 283.558384,104.968091 C283.842252,104.698981 284.055357,104.45891 284.197705,104.24787 C284.4464,103.955036 284.686092,103.694516 284.916787,103.466304 C285.147482,103.238091 285.392897,103.00702 285.653041,102.773083 C286.63191,103.092171 287.63975,103.341952 288.676572,103.522433 L289.302144,103.622406 C290.560242,103.80572 291.741425,104.0651 292.845727,104.400555 C293.630988,104.981396 294.059992,105.616194 294.132753,106.304969 C294.205514,106.993743 294.422654,107.639162 294.78418,108.241245 C294.636868,109.3701 294.471382,110.493879 294.28772,111.612601 L294.097999,112.729639 C293.83696,114.216778 293.619684,115.771791 293.446164,117.394726 C293.424324,117.80646 293.349085,118.271015 293.220443,118.788401 L293.136849,119.105172 C292.956845,119.751394 292.832879,120.371434 292.764947,120.96531 C292.697015,121.559186 292.697395,122.032811 292.766087,122.386198 C292.834778,122.739586 293.098987,122.841035 293.558722,122.690548 C293.782865,122.585856 294.306421,122.05623 295.129405,121.101655 C295.952389,120.14708 296.814223,119.078002 297.714933,117.894387 C298.397649,116.997236 299.048163,116.115132 299.666487,115.24806 C299.964154,113.681313 300.357055,112.1451 300.843053,110.639215 C301.131059,109.60526 301.427647,108.615492 301.732826,107.669884 C301.999857,106.842476 302.404355,106.000057 302.94633,105.142607 L303.187022,104.774208 C303.512389,104.291832 303.753312,103.837102 303.909796,103.410008 L303.981001,103.198765 C304.130728,102.711236 304.40111,102.215542 304.792153,101.711667 C305.849142,99.9170036 307.128599,98.3236096 308.630564,96.9314376 C310.132529,95.5392656 312.091718,94.4555306 314.508187,93.6801999 C314.69633,93.704752 315.016988,93.7035448 315.470171,93.6765783 L316.873886,93.5870926 Z M316.879582,100.691534 C316.577713,101.025267 316.279539,101.220751 315.985049,101.277994 C315.47621,101.804766 315.037724,102.378978 314.669578,103.000648 C313.56845,104.253782 312.610891,105.616518 311.796873,107.088899 C310.982855,108.561279 310.359852,110.072913 309.927843,111.623846 C309.423832,113.433268 309.0049,115.28725 308.671031,117.185847 C308.337163,119.084443 308.076921,120.968701 307.890298,122.838676 C307.887815,123.297583 307.890395,123.738311 307.898038,124.160866 L307.907369,124.577363 C307.922059,125.124618 307.927749,125.704174 307.924439,126.316051 C307.935888,126.374949 308.052855,126.505019 308.275343,126.706265 C308.512589,126.354532 308.708108,126.102599 308.861905,125.950457 C309.810891,124.543526 310.648207,123.112479 311.373878,121.657272 C312.099549,120.202065 312.801899,118.705569 313.480948,117.167739 L313.534949,116.973873 C313.844197,116.363651 314.079819,115.76775 314.241822,115.18615 C314.403826,114.60455 314.586275,114.049545 314.789176,113.521118 C315.242427,112.393919 315.680533,111.346082 316.103508,110.377576 C316.526482,109.40907 316.846794,108.38413 317.064454,107.302725 C317.183525,106.500258 317.315707,105.721037 317.461002,104.96505 L317.610668,104.216806 C317.816051,103.229472 317.998121,102.200842 318.156882,101.130886 C318.183883,101.033953 318.192708,100.931958 318.183359,100.8249 L318.167951,100.716154 C318.151793,100.633027 318.144108,100.543384 318.144897,100.447222 L318.152436,100.298092 C317.600975,100.231915 317.176695,100.363061 316.879582,100.691534 Z M299.275764,122.2662 L299.100658,122.496405 L299.100658,122.496405 L299.099764,122.4982 L299.275764,122.2662 Z M123.088678,24.1613757 C123.865582,24.1868857 124.594835,24.2182451 125.27645,24.2554545 L127.469708,24.394198 L127.903246,24.6166211 C128.104845,24.7224409 128.283688,24.8201734 128.439777,24.9098196 C128.959019,25.6923772 129.437246,26.5101832 129.874471,27.3632621 C130.311695,28.216341 130.737682,29.1010112 131.152442,30.0172993 C131.308109,30.3004402 131.40605,30.6057771 131.446267,30.9333189 C131.486484,31.2608608 131.468976,31.6105979 131.393743,31.9825407 C131.41568,32.1611999 131.361348,32.3341085 131.230746,32.5012716 C131.100144,32.6684348 130.98626,32.8486555 130.88909,33.0419391 C130.242374,32.6981896 129.658876,32.3769092 129.138578,32.0780884 C128.61828,31.7792676 128.101647,31.5102273 127.588661,31.2709596 C126.130139,31.20824 124.645518,31.1789536 123.134755,31.1830993 C122.955884,31.3017832 122.738903,31.4251455 122.483806,31.5531884 L122.285336,31.6500983 C121.942642,31.8130776 121.547713,32.0429188 121.100538,32.3396286 C120.945911,32.261893 120.775739,32.2150832 120.590018,32.1991985 L120.447813,32.1930834 C120.205944,32.1925557 119.988372,32.1437078 119.795088,32.0465382 C117.345045,32.770522 114.902435,33.3663118 112.467204,33.833921 L111.423985,34.0264772 C108.643271,34.5190332 105.91614,35.2014702 103.242509,36.0738089 C102.809957,36.4896249 102.423905,36.9148386 102.084339,37.3494628 L101.104827,38.6031802 C100.994782,39.9224314 100.681424,41.1809406 100.164746,42.3787385 L99.9849894,42.7757559 C99.3606996,44.0916523 98.8980957,45.4934651 98.5971639,46.9812363 C98.2889199,48.4094544 97.9044123,49.8319032 97.4436295,51.2486253 C96.9828467,52.6653473 96.523635,54.2178686 96.0659806,55.9062355 C96.0064276,55.9135477 95.9150074,56.0305602 95.7917174,56.2572764 C95.6684275,56.4839926 95.4725271,56.7347336 95.2040106,57.0095069 C95.5278582,58.6623684 95.5001359,60.2828093 95.1208428,61.8708784 C94.7415497,63.4589475 94.3826344,65.0898289 94.0440861,66.7635714 C93.7201622,68.5564201 93.3831832,70.365958 93.0331389,72.1922394 C92.6830946,74.0185207 92.3497716,75.8578347 92.0331599,77.7102365 C91.4751694,81.0430972 90.9284194,84.3443039 90.3928933,87.6139555 C89.9912487,90.0661942 89.6000397,92.5341261 89.2192598,95.0177929 L88.8419559,97.5067063 C88.6684979,98.5556694 88.5694828,99.5954767 88.5449074,100.626159 L88.459422,103.991663 L85.4222308,104.364584 C84.8817302,104.229446 84.3470395,104.08688 83.8181516,103.936884 L83.0291708,103.706318 C82.2445404,103.470178 81.4170857,103.254414 80.5467817,103.05902 C80.3534981,102.96185 80.1751055,102.862854 80.0115984,102.762029 C79.8480914,102.661203 79.6733548,102.591983 79.4873834,102.554366 C78.6787435,101.384186 78.2125407,100.171979 78.0887611,98.9177085 C77.9649815,97.663438 77.9119879,96.3702701 77.9297788,95.038166 C78.2109612,88.958552 78.7115402,82.9427651 79.4315306,76.9906249 C80.1515211,71.0384847 81.0203812,65.0681535 82.0381371,59.0794523 C82.5428311,56.2971935 83.1068059,53.6285968 83.7300784,51.073582 C84.3533508,48.5185672 85.1142624,45.9769146 86.0128358,43.448548 C86.1998627,43.0024277 86.3477067,42.6064624 86.4563723,42.26064 L86.5895294,41.8090461 C86.6574873,41.5649452 86.7275144,41.2933878 86.7996114,40.9943711 L86.3167658,40.9611677 C86.2241984,40.9556074 86.1414519,40.9512593 86.0685258,40.9481233 C85.8862105,40.9402834 85.705726,40.9473316 85.5270668,40.9692682 C85.0579544,41.0873188 84.6222812,41.2314877 84.2200342,41.4017792 C83.9518695,41.5153069 83.6704736,41.6304584 83.3758428,41.7472351 L82.9239698,41.9236195 C82.0599226,42.2715147 81.1736882,42.5616805 80.2652401,42.7941257 C79.356792,43.0265709 78.552046,43.4880812 77.8509781,44.1786704 C77.6273902,44.3270254 77.3983216,44.4307139 77.1637655,44.4897393 C76.9292093,44.5487646 76.6667086,44.6263331 76.3762555,44.7224472 C76.2522745,44.6973695 76.1291073,44.678909 76.0067521,44.6670655 L75.8238282,44.6542629 C75.6415129,44.6464229 75.3941641,44.6012311 75.0817743,44.5186859 C74.834026,44.6548946 74.7186641,44.8326995 74.7356863,45.0521047 L74.7510867,45.1486825 C74.8137681,45.4130152 74.8038364,45.7013721 74.7212913,46.0137618 L73.6631773,46.8780452 C73.2701521,47.2024344 72.9369456,47.4821631 72.6635543,47.7172343 C70.9678751,47.2000268 69.5443899,46.4378341 68.3930561,45.4306331 C67.2417222,44.4234322 66.4299661,42.9816287 65.9577635,41.1051794 C66.4436113,40.1387614 67.0407162,39.3400463 67.7490963,38.7090101 C68.4574764,38.077974 69.202934,37.5028434 69.9854916,36.9836012 C71.2371615,36.3463083 72.4590365,35.712681 73.6511533,35.0827003 C74.8432702,34.4527197 76.0761133,33.9084207 77.3497198,33.449787 C78.668255,32.864735 79.9995734,32.3839072 81.3436944,32.0072918 C82.6878222,31.6306755 84.0301019,31.2391769 85.3705736,30.8327841 C87.8279292,30.1683534 90.3129322,29.6063209 92.8256571,29.1466699 C95.3383819,28.6870189 97.860473,28.1808826 100.392006,27.6282458 C102.74488,27.0975457 105.077083,26.6449497 107.388684,26.2704444 L109.729443,25.8873218 C111.30939,25.6261616 112.92822,25.3535105 114.585957,25.0693649 C115.24104,24.9889307 115.929546,24.9346178 116.651495,24.9064245 C117.373444,24.8782312 118.103222,24.6677258 118.840851,24.2749019 C119.071751,24.1861 119.594661,24.1370073 120.409596,24.1276222 C121.22453,24.1182372 122.117549,24.1294882 123.088678,24.1613757 Z M238.328199,35.8997068 C239.681184,36.5798935 241.117729,37.3253702 242.637878,38.1361592 C244.158026,38.9469482 245.665092,39.7744411 247.15912,40.6186627 C247.307474,40.8422505 247.442767,41.0825511 247.565002,41.3395716 L247.99282,42.2391389 C247.06922,42.5943463 246.053949,43.1874932 244.946978,44.0185974 C243.840007,44.8497017 242.744021,45.7701217 241.658986,46.7798851 C240.573952,47.7896485 239.565202,48.8051447 238.632706,49.8264041 C237.700211,50.8476636 236.972769,51.692607 236.450361,52.3612596 C236.189156,52.6955859 235.842284,53.0706515 235.409732,53.4864674 C235.148528,53.8207938 234.935648,54.1794071 234.771085,54.5623182 C234.606523,54.9452293 234.553491,55.3748906 234.611988,55.8513152 C235.794682,56.1292549 236.93635,56.4424506 238.037026,56.7909117 C239.137702,57.1393728 240.223474,57.4896566 241.294374,57.8417738 C241.450041,58.1249132 241.600222,58.3633873 241.74492,58.5571987 C241.889619,58.75101 242.062264,58.9262744 242.26286,59.082997 C243.681655,60.2991614 244.31841,61.7926772 244.173146,63.5635893 C244.124659,63.9564285 244.100078,64.3076397 244.099402,64.6172296 L244.116658,65.3042482 C244.121479,65.550294 244.123573,65.8184366 244.12294,66.1086786 C244.05816,66.2375343 243.985952,66.3605843 243.906314,66.4778302 L243.781284,66.649346 C243.650682,66.8165092 243.562918,66.9632977 243.517989,67.0897161 C243.560807,67.9307712 243.421575,68.6430415 243.10029,69.2265484 C242.779005,69.8100553 242.472612,70.3917254 242.181104,70.9715762 L241.722218,71.7243117 C241.505314,72.0846307 241.307216,72.4208777 241.127924,72.7330563 C240.829103,73.253354 240.470735,73.780956 240.052808,74.3158782 L238.167453,76.3155503 C237.552059,76.9653947 236.886525,77.5760493 236.170833,78.1475324 C235.738282,78.5633484 235.313313,78.9177779 234.895914,79.2108317 C234.478515,79.5038854 233.945937,79.7204027 233.298166,79.8603899 C232.764449,80.0266735 232.238357,80.2549885 231.719877,80.54534 L231.409702,80.7269953 C230.791179,81.1051948 230.165354,81.4238364 229.532206,81.6829298 C228.496812,82.1123147 227.480505,82.3277765 226.483255,82.3293216 C225.486005,82.3308667 224.462914,82.2449116 223.413951,82.0714536 C223.245393,82.0115487 223.069408,81.9458399 222.885992,81.8743264 L222.282461,81.6361024 C222.04286,81.5446208 221.754504,81.4389757 221.417388,81.3191659 C221.473813,81.0402088 221.506142,80.7727142 221.514375,80.5166775 L221.514576,80.2644601 C221.504136,79.9332621 221.540187,79.6114731 221.622733,79.2990834 C222.628878,78.6314862 223.605232,77.9675551 224.551825,77.3072702 C225.498417,76.6469852 226.370819,75.8749179 227.169056,74.991045 C229.407046,72.5400224 231.470529,69.8988841 233.359568,67.0675509 C233.613461,66.6736715 233.824513,66.3001701 233.992731,65.9470356 C234.16095,65.593901 234.308794,65.1979357 234.436268,64.7591276 C234.549946,64.5033661 234.649416,64.2106641 234.734677,63.881016 L234.795959,63.6268524 C234.893657,63.1917005 235.032361,62.7212949 235.212075,62.2156216 L234.497442,62.3033675 C232.558273,64.2340925 230.122363,65.3190344 227.189638,65.558226 C225.260375,65.5066698 223.414396,65.0434807 221.651666,64.1686481 L221.280628,64.6969332 C220.612465,65.6555112 219.942484,66.5991868 219.270665,67.5279883 C218.539293,68.464102 217.899088,69.4041216 217.350031,70.3480752 C216.983993,70.9773777 216.618771,71.6132907 216.254361,72.2558229 L215.708353,73.2245866 C215.162952,74.1983167 214.589611,75.1905764 213.988314,76.2013953 C213.387016,77.2122142 212.95106,78.3387301 212.680432,79.5809768 C212.43637,79.5625832 212.223236,79.5597366 212.041026,79.5724372 L211.910166,79.5848777 C211.70173,79.6104704 211.474754,79.6081146 211.229229,79.5778104 C210.864599,79.5621305 210.527922,79.5279067 210.219188,79.4751381 C209.910454,79.4223695 209.607209,79.4142658 209.309444,79.4508268 C207.247023,79.8854129 205.287041,79.4308937 203.429438,78.0872555 C203.156776,76.8512654 202.949154,75.652646 202.806566,74.4913612 C202.663978,73.3300764 202.579116,72.1466089 202.551979,70.9409232 C202.530268,69.9763746 202.540653,69.0369128 202.583134,68.1225199 L202.621012,67.4414254 C202.694172,66.314101 202.717183,65.1476134 202.690045,63.9419277 L201.997348,64.2083319 C200.854306,66.2226575 199.757772,68.2463569 198.707716,70.2794907 C197.657659,72.3126246 196.60187,74.4219962 195.540317,76.6076688 L195.121092,76.8858329 C194.953401,76.9970991 194.731645,77.1603398 194.455816,77.37556 L194.516141,77.8668703 C194.541734,78.0753061 194.59893,78.2949707 194.687732,78.5258707 C194.589507,79.2028911 194.251775,79.6523968 193.674525,79.8744015 C193.097274,80.0964061 192.551637,80.3296394 192.037596,80.5741084 C192.014604,80.8791844 191.980644,81.0949306 191.935715,81.2213489 L191.733537,81.7902286 C190.839186,82.3836483 189.874855,82.6531773 188.840516,82.5988263 C186.793776,82.6687818 185.09865,81.9097173 183.755088,80.3216101 C183.28183,78.9289047 182.929511,77.5364697 182.698121,76.1442848 C182.466732,74.7520999 182.41583,73.3528877 182.545415,71.9466062 C182.629608,71.366303 182.641455,70.7393748 182.580958,70.0658075 L182.54468,69.7251372 C182.445966,68.9211708 182.412289,68.1545685 182.443648,67.4253073 C182.168875,67.1567908 181.962534,67.0763387 181.82462,67.1839488 C181.686706,67.2915589 181.598942,67.4383475 181.561325,67.6243189 C181.508029,68.1749209 181.352609,68.6322664 181.095061,68.9963693 C180.837512,69.3604721 180.611572,69.7358015 180.417233,70.1223687 C180.163341,70.5162481 180.017325,70.9271015 179.979181,71.3549413 C179.941036,71.782779 179.702036,72.1748265 179.262172,72.5310894 C179.157691,72.6648199 179.069927,72.8116085 178.998877,72.9714594 C178.927828,73.1313104 178.903273,73.3005629 178.925209,73.4792221 C178.910333,74.2333264 178.717771,74.9017712 178.347517,75.4845721 L178.200342,75.6991079 C177.73383,76.3306718 177.488554,77.0408503 177.464507,77.8296645 C177.122328,78.3250605 176.856334,78.8425808 176.66652,79.3822364 L176.561773,79.708686 C176.370562,80.3668981 176.006446,80.9707684 175.469413,81.5203149 C175.200896,81.7950881 175.029024,82.1184413 174.953791,82.4903841 C174.878558,82.8623269 174.788702,83.1151597 174.68422,83.2488903 C173.97584,83.8799264 173.353143,84.4702089 172.81611,85.0197554 L172.827078,85.1090846 C172.722597,85.2428151 172.581028,85.3206475 172.402369,85.3425841 C171.10577,86.1062933 169.858567,86.4105576 168.660721,86.2553801 C167.462875,86.1002026 166.231879,85.797975 164.967696,85.3486883 C163.896796,84.9965711 163.012408,84.4402062 162.314508,83.6795894 C161.616606,82.9189685 161.198196,81.972918 161.059264,80.8414098 C160.793914,79.6649728 160.57506,78.4979575 160.402696,77.3403288 C160.348118,76.9737738 160.30082,76.6048115 160.260803,76.2334406 C159.201416,77.826895 158.220943,79.4254681 157.319199,81.0286043 C156.004282,83.3662879 154.830689,85.7470365 153.798385,88.1709214 C153.343897,88.4080781 152.904304,88.6434033 152.479593,88.876904 C152.054881,89.1104047 151.611632,89.3159538 151.149832,89.4935575 C148.484569,89.9417125 146.197577,89.285545 144.288788,87.5250353 C143.917901,86.9660657 143.651236,86.3943082 143.488784,85.8097458 C143.326333,85.2251835 143.204892,84.6053697 143.124457,83.950286 L142.883156,81.9850446 C142.802722,81.3299609 142.692513,80.678543 142.552526,80.0307715 C142.205384,80.5267768 141.876023,81.0290945 141.564439,81.5377332 L141.258779,82.0484792 C140.859132,82.732284 140.427888,83.4048465 139.965032,84.0661869 C139.502177,84.7275274 138.959404,85.3533339 138.336697,85.9436252 C137.713991,86.5339166 136.948161,87.066211 136.039185,87.5405246 C134.363331,88.1694498 132.653034,88.3945603 130.908243,88.215863 C129.163451,88.0371657 127.544593,87.2838492 126.051621,85.9558908 C125.782461,85.534368 125.550099,85.1099445 125.354537,84.6826188 C124.545253,86.0429395 123.710832,87.3837319 122.852958,88.7062102 C122.278309,89.4417281 121.700012,90.1474589 121.11805,90.8234238 L119.372173,92.8513081 C118.768275,93.3486138 118.268866,93.7121834 117.873931,93.942028 C115.974489,94.7193081 114.073776,95.2398238 112.171734,95.5035906 C110.269692,95.7673575 108.303698,95.5100388 106.273692,94.731627 C102.979504,93.5039284 100.822622,91.1996358 99.8029843,87.8186799 C99.3892793,86.4186551 99.126289,85.0152591 99.0140054,83.6084498 C98.9017219,82.2016405 98.8805963,80.7987723 98.950628,79.3998029 C99.2411574,75.8579787 99.7529111,72.3948316 100.485905,69.0102577 C101.218898,65.6256838 102.351766,62.2978484 103.884542,59.0266517 C104.811309,57.2202341 105.750066,55.880857 106.700842,55.0084802 C107.651619,54.1361034 108.661141,53.6192247 109.72944,53.4578286 C110.797739,53.2964326 111.956651,53.3808235 113.20621,53.7110041 C114.455769,54.0411847 115.842694,54.5056166 117.367026,55.1043138 C119.136882,55.7333152 120.506036,56.6684165 121.474526,57.9096459 C122.443017,59.1508752 123.182161,60.6167069 123.69198,62.3071848 L123.812631,63.2898055 C123.856504,63.6471239 123.863288,63.9485408 123.832984,64.1940653 C123.584293,65.6149712 123.287286,67.0115638 122.941953,68.3838849 C122.59662,69.7562061 121.983572,71.0404787 121.102789,72.2367412 C119.790674,73.8587453 118.545686,75.514468 117.367801,77.2039439 L116.669122,78.2216802 C115.287867,80.2652546 113.806337,82.2304382 112.224486,84.11729 C112.008211,84.325198 111.743354,84.6297432 111.429909,85.0309348 C111.413174,85.8793021 111.441103,86.7221726 111.513697,87.5595717 C111.586291,88.3969707 111.677428,89.2623052 111.787111,90.1556012 C112.598918,89.8745713 113.057055,89.6671942 113.161537,89.5334636 C114.436198,88.5910932 115.575285,87.5293687 116.57883,86.3482583 C117.582374,85.1671479 118.543332,83.8854949 119.461731,82.503261 C120.738504,80.5934171 121.905557,78.6517339 122.962926,76.6781531 C123.764969,75.1811392 124.57031,73.6402604 125.378962,72.0554898 C125.380455,72.045052 125.382382,72.0367267 125.384313,72.0284018 C125.838839,70.06839 126.436491,68.1663955 127.177286,66.3223614 C127.536715,65.3110148 127.901623,64.3443474 128.272021,63.4223304 C128.596119,62.6155654 129.058396,61.8034148 129.658864,60.9858598 L129.924668,60.6351482 C130.282891,60.1766435 130.554947,59.7398272 130.740842,59.3246897 L130.82661,59.1189274 C131.009981,58.6430306 131.314281,58.1674048 131.73952,57.6920358 C132.919123,55.9754755 134.306614,54.4752134 135.902033,53.1912045 C137.497453,51.9071956 139.527466,50.9627665 141.992134,50.3578889 C142.178105,50.3955053 142.498066,50.4166691 142.952026,50.4213806 L144.358565,50.4300312 C145.125669,50.5507792 145.779253,50.8168109 146.319333,51.2281331 L146.516542,51.3891894 C147.092209,51.8927898 147.815184,52.2422821 148.685487,52.4376767 C148.961316,52.2224565 149.211021,52.0406717 149.434609,51.8923167 C149.658197,51.7439618 149.878125,51.565833 150.094401,51.357925 C150.771421,51.4561501 151.446603,51.5394856 152.119967,51.6079341 C152.793332,51.6763826 153.47217,51.7894942 154.156502,51.9472723 L154.330843,52.3055722 C154.496172,52.6366414 154.634469,52.8860192 154.745735,53.0537101 L155.69856,53.7981388 C155.999454,54.0332227 156.320715,54.3111392 156.662354,54.6318966 C156.611495,55.2023496 156.553207,55.7669925 156.48749,56.3258326 L156.383341,57.1597419 C156.27362,57.989301 156.180617,58.8319076 156.104328,59.6875872 L155.838644,61.862427 L155.587066,63.9675276 C155.424049,65.3476887 155.247974,66.7445451 155.058836,68.1581388 C154.988804,69.5571082 154.870453,70.9317645 154.70378,72.282149 C154.537106,73.6325336 154.388979,75.010846 154.259394,76.4171275 C154.169537,76.6699641 154.128001,76.947089 154.134786,77.2485105 C154.14157,77.5499319 154.312123,77.8312406 154.646449,78.0924449 C155.625457,76.219162 156.589562,74.3477353 157.538793,72.4781085 C158.211287,71.1535498 159.003202,69.8750231 159.914551,68.6425093 C159.921939,65.1081085 160.21255,61.5384181 160.785515,57.9340232 C160.989278,56.6395356 161.282365,55.3340993 161.664787,54.0176751 C162.047208,52.7012509 162.455744,51.3514143 162.890406,49.9681249 C163.111914,49.4089594 163.366683,48.8844041 163.65472,48.3944493 L163.876985,48.0334706 C164.181655,47.5608153 164.472114,47.0512223 164.748367,46.5046815 L164.952893,46.087848 C165.071308,45.8214297 165.238694,45.6119705 165.455055,45.4594661 L165.590748,45.374798 C165.873889,45.2191309 166.119938,45.00757 166.328901,44.7401089 L167.722888,45.3850318 C168.139232,45.5757148 168.503593,45.7123268 168.815983,45.794872 L169.802404,46.0216547 C170.441807,46.1652091 171.04479,46.2934955 171.611359,46.4065152 L172.029458,46.4884175 C172.989091,46.6728438 173.933822,46.8590953 174.863679,47.0471777 C175.109204,47.077482 175.302484,47.17465 175.443527,47.3386849 C175.58457,47.5027197 175.759043,47.692872 175.966951,47.9091477 C175.823797,48.7125864 175.723481,49.4956409 175.666001,50.2583347 C175.608521,51.0210285 175.314925,51.7069149 174.785204,52.3160145 C174.886519,53.6334942 174.814924,54.8966221 174.570417,56.1054362 C174.32591,57.3142503 174.124243,58.5026741 173.965409,59.6707434 C173.799263,60.7792596 173.601516,61.8765271 173.372161,62.962579 C173.142806,64.0486308 172.881851,65.1234344 172.589286,66.1870219 L172.693485,67.0356489 C172.72639,67.3036377 172.813362,67.5196463 172.954405,67.6836811 C173.319035,67.6993609 173.548104,67.5956724 173.641617,67.3726122 C173.735131,67.1495521 173.826815,66.9116073 173.916672,66.6587706 C174.464862,65.5436459 174.999813,64.4301572 175.521531,63.3182898 L176.294186,61.6517027 C177.056918,59.9863278 177.82695,58.3805301 178.604307,56.8342613 C179.262557,55.3026169 180.084302,53.8718197 181.069566,52.5418266 C181.696457,51.7394434 182.354942,50.9483043 183.045041,50.1683855 C183.735141,49.3884666 184.657427,48.7765117 185.811927,48.3325025 C186.475624,48.568378 187.154005,48.7854453 187.847083,48.9837079 L188.54506,49.1757025 C189.482229,49.4233379 190.486249,49.7232097 191.557148,50.0753269 C191.772368,50.3511557 191.998817,50.5953762 192.236502,50.8079957 C192.474186,51.0206153 192.670859,51.2684919 192.826526,51.5516328 C193.189046,52.5347861 193.339472,53.5137457 193.277808,54.4885266 C193.216144,55.4633123 193.210377,56.4009952 193.260506,57.3016034 C193.243771,58.1499707 193.186028,59.0335854 193.087275,59.9524741 C192.988522,60.8713628 192.874883,61.7920658 192.746354,62.7146106 C193.058743,62.7971557 193.280236,62.7548473 193.410838,62.5876842 L193.763462,62.1363459 C194.764407,60.4417222 195.780224,58.7452959 196.810944,57.0470161 C197.841665,55.3487364 198.853826,53.622534 199.847458,51.8683572 C200.475053,50.7434829 201.089407,49.6202448 201.690529,48.4986278 L202.582289,46.8174163 C203.464127,45.1374171 204.405504,43.4501309 205.406448,41.7555072 L205.827162,41.0791947 C205.900183,40.9627611 205.974655,40.84447 206.050579,40.724321 C206.278351,40.3638743 206.649252,40.061421 207.163293,39.816952 C208.412852,40.1471326 209.67728,40.4754802 210.956615,40.8020047 C212.235951,41.1285292 213.541123,41.542549 214.872172,42.0440766 C215.015652,42.2279624 215.151701,42.406042 215.280321,42.5783175 L215.46768,42.8323782 C215.649468,43.0820865 215.847969,43.3448511 216.063189,43.6206799 C215.955541,45.2056206 215.918678,46.7516214 215.952601,48.2587285 C215.982283,49.5774473 215.863782,50.9143433 215.597095,52.2694473 L215.473727,52.851321 C215.165483,54.2795391 214.905564,55.7320278 214.693962,57.2088307 C214.48236,58.6856336 214.09968,60.1229704 213.545912,61.5208842 C213.52292,61.8259617 213.527876,62.1124906 213.560781,62.3804794 C213.593686,62.6484682 213.568866,62.9386531 213.486321,63.2510429 L213.370306,65.2601572 C214.203295,64.8831022 214.830559,64.3564554 215.252114,63.6802034 L215.37241,63.4728397 C215.790864,62.6960492 216.331809,62.0553547 216.995261,61.5507368 L217.598035,61.5674014 C217.787793,61.5743272 217.966385,61.5826241 218.133812,61.5922921 C218.334724,61.6038937 218.55303,61.6242403 218.788732,61.6533322 L218.724321,61.4996383 C218.622115,61.2273983 218.552488,60.9404108 218.51544,60.6386753 C218.257402,59.5217914 218.211456,58.409108 218.377602,57.3005918 C218.572997,56.4302879 218.835253,55.6122371 219.164378,54.846415 C219.493503,54.0805928 219.848743,53.28135 220.230109,52.4486625 C221.216429,50.6349327 222.355007,48.9536583 223.645876,47.404789 C224.936746,45.8559196 226.313004,44.3872616 227.774693,42.9987709 C228.059811,42.6950923 228.499502,42.2888528 229.093777,41.7800426 L231.582999,39.6748794 C232.218242,39.1374546 232.828402,38.6321311 233.413491,38.1588993 L233.847607,37.8099926 C234.563299,37.2385095 235.114948,36.8080756 235.502571,36.5186779 C235.837953,36.2961455 236.214074,36.1592887 236.630945,36.1081033 C236.861845,36.0193017 237.113114,35.9733371 237.384759,35.9702087 C237.656404,35.9670803 237.970881,35.9435799 238.328199,35.8997068 Z M143.868666,57.5175642 C143.544253,57.8294262 143.233168,58.0036351 142.935403,58.0401961 C142.391057,58.5301895 141.913584,59.0724157 141.50297,59.6668909 C140.31711,60.8401613 139.266824,62.1327824 138.352081,63.5447929 C137.437338,64.9568034 136.710405,66.4212967 136.171261,67.9383166 C135.54226,69.7081733 134.99502,71.5284154 134.529526,73.3990977 C134.064031,75.26978 133.672984,77.1312941 133.356372,78.9836959 C133.321884,79.4413122 133.293715,79.881146 133.271863,80.3032047 L133.252117,80.7193386 C133.228597,81.2662845 133.193846,81.8448263 133.147862,82.4549814 C133.155174,82.5145344 133.262782,82.6524468 133.47069,82.8687224 C133.731895,82.5343961 133.944511,82.2967152 134.108546,82.1556724 C135.153363,80.8183671 136.088465,79.4492139 136.913878,78.0481718 C137.739291,76.6471296 138.54432,75.2032723 139.328989,73.7165566 L139.396381,73.52693 C139.747443,72.9397671 140.024059,72.361753 140.226238,71.7928705 C140.428417,71.223988 140.649137,70.6830621 140.888405,70.1700766 C141.419182,69.0772403 141.929314,68.0625166 142.418818,67.1258752 C142.908322,66.1892338 143.29935,65.1891343 143.591914,64.1255468 C143.766672,63.3333403 143.952888,62.565238 144.150564,61.8212271 L144.35206,61.0852463 C144.625816,60.1146444 144.879196,59.1012211 145.112207,58.0449458 C145.145903,57.950132 145.161822,57.8490013 145.159964,57.741552 L145.152179,57.6319963 C145.141859,57.5479446 145.140446,57.4579832 145.147941,57.3621113 L145.165864,57.2138705 C144.620363,57.109386 144.187968,57.2106164 143.868666,57.5175642 Z M291.585733,23.9652887 C292.653504,24.045761 293.722824,24.2620525 294.793724,24.6141697 C295.254468,24.9203027 295.754386,25.1762829 296.293492,25.3821181 C296.832598,25.5879532 297.384756,25.7770692 297.949982,25.9494716 C299.629982,26.8313097 301.117975,27.8727193 302.414008,29.0737315 C303.710041,30.2747438 304.571681,31.8766597 304.998955,33.8795274 C304.715814,34.0351945 304.477078,34.3063076 304.282738,34.6928748 C304.564824,35.0209444 304.895225,35.3733011 305.273953,35.7499555 C305.65268,36.1266099 305.927185,36.5160548 306.097477,36.9183019 C306.126725,37.1565141 306.140427,37.4256484 306.138581,37.7257101 L306.134282,37.9565554 C306.122258,38.3509625 306.145495,38.7863718 306.203992,39.2627963 C306.114663,39.2737646 306.071655,47.0469455 306.08628,47.1660516 C305.804172,47.8224706 305.584818,48.5377949 305.428211,49.3120405 L305.355137,49.7040735 C305.228492,50.4450342 305.051867,51.172779 304.825259,51.8873218 L304.645931,52.4207537 C304.473528,52.9859801 304.06814,53.7460429 303.429753,54.7009648 C302.791367,55.6558868 302.099186,56.5418382 301.353189,57.3588458 L298.984383,58.3751056 C298.381013,58.6305429 297.735079,58.7854161 297.046562,58.8397298 C296.358046,58.8940436 295.520923,58.8457043 294.53517,58.6947107 C293.549416,58.543717 292.208719,58.2096215 290.51304,57.692414 C290.125417,57.9818116 289.823473,58.2304607 289.607197,58.4383687 L289.263195,58.7753034 C289.141998,58.8959728 289.01427,59.0250003 288.880012,59.162387 C287.827883,60.4401392 286.633428,61.2970871 285.296612,61.7332564 C283.959797,62.1694258 282.49894,62.3336839 280.914,62.2260357 C280.430263,62.2249802 279.959593,62.2072086 279.501977,62.1727205 C279.044361,62.1382324 278.599811,62.0870287 278.168316,62.019108 C277.899799,62.2938812 277.795055,62.5485421 277.85408,62.7830983 C277.913106,63.0176545 277.957242,63.2540351 277.986491,63.4922474 C278.475429,64.5203294 279.035144,65.5094798 279.665652,66.4597283 C280.29616,67.4099767 281.083116,68.2805505 282.026542,69.0714758 C282.301315,69.3399923 282.538996,69.5526087 282.739592,69.7093313 C282.940187,69.8660539 283.1669,69.9893421 283.419737,70.0791994 L283.746333,70.198688 L284.323205,70.4216469 C284.672684,70.560089 285.159805,70.7118529 285.784585,70.8769432 L287.526503,70.6630625 C288.15181,70.5862845 288.754908,70.4517834 289.335814,70.2595553 C289.612894,70.1529931 289.904735,70.0337381 290.211339,69.9017891 L290.844233,69.6209653 C291.388051,69.3728402 291.98018,69.1490109 292.62064,68.9494706 L293.39867,68.2292848 C293.531244,68.1055392 293.665269,67.9799361 293.800746,67.852475 C294.207177,67.4700916 294.649126,67.0077897 295.126606,66.4655554 C295.758697,66.6901988 296.455816,66.9521908 297.217982,67.2515394 C297.980148,67.550888 298.691891,67.9319843 299.353231,68.39484 C299.419041,68.9308176 299.526122,69.3105946 299.674476,69.5341825 C299.444319,69.7697024 299.307237,69.9493794 299.263225,70.0732171 L299.248976,70.1304827 C299.233823,70.253245 299.166695,70.3219373 299.047589,70.3365617 C297.355,71.8138542 295.497896,72.8126152 293.47622,73.3328748 C291.454544,73.8531345 289.383278,74.0923414 287.262359,74.050503 C285.431894,73.9125505 283.692877,73.6575877 282.045254,73.2856067 C280.397632,72.9136258 278.759967,72.2532936 277.132208,71.3045903 C276.098925,70.7665017 275.129129,70.1299528 274.222792,69.3949245 C273.316455,68.6598963 272.559276,67.7856664 271.951232,66.7722088 C271.642823,66.229748 271.287945,65.702672 270.886592,65.1909704 L270.576864,64.8100767 C270.046125,64.1800579 269.614127,63.4925883 269.280856,62.7476472 C268.703117,61.4886651 268.264862,60.2579138 267.966079,59.0553565 C267.667296,57.8527991 267.437474,56.5964555 267.276606,55.286288 C267.132473,53.1277532 267.157595,50.9938067 267.351972,48.8843844 C267.546349,46.7749621 267.999304,44.6791592 268.710851,42.5969129 C269.213434,40.7821276 269.950034,39.1502098 270.920674,37.7011106 C272.497324,34.7872323 274.340879,32.3242227 276.451394,30.3120081 C278.56191,28.2997935 281.110668,26.6569457 284.097745,25.3834154 C284.671339,25.1316343 285.309961,24.9172089 286.013629,24.7401329 C286.541381,24.607326 287.086903,24.4808385 287.650207,24.3606684 L288.219437,24.242604 C289.395874,23.9772539 290.517962,23.8848164 291.585733,23.9652887 Z M116.440715,60.1145482 L116.00973,60.6661838 C115.879128,60.833347 115.79502,61.0099116 115.757403,61.195883 L115.027844,63.0083035 C114.773424,63.6440512 114.597104,64.3004254 114.498879,64.9774457 C114.393342,65.594913 114.220942,66.1601309 113.981674,66.6731164 C113.742406,67.1861019 113.410158,67.6802718 112.984919,68.1556409 C112.991176,68.6989307 113.010492,69.2254962 113.042869,69.7353534 C113.075246,70.2452106 113.120683,70.738344 113.179181,71.2147686 C113.193805,71.3338747 113.360966,71.4644749 113.680668,71.6065731 C114.464281,70.6035942 115.181018,69.5483902 115.8309,68.4409295 C116.480783,67.3334688 116.989615,66.0619923 117.357412,64.626462 C117.262353,63.8522722 117.215616,63.1023859 117.2172,62.3767808 C117.218783,61.6511757 116.959957,60.8971057 116.440715,60.1145482 Z M288.115516,46.2896038 C287.340271,46.8683991 286.79175,47.5704739 286.469937,48.3958491 L286.039754,49.50051 C285.829616,50.0340956 285.626908,50.5395652 285.431626,51.0169245 C285.106157,51.8125232 284.815953,52.649118 284.561006,53.5267342 C284.571974,53.6160638 284.565165,53.6990744 284.540578,53.7757673 L284.510065,53.8503544 C284.461481,53.9469962 284.556293,53.9806922 284.794505,53.9514434 C285.659608,53.1198115 286.402201,52.1521077 287.022307,51.0483031 C287.642413,49.9444985 288.057997,48.7751465 288.269072,47.540212 C288.366241,47.3469284 288.372253,47.1497278 288.287107,46.9486042 C288.201961,46.7474807 288.144765,46.5278161 288.115516,46.2896038 Z M292.554162,27.7907816 C291.623249,28.0864359 290.688695,28.3523098 289.75047,28.5884111 C289.149555,29.1803447 288.580312,29.6684552 288.042731,30.0527529 L287.776578,30.2362507 C287.161712,30.6442268 286.526218,31.1302929 285.870079,31.6944638 C285.345167,32.1458006 284.871414,32.6198672 284.448809,33.1166731 L284.141446,33.4935412 C283.645158,34.1287612 283.098729,34.7247916 282.502143,35.2816503 C281.920181,35.9576152 281.41084,36.6095417 280.974105,37.2374495 C280.53737,37.8653573 280.154445,38.5622119 279.82532,39.3280341 C279.436642,40.1011684 279.07409,40.8408591 278.737653,41.5471282 C278.401215,42.2533973 278.124335,42.9523438 277.907004,43.6439885 C277.652056,44.5216046 277.358196,45.3284234 277.025415,46.064469 C276.692634,46.8005147 276.599367,47.7640537 276.745611,48.9551151 L277.033638,48.5315427 C277.301732,48.1302542 277.510025,47.7958164 277.658521,47.5282234 C277.856516,47.1714328 278.05268,46.7997594 278.24702,46.4131922 C278.553153,45.9524476 278.900289,45.4564497 279.288439,44.9251837 C279.67659,44.3939177 280.079623,43.8608316 280.49755,43.3259095 C282.422094,41.2760784 284.756652,40.5965058 287.501295,41.2871712 C288.11145,41.3331554 288.658387,41.3566749 289.142124,41.3577303 C289.625861,41.3587858 290.113246,41.3896174 290.604295,41.450226 C290.816651,41.3334756 291.022686,41.2345039 291.222405,41.1533092 L291.420018,41.0780402 C291.680694,40.9855823 291.922823,40.8651776 292.146411,40.7168227 L293.227562,40.8447672 C293.580044,40.8846073 293.924624,40.9216393 294.261307,40.9558635 C294.934671,41.024312 295.587389,41.1708557 296.219481,41.3954991 L296.460782,43.3607405 C296.488203,43.5840645 296.539718,43.7959267 296.61533,43.9963305 L296.698974,44.1929151 C296.821208,44.4499356 296.900605,44.7273243 296.937166,45.0250897 C296.423125,45.2695586 296.072596,45.6148481 295.885569,46.0609683 C295.719424,47.1694845 295.709473,48.319256 295.855717,49.5103174 C295.809733,50.1204724 295.856733,50.7494263 295.996721,51.3971979 C296.136708,52.0449694 296.257885,52.7857155 296.360256,53.6194585 C297.277599,52.7209612 297.889856,51.7994858 298.197045,50.8550044 C298.504233,49.910523 298.751865,48.9733679 298.939947,48.0435109 C299.105038,47.4187314 299.216057,46.8459375 299.27301,46.3251121 C299.329962,45.8042866 299.40755,45.2053727 299.505775,44.5283524 L299.522347,43.4817309 C299.528879,42.944129 299.532778,42.3850889 299.534044,41.8046048 C299.536155,40.8371313 299.783787,39.8999762 300.276947,38.9931113 C299.801578,38.5678722 299.47144,38.0945831 299.286524,37.5732299 C299.101608,37.0518767 298.959531,36.5101592 298.860289,35.9480611 C298.761047,35.3859631 298.689754,34.8053294 298.646408,34.2061426 C298.603063,33.6069559 298.481622,32.9871421 298.282082,32.3466828 L297.699506,31.386776 L296.473238,29.3384523 C296.273953,29.0077751 296.079762,28.687807 295.890662,28.3785456 C294.59723,27.6910466 293.485074,27.4951272 292.554162,27.7907816 Z" id="Combined-Shape" fill="#FFFFFF" transform="translate(202.518624, 105.468228) rotate(4.000000) translate(-202.518624, -105.468228) "></path>
                        <g id="Group-10" transform="translate(319.755661, 56.028148) rotate(26.000000) translate(-319.755661, -56.028148) translate(319.255661, -4.971852)" stroke="#FFFFFF" stroke-linecap="square">
                            <line x1="0.557313306" y1="0.985516778" x2="0.557313306" y2="78.9592783" id="Line"></line>
                            <line x1="0.557313306" y1="85.3195089" x2="0.557313306" y2="121.722671" id="Line-Copy" stroke-dasharray="1,5"></line>
                        </g>
                        <g id="Group-10-Copy-3" transform="translate(27.777095, 67.800678) rotate(26.000000) translate(-27.777095, -67.800678) translate(27.277095, 6.800678)" stroke="#FFFFFF" stroke-linecap="square">
                            <line x1="0.497957831" y1="0.509644269" x2="0.497957831" y2="78.4834058" id="Line"></line>
                            <line x1="0.497957831" y1="84.8436364" x2="0.497957831" y2="121.246798" id="Line-Copy" stroke-dasharray="1,5"></line>
                        </g>
                        <g id="Group-10-Copy-2" transform="translate(289.299987, 139.393563) rotate(26.000000) translate(-289.299987, -139.393563) translate(288.799987, 78.393563)" stroke="#FFFFFF" stroke-linecap="square">
                            <line x1="0.497957831" y1="0.509644269" x2="0.497957831" y2="78.4834058" id="Line"></line>
                            <line x1="0.497957831" y1="84.8436364" x2="0.497957831" y2="121.246798" id="Line-Copy" stroke-dasharray="1,5"></line>
                        </g>
                        <g id="Group-10-Copy" transform="translate(37.338948, 199.322611) rotate(26.000000) translate(-37.338948, -199.322611) translate(36.838948, 180.822611)" stroke="#353A50" stroke-dasharray="1,5" stroke-linecap="square">
                            <line x1="0.398366265" y1="0.40687747" x2="0.398366265" y2="36.8100395" id="Line-Copy"></line>
                        </g>
                    </g>
                    <g id="Combined-Shape-2-Copy" transform="translate(450.368643, 95.105110) rotate(-68.000000) translate(-450.368643, -95.105110) translate(421.368643, 66.105110)" fill="#FFFFFF">
                        <path d="M5.17852008,50.0166539 C6.82145587,50.0166539 8.15331849,51.3449477 8.15331849,52.983481 C8.15331849,54.6220144 6.82145587,55.9503082 5.17852008,55.9503082 C3.53558428,55.9503082 2.20372167,54.6220144 2.20372167,52.983481 C2.20372167,51.3449477 3.53558428,50.0166539 5.17852008,50.0166539 Z M17.0777137,50.0166539 C18.7206495,50.0166539 20.0525121,51.3449477 20.0525121,52.983481 C20.0525121,54.6220144 18.7206495,55.9503082 17.0777137,55.9503082 C15.4347779,55.9503082 14.1029153,54.6220144 14.1029153,52.983481 C14.1029153,51.3449477 15.4347779,50.0166539 17.0777137,50.0166539 Z M28.9769074,50.0166539 C30.6198432,50.0166539 31.9517058,51.3449477 31.9517058,52.983481 C31.9517058,54.6220144 30.6198432,55.9503082 28.9769074,55.9503082 C27.3339716,55.9503082 26.0021089,54.6220144 26.0021089,52.983481 C26.0021089,51.3449477 27.3339716,50.0166539 28.9769074,50.0166539 Z M40.876101,50.0166539 C42.5190368,50.0166539 43.8508994,51.3449477 43.8508994,52.983481 C43.8508994,54.6220144 42.5190368,55.9503082 40.876101,55.9503082 C39.2331652,55.9503082 37.9013026,54.6220144 37.9013026,52.983481 C37.9013026,51.3449477 39.2331652,50.0166539 40.876101,50.0166539 Z M52.7752946,50.0166539 C54.4182304,50.0166539 55.7500931,51.3449477 55.7500931,52.983481 C55.7500931,54.6220144 54.4182304,55.9503082 52.7752946,55.9503082 C51.1323588,55.9503082 49.8004962,54.6220144 49.8004962,52.983481 C49.8004962,51.3449477 51.1323588,50.0166539 52.7752946,50.0166539 Z M5.17852008,38.1493453 C6.82145587,38.1493453 8.15331849,39.4776391 8.15331849,41.1161725 C8.15331849,42.7547059 6.82145587,44.0829996 5.17852008,44.0829996 C3.53558428,44.0829996 2.20372167,42.7547059 2.20372167,41.1161725 C2.20372167,39.4776391 3.53558428,38.1493453 5.17852008,38.1493453 Z M17.0777137,38.1493453 C18.7206495,38.1493453 20.0525121,39.4776391 20.0525121,41.1161725 C20.0525121,42.7547059 18.7206495,44.0829996 17.0777137,44.0829996 C15.4347779,44.0829996 14.1029153,42.7547059 14.1029153,41.1161725 C14.1029153,39.4776391 15.4347779,38.1493453 17.0777137,38.1493453 Z M28.9769074,38.1493453 C30.6198432,38.1493453 31.9517058,39.4776391 31.9517058,41.1161725 C31.9517058,42.7547059 30.6198432,44.0829996 28.9769074,44.0829996 C27.3339716,44.0829996 26.0021089,42.7547059 26.0021089,41.1161725 C26.0021089,39.4776391 27.3339716,38.1493453 28.9769074,38.1493453 Z M40.876101,38.1493453 C42.5190368,38.1493453 43.8508994,39.4776391 43.8508994,41.1161725 C43.8508994,42.7547059 42.5190368,44.0829996 40.876101,44.0829996 C39.2331652,44.0829996 37.9013026,42.7547059 37.9013026,41.1161725 C37.9013026,39.4776391 39.2331652,38.1493453 40.876101,38.1493453 Z M52.7752946,38.1493453 C54.4182304,38.1493453 55.7500931,39.4776391 55.7500931,41.1161725 C55.7500931,42.7547059 54.4182304,44.0829996 52.7752946,44.0829996 C51.1323588,44.0829996 49.8004962,42.7547059 49.8004962,41.1161725 C49.8004962,39.4776391 51.1323588,38.1493453 52.7752946,38.1493453 Z M17.0777137,26.2820368 C18.7206495,26.2820368 20.0525121,27.6103305 20.0525121,29.2488639 C20.0525121,30.8873973 18.7206495,32.2156911 17.0777137,32.2156911 C15.4347779,32.2156911 14.1029153,30.8873973 14.1029153,29.2488639 C14.1029153,27.6103305 15.4347779,26.2820368 17.0777137,26.2820368 Z M28.9769074,26.2820368 C30.6198432,26.2820368 31.9517058,27.6103305 31.9517058,29.2488639 C31.9517058,30.8873973 30.6198432,32.2156911 28.9769074,32.2156911 C27.3339716,32.2156911 26.0021089,30.8873973 26.0021089,29.2488639 C26.0021089,27.6103305 27.3339716,26.2820368 28.9769074,26.2820368 Z M40.876101,26.2820368 C42.5190368,26.2820368 43.8508994,27.6103305 43.8508994,29.2488639 C43.8508994,30.8873973 42.5190368,32.2156911 40.876101,32.2156911 C39.2331652,32.2156911 37.9013026,30.8873973 37.9013026,29.2488639 C37.9013026,27.6103305 39.2331652,26.2820368 40.876101,26.2820368 Z M52.7752946,26.2820368 C54.4182304,26.2820368 55.7500931,27.6103305 55.7500931,29.2488639 C55.7500931,30.8873973 54.4182304,32.2156911 52.7752946,32.2156911 C51.1323588,32.2156911 49.8004962,30.8873973 49.8004962,29.2488639 C49.8004962,27.6103305 51.1323588,26.2820368 52.7752946,26.2820368 Z M28.9769074,14.4147282 C30.6198432,14.4147282 31.9517058,15.743022 31.9517058,17.3815554 C31.9517058,19.0200888 30.6198432,20.3483825 28.9769074,20.3483825 C27.3339716,20.3483825 26.0021089,19.0200888 26.0021089,17.3815554 C26.0021089,15.743022 27.3339716,14.4147282 28.9769074,14.4147282 Z M40.876101,14.4147282 C42.5190368,14.4147282 43.8508994,15.743022 43.8508994,17.3815554 C43.8508994,19.0200888 42.5190368,20.3483825 40.876101,20.3483825 C39.2331652,20.3483825 37.9013026,19.0200888 37.9013026,17.3815554 C37.9013026,15.743022 39.2331652,14.4147282 40.876101,14.4147282 Z M52.7752946,14.4147282 C54.4182304,14.4147282 55.7500931,15.743022 55.7500931,17.3815554 C55.7500931,19.0200888 54.4182304,20.3483825 52.7752946,20.3483825 C51.1323588,20.3483825 49.8004962,19.0200888 49.8004962,17.3815554 C49.8004962,15.743022 51.1323588,14.4147282 52.7752946,14.4147282 Z M40.876101,2.54741969 C42.5190368,2.54741969 43.8508994,3.87571344 43.8508994,5.51424683 C43.8508994,7.15278021 42.5190368,8.48107396 40.876101,8.48107396 C39.2331652,8.48107396 37.9013026,7.15278021 37.9013026,5.51424683 C37.9013026,3.87571344 39.2331652,2.54741969 40.876101,2.54741969 Z M52.7752946,2.54741969 C54.4182304,2.54741969 55.7500931,3.87571344 55.7500931,5.51424683 C55.7500931,7.15278021 54.4182304,8.48107396 52.7752946,8.48107396 C51.1323588,8.48107396 49.8004962,7.15278021 49.8004962,5.51424683 C49.8004962,3.87571344 51.1323588,2.54741969 52.7752946,2.54741969 Z" id="Combined-Shape" transform="translate(28.976907, 29.248864) rotate(-4.000000) translate(-28.976907, -29.248864) "></path>
                    </g>
                    <g id="Combined-Shape-2-Copy-2" transform="translate(114.758491, 225.506549) rotate(-239.000000) translate(-114.758491, -225.506549) translate(87.758491, 198.506549)" fill="#FFFFFF">
                        <path d="M2.97479841,47.4692342 C4.61773421,47.4692342 5.94959682,48.797528 5.94959682,50.4360614 C5.94959682,52.0745947 4.61773421,53.4028885 2.97479841,53.4028885 C1.33186261,53.4028885 -7.01660952e-14,52.0745947 -7.01660952e-14,50.4360614 C-7.01660952e-14,48.797528 1.33186261,47.4692342 2.97479841,47.4692342 Z M14.8739921,47.4692342 C16.5169278,47.4692342 17.8487905,48.797528 17.8487905,50.4360614 C17.8487905,52.0745947 16.5169278,53.4028885 14.8739921,53.4028885 C13.2310563,53.4028885 11.8991936,52.0745947 11.8991936,50.4360614 C11.8991936,48.797528 13.2310563,47.4692342 14.8739921,47.4692342 Z M26.7731857,47.4692342 C28.4161215,47.4692342 29.7479841,48.797528 29.7479841,50.4360614 C29.7479841,52.0745947 28.4161215,53.4028885 26.7731857,53.4028885 C25.1302499,53.4028885 23.7983873,52.0745947 23.7983873,50.4360614 C23.7983873,48.797528 25.1302499,47.4692342 26.7731857,47.4692342 Z M38.6723793,47.4692342 C40.3153151,47.4692342 41.6471777,48.797528 41.6471777,50.4360614 C41.6471777,52.0745947 40.3153151,53.4028885 38.6723793,53.4028885 C37.0294435,53.4028885 35.6975809,52.0745947 35.6975809,50.4360614 C35.6975809,48.797528 37.0294435,47.4692342 38.6723793,47.4692342 Z M50.571573,47.4692342 C52.2145088,47.4692342 53.5463714,48.797528 53.5463714,50.4360614 C53.5463714,52.0745947 52.2145088,53.4028885 50.571573,53.4028885 C48.9286372,53.4028885 47.5967746,52.0745947 47.5967746,50.4360614 C47.5967746,48.797528 48.9286372,47.4692342 50.571573,47.4692342 Z M2.97479841,35.6019257 C4.61773421,35.6019257 5.94959682,36.9302194 5.94959682,38.5687528 C5.94959682,40.2072862 4.61773421,41.5355799 2.97479841,41.5355799 C1.33186261,41.5355799 3.84581256e-13,40.2072862 3.84581256e-13,38.5687528 C3.84581256e-13,36.9302194 1.33186261,35.6019257 2.97479841,35.6019257 Z M14.8739921,35.6019257 C16.5169278,35.6019257 17.8487905,36.9302194 17.8487905,38.5687528 C17.8487905,40.2072862 16.5169278,41.5355799 14.8739921,41.5355799 C13.2310563,41.5355799 11.8991936,40.2072862 11.8991936,38.5687528 C11.8991936,36.9302194 13.2310563,35.6019257 14.8739921,35.6019257 Z M26.7731857,35.6019257 C28.4161215,35.6019257 29.7479841,36.9302194 29.7479841,38.5687528 C29.7479841,40.2072862 28.4161215,41.5355799 26.7731857,41.5355799 C25.1302499,41.5355799 23.7983873,40.2072862 23.7983873,38.5687528 C23.7983873,36.9302194 25.1302499,35.6019257 26.7731857,35.6019257 Z M38.6723793,35.6019257 C40.3153151,35.6019257 41.6471777,36.9302194 41.6471777,38.5687528 C41.6471777,40.2072862 40.3153151,41.5355799 38.6723793,41.5355799 C37.0294435,41.5355799 35.6975809,40.2072862 35.6975809,38.5687528 C35.6975809,36.9302194 37.0294435,35.6019257 38.6723793,35.6019257 Z M50.571573,35.6019257 C52.2145088,35.6019257 53.5463714,36.9302194 53.5463714,38.5687528 C53.5463714,40.2072862 52.2145088,41.5355799 50.571573,41.5355799 C48.9286372,41.5355799 47.5967746,40.2072862 47.5967746,38.5687528 C47.5967746,36.9302194 48.9286372,35.6019257 50.571573,35.6019257 Z M14.8739921,23.7346171 C16.5169278,23.7346171 17.8487905,25.0629109 17.8487905,26.7014442 C17.8487905,28.3399776 16.5169278,29.6682714 14.8739921,29.6682714 C13.2310563,29.6682714 11.8991936,28.3399776 11.8991936,26.7014442 C11.8991936,25.0629109 13.2310563,23.7346171 14.8739921,23.7346171 Z M26.7731857,23.7346171 C28.4161215,23.7346171 29.7479841,25.0629109 29.7479841,26.7014442 C29.7479841,28.3399776 28.4161215,29.6682714 26.7731857,29.6682714 C25.1302499,29.6682714 23.7983873,28.3399776 23.7983873,26.7014442 C23.7983873,25.0629109 25.1302499,23.7346171 26.7731857,23.7346171 Z M38.6723793,23.7346171 C40.3153151,23.7346171 41.6471777,25.0629109 41.6471777,26.7014442 C41.6471777,28.3399776 40.3153151,29.6682714 38.6723793,29.6682714 C37.0294435,29.6682714 35.6975809,28.3399776 35.6975809,26.7014442 C35.6975809,25.0629109 37.0294435,23.7346171 38.6723793,23.7346171 Z M50.571573,23.7346171 C52.2145088,23.7346171 53.5463714,25.0629109 53.5463714,26.7014442 C53.5463714,28.3399776 52.2145088,29.6682714 50.571573,29.6682714 C48.9286372,29.6682714 47.5967746,28.3399776 47.5967746,26.7014442 C47.5967746,25.0629109 48.9286372,23.7346171 50.571573,23.7346171 Z M26.7731857,11.8673086 C28.4161215,11.8673086 29.7479841,13.1956023 29.7479841,14.8341357 C29.7479841,16.4726691 28.4161215,17.8009628 26.7731857,17.8009628 C25.1302499,17.8009628 23.7983873,16.4726691 23.7983873,14.8341357 C23.7983873,13.1956023 25.1302499,11.8673086 26.7731857,11.8673086 Z M38.6723793,11.8673086 C40.3153151,11.8673086 41.6471777,13.1956023 41.6471777,14.8341357 C41.6471777,16.4726691 40.3153151,17.8009628 38.6723793,17.8009628 C37.0294435,17.8009628 35.6975809,16.4726691 35.6975809,14.8341357 C35.6975809,13.1956023 37.0294435,11.8673086 38.6723793,11.8673086 Z M50.571573,11.8673086 C52.2145088,11.8673086 53.5463714,13.1956023 53.5463714,14.8341357 C53.5463714,16.4726691 52.2145088,17.8009628 50.571573,17.8009628 C48.9286372,17.8009628 47.5967746,16.4726691 47.5967746,14.8341357 C47.5967746,13.1956023 48.9286372,11.8673086 50.571573,11.8673086 Z M38.6723793,1.1812773e-13 C40.3153151,1.1812773e-13 41.6471777,1.32829375 41.6471777,2.96682714 C41.6471777,4.60536052 40.3153151,5.93365428 38.6723793,5.93365428 C37.0294435,5.93365428 35.6975809,4.60536052 35.6975809,2.96682714 C35.6975809,1.32829375 37.0294435,1.1812773e-13 38.6723793,1.1812773e-13 Z M50.571573,-1.09245946e-13 C52.2145088,-1.09245946e-13 53.5463714,1.32829375 53.5463714,2.96682714 C53.5463714,4.60536052 52.2145088,5.93365428 50.571573,5.93365428 C48.9286372,5.93365428 47.5967746,4.60536052 47.5967746,2.96682714 C47.5967746,1.32829375 48.9286372,-1.09245946e-13 50.571573,-1.09245946e-13 Z" id="Combined-Shape"></path>
                    </g>
                </g>
                <path d="M465.689818,71.6649729 C351.180531,-31.4396527 174.769599,-22.1943475 71.6649729,92.3149401 C-31.4396527,206.824228 -22.1943475,383.23516 92.3149401,486.339786 C206.824228,589.444411 383.23516,580.199106 486.339786,465.689818" id="Path" stroke="#FFFFFF" stroke-width="2" stroke-dasharray="1,5" fill-rule="nonzero"></path>
            </g>
        </g>
    </g>
</svg>