<?xml version="1.0" encoding="UTF-8"?>
<svg width="156px" height="119px" viewBox="0 0 156 119" version="1.1" xmlns="http://www.w3.org/2000/svg" xmlns:xlink="http://www.w3.org/1999/xlink">
    <!-- Generator: Sketch 60.1 (88133) - https://sketch.com -->
    <title>Group 77</title>
    <desc>Created with Sketch.</desc>
    <defs>
        <linearGradient x1="0%" y1="50%" x2="99.2634596%" y2="50.8379553%" id="linearGradient-1">
            <stop stop-color="#F82E94" offset="0%"></stop>
            <stop stop-color="#FF9E33" offset="100%"></stop>
        </linearGradient>
        <path d="M11.6139345,35.1425056 L171.578705,36.1443052 L171.578705,36.1443052 L171.578705,113.661305 L11.5246562,112.658947 C7.60546887,112.634402 4.44129535,109.450351 4.44129535,105.531086 L4.44129535,42.2703659 C4.44129535,38.3336802 7.63260965,35.1423659 11.5692953,35.1423659 C11.5841752,35.1423659 11.5990549,35.1424125 11.6139345,35.1425056 Z" id="path-2"></path>
        <mask id="mask-3" maskContentUnits="userSpaceOnUse" maskUnits="objectBoundingBox" x="0" y="0" width="167.137409" height="78.5637191" fill="white">
            <use xlink:href="#path-2"></use>
        </mask>
        <linearGradient x1="100.839563%" y1="50%" x2="1.19073174%" y2="50%" id="linearGradient-4">
            <stop stop-color="#FF933D" offset="0%"></stop>
            <stop stop-color="#FF29A4" offset="100%"></stop>
        </linearGradient>
    </defs>
    <g id="Careers" stroke="none" stroke-width="1" fill="none" fill-rule="evenodd">
        <g id="01_Careers" transform="translate(-1284.000000, -3499.000000)" fill-rule="nonzero">
            <g id="Group-77" transform="translate(1284.000000, 3500.000000)">
                <path d="M157.309,108.682946 L157.309,36.5119456 L7.128,36.5119456 C3.68340002,36.5119456 0.891,39.3043457 0.891,42.7489456 L0.891,102.445946 C0.891,105.890546 3.68340002,108.682946 7.128,108.682946 L157.309,108.682946 Z" id="Rectangle" stroke="#FFFFFF" stroke-width="1.782" fill="#0D0B29"></path>
                <g id="Group-70" transform="translate(18.670000, 50.480946)">
                    <path d="M112.192183,42.6487098 C111.762606,43.0836563 111.762606,43.7888437 112.192183,44.2237902 C112.621759,44.6587366 113.318241,44.6587366 113.747817,44.2237902 L121.447817,36.4275402 C121.877394,35.9925937 121.877394,35.2874063 121.447817,34.8524598 L113.747817,27.0562098 C113.318241,26.6212634 112.621759,26.6212634 112.192183,27.0562098 C111.762606,27.4911563 111.762606,28.1963437 112.192183,28.6312902 L119.114365,35.64 L112.192183,42.6487098 Z" id="Path" fill="#FFFFFF"></path>
                    <path d="M7.3325736,10.7101764 L7.3325736,9.454401 L1.44342,9.454401 L1.44342,6.1922718 L6.5098242,6.1922718 L6.5098242,4.9653648 L1.44342,4.9653648 L1.44342,1.8620118 L7.1304948,1.8620118 L7.1304948,0.6062364 L-8.70414851e-13,0.6062364 L-8.70414851e-13,10.7101764 L7.3325736,10.7101764 Z M9.7286508,10.7101764 L11.9659518,7.7800338 L14.1743844,10.7101764 L15.7477122,10.7101764 L12.702096,6.7985082 L15.588936,3.0600504 L14.073345,3.0600504 L11.980386,5.8169826 L9.8729928,3.0600504 L8.3285334,3.0600504 L11.2009392,6.7985082 L8.1841914,10.7101764 L9.7286508,10.7101764 Z M18.6489864,13.5104112 L18.6489864,9.5554404 C18.9665388,9.959598 19.3538565,10.2675276 19.8109395,10.4792292 C20.2680225,10.6909308 20.7708138,10.7967816 21.3193134,10.7967816 C22.060269,10.7967816 22.7242422,10.633194 23.311233,10.3060188 C23.8982238,9.9788436 24.3577125,9.5193549 24.6896991,8.9275527 C25.0216857,8.3357505 25.187679,7.6549374 25.187679,6.8851134 C25.187679,6.1152894 25.0216857,5.436882 24.6896991,4.8498912 C24.3577125,4.2629004 23.8982238,3.8058174 23.311233,3.4786422 C22.7242422,3.151467 22.060269,2.9878794 21.3193134,2.9878794 C20.7515682,2.9878794 20.231937,3.0961359 19.7604198,3.3126489 C19.2889026,3.5291619 18.8991792,3.84912 18.5912496,4.2725232 L18.5912496,4.2725232 L18.5912496,3.0600504 L17.2633032,3.0600504 L17.2633032,13.5104112 L18.6489864,13.5104112 Z M21.2038398,9.5843088 C20.7226998,9.5843088 20.2848624,9.4712409 19.8903276,9.2451051 C19.4957928,9.0189693 19.1878632,8.7014169 18.9665388,8.2924479 C18.7452144,7.8834789 18.6345522,7.4143674 18.6345522,6.8851134 C18.6345522,6.3558594 18.7476201,5.8891536 18.9737559,5.484996 C19.1998917,5.0808384 19.5078213,4.7656917 19.8975447,4.5395559 C20.2872681,4.3134201 20.7226998,4.2003522 21.2038398,4.2003522 C21.6946026,4.2003522 22.1348457,4.3110144 22.5245691,4.5323388 C22.9142925,4.7536632 23.2222221,5.0688099 23.4483579,5.4777789 C23.6744937,5.8867479 23.7875616,6.3558594 23.7875616,6.8851134 C23.7875616,7.4143674 23.6744937,7.8834789 23.4483579,8.2924479 C23.2222221,8.7014169 22.9142925,9.0189693 22.5245691,9.2451051 C22.1348457,9.4712409 21.6946026,9.5843088 21.2038398,9.5843088 Z M28.4931108,10.7101764 L28.4931108,0 L27.1074276,0 L27.1074276,10.7101764 L28.4931108,10.7101764 Z M34.4111328,10.7967816 C35.171334,10.7967816 35.8521471,10.6283826 36.4535721,10.2915846 C37.0549971,9.9547866 37.5265143,9.4904865 37.8681237,8.8986843 C38.2097331,8.3068821 38.3805378,7.6356918 38.3805378,6.8851134 C38.3805378,6.134535 38.2097331,5.4633447 37.8681237,4.8715425 C37.5265143,4.2797403 37.0549971,3.8178459 36.4535721,3.4858593 C35.8521471,3.1538727 35.171334,2.9878794 34.4111328,2.9878794 C33.6509316,2.9878794 32.9677128,3.1538727 32.3614764,3.4858593 C31.75524,3.8178459 31.2813171,4.2797403 30.9397077,4.8715425 C30.5980983,5.4633447 30.4272936,6.134535 30.4272936,6.8851134 C30.4272936,7.6356918 30.5980983,8.3068821 30.9397077,8.8986843 C31.2813171,9.4904865 31.75524,9.9547866 32.3614764,10.2915846 C32.9677128,10.6283826 33.6509316,10.7967816 34.4111328,10.7967816 Z M34.4111328,9.5843088 C33.92037,9.5843088 33.4801269,9.4712409 33.0904035,9.2451051 C32.7006801,9.0189693 32.3927505,8.7014169 32.1666147,8.2924479 C31.9404789,7.8834789 31.827411,7.4143674 31.827411,6.8851134 C31.827411,6.3558594 31.9404789,5.8867479 32.1666147,5.4777789 C32.3927505,5.0688099 32.7006801,4.7536632 33.0904035,4.5323388 C33.4801269,4.3110144 33.92037,4.2003522 34.4111328,4.2003522 C34.9018956,4.2003522 35.3421387,4.3110144 35.7318621,4.5323388 C36.1215855,4.7536632 36.4271094,5.0688099 36.6484338,5.4777789 C36.8697582,5.8867479 36.9804204,6.3558594 36.9804204,6.8851134 C36.9804204,7.4143674 36.8697582,7.8834789 36.6484338,8.2924479 C36.4271094,8.7014169 36.1215855,9.0189693 35.7318621,9.2451051 C35.3421387,9.4712409 34.9018956,9.5843088 34.4111328,9.5843088 Z M41.6859696,10.7101764 L41.6859696,6.8995476 C41.6859696,6.0719868 41.9000769,5.4344763 42.3282915,4.9870161 C42.7565061,4.5395559 43.3459026,4.3158258 44.096481,4.3158258 C44.2312002,4.3158258 44.337051,4.3206372 44.4140334,4.33026 L44.4140334,4.33026 L44.4140334,2.9878794 C43.7404374,2.9878794 43.1678808,3.103353 42.6963636,3.3343002 C42.2248464,3.5652474 41.8688028,3.9020454 41.6282328,4.3446942 L41.6282328,4.3446942 L41.6282328,3.0600504 L40.3002864,3.0600504 L40.3002864,10.7101764 L41.6859696,10.7101764 Z M49.4515692,10.7967816 C50.086674,10.7967816 50.6616363,10.6909308 51.1764561,10.4792292 C51.6912759,10.2675276 52.1218962,9.959598 52.468317,9.5554404 L52.468317,9.5554404 L51.7033044,8.66052 C51.145182,9.2763792 50.4090378,9.5843088 49.4948718,9.5843088 C48.7442934,9.5843088 48.1164057,9.3798243 47.6112087,8.9708553 C47.1060117,8.5618863 46.8101106,8.0206038 46.7235054,7.3470078 L46.7235054,7.3470078 L52.9302114,7.3470078 C52.949457,7.1737974 52.9590798,7.0342668 52.9590798,6.928416 C52.9590798,6.158592 52.7978979,5.4753732 52.4755341,4.8787596 C52.1531703,4.282146 51.7057101,3.8178459 51.1331535,3.4858593 C50.5605969,3.1538727 49.9086522,2.9878794 49.1773194,2.9878794 C48.4459866,2.9878794 47.7892305,3.1538727 47.2070511,3.4858593 C46.6248717,3.8178459 46.1677887,4.282146 45.8358021,4.8787596 C45.5038155,5.4753732 45.3378222,6.1441578 45.3378222,6.8851134 C45.3378222,7.6356918 45.5086269,8.3092878 45.8502363,8.9059014 C46.1918457,9.502515 46.6753914,9.9668151 47.3008734,10.2988017 C47.9263554,10.6307883 48.643254,10.7967816 49.4515692,10.7967816 Z M51.6311334,6.351048 L46.7235054,6.351048 C46.8004878,5.6966976 47.0627091,5.1674436 47.5101693,4.763286 C47.9576295,4.3591284 48.5133462,4.1570496 49.1773194,4.1570496 C49.8412926,4.1570496 50.3970093,4.3615341 50.8444695,4.7705031 C51.2919297,5.1794721 51.554151,5.7063204 51.6311334,6.351048 L51.6311334,6.351048 Z" id="Explore" fill="#FFFFFF" transform="translate(26.479540, 6.755206) rotate(-360.000000) translate(-26.479540, -6.755206) "></path>
                    <path d="M7.10524291,46.53 L7.46449253,46.5191831 C7.6131876,46.4948451 7.7680783,46.4705071 7.92916462,46.446169 C8.09025095,46.421831 8.24514165,46.434 8.39383672,46.4826761 C8.76557439,46.4826761 9.12492081,46.4157465 9.47187598,46.2818874 C9.81883114,46.1480283 10.153395,45.9837466 10.4755677,45.7890424 C10.6738278,45.6673523 10.8658923,45.5274087 11.0517611,45.3692116 C11.2376299,45.2110144 11.4296944,45.0710708 11.6279545,44.9493807 C11.9996922,44.6816624 12.3280605,44.3774372 12.6130593,44.0367048 C12.8980582,43.6959725 13.2140352,43.3674092 13.5609904,43.051015 C13.9822931,42.5885925 14.3602264,42.1140011 14.6947903,41.6272407 C15.0293542,41.1404802 15.4072875,40.6537198 15.8285902,40.1669593 C16.0268503,39.9235791 16.2003279,39.6680299 16.349023,39.4003116 C16.497718,39.1325934 16.6340219,38.8527061 16.7579344,38.5606499 C16.9066295,38.2685936 17.0801071,38.0008754 17.2783672,37.7574952 C17.4766273,37.5141149 17.6748874,37.2585657 17.8731474,36.9908475 C17.9722775,36.8691573 18.0528207,36.7474672 18.1147769,36.6257771 C18.1767332,36.504087 18.2077114,36.3823969 18.2077114,36.2607068 C18.2324939,35.9929886 18.3006458,35.7374393 18.4121671,35.4940591 C18.5236884,35.2506789 18.6537966,34.9951296 18.8024916,34.7274114 C18.7033616,34.6300593 18.6228184,34.5448762 18.5608621,34.4718622 C18.4989059,34.3988481 18.4183627,34.3380031 18.3192327,34.289327 L18.3192327,34.289327 L17.2040196,33.9242567 C16.832282,33.8025666 16.4729355,33.6808765 16.1259804,33.5591863 C16.0516328,33.6078624 16.0020678,33.6443694 15.9772853,33.6687074 L15.9772853,33.6687074 L15.865764,33.7782285 C15.816199,33.8512426 15.766634,33.9364257 15.7170689,34.0337778 C15.6675039,34.1311299 15.6179389,34.2163129 15.5683739,34.289327 C15.4444613,34.6300593 15.3019619,34.9464536 15.1408755,35.2385099 C14.9797892,35.5305661 14.800116,35.8226224 14.6018559,36.1146787 C13.9327281,36.9665094 13.251209,37.8061712 12.5572987,38.6336639 C11.8633884,39.4611567 11.1323043,40.2521424 10.3640464,41.0066211 C9.99230872,41.3960295 9.60817979,41.7793533 9.2116596,42.1565926 C8.81513942,42.533832 8.39383672,42.8563108 7.94775151,43.124029 C7.65036137,43.3430712 7.35916685,43.5499444 7.07416797,43.7446486 C6.78916908,43.9393528 6.4608008,44.0975499 6.08906313,44.21924 C5.86602052,44.0001978 5.7049342,43.7933246 5.60580415,43.5986205 C5.53145661,43.3552402 5.46950033,43.11186 5.41993531,42.8684798 C5.37037029,42.6250996 5.32080526,42.3817193 5.27124024,42.1383391 C5.22167522,41.943635 5.18450145,41.7489308 5.15971894,41.5542266 C5.13493643,41.3595224 5.11015391,41.1769873 5.0853714,41.0066211 C5.13493643,40.7389029 5.17211019,40.4894381 5.19689271,40.2582269 C5.22167522,40.0270157 5.24645773,39.814058 5.27124024,39.6193538 C5.3951528,38.9622272 5.48808722,38.3111852 5.5500435,37.6662276 C5.61199978,37.02127 5.76689048,36.3823969 6.01471559,35.7496083 C6.11384564,35.5549042 6.16960629,35.348031 6.18199755,35.1289888 C6.1943888,34.9099466 6.22536694,34.7030734 6.27493197,34.5083692 C6.27493197,34.3380031 6.29971448,34.2163129 6.3492795,34.1432989 C6.84492973,33.0724259 7.34057997,32.0076374 7.8362302,30.9489335 C8.33188044,29.8902295 8.91426946,28.8619481 9.58339728,27.8640892 C9.85600491,27.4503428 10.1348082,27.0305119 10.419807,26.6045965 C10.7048059,26.1786812 10.9836092,25.7466813 11.2562168,25.3085969 C11.3801294,25.1382307 11.4978463,24.9982871 11.6093676,24.888766 C11.7208889,24.7792449 11.8138233,24.6393013 11.8881709,24.4689351 C11.9873009,24.347245 12.0678441,24.2073014 12.1298004,24.0491042 C12.1917566,23.8909071 12.2599085,23.7144564 12.3342561,23.5197522 C12.4086036,23.5684283 12.4767555,23.5988508 12.5387118,23.6110198 C12.6006681,23.6231888 12.6564287,23.6536114 12.7059938,23.7022874 C12.6316462,24.0916958 12.5263205,24.4750196 12.3900167,24.8522589 C12.2537129,25.2294983 12.135996,25.6067376 12.0368659,25.983977 C11.9377359,26.3612163 11.8757796,26.7445402 11.8509971,27.1339485 C11.8262146,27.5233569 11.8757796,27.9127652 11.9996922,28.3021736 C12.8670801,29.2026804 13.9822931,29.5677507 15.3453313,29.3973846 C15.5931564,28.5942298 15.9029378,27.7971596 16.2746754,27.0061739 C16.6464131,26.2151882 16.9685858,25.4059489 17.2411934,24.5784562 L17.2204198,24.6385854 L17.2202832,24.6434844 L17.2040196,24.7244843 C17.4022797,24.4324281 17.5571704,24.2073014 17.6686917,24.0491042 C17.780213,23.8909071 17.8855387,23.7144564 17.9846687,23.5197522 C18.480319,22.4245412 19.062708,21.3049922 19.7318358,20.1611052 C19.9053134,19.8447109 20.0663997,19.5222321 20.2150948,19.1936688 C20.3637899,18.8651055 20.5248762,18.5426267 20.6983538,18.2262324 C20.6487888,18.1045423 20.6054194,17.9950212 20.5682456,17.8976691 C20.5310718,17.8003171 20.4877024,17.690796 20.4381374,17.5691058 C20.1903123,17.4230777 19.9486828,17.2831341 19.7132489,17.149275 C19.4778151,17.0154158 19.2237943,16.8754722 18.9511867,16.7294441 C18.7033616,16.607754 18.4865146,16.4434723 18.3006458,16.2365991 C18.1147769,16.0297259 17.8855387,15.9019513 17.6129311,15.8532753 C17.2411934,15.8045992 16.9623901,15.8897823 16.7765213,16.1088245 C16.5906525,16.3278667 16.3614142,16.4982329 16.0888066,16.619923 C15.915329,16.5712469 15.7604383,16.5225709 15.6241345,16.4738948 C15.4878307,16.4252188 15.3453313,16.3887118 15.1966362,16.3643737 L15.1966362,16.3643737 L14.3788133,16.3643737 C12.9909926,16.9971623 11.8014321,17.8124861 10.8101316,18.810345 C9.81883114,19.8082039 8.87709569,20.8304008 7.98492527,21.8769357 L7.98492527,21.8769357 L8.13362034,22.6070764 C7.88579523,22.7044285 7.60079634,22.7896116 7.27862369,22.8626256 C6.93166853,23.252034 6.59090899,23.6475269 6.25634508,24.0491042 C5.92178117,24.4506816 5.6181954,24.8705125 5.34558778,25.3085969 C5.04819764,25.7466813 4.75700312,26.1786812 4.47200424,26.6045965 C4.18700535,27.0305119 3.9082021,27.4625118 3.63559447,27.9005962 C3.31342182,28.4603707 2.99124916,29.0201452 2.66907651,29.5799197 C2.34690386,30.1396942 2.04951372,30.7116378 1.77690609,31.2957503 C1.45473344,32.025891 1.17593018,32.7560316 0.940496319,33.4861723 C0.705062458,34.2163129 0.512997992,34.9707916 0.364302922,35.7496083 C0.240390364,36.455411 0.141260317,37.1612136 0.0669127816,37.8670163 C-0.00743475351,38.5728189 -0.0198260094,39.2786215 0.0297390141,39.9844242 C0.0297390141,40.6658888 0.141260317,41.3351844 0.364302922,41.992311 C0.512997992,42.6007615 0.742236226,43.1666206 1.05201762,43.689888 C1.36179902,44.2131555 1.8016886,44.6573244 2.37168637,45.0223947 C3.13994423,45.5091552 3.93918024,45.892479 4.76939438,46.1723663 C5.59960852,46.4522535 6.49797457,46.5678591 7.46449253,46.5191831 L7.10524291,46.53 Z M28.269095,43.7850671 L28.504845,43.7811556 C28.7031051,43.7324796 28.8951695,43.6716345 29.0810384,43.5986205 C29.2669072,43.5256064 29.4589717,43.4525923 29.6572318,43.3795783 C30.202447,42.4547334 30.8034229,41.5542266 31.4601595,40.6780578 C32.1168961,39.801889 32.8417845,38.9378892 33.6348249,38.0860585 C33.9569975,37.7209881 34.2667789,37.3620023 34.5641691,37.009101 C34.8615592,36.6561997 35.1465581,36.2728758 35.4191657,35.8591294 C35.1465581,35.6887633 34.8677549,35.5670732 34.582756,35.4940591 C34.2977571,35.421045 34.0065626,35.348031 33.7091724,35.2750169 C33.0400446,35.8834675 32.4638512,36.540594 31.9805922,37.2463967 C31.4973333,37.9521993 31.0078787,38.658002 30.5122284,39.3638046 C30.3883159,39.2421145 30.3325552,39.1204244 30.3449465,38.9987343 C30.3573377,38.8770442 30.3883159,38.7675231 30.4378809,38.670171 C30.5617934,38.1103965 30.6919016,37.562791 30.8282054,37.0273545 C30.9645093,36.491918 31.0822262,35.9443125 31.1813562,35.384538 C31.3300513,34.8247635 31.4725507,34.2710735 31.6088546,33.723468 C31.7451584,33.1758625 31.8876578,32.6100035 32.0363529,32.025891 C32.1107004,31.6851586 32.1912436,31.3505108 32.2779824,31.0219475 C32.3647212,30.6933842 32.4452643,30.3587364 32.5196119,30.0180041 C32.3956993,29.871976 32.2779824,29.7442014 32.1664611,29.6346803 C32.0549398,29.5251592 31.9372228,29.4095536 31.8133103,29.2878635 C31.7637453,29.1905114 31.701789,29.0323142 31.6274414,28.813272 C31.3548338,28.71592 31.0822262,28.6368214 30.8096186,28.5759763 C30.5370109,28.5151313 30.2644033,28.4482017 29.9917957,28.3751876 C29.8926656,28.4482017 29.7935356,28.5090468 29.6944055,28.5577228 C29.5952755,28.6063989 29.4837542,28.6672439 29.3598416,28.740258 C29.0128865,28.6185679 28.7340832,28.4421172 28.5234319,28.210906 C28.3127805,27.9796948 28.0339772,27.8154131 27.6870221,27.718061 C27.488762,27.693723 27.2966975,27.669385 27.1108287,27.645047 C26.9249598,27.620709 26.7948517,27.5963709 26.7205041,27.5720329 C25.6796386,27.693723 24.7998595,27.9736103 24.0811666,28.4116947 C23.3624738,28.8497791 22.7181285,29.3852156 22.1481307,30.0180041 C21.9498706,30.1883703 21.8011756,30.3648209 21.7020455,30.5473561 C21.6029155,30.7298913 21.4542204,30.918511 21.2559603,31.1132151 C20.9090051,31.4539474 20.6363975,31.8007643 20.4381374,32.1536656 C20.2398773,32.5065669 20.0416172,32.8777217 19.8433571,33.2671301 C19.4468369,33.9729327 19.1060774,34.7091579 18.8210785,35.4758056 C18.5360796,36.2424533 18.3316239,37.0273545 18.2077114,37.8305092 C18.0837988,38.3659457 18.0156469,38.9074667 18.0032556,39.4550722 C17.9908644,40.0026777 18.1209726,40.5563677 18.3935802,41.1161422 C18.9387954,41.7245928 19.5645539,42.1079166 20.2708555,42.2661137 C20.977157,42.4243109 21.6896542,42.4182264 22.4083471,42.2478602 C22.8048673,42.1018321 23.1456268,41.9253814 23.4306257,41.7185082 C23.7156246,41.5116351 23.9696453,41.2865084 24.1926879,41.0431281 C24.4157305,40.7997479 24.6263819,40.5502832 24.824642,40.294734 C25.0229021,40.0391847 25.2335534,39.78972 25.456596,39.5463398 C25.4813785,39.814058 25.4937698,40.0817763 25.4937698,40.3494945 L25.4937698,40.3494945 L25.4937698,41.1526492 C25.4937698,41.4203675 25.5123567,41.6759167 25.5495304,41.9192969 C25.5867042,42.1626771 25.6672474,42.4060574 25.7911599,42.6494376 C26.4850703,43.4525923 27.3896319,43.8298317 28.504845,43.7811556 L28.269095,43.7850671 Z M21.5905242,40.2399734 C21.5161767,40.1426213 21.4790029,40.0817763 21.4790029,40.0574382 C21.5285679,39.814058 21.5719373,39.5828468 21.6091111,39.3638046 C21.6462849,39.1447624 21.6896542,38.9135512 21.7392193,38.670171 C21.9622619,37.9400303 22.2162826,37.2098897 22.5012815,36.479749 C22.7862804,35.7496083 23.1022574,35.0438057 23.4492126,34.3623411 C23.7466027,33.7782285 24.1183404,33.2245385 24.5644256,32.7012711 C25.0105108,32.1780036 25.5061611,31.7094967 26.0513763,31.2957503 C26.2496364,31.0767081 26.472679,30.8820039 26.7205041,30.7116378 C26.8444167,30.7116378 26.9807205,30.6568772 27.1294156,30.5473561 C27.2781106,30.437835 27.4639795,30.4195815 27.6870221,30.4925956 L27.677182,30.4904481 L27.66637,30.5270744 C27.6608628,30.5500603 27.6567323,30.5723702 27.6539787,30.594004 L27.6498483,30.6568772 C27.6498483,30.7177223 27.6374571,30.7724828 27.6126745,30.8211589 C27.4639795,31.2349052 27.3090888,31.6303981 27.1480025,32.0076374 C26.9869161,32.3848768 26.8320254,32.7803696 26.6833304,33.194116 C26.5098528,33.6078624 26.2992014,33.9911862 26.0513763,34.3440876 C25.8035512,34.6969889 25.5433348,35.0803127 25.2707272,35.4940591 C25.1468146,35.6887633 25.0290977,35.8956365 24.9175764,36.1146787 C24.8060551,36.3337209 24.6635557,36.5527631 24.4900781,36.7718053 C24.4652956,36.8204813 24.4529043,36.8448193 24.4529043,36.8448193 C24.0563841,37.4045938 23.6536683,37.9461148 23.2447569,38.4693823 C22.8358454,38.9926498 22.3835646,39.4976637 21.8879143,39.9844242 C21.8135668,40.0331002 21.7144368,40.1182833 21.5905242,40.2399734 Z M34.3783002,43.4160853 C34.5517778,43.4647613 34.7252554,43.4708458 34.898733,43.4343388 C35.0722106,43.3978318 35.2580794,43.3552402 35.4563395,43.3065642 C35.4067745,43.1605361 35.3634051,43.0266769 35.3262313,42.9049868 C35.2890576,42.7832967 35.2456882,42.6616066 35.1961231,42.5399165 C35.2704707,42.3208743 35.3324269,42.1870152 35.381992,42.1383391 C35.530687,42.0896631 35.6607952,42.0592406 35.7723165,42.0470715 C35.8838378,42.0349025 35.9891635,42.00448 36.0882936,41.955804 C36.1874236,41.7610998 36.3237274,41.5785646 36.497205,41.4081985 C37.0424203,40.4590156 37.6372005,39.5524243 38.2815458,38.6884245 C38.9258911,37.8244247 39.595019,36.9786784 40.2889293,36.1511857 C40.5119719,35.8834675 40.7288189,35.6157492 40.9394702,35.348031 C41.1501216,35.0803127 41.3297948,34.7395804 41.4784899,34.325834 C41.5280549,34.3745101 41.5776199,34.3988481 41.6271849,34.3988481 C41.6767499,34.3988481 41.7325106,34.3866791 41.7944669,34.3623411 C41.8564232,34.3380031 41.9183794,34.325834 41.9803357,34.325834 C42.042292,34.325834 42.1228352,34.3623411 42.2219652,34.4353551 C42.0980526,35.0681437 41.992727,35.7252703 41.9059882,36.4067349 C41.8192494,37.0881995 41.87501,37.7696642 42.0732701,38.4511288 C42.3954428,38.670171 42.6804417,38.8527061 42.9282668,38.9987343 C43.1760919,39.1447624 43.4053301,39.2664525 43.6159815,39.3638046 C43.8266328,39.4611567 44.0372842,39.5341708 44.2479355,39.5828468 C44.4585869,39.6315229 44.7126076,39.6680299 45.0099978,39.6923679 C45.4313005,39.5950158 45.9083638,39.3577201 46.4411878,38.9804808 C46.9740118,38.6032414 47.5068358,38.177326 48.0396598,37.7027346 C48.5724838,37.2281432 49.0619384,36.7413827 49.5080236,36.2424533 C49.9541089,35.7435238 50.3134553,35.3236929 50.5860629,34.9829606 C50.6356279,34.8612705 50.6666061,34.7395804 50.6789973,34.6178903 C50.6913886,34.4962002 50.6604104,34.3501721 50.5860629,34.1798059 C50.5364979,34.1554679 50.4001941,34.1128763 50.1771515,34.0520313 C49.9541089,33.9911862 49.8054138,33.9364257 49.7310663,33.8877496 C49.6319362,34.0581158 49.3779155,34.3380031 48.969004,34.7274114 C48.5600926,35.1168198 48.1263986,35.5123126 47.6679222,35.91389 C47.2094457,36.3154673 46.7757517,36.6744532 46.3668403,36.9908475 C45.9579288,37.3072417 45.7039081,37.4776079 45.6047781,37.5019459 C45.406518,37.5262839 45.3073879,37.4654389 45.3073879,37.3194108 C45.3073879,37.1733826 45.3445617,36.984763 45.4189092,36.7535517 C45.4932567,36.5223405 45.5923868,36.2850448 45.7162994,36.0416646 C45.8402119,35.7982844 45.9269507,35.5792422 45.9765157,35.384538 C46.1747758,34.7517494 46.3854272,34.1493834 46.6084698,33.5774399 C46.8315124,33.0054963 47.0421637,32.4274683 47.2404238,31.8433558 C47.1412938,31.5756375 47.10412,31.3018348 47.1289025,31.0219475 C47.153685,30.7420603 47.0297725,30.4560885 46.7571648,30.1640323 C46.3358621,29.9449901 45.8773857,29.7502859 45.3817354,29.5799197 C44.8860852,29.4095536 44.4152175,29.2026804 43.9691323,28.9593002 C43.8452197,29.0323142 43.7275028,29.1053283 43.6159815,29.1783424 C43.5044602,29.2513564 43.3867433,29.3365395 43.2628307,29.4338916 C43.1884832,29.5069057 43.0831575,29.5860042 42.9468537,29.6711873 C42.8105499,29.7563704 42.6804417,29.859807 42.5565291,29.9814971 C42.4573991,30.0301731 42.3644646,30.1031872 42.2777259,30.2005393 C42.1909871,30.2978914 42.0856614,30.3952435 41.9617488,30.4925956 C41.8626188,30.5656096 41.7696844,30.6386237 41.6829456,30.7116378 C41.5962068,30.7846518 41.4908811,30.8698349 41.3669685,30.967187 C41.243056,31.0645391 41.1377303,31.1436377 41.0509915,31.2044827 C40.9642527,31.2653278 40.8837096,31.3565953 40.809362,31.4782855 C40.660667,31.5999756 40.5491457,31.7094967 40.4747981,31.8068488 C40.4004506,31.9042008 40.3013205,32.0015529 40.177408,32.098905 C40.0534954,32.1962571 39.9481698,32.2936092 39.861431,32.3909613 C39.7746922,32.4883134 39.694149,32.5734965 39.6198015,32.6465105 C39.3967589,32.7925387 39.21089,32.9629048 39.062195,33.157609 C38.9382824,33.2792991 38.8267611,33.3949047 38.7276311,33.5044258 C38.628501,33.6139469 38.5169797,33.7173835 38.3930671,33.8147356 C38.3187196,33.9120877 38.2505677,34.0094398 38.1886114,34.1067918 C38.1266551,34.2041439 37.996547,34.25282 37.7982869,34.25282 C37.7487218,33.9364257 37.8168737,33.6382849 38.0027426,33.3583977 C38.1886114,33.0785104 38.2691546,32.7925387 38.2443721,32.5004824 C38.4921972,32.2084261 38.6718704,31.8859473 38.7833917,31.533046 C38.894913,31.1801447 39.0002387,30.8333279 39.0993687,30.4925956 C39.2480638,30.1762013 39.1861075,29.871976 38.9134999,29.5799197 C38.4921972,29.3122015 38.0399164,29.1053283 37.5566574,28.9593002 C37.0733984,28.813272 36.596335,28.6307369 36.1254673,28.4116947 C36.0015548,28.3630186 35.9024247,28.3508496 35.8280772,28.3751876 C35.7537296,28.3995257 35.6545996,28.4116947 35.530687,28.4116947 C35.2828619,28.6550749 35.0846018,28.8923706 34.9359068,29.1235818 C34.7872117,29.354793 34.6509079,29.6042578 34.5269953,29.871976 C34.1552576,30.6021167 33.8516719,31.3687644 33.616238,32.1719191 C33.3808041,32.9750738 33.1763484,33.7903976 33.0028708,34.6178903 C32.8541758,35.2993549 32.717872,35.974735 32.5939594,36.6440306 C32.4700468,37.3133263 32.3461343,38.0008754 32.2222217,38.706678 C32.1726567,39.1934385 32.1168961,39.6862834 32.0549398,40.1852129 C31.9929835,40.6841423 32.0239616,41.1526492 32.1478742,41.5907336 C32.3461343,42.1505081 32.6435244,42.570339 33.0400446,42.8502263 C33.4365648,43.1301135 33.88265,43.3187332 34.3783002,43.4160853 Z M64.005793,44.2740006 C64.7988334,44.2618316 65.604265,44.1462259 66.4220879,43.9271838 C66.5955655,43.8541697 66.8186081,43.7324796 67.0912157,43.5621134 L67.0912157,43.5621134 L67.9090386,42.8319728 C68.1816462,42.5885925 68.4542538,42.3330433 68.7268615,42.0653251 C70.1394646,40.4103396 71.4529378,38.658002 72.6672808,36.8083123 C72.7664109,36.6866222 72.8717366,36.5466786 72.9832579,36.3884814 C73.0947792,36.2302843 73.1381486,36.0903406 73.113366,35.9686505 C73.0885835,35.7496083 73.1257573,35.5792422 73.2248874,35.4575521 C73.3240174,35.335862 73.3983649,35.2020028 73.44793,35.0559747 C73.2992349,34.9342846 73.1753223,34.8369325 73.0761923,34.7639184 C72.9770622,34.6909044 72.8593453,34.6300593 72.7230415,34.5813833 C72.5867377,34.5327072 72.4256513,34.4840312 72.2397825,34.4353551 C72.0539137,34.3866791 71.7875017,34.325834 71.4405465,34.25282 L71.4405465,34.25282 L70.9944613,34.9099466 C70.449246,35.7131013 69.9102264,36.4858335 69.3774024,37.2281432 C68.8445784,37.9704528 68.268385,38.694509 67.6488222,39.4003116 C67.202737,39.9114101 66.7442605,40.379917 66.2733928,40.8058324 C65.8025251,41.2317478 65.2820923,41.6029026 64.7120946,41.9192969 C64.6625296,41.967973 64.4642695,42.028818 64.1173143,42.1018321 C64.1173143,41.7367618 64.1235099,41.3838604 64.1359012,41.0431281 C64.1482924,40.7023958 64.1792706,40.3616635 64.2288356,40.0209312 L64.2288356,40.0209312 L64.6005733,39.6923679 C65.3440486,39.0109033 66.0503502,38.2929316 66.719478,37.538453 C67.3886058,36.7839743 68.0949074,36.0538336 68.8383828,35.348031 C69.2596855,34.9099466 69.5756625,34.4231861 69.7863139,33.8877496 C69.9969652,33.3523132 70.1890297,32.8047077 70.3625072,32.2449332 C70.3872898,32.1475811 70.399681,32.025891 70.399681,31.8798628 L70.399681,31.8798628 L70.399681,31.4782855 C70.2757685,30.7724828 70.0465302,30.1457787 69.7119663,29.5981733 C69.3774024,29.0505678 68.8631653,28.6063989 68.169255,28.2656665 C67.5744747,27.9492723 67.0292594,27.693723 66.5336092,27.4990188 C66.037959,27.3043147 65.5670912,27.2130471 65.121006,27.2252161 C64.6749208,27.2373851 64.2350312,27.3955823 63.8013373,27.6998075 C63.3676433,28.0040328 62.9153625,28.4968778 62.4444948,29.1783424 C61.973627,29.884145 61.5894981,30.5777786 61.292108,31.2592433 L61.292108,31.2592433 L61.292108,31.2227362 L61.1805867,31.4417784 L60.8460228,32.2449332 C60.5238501,32.9507358 60.1706993,33.6626229 59.7865704,34.3805946 C59.4024414,35.0985662 59.0245081,35.7739464 58.6527705,36.4067349 C58.2810328,37.0395235 57.9216864,37.6175515 57.5747312,38.140819 C57.227776,38.6640865 56.9179946,39.0839174 56.645387,39.4003116 C56.1993018,39.9114101 55.7408253,40.379917 55.2699576,40.8058324 C54.7990899,41.2317478 54.2786571,41.6029026 53.7086594,41.9192969 C53.6590944,41.967973 53.4608343,42.028818 53.1138791,42.1018321 C53.1138791,41.7367618 53.1200747,41.3838604 53.132466,41.0431281 C53.1448572,40.7023958 53.1758354,40.3616635 53.2254004,40.0209312 L53.2254004,40.0209312 L53.5971381,39.6923679 C54.3406134,39.0109033 55.046915,38.2929316 55.7160428,37.538453 C56.3851706,36.7839743 57.0914722,36.0538336 57.8349476,35.348031 C58.2562503,34.9099466 58.5722273,34.4231861 58.7828787,33.8877496 C58.99353,33.3523132 59.1855945,32.8047077 59.359072,32.2449332 C59.3838546,32.1475811 59.3962458,32.025891 59.3962458,31.8798628 L59.3962458,31.8798628 L59.3962458,31.4782855 C59.2723333,30.7724828 59.043095,30.1457787 58.7085311,29.5981733 C58.3739672,29.0505678 57.8597301,28.6063989 57.1658198,28.2656665 C56.5710395,27.9492723 56.0258242,27.693723 55.530174,27.4990188 C55.0345238,27.3043147 54.563656,27.2130471 54.1175708,27.2252161 C53.6714856,27.2373851 53.231596,27.3955823 52.7979021,27.6998075 C52.3642081,28.0040328 51.9119273,28.4968778 51.4410596,29.1783424 C50.6480192,30.4195815 50.0160651,31.7034122 49.5451974,33.0298344 C49.0743297,34.3562566 48.6902008,35.7252703 48.3928106,37.1368756 C48.2936806,37.6966501 48.2317243,38.2625091 48.2069418,38.8344526 C48.1821593,39.4063961 48.219333,39.9844242 48.3184631,40.5685367 C48.5662882,41.980142 49.3345461,43.0145079 50.6232367,43.6716345 C51.416277,44.0853809 52.2093174,44.2861696 53.0023578,44.2740006 C53.7953982,44.2618316 54.6008298,44.1462259 55.4186527,43.9271838 C55.5921303,43.8541697 55.8151729,43.7324796 56.0877805,43.5621134 L56.0877805,43.5621134 L56.9056034,42.8319728 C57.178211,42.5885925 57.4508186,42.3330433 57.7234263,42.0653251 C58.0455989,41.7002547 58.3244022,41.3351844 58.559836,40.9701141 C58.7952699,40.6050437 59.0121169,40.2278044 59.210377,39.838396 L59.210377,39.838396 L59.3218983,40.5685367 C59.5697234,41.980142 60.3379813,43.0145079 61.6266719,43.6716345 C62.4197122,44.0853809 63.2127526,44.2861696 64.005793,44.2740006 Z M54.8238724,34.7274114 C54.6999598,34.6543973 54.6380036,34.5935523 54.6380036,34.5448762 C54.6380036,34.3501721 54.6441992,34.1493834 54.6565905,33.9425102 C54.6689817,33.735637 54.6875686,33.5226793 54.7123511,33.3036371 C54.9106112,33.133271 55.0716975,32.9507358 55.1956101,32.7560316 C55.3195226,32.5613274 55.4186527,32.3422852 55.4930002,32.098905 C55.5673478,31.8311868 55.6726734,31.5756375 55.8089772,31.3322573 C55.9452811,31.0888771 56.0753892,30.8576659 56.1993018,30.6386237 C56.2240843,30.5656096 56.2674537,30.4986801 56.32941,30.437835 L56.32941,30.437835 L56.5338657,30.2370463 C56.7073433,30.5777786 56.7754952,30.8941729 56.7383214,31.1862292 C56.7011477,31.4782855 56.6825608,31.7825107 56.6825608,32.098905 C56.4595182,32.6586795 56.1869106,33.14544 55.8647379,33.5591863 C55.5425652,33.9729327 55.1956101,34.3623411 54.8238724,34.7274114 Z M65.8273076,34.7274114 C65.703395,34.6543973 65.6414388,34.5935523 65.6414388,34.5448762 C65.6414388,34.3501721 65.6476344,34.1493834 65.6600257,33.9425102 C65.6724169,33.735637 65.6910038,33.5226793 65.7157863,33.3036371 C65.9140464,33.133271 66.0751327,32.9507358 66.1990453,32.7560316 C66.3229578,32.5613274 66.4220879,32.3422852 66.4964354,32.098905 C66.570783,31.8311868 66.6761086,31.5756375 66.8124124,31.3322573 C66.9487163,31.0888771 67.0788244,30.8576659 67.202737,30.6386237 C67.2275195,30.5656096 67.2708889,30.4986801 67.3328452,30.437835 L67.3328452,30.437835 L67.5373009,30.2370463 C67.7107785,30.5777786 67.7789304,30.8941729 67.7417566,31.1862292 C67.7045829,31.4782855 67.685996,31.7825107 67.685996,32.098905 C67.4629534,32.6586795 67.1903458,33.14544 66.8681731,33.5591863 C66.5460004,33.9729327 66.1990453,34.3623411 65.8273076,34.7274114 Z M72.3698907,43.4160853 C72.5433683,43.4647613 72.7168459,43.4708458 72.8903234,43.4343388 C73.063801,43.3978318 73.2496699,43.3552402 73.44793,43.3065642 C73.3983649,43.1605361 73.3549955,43.0266769 73.3178218,42.9049868 C73.280648,42.7832967 73.2372786,42.6616066 73.1877136,42.5399165 C73.2620611,42.3208743 73.3240174,42.1870152 73.3735824,42.1383391 C73.5222775,42.0896631 73.6523857,42.0592406 73.763907,42.0470715 C73.8754283,42.0349025 73.980754,42.00448 74.079884,41.955804 C74.1790141,41.7610998 74.3153179,41.5785646 74.4887954,41.4081985 C75.0340107,40.4590156 75.628791,39.5524243 76.2731363,38.6884245 C76.9174816,37.8244247 77.5866094,36.9786784 78.2805197,36.1511857 C78.5035623,35.8834675 78.7204093,35.6157492 78.9310607,35.348031 C79.141712,35.0803127 79.3213852,34.7395804 79.4700803,34.325834 C79.5196453,34.3745101 79.5692104,34.3988481 79.6187754,34.3988481 C79.6683404,34.3988481 79.724101,34.3866791 79.7860573,34.3623411 C79.8480136,34.3380031 79.9099699,34.325834 79.9719262,34.325834 C80.0338824,34.325834 80.1144256,34.3623411 80.2135557,34.4353551 C80.0896431,35.0681437 79.9843174,35.7252703 79.8975786,36.4067349 C79.8108398,37.0881995 79.8666005,37.7696642 80.0648606,38.4511288 C80.3870332,38.670171 80.6720321,38.8527061 80.9198572,38.9987343 C81.1676824,39.1447624 81.3969206,39.2664525 81.6075719,39.3638046 C81.8182233,39.4611567 82.0288746,39.5341708 82.239526,39.5828468 C82.4501773,39.6315229 82.7041981,39.6680299 83.0015882,39.6923679 C83.4228909,39.5950158 83.8999543,39.3577201 84.4327783,38.9804808 C84.9656023,38.6032414 85.4984263,38.177326 86.0312503,37.7027346 C86.5640743,37.2281432 87.0535289,36.7413827 87.4996141,36.2424533 C87.9456993,35.7435238 88.3050457,35.3236929 88.5776534,34.9829606 C88.6272184,34.8612705 88.6581965,34.7395804 88.6705878,34.6178903 C88.682979,34.4962002 88.6520009,34.3501721 88.5776534,34.1798059 C88.5280883,34.1554679 88.3917845,34.1128763 88.1687419,34.0520313 C87.9456993,33.9911862 87.7970042,33.9364257 87.7226567,33.8877496 C87.6235267,34.0581158 87.3695059,34.3380031 86.9605945,34.7274114 C86.551683,35.1168198 86.1179891,35.5123126 85.6595126,35.91389 C85.2010361,36.3154673 84.7673422,36.6744532 84.3584307,36.9908475 C83.9495193,37.3072417 83.6954986,37.4776079 83.5963685,37.5019459 C83.3981084,37.5262839 83.2989784,37.4654389 83.2989784,37.3194108 C83.2989784,37.1733826 83.3361521,36.984763 83.4104997,36.7535517 C83.4848472,36.5223405 83.5839772,36.2850448 83.7078898,36.0416646 C83.8318024,35.7982844 83.9185412,35.5792422 83.9681062,35.384538 C84.1663663,34.7517494 84.3770176,34.1493834 84.6000602,33.5774399 C84.8231028,33.0054963 85.0337542,32.4274683 85.2320143,31.8433558 C85.1328842,31.5756375 85.0957105,31.3018348 85.120493,31.0219475 C85.1452755,30.7420603 85.0213629,30.4560885 84.7487553,30.1640323 C84.3274526,29.9449901 83.8689761,29.7502859 83.3733259,29.5799197 C82.8776757,29.4095536 82.4068079,29.2026804 81.9607227,28.9593002 C81.8368102,29.0323142 81.7190932,29.1053283 81.6075719,29.1783424 C81.4960506,29.2513564 81.3783337,29.3365395 81.2544211,29.4338916 C81.1800736,29.5069057 81.0747479,29.5860042 80.9384441,29.6711873 C80.8021403,29.7563704 80.6720321,29.859807 80.5481196,29.9814971 C80.4489895,30.0301731 80.3560551,30.1031872 80.2693163,30.2005393 C80.1825775,30.2978914 80.0772518,30.3952435 79.9533393,30.4925956 C79.8542092,30.5656096 79.7612748,30.6386237 79.674536,30.7116378 C79.5877972,30.7846518 79.4824716,30.8698349 79.358559,30.967187 C79.2346464,31.0645391 79.1293208,31.1436377 79.042582,31.2044827 C78.9558432,31.2653278 78.8753,31.3565953 78.8009525,31.4782855 C78.6522574,31.5999756 78.5407361,31.7094967 78.4663886,31.8068488 C78.392041,31.9042008 78.292911,32.0015529 78.1689984,32.098905 C78.0450859,32.1962571 77.9397602,32.2936092 77.8530214,32.3909613 C77.7662826,32.4883134 77.6857395,32.5734965 77.6113919,32.6465105 C77.3883493,32.7925387 77.2024805,32.9629048 77.0537854,33.157609 C76.9298729,33.2792991 76.8183516,33.3949047 76.7192215,33.5044258 C76.6200915,33.6139469 76.5085702,33.7173835 76.3846576,33.8147356 C76.3103101,33.9120877 76.2421582,34.0094398 76.1802019,34.1067918 C76.1182456,34.2041439 75.9881374,34.25282 75.7898773,34.25282 C75.7403123,33.9364257 75.8084642,33.6382849 75.994333,33.3583977 C76.1802019,33.0785104 76.260745,32.7925387 76.2359625,32.5004824 C76.4837876,32.2084261 76.6634609,31.8859473 76.7749822,31.533046 C76.8865035,31.1801447 76.9918291,30.8333279 77.0909592,30.4925956 C77.2396542,30.1762013 77.177698,29.871976 76.9050903,29.5799197 C76.4837876,29.3122015 76.0315068,29.1053283 75.5482478,28.9593002 C75.0649888,28.813272 74.5879255,28.6307369 74.1170578,28.4116947 C73.9931452,28.3630186 73.8940152,28.3508496 73.8196676,28.3751876 C73.7453201,28.3995257 73.6461901,28.4116947 73.5222775,28.4116947 C73.2744524,28.6550749 73.0761923,28.8923706 72.9274972,29.1235818 C72.7788021,29.354793 72.6424983,29.6042578 72.5185858,29.871976 C72.1468481,30.6021167 71.8432623,31.3687644 71.6078285,32.1719191 C71.3723946,32.9750738 71.1679389,33.7903976 70.9944613,34.6178903 C70.8457662,35.2993549 70.7094624,35.974735 70.5855499,36.6440306 C70.4616373,37.3133263 70.3377247,38.0008754 70.2138122,38.706678 C70.1642472,39.1934385 70.1084865,39.6862834 70.0465302,40.1852129 C69.9845739,40.6841423 70.0155521,41.1526492 70.1394646,41.5907336 C70.3377247,42.1505081 70.6351149,42.570339 71.0316351,42.8502263 C71.4281553,43.1301135 71.8742405,43.3187332 72.3698907,43.4160853 Z M89.1538468,44.6208174 C89.5627582,44.6694934 89.9902565,44.6329864 90.4363417,44.5112963 C90.7089494,44.4382822 90.981557,44.3409301 91.2541646,44.21924 C91.5267723,44.0975499 91.7993799,44.0123668 92.0719875,43.9636908 C92.3445951,43.9393528 92.5738334,43.8785077 92.7597022,43.7811556 C92.945571,43.6838035 93.1376355,43.5621134 93.3358956,43.4160853 C93.6580683,43.2213811 93.961654,43.0084234 94.2466529,42.7772122 C94.5316518,42.546001 94.8228463,42.3087053 95.1202364,42.0653251 C95.3184965,41.8706209 95.4919741,41.6759167 95.6406692,41.4812125 C95.7893643,41.2865084 95.9628418,41.0674662 96.1611019,40.8240859 C96.309797,40.6050437 96.4646877,40.3860015 96.625774,40.1669593 C96.7868604,39.9479171 96.8797948,39.6680299 96.9045773,39.3272976 C96.9293598,39.2786215 96.9727292,39.223861 97.0346855,39.1630159 C97.0966418,39.1021709 97.1524024,39.0352413 97.2019674,38.9622272 C97.2267499,38.7675231 97.2453368,38.5971569 97.2577281,38.4511288 C97.2701193,38.3051007 97.3010975,38.1347345 97.3506625,37.9400303 C97.4993576,37.2342277 97.3134887,36.6014391 96.793056,36.0416646 C96.7187085,35.9686505 96.6567522,35.889552 96.6071872,35.8043689 C96.5576221,35.7191858 96.5080571,35.6157492 96.4584921,35.4940591 C96.0371894,35.2993549 95.6096911,35.1046507 95.1759971,34.9099466 C94.7423031,34.7152424 94.2900223,34.5327072 93.8191546,34.3623411 C93.8191546,34.1676369 93.862524,33.9972707 93.9492628,33.8512426 C94.0360016,33.7052145 94.1413272,33.5713554 94.2652398,33.4496652 C94.4634999,33.3036371 94.6245862,33.169778 94.7484988,33.0480879 C94.9963239,32.8047077 95.3370834,32.5004824 95.7707774,32.1354121 C96.2044713,31.7703417 96.6691434,31.4113559 97.1647937,31.0584546 C97.6604439,30.7055533 98.1560941,30.389159 98.6517444,30.1092717 C99.1473946,29.8293845 99.5934798,29.6407648 99.99,29.5434127 C99.940435,29.3973846 99.8970656,29.26961 99.8598918,29.1600889 C99.822718,29.0505678 99.7793487,28.9471312 99.7297836,28.8497791 C99.1597859,28.4360327 98.5835925,28.0283708 98.0012034,27.6267935 C97.4188144,27.2252161 96.8674035,26.8540613 96.3469708,26.513329 C96.1982757,26.513329 96.0681675,26.5072444 95.9566462,26.4950754 C95.8451249,26.4829064 95.7397992,26.4889909 95.6406692,26.513329 C95.4671916,26.513329 95.3061053,26.549836 95.1574102,26.6228501 C94.9839326,26.7202021 94.7361075,26.8662303 94.4139349,27.0609345 C94.0917622,27.2556386 93.7510027,27.4685963 93.3916563,27.6998075 C93.0323098,27.9310187 92.6915503,28.1500609 92.3693776,28.3569341 C92.047205,28.5638073 91.8117711,28.728089 91.6630761,28.8497791 C90.9939482,29.3365395 90.3557986,29.859807 89.748627,30.4195815 C89.1414555,30.979356 88.5900446,31.5999756 88.0943944,32.2814402 C87.8961343,32.5978345 87.7102654,32.9020597 87.5367879,33.194116 C87.3633103,33.4861723 87.2146152,33.8025666 87.0907027,34.1432989 C86.9667901,34.5813833 86.9296163,35.0316367 86.9791814,35.4940591 C86.9791814,35.9564815 87.1774414,36.3580589 87.5739616,36.6987912 C88.3917845,37.3559178 89.2963462,37.7574952 90.2876467,37.9035233 C91.5019897,37.9521993 92.5552465,37.635805 93.4474169,36.9543404 L93.4474169,36.9543404 L93.744807,36.9543404 C93.645677,37.1490446 93.5651338,37.3315798 93.5031776,37.5019459 C93.4412213,37.6723121 93.3730694,37.8183402 93.2987218,37.9400303 C93.2243743,38.1103965 93.1438311,38.2625091 93.0570923,38.3963682 C92.9703536,38.5302274 92.8650279,38.670171 92.7411153,38.8161991 C91.8241624,39.8627341 90.8452532,40.8240859 89.8043877,41.7002547 C89.43265,42.016649 89.0361298,42.2843673 88.6148271,42.5034095 C88.1935244,42.7224517 87.7598305,42.9414939 87.3137453,43.1605361 C87.2641802,43.2822262 87.2332021,43.4100008 87.2208108,43.5438599 C87.2084196,43.677719 87.1774414,43.8176627 87.1278764,43.9636908 C87.3261365,44.0610429 87.4810272,44.1401414 87.5925485,44.2009865 C87.7040698,44.2618316 87.8093955,44.3165921 87.9085255,44.3652681 C88.3298282,44.4869583 88.7449353,44.5721413 89.1538468,44.6208174 Z" id="Carers" fill="url(#linearGradient-1)"></path>
                </g>
                <use id="Rectangle-Copy-3" stroke="#FFFFFF" mask="url(#mask-3)" stroke-dasharray="0.8909999549388886,0.8909999549388886" transform="translate(88.010000, 74.379446) rotate(3.000000) translate(-88.010000, -74.379446) " xlink:href="#path-2"></use>
                <path d="M113.4069,12.4457157 C113.798192,12.447738 114.17794,12.5784957 114.487527,12.8178054 L124.700215,20.7121733 C125.163758,21.0704898 125.773815,21.1780594 126.331954,20.9998928 L138.628775,17.0745586 C139.566337,16.7752744 140.568998,17.2927008 140.868283,18.2302627 C140.987275,18.6030282 140.980266,19.0045965 140.848336,19.3729821 L136.49624,31.5253195 C136.298704,32.0769005 136.384917,32.6903402 136.726838,33.1661054 L144.259979,43.6480816 C144.834338,44.4472721 144.652076,45.5607538 143.852885,46.1351125 C143.535135,46.363472 143.151055,46.480897 142.759931,46.4692622 L129.8575,46.0854519 C129.271873,46.0680311 128.715098,46.3395882 128.368278,46.8117938 L120.727195,57.2153456 C120.144606,58.0085567 119.0293,58.1792998 118.236089,57.5967111 C117.920716,57.3650795 117.690351,57.0360839 117.580552,56.6605076 L113.958507,44.2709624 C113.794106,43.7086148 113.363788,43.2630065 112.80752,43.0790804 L100.55193,39.0268528 C99.6175113,38.7178937 99.1104764,37.7099372 99.4194355,36.7755188 C99.5422746,36.4040032 99.7839812,36.0832476 100.107246,35.8627635 L110.77113,28.5894138 C111.255152,28.2592846 111.545975,27.7123265 111.549003,27.1264483 L111.615714,14.2184821 C111.620801,13.2343239 112.422742,12.4406293 113.4069,12.4457157 Z M87.5436566,6.75647782 C87.7393024,6.75748897 87.9291765,6.82286785 88.0839701,6.94252268 L93.3073157,10.9801484 C93.539087,11.1593067 93.8441156,11.2130915 94.1231851,11.1240082 L100.412474,9.11637052 C100.881255,8.96672842 101.382586,9.2254416 101.532228,9.69422256 C101.591724,9.8806053 101.588219,10.0813894 101.522255,10.2655823 L99.296347,16.4809742 C99.1975786,16.7567647 99.2406852,17.0634845 99.4116457,17.3013671 L103.26452,22.662442 C103.551699,23.0620372 103.460568,23.618778 103.060973,23.9059574 C102.902098,24.0201371 102.710057,24.0788497 102.514496,24.0730323 L95.9154632,23.87673 C95.6226498,23.8680196 95.3442625,24.0037981 95.1708524,24.2399009 L91.2627708,29.5608651 C90.9714764,29.9574706 90.4138234,30.0428422 90.0172179,29.7515479 C89.8595314,29.6357321 89.7443488,29.4712343 89.6894495,29.2834461 L87.836931,22.9467327 C87.7547307,22.6655589 87.5395712,22.4427548 87.2614374,22.3507917 L80.9932362,20.2782536 C80.526027,20.123774 80.2725095,19.6197958 80.4269891,19.1525866 C80.4884086,18.9668288 80.6092619,18.806451 80.7708943,18.6962089 L86.2250071,14.976207 C86.467018,14.8111424 86.6124294,14.5376633 86.6139434,14.2447242 L86.6480636,7.64286106 C86.6506068,7.15078192 87.0515774,6.75393463 87.5436566,6.75647782 Z M125.153741,6.07777593e-06 C125.251564,0.000511652742 125.346501,0.0332010925 125.423898,0.0930285072 L128.269574,2.29272498 C128.385459,2.38230412 128.537974,2.40919651 128.677509,2.36465487 L132.10391,1.27089487 C132.3383,1.19607382 132.588966,1.32543041 132.663787,1.55982089 C132.693535,1.65301226 132.691783,1.75340433 132.6588,1.84550074 L131.446127,5.23164312 C131.396743,5.36953837 131.418296,5.52289831 131.503776,5.64183961 L133.60282,8.56255048 C133.74641,8.7623481 133.700844,9.04071852 133.501047,9.1843082 C133.421609,9.24139806 133.325589,9.27075433 133.227808,9.26784563 L129.632659,9.16090023 C129.486252,9.15654505 129.347058,9.22443432 129.260353,9.34248572 L127.131232,12.2413443 C126.985585,12.4396471 126.706759,12.4823329 126.508456,12.3366857 C126.429613,12.2787778 126.372021,12.1965289 126.344572,12.1026348 L125.33532,8.65039655 C125.29422,8.50980964 125.186641,8.39840758 125.047574,8.35242606 L121.632661,7.22330832 C121.399056,7.14606855 121.272297,6.89407941 121.349537,6.66047482 C121.380247,6.56759591 121.440674,6.48740703 121.52149,6.43228599 L124.492888,4.4056308 C124.613893,4.3230985 124.686599,4.18635897 124.687356,4.03988943 L124.705945,0.443197696 C124.707216,0.197158126 124.907701,-0.0012655202 125.153741,6.07777593e-06 Z" id="Combined-Shape" stroke="#FFFFFF" stroke-width="0.891" fill="url(#linearGradient-4)"></path>
            </g>
        </g>
    </g>
</svg>