<?xml version="1.0" encoding="UTF-8"?>
<svg width="274px" height="281px" viewBox="0 0 274 281" version="1.1" xmlns="http://www.w3.org/2000/svg" xmlns:xlink="http://www.w3.org/1999/xlink">
    <!-- Generator: Sketch 60.1 (88133) - https://sketch.com -->
    <title>Group 29 Copy</title>
    <desc>Created with Sketch.</desc>
    <defs>
        <linearGradient x1="0%" y1="50%" x2="99.2634596%" y2="57.1419971%" id="linearGradient-1">
            <stop stop-color="#F82E94" offset="0%"></stop>
            <stop stop-color="#FF9E33" offset="100%"></stop>
        </linearGradient>
        <linearGradient x1="18.8799443%" y1="50%" x2="80.6616321%" y2="58.8948827%" id="linearGradient-2">
            <stop stop-color="#F82E94" offset="0%"></stop>
            <stop stop-color="#FF9E33" offset="100%"></stop>
        </linearGradient>
        <linearGradient x1="6.75650373%" y1="50%" x2="92.6064846%" y2="58.8948827%" id="linearGradient-3">
            <stop stop-color="#F82E94" offset="0%"></stop>
            <stop stop-color="#FF9E33" offset="100%"></stop>
        </linearGradient>
        <linearGradient x1="2.02670646%" y1="50%" x2="97.2666081%" y2="58.8948827%" id="linearGradient-4">
            <stop stop-color="#F82E94" offset="0%"></stop>
            <stop stop-color="#FF9E33" offset="100%"></stop>
        </linearGradient>
        <linearGradient x1="13.2609174%" y1="50%" x2="86.1978862%" y2="58.8948827%" id="linearGradient-5">
            <stop stop-color="#F82E94" offset="0%"></stop>
            <stop stop-color="#FF9E33" offset="100%"></stop>
        </linearGradient>
        <linearGradient x1="7.9547164%" y1="50%" x2="91.4259226%" y2="58.8948827%" id="linearGradient-6">
            <stop stop-color="#F82E94" offset="0%"></stop>
            <stop stop-color="#FF9E33" offset="100%"></stop>
        </linearGradient>
    </defs>
    <g id="Careers" stroke="none" stroke-width="1" fill="none" fill-rule="evenodd" opacity="0.900000036">
        <g id="01_Careers" transform="translate(0.000000, -5890.000000)" fill-rule="nonzero">
            <g id="Group-29-Copy-+-Group-10-+-Lorem-Ipsum-is-simpl-+-Group-6-Mask" transform="translate(0.000000, 5833.000000)">
                <g id="Group-29-Copy" transform="translate(-19.000000, 57.000000)">
                    <g id="Combined-Shape-8" opacity="0.800000012" transform="translate(0.275789, 0.179317)" fill="url(#linearGradient-1)">
                        <path d="M23.4888531,6.42152997e-13 L25.580601,0.99722166 C25.9236126,1.16082588 26.227801,1.3799948 26.4849059,1.64059238 C27.9676558,0.798651588 29.6424829,0.600158067 31.1848828,0.957376659 L31.1977378,0.883630599 L50.8208153,4.4845151 C50.976129,4.51277076 51.1079469,4.59285325 51.2027271,4.70318602 C51.3022374,4.70995598 51.3998626,4.75999149 51.4652264,4.85645283 L59.3422399,16.5333014 L50.4159936,30.357 L53.8514943,36.3069871 C54.281864,37.0524092 54.0645295,37.9941561 53.3741548,38.4803731 L53.247449,38.5613148 L28.3199962,52.9531864 C27.5307257,53.4088719 26.5213541,53.1384116 26.0656685,52.3491411 L26.0656685,52.3491411 L22.6279936,46.396 L6.28680582,47.2105793 L0.113724975,34.5522092 C0.0713541251,34.466822 0.0668203977,34.3781379 0.0895908935,34.299057 C-0.00414313501,34.1382297 -0.0296054135,33.9377595 0.0384658774,33.7465699 L0.0384658774,33.7465699 L6.73169226,14.9516376 L6.89419871,15.0096709 C7.3253057,13.387527 8.3768508,11.9305137 9.94537529,11.0249257 L9.83718161,11.0901452 C9.77391413,10.7925873 9.75232338,10.4829588 9.77700976,10.1693259 L9.77700976,10.1693259 L9.95926131,7.85924758 L10.2176036,7.92876998 C10.2551132,7.87175805 10.3071093,7.82134176 10.3742563,7.78257444 L23.1802441,0.389033922 C23.2527808,0.347154838 23.32825,0.327384753 23.401552,0.325818668 L23.4888531,6.42152997e-13 Z M34.885123,4.34244932 C33.2351978,1.48469495 29.580571,0.505440669 26.7228167,2.15536592 L26.8503338,2.08414407 C27.2501969,2.66901462 27.4549397,3.38285504 27.4035168,4.12119943 L26.702683,14.2360364 L21.1499936,11.569 L20.6811435,17.7605503 L11.5710826,13.3101018 C10.8495714,12.9579478 10.3037523,12.3592192 10.0101071,11.6480163 C7.3215539,13.3528549 6.43371982,16.8930059 8.04123108,19.6772971 L8.04123108,19.6772971 L19.010127,38.6759821 L18.7459936,38.828 L24.074016,40.224656 L23.3346429,46.3615382 L23.2629936,46.365 L26.5557336,52.0662019 C26.8337688,52.547773 27.4255433,52.7354151 27.9238962,52.5200296 L28.037057,52.4631213 L52.9645098,38.0712497 C53.4831249,37.7718272 53.6608518,37.1085413 53.3614293,36.5899262 L53.3614293,36.5899262 L50.0519936,30.859 L44.3981687,28.4448041 L45.8139936,23.273 Z M0.823849438,34.7173838 L6.63170739,46.6268223 L22.8299054,45.8200961 L23.4531665,40.646957 L9.53499359,36.999 L9.5210295,37.0269696 L4.34799359,35.641 L0.823849438,34.7173838 Z M40.3594449,39.4069762 L41.2454747,40.9416247 L40.7554096,41.2245639 L39.8693799,39.6899154 L40.3594449,39.4069762 Z M38.3066717,39.0504813 C38.55511,39.480789 38.4075333,40.0315527 37.9772256,40.2799909 C37.5469179,40.5284292 36.9961542,40.3808525 36.747716,39.9505448 C36.4992777,39.5202372 36.6468544,38.9694735 37.0771621,38.7210352 C37.5074698,38.472597 38.0582335,38.6201736 38.3066717,39.0504813 Z M37.3601013,39.2111003 C37.200449,39.3032755 37.1456058,39.5079534 37.237781,39.6676056 C37.3299563,39.8272579 37.5346342,39.8821012 37.6942864,39.7899259 C37.8539386,39.6977506 37.9087819,39.4930727 37.8166067,39.3334205 C37.7244314,39.1737683 37.5197535,39.118925 37.3601013,39.2111003 Z M13.2629936,29.852 L9.80299359,36.485 L18.3909936,38.735 L13.2629936,29.852 Z M37.8911106,35.1316957 L39.4100187,37.7625217 L38.9199537,38.0454609 L37.4010456,35.4146349 L37.8911106,35.1316957 Z M6.67450895,16.798811 L0.571556529,33.9363927 C0.552998522,33.988516 0.583265722,34.0461623 0.636817935,34.0606118 L0.636817935,34.0606118 L4.45999359,35.084 L9.24199359,36.337 L12.8877781,29.3484821 L13.0079936,29.411 L7.55116603,19.9602363 C6.97482714,18.961988 6.69149912,17.8749823 6.67450895,16.798811 Z M35.1738694,33.6243086 C35.4223077,34.0546163 35.274731,34.60538 34.8444233,34.8538182 C34.4141156,35.1022565 33.8633519,34.9546798 33.6149137,34.5243721 C33.3664754,34.0940644 33.5140521,33.5433007 33.9443598,33.2948625 C34.3746675,33.0464242 34.9254312,33.1940009 35.1738694,33.6243086 Z M34.227299,33.7849275 C34.0676468,33.8771028 34.0128035,34.0817807 34.1049787,34.2414329 C34.197154,34.4010851 34.4018319,34.4559284 34.5614841,34.3637532 C34.7211363,34.2715779 34.7759796,34.0669 34.6838044,33.9072478 C34.5916291,33.7475956 34.3869512,33.6927523 34.227299,33.7849275 Z M32.9374913,26.2987328 L37.3046237,33.862828 L36.8145587,34.1457672 L32.4474263,26.5816719 L32.9374913,26.2987328 Z M51.2679936,5.575 L48.9208674,14.3369335 L48.8499936,14.333 L45.0743341,28.1182496 L49.8664863,30.1648198 L58.6642407,16.5401164 L51.2679936,5.575 Z M32.0409585,28.1979477 C32.2893967,28.6282554 32.1418201,29.179019 31.7115124,29.4274573 C31.2812047,29.6758955 30.730441,29.5283189 30.4820027,29.0980112 C30.2335645,28.6677035 30.3811412,28.1169398 30.8114489,27.8685016 C31.2417565,27.6200633 31.7925202,27.76764 32.0409585,28.1979477 Z M31.094388,28.3585666 C30.9347358,28.4507419 30.8798925,28.6554198 30.9720678,28.815072 C31.0642431,28.9747242 31.268921,29.0295675 31.4285732,28.9373922 C31.5882254,28.845217 31.6430687,28.6405391 31.5508934,28.4808869 C31.4587182,28.3212346 31.2540403,28.2663914 31.094388,28.3585666 Z M28.9081562,22.7717749 C29.1565944,23.2020826 29.0090178,23.7528463 28.5787101,24.0012846 C28.1484024,24.2497228 27.5976387,24.1021461 27.3492005,23.6718384 C27.1007622,23.2415308 27.2483389,22.6907671 27.6786466,22.4423288 C28.1089543,22.1938906 28.6597179,22.3414673 28.9081562,22.7717749 Z M27.9615858,22.9323939 C27.8019335,23.0245691 27.7470903,23.229247 27.8392655,23.3888993 C27.9314408,23.5485515 28.1361187,23.6033948 28.2957709,23.5112195 C28.4554231,23.4190443 28.5102664,23.2143664 28.4180911,23.0547141 C28.3259159,22.8950619 28.121238,22.8402186 27.9615858,22.9323939 Z M36.6453559,11.8899314 L40.3868643,18.3704139 L37.62988,22.546528 L32.4945872,22.3558448 L29.0882412,16.2530336 L36.6453559,11.8899314 Z M41.1149936,14.002 L46.0249936,22.505 L48.2699936,14.308 L41.1149936,14.002 Z M36.4382301,12.6629356 L29.8541846,16.464236 L30.9299936,18.392 L31.8851385,17.8410292 L32.1680777,18.3310943 L31.2059936,18.886 L32.8336037,21.8021648 L37.3329264,21.9692332 L39.7219433,18.3504938 L36.4382301,12.6629356 Z M25.7752181,17.345367 C26.0236563,17.7756747 25.8760797,18.3264383 25.445772,18.5748766 C25.0154643,18.8233148 24.4647006,18.6757382 24.2162624,18.2454305 C23.9678241,17.8151228 24.1154008,17.2643591 24.5457085,17.0159209 C24.9760162,16.7674826 25.5267798,16.9150593 25.7752181,17.345367 Z M24.8286477,17.5059859 C24.6689954,17.5981612 24.6141522,17.8028391 24.7063274,17.9624913 C24.7985027,18.1221435 25.0031806,18.1769868 25.1628328,18.0848115 C25.322485,17.9926363 25.3773283,17.7879584 25.285153,17.6283062 C25.1929778,17.4686539 24.9882999,17.4138107 24.8286477,17.5059859 Z M37.4875728,14.5700171 L37.770512,15.0600822 L33.5772802,17.4810457 L33.294341,16.9909806 L37.4875728,14.5700171 Z M10.4659936,8.621 L10.3411393,10.2137807 C10.2557827,11.2982106 10.8418801,12.3245106 11.8193801,12.8016072 L11.8193801,12.8016072 L20.1799551,16.8859167 L20.6003463,11.3385261 C20.5953277,11.337376 20.5903096,11.3361398 20.5852936,11.3348166 L10.4848711,8.62841572 L10.4659936,8.621 Z M33.2667397,1.83861848 C34.1094573,2.38336913 34.8390154,3.13083183 35.3751881,4.05951013 L35.3751881,4.05951013 L40.7799936,13.421 L48.4229936,13.749 L50.7924344,5.10540198 C50.7859436,5.08558393 50.7731277,5.06824213 50.7558826,5.05634108 L50.7191051,5.04117764 Z M23.8572811,0.908408556 L21.1869936,10.868 L21.20342,10.8721108 L21.1959936,10.962 L26.195818,13.3647419 L26.8389989,4.0819841 C26.9145641,2.99699665 26.3188109,1.97627134 25.3370353,1.50799957 L23.8730088,0.809399601 C23.8713194,0.841711622 23.8661979,0.874807265 23.8572811,0.908408556 Z M23.2139936,1.022 L10.9249936,8.118 L20.6159936,10.715 L23.2139936,1.022 Z" id="Combined-Shape"></path>
                    </g>
                    <g id="Combined-Shape-7" transform="translate(48.114000, 77.784300)" fill="url(#linearGradient-2)">
                        <path d="M33.2292289,6.3504757e-14 L59.1142735,14.9447375 L56.733,19.068 L56.7451264,19.0757601 L56.589,19.318 L56.4502666,19.5589328 L56.438,19.551 L23.0401711,71.4364227 C23.5690522,71.8527595 23.7258302,72.6054392 23.3794554,73.2053779 L22.7810512,74.2418443 C22.4010286,74.9000628 21.5589524,75.1256965 20.9007339,74.7456738 L15.1973741,71.4528375 C14.5396557,71.0731036 14.3142128,70.2309763 14.6941656,69.5728787 L15.2925697,68.5364123 C15.6725225,67.8783147 16.5145477,67.6524904 17.1722661,68.0322243 L17.205,68.051 L34.719194,29.2438206 L8.82707304,63.2054843 C9.2416037,63.6603418 9.33505066,64.3484024 9.01096893,64.9097284 L8.41256477,65.9461948 C8.0116654,66.6405729 7.12335213,66.8785957 6.42897405,66.4776963 L0.725614253,63.18486 C0.031729641,62.7842456 -0.206091984,61.8958784 0.194733733,61.2016278 L0.793137893,60.1651614 C1.09465029,59.6429267 1.67197566,59.3787332 2.23490483,59.4503943 L30.576,4.62 L30.565222,4.61419532 L30.7,4.381 L30.8362637,4.11727122 L30.848,4.124 L33.2292289,6.3504757e-14 Z M15.7826348,68.8193515 L15.1842306,69.8558179 C14.9605121,70.2433097 15.0933,70.7393303 15.4803133,70.9627725 L21.1836731,74.2556088 C21.5712361,74.4793684 22.0672265,74.3464682 22.2909862,73.9589051 L22.8893903,72.9224387 C23.11315,72.5348757 22.9802497,72.0388853 22.5926867,71.8151256 L16.8893269,68.5222893 C16.5023136,68.2988471 16.0063533,68.4318597 15.7826348,68.8193515 Z M35.703,7.58 L35.5180755,7.79717069 L35.3559205,7.97952374 L35.0029668,8.36478923 C34.2952647,9.12246889 33.5367253,9.85114129 32.7561593,10.491721 C30.6070006,12.2554506 28.6934229,13.0447786 27.1947951,12.3928445 L2.8705169,59.4536805 L8.49827524,62.7028683 L37.2728901,24.9609539 L17.7091797,68.3105913 L22.5716763,71.117955 L51.3190468,26.4574891 C50.089367,25.4572203 49.84093,23.4401538 50.2823484,20.7663401 C50.4468236,19.7700602 50.6986028,18.7488097 51.0009215,17.7570818 C51.1066798,17.410152 51.2112477,17.091531 51.3100513,16.8081273 L51.3100513,16.8081273 L51.374,16.628 L46.465,13.794 L44.0379295,17.9988419 C43.060161,19.6923865 40.8943099,20.2730775 39.2009687,19.2954265 L38.9559362,19.1539569 L43.154,11.882 L35.703,7.58 Z M1.41414832,60.523702 L0.815744164,61.5601684 C0.61289857,61.9115073 0.733307762,62.361288 1.08415479,62.5638496 L6.78751459,65.8566859 C7.13891808,66.0595688 7.58867144,65.9390578 7.79155434,65.5876543 L8.3899585,64.5511879 C8.59284139,64.1997844 8.47233035,63.750031 8.12092686,63.5471481 L2.41756706,60.2543118 C2.06672003,60.0517502 1.61699392,60.1723631 1.41414832,60.523702 Z M27.0470629,60.4473488 L27.5102587,60.7724149 L25.5116398,63.620303 L25.048444,63.2952369 L27.0470629,60.4473488 Z M29.6199896,56.6274027 L30.0869365,56.947057 L28.5484295,59.1944882 L28.0814826,58.8748339 L29.6199896,56.6274027 Z M41.1612728,38.8943961 L41.6357901,39.2027005 L31.2437052,55.1973609 L30.7691878,54.8890565 L41.1612728,38.8943961 Z M51.874,16.916 L51.7710455,17.2083068 L51.6959486,17.4346558 L51.5422082,17.9220879 C51.2466535,18.8916271 51.0006542,19.8894337 50.8406695,20.858513 C50.4368376,23.3046535 50.6496011,25.1139951 51.6298436,25.9760884 L55.9478371,19.268865 L51.874,16.916 Z M43.6441524,12.165485 L39.7355849,18.9353226 L39.8743796,18.9946832 C41.224263,19.5319192 42.7998563,19.0114907 43.5478644,17.7159027 L45.9753378,13.5113955 L43.6441524,12.165485 Z M33.4363547,0.773004238 L31.3382262,4.40706946 L56.2431407,18.7859286 L58.3412692,15.1518633 L33.4363547,0.773004238 Z M51.5008145,11.6826668 L51.9908796,11.965606 L51.0507863,13.5938954 L50.5607212,13.3109562 L51.5008145,11.6826668 Z M31.0667407,4.90375725 L27.4568748,11.8874731 C28.7038299,12.3913494 30.4212526,11.6758483 32.3971747,10.0542871 C33.1564296,9.43119661 33.8975558,8.71925175 34.589424,7.97852421 C34.7105634,7.84883007 34.8258077,7.72289873 34.9346824,7.60166508 L34.9346824,7.60166508 L35.205,7.293 L31.0667407,4.90375725 Z M45.6405875,8.29926317 L46.1306525,8.58220236 L45.1905592,10.2104917 L44.7004942,9.92755252 L45.6405875,8.29926317 Z M39.7801121,4.9157161 L40.2701771,5.19865529 L39.3300838,6.82694464 L38.8400188,6.54400545 L39.7801121,4.9157161 Z" id="Combined-Shape"></path>
                    </g>
                    <g id="Combined-Shape-3" opacity="0.5" transform="translate(209.711074, 64.048800) rotate(51.000000) translate(-209.711074, -64.048800) translate(179.711074, 32.048800)" fill="url(#linearGradient-3)">
                        <path d="M20.8676583,0.52350398 C23.1405893,-0.358422078 25.013801,-0.0861605696 26.4886494,1.04072537 C27.3916027,1.73064401 28.0234564,2.633938 28.4238848,3.51904252 L28.403,3.476 L32.7548983,2.72427245 L32.8530548,2.79913317 L33.3893082,3.22465486 C33.53312,3.34120041 33.6839898,3.46495657 33.8416425,3.59586551 L33.8416425,3.59586551 L34.3346743,4.00999288 L34.8667535,4.4666901 C36.439901,5.83090547 38.148224,7.42966657 39.9323094,9.25051784 C48.2939568,17.7844794 55.2150563,27.8540586 59.1099935,39.1306162 L59.1099935,39.1306162 L59.1862141,39.3512888 L58.642,39.665 L59.5126092,41.1732371 L56.117909,43.1331682 L55.247,41.625 L54.8425153,41.8591245 L42.886,28.99 L49.3216241,40.1361067 C50.401797,42.0070211 49.8162879,44.3821013 48.0253738,45.5449119 L47.8422815,45.6570885 L29.5779883,56.2019831 C27.6448665,57.3180714 25.1731852,56.6559187 24.0570065,54.7226405 L24.0570065,54.7226405 L17.875,44.011 L22.8482219,60.1728246 L22.443,60.406 L23.3825046,62.0329628 L19.9873339,63.9931655 L19.048,62.366 L18.5040479,62.6809346 L17.9028484,61.9824655 C10.331536,53.0688142 5.21149141,42.2431818 2.06335095,30.9560254 C1.37844113,28.5003904 0.847990811,26.2214168 0.453080953,24.1767913 C0.314749295,23.4605863 0.203220774,22.8246332 0.116134254,22.2761443 L0.116134254,22.2761443 L0.0594409169,21.9085167 L2.13162821e-14,21.4766332 L2.87502516,18.0248272 C2.35306946,17.2585754 1.93115948,16.3105301 1.79359596,15.2487852 C1.55510832,13.408086 2.25592879,11.6497063 4.15616462,10.1222534 L4.15616462,10.1222534 L4.26803256,10.0323314 L7.688,10.948 L9.01510075,10.7965351 C12.6756435,10.2474865 16.0139804,8.40662924 18.4265037,5.61815754 L18.6814182,5.31578232 L19.8039481,3.89738552 L19.836,3.923 L20.7338496,0.575423459 Z M22.0064098,60.7812535 L19.5913692,62.1755778 L20.1944598,63.2201612 L22.6095003,61.8258369 L22.0064098,60.7812535 Z M0.648440011,22.0090532 L0.720107845,22.4658439 C0.735822841,22.561061 0.752224486,22.6586723 0.769323654,22.7586442 L0.769323654,22.7586442 L0.880375924,23.386536 L1.00869068,24.0694779 C1.40078548,26.0995286 1.927777,28.3636421 2.60842495,30.8039969 C5.77663059,42.1630938 10.9540457,53.0499011 18.625861,61.9571858 L18.625861,61.9571858 L22.1747366,59.9082415 L16.606,41.813 L9.51416615,29.5266523 L9.23529045,29.1766852 C7.72520918,26.5066122 5.69844902,24.5656168 3.40135364,23.2363692 C2.61206327,22.7796349 1.84734345,22.4297771 1.13727632,22.1730794 C0.961280329,22.1094547 0.797882186,22.0549863 0.648440011,22.0090532 Z M35.0423956,30.7030238 L22.8713752,37.7299657 L23.7110029,39.1842435 C25.6611224,42.5619495 24.6083902,46.8495004 21.3811778,48.9553719 L24.5470716,54.4397013 C25.5069809,56.1023131 27.6325719,56.6717497 29.2950491,55.711918 L29.2950491,55.711918 L47.5593423,45.1670235 C49.2218195,44.2071918 49.7914684,42.0816577 48.831559,40.4190459 L48.831559,40.4190459 L45.6677402,34.9398606 C42.1820906,36.7774219 37.8375822,35.5444291 35.8502435,32.1022576 L35.8502435,32.1022576 L35.0423956,30.7030238 Z M32.1084823,3.41001404 L26.2740451,4.41932347 L23.785,5.856 L23.7359821,6.0195202 C23.2104414,7.74931501 22.3813905,9.30659085 21.3239572,10.6492007 L25.2530349,17.4540854 L24.7629698,17.7370246 L20.939594,11.1161639 C18.8897586,13.499983 16.0918465,15.1352346 13.01853,15.7567484 L16.8122799,22.3273576 L16.3222149,22.6102968 L12.4265591,15.8633368 C10.5688527,16.156935 8.62345537,16.0819682 6.691444,15.5817318 L6.691444,15.5817318 L6.696,15.561 L4.70668355,16.7047821 L0.757091874,21.4506444 C0.930797152,21.5028204 1.12228834,21.5659402 1.32966244,21.6409084 C2.07017962,21.9086142 2.86528702,22.2723742 3.68477547,22.7465831 C6.0651549,24.1240243 8.16534234,26.1353397 9.70128972,28.859135 L9.70128972,28.859135 L9.97891755,29.2069183 L17.094,41.531 L17.1102561,41.5265877 L17.131,41.595 L21.0973315,48.4647919 C23.9862367,46.5609531 24.9694819,42.7550746 23.3406714,39.6834608 L23.2209379,39.4671827 L22.098371,37.5228398 L35.2495214,29.9300196 L36.3403086,31.8193184 C38.171441,34.9909327 42.1701777,36.1310632 45.3849874,34.4491771 L33.5987713,14.0342768 L33.3090166,13.5886022 C31.6930543,10.8462671 31.1777168,8.2285804 31.4762636,5.83106052 C31.5794208,5.00264264 31.7743991,4.25991781 32.0261352,3.61312493 C32.0535244,3.54275323 32.0810161,3.47503737 32.1084823,3.41001404 Z M58.152,39.948 L55.737,41.342 L56.3250348,42.360164 L58.7396049,40.9661113 L58.152,39.948 Z M32.7233767,3.41695968 C32.6714883,3.5289546 32.6139343,3.6630436 32.5534799,3.81837098 C32.3180998,4.42313993 32.1349603,5.12076753 32.0378051,5.90098544 C31.7544596,8.17642986 32.2450409,10.6683666 33.7899129,13.2906115 L33.7899129,13.2906115 L34.0809349,13.7384588 L41.889,27.263 L41.9779445,27.1816099 L54.9501223,41.1435775 L54.964,41.135 L54.94894,41.1084547 L58.3436402,39.1485236 L58.358,39.175 L58.4985321,39.0949021 C54.7088232,28.2492135 48.0905824,18.5215877 40.0886167,10.2231881 L39.5281131,9.64655279 C37.7551302,7.83703289 36.0579475,6.24869755 34.496015,4.89420778 C34.3139399,4.73631435 34.1380965,4.58544116 33.9687599,4.44164666 L33.9687599,4.44164666 L33.480546,4.03155773 L33.033025,3.66429182 Z M20.1930456,28.1830155 L21.0790753,29.717664 L20.5890103,30.0006032 L19.7029805,28.4659547 L20.1930456,28.1830155 Z M17.7353045,23.9260831 L19.3332545,26.6938136 L18.8431895,26.9767528 L17.2452395,24.2090223 L17.7353045,23.9260831 Z M28.6338006,23.3097433 L29.5198303,24.8443918 L29.0297652,25.127331 L28.1437355,23.5926825 L28.6338006,23.3097433 Z M26.1760595,19.0528109 L27.7740095,21.8205415 L27.2839444,22.1034807 L25.6859944,19.3357501 L26.1760595,19.0528109 Z M4.40018338,10.6535925 C2.73841361,12.0337112 2.14610851,13.5654755 2.35478369,15.1760756 C2.4712871,16.0752741 2.81818039,16.8952232 3.25255381,17.5700299 L4.29660898,16.3165244 L4.38160693,16.2472947 L7.10087988,14.6773217 L7.21430226,14.6408086 C9.36839512,14.4262206 11.4726999,13.8999245 13.4632428,13.0831614 Z M11.5573097,14.357077 C10.1824073,14.7685764 8.76756681,15.0508159 7.33086791,15.1977946 L7.46615141,15.18194 C9.03660457,15.5102634 10.6083599,15.5508146 12.1226583,15.3365607 Z M14.3460325,13.3200884 C13.6159855,13.6471718 12.869678,13.9354606 12.1102319,14.1839186 L12.7200146,15.2383166 C14.0597864,14.9869748 15.347391,14.5353209 16.5407984,13.9069361 Z M19.495,5.198 L19.1219257,5.6709515 C16.6003863,8.7409184 13.0288344,10.7667194 9.08936358,11.3574345 L9.166,11.344 L14.296,12.719 L14.3538006,12.6948315 L14.374,12.74 L17.2440481,13.5095847 C17.2543884,13.5033308 17.2647205,13.4970631 17.2750443,13.4907816 L19.495,5.198 Z M20.1503563,9.74677576 C19.6235133,10.2110716 19.0755027,10.6508396 18.5079611,11.0647232 L18.509,11.063 L17.983016,13.02933 C18.9662367,12.3440806 19.8613773,11.5272831 20.639024,10.5954404 Z M26.1450872,1.49037344 C24.8546042,0.504355358 23.2319048,0.251424454 21.2058025,1.00049864 L21.2058025,1.00049864 L18.7484936,10.1745767 C20.0603684,9.15138949 21.2565221,7.98191565 22.3140655,6.68511859 L22.3140655,6.68511859 L23.2559706,5.52970825 L23.3338026,5.46345318 L26.0347275,3.90407345 L26.1279824,3.87030511 L27.8260516,3.57761722 C27.4582441,2.82654912 26.9035179,2.0698668 26.1450872,1.49037344 Z M22.7932705,6.99349718 L22.7526375,7.0427119 C22.081,7.86629751 21.3548322,8.63980632 20.5797119,9.35861566 L21.0187998,10.1188517 C21.7345085,9.17777181 22.3349572,8.13096079 22.7932705,6.99349718 Z" id="Combined-Shape"></path>
                    </g>
                    <g id="Combined-Shape-2" opacity="0.600000024" transform="translate(157.194852, 147.312318) rotate(-66.000000) translate(-157.194852, -147.312318) translate(125.694852, 115.312318)" fill="url(#linearGradient-4)">
                        <path d="M27.6929955,-4.30766534e-14 L34.4981179,2.42636086 L34.308073,2.9593724 L28.2039506,0.78295248 L27.4908006,10.6849216 L31.9323823,9.97113825 C33.020352,7.99322706 34.0086546,5.46543939 34.8593229,2.31556888 L34.8593229,2.31556888 L34.9444448,2.00037784 L39.7220241,4.05662444 L39.513,4.541 L40.1034501,5.25312341 C42.9043582,8.6337214 46.7746735,10.9508778 51.0682795,11.8273938 L51.4990271,11.9102293 L53.3513191,12.2448941 L53.150183,12.593272 C50.9732799,16.3637788 46.0072654,17.5654366 42.0604924,15.2867661 C38.1133241,13.0078675 36.6708663,8.10637243 38.847811,4.3357936 L38.847811,4.3357936 L38.865,4.304 L35.3195899,2.77790299 C34.4716459,5.84340777 33.4864048,8.32847065 32.3973004,10.2946458 L32.4246289,10.4642693 L32.2892846,10.4873509 C30.6726149,13.3374574 28.8323203,15.0627989 26.8757303,15.8609777 C25.8619944,16.2745249 25.0277643,16.3611564 24.4688643,16.2980042 L24.4688643,16.2980042 L23.5513138,17.8872482 C31.6912057,20.679298 39.0373084,25.0325625 45.2161171,29.9386531 C46.199517,30.7194912 47.0645623,31.4472943 47.8040399,32.1027255 L47.8040399,32.1027255 L48.4359056,32.6740545 L49.2580875,31.1021152 C48.1750227,28.4973674 48.5808835,25.6580573 50.1465018,22.7102569 C50.4094127,22.2152392 50.7005653,21.7252047 51.0165203,21.2413639 L50.9291254,21.0102097 L51.2536231,20.8861993 C52.1258743,19.6075043 53.167632,18.3747333 54.3141667,17.2106673 C54.8447483,16.6719726 55.359566,16.1878109 55.8388721,15.7654323 L55.8388721,15.7654323 L56.2093847,15.4456134 L53.2616732,12.6253578 L53.6528723,12.2164793 L56.814,15.241 L56.8534138,15.1955614 L62.3572651,19.8757897 L52.9306638,26.2627317 L51.2669015,21.9009415 C51.0452203,22.256513 50.8378582,22.6149523 50.646266,22.9756887 C49.1292982,25.8318884 48.7594026,28.5425047 49.8302868,31.0016011 L49.8302868,31.0016011 L49.8843429,31.1257313 L48.8351779,33.1303465 C49.7941175,36.3304217 49.1978269,41.6925767 47.4473409,48.5608656 C46.5887894,51.9295187 45.5062848,55.4430284 44.3151586,58.8935693 C43.8983166,60.1011074 43.4976407,61.2146167 43.1275498,62.2080469 L43.1275498,62.2080469 L42.7453294,63.2185165 L42.5725424,63.6608296 L41.7334162,63.5457012 C35.0724061,62.5883795 28.8914763,60.5869419 23.21793,57.7961822 L23.0157944,57.7094663 L23.020117,57.6984586 C16.3124611,54.3704307 10.3174126,49.938674 5.08037403,44.8268823 C3.65322049,43.4338599 2.41538224,42.109325 1.3714956,40.8964771 L1.3714956,40.8964771 L1.19277449,40.6876636 L0.707019709,40.10686 L0.425352043,39.7591881 L0.225132129,39.5056151 L2.30926389e-14,39.208175 L0.0759197801,39.0529932 C1.22229573,36.7097748 2.92885909,34.321002 5.11833756,31.9069364 C7.65819367,29.106553 10.7651123,26.3586426 14.2395528,23.7207387 C16.3280638,22.1350758 18.4212024,20.6862185 20.4183647,19.4037968 C21.1175799,18.9548154 21.7549843,18.5586333 22.3179933,18.2189706 L22.3179933,18.2189706 L22.461545,18.1326318 L22.908,17.869 L24.1776307,15.6706787 L24.42737,15.7201712 C24.502525,15.7311593 24.6116264,15.7396832 24.7515685,15.7400546 L24.7515685,15.7400546 L24.984224,15.7337863 C25.4913351,15.706334 26.0557409,15.5843339 26.6619851,15.3370203 C28.4095703,14.6241038 30.0766895,13.1047311 31.570627,10.6025742 L26.8750422,11.3571472 L27.6929955,-4.30766534e-14 Z M37.46207,25.1670008 L23.7509189,57.4260153 C29.408651,60.1743588 35.5702658,62.1309007 42.2073655,63.0408195 L42.2073655,63.0408195 L42.3138158,62.7631158 L42.7570544,61.5792474 C42.8647674,61.2869528 42.974809,60.9851719 43.0868425,60.6745142 L43.0868425,60.6745142 L43.4285822,59.7165198 L43.7802539,58.7089203 C44.9666526,55.2720745 46.044727,51.7729438 46.8989917,48.4211106 C48.6379356,41.5981086 49.2215511,36.2806564 48.271879,33.2231817 L48.3,33.324 L47.8522434,32.9064583 L47.1483335,32.2795412 C46.4805289,31.6962511 45.7175359,31.0593575 44.8642343,30.38182 C42.5546614,28.5479756 40.0804852,26.7918 37.46207,25.1670008 Z M39.7732967,60.0178248 C40.2755416,60.0931699 40.7436788,60.147782 41.1754856,60.1807347 L41.1754856,60.1807347 L41.1324266,60.7449725 C40.6861995,60.7109193 40.2045624,60.6547324 39.6893449,60.5774411 L39.6893449,60.5774411 Z M33.4490623,58.5242179 C34.896879,58.9549356 35.7565531,59.1979209 36.7717854,59.4461286 L36.7717854,59.4461286 L37.5086307,59.6211703 L38.4819492,59.8415128 L38.3590576,60.3938858 C37.0437508,60.1012571 36.2182958,59.9026256 35.2100022,59.6235048 L35.2100022,59.6235048 L34.6378479,59.462226 L33.2877055,59.0666037 Z M26.8091554,56.3536947 L28.1540695,56.8371882 L29.1644469,57.1857904 C30.182133,57.5314744 31.2439482,57.8757629 32.3209999,58.204433 L32.3209999,58.204433 L32.1558369,58.7456719 C30.8020791,58.3325629 29.4728166,57.8950985 28.2240927,57.4609887 C27.7869653,57.3090246 27.3910647,57.1683108 27.0434091,57.042313 L27.0434091,57.042313 L26.6107047,56.883634 L26.8091554,56.3536947 Z M36.1010174,24.342163 L15.4819805,52.6305161 C17.9499917,54.3079075 20.5377153,55.8324934 23.2419997,57.1759946 L36.9741347,24.8667725 C36.6848089,24.6902565 36.3937608,24.515363 36.1010174,24.342163 Z M23.185,18.361 L22.3248739,18.8766846 C21.839018,19.1731 21.3030004,19.5082489 20.72412,19.8799607 C18.7387919,21.1547834 16.6576731,22.5953207 14.5817367,24.1714365 C11.1330399,26.789795 8.05132369,29.5154151 5.53749642,32.2870998 C3.43038162,34.6103532 1.7814518,36.9041953 0.661637546,39.1451233 L0.661637546,39.1451233 L1.00192154,39.573091 C1.04815092,39.6301593 1.09578528,39.6885788 1.14482185,39.7483246 L1.14482185,39.7483246 L1.45584571,40.1225138 L1.80038976,40.527332 C2.83388007,41.7281008 4.06056532,43.0407016 5.47563887,44.4219328 C8.41700805,47.2929574 11.5992764,49.9476106 15.013941,52.3095937 L35.6100295,24.0541946 C31.6966514,21.7790131 27.4868228,19.8095961 23.0436328,18.3123285 L23.185,18.361 Z M56.679,15.79 L56.4093015,16.0186977 L55.9270888,16.4456103 C55.5406179,16.7960731 55.133976,17.1847369 54.7173275,17.6077563 C53.5614338,18.7813245 52.5151267,20.0251862 51.6490748,21.3115293 L53.204949,25.3933564 L61.4237308,19.8247659 L56.679,15.79 Z M47.2018479,19.6071998 L47.9871836,22.5381125 L45.0562709,23.3234481 L44.2709353,20.3925355 L47.2018479,19.6071998 Z M46.8017115,20.3002565 L44.9639919,20.7926719 L45.4564074,22.6303915 L47.2941269,22.137976 L46.8017115,20.3002565 Z M40.6745789,17.8117988 L41.4599145,20.7427114 L38.5290019,21.5280471 L37.7436662,18.5971345 L40.6745789,17.8117988 Z M40.2744424,18.5048554 L38.4367228,18.9972709 L38.9291383,20.8349905 L40.7668579,20.342575 L40.2744424,18.5048554 Z M36.1025567,13.199021 L36.8878924,16.1299337 L33.9569797,16.9152694 L33.1716441,13.9843567 L36.1025567,13.199021 Z M35.7024203,13.8920777 L33.8647007,14.3844932 L34.3571162,16.2222127 L36.1948357,15.7297973 L35.7024203,13.8920777 Z M39.1426774,4.9807481 L39.0530749,5.16592453 C37.4645493,8.57561081 38.8510861,12.7803945 42.3434316,14.7967011 C45.9003165,16.8502696 50.3315299,15.8765288 52.4467569,12.6565018 L52.4467569,12.6565018 L51.398457,12.4670991 C46.8020267,11.6373431 42.6471291,9.21021661 39.667741,5.61419942 L39.667741,5.61419942 L39.1426774,4.9807481 Z" id="Combined-Shape"></path>
                    </g>
                    <g id="Combined-Shape-6" opacity="0.600000024" transform="translate(261.900515, 153.345945) rotate(19.000000) translate(-261.900515, -153.345945) translate(236.900515, 123.845945)" fill="url(#linearGradient-5)">
                        <path d="M40.0066379,0.171747146 L40.1190784,0.236664714 C40.7314551,0.590220537 40.941269,1.37325653 40.5877131,1.98563318 L38.5871228,5.449 L44.7341228,8.998 L46.7342266,5.53432439 C47.0877824,4.92194774 47.8708184,4.71213388 48.4831951,5.0656897 L48.5956356,5.13060727 C49.2080122,5.48416309 49.4178261,6.26719909 49.0642703,6.87957574 L47.0641228,10.343 L47.1685054,10.4036402 C49.8550838,11.9547369 50.6641697,15.1597299 48.7442405,16.9052769 L40.075829,24.7844096 C39.7365066,25.0926937 39.6546335,25.5225041 39.728299,26.1951142 L39.7971721,26.744518 L39.8076821,26.8701941 C39.8169683,27.0269911 39.8064133,27.143241 39.7648225,27.249397 C39.6034622,27.6612516 39.2277562,27.6228828 38.6295744,27.2908289 L38.8753434,58.0939372 L32.6642664,57.0321294 C21.5758761,55.1358592 11.5395635,49.3338484 4.36534655,40.6869504 L3.98376178,40.2210082 L1.77635684e-15,35.2933746 L26.8127724,20.4522008 C26.405667,20.1643255 26.2651392,19.9006167 26.4343731,19.5942108 C26.5075343,19.4617489 26.6269915,19.364177 26.8173385,19.2518162 L27.1459957,19.0715849 L27.4298883,18.9130687 C27.9083675,18.6256987 28.1702184,18.3401781 28.2644,17.9273332 L30.8616564,6.5436562 C31.3601044,4.3609133 33.8124457,3.40818828 36.1994209,4.20559919 L38.2576694,0.640381835 C38.6112253,0.0280051866 39.3942613,-0.181808677 40.0066379,0.171747146 Z M27.37,20.791 L0.863969707,35.4619606 L4.42383115,39.8652593 C11.4102735,48.5082926 21.256341,54.3593373 32.1737619,56.3702955 L32.7596385,56.4743459 L38.3040699,57.422188 L38.059,26.962 L27.37,20.791 Z M36.2958665,48.0722527 C36.4296657,48.0783848 36.5374896,48.1764924 36.5610606,48.3026995 L36.5655553,48.3678489 L36.3281689,53.5432706 C36.3210069,53.6993694 36.1886578,53.8201064 36.032559,53.8129443 C35.89876,53.8068054 35.7909411,53.7086924 35.7673766,53.5824841 L35.7628852,53.5173344 L36.0002703,48.3419415 C36.0074244,48.1858424 36.1397673,48.0650986 36.2958665,48.0722527 Z M36.8971808,30.8294105 C37.0310424,30.8339819 37.140003,30.9308255 37.1650441,31.0567492 L37.1702981,31.1218418 L36.6273654,47.0198881 C36.622032,47.1760601 36.4911061,47.2983389 36.3349341,47.2930055 C36.2010724,47.288434 36.0921119,47.1915904 36.0670708,47.0656668 L36.0618168,47.0005741 L36.6047494,31.1025278 C36.6100828,30.9463558 36.7410088,30.824077 36.8971808,30.8294105 Z M36.9820957,28.3401965 C37.1159574,28.3447686 37.2249176,28.4416126 37.2499581,28.5675363 L37.2552119,28.632629 L37.1941553,30.4202631 C37.1888213,30.576435 37.0578948,30.6987133 36.9017229,30.6933793 C36.7678612,30.6888072 36.658901,30.5919632 36.6338605,30.4660394 L36.6286067,30.4009468 L36.6896633,28.6133127 C36.6949973,28.4571407 36.8259238,28.3348625 36.9820957,28.3401965 Z M31.4133453,6.66958327 L28.8161027,18.0531999 C28.6804684,18.6477529 28.3227616,19.0368162 27.7241105,19.3964987 L27.3017302,19.6306513 C27.2451137,19.6613044 27.1908388,19.6908625 27.1514192,19.7127857 L27.0508268,19.7722975 L26.9727152,19.8265279 L26.9335596,19.8622079 L26.9338845,19.8643415 C26.9538542,19.858951 27.0299154,19.9343715 27.3127863,20.1035554 L38.8376514,26.7583567 C39.0166946,26.8617273 39.1526563,26.9262216 39.2445553,26.955912 L39.2430613,26.9128306 L39.2342951,26.8027235 C39.2278429,26.740327 39.1907199,26.4623002 39.1728712,26.3168103 L39.1502759,26.0928575 C39.0911681,25.3428268 39.2214331,24.7961042 39.6952589,24.36562 L48.3635965,16.4865544 C49.9666276,15.0291225 49.2702227,12.2704872 46.8855663,10.8937052 L46.7811228,10.833 L46.7658534,10.8605506 L44.4358097,9.51529921 L44.4511228,9.488 L38.3051228,5.939 L38.2892962,5.96660801 L36.4759342,4.91878886 C34.2389288,3.92671603 31.8582854,4.72115627 31.4133453,6.66958327 Z M47.2242917,5.81726358 L45.2241228,9.281 L46.5741228,10.06 L48.5742052,6.59663655 C48.7714981,6.25491535 48.6544176,5.81796514 48.3126964,5.62067232 L48.2002559,5.55575475 C47.8585347,5.35846193 47.4215845,5.47554238 47.2242917,5.81726358 Z M38.7477345,0.923321024 L36.7322568,4.4142308 L36.8974712,4.49098328 C37.0235957,4.55233601 37.148965,4.61885581 37.2732688,4.69062261 L38.0981228,5.166 L40.0976481,1.70269399 C40.2949409,1.3609728 40.1778605,0.924022588 39.8361393,0.726729764 L39.7236987,0.661812196 C39.3819775,0.464519372 38.9450273,0.581599828 38.7477345,0.923321024 Z" id="Combined-Shape"></path>
                    </g>
                    <g id="Combined-Shape-9" opacity="0.600000024" transform="translate(55.976869, 207.103228)" fill="url(#linearGradient-6)">
                        <path d="M51.3273174,9.38223 L63.1775887,30.2904737 L51.5367585,42.8633123 C51.5526346,42.8874822 51.5650459,42.9145165 51.5731069,42.9439111 L51.5731069,42.9439111 L57.8397555,65.7952743 L15.8040712,66.4721097 L22.166008,42.6610459 C22.171002,42.6423547 22.1777549,42.6246029 22.1860411,42.607921 L10.82565,30.3379494 L10.9276455,30.1579918 L22.6759192,9.42970946 L22.74365,9.50823 L29.6319746,9.50854547 L29.7019455,9.68938563 C30.8454746,12.6448447 33.7183834,14.6872833 36.8696373,14.6872833 C38.3046433,14.6872833 39.6856329,14.2586808 40.8716852,13.5111157 C40.9047404,13.3917768 41.0133311,13.3059244 41.1419738,13.3059244 C41.1533072,13.3059244 41.1644849,13.3065907 41.17547,13.3078864 C42.4408576,12.4281828 43.4560361,11.1726621 44.0337412,9.68883252 L44.0337412,9.68883252 L44.103933,9.50854547 L51.0466562,9.50854547 C51.0973129,9.50854547 51.1448603,9.52185787 51.1859908,9.54517506 L51.3273174,9.38223 Z M29.2466088,10.0744239 L23.2839105,10.0744239 L23.2290947,10.0848492 C23.823254,10.8361118 24.2927317,11.6439696 24.6458995,12.5001698 C25.6121861,14.8427811 25.6598876,17.3294817 25.1635704,19.6414118 C25.0975126,19.9491202 25.0266223,20.2257917 24.9555392,20.4674209 C24.9124007,20.6140592 24.8783569,20.717537 24.8320064,20.82744 L24.8320064,20.82744 L21.80965,25.67523 L22.9108008,36.8675905 C22.916883,36.9293913 22.9025979,36.9885013 22.8734129,37.0382597 L25.9572058,42.1057447 L23.8311084,44.384358 L22.63565,43.09323 L16.5441971,65.8942409 L57.1010423,65.2412169 L51.09465,43.34023 L50.1721537,44.3362989 L48.0460111,42.058289 L51.5639252,36.2776263 C51.5161568,36.224409 51.4884066,36.1531595 51.4918335,36.0760747 L51.4918335,36.0760747 L51.9666281,25.3959125 C51.9682076,25.3603817 51.9762749,25.3266735 51.9896353,25.2958807 L49.1457563,20.7263767 L49.072968,20.5026833 L48.9949718,20.2321212 C48.9419235,20.0379027 48.8896366,19.8245328 48.8400691,19.5937018 C48.3436269,17.2818152 48.3912136,14.7952117 49.3573826,12.4526977 C49.7047608,11.610466 50.1646956,10.8150123 50.7451564,10.0741918 L44.4884363,10.0744239 C43.8473127,11.6138601 42.7642003,12.9126248 41.425773,13.8244784 L41.424913,32.0488122 C41.424913,34.3808544 39.534236,36.2713513 37.2018306,36.2713513 C34.8698784,36.2713513 32.9792914,34.3807644 32.9792914,32.0488122 L32.9792914,32.0488122 L32.9792914,14.3906906 C32.9792914,14.3422533 32.9914629,14.2966588 33.0129142,14.2567987 C31.3482034,13.3522499 29.9942848,11.8800958 29.2466088,10.0744239 L29.2466088,10.0744239 Z M52.9050428,59.0708952 C53.0557785,59.0297022 53.2113675,59.1185041 53.2525605,59.2692398 L53.2525605,59.2692398 L54.1358147,62.5012906 C54.1770077,62.6520264 54.0882058,62.8076154 53.9374701,62.8488084 C53.7867344,62.8900014 53.6311454,62.8011995 53.5899523,62.6504638 L53.5899523,62.6504638 L52.7066982,59.418413 C52.6655051,59.2676772 52.7543071,59.1120882 52.9050428,59.0708952 Z M52.3322178,56.9747835 C52.4829536,56.9335905 52.6385425,57.0223924 52.6797356,57.1731281 L52.6797356,57.1731281 L52.9661481,58.221184 C53.0073411,58.3719197 52.9185392,58.5275087 52.7678034,58.5687017 C52.6170677,58.6098947 52.4614787,58.5210928 52.4202857,58.3703571 L52.4202857,58.3703571 L52.1338732,57.3223012 C52.0926802,57.1715655 52.1814821,57.0159765 52.3322178,56.9747835 Z M51.7593929,54.8786718 C51.9101286,54.8374788 52.0657176,54.9262807 52.1069106,55.0770164 L52.1069106,55.0770164 L52.3933231,56.1250722 C52.4345161,56.275808 52.3457142,56.431397 52.1949785,56.47259 C52.0442428,56.513783 51.8886538,56.4249811 51.8474607,56.2742454 L51.8474607,56.2742454 L51.5610483,55.2261895 C51.5198552,55.0754538 51.6086571,54.9198648 51.7593929,54.8786718 Z M49.6112996,47.0182542 C49.7620354,46.9770612 49.9176244,47.0658631 49.9588174,47.2165988 L49.9588174,47.2165988 L51.677292,53.5049329 C51.718485,53.6556686 51.6296831,53.8112576 51.4789474,53.8524506 C51.3282116,53.8936436 51.1726226,53.8048417 51.1314296,53.654106 L51.1314296,53.654106 L49.412955,47.3657719 C49.371762,47.2150362 49.4605639,47.0594472 49.6112996,47.0182542 Z M22.7682469,10.4144403 L11.5219448,30.2570598 L23.832708,43.5531701 L25.2507295,42.0334266 L18.183418,30.4223019 L24.3257798,20.5816715 L24.3696382,20.4494461 L24.4630377,20.1299426 C24.5133039,19.9458102 24.5630346,19.7427955 24.6102975,19.5226371 C25.084639,17.3130736 25.0390663,14.937351 24.1227765,12.7159489 C23.7860481,11.8996033 23.3375122,11.1301126 22.7682469,10.4144403 L22.7682469,10.4144403 Z M51.23499,10.3669614 L51.0271599,10.6378468 C50.5553478,11.2757356 50.1751244,11.9541623 49.8805117,12.6684621 C48.9643384,14.8897596 48.9188756,17.2653797 49.3933354,19.4748963 C49.4406213,19.6951025 49.4903763,19.8981621 49.540667,20.0823363 L49.5910648,20.2601508 C49.6309226,20.3956023 49.6614313,20.4883118 49.651985,20.4806028 L55.8198141,30.37538 L48.7525268,41.9859234 L50.1705031,43.5051838 L62.4812896,30.2095766 L51.23499,10.3669614 Z M21.31765,26.46423 L18.8480416,30.4258587 L22.25865,36.03023 L21.31765,26.46423 Z M40.8586922,14.1788547 C39.6578489,14.8646384 38.2893318,15.2531617 36.8696373,15.2531617 C35.7038301,15.2531617 34.5745859,14.9940437 33.5447788,14.5250396 L33.5451698,32.0488122 C33.5451698,34.0682384 35.1824044,35.705473 37.2018306,35.705473 C39.221722,35.705473 40.8590346,34.0683163 40.8590346,32.0488122 L40.8590346,32.0488122 Z M52.50065,26.11523 L52.08665,35.41823 L55.1552545,30.3788177 L52.50065,26.11523 Z M39.3382433,29.5241794 C39.4945063,29.5241794 39.6211825,29.6508556 39.6211825,29.8071186 L39.6211825,29.8071186 L39.6211825,30.582327 C39.6211825,30.73859 39.4945063,30.8652662 39.3382433,30.8652662 C39.1819803,30.8652662 39.0553041,30.73859 39.0553041,30.582327 L39.0553041,30.582327 L39.0553041,29.8071186 C39.0553041,29.6508556 39.1819803,29.5241794 39.3382433,29.5241794 Z M39.3382433,21.3755311 C39.4945063,21.3755311 39.6211825,21.5022073 39.6211825,21.6584703 L39.6211825,21.6584703 L39.6211825,28.1773889 C39.6211825,28.3336519 39.4945063,28.4603281 39.3382433,28.4603281 C39.1819803,28.4603281 39.0553041,28.3336519 39.0553041,28.1773889 L39.0553041,28.1773889 L39.0553041,21.6584703 C39.0553041,21.5022073 39.1819803,21.3755311 39.3382433,21.3755311 Z" id="Combined-Shape" transform="translate(37.001619, 37.927170) rotate(-30.000000) translate(-37.001619, -37.927170) "></path>
                    </g>
                </g>
            </g>
        </g>
    </g>
</svg>