<?xml version="1.0" encoding="UTF-8"?>
<svg width="290px" height="309px" viewBox="0 0 290 309" version="1.1" xmlns="http://www.w3.org/2000/svg" xmlns:xlink="http://www.w3.org/1999/xlink">
    <!-- Generator: Sketch 60.1 (88133) - https://sketch.com -->
    <title>Group 29 Copy</title>
    <desc>Created with Sketch.</desc>
    <defs>
        <linearGradient x1="0%" y1="50%" x2="99.2634596%" y2="57.1419982%" id="linearGradient-1">
            <stop stop-color="#F82E94" offset="0%"></stop>
            <stop stop-color="#FF9E33" offset="100%"></stop>
        </linearGradient>
        <linearGradient x1="18.8799431%" y1="50%" x2="80.6616333%" y2="58.8948827%" id="linearGradient-2">
            <stop stop-color="#F82E94" offset="0%"></stop>
            <stop stop-color="#FF9E33" offset="100%"></stop>
        </linearGradient>
        <linearGradient x1="6.75650373%" y1="50%" x2="92.6064846%" y2="58.8948827%" id="linearGradient-3">
            <stop stop-color="#F82E94" offset="0%"></stop>
            <stop stop-color="#FF9E33" offset="100%"></stop>
        </linearGradient>
        <linearGradient x1="2.02670646%" y1="50%" x2="97.2666081%" y2="58.8948827%" id="linearGradient-4">
            <stop stop-color="#F82E94" offset="0%"></stop>
            <stop stop-color="#FF9E33" offset="100%"></stop>
        </linearGradient>
        <linearGradient x1="13.2609174%" y1="50%" x2="86.1978862%" y2="58.8948827%" id="linearGradient-5">
            <stop stop-color="#F82E94" offset="0%"></stop>
            <stop stop-color="#FF9E33" offset="100%"></stop>
        </linearGradient>
        <linearGradient x1="7.9547164%" y1="50%" x2="91.4259226%" y2="58.8948827%" id="linearGradient-6">
            <stop stop-color="#F82E94" offset="0%"></stop>
            <stop stop-color="#FF9E33" offset="100%"></stop>
        </linearGradient>
    </defs>
    <g id="Careers" stroke="none" stroke-width="1" fill="none" fill-rule="evenodd" opacity="0.699999988">
        <g id="01_Careers" transform="translate(-1150.000000, -5524.000000)" fill-rule="nonzero">
            <g id="Group-50" transform="translate(0.000000, 4960.000000)">
                <g id="Group-6-+-Group-78-+-Group-77-+-Triangle-+-Triangle-+-Group-29-Copy-Mask" transform="translate(0.000000, 37.000000)">
                    <g id="Group-29-Copy" transform="translate(1150.000000, 516.000000)">
                        <g id="Combined-Shape-8" opacity="0.800000012" transform="translate(96.000000, 11.000000)" fill="url(#linearGradient-1)">
                            <path d="M28.1866237,8.9350749e-13 L30.6967212,1.19666599 C31.1080905,1.39287438 31.4729274,1.6556812 31.781337,1.9681534 C33.560304,0.95854988 35.5703192,0.72014835 37.4214192,1.14875007 L37.4372854,1.06035672 L60.9849783,5.38141812 C61.1704561,5.4151614 61.3280101,5.51049853 61.441624,5.64191039 C61.5612139,5.65119622 61.6793432,5.7112638 61.7582716,5.82774339 L71.2106878,19.8399617 L60.498998,36.428 L64.6217932,43.5683845 C65.1412747,44.4681529 64.8743403,45.6062908 64.0343071,46.1866872 L63.8969388,46.2735777 L33.9839955,63.5438236 C33.0368708,64.0906463 31.8256249,63.7660939 31.2788022,62.8189693 L31.2788022,62.8189693 L27.153998,55.675 L7.54416698,56.6526951 L0.13646997,41.4626511 C0.0856550894,41.3602471 0.0801909431,41.2538916 0.107460515,41.1590372 C-0.00499875575,40.9656629 -0.0354903841,40.7252099 0.0461590529,40.4958839 L0.0461590529,40.4958839 L8.07803071,17.9419652 L8.27317259,18.0111005 C8.79058493,16.0647302 10.0523836,14.3165225 11.9344503,13.2299108 L11.8045656,13.3079281 C11.7286851,12.950934 11.7027949,12.5794641 11.7324117,12.203191 L11.7324117,12.203191 L11.9511136,9.4310971 L12.2611563,9.5144754 C12.3061654,9.44608103 12.3685503,9.3855991 12.4491076,9.33908933 L27.816293,0.466840707 C27.9033147,0.416598672 27.9938536,0.392873852 28.0817948,0.39098385 L28.1866237,8.9350749e-13 Z M41.8621476,5.21093918 C39.8822373,1.78163394 35.4966852,0.606528803 32.06738,2.58643911 L32.2203401,2.50088454 C32.7002156,3.20274566 32.9459302,4.05938888 32.8842201,4.94543932 L32.0432197,17.0832437 L25.380998,13.882 L24.8173722,21.3126603 L13.8852992,15.9721221 C13.0194527,15.5495212 12.364453,14.8310084 12.0120883,13.9775222 C8.78548408,16.0249438 7.72080842,20.272204 9.6494773,23.6127565 L9.6494773,23.6127565 L22.8121524,46.4111785 L22.494998,46.594 L28.8888192,48.2695872 L28.0015714,55.6338458 L27.915998,55.637 L31.8668803,62.4794423 C32.2037306,63.0628842 32.9243431,63.2867957 33.5258946,63.0164457 L33.6444684,62.9557456 L63.5574118,45.6854997 C64.1797499,45.3261926 64.3930222,44.5302496 64.0337151,43.9079115 L64.0337151,43.9079115 L60.062998,37.032 L53.2778024,34.1337649 L54.976998,27.928 Z M0.988619326,41.6608606 L7.95804886,55.9521867 L27.3958864,54.9841153 L28.1437998,48.7763484 L11.441998,44.399 L11.4252354,44.4323635 L5.152998,42.751 L0.988619326,41.6608606 Z M48.4313339,47.2883714 L49.4945696,49.1299496 L48.9064915,49.4694766 L47.8432558,47.6278984 L48.4313339,47.2883714 Z M45.968006,46.8605776 C46.266132,47.3769468 46.0890399,48.0378632 45.5726707,48.3359891 C45.0563015,48.634115 44.3953851,48.457023 44.0972592,47.9406538 C43.7991333,47.4242846 43.9762253,46.7633682 44.4925945,46.4652423 C45.0089637,46.1671164 45.6698801,46.3442084 45.968006,46.8605776 Z M44.8321215,47.0533203 C44.6405389,47.1639306 44.5747269,47.4095441 44.6853372,47.6011268 C44.7959475,47.7927094 45.041561,47.8585214 45.2331437,47.7479111 C45.4247264,47.6373008 45.4905383,47.3916873 45.379928,47.2001046 C45.2693177,47.0085219 45.0237042,46.94271 44.8321215,47.0533203 Z M15.914998,35.823 L11.763998,43.782 L22.068998,46.482 L15.914998,35.823 Z M45.4693327,42.1580349 L47.2920225,45.3150261 L46.7039444,45.6545531 L44.8812547,42.4975619 L45.4693327,42.1580349 Z M8.00937575,20.1563363 L0.685867834,40.7236713 C0.663598227,40.7862192 0.699918867,40.8553947 0.764181522,40.8727342 L0.764181522,40.8727342 L5.406998,42.116 L11.089998,43.605 L15.4653338,35.2181785 L15.608998,35.293 L9.06139924,23.9522835 C8.36939324,22.753694 8.02940644,21.4484724 8.00937575,20.1563363 Z M42.2086433,40.3491703 C42.5067692,40.8655395 42.3296772,41.5264559 41.813308,41.8245819 C41.2969388,42.1227078 40.6360223,41.9456157 40.3378964,41.4292465 C40.0397705,40.9128773 40.2168625,40.2519609 40.7332318,39.953835 C41.249601,39.6557091 41.9105174,39.8328011 42.2086433,40.3491703 Z M41.0727588,40.541913 C40.8811761,40.6525233 40.8153642,40.8981368 40.9259745,41.0897195 C41.0365848,41.2813022 41.2821983,41.3471141 41.4737809,41.2365038 C41.6653636,41.1258935 41.7311756,40.88028 41.6205652,40.6886973 C41.5099549,40.4971147 41.2643415,40.4313027 41.0727588,40.541913 Z M39.5249896,31.5584793 L44.7655485,40.6353936 L44.1774704,40.9749206 L38.9369115,31.8980063 L39.5249896,31.5584793 Z M61.520998,6.69 L58.7050409,17.2043202 L58.619998,17.2 L54.089201,33.7418995 L59.8397836,36.1977838 L70.3970888,19.8481397 L61.520998,6.69 Z M38.4491502,33.8375372 C38.7472761,34.3539064 38.5701841,35.0148228 38.0538148,35.3129488 C37.5374456,35.6110747 36.8765292,35.4339826 36.5784033,34.9176134 C36.2802774,34.4012442 36.4573694,33.7403278 36.9737386,33.4422019 C37.4901078,33.144076 38.1510243,33.321168 38.4491502,33.8375372 Z M37.3132657,34.0302799 C37.121683,34.1408902 37.0558711,34.3865037 37.1664814,34.5780864 C37.2770917,34.7696691 37.5227051,34.835481 37.7142878,34.7248707 C37.9058705,34.6142604 37.9716824,34.3686469 37.8610721,34.1770642 C37.7504618,33.9854816 37.5048483,33.9196696 37.3132657,34.0302799 Z M34.6897874,27.3261299 C34.9879133,27.8424991 34.8108213,28.5034156 34.2944521,28.8015415 C33.7780829,29.0996674 33.1171665,28.9225754 32.8190406,28.4062061 C32.5209146,27.8898369 32.6980067,27.2289205 33.2143759,26.9307946 C33.7307451,26.6326687 34.3916615,26.8097607 34.6897874,27.3261299 Z M33.5539029,27.5188727 C33.3623202,27.629483 33.2965083,27.8750964 33.4071186,28.0666791 C33.5177289,28.2582618 33.7633424,28.3240737 33.9549251,28.2134634 C34.1465077,28.1028531 34.2123197,27.8572396 34.1017094,27.665657 C33.9910991,27.4740743 33.7454856,27.4082623 33.5539029,27.5188727 Z M43.9744271,14.2679176 L48.4642371,22.0444967 L45.155856,27.0558336 L38.9935046,26.8270138 L34.9058894,19.5036403 L43.9744271,14.2679176 Z M49.337998,16.802 L55.228998,27.006 L57.923998,17.17 L49.337998,16.802 Z M43.7258761,15.1955227 L35.8250215,19.7570832 L37.115998,22.07 L38.2621662,21.4092351 L38.6016933,21.9973131 L37.446998,22.663 L39.4003245,26.1625978 L44.7995116,26.3630799 L47.666332,22.0205926 L43.7258761,15.1955227 Z M30.9302617,20.8144404 C31.2283876,21.3308096 31.0512956,21.991726 30.5349264,22.2898519 C30.0185572,22.5879778 29.3576407,22.4108858 29.0595148,21.8945166 C28.7613889,21.3781474 28.9384809,20.7172309 29.4548502,20.419105 C29.9712194,20.1209791 30.6321358,20.2980711 30.9302617,20.8144404 Z M29.7943772,21.0071831 C29.6027945,21.1177934 29.5369826,21.3634069 29.6475929,21.5549896 C29.7582032,21.7465722 30.0038167,21.8123842 30.1953994,21.7017739 C30.386982,21.5911635 30.452794,21.3455501 30.3421837,21.1539674 C30.2315733,20.9623847 29.9859599,20.8965728 29.7943772,21.0071831 Z M44.9850874,17.4840206 L45.3246144,18.0720986 L40.2927362,20.9772548 L39.9532092,20.3891768 L44.9850874,17.4840206 Z M12.558998,10.346 L12.4093671,12.2565369 C12.3069392,13.5578527 13.0102561,14.7894128 14.1832562,15.3619287 L14.1832562,15.3619287 L24.2159461,20.2631001 L24.7203263,13.6062108 C24.7143337,13.6048365 24.7083417,13.6033599 24.7023523,13.6017799 L12.5818453,10.3540989 L12.558998,10.346 Z M39.9191405,2.20573007 C40.9308022,2.85948299 41.8066176,3.75665032 42.4502257,4.87141215 L42.4502257,4.87141215 L48.935998,16.106 L58.107998,16.498 L60.9504281,6.12501012 C60.9414879,6.09890564 60.9233634,6.07650889 60.899111,6.06259941 L60.8629261,6.04941317 Z M28.6287373,1.09009027 L25.425998,13.041 L25.444104,13.046533 L25.435998,13.155 L31.4349815,16.0376903 L32.2067986,4.89838092 C32.2974769,3.59639598 31.5825731,2.3715256 30.4044423,1.80959949 L28.6476187,0.971121968 C28.6456,1.00994636 28.6394519,1.0497141 28.6287373,1.09009027 Z M27.856998,1.226 L13.108998,9.741 L24.740998,12.858 L27.856998,1.226 Z" id="Combined-Shape"></path>
                        </g>
                        <g id="Combined-Shape-7" transform="translate(0.000000, 115.000000)" fill="url(#linearGradient-2)">
                            <path d="M39.8750746,4.08562073e-14 L70.9371282,17.933685 L68.08,22.882 L68.0941516,22.8909121 L67.908,23.178 L67.7403199,23.4707194 L67.726,23.462 L27.6477403,85.7233413 C28.2827707,86.2228702 28.4710977,87.1263512 28.0553465,87.8464535 L27.3372615,89.0902132 C26.8812392,89.880067 25.8707429,90.1508358 25.0808806,89.6948086 L18.2368489,85.743405 C17.4475868,85.2877244 17.1770553,84.2771716 17.6329987,83.4874545 L18.3510837,82.2436948 C18.8070271,81.4539777 19.8174572,81.1829884 20.6067193,81.6386691 L20.646,81.661 L41.6630328,35.0925847 L10.5927223,75.8468387 C11.0899597,76.3926699 11.2019996,77.2181888 10.8131627,77.8916741 L10.0950777,79.1354338 C9.61399848,79.9686875 8.54802256,80.2543148 7.71476886,79.7732356 L0.870737103,75.821832 C0.0380755692,75.3410947 -0.247310381,74.275054 0.23368048,73.4419534 L0.951765472,72.1981937 C1.31357749,71.5715169 2.00635984,71.2544848 2.68186979,71.3404711 L36.691,5.544 L36.6782663,5.53703439 L36.835,5.266 L37.0035164,4.94072546 L37.018,4.949 L39.8750746,4.08562073e-14 Z M18.9391617,82.5832218 L18.2210767,83.8269815 C17.9526145,84.2919717 18.11196,84.8871963 18.5763759,85.155327 L25.4204077,89.1067306 C25.8854833,89.3752421 26.4806718,89.2157618 26.7491834,88.7506862 L27.4672684,87.5069265 C27.73578,87.0418508 27.5762997,86.4466623 27.111224,86.1781507 L20.2671923,82.2267472 C19.8027764,81.9586165 19.2076239,82.1182316 18.9391617,82.5832218 Z M42.843,9.096 L42.6216906,9.35660482 L42.4271046,9.57542849 L42.0035602,10.0377471 C41.1543176,10.9469627 40.2440704,11.8213695 39.3073912,12.5900652 C36.7289916,14.7060557 34.4331598,15.6533001 32.6349904,14.8719509 L3.44462028,71.3444166 L10.1979303,75.2434419 L44.7274681,29.9531447 L21.2510157,81.9727096 L27.0860116,85.341546 L61.5841983,31.750078 C60.1074212,30.5501315 59.8089555,28.129157 60.338818,24.9196081 C60.5361883,23.7240723 60.8383233,22.4985716 61.2011058,21.3084982 C61.3280157,20.8921823 61.4534972,20.5098372 61.5720616,20.1697527 L61.5720616,20.1697527 L61.649,19.954 L58.149,17.933 L55.759,16.553 L52.8455154,21.5986102 C51.6721932,23.6308638 49.0731719,24.327693 47.0411625,23.1545118 L46.7471235,22.9847483 L51.784,14.258 L42.843,9.096 Z M1.69697799,72.6284424 L0.978892997,73.8722021 C0.735478284,74.2938087 0.879969315,74.8335456 1.30098575,75.0766195 L8.14501751,79.0280231 C8.56670169,79.2714826 9.10640573,79.1268693 9.3498652,78.7051851 L10.0679502,77.4614254 C10.3114097,77.0397412 10.1667964,76.5000372 9.74511223,76.2565777 L2.90108047,72.3051742 C2.48006403,72.0621002 1.9403927,72.2068357 1.69697799,72.6284424 Z M32.4564755,72.5368186 L33.0123105,72.9268979 L30.6139678,76.3443636 L30.0581328,75.9542842 L32.4564755,72.5368186 Z M35.5439875,67.9528832 L36.1043239,68.3364684 L34.2581154,71.0333859 L33.6977791,70.6498007 L35.5439875,67.9528832 Z M49.3935273,46.6732753 L49.9629482,47.0432406 L37.4924462,66.2368331 L36.9230254,65.8668678 L49.3935273,46.6732753 Z M62.249,20.3 L62.1252546,20.6499681 L62.0351384,20.921587 L61.8506499,21.5065055 C61.4959842,22.6699526 61.2007851,23.8673204 61.0088034,25.0302156 C60.5241526,27.9659025 60.7795767,30.1372648 61.9561949,31.1716425 L67.1374045,23.122638 L62.249,20.3 Z M52.3729829,14.598582 L47.6827018,22.7223871 L47.8492556,22.7936199 C49.4691156,23.438303 51.3598276,22.8137889 52.2574373,21.2590832 L55.1704053,16.2136745 L52.3729829,14.598582 Z M40.1236257,0.927605086 L37.6058714,5.28848335 L52.1244319,13.6709769 L52.872,14.102 L67.491,22.542 L70.0095231,18.182236 L40.1236257,0.927605086 Z M61.8009774,14.0192002 L62.3890555,14.3587272 L61.2609435,16.3126744 L60.6728655,15.9731474 L61.8009774,14.0192002 Z M37.2800888,5.8845087 L32.9490691,14.2652986 C34.4453482,14.8693058 36.5059359,14.0106628 38.8766096,12.0651446 C39.7877155,11.3174359 40.6770669,10.4631021 41.5073088,9.57422905 C41.652676,9.41859609 41.7909692,9.26747847 41.9216189,9.1219981 L41.9216189,9.1219981 L42.247,8.752 L37.2800888,5.8845087 Z M54.768705,9.95911581 L55.3567831,10.2986428 L54.2286711,12.2525901 L53.640593,11.913063 L54.768705,9.95911581 Z M47.7361345,5.89885932 L48.3242125,6.23838635 L47.1961006,8.19233357 L46.6080225,7.85280654 L47.7361345,5.89885932 Z" id="Combined-Shape"></path>
                        </g>
                        <g id="Combined-Shape-3" opacity="0.5" transform="translate(276.000000, 52.500000) rotate(51.000000) translate(-276.000000, -52.500000) translate(240.000000, 14.000000)" fill="url(#linearGradient-3)">
                            <path d="M25.04119,0.628204776 C27.7687071,-0.430106493 30.0165612,-0.103392683 31.7863793,1.24887044 C32.8699232,2.07677281 33.6281477,3.1607256 34.1086618,4.22285102 L34.084,4.172 L39.3058779,3.26912694 L39.4236657,3.3589598 L40.0671698,3.86958583 C40.239744,4.0094405 40.4207877,4.15794789 40.609971,4.31503862 L40.609971,4.31503862 L41.2016092,4.81199146 L41.8401041,5.36002812 C43.7278812,6.99708657 45.7778688,8.91559989 47.9187713,11.1006214 C57.9527482,21.3413752 66.2580675,33.4248703 70.9319922,46.9567395 L70.9319922,46.9567395 L71.023457,47.2215466 L70.37,47.598 L71.415131,49.4078846 L67.3414907,51.7598019 L66.296,49.95 L65.8110184,50.2309494 L51.464,34.789 L59.1859489,48.1633281 C60.4870943,50.4169781 59.7741633,53.2802453 57.6058245,54.669778 L57.4107377,54.7885062 L35.493586,67.4423797 C33.1738399,68.7816857 30.2078222,67.9871024 28.8684078,65.6671685 L28.8684078,65.6671685 L21.45,52.816 L27.4178663,72.2073895 L26.932,72.487 L28.0590055,74.4395553 L23.9848007,76.7917986 L22.858,74.84 L22.2048575,75.2171215 L21.4834181,74.3789586 C12.3978431,63.682577 6.25378969,50.6918181 2.47602113,37.1472305 C1.65412936,34.2004684 1.01758897,31.4657002 0.543697143,29.0121496 C0.377699154,28.1527035 0.243864929,27.3895598 0.139361104,26.7313731 L0.139361104,26.7313731 L0.0713291002,26.29022 L1.86517468e-14,25.7719598 L3.44934346,21.6287843 C2.8233133,20.7094589 2.31733105,19.5721705 2.15231516,18.2985422 C1.86612998,16.0897032 2.70711454,13.9796476 4.98739755,12.1467041 L4.98739755,12.1467041 L5.12163908,12.0387977 L9.225,13.138 L10.8181209,12.9558422 C15.2254798,12.2947778 19.2435981,10.0731451 22.1408466,6.70813978 L22.4177019,6.37893879 L23.7647378,4.67686262 L23.804,4.707 L24.8806196,0.690508151 Z M26.4076917,72.9375041 L23.5096431,74.6106933 L24.2333517,75.8641935 L27.1314004,74.1910043 L26.4076917,72.9375041 Z M0.778981883,26.4111264 L0.864129414,26.9590127 C0.882987409,27.0732733 0.902669383,27.1904068 0.923188384,27.3103731 L0.923188384,27.3103731 L1.05645111,28.0638432 L1.21042881,28.8833735 C1.68094258,31.3194343 2.3133324,34.0363705 3.13010994,36.9647963 C6.93195671,50.5957125 13.1448548,63.6598813 22.3510332,74.3486229 L22.3510332,74.3486229 L26.6096839,71.8898898 L19.929,50.179 L11.4169994,35.4319828 L11.0823485,35.0120223 C9.27025102,31.8079346 6.83813882,29.4787402 4.08162437,27.883643 C3.13447592,27.3355618 2.21681214,26.9157325 1.36473158,26.6076953 C1.15387154,26.5314668 0.958080976,26.4661911 0.778981883,26.4111264 Z M42.0508747,36.8436286 L27.4456503,45.2759589 L28.4532035,47.0210923 C30.7933843,51.0744044 29.5300277,56.2195654 25.6572272,58.7465678 L29.4564859,65.3276415 C30.6083771,67.3227757 33.1590862,68.0060997 35.1540589,66.8543016 L35.1540589,66.8543016 L57.0712107,54.2004281 C59.0661834,53.0486301 59.7497621,50.4979892 58.5978708,48.5028551 L58.5978708,48.5028551 L54.8013733,41.9277879 C50.6185794,44.1329263 45.4051148,42.6533429 43.0202922,38.5227091 L43.0202922,38.5227091 L42.0508747,36.8436286 Z M38.5310901,4.08986022 L31.5288541,5.30318817 L28.542,7.027 L28.4831785,7.22342424 C27.8525804,9.29901118 26.8578285,11.1676086 25.5890546,12.7786523 L30.3036419,20.9449025 L29.7155638,21.2844295 L25.1283521,13.3384206 C22.6685342,16.1994633 19.3107992,18.1621009 15.6225061,18.9080434 L20.1747359,26.7928291 L19.5866579,27.1323561 L14.9117823,19.0360182 C12.6825614,19.3883197 10.3481158,19.2983539 8.0297328,18.6980781 L8.0297328,18.6980781 L8.035,18.674 L5.64802026,20.0457385 L0.908510249,25.7407733 C1.11695658,25.8033845 1.34674601,25.8791283 1.59559493,25.9690901 C2.48421554,26.2903371 3.43834442,26.7268491 4.42173057,27.2958997 C7.27818588,28.9488291 9.7984108,31.3624077 11.6415477,34.630962 L11.6415477,34.630962 L11.9747011,35.048302 L20.513,49.837 L20.5323073,49.8319053 L20.558,49.916 L25.3165596,58.1579072 C28.7930585,55.867008 29.9699598,51.2807875 27.9924474,47.5894618 L27.8651254,47.3606193 L26.5180452,45.0274078 L42.2994257,35.9160235 L43.6083703,38.1831821 C45.8057058,41.9890788 50.6041113,43.3572468 54.4618619,41.3390769 L40.3185256,16.8411321 L39.9708199,16.3063226 C38.0316651,13.0155206 37.4132602,9.87429648 37.7715163,6.99727263 C37.8953049,6.00317117 38.129279,5.11190137 38.4313623,4.33574991 C38.4645322,4.25052558 38.4978275,4.16854725 38.5310901,4.08986022 Z M69.782,47.938 L66.885,49.61 L67.5900418,50.8321968 L70.4875259,49.1593335 L69.782,47.938 Z M39.2687317,4.09888515 C39.2062887,4.2335745 39.1369853,4.39497388 39.0641759,4.58204518 C38.7817198,5.30776791 38.5619523,6.14492104 38.4453661,7.08118253 C38.1053515,9.81171583 38.6940491,12.80204 40.5478954,15.9487338 L40.5478954,15.9487338 L40.8971219,16.4861505 L50.267,32.716 L50.3735333,32.6179319 L65.9401467,49.372293 L65.957,49.362 L65.9387281,49.3301456 L70.0123683,46.9782283 L70.03,47.01 L70.1982386,46.9138826 C65.639796,33.8681715 57.6709869,22.1705111 48.0379516,12.1969618 L47.4337357,11.5758633 C45.3061563,9.40443947 43.269537,7.49843706 41.3952181,5.87304934 C41.1767279,5.68357722 40.9657158,5.50252939 40.7625119,5.32997599 L40.7625119,5.32997599 L40.1766552,4.83786928 L39.63963,4.39715018 Z M24.2316547,33.8196186 L25.2948904,35.6611968 L24.7068123,36.0007238 L23.6435767,34.1591456 L24.2316547,33.8196186 Z M21.2823654,28.7112997 L23.1999054,32.0325764 L22.6118274,32.3721034 L20.6942874,29.0508267 L21.2823654,28.7112997 Z M34.3605607,27.971692 L35.4237963,29.8132702 L34.8357183,30.1527972 L33.7724826,28.311219 L34.3605607,27.971692 Z M31.4112714,22.8633731 L33.3288114,26.1846498 L32.7407333,26.5241768 L30.8231933,23.2029001 L31.4112714,22.8633731 Z M5.28022006,12.784311 C3.28609633,14.4404534 2.57533021,16.2785706 2.82574043,18.2112908 C2.96554082,19.2903004 3.38179443,20.2742158 3.9030232,21.0839717 L5.15593077,19.5798293 L5.25792832,19.4967536 L8.52105586,17.612786 L8.65716271,17.5689703 C11.2428133,17.3113911 13.768684,16.6795482 16.1579404,15.6989529 Z M13.8680722,17.2287017 C12.218409,17.7223874 10.5208366,18.0610041 8.79704149,18.2373535 L8.96347095,18.2191823 C10.8468664,18.6124307 12.7317715,18.6608025 14.5478047,18.4037858 Z M17.2153107,15.984074 C16.3391269,16.3766342 15.4434246,16.7226272 14.5319518,17.0208091 L15.2626528,18.2862359 C16.870483,17.9847489 18.4157215,17.4428588 19.8479258,16.6888668 Z M23.393,6.24 L22.9463108,6.8051418 C19.9204636,10.4891021 15.6346013,12.9200632 10.9072363,13.6289214 L11,13.613 L17.157,15.263 L17.2245607,15.2337977 L17.249,15.288 L20.6928388,16.2115131 C20.7048648,16.2042396 20.7168816,16.1969507 20.728889,16.1896461 L23.393,6.24 Z M24.1799587,11.6965441 C23.5478909,12.2535468 22.8904348,12.7811303 22.2095534,13.2776679 L22.211,13.276 L21.5797769,15.6350861 C22.7596778,14.812741 23.8338727,13.8325272 24.7670612,12.71425 Z M31.3741047,1.78844813 C29.825525,0.605226429 27.8782858,0.301709345 25.446963,1.20059837 L25.446963,1.20059837 L22.4986309,12.20915 C24.0727086,10.9814068 25.5079444,9.57815427 26.7768786,8.02214231 L26.7768786,8.02214231 L27.9071647,6.63564989 L28.0005632,6.55614381 L31.2416731,4.68488814 L31.3535789,4.64436613 L33.3908373,4.29227359 C32.9494659,3.39127659 32.2839296,2.48361715 31.3741047,1.78844813 Z M27.3517399,8.39265484 L27.3031649,8.45125428 C26.4969905,9.43981386 25.6253457,10.36825 24.694929,11.2310113 L25.2221332,12.1431829 C26.0810755,11.0138685 26.8016963,9.75766007 27.3517399,8.39265484 Z" id="Combined-Shape"></path>
                        </g>
                        <g id="Combined-Shape-2" opacity="0.600000024" transform="translate(177.500000, 151.500000) rotate(-66.000000) translate(-177.500000, -151.500000) translate(140.000000, 113.000000)" fill="url(#linearGradient-4)">
                            <path d="M33.2315947,-6.39488462e-14 L41.3977414,2.91163303 L41.1696876,3.55124688 L33.8447407,0.939542976 L32.9889608,12.8219059 L38.319025,11.9650637 C39.6245231,9.59161496 40.8104288,6.55836683 41.8311875,2.77868266 L41.8311875,2.77868266 L41.9333338,2.40045341 L47.6664289,4.86794932 L47.415,5.448 L48.1241401,6.30374809 C51.4951154,10.3723972 56.1569392,13.1573987 61.3274102,14.2021084 L61.7988325,14.2922751 L64.0215829,14.693873 L63.7802196,15.1119263 C61.1679359,19.6365346 55.2087185,21.0785239 50.4725908,18.3441194 C45.7359889,15.6094409 44.0050395,9.72764692 46.6173732,5.20295232 L46.6173732,5.20295232 L46.639,5.165 L42.3835079,3.33348358 C41.3660799,7.01171043 40.1839294,9.99355047 38.8771643,12.3528459 L38.9095547,12.5571231 L38.7472103,12.5846997 C36.8071901,16.0048999 34.5988121,18.0753474 32.2508763,19.0331732 C31.0343933,19.5294299 30.0333171,19.6333877 29.3626371,19.5576051 L29.3626371,19.5576051 L28.2615766,21.4646979 C38.0294469,24.8151576 46.84477,30.039075 54.2593405,35.9263838 C55.4394204,36.8633895 56.4774748,37.7367532 57.3648479,38.5232706 L57.3648479,38.5232706 L58.1230867,39.2088654 L59.109705,37.3225382 C57.8100273,34.1968409 58.2970602,30.7896688 60.1758021,27.2523083 C60.4910763,26.6586993 60.8401935,26.0710618 61.219035,25.4908455 L61.1149505,25.2122516 L61.5047083,25.0629106 C62.5513362,23.5286654 63.8013164,22.0495196 65.177,20.6528008 C65.813698,20.0063672 66.4314792,19.4253731 67.0066465,18.9185188 L67.0066465,18.9185188 L67.4512617,18.534736 L63.9140079,15.1504294 L64.3834467,14.6597751 L68.177,18.289 L68.2240965,18.2346736 L74.8287181,23.8509477 L63.5167965,31.5152781 L61.5200166,26.2815553 C61.2540989,26.7081015 61.0053534,27.1380867 60.7755192,27.5708265 C58.9551578,30.9982661 58.5112831,34.2510056 59.7963442,37.2019213 L59.7963442,37.2019213 L59.8612115,37.3508776 L58.6025569,39.7575623 C59.7527986,43.5977867 59.0371832,50.0319123 56.9368091,58.2730387 C55.9065473,62.3154224 54.6075418,66.5316341 53.1781903,70.6722832 C52.67798,72.1213289 52.1971688,73.45754 51.7530597,74.6496563 L51.7530597,74.6496563 L51.2943953,75.8622198 L51.0870509,76.3929955 L50.0800995,76.2548415 C42.0893434,75.1064084 34.6743297,72.7058061 27.8677921,69.3585055 L27.6189533,69.2513596 L27.6242004,69.2381801 C19.574989,65.2445433 12.3809108,59.926424 6.09644884,53.7922587 C4.38386458,52.1206319 2.89845869,50.53119 1.64579472,49.0757726 L1.64579472,49.0757726 L1.43132939,48.8251964 L0.848423651,48.1282321 L0.510422452,47.7110257 L0.270158555,47.4067381 L2.13162821e-14,47.04981 L0.0911037361,46.8635919 C1.46675487,44.0517297 3.51463091,41.1852024 6.14200507,38.2883237 C9.1898324,34.9278636 12.9181348,31.6303711 17.0874633,28.4648865 C19.5936766,26.562091 22.1054429,24.8234621 24.5020376,23.2845561 C25.3410958,22.7457785 26.1059812,22.2703599 26.7815919,21.8627647 L26.7815919,21.8627647 L26.953854,21.7591581 L27.49,21.442 L29.0131569,18.8048145 L29.312844,18.8642054 C29.40303,18.8773912 29.5339516,18.8876199 29.7018822,18.8880655 L29.7018822,18.8880655 L29.9810688,18.8805435 C30.5896021,18.8476009 31.266889,18.7012006 31.9943821,18.4044243 C34.0913759,17.5489688 36.0918205,15.7258659 37.8844742,12.723555 L32.2500506,13.6285766 L33.2315947,-6.39488462e-14 Z M44.953476,30.1997754 L28.5007808,68.911062 C35.2901475,72.2091564 42.6841931,74.5570635 50.6488386,75.6489833 L50.6488386,75.6489833 L50.776579,75.315739 L51.3084653,73.8950969 C51.4377209,73.5443433 51.5697708,73.1822063 51.704211,72.809417 L51.704211,72.809417 L52.1142987,71.6598237 L52.5363047,70.4507043 C53.9599831,66.3264893 55.2536724,62.1275326 56.27879,58.1053327 C58.3655227,49.9177304 59.0658613,43.5367876 57.9262549,39.8678181 L57.962,39.989 L57.4226921,39.48775 L56.5780001,38.7354495 C55.7766346,38.0355013 54.8610431,37.271229 53.8370811,36.458184 C51.0652974,34.2573354 48.0959472,32.1497092 44.953476,30.1997754 Z M47.727956,72.0213898 C48.3306499,72.1118039 48.8924146,72.1773384 49.4105827,72.2168816 L49.4105827,72.2168816 L49.3589119,72.893967 C48.8234394,72.8531031 48.2454748,72.7856788 47.6272139,72.6929294 L47.6272139,72.6929294 Z M40.1388748,70.2290615 C41.8762549,70.7459227 42.9078637,71.0375051 44.1261424,71.3353543 L44.1261424,71.3353543 L45.0103568,71.5454044 L46.1783391,71.8098153 L46.0308691,72.472663 C44.452501,72.1215085 43.461955,71.8831507 42.2520026,71.5482058 L42.2520026,71.5482058 L41.5654174,71.3546712 L39.9452466,70.8799244 Z M32.1709865,67.6244336 L33.7848834,68.2046258 L34.9973363,68.6229485 C36.2185596,69.0377693 37.4927378,69.4509154 38.7851999,69.8453197 L38.7851999,69.8453197 L38.5870043,70.4948063 C36.9624949,69.9990754 35.3673799,69.4741182 33.8689112,68.9531865 C33.3443584,68.7708295 32.8692776,68.601973 32.452091,68.4507756 L32.452091,68.4507756 L31.9328457,68.2603608 L32.1709865,67.6244336 Z M43.3215182,29.2107716 L18.5782167,63.1565107 C21.5397429,65.1693311 24.644916,66.9987958 27.8899545,68.6109723 L44.3687556,29.8400013 C44.0217304,29.6282845 43.6726405,29.4185129 43.3215182,29.2107716 Z M27.823,22.033 L26.7898487,22.6520215 C26.2068216,23.00772 25.5636004,23.4098986 24.868944,23.8559528 C22.4865503,25.38574 19.9892077,27.1143848 17.498084,29.0057239 C13.3596479,32.147754 9.66158843,35.4184981 6.6449957,38.7445197 C4.11645795,41.5324239 2.13774216,44.2850344 0.793965055,46.9741479 L0.793965055,46.9741479 L1.20230585,47.4877092 C1.2577811,47.5561912 1.31494234,47.6262946 1.37378623,47.6979895 L1.37378623,47.6979895 L1.74701485,48.1470166 L2.16046772,48.6327984 C3.40065608,50.0737209 4.87267838,51.6488419 6.57076664,53.3063194 C10.1005197,56.7516563 13.9193698,59.9373313 18.0171124,62.7717775 L42.7321643,28.8651084 C38.036074,26.1348589 32.9842361,23.7715318 27.6523593,21.9747942 L27.823,22.033 Z M68.015,18.948 L67.6911618,19.2224373 L67.1125066,19.7347324 C66.6487415,20.1552878 66.1607712,20.6216843 65.660793,21.1293076 C64.2736459,22.5376652 63.0180169,24.0303841 61.9787219,25.5740844 L63.8459388,30.4720277 L73.708477,23.7897191 L68.015,18.948 Z M56.6422175,23.5286398 L57.5846203,27.045735 L54.0675251,27.9881378 L53.1251223,24.4710426 L56.6422175,23.5286398 Z M56.1620538,24.3603077 L53.9567903,24.9512063 L54.5476888,27.1564698 L56.7529523,26.5655712 L56.1620538,24.3603077 Z M48.8094946,21.3741585 L49.7518974,24.8912537 L46.2348023,25.8336565 L45.2923994,22.3165613 L48.8094946,21.3741585 Z M48.3293309,22.2058265 L46.1240674,22.7967251 L46.714966,25.0019886 L48.9202295,24.41109 L48.3293309,22.2058265 Z M43.323068,15.8388253 L44.2654709,19.3559204 L40.7483757,20.2983233 L39.8059729,16.7812281 L43.323068,15.8388253 Z M42.8429043,16.6704932 L40.6376408,17.2613918 L41.2285394,19.4666553 L43.4338029,18.8757567 L42.8429043,16.6704932 Z M46.9712129,5.97689772 L46.8636899,6.19910944 C44.9574592,10.290733 46.6213033,15.3364734 50.8121179,17.7560413 C55.0803798,20.2203235 60.3978359,19.0518345 62.9361083,15.1878022 L62.9361083,15.1878022 L61.6781484,14.9605189 C56.162432,13.9648118 51.1765549,11.0522599 47.6012892,6.7370393 L47.6012892,6.7370393 L46.9712129,5.97689772 Z" id="Combined-Shape"></path>
                        </g>
                        <g id="Combined-Shape-6" opacity="0.600000024" transform="translate(283.000000, 223.000000) rotate(19.000000) translate(-283.000000, -223.000000) translate(253.000000, 188.000000)" fill="url(#linearGradient-5)">
                            <path d="M48.0079655,0.206096576 L48.1428941,0.283997657 C48.8777461,0.708264644 49.1295227,1.64790784 48.7052558,2.38275982 L46.3049473,6.539 L53.6809473,10.798 L56.0810719,6.64118927 C56.5053389,5.90633729 57.4449821,5.65456065 58.1798341,6.07882764 L58.3147627,6.15672872 C59.0496147,6.58099571 59.3013913,7.52063891 58.8771243,8.25549088 L56.4769473,12.412 L56.6022065,12.4843682 C59.8261005,14.3456843 60.7970037,18.1916759 58.4930886,20.2863323 L48.0909948,29.7412915 C47.6838079,30.1112324 47.5855602,30.6270049 47.6739588,31.4341371 L47.7566065,32.0934216 L47.7692185,32.244233 C47.7803619,32.4323894 47.7676959,32.5718892 47.717787,32.6992763 C47.5241513,33.1935104 47.0732922,33.1474578 46.3554527,32.7489743 L46.6504121,69.7127247 L39.1971197,68.4385553 C25.8684219,66.1591611 13.8065153,59.1769229 5.19452189,48.7713707 L4.78051414,48.2652099 L3.55271368e-15,42.3520495 L32.1753869,24.5426834 C31.6868142,24.1972166 31.5181587,23.8807551 31.7212477,23.513053 C31.8090412,23.3540987 31.9523898,23.2370124 32.1808062,23.1021794 L32.5751949,22.8859019 L32.915866,22.6956824 C33.490041,22.3508385 33.8042621,22.0082137 33.9172799,21.5127999 L37.0339877,7.85238743 C37.6321449,5.23301034 40.5751272,4.08975119 43.439586,5.04681287 L45.9092033,0.768458202 C46.3334703,0.0336062239 47.2731135,-0.218170412 48.0079655,0.206096576 Z M32.845,24.949 L1.03676365,42.5543528 L5.30859739,47.8383112 C13.7065863,58.22759 25.5478071,65.2550769 38.6753668,67.6566266 L39.3115662,67.769215 L45.9648838,68.9066256 L45.672,32.355 L32.845,24.949 Z M43.5550398,57.6867033 C43.7189439,57.6942151 43.8503652,57.8167442 43.8749083,57.9727481 L43.8786663,58.0414187 L43.5938027,64.2519247 C43.5852082,64.4392432 43.4263893,64.5841277 43.2390708,64.5755332 C43.0751671,64.568013 42.9437519,64.4454773 42.9192168,64.2894721 L42.9154623,64.2208013 L43.2003243,58.0103298 C43.2089093,57.8230108 43.3677208,57.6781183 43.5550398,57.6867033 Z M44.2766169,36.9952925 C44.4405975,37.0008926 44.5734387,37.1218809 44.5997992,37.277588 L44.6043577,37.3462101 L43.9528385,56.4238658 C43.9464384,56.6112721 43.7893273,56.7580067 43.6019209,56.7516066 C43.4379404,56.7460065 43.3050992,56.6250183 43.2787386,56.4693111 L43.2741801,56.400689 L43.9256993,37.3230333 C43.9320994,37.135627 44.0892106,36.9888924 44.2766169,36.9952925 Z M44.3785149,34.0082358 C44.5424954,34.0138366 44.6753361,34.1348253 44.701696,34.2905326 L44.7062543,34.3591547 L44.6329864,36.5043157 C44.6265855,36.691722 44.4694738,36.838456 44.2820675,36.8320551 C44.1180869,36.8264544 43.9852462,36.7054656 43.9588863,36.5497583 L43.9543281,36.4811362 L44.0275959,34.3359752 C44.0339968,34.1485689 44.1911086,34.001835 44.3785149,34.0082358 Z M37.6960144,8.00349993 L34.5793232,21.6638399 C34.4165621,22.3773035 33.9873139,22.8441794 33.2689326,23.2757985 L32.7620762,23.5567815 C32.6941365,23.5935653 32.6290065,23.629035 32.581703,23.6553428 L32.4609922,23.726757 L32.3672582,23.7918335 L32.3202715,23.8346495 L32.3206614,23.8372098 C32.344625,23.8307412 32.4358985,23.9212458 32.7753435,24.1242665 L46.6051817,32.110028 C46.8200335,32.2340727 46.9831876,32.311466 47.0934664,32.3470944 L47.0916735,32.2953967 L47.0811541,32.1632682 C47.0734115,32.0883924 47.0288638,31.7547603 47.0074454,31.5801723 L46.9803311,31.3114289 C46.9094018,30.4113921 47.0657197,29.7553251 47.6343107,29.238744 L58.0363158,19.7838652 C59.9599532,18.034947 59.1242672,14.7245847 56.2626795,13.0724463 L56.1369473,13 L56.1190241,13.0326607 L53.3229717,11.4183591 L53.3419473,11.386 L45.9659473,7.127 L45.9471555,7.15992961 L43.7673093,5.90085766 C41.0840108,4.71296199 38.2296897,5.66649417 37.6960144,8.00349993 Z M56.66915,6.98071629 L54.2689473,11.137 L55.8889473,12.072 L58.2890463,7.91596386 C58.5257977,7.50589842 58.3853011,6.98155817 57.9752357,6.74480678 L57.8403071,6.6669057 C57.4302416,6.43015431 56.9059014,6.57065086 56.66915,6.98071629 Z M46.4972814,1.10798523 L44.0785991,5.2964469 C44.2969416,5.39442249 44.5137501,5.50509461 44.7279225,5.62874713 L45.7169473,6.199 L48.1171777,2.04323279 C48.3539291,1.63316736 48.2134325,1.10882711 47.8033671,0.872075716 L47.6684385,0.794174635 C47.258373,0.557423247 46.7340328,0.697919794 46.4972814,1.10798523 Z" id="Combined-Shape"></path>
                        </g>
                        <g id="Combined-Shape-9" opacity="0.600000024" transform="translate(69.000000, 248.000000)" fill="url(#linearGradient-6)">
                            <path d="M61.5927809,11.258676 L75.8131064,36.3485685 L61.843707,51.4353625 C61.8629515,51.4645218 61.877987,51.4971714 61.8877283,51.5326933 L61.8877283,51.5326933 L69.4077066,78.9543291 L18.9648855,79.7665317 L26.5992096,51.1932551 C26.60526,51.17061 26.6134619,51.1491139 26.6235367,51.1289281 L12.99078,36.4055393 L13.1131746,36.1895902 L27.211103,11.3156514 L27.29278,11.409676 L35.5583695,11.4102546 L35.6423346,11.6272628 C37.0145695,15.1738136 40.4620601,17.62474 44.2435648,17.62474 C45.9653745,17.62474 47.6223795,17.1105349 49.0455326,16.2136474 C49.0847621,16.0708662 49.2154485,15.9671093 49.3703686,15.9671093 C49.3839567,15.9671093 49.3973583,15.9679075 49.4105292,15.9694596 C50.9292121,14.913593 52.1472954,13.4070608 52.8404894,11.626599 L52.8404894,11.626599 L52.9247196,11.4102546 L61.2559875,11.4102546 C61.3170109,11.4102546 61.3742742,11.4263534 61.423762,11.4545356 L61.5927809,11.258676 Z M35.0959305,12.0893086 L27.9406926,12.0893086 L27.8736984,12.1002827 C28.5872646,13.0022328 29.1510373,13.9721798 29.5750794,15.0002037 C30.7346233,17.8113374 30.7918652,20.795378 30.1962844,23.5696942 C30.1170151,23.9389443 30.0319468,24.2709501 29.946647,24.5609051 C29.8948809,24.736871 29.8540283,24.8610444 29.7984077,24.992928 L29.7984077,24.992928 L26.17078,30.810676 L27.492961,44.2411087 C27.5002733,44.3154087 27.4830531,44.3864677 27.4478981,44.4462475 L31.1486469,50.5268936 L28.59733,53.2612296 L27.16278,51.711676 L19.8530365,79.0730891 L68.5212508,78.2894603 L61.31378,52.006676 L60.2065844,53.2035587 L57.6552133,50.4699468 L61.8771996,43.5336956 C61.8195778,43.4697768 61.7860763,43.3840543 61.7902002,43.2912896 L61.7902002,43.2912896 L62.3599537,30.475095 C62.3618705,30.4319793 62.3717482,30.3911 62.3881049,30.3538133 L58.9749075,24.871652 L58.8875616,24.60322 L58.7939662,24.2785454 C58.7303083,24.0454833 58.6675639,23.7894394 58.608083,23.5124422 C58.0123523,20.7381782 58.0694563,17.754254 59.2288592,14.9432372 C59.6458588,13.9322057 60.1980209,12.9773469 60.8949188,12.0880972 L53.3861236,12.0893086 C52.6167039,13.9368033 51.3167994,15.4954387 49.7104809,16.5896784 L49.7098956,38.4585746 C49.7098956,41.2570253 47.4410832,43.5256216 44.6421967,43.5256216 C41.8438541,43.5256216 39.5751497,41.2569172 39.5751497,38.4585746 L39.5751497,38.4585746 L39.5751497,17.2688287 C39.5751497,17.2116694 39.5892743,17.157809 39.6142236,17.1105475 C37.6185658,16.0234845 35.993341,14.2565962 35.0959305,12.0893086 L35.0959305,12.0893086 Z M63.4860513,70.8850743 C63.6669342,70.8356426 63.853641,70.9422049 63.9030726,71.1230878 L63.9030726,71.1230878 L64.9629776,75.0015488 C65.0124093,75.1824316 64.905847,75.3691384 64.7249641,75.4185701 C64.5440812,75.4680017 64.3573744,75.3614394 64.3079428,75.1805565 L64.3079428,75.1805565 L63.2480378,71.3020956 C63.1986062,71.1212127 63.3051685,70.9345059 63.4860513,70.8850743 Z M62.7986614,68.3697402 C62.9795443,68.3203086 63.1662511,68.4268708 63.2156827,68.6077537 L63.2156827,68.6077537 L63.5593777,69.8654208 C63.6088093,70.0463036 63.502247,70.2330104 63.3213641,70.2824421 C63.1404813,70.3318737 62.9537745,70.2253114 62.9043428,70.0444285 L62.9043428,70.0444285 L62.5606479,68.7867615 C62.5112162,68.6058786 62.6177785,68.4191718 62.7986614,68.3697402 Z M62.1112714,65.8544061 C62.2921543,65.8049745 62.4788611,65.9115368 62.5282927,66.0924197 L62.5282927,66.0924197 L62.8719877,67.3500867 C62.9214193,67.5309696 62.8148571,67.7176764 62.6339742,67.767108 C62.4530913,67.8165396 62.2663845,67.7099773 62.2169529,67.5290945 L62.2169529,67.5290945 L61.8732579,66.2714274 C61.8238263,66.0905446 61.9303886,65.9038378 62.1112714,65.8544061 Z M59.5335596,56.421905 C59.7144424,56.3724734 59.9011492,56.4790357 59.9505809,56.6599186 L59.9505809,56.6599186 L62.0127504,64.2059194 C62.062182,64.3868023 61.9556197,64.5735091 61.7747368,64.6229407 C61.593854,64.6723724 61.4071472,64.5658101 61.3577155,64.3849272 L61.3577155,64.3849272 L59.2955461,56.8389263 C59.2461144,56.6580435 59.3526767,56.4713367 59.5335596,56.421905 Z M27.3218963,12.4973283 L13.8263338,36.3084717 L28.5992496,52.2638041 L30.3008754,50.440112 L21.8201016,36.5067623 L29.1909357,24.6980058 L29.2435658,24.5393353 L29.3556453,24.1559311 C29.4159647,23.9349722 29.4756415,23.6913546 29.532357,23.4271645 C30.1015668,20.7756883 30.0468796,17.9248212 28.9473318,15.2591387 C28.5432577,14.279524 28.0050147,13.3561351 27.3218963,12.4973283 L27.3218963,12.4973283 Z M61.481988,12.4403537 L61.2325919,12.7654162 C60.6664174,13.5308827 60.2101493,14.3449948 59.8566141,15.2021545 C58.757206,17.8677116 58.7026507,20.7184557 59.2720025,23.3698756 C59.3287456,23.634123 59.3884515,23.8777946 59.4488004,24.0988035 L59.5092777,24.3121809 C59.5571071,24.4747228 59.5937176,24.5859742 59.5823821,24.5767233 L66.9837769,36.4504559 L58.5030321,50.3831081 L60.2046037,52.2062205 L74.9775476,36.2514919 L61.481988,12.4403537 Z M25.58078,31.755676 L22.6176499,36.5110304 L26.71178,43.238676 L25.58078,31.755676 Z M49.0316195,17.0139466 C47.5903219,17.8373096 45.9476666,18.303794 44.2435648,18.303794 C42.8447651,18.303794 41.4898305,17.9929276 40.2541824,17.4302515 L40.2542037,38.4585746 C40.2542037,40.881886 42.2188853,42.8465676 44.6421967,42.8465676 C47.0660664,42.8465676 49.0308415,40.8819796 49.0308415,38.4585746 L49.0308415,38.4585746 Z M63.00078,31.337676 L62.50378,42.502676 L66.1863054,36.4545812 L63.00078,31.337676 Z M47.2058919,35.4290153 C47.3934075,35.4290153 47.545419,35.5810267 47.545419,35.7685423 L47.545419,35.7685423 L47.545419,36.6987924 C47.545419,36.886308 47.3934075,37.0383195 47.2058919,37.0383195 C47.0183763,37.0383195 46.8663649,36.886308 46.8663649,36.6987924 L46.8663649,36.6987924 L46.8663649,35.7685423 C46.8663649,35.5810267 47.0183763,35.4290153 47.2058919,35.4290153 Z M47.2058919,25.6506373 C47.3934075,25.6506373 47.545419,25.8026488 47.545419,25.9901644 L47.545419,25.9901644 L47.545419,33.8128667 C47.545419,34.0003823 47.3934075,34.1523938 47.2058919,34.1523938 C47.0183763,34.1523938 46.8663649,34.0003823 46.8663649,33.8128667 L46.8663649,33.8128667 L46.8663649,25.9901644 C46.8663649,25.8026488 47.0183763,25.6506373 47.2058919,25.6506373 Z" id="Combined-Shape" transform="translate(44.401943, 45.512604) rotate(-30.000000) translate(-44.401943, -45.512604) "></path>
                        </g>
                    </g>
                </g>
            </g>
        </g>
    </g>
</svg>