<?xml version="1.0" encoding="UTF-8"?>
<svg width="783px" height="63px" viewBox="0 0 783 63" version="1.1" xmlns="http://www.w3.org/2000/svg" xmlns:xlink="http://www.w3.org/1999/xlink">
    <!-- Generator: Sketch 60.1 (88133) - https://sketch.com -->
    <title>Group 73</title>
    <desc>Created with Sketch.</desc>
    <defs>
        <linearGradient x1="100%" y1="50.740968%" x2="-11.0634108%" y2="49.4663326%" id="linearGradient-1">
            <stop stop-color="#FF933D" offset="0%"></stop>
            <stop stop-color="#FF29A4" offset="100%"></stop>
        </linearGradient>
    </defs>
    <g id="Careers" stroke="none" stroke-width="1" fill="none" fill-rule="evenodd">
        <g id="01_Careers" transform="translate(-313.000000, -5041.000000)">
            <g id="Group-74" transform="translate(0.000000, 4165.000000)">
                <g id="Group-6-+-Group-73-+-Group-29-Copy-+-Group-65-Mask" transform="translate(0.000000, 832.000000)">
                    <g id="Group-73" transform="translate(313.000000, 44.000000)">
                        <g id="Group-50" transform="translate(0.000000, 24.000000)" stroke="#CC066F">
                            <g id="Group-15" transform="translate(38.000000, 0.000000)">
                                <g id="Group-14">
                                    <line x1="45.8282458" y1="0.5" x2="92.147559" y2="0.5" id="Path-2"></line>
                                    <line x1="3.55271368e-15" y1="0.5" x2="36.3193132" y2="0.5" id="Path-2" stroke-dasharray="3"></line>
                                </g>
                            </g>
                            <g id="Group-13" transform="translate(0.000000, 29.000000)">
                                <line x1="-3.55271368e-15" y1="0.5" x2="56.3193132" y2="0.5" id="Path-2" stroke-dasharray="3"></line>
                                <line x1="56" y1="0.5" x2="122.319313" y2="0.5" id="Path-2"></line>
                            </g>
                        </g>
                        <g id="Group-69" transform="translate(660.000000, 24.000000)" stroke="#FF8B45">
                            <g id="Group-15" transform="translate(74.500000, 0.500000) rotate(-180.000000) translate(-74.500000, -0.500000) translate(28.000000, 0.000000)">
                                <g id="Group-14">
                                    <line x1="45.8282458" y1="0.5" x2="92.147559" y2="0.5" id="Path-2"></line>
                                    <line x1="3.55271368e-15" y1="0.5" x2="36.3193132" y2="0.5" id="Path-2" stroke-dasharray="3"></line>
                                </g>
                            </g>
                            <g id="Group-13" transform="translate(61.500000, 29.500000) rotate(-180.000000) translate(-61.500000, -29.500000) translate(0.000000, 29.000000)">
                                <line x1="-3.55271368e-15" y1="0.5" x2="56.3193132" y2="0.5" id="Path-2" stroke-dasharray="3"></line>
                                <line x1="56" y1="0.5" x2="122.319313" y2="0.5" id="Path-2"></line>
                            </g>
                        </g>
                        <path d="M153.64,48.72 C154.181333,48.5266667 154.732333,48.3236667 155.293,48.111 C155.853667,47.8983333 156.404667,47.6566667 156.946,47.386 C157.41,47.154 157.932,46.9413333 158.512,46.748 C160.097333,46.284 161.653667,45.8586667 163.181,45.472 C164.708333,45.0853333 166.284,44.7566667 167.908,44.486 C169.764,44.1766667 171.600667,43.8963333 173.418,43.645 C175.235333,43.3936667 177.072,43.2486667 178.928,43.21 C179.005333,43.1326667 179.092333,43.065 179.189,43.007 C179.285667,42.949 179.372667,42.9006667 179.45,42.862 L179.45,42.862 L179.682,42.746 C180.61,42.7073333 181.470333,42.804 182.263,43.036 C183.055667,43.268 183.858,43.3453333 184.67,43.268 C184.438,42.456 184.012667,41.8373333 183.394,41.412 C182.775333,40.9866667 182.253333,40.484 181.828,39.904 C181.441333,39.8266667 181.064333,39.7203333 180.697,39.585 C180.329667,39.4496667 179.952667,39.324 179.566,39.208 C178.328667,38.8986667 177.110667,38.8116667 175.912,38.947 C174.713333,39.0823333 173.514667,39.1113333 172.316,39.034 C171.349333,39.3433333 170.392333,39.498 169.445,39.498 C168.497667,39.498 167.540667,39.5366667 166.574,39.614 C165.298,39.8073333 164.012333,39.991 162.717,40.165 C161.421667,40.339 160.155333,40.5806667 158.918,40.89 C158.802,40.9286667 158.666667,40.9576667 158.512,40.977 C158.357333,40.9963333 158.222,40.9093333 158.106,40.716 C158.144667,40.252 158.193,39.7686667 158.251,39.266 C158.309,38.7633333 158.396,38.28 158.512,37.816 C159.014667,35.96 159.498,34.1136667 159.962,32.277 C160.426,30.4403333 161.006,28.5746667 161.702,26.68 C162.05,26.5253333 162.369,26.3803333 162.659,26.245 C162.949,26.1096667 163.248667,26.0033333 163.558,25.926 C164.679333,25.7326667 165.781333,25.4523333 166.864,25.085 C167.946667,24.7176667 169.068,24.4373333 170.228,24.244 C171.426667,24.0506667 172.625333,23.7896667 173.824,23.461 C175.022667,23.1323333 176.240667,22.9293333 177.478,22.852 C177.903333,22.852 178.386667,22.794 178.928,22.678 C179.276,22.678 179.662667,22.62 180.088,22.504 C180.281333,22.504 180.494,22.4943333 180.726,22.475 C180.958,22.4556667 181.170667,22.446 181.364,22.446 C181.634667,22.446 181.876333,22.4556667 182.089,22.475 C182.301667,22.4943333 182.504667,22.504 182.698,22.504 C182.93,22.1173333 182.910667,21.7306667 182.64,21.344 C182.253333,20.8413333 181.876333,20.3676667 181.509,19.923 C181.141667,19.4783333 180.803333,19.0433333 180.494,18.618 C179.836667,18.4246667 179.218,18.2796667 178.638,18.183 C178.058,18.0863333 177.458667,18.0766667 176.84,18.154 C176.144,18.1926667 175.428667,18.241 174.694,18.299 C173.959333,18.357 173.244,18.444 172.548,18.56 C171.272,18.7533333 169.976667,18.9563333 168.662,19.169 C167.347333,19.3816667 166.052,19.5846667 164.776,19.778 C164.66,19.778 164.544,19.7973333 164.428,19.836 C164.312,19.8746667 164.176667,19.836 164.022,19.72 C164.060667,19.372 164.118667,19.0046667 164.196,18.618 C164.273333,18.2313333 164.399,17.7383333 164.573,17.139 C164.747,16.5396667 164.988667,15.7953333 165.298,14.906 C165.607333,14.0166667 165.994,12.8953333 166.458,11.542 C166.612667,11.078 166.757667,10.614 166.893,10.15 C167.028333,9.686 167.308667,9.26066667 167.734,8.874 C169.474,8.44866667 171.146333,7.975 172.751,7.453 C174.355667,6.931 176.028,6.496 177.768,6.148 C178.270667,6.07066667 178.763667,5.99333333 179.247,5.916 C179.730333,5.83866667 180.204,5.72266667 180.668,5.568 C181.325333,5.41333333 181.963333,5.278 182.582,5.162 C183.200667,5.046 183.819333,5.02666667 184.438,5.104 C184.631333,4.988 184.805333,4.86233333 184.96,4.727 C185.114667,4.59166667 185.269333,4.48533333 185.424,4.408 C185.965333,4.60133333 186.497,4.756 187.019,4.872 C187.541,4.988 188.053333,5.14266667 188.556,5.336 C188.749333,5.104 188.836333,4.872 188.817,4.64 C188.797667,4.408 188.749333,4.176 188.672,3.944 C188.478667,3.51866667 188.275667,3.103 188.063,2.697 C187.850333,2.291 187.608667,1.87533333 187.338,1.45 C187.222,1.25666667 187.086667,1.09233333 186.932,0.957 C186.777333,0.821666667 186.603333,0.657333333 186.41,0.464 C185.714,0.386666667 185.027667,0.29 184.351,0.174 C183.674333,0.058 182.988,0.0193333333 182.292,0.058 C181.518667,0.058 180.764667,0.087 180.03,0.145 C179.295333,0.203 178.541333,0.251333333 177.768,0.29 C175.989333,0.367333333 174.210667,0.531666667 172.432,0.783 C170.653333,1.03433333 168.874667,1.37266667 167.096,1.798 C166.902667,1.87533333 166.69,1.92366667 166.458,1.943 C166.226,1.96233333 166.032667,1.972 165.878,1.972 C165.53,1.77866667 165.211,1.624 164.921,1.508 C164.631,1.392 164.37,1.25666667 164.138,1.102 C163.480667,1.334 162.958667,1.70133333 162.572,2.204 C162.185333,2.70666667 161.76,3.17066667 161.296,3.596 C160.870667,3.86666667 160.416333,4.118 159.933,4.35 C159.449667,4.582 158.937333,4.83333333 158.396,5.104 C158.086667,5.29733333 157.796667,5.481 157.526,5.655 C157.255333,5.829 157.062,6.10933333 156.946,6.496 C156.868667,6.80533333 156.859,7.076 156.917,7.308 C156.975,7.54 157.062,7.772 157.178,8.004 L157.178,8.004 L157.526,8.7 C157.642,8.932 157.719333,9.164 157.758,9.396 C157.719333,9.47333333 157.680667,9.57 157.642,9.686 C157.603333,9.802 157.564667,9.89866667 157.526,9.976 C156.443333,12.064 155.496,14.1906667 154.684,16.356 C153.872,18.5213333 153.253333,20.764 152.828,23.084 C152.828,23.316 152.77,23.519 152.654,23.693 C152.538,23.867 152.441333,24.0506667 152.364,24.244 C151.706667,24.3986667 151.088,24.592 150.508,24.824 C149.928,25.056 149.483333,25.5393333 149.174,26.274 C149.483333,26.8926667 149.821667,27.4823333 150.189,28.043 C150.556333,28.6036667 151.010667,29.0773333 151.552,29.464 C151.436,30.8173333 151.329667,32.132 151.233,33.408 C151.136333,34.684 151.03,35.9406667 150.914,37.178 C150.836667,38.2993333 150.865667,39.3723333 151.001,40.397 C151.136333,41.4216667 151.494,42.398 152.074,43.326 C152.074,43.5193333 152.035333,43.674 151.958,43.79 C151.958,43.8286667 151.9,43.9253333 151.784,44.08 C151.552,44.08 151.329667,44.0993333 151.117,44.138 C150.904333,44.1766667 150.701333,44.2153333 150.508,44.254 C150.16,44.5246667 149.850667,44.7856667 149.58,45.037 C149.309333,45.2883333 149.116,45.6073333 149,45.994 C149.077333,46.7673333 149.386667,47.2893333 149.928,47.56 C150.469333,47.8306667 150.991333,48.14 151.494,48.488 C151.880667,48.5266667 152.248,48.5653333 152.596,48.604 L152.596,48.604 L153.64,48.72 Z M196.154,47.444 C196.695333,47.676 197.294667,47.7533333 197.952,47.676 C198.261333,47.4826667 198.725333,47.2893333 199.344,47.096 C199.344,47.0573333 199.334333,46.9993333 199.315,46.922 C199.295667,46.8446667 199.305333,46.7673333 199.344,46.69 C199.189333,46.458 199.034667,46.2163333 198.88,45.965 C198.725333,45.7136667 198.570667,45.472 198.416,45.24 C197.952,44.544 197.546,43.79 197.198,42.978 C196.424667,41.1606667 195.786667,39.353 195.284,37.555 C194.781333,35.757 194.220667,33.9106667 193.602,32.016 C193.524667,31.7066667 193.447333,31.349 193.37,30.943 C193.292667,30.537 193.292667,30.1213333 193.37,29.696 C193.834,29.0386667 194.307667,28.3813333 194.791,27.724 C195.274333,27.0666667 195.767333,26.4286667 196.27,25.81 C196.540667,25.462 196.927333,24.9883333 197.43,24.389 C197.932667,23.7896667 198.464333,23.171 199.025,22.533 C199.585667,21.895 200.117333,21.2763333 200.62,20.677 C201.122667,20.0776667 201.49,19.6233333 201.722,19.314 C201.374,18.7726667 200.977667,18.3763333 200.533,18.125 C200.088333,17.8736667 199.382667,17.6706667 198.416,17.516 C198.145333,17.7093333 197.903667,17.9026667 197.691,18.096 C197.478333,18.2893333 197.236667,18.5213333 196.966,18.792 C196.811333,18.908 196.56,19.1883333 196.212,19.633 C195.864,20.0776667 195.506333,20.561 195.139,21.083 C194.771667,21.605 194.414,22.098 194.066,22.562 C193.718,23.026 193.486,23.316 193.37,23.432 C193.138,23.7026667 192.886667,24.0506667 192.616,24.476 C192.345333,24.9013333 192.036,25.1526667 191.688,25.23 C191.494667,24.9593333 191.359333,24.6113333 191.282,24.186 C191.204667,23.7606667 191.117667,23.3256667 191.021,22.881 C190.924333,22.4363333 190.818,22.0013333 190.702,21.576 C190.586,21.1506667 190.392667,20.7833333 190.122,20.474 C189.696667,20.0486667 189.068333,19.662 188.237,19.314 C187.405667,18.966 186.613,18.763 185.859,18.705 C185.105,18.647 184.486333,18.792 184.003,19.14 C183.519667,19.488 183.394,20.126 183.626,21.054 C183.703333,21.3633333 183.848333,21.808 184.061,22.388 C184.273667,22.968 184.505667,23.5866667 184.757,24.244 C185.008333,24.9013333 185.230667,25.5296667 185.424,26.129 C185.617333,26.7283333 185.752667,27.1826667 185.83,27.492 C185.868667,27.8013333 185.965333,28.188 186.12,28.652 C186.274667,29.116 186.439,29.5993333 186.613,30.102 C186.787,30.6046667 186.932,31.1073333 187.048,31.61 C187.164,32.1126667 187.202667,32.5573333 187.164,32.944 C186.893333,33.408 186.526,33.9686667 186.062,34.626 C185.520667,35.6313333 185.027667,36.5013333 184.583,37.236 C184.138333,37.9706667 183.664667,38.8986667 183.162,40.02 C183.046,40.252 182.978333,40.4936667 182.959,40.745 C182.939667,40.9963333 183.046,41.3153333 183.278,41.702 C183.664667,41.8953333 183.964333,41.992 184.177,41.992 C184.389667,41.992 184.747333,42.0886667 185.25,42.282 C185.443333,42.2046667 185.646333,42.1563333 185.859,42.137 C186.071667,42.1176667 186.274667,42.0693333 186.468,41.992 C186.970667,41.3346667 187.367,40.6193333 187.657,39.846 C187.947,39.0726667 188.382,38.3573333 188.962,37.7 C189.039333,37.816 189.136,37.9513333 189.252,38.106 L189.252,38.106 L189.6,38.57 C189.832,39.034 190.044667,39.5076667 190.238,39.991 C190.431333,40.4743333 190.644,40.948 190.876,41.412 C191.417333,42.4173333 191.949,43.3646667 192.471,44.254 C192.993,45.1433333 193.698667,45.9553333 194.588,46.69 C195.090667,46.9606667 195.612667,47.212 196.154,47.444 Z M196.56,62.437 C197.294667,62.727 198.106667,62.814 198.996,62.698 C199.228,62.5433333 199.479333,62.3983333 199.75,62.263 C200.020667,62.1276667 200.272,61.9826667 200.504,61.828 C200.697333,60.7453333 200.91,59.711 201.142,58.725 C201.374,57.739 201.606,56.7626667 201.838,55.796 C202.263333,54.172 202.698333,52.5866667 203.143,51.04 C203.587667,49.4933333 204.022667,47.908 204.448,46.284 C204.641333,45.7426667 204.786333,45.1626667 204.883,44.544 C204.979667,43.9253333 205.105333,43.2293333 205.26,42.456 C205.337333,42.3786667 205.434,42.2336667 205.55,42.021 C205.666,41.8083333 205.801333,41.5473333 205.956,41.238 C206.033333,41.3153333 206.101,41.3636667 206.159,41.383 C206.217,41.4023333 206.284667,41.4506667 206.362,41.528 C207.367333,42.5333333 208.508,43.2486667 209.784,43.674 C211.06,44.0993333 212.432667,44.2346667 213.902,44.08 C214.211333,44.0413333 214.530333,44.0606667 214.859,44.138 C215.187667,44.2153333 215.545333,44.2346667 215.932,44.196 C216.473333,43.848 217.053333,43.5096667 217.672,43.181 C218.290667,42.8523333 218.928667,42.5333333 219.586,42.224 C219.895333,42.0693333 220.572,41.586 221.616,40.774 C222.66,39.962 223.762,39.063 224.922,38.077 C226.082,37.091 227.145333,36.163 228.112,35.293 C229.078667,34.423 229.658667,33.8526667 229.852,33.582 C230.277333,33.002 230.760667,32.4606667 231.302,31.958 C231.843333,31.4553333 232.307333,30.8946667 232.694,30.276 C232.539333,29.928 232.278333,29.58 231.911,29.232 C231.543667,28.884 231.186,28.6713333 230.838,28.594 C230.335333,28.71 229.852,29 229.388,29.464 C229.194667,29.6573333 229.001333,29.8313333 228.808,29.986 C228.614667,30.1406667 228.421333,30.3146667 228.228,30.508 C228.112,30.624 227.744667,31.0106667 227.126,31.668 C226.507333,32.3253333 225.830667,33.0213333 225.096,33.756 C224.361333,34.4906667 223.665333,35.148 223.008,35.728 C222.350667,36.308 221.944667,36.5786667 221.79,36.54 C221.751333,36.4626667 221.712667,36.395 221.674,36.337 C221.635333,36.279 221.635333,36.2113333 221.674,36.134 C221.674,35.8246667 221.732,35.5733333 221.848,35.38 C222.041333,35.032 222.205667,34.8193333 222.341,34.742 C222.476333,34.6646667 222.621333,34.4326667 222.776,34.046 C223.085333,33.6593333 223.182,33.176 223.066,32.596 C223.066,32.48 223.104667,32.3833333 223.182,32.306 C223.414,32.074 223.607333,31.9 223.762,31.784 C223.878,31.2426667 224.032667,30.7883333 224.226,30.421 C224.419333,30.0536667 224.612667,29.5993333 224.806,29.058 C225.038,28.4393333 225.202333,27.9366667 225.299,27.55 C225.395667,27.1633333 225.482667,26.7863333 225.56,26.419 C225.637333,26.0516667 225.695333,25.6553333 225.734,25.23 C225.772667,24.8046667 225.85,24.2633333 225.966,23.606 C226.082,23.0646667 226.082,22.5233333 225.966,21.982 C225.85,21.4406667 225.753333,20.8993333 225.676,20.358 C225.482667,19.6233333 225.096,19.1206667 224.516,18.85 C223.858667,18.5406667 223.24,18.2313333 222.66,17.922 C222.08,17.6126667 221.461333,17.3033333 220.804,16.994 C220.610667,16.9166667 220.388333,16.878 220.137,16.878 C219.885667,16.878 219.663333,16.8586667 219.47,16.82 C219.006,17.1293333 218.561333,17.3903333 218.136,17.603 C217.710667,17.8156667 217.285333,18.0766667 216.86,18.386 C215.12,19.8553333 213.496,21.3633333 211.988,22.91 C211.794667,23.1033333 211.620667,23.2966667 211.466,23.49 C211.311333,23.6833333 211.079333,23.8186667 210.77,23.896 L210.823,23.881 L210.808063,23.638625 C210.800812,23.4307917 210.805646,23.2277917 210.822563,23.029625 L210.857,22.736 C210.915,22.3493333 210.982667,21.9433333 211.06,21.518 C211.330667,20.938 211.292,20.3 210.944,19.604 C210.364,19.0626667 209.745333,18.6083333 209.088,18.241 C208.430667,17.8736667 207.773333,17.516 207.116,17.168 C206.961333,17.0906667 206.806667,17.0326667 206.652,16.994 C206.497333,16.9553333 206.381333,16.9166667 206.304,16.878 C205.956,16.994 205.695,17.1486667 205.521,17.342 C205.347,17.5353333 205.163333,17.7286667 204.97,17.922 C204.196667,18.9273333 203.568333,19.952 203.085,20.996 C202.601667,22.04 202.147333,23.1226667 201.722,24.244 C201.258,25.4813333 200.832667,26.6413333 200.446,27.724 C200.059333,28.8066667 199.692,29.8796667 199.344,30.943 C198.996,32.0063333 198.667333,33.0986667 198.358,34.22 C198.048667,35.3413333 197.739333,36.5593333 197.43,37.874 C196.966,39.962 196.502,42.0016667 196.038,43.993 C195.574,45.9843333 195.148667,48.024 194.762,50.112 C194.568667,51.1173333 194.394667,52.0936667 194.24,53.041 C194.085333,53.9883333 193.95,54.9453333 193.834,55.912 C193.756667,56.5306667 193.708333,57.13 193.689,57.71 C193.669667,58.29 193.66,58.8893333 193.66,59.508 C193.66,59.856 193.718,60.1943333 193.834,60.523 C193.95,60.8516667 194.182,61.2093333 194.53,61.596 C195.148667,61.8666667 195.825333,62.147 196.56,62.437 Z M210.19,40.6 C209.996667,40.4066667 209.784,40.2133333 209.552,40.02 C209.32,39.8266667 209.107333,39.6333333 208.914,39.44 L208.914,39.44 L207.87,38.976 C207.522,38.8213333 207.135333,38.6473333 206.71,38.454 C206.980667,37.758 207.203,37.0426667 207.377,36.308 C207.551,35.5733333 207.889333,34.916 208.392,34.336 C208.624,34.104 208.798,33.843 208.914,33.553 C209.03,33.263 209.184667,32.9633333 209.378,32.654 C209.919333,31.7646667 210.538,30.914 211.234,30.102 C211.93,29.29 212.606667,28.4973333 213.264,27.724 C213.728,27.2213333 214.143667,26.8056667 214.511,26.477 C214.878333,26.1483333 215.255333,25.839 215.642,25.549 C216.028667,25.259 216.415333,24.9593333 216.802,24.65 C217.188667,24.3406667 217.633333,23.954 218.136,23.49 C218.329333,23.3353333 218.493667,23.1806667 218.629,23.026 C218.764333,22.8713333 218.928667,22.7166667 219.122,22.562 C219.354,22.678 219.450667,22.8133333 219.412,22.968 L219.412,22.968 L219.296,23.432 C218.986667,24.3986667 218.696667,25.2686667 218.426,26.042 C218.155333,26.8153333 217.875,27.55 217.585,28.246 C217.295,28.942 216.985667,29.6573333 216.657,30.392 C216.328333,31.1266667 215.951333,31.958 215.526,32.886 C215.216667,33.582 214.868667,34.2683333 214.482,34.945 C214.095333,35.6216667 213.708667,36.3273333 213.322,37.062 C212.742,38.1833333 211.988,39.15 211.06,39.962 C210.944,40.078 210.818333,40.1843333 210.683,40.281 C210.547667,40.3776667 210.383333,40.484 210.19,40.6 Z M235.304,45.153 C236.541333,45.1336667 237.798,44.95 239.074,44.602 C239.344667,44.486 239.692667,44.2926667 240.118,44.022 L240.118,44.022 L241.394,42.862 C241.819333,42.4753333 242.244667,42.0693333 242.67,41.644 C244.874,39.0146667 246.923333,36.2306667 248.818,33.292 C248.972667,33.0986667 249.137,32.8763333 249.311,32.625 C249.485,32.3736667 249.552667,32.1513333 249.514,31.958 C249.475333,31.61 249.533333,31.3393333 249.688,31.146 C249.842667,30.9526667 249.958667,30.74 250.036,30.508 C249.804,30.3146667 249.610667,30.16 249.456,30.044 C249.301333,29.928 249.117667,29.8313333 248.905,29.754 C248.692333,29.6766667 248.441,29.5993333 248.151,29.522 C247.861,29.4446667 247.445333,29.348 246.904,29.232 L246.904,29.232 L246.208,30.276 C245.357333,31.552 244.516333,32.7796667 243.685,33.959 C242.853667,35.1383333 241.954667,36.2886667 240.988,37.41 C240.292,38.222 239.576667,38.9663333 238.842,39.643 C238.107333,40.3196667 237.295333,40.9093333 236.406,41.412 C236.328667,41.4893333 236.019333,41.586 235.478,41.702 C235.478,41.122 235.487667,40.5613333 235.507,40.02 C235.526333,39.4786667 235.574667,38.9373333 235.652,38.396 C235.884,38.164 236.077333,37.99 236.232,37.874 C237.392,36.7913333 238.494,35.6506667 239.538,34.452 C240.582,33.2533333 241.684,32.0933333 242.844,30.972 C243.501333,30.276 243.994333,29.5026667 244.323,28.652 C244.651667,27.8013333 244.951333,26.9313333 245.222,26.042 C245.260667,25.8873333 245.28,25.694 245.28,25.462 L245.28,25.462 L245.28,24.824 C245.086667,23.7026667 244.729,22.707 244.207,21.837 C243.685,20.967 242.882667,20.2613333 241.8,19.72 C240.872,19.2173333 240.021333,18.8113333 239.248,18.502 C238.474667,18.1926667 237.74,18.0476667 237.044,18.067 C236.348,18.0863333 235.661667,18.3376667 234.985,18.821 C234.308333,19.3043333 233.602667,20.0873333 232.868,21.17 C231.630667,23.142 230.644667,25.1816667 229.91,27.289 C229.175333,29.3963333 228.576,31.5713333 228.112,33.814 C227.957333,34.7033333 227.860667,35.6023333 227.822,36.511 C227.783333,37.4196667 227.841333,38.338 227.996,39.266 C228.382667,41.5086667 229.581333,43.152 231.592,44.196 C232.829333,44.8533333 234.066667,45.1723333 235.304,45.153 Z M238.146,29.986 C237.952667,29.87 237.856,29.7733333 237.856,29.696 C237.856,29.3866667 237.865667,29.0676667 237.885,28.739 C237.904333,28.4103333 237.933333,28.072 237.972,27.724 C238.281333,27.4533333 238.532667,27.1633333 238.726,26.854 C238.919333,26.5446667 239.074,26.1966667 239.19,25.81 C239.306,25.3846667 239.470333,24.9786667 239.683,24.592 C239.895667,24.2053333 240.098667,23.838 240.292,23.49 C240.330667,23.374 240.398333,23.2676667 240.495,23.171 C240.591667,23.0743333 240.698,22.968 240.814,22.852 C241.084667,23.3933333 241.191,23.896 241.133,24.36 C241.075,24.824 241.046,25.3073333 241.046,25.81 C240.698,26.6993333 240.272667,27.4726667 239.77,28.13 C239.267333,28.7873333 238.726,29.406 238.146,29.986 Z M248.18,43.79 C248.450667,43.8673333 248.721333,43.877 248.992,43.819 C249.262667,43.761 249.552667,43.6933333 249.862,43.616 C249.784667,43.384 249.717,43.1713333 249.659,42.978 C249.601,42.7846667 249.533333,42.5913333 249.456,42.398 C249.572,42.05 249.668667,41.8373333 249.746,41.76 C249.978,41.6826667 250.181,41.6343333 250.355,41.615 C250.529,41.5956667 250.693333,41.5473333 250.848,41.47 C251.002667,41.1606667 251.215333,40.8706667 251.486,40.6 C252.336667,39.092 253.264667,37.6516667 254.27,36.279 C255.275333,34.9063333 256.319333,33.5626667 257.402,32.248 C257.75,31.8226667 258.088333,31.3973333 258.417,30.972 C258.745667,30.5466667 259.026,30.0053333 259.258,29.348 C259.335333,29.4253333 259.412667,29.464 259.49,29.464 C259.567333,29.464 259.654333,29.4446667 259.751,29.406 C259.847667,29.3673333 259.944333,29.348 260.041,29.348 C260.137667,29.348 260.263333,29.406 260.418,29.522 C260.224667,30.5273333 260.060333,31.5713333 259.925,32.654 C259.789667,33.7366667 259.876667,34.8193333 260.186,35.902 C260.688667,36.25 261.133333,36.54 261.52,36.772 C261.906667,37.004 262.264333,37.1973333 262.593,37.352 C262.921667,37.5066667 263.250333,37.6226667 263.579,37.7 C263.907667,37.7773333 264.304,37.8353333 264.768,37.874 C265.425333,37.7193333 266.169667,37.3423333 267.001,36.743 C267.832333,36.1436667 268.663667,35.467 269.495,34.713 C270.326333,33.959 271.09,33.1856667 271.786,32.393 C272.482,31.6003333 273.042667,30.9333333 273.468,30.392 C273.545333,30.1986667 273.593667,30.0053333 273.613,29.812 C273.632333,29.6186667 273.584,29.3866667 273.468,29.116 C273.390667,29.0773333 273.178,29.0096667 272.83,28.913 C272.482,28.8163333 272.25,28.7293333 272.134,28.652 C271.979333,28.9226667 271.583,29.3673333 270.945,29.986 C270.307,30.6046667 269.630333,31.233 268.915,31.871 C268.199667,32.509 267.523,33.0793333 266.885,33.582 C266.247,34.0846667 265.850667,34.3553333 265.696,34.394 C265.386667,34.4326667 265.232,34.336 265.232,34.104 C265.232,33.872 265.29,33.5723333 265.406,33.205 C265.522,32.8376667 265.676667,32.4606667 265.87,32.074 C266.063333,31.6873333 266.198667,31.3393333 266.276,31.03 C266.585333,30.0246667 266.914,29.0676667 267.262,28.159 C267.61,27.2503333 267.938667,26.332 268.248,25.404 C268.093333,24.9786667 268.035333,24.5436667 268.074,24.099 C268.112667,23.6543333 267.919333,23.2 267.494,22.736 C266.836667,22.388 266.121333,22.0786667 265.348,21.808 C264.574667,21.5373333 263.84,21.2086667 263.144,20.822 C262.950667,20.938 262.767,21.054 262.593,21.17 C262.419,21.286 262.235333,21.4213333 262.042,21.576 C261.926,21.692 261.761667,21.8176667 261.549,21.953 C261.336333,22.0883333 261.133333,22.2526667 260.94,22.446 C260.785333,22.5233333 260.640333,22.6393333 260.505,22.794 C260.369667,22.9486667 260.205333,23.1033333 260.012,23.258 C259.857333,23.374 259.712333,23.49 259.577,23.606 C259.441667,23.722 259.277333,23.8573333 259.084,24.012 C258.890667,24.1666667 258.726333,24.2923333 258.591,24.389 C258.455667,24.4856667 258.33,24.6306667 258.214,24.824 C257.982,25.0173333 257.808,25.1913333 257.692,25.346 C257.576,25.5006667 257.421333,25.6553333 257.228,25.81 C257.034667,25.9646667 256.870333,26.1193333 256.735,26.274 C256.599667,26.4286667 256.474,26.564 256.358,26.68 C256.01,26.912 255.72,27.1826667 255.488,27.492 C255.294667,27.6853333 255.120667,27.869 254.966,28.043 C254.811333,28.217 254.637333,28.3813333 254.444,28.536 C254.328,28.6906667 254.221667,28.8453333 254.125,29 C254.028333,29.1546667 253.825333,29.232 253.516,29.232 C253.438667,28.7293333 253.545,28.2556667 253.835,27.811 C254.125,27.3663333 254.250667,26.912 254.212,26.448 C254.598667,25.984 254.879,25.4716667 255.053,24.911 C255.227,24.3503333 255.391333,23.7993333 255.546,23.258 C255.778,22.7553333 255.681333,22.272 255.256,21.808 C254.598667,21.3826667 253.893,21.054 253.139,20.822 C252.385,20.59 251.640667,20.3 250.906,19.952 C250.712667,19.8746667 250.558,19.8553333 250.442,19.894 C250.326,19.9326667 250.171333,19.952 249.978,19.952 C249.591333,20.3386667 249.282,20.7156667 249.05,21.083 C248.818,21.4503333 248.605333,21.8466667 248.412,22.272 C247.832,23.432 247.358333,24.65 246.991,25.926 C246.623667,27.202 246.304667,28.4973333 246.034,29.812 C245.802,30.8946667 245.589333,31.9676667 245.396,33.031 C245.202667,34.0943333 245.009333,35.1866667 244.816,36.308 C244.738667,37.0813333 244.651667,37.8643333 244.555,38.657 C244.458333,39.4496667 244.506667,40.194 244.7,40.89 C245.009333,41.7793333 245.473333,42.4463333 246.092,42.891 C246.710667,43.3356667 247.406667,43.6353333 248.18,43.79 Z M279.268,18.676 C279.732,18.5986667 280.167,18.5213333 280.573,18.444 C280.979,18.3666667 281.336667,18.1153333 281.646,17.69 C281.646,17.4966667 281.655667,17.2646667 281.675,16.994 C281.694333,16.7233333 281.723333,16.4526667 281.762,16.182 C281.220667,15.5246667 280.592333,15.051 279.877,14.761 C279.161667,14.471 278.456,14.1133333 277.76,13.688 C277.102667,14.152 276.619333,14.7513333 276.31,15.486 L276.31,15.486 L276.426,16.066 C276.464667,16.2593333 276.484,16.4526667 276.484,16.646 C276.909333,17.11 277.325,17.516 277.731,17.864 C278.137,18.212 278.649333,18.4826667 279.268,18.676 Z M271.786,43.877 C272.636667,44.0896667 273.564667,44.138 274.57,44.022 C274.879333,43.7126667 275.179,43.413 275.469,43.123 C275.759,42.833 276.039333,42.5333333 276.31,42.224 C276.735333,41.5666667 277.228333,40.9576667 277.789,40.397 C278.349667,39.8363333 278.784667,39.1886667 279.094,38.454 C279.132667,38.3766667 279.181,38.3283333 279.239,38.309 C279.297,38.2896667 279.364667,38.2413333 279.442,38.164 C279.712667,37.8933333 280.08,37.468 280.544,36.888 C281.008,36.308 281.491333,35.699 281.994,35.061 C282.496667,34.423 282.970333,33.814 283.415,33.234 C283.859667,32.654 284.236667,32.2093333 284.546,31.9 C284.855333,31.5133333 285.106667,31.1846667 285.3,30.914 C285.106667,30.6433333 284.923,30.3533333 284.749,30.044 C284.575,29.7346667 284.391333,29.4253333 284.198,29.116 C283.927333,29.0386667 283.598667,28.9226667 283.212,28.768 C282.709333,29.2706667 282.148667,29.928 281.53,30.74 C280.911333,31.552 280.273333,32.393 279.616,33.263 C278.958667,34.133 278.320667,34.9836667 277.702,35.815 C277.083333,36.6463333 276.522667,37.3133333 276.02,37.816 C275.981333,37.004 276.097333,36.2886667 276.368,35.67 C276.638667,35.0513333 276.870667,34.4713333 277.064,33.93 C277.257333,33.3113333 277.441,32.712 277.615,32.132 C277.789,31.552 277.972667,30.9526667 278.166,30.334 C278.359333,29.6766667 278.562333,29.058 278.775,28.478 C278.987667,27.898 279.152,27.2793333 279.268,26.622 C279.384,25.9646667 279.616,25.3556667 279.964,24.795 C280.312,24.2343333 280.486,23.5673333 280.486,22.794 C280.408667,22.7166667 280.331333,22.6103333 280.254,22.475 C280.176667,22.3396667 280.099333,22.214 280.022,22.098 C279.596667,21.9046667 279.21,21.7113333 278.862,21.518 C278.514,21.3246667 278.127333,21.1313333 277.702,20.938 C277.547333,20.8606667 277.383,20.8026667 277.209,20.764 C277.035,20.7253333 276.851333,20.6673333 276.658,20.59 C276.348667,20.6673333 276.049,20.7543333 275.759,20.851 C275.469,20.9476667 275.15,21.054 274.802,21.17 C274.454,21.634 274.183333,22.098 273.99,22.562 C272.791333,24.8046667 271.902,26.97 271.322,29.058 C270.819333,30.7593333 270.374667,32.451 269.988,34.133 C269.601333,35.815 269.311333,37.526 269.118,39.266 C269.079333,39.846 269.079333,40.4066667 269.118,40.948 C269.156667,41.4893333 269.292,42.0306667 269.524,42.572 C270.181333,43.2293333 270.935333,43.6643333 271.786,43.877 Z M288.954,45.153 C290.191333,45.1336667 291.448,44.95 292.724,44.602 C292.994667,44.486 293.342667,44.2926667 293.768,44.022 L293.768,44.022 L295.044,42.862 C295.469333,42.4753333 295.894667,42.0693333 296.32,41.644 C298.524,39.0146667 300.573333,36.2306667 302.468,33.292 C302.622667,33.0986667 302.787,32.8763333 302.961,32.625 C303.135,32.3736667 303.202667,32.1513333 303.164,31.958 C303.125333,31.61 303.183333,31.3393333 303.338,31.146 C303.492667,30.9526667 303.608667,30.74 303.686,30.508 C303.454,30.3146667 303.260667,30.16 303.106,30.044 C302.951333,29.928 302.767667,29.8313333 302.555,29.754 C302.342333,29.6766667 302.091,29.5993333 301.801,29.522 C301.511,29.4446667 301.095333,29.348 300.554,29.232 L300.554,29.232 L299.858,30.276 C299.007333,31.552 298.166333,32.7796667 297.335,33.959 C296.503667,35.1383333 295.604667,36.2886667 294.638,37.41 C293.942,38.222 293.226667,38.9663333 292.492,39.643 C291.757333,40.3196667 290.945333,40.9093333 290.056,41.412 C289.978667,41.4893333 289.669333,41.586 289.128,41.702 C289.128,41.122 289.137667,40.5613333 289.157,40.02 C289.176333,39.4786667 289.224667,38.9373333 289.302,38.396 C289.534,38.164 289.727333,37.99 289.882,37.874 C291.042,36.7913333 292.144,35.6506667 293.188,34.452 C294.232,33.2533333 295.334,32.0933333 296.494,30.972 C297.151333,30.276 297.644333,29.5026667 297.973,28.652 C298.301667,27.8013333 298.601333,26.9313333 298.872,26.042 C298.910667,25.8873333 298.93,25.694 298.93,25.462 L298.93,25.462 L298.93,24.824 C298.736667,23.7026667 298.379,22.707 297.857,21.837 C297.335,20.967 296.532667,20.2613333 295.45,19.72 C294.522,19.2173333 293.671333,18.8113333 292.898,18.502 C292.124667,18.1926667 291.39,18.0476667 290.694,18.067 C289.998,18.0863333 289.311667,18.3376667 288.635,18.821 C287.958333,19.3043333 287.252667,20.0873333 286.518,21.17 C285.280667,23.142 284.294667,25.1816667 283.56,27.289 C282.825333,29.3963333 282.226,31.5713333 281.762,33.814 C281.607333,34.7033333 281.510667,35.6023333 281.472,36.511 C281.433333,37.4196667 281.491333,38.338 281.646,39.266 C282.032667,41.5086667 283.231333,43.152 285.242,44.196 C286.479333,44.8533333 287.716667,45.1723333 288.954,45.153 Z M291.796,29.986 C291.602667,29.87 291.506,29.7733333 291.506,29.696 C291.506,29.3866667 291.515667,29.0676667 291.535,28.739 C291.554333,28.4103333 291.583333,28.072 291.622,27.724 C291.931333,27.4533333 292.182667,27.1633333 292.376,26.854 C292.569333,26.5446667 292.724,26.1966667 292.84,25.81 C292.956,25.3846667 293.120333,24.9786667 293.333,24.592 C293.545667,24.2053333 293.748667,23.838 293.942,23.49 C293.980667,23.374 294.048333,23.2676667 294.145,23.171 C294.241667,23.0743333 294.348,22.968 294.464,22.852 C294.734667,23.3933333 294.841,23.896 294.783,24.36 C294.725,24.824 294.696,25.3073333 294.696,25.81 C294.348,26.6993333 293.922667,27.4726667 293.42,28.13 C292.917333,28.7873333 292.376,29.406 291.796,29.986 Z M323.928,45.066 C323.953778,45.0402222 323.978481,45.0155185 324.002111,44.9918889 L324.131,44.863 C324.189,44.805 324.237333,44.7373333 324.276,44.66 C324.430667,44.312 324.614333,44.08 324.827,43.964 C325.039667,43.848 325.262,43.7513333 325.494,43.674 C325.726,43.5966667 325.958,43.5096667 326.19,43.413 C326.422,43.3163333 326.654,43.1133333 326.886,42.804 C327.079333,42.5333333 327.446667,42.0403333 327.988,41.325 C328.529333,40.6096667 329.119,39.8556667 329.757,39.063 C330.395,38.2703333 330.984667,37.5163333 331.526,36.801 C332.067333,36.0856667 332.434667,35.5926667 332.628,35.322 C332.976,34.8193333 333.324,34.336 333.672,33.872 C334.02,33.408 334.426,32.9633333 334.89,32.538 C335.392667,32.1513333 335.586,31.61 335.47,30.914 C335.47,30.8753333 335.431333,30.74 335.354,30.508 C335.276667,30.392 335.18,30.276 335.064,30.16 C334.948,30.044 334.851333,29.928 334.774,29.812 C334.387333,29.8506667 334.039333,29.8796667 333.73,29.899 C333.420667,29.9183333 333.072667,29.9473333 332.686,29.986 C332.492667,30.1793333 332.289667,30.3726667 332.077,30.566 C331.864333,30.7593333 331.661333,30.9526667 331.468,31.146 C331.274667,31.378 331.081333,31.61 330.888,31.842 C330.694667,32.074 330.501333,32.306 330.308,32.538 C330.153333,32.7313333 329.834333,33.1373333 329.351,33.756 C328.867667,34.3746667 328.336,35.032 327.756,35.728 C327.176,36.424 326.625,37.0523333 326.103,37.613 C325.581,38.1736667 325.204,38.4926667 324.972,38.57 C325.049333,38.222 325.146,37.758 325.262,37.178 C325.378,36.598 325.503667,35.9986667 325.639,35.38 C325.774333,34.7613333 325.9,34.162 326.016,33.582 C326.132,33.002 326.228667,32.5573333 326.306,32.248 C326.538,31.668 326.741,31.0783333 326.915,30.479 C327.089,29.8796667 327.272667,29.29 327.466,28.71 C327.736667,28.0913333 327.968667,27.4726667 328.162,26.854 C328.355333,26.2353333 328.568,25.5973333 328.8,24.94 C328.838667,24.6306667 328.877333,24.3213333 328.916,24.012 C328.954667,23.7026667 328.974,23.3836667 328.974,23.055 C328.974,22.7263333 328.906333,22.3976667 328.771,22.069 C328.635667,21.7403333 328.413333,21.4213333 328.104,21.112 C327.369333,20.9186667 326.596,20.706 325.784,20.474 C324.972,20.242 324.16,20.0293333 323.348,19.836 C323.232,19.7973333 323.106333,19.7876667 322.971,19.807 C322.835667,19.8263333 322.729333,19.836 322.652,19.836 C321.994667,20.3773333 321.347,20.8993333 320.709,21.402 C320.071,21.9046667 319.442667,22.4266667 318.824,22.968 C315.846667,25.52 313.062667,28.188 310.472,30.972 C310.278667,31.1653333 310.075667,31.3296667 309.863,31.465 C309.650333,31.6003333 309.447333,31.7646667 309.254,31.958 C309.176667,32.0353333 309.128333,32.103 309.109,32.161 C309.089667,32.219 309.060667,32.248 309.022,32.248 C308.751333,32.248 308.79,32.132 309.138,31.9 C309.099333,31.3973333 309.157333,30.856 309.312,30.276 C309.853333,28.9226667 310.278667,27.5403333 310.588,26.129 C310.897333,24.7176667 311.206667,23.2773333 311.516,21.808 C311.554667,21.6146667 311.564333,21.431 311.545,21.257 C311.525667,21.083 311.516,20.8993333 311.516,20.706 C311.361333,20.5126667 311.197,20.3193333 311.023,20.126 C310.849,19.9326667 310.704,19.7586667 310.588,19.604 C309.853333,19.3333333 309.186333,19.1013333 308.587,18.908 C307.987667,18.7146667 307.378667,18.5213333 306.76,18.328 C306.566667,18.2506667 306.334667,18.2023333 306.064,18.183 C305.793333,18.1636667 305.503333,18.2313333 305.194,18.386 C305.078,18.502 304.942667,18.6373333 304.788,18.792 C304.633333,18.9466667 304.498,19.1206667 304.382,19.314 C303.995333,19.8166667 303.686,20.3193333 303.454,20.822 C302.912667,21.9046667 302.419667,22.9776667 301.975,24.041 C301.530333,25.1043333 301.172667,26.216 300.902,27.376 C300.476667,29.116 300.080333,30.8173333 299.713,32.48 C299.345667,34.1426667 299.046,35.844 298.814,37.584 C298.736667,38.4733333 298.707667,39.3143333 298.727,40.107 C298.746333,40.8996667 298.891333,41.6826667 299.162,42.456 C299.432667,42.8426667 299.761333,43.1326667 300.148,43.326 C300.534667,43.5193333 300.931,43.674 301.337,43.79 C301.743,43.906 302.149,44.0123333 302.555,44.109 C302.961,44.2056667 303.357333,44.3313333 303.744,44.486 C303.937333,44.37 304.121,44.254 304.295,44.138 C304.469,44.022 304.652667,43.9253333 304.846,43.848 C305.039333,43.7706667 305.223,43.7126667 305.397,43.674 C305.571,43.6353333 305.735333,43.5773333 305.89,43.5 C305.967333,43.3453333 306.025333,43.1906667 306.064,43.036 C306.102667,42.8813333 306.160667,42.7073333 306.238,42.514 C306.47,42.4366667 306.731,42.3496667 307.021,42.253 C307.311,42.1563333 307.610667,42.05 307.92,41.934 C308.074667,41.818 308.248667,41.6923333 308.442,41.557 C308.635333,41.4216667 308.770667,41.2573333 308.848,41.064 C309.505333,40.252 310.162667,39.4303333 310.82,38.599 C311.477333,37.7676667 312.134667,36.946 312.792,36.134 C312.985333,35.9406667 313.159333,35.7473333 313.314,35.554 C313.468667,35.3606667 313.642667,35.1673333 313.836,34.974 C314.416,34.278 315.005667,33.5916667 315.605,32.915 C316.204333,32.2383333 316.832667,31.5713333 317.49,30.914 C317.49,30.8753333 317.548,30.856 317.664,30.856 C317.818667,31.0493333 317.886333,31.2813333 317.867,31.552 C317.847667,31.8226667 317.818667,32.0546667 317.78,32.248 C317.702667,33.176 317.615667,34.0846667 317.519,34.974 C317.422333,35.8633333 317.335333,36.714 317.258,37.526 C317.180667,38.222 317.2,38.8406667 317.316,39.382 C317.393333,40.0393333 317.499667,40.7063333 317.635,41.383 C317.770333,42.0596667 317.876667,42.7073333 317.954,43.326 C318.456667,43.906 319.007667,44.2733333 319.607,44.428 C320.206333,44.5826667 320.815333,44.718 321.434,44.834 C321.859333,44.9113333 322.275,44.9596667 322.681,44.979 C323.087,44.9983333 323.502667,45.0273333 323.928,45.066 Z M337.616,44.399 C338.505333,44.4183333 339.394667,44.2926667 340.284,44.022 C340.709333,43.7126667 341.134667,43.4226667 341.56,43.152 C341.985333,42.8813333 342.410667,42.572 342.836,42.224 C342.913333,42.1466667 342.990667,42.079 343.068,42.021 C343.145333,41.963 343.222667,41.876 343.3,41.76 C343.532,41.4506667 343.754333,41.122 343.967,40.774 C344.179667,40.426 344.421333,40.0586667 344.692,39.672 C344.769333,39.4786667 344.866,39.3433333 344.982,39.266 C345.098,39.1886667 345.194667,39.092 345.272,38.976 C345.542667,38.5506667 345.842333,38.1833333 346.171,37.874 C346.499667,37.5646667 346.809,37.2553333 347.099,36.946 C347.389,36.6366667 347.65,36.308 347.882,35.96 C348.114,35.612 348.268667,35.1866667 348.346,34.684 C348.539333,34.4133333 348.752,34.1813333 348.984,33.988 C349.216,33.7946667 349.448,33.5626667 349.68,33.292 C349.912,32.5186667 350.250333,31.7936667 350.695,31.117 C351.139667,30.4403333 351.439333,29.6573333 351.594,28.768 C351.168667,28.42 350.695,28.1783333 350.173,28.043 C349.651,27.9076667 349.138667,27.7626667 348.636,27.608 C348.288,27.9173333 348.017333,28.275 347.824,28.681 C347.630667,29.087 347.437333,29.4446667 347.244,29.754 C346.896,30.45 346.470667,31.146 345.968,31.842 C345.465333,32.538 344.943333,33.2243333 344.402,33.901 C343.860667,34.5776667 343.309667,35.235 342.749,35.873 C342.188333,36.511 341.676,37.12 341.212,37.7 C340.786667,38.2026667 340.390333,38.686 340.023,39.15 C339.655667,39.614 339.201333,40.0586667 338.66,40.484 C338.582667,40.3293333 338.505333,40.2326667 338.428,40.194 C338.350667,40.1553333 338.312,40.0973333 338.312,40.02 C338.389333,39.208 338.447333,38.4056667 338.486,37.613 C338.524667,36.8203333 338.621333,36.0373333 338.776,35.264 C338.892,34.6453333 338.979,34.0846667 339.037,33.582 C339.095,33.0793333 339.162667,32.596 339.24,32.132 C339.317333,31.668 339.423667,31.1846667 339.559,30.682 C339.694333,30.1793333 339.878,29.6186667 340.11,29 C340.419333,28.2266667 340.680333,27.492 340.893,26.796 C341.105667,26.1 341.192667,25.3846667 341.154,24.65 C341.463333,24.2246667 341.782333,23.8186667 342.111,23.432 C342.439667,23.0453333 342.739333,22.6586667 343.01,22.272 C343.59,22.4653333 344.150667,22.6586667 344.692,22.852 L344.692,22.852 L346.316,23.432 C346.625333,23.316 346.799333,23.0936667 346.838,22.765 C346.876667,22.4363333 347.050667,22.214 347.36,22.098 C347.36,21.634 347.389,21.2086667 347.447,20.822 C347.505,20.4353333 347.524333,20.0873333 347.505,19.778 C347.485667,19.4686667 347.398667,19.1593333 347.244,18.85 C347.089333,18.5406667 346.818667,18.212 346.432,17.864 C346.2,17.7866667 345.919667,17.7093333 345.591,17.632 C345.262333,17.5546667 344.885333,17.4773333 344.46,17.4 C343.996,17.284 343.532,17.1873333 343.068,17.11 C342.604,17.0326667 342.159333,16.8973333 341.734,16.704 C341.038,16.472 340.342,16.3463333 339.646,16.327 C338.95,16.3076667 338.273333,16.3753333 337.616,16.53 C337.190667,16.8393333 336.842667,17.0906667 336.572,17.284 C336.301333,17.4773333 336.069333,17.6803333 335.876,17.893 C335.682667,18.1056667 335.499,18.3376667 335.325,18.589 C335.151,18.8403333 334.967333,19.1593333 334.774,19.546 C334.464667,20.1646667 334.165,20.8026667 333.875,21.46 C333.585,22.1173333 333.304667,22.7746667 333.034,23.432 C332.686,24.5533333 332.405667,25.5876667 332.193,26.535 C331.980333,27.4823333 331.806333,28.4296667 331.671,29.377 C331.535667,30.3243333 331.429333,31.291 331.352,32.277 C331.274667,33.263 331.236,34.3553333 331.236,35.554 C331.197333,36.2113333 331.216667,36.859 331.294,37.497 C331.371333,38.135 331.506667,38.802 331.7,39.498 C331.893333,40.6193333 332.260667,41.5183333 332.802,42.195 C333.343333,42.8716667 334.058667,43.384 334.948,43.732 C335.837333,44.1573333 336.726667,44.3796667 337.616,44.399 Z M353.972,45.153 C355.209333,45.1336667 356.466,44.95 357.742,44.602 C358.012667,44.486 358.360667,44.2926667 358.786,44.022 L358.786,44.022 L360.062,42.862 C360.487333,42.4753333 360.912667,42.0693333 361.338,41.644 C363.542,39.0146667 365.591333,36.2306667 367.486,33.292 C367.640667,33.0986667 367.805,32.8763333 367.979,32.625 C368.153,32.3736667 368.220667,32.1513333 368.182,31.958 C368.143333,31.61 368.201333,31.3393333 368.356,31.146 C368.510667,30.9526667 368.626667,30.74 368.704,30.508 C368.472,30.3146667 368.278667,30.16 368.124,30.044 C367.969333,29.928 367.785667,29.8313333 367.573,29.754 C367.360333,29.6766667 367.109,29.5993333 366.819,29.522 C366.529,29.4446667 366.113333,29.348 365.572,29.232 L365.572,29.232 L364.876,30.276 C364.025333,31.552 363.184333,32.7796667 362.353,33.959 C361.521667,35.1383333 360.622667,36.2886667 359.656,37.41 C358.96,38.222 358.244667,38.9663333 357.51,39.643 C356.775333,40.3196667 355.963333,40.9093333 355.074,41.412 C354.996667,41.4893333 354.687333,41.586 354.146,41.702 C354.146,41.122 354.155667,40.5613333 354.175,40.02 C354.194333,39.4786667 354.242667,38.9373333 354.32,38.396 C354.552,38.164 354.745333,37.99 354.9,37.874 C356.06,36.7913333 357.162,35.6506667 358.206,34.452 C359.25,33.2533333 360.352,32.0933333 361.512,30.972 C362.169333,30.276 362.662333,29.5026667 362.991,28.652 C363.319667,27.8013333 363.619333,26.9313333 363.89,26.042 C363.928667,25.8873333 363.948,25.694 363.948,25.462 L363.948,25.462 L363.948,24.824 C363.754667,23.7026667 363.397,22.707 362.875,21.837 C362.353,20.967 361.550667,20.2613333 360.468,19.72 C359.54,19.2173333 358.689333,18.8113333 357.916,18.502 C357.142667,18.1926667 356.408,18.0476667 355.712,18.067 C355.016,18.0863333 354.329667,18.3376667 353.653,18.821 C352.976333,19.3043333 352.270667,20.0873333 351.536,21.17 C350.298667,23.142 349.312667,25.1816667 348.578,27.289 C347.843333,29.3963333 347.244,31.5713333 346.78,33.814 C346.625333,34.7033333 346.528667,35.6023333 346.49,36.511 C346.451333,37.4196667 346.509333,38.338 346.664,39.266 C347.050667,41.5086667 348.249333,43.152 350.26,44.196 C351.497333,44.8533333 352.734667,45.1723333 353.972,45.153 Z M356.814,29.986 C356.620667,29.87 356.524,29.7733333 356.524,29.696 C356.524,29.3866667 356.533667,29.0676667 356.553,28.739 C356.572333,28.4103333 356.601333,28.072 356.64,27.724 C356.949333,27.4533333 357.200667,27.1633333 357.394,26.854 C357.587333,26.5446667 357.742,26.1966667 357.858,25.81 C357.974,25.3846667 358.138333,24.9786667 358.351,24.592 C358.563667,24.2053333 358.766667,23.838 358.96,23.49 C358.998667,23.374 359.066333,23.2676667 359.163,23.171 C359.259667,23.0743333 359.366,22.968 359.482,22.852 C359.752667,23.3933333 359.859,23.896 359.801,24.36 C359.743,24.824 359.714,25.3073333 359.714,25.81 C359.366,26.6993333 358.940667,27.4726667 358.438,28.13 C357.935333,28.7873333 357.394,29.406 356.814,29.986 Z M388.424,43.674 C389.12,43.8673333 389.854667,43.8093333 390.628,43.5 C390.396,42.7653333 390.260667,42.2433333 390.222,41.934 C390.183333,41.6246667 390.222,41.2186667 390.338,40.716 C390.454,40.0586667 390.608667,39.3626667 390.802,38.628 C391.034,38.0866667 391.208,37.5066667 391.324,36.888 C391.44,36.2693333 391.672,35.67 392.02,35.09 C392.213333,35.0513333 392.377667,35.0126667 392.513,34.974 C392.648333,34.9353333 392.812667,34.916 393.006,34.916 C393.199333,34.916 393.354,34.8386667 393.47,34.684 C393.586,34.5293333 393.740667,34.5486667 393.934,34.742 C393.779333,35.9793333 393.644,37.1973333 393.528,38.396 C393.412,39.5946667 393.315333,40.8126667 393.238,42.05 C393.895333,42.8233333 394.63,43.268 395.442,43.384 C396.254,43.5 397.104667,43.4226667 397.994,43.152 C398.032667,43.0746667 398.052,43.0166667 398.052,42.978 C398.052,42.9393333 398.071333,42.8813333 398.11,42.804 C398.380667,41.5666667 398.651333,40.3486667 398.922,39.15 C399.192667,37.9513333 399.463333,36.7333333 399.734,35.496 C399.811333,35.3026667 399.879,35.119 399.937,34.945 C399.995,34.771 400.159333,34.626 400.43,34.51 C401.203333,34.6646667 401.976667,34.7903333 402.75,34.887 C403.523333,34.9836667 404.316,34.916 405.128,34.684 C405.746667,34.8773333 406.355667,35.0126667 406.955,35.09 C407.554333,35.1673333 408.163333,35.1093333 408.782,34.916 C408.782,34.8 408.801333,34.684 408.84,34.568 C408.878667,34.452 408.859333,34.3553333 408.782,34.278 C408.588667,33.814 408.385667,33.3693333 408.173,32.944 C407.960333,32.5186667 407.757333,32.0933333 407.564,31.668 C407.138667,31.4746667 406.732667,31.349 406.346,31.291 C405.959333,31.233 405.572667,31.1846667 405.186,31.146 C404.838,31.1073333 404.499667,31.088 404.171,31.088 L404.171,31.088 L403.214,31.088 C402.866,31.088 402.537333,31.059 402.228,31.001 C401.918667,30.943 401.648,30.7786667 401.416,30.508 C401.261333,29.9666667 401.396667,29.58 401.822,29.348 L401.822,29.348 L403.098,29.348 C403.523333,29.348 403.929333,29.3866667 404.316,29.464 C404.741333,29.58 405.118333,29.5703333 405.447,29.435 C405.775667,29.2996667 406.152667,29.3093333 406.578,29.464 C406.887333,29.6186667 407.245,29.6863333 407.651,29.667 C408.057,29.6476667 408.472667,29.638 408.898,29.638 C409.168667,29.5993333 409.429667,29.551 409.681,29.493 C409.932333,29.435 410.212667,29.3866667 410.522,29.348 C410.483333,28.768 410.357667,28.2363333 410.145,27.753 C409.932333,27.2696667 409.690667,26.8153333 409.42,26.39 C408.878667,26.274 408.327667,26.1966667 407.767,26.158 C407.206333,26.1193333 406.655333,26.0903333 406.114,26.071 C405.572667,26.0516667 405.021667,26.0226667 404.461,25.984 C403.900333,25.9453333 403.33,25.8293333 402.75,25.636 C402.982,24.9013333 403.214,24.2053333 403.446,23.548 C403.678,22.8906667 404.064667,22.272 404.606,21.692 C404.49,21.576 404.393333,21.46 404.316,21.344 C404.238667,21.228 404.122667,21.1506667 403.968,21.112 C403.272,20.8026667 402.585667,20.532 401.909,20.3 C401.232333,20.068 400.507333,19.8746667 399.734,19.72 C399.27,20.1066667 398.873667,20.5416667 398.545,21.025 C398.216333,21.5083333 397.926333,22.011 397.675,22.533 C397.423667,23.055 397.191667,23.5866667 396.979,24.128 C396.766333,24.6693333 396.524667,25.1913333 396.254,25.694 C396.099333,25.7326667 395.935,25.7713333 395.761,25.81 C395.587,25.8486667 395.403333,25.9066667 395.21,25.984 C394.978,25.8293333 394.842667,25.752 394.804,25.752 C395.113333,24.9786667 395.413,24.2536667 395.703,23.577 C395.993,22.9003333 396.292667,22.2333333 396.602,21.576 C396.679333,21.3826667 396.708333,21.17 396.689,20.938 C396.669667,20.706 396.563333,20.4353333 396.37,20.126 C395.79,19.7393333 395.142333,19.4686667 394.427,19.314 C393.711667,19.1593333 393.025333,19.0433333 392.368,18.966 C391.749333,19.314 391.304667,19.7586667 391.034,20.3 C390.879333,20.5706667 390.744,20.8413333 390.628,21.112 C390.512,21.3826667 390.396,21.634 390.28,21.866 L390.28,21.866 L389.352,23.722 C389.042667,24.3406667 388.752667,24.9786667 388.482,25.636 C387.592667,25.7133333 386.751667,25.7713333 385.959,25.81 C385.166333,25.8486667 384.344667,25.9066667 383.494,25.984 C382.643333,26.0613333 381.947333,26.332 381.406,26.796 C381.483333,27.5693333 381.638,28.2073333 381.87,28.71 C382.102,29.2126667 382.624,29.8506667 383.436,30.624 C383.010667,30.7013333 382.585333,30.7883333 382.16,30.885 C381.734667,30.9816667 381.309333,31.0686667 380.884,31.146 C380.768,31.2233333 380.642333,31.3103333 380.507,31.407 C380.371667,31.5036667 380.226667,31.5906667 380.072,31.668 C380.226667,32.6733333 380.584333,33.466 381.145,34.046 C381.705667,34.626 382.392,35.1093333 383.204,35.496 C383.629333,35.4186667 384.054667,35.38 384.48,35.38 C384.905333,35.38 385.311333,35.4766667 385.698,35.67 L385.698,35.67 L385.698,36.975 C385.698,37.4196667 385.659333,37.8546667 385.582,38.28 C385.504667,38.5506667 385.446667,38.8116667 385.408,39.063 C385.369333,39.3143333 385.35,39.6526667 385.35,40.078 C385.504667,40.5033333 385.659333,40.9383333 385.814,41.383 C385.968667,41.8276667 386.104,42.2626667 386.22,42.688 C386.993333,43.152 387.728,43.4806667 388.424,43.674 Z M394.832739,31.2095769 C394.397957,31.3642436 393.224043,31.0549103 391.311,30.2815769 C392.876217,28.8895769 394.876217,28.5029103 397.311,29.1215769 C396.093609,30.3589103 395.267522,31.0549103 394.832739,31.2095769 Z M417.163,49.213 C418.033,49.503 418.970667,49.474 419.976,49.126 C420.246667,48.894 420.488333,48.6523333 420.701,48.401 C420.913667,48.1496667 421.116667,47.8886667 421.31,47.618 C421.31,47.502 421.329333,47.386 421.368,47.27 C421.406667,47.154 421.426,47.038 421.426,46.922 C421.774,46.6513333 422.015667,46.3033333 422.151,45.878 C422.286333,45.4526667 422.508667,45.0466667 422.818,44.66 C423.05,44.2733333 423.233667,43.8673333 423.369,43.442 C423.504333,43.0166667 423.668667,42.5913333 423.862,42.166 C424.248667,41.354 424.442,40.4453333 424.442,39.44 C425.679333,38.0093333 426.704,36.3853333 427.516,34.568 C427.554667,34.336 427.593333,34.0943333 427.632,33.843 C427.670667,33.5916667 427.709333,33.3113333 427.748,33.002 C427.902667,32.886 428.047667,32.7796667 428.183,32.683 C428.318333,32.5863333 428.424667,32.4993333 428.502,32.422 C429.004667,31.61 429.488,30.8076667 429.952,30.015 C430.416,29.2223333 430.88,28.4393333 431.344,27.666 C431.846667,26.8926667 432.339667,26.1193333 432.823,25.346 C433.306333,24.5726667 433.760667,23.7993333 434.186,23.026 C434.727333,22.2526667 435.23,21.489 435.694,20.735 C436.158,19.981 436.757333,19.2366667 437.492,18.502 C436.370667,22.7553333 435.297667,26.9506667 434.273,31.088 C433.248333,35.2253333 432.465333,39.4593333 431.924,43.79 C432.697333,44.7953333 433.577,45.3656667 434.563,45.501 C435.549,45.6363333 436.564,45.6073333 437.608,45.414 C437.956,44.9113333 438.246,44.5053333 438.478,44.196 C438.555333,43.8866667 438.594,43.6063333 438.594,43.355 C438.594,43.1036667 438.613333,42.8813333 438.652,42.688 C438.652,42.6493333 438.71,42.572 438.826,42.456 C438.942,42.3786667 439.077333,42.2916667 439.232,42.195 C439.386667,42.0983333 439.522,42.0113333 439.638,41.934 C439.638,41.5086667 439.541333,41.2283333 439.348,41.093 C439.154667,40.9576667 438.961333,40.832 438.768,40.716 C438.613333,40.6386667 438.487667,40.5613333 438.391,40.484 C438.294333,40.4066667 438.304,40.2326667 438.42,39.962 C438.922667,39.9233333 439.435,39.8556667 439.957,39.759 C440.479,39.6623333 440.952667,39.4593333 441.378,39.15 C441.571333,38.7246667 441.687333,38.4443333 441.726,38.309 C441.764667,38.1736667 441.764667,37.8933333 441.726,37.468 C441.726,37.3906667 441.735667,37.3133333 441.755,37.236 C441.774333,37.1586667 441.784,37.0813333 441.784,37.004 C442.016,36.8493333 442.248,36.7333333 442.48,36.656 C442.712,36.5786667 442.924667,36.4626667 443.118,36.308 C443.272667,35.7666667 443.495,35.3413333 443.785,35.032 C444.075,34.7226667 444.355333,34.3553333 444.626,33.93 C444.858,33.5046667 445.128667,33.1083333 445.438,32.741 C445.747333,32.3736667 446.056667,31.9773333 446.366,31.552 C446.675333,31.1266667 446.975,30.7013333 447.265,30.276 C447.555,29.8506667 447.854667,29.4253333 448.164,29 C448.473333,28.6133333 448.763333,28.217 449.034,27.811 C449.304667,27.405 449.594667,27.028 449.904,26.68 C450.406667,25.8293333 451.006,25.114 451.702,24.534 C451.818,24.766 451.876,24.9206667 451.876,24.998 C451.566667,26.5446667 451.276667,28.0623333 451.006,29.551 C450.735333,31.0396667 450.445333,32.5573333 450.136,34.104 C450.02,34.9933333 449.913667,35.8826667 449.817,36.772 C449.720333,37.6613333 449.633333,38.5506667 449.556,39.44 C449.478667,40.1746667 449.488333,40.89 449.585,41.586 C449.681667,42.282 449.826667,42.978 450.02,43.674 C450.136,44.5246667 450.464667,45.182 451.006,45.646 C451.547333,46.1873333 452.079,46.6996667 452.601,47.183 C453.123,47.6663333 453.770667,48.0433333 454.544,48.314 C454.66,48.314 454.805,48.2946667 454.979,48.256 C455.153,48.2173333 455.336667,48.198 455.53,48.198 C455.646,48.198 455.791,48.2366667 455.965,48.314 C456.139,48.3913333 456.322667,48.314 456.516,48.082 C456.477333,47.734 456.438667,47.3666667 456.4,46.98 C456.361333,46.5933333 456.322667,46.1293333 456.284,45.588 C456.4,44.6986667 456.564333,43.7706667 456.777,42.804 C456.989667,41.8373333 457.154,40.832 457.27,39.788 C457.347333,39.208 457.473,38.6473333 457.647,38.106 C457.821,37.5646667 458.004667,37.004 458.198,36.424 C458.546,34.684 459.029333,33.0116667 459.648,31.407 C460.266667,29.8023333 460.788667,28.13 461.214,26.39 C461.600667,25.7713333 461.842333,25.1236667 461.939,24.447 C462.035667,23.7703333 462.122667,23.084 462.2,22.388 C462.664,21.8466667 463.050667,21.2666667 463.36,20.648 C463.669333,20.0293333 463.920667,19.3913333 464.114,18.734 C464.423333,17.8446667 464.732667,16.936 465.042,16.008 C465.351333,15.08 465.699333,14.1713333 466.086,13.282 C466.434,12.4313333 466.753,11.5903333 467.043,10.759 C467.333,9.92766667 467.574667,9.02866667 467.768,8.062 C467.690667,7.86866667 467.632667,7.70433333 467.594,7.569 C467.555333,7.43366667 467.497333,7.26933333 467.42,7.076 C467.342667,6.88266667 467.255667,6.699 467.159,6.525 C467.062333,6.351 466.994667,6.206 466.956,6.09 C466.028,5.31666667 465.293333,4.70766667 464.752,4.263 C464.210667,3.81833333 463.737,3.48 463.331,3.248 C462.925,3.016 462.548,2.842 462.2,2.726 C461.852,2.61 461.446,2.51333333 460.982,2.436 C460.788667,2.62933333 460.605,2.79366667 460.431,2.929 C460.257,3.06433333 460.073333,3.22866667 459.88,3.422 C459.686667,3.73133333 459.483667,4.05033333 459.271,4.379 C459.058333,4.70766667 458.855333,5.02666667 458.662,5.336 C458.352667,6.032 457.946667,6.66033333 457.444,7.221 C456.941333,7.78166667 456.438667,8.33266667 455.936,8.874 C455.433333,9.41533333 454.921,9.95666667 454.399,10.498 C453.877,11.0393333 453.403333,11.6 452.978,12.18 C452.514,12.6826667 452.069333,13.195 451.644,13.717 C451.218667,14.239 450.774,14.7706667 450.31,15.312 C449.420667,16.4333333 448.531333,17.5353333 447.642,18.618 L447.642,18.618 L444.974,21.866 C444.742,22.1366667 444.529333,22.417 444.336,22.707 C444.142667,22.997 443.872,23.1806667 443.524,23.258 L443.635,23.228 L443.633556,23.1871111 C443.629259,23.126963 443.622815,23.068963 443.614222,23.0131111 L443.582,22.852 C443.543333,22.6973333 443.562667,22.562 443.64,22.446 C443.949333,21.286 444.278,20.1453333 444.626,19.024 L444.626,19.024 L445.67,15.66 C446.056667,14.5 446.395,13.3206667 446.685,12.122 C446.975,10.9233333 447.274667,9.70533333 447.584,8.468 C447.777333,7.656 447.777333,6.97933333 447.584,6.438 C447.274667,5.66466667 446.752667,5.162 446.018,4.93 C445.592667,4.85266667 445.235,4.70766667 444.945,4.495 C444.655,4.28233333 444.355333,4.02133333 444.046,3.712 C443.93,3.55733333 443.794667,3.44133333 443.64,3.364 C443.485333,3.28666667 443.311333,3.17066667 443.118,3.016 C442.924667,3.20933333 442.721667,3.38333333 442.509,3.538 C442.296333,3.69266667 442.093333,3.84733333 441.9,4.002 C441.242667,4.77533333 440.575667,5.55833333 439.899,6.351 C439.222333,7.14366667 438.574667,7.98466667 437.956,8.874 C436.718667,10.498 435.52,12.1413333 434.36,13.804 C433.2,15.4666667 432.04,17.168 430.88,18.908 C429.449333,20.996 428.086333,23.142 426.791,25.346 C425.495667,27.55 424.287333,29.812 423.166,32.132 C423.011333,32.2093333 422.837333,32.364 422.644,32.596 C422.644,32.016 422.663333,31.6293333 422.702,31.436 C422.895333,30.74 423.069333,30.0536667 423.224,29.377 C423.378667,28.7003333 423.533333,28.014 423.688,27.318 C424.113333,25.8486667 424.529,24.389 424.935,22.939 C425.341,21.489 425.756667,20.0293333 426.182,18.56 C426.452667,17.7866667 426.675,17.0036667 426.849,16.211 C427.023,15.4183333 427.129333,14.5773333 427.168,13.688 C427.593333,13.3013333 427.931667,12.8663333 428.183,12.383 C428.434333,11.8996667 428.647,11.397 428.821,10.875 C428.995,10.353 429.14,9.82133333 429.256,9.28 C429.372,8.73866667 429.526667,8.19733333 429.72,7.656 C429.681333,7.46266667 429.662,7.25966667 429.662,7.047 C429.662,6.83433333 429.642667,6.63133333 429.604,6.438 C429.797333,6.36066667 429.981,6.30266667 430.155,6.264 C430.329,6.22533333 430.551333,6.16733333 430.822,6.09 C430.938,5.58733333 431.179667,5.133 431.547,4.727 C431.914333,4.321 432.078667,3.78933333 432.04,3.132 C431.808,2.47466667 431.421333,2.001 430.88,1.711 C430.338667,1.421 429.855333,1.06333333 429.43,0.638 C428.811333,0.0966666667 428.115333,-0.0966666667 427.342,0.058 C426.684667,0.29 426.104667,0.705666667 425.602,1.305 C425.099333,1.90433333 424.635333,2.53266667 424.21,3.19 C423.552667,4.234 422.953333,5.307 422.412,6.409 C421.870667,7.511 421.348667,8.62266667 420.846,9.744 C419.260667,13.3786667 417.984667,17.11 417.018,20.938 C416.399333,23.374 415.887,25.8003333 415.481,28.217 C415.075,30.6336667 414.717333,33.0986667 414.408,35.612 C414.214667,36.7333333 414.089,37.8546667 414.031,38.976 C413.973,40.0973333 413.905333,41.2186667 413.828,42.34 C413.750667,43.268 413.77,44.1766667 413.886,45.066 C414.002,45.9553333 414.253333,46.8446667 414.64,47.734 C415.452,48.43 416.293,48.923 417.163,49.213 Z M467.275,60.755 C468.222333,61.045 469.256667,60.9966667 470.378,60.61 C470.687333,60.4166667 471.045,60.1653333 471.451,59.856 C471.857,59.5466667 472.176,59.1793333 472.408,58.754 C472.833333,58.2126667 473.229667,57.6906667 473.597,57.188 C473.964333,56.6853333 474.283333,56.1246667 474.554,55.506 C474.631333,55.3513333 474.718333,55.1966667 474.815,55.042 C474.911667,54.8873333 474.998667,54.7133333 475.076,54.52 C475.385333,53.8626667 475.714,53.2246667 476.062,52.606 C476.41,51.9873333 476.758,51.3493333 477.106,50.692 C477.183333,50.3826667 477.241333,50.0636667 477.28,49.735 C477.318667,49.4063333 477.376667,49.0293333 477.454,48.604 C477.608667,48.2946667 477.802,47.9466667 478.034,47.56 C478.266,47.1733333 478.536667,46.748 478.846,46.284 C478.884667,46.0906667 478.904,45.8876667 478.904,45.675 C478.904,45.4623333 478.923333,45.2593333 478.962,45.066 C479.735333,44.4086667 480.18,43.5386667 480.296,42.456 C480.296,42.0693333 480.431333,41.7406667 480.702,41.47 C480.934,41.0446667 481.108,40.6193333 481.224,40.194 C481.610667,38.8793333 482.016667,37.5743333 482.442,36.279 C482.867333,34.9836667 483.254,33.6593333 483.602,32.306 C483.911333,31.0686667 484.220667,29.8216667 484.53,28.565 C484.839333,27.3083333 485.090667,26.0613333 485.284,24.824 C485.361333,24.012 485.419333,23.229 485.458,22.475 C485.496667,21.721 485.361333,20.9766667 485.052,20.242 C485.090667,19.9326667 485.11,19.691 485.11,19.517 C485.11,19.343 485.148667,19.14 485.226,18.908 C484.646,18.6373333 484.114333,18.3473333 483.631,18.038 C483.147667,17.7286667 482.596667,17.516 481.978,17.4 L481.978,17.4 L480.702,18.212 C480.276667,18.4826667 479.967333,18.8886667 479.774,19.43 C479.580667,20.0486667 479.319667,20.619 478.991,21.141 C478.662333,21.663 478.304667,22.156 477.918,22.62 C477.492667,23.2773333 477.038333,23.9346667 476.555,24.592 C476.071667,25.2493333 475.578667,25.926 475.076,26.622 C474.341333,27.5886667 473.626,28.5166667 472.93,29.406 C472.234,30.2953333 471.518667,31.1846667 470.784,32.074 C470.590667,32.2286667 470.416667,32.364 470.262,32.48 C470.107333,32.596 469.914,32.7506667 469.682,32.944 C469.759333,30.972 469.981667,29.145 470.349,27.463 C470.716333,25.781 471.074,24.1086667 471.422,22.446 C471.344667,22.1366667 471.238333,21.8563333 471.103,21.605 C470.967667,21.3536667 470.745333,21.1506667 470.436,20.996 L470.436,20.996 L468.58,19.836 C467.961333,19.4493333 467.342667,19.082 466.724,18.734 C466.298667,18.8886667 465.979667,19.082 465.767,19.314 C465.554333,19.546 465.370667,19.8166667 465.216,20.126 C465.1,20.3193333 465.003333,20.532 464.926,20.764 L464.926,20.764 L464.694,21.46 C463.688667,24.0506667 462.896,26.7186667 462.316,29.464 C462.122667,30.4306667 461.968,31.4166667 461.852,32.422 C461.736,33.4273333 461.832667,34.4326667 462.142,35.438 C462.335333,36.018 462.586667,36.54 462.896,37.004 C463.205333,37.468 463.592,37.816 464.056,38.048 C465.525333,38.86 466.975333,39.2853333 468.406,39.324 C468.831333,39.2853333 469.218,39.2466667 469.566,39.208 C469.914,39.1693333 470.242667,39.1113333 470.552,39.034 C470.861333,38.8406667 471.083667,38.6956667 471.219,38.599 C471.354333,38.5023333 471.518667,38.3766667 471.712,38.222 C471.866667,38.106 472.011667,37.9996667 472.147,37.903 C472.282333,37.8063333 472.388667,37.7 472.466,37.584 C472.659333,37.468 472.833333,37.323 472.988,37.149 C473.142667,36.975 473.297333,36.83 473.452,36.714 C473.606667,36.598 473.713,36.4433333 473.771,36.25 C473.829,36.0566667 473.993333,35.9793333 474.264,36.018 C474.341333,36.2113333 474.370333,36.3853333 474.351,36.54 C474.331667,36.6946667 474.283333,36.8493333 474.206,37.004 C473.780667,38.0866667 473.345667,39.1306667 472.901,40.136 C472.456333,41.1413333 472.021333,42.2046667 471.596,43.326 C471.402667,43.9446667 471.180333,44.5633333 470.929,45.182 C470.677667,45.8006667 470.397333,46.4386667 470.088,47.096 C469.546667,48.4493333 468.995667,49.8316667 468.435,51.243 C467.874333,52.6543333 467.265333,54.0753333 466.608,55.506 C466.337333,56.0473333 466.076333,56.5596667 465.825,57.043 C465.573667,57.5263333 465.254667,57.9806667 464.868,58.406 C464.752,58.5993333 464.636,58.8023333 464.52,59.015 C464.404,59.2276667 464.404,59.45 464.52,59.682 C465.409333,60.1073333 466.327667,60.465 467.275,60.755 Z M510.601,44.863 C510.659,44.805 510.707333,44.7373333 510.746,44.66 C510.900667,44.312 511.084333,44.08 511.297,43.964 C511.509667,43.848 511.732,43.7513333 511.964,43.674 C512.196,43.5966667 512.428,43.5096667 512.66,43.413 C512.892,43.3163333 513.124,43.1133333 513.356,42.804 C513.549333,42.5333333 513.916667,42.0403333 514.458,41.325 C514.999333,40.6096667 515.589,39.8556667 516.227,39.063 C516.865,38.2703333 517.454667,37.5163333 517.996,36.801 C518.537333,36.0856667 518.904667,35.5926667 519.098,35.322 C519.446,34.8193333 519.794,34.336 520.142,33.872 C520.49,33.408 520.896,32.9633333 521.36,32.538 C521.862667,32.1513333 522.056,31.61 521.94,30.914 C521.94,30.8753333 521.901333,30.74 521.824,30.508 C521.746667,30.392 521.65,30.276 521.534,30.16 C521.418,30.044 521.321333,29.928 521.244,29.812 C520.857333,29.8506667 520.509333,29.8796667 520.2,29.899 C519.890667,29.9183333 519.542667,29.9473333 519.156,29.986 C518.962667,30.1793333 518.759667,30.3726667 518.547,30.566 C518.334333,30.7593333 518.131333,30.9526667 517.938,31.146 L516.778,32.538 C516.623333,32.7313333 516.304333,33.1373333 515.821,33.756 C515.337667,34.3746667 514.806,35.032 514.226,35.728 C513.646,36.424 513.095,37.0523333 512.573,37.613 C512.051,38.1736667 511.674,38.4926667 511.442,38.57 C511.519333,38.222 511.616,37.758 511.732,37.178 C511.848,36.598 511.973667,35.9986667 512.109,35.38 C512.244333,34.7613333 512.37,34.162 512.486,33.582 C512.602,33.002 512.698667,32.5573333 512.776,32.248 C513.008,31.668 513.211,31.0783333 513.385,30.479 C513.559,29.8796667 513.742667,29.29 513.936,28.71 C514.206667,28.0913333 514.438667,27.4726667 514.632,26.854 C514.825333,26.2353333 515.038,25.5973333 515.27,24.94 L515.386,24.012 C515.424667,23.7026667 515.444,23.3836667 515.444,23.055 C515.444,22.7263333 515.376333,22.3976667 515.241,22.069 C515.105667,21.7403333 514.883333,21.4213333 514.574,21.112 C513.839333,20.9186667 513.066,20.706 512.254,20.474 C511.442,20.242 510.63,20.0293333 509.818,19.836 C509.702,19.7973333 509.576333,19.7876667 509.441,19.807 C509.305667,19.8263333 509.199333,19.836 509.122,19.836 C508.464667,20.3773333 507.817,20.8993333 507.179,21.402 C506.541,21.9046667 505.912667,22.4266667 505.294,22.968 C502.316667,25.52 499.532667,28.188 496.942,30.972 C496.748667,31.1653333 496.545667,31.3296667 496.333,31.465 C496.120333,31.6003333 495.627333,30.856 495.782,30.276 C496.323333,28.9226667 496.748667,27.5403333 497.058,26.129 C497.367333,24.7176667 497.676667,23.2773333 497.986,21.808 C498.024667,21.6146667 498.034333,21.431 498.015,21.257 C497.995667,21.083 497.986,20.8993333 497.986,20.706 C497.831333,20.5126667 497.667,20.3193333 497.493,20.126 C497.319,19.9326667 497.174,19.7586667 497.058,19.604 C496.323333,19.3333333 495.656333,19.1013333 495.057,18.908 C494.457667,18.7146667 493.848667,18.5213333 493.23,18.328 C493.036667,18.2506667 492.804667,18.2023333 492.534,18.183 C492.263333,18.1636667 491.973333,18.2313333 491.664,18.386 L491.258,18.792 C491.103333,18.9466667 490.968,19.1206667 490.852,19.314 C490.465333,19.8166667 490.156,20.3193333 489.924,20.822 C489.382667,21.9046667 488.889667,22.9776667 488.445,24.041 C488.000333,25.1043333 487.642667,26.216 487.372,27.376 C486.946667,29.116 486.550333,30.8173333 486.183,32.48 C485.815667,34.1426667 485.516,35.844 485.284,37.584 C485.206667,38.4733333 485.177667,39.3143333 485.197,40.107 C485.216333,40.8996667 485.361333,41.6826667 485.632,42.456 C485.902667,42.8426667 486.231333,43.1326667 486.618,43.326 C487.004667,43.5193333 487.401,43.674 487.807,43.79 C488.213,43.906 488.619,44.0123333 489.025,44.109 C489.431,44.2056667 489.827333,44.3313333 490.214,44.486 C490.407333,44.37 490.591,44.254 490.765,44.138 C490.939,44.022 491.122667,43.9253333 491.316,43.848 C491.509333,43.7706667 491.693,43.7126667 491.867,43.674 C492.041,43.6353333 492.205333,43.5773333 492.36,43.5 C492.437333,43.3453333 492.495333,43.1906667 492.534,43.036 C492.572667,42.8813333 492.630667,42.7073333 492.708,42.514 C492.94,42.4366667 493.201,42.3496667 493.491,42.253 C493.781,42.1563333 494.080667,42.05 494.39,41.934 C494.544667,41.818 494.718667,41.6923333 494.912,41.557 C495.105333,41.4216667 495.240667,41.2573333 495.318,41.064 C495.975333,40.252 496.632667,39.4303333 497.29,38.599 C497.947333,37.7676667 498.604667,36.946 499.262,36.134 C499.455333,35.9406667 499.629333,35.7473333 499.784,35.554 C499.938667,35.3606667 500.112667,35.1673333 500.306,34.974 C500.886,34.278 501.475667,33.5916667 502.075,32.915 C502.674333,32.2383333 503.302667,31.5713333 503.96,30.914 C503.96,30.8753333 504.018,30.856 504.134,30.856 C504.288667,31.0493333 504.356333,31.2813333 504.337,31.552 C504.317667,31.8226667 504.288667,32.0546667 504.25,32.248 C504.172667,33.176 504.085667,34.0846667 503.989,34.974 C503.892333,35.8633333 503.805333,36.714 503.728,37.526 C503.650667,38.222 503.67,38.8406667 503.786,39.382 C503.863333,40.0393333 503.969667,40.7063333 504.105,41.383 C504.240333,42.0596667 504.346667,42.7073333 504.424,43.326 C504.926667,43.906 505.477667,44.2733333 506.077,44.428 C506.676333,44.5826667 507.285333,44.718 507.904,44.834 C508.329333,44.9113333 508.745,44.9596667 509.151,44.979 C509.557,44.9983333 509.972667,45.0273333 510.398,45.066 L510.601,44.863 Z M521.534,44.544 C521.882,44.4666667 522.210667,44.3893333 522.52,44.312 C522.829333,44.2346667 523.138667,44.138 523.448,44.022 C523.525333,43.2873333 523.602667,42.6106667 523.68,41.992 C523.757333,41.3733333 523.854,40.774 523.97,40.194 C524.124667,39.5366667 524.231,38.8696667 524.289,38.193 C524.347,37.5163333 524.472667,36.8493333 524.666,36.192 C524.936667,35.3413333 525.139667,34.4423333 525.275,33.495 C525.410333,32.5476667 525.574667,31.61 525.768,30.682 C526,29.6766667 526.203,28.7003333 526.377,27.753 C526.551,26.8056667 526.773333,25.8293333 527.044,24.824 C527.430667,23.4706667 527.778667,22.0883333 528.088,20.677 C528.397333,19.2656667 528.726,17.8446667 529.074,16.414 C529.151333,16.1046667 529.228667,15.8146667 529.306,15.544 L529.538,14.732 C529.615333,14.5386667 529.721667,14.3356667 529.857,14.123 C529.992333,13.9103333 530.118,13.7073333 530.234,13.514 C530.427333,13.5526667 530.601333,13.5816667 530.756,13.601 C530.910667,13.6203333 531.084667,13.6106667 531.278,13.572 C531.935333,13.4946667 532.573333,13.3883333 533.192,13.253 C533.810667,13.1176667 534.448667,12.992 535.106,12.876 C536.227333,12.6826667 537.329333,12.499 538.412,12.325 C539.494667,12.151 540.596667,12.064 541.718,12.064 C542.104667,12.064 542.481667,12.035 542.849,11.977 C543.216333,11.919 543.612667,11.7353333 544.038,11.426 C543.844667,10.7686667 543.574,10.208 543.226,9.744 C542.878,9.28 542.510667,8.79666667 542.124,8.294 C541.776,8.294 541.418333,8.28433333 541.051,8.265 C540.683667,8.24566667 540.326,8.25533333 539.978,8.294 C539.63,8.294 539.282,8.30366667 538.934,8.323 C538.586,8.34233333 538.218667,8.37133333 537.832,8.41 C537.484,8.44866667 537.155333,8.47766667 536.846,8.497 C536.536667,8.51633333 536.188667,8.54533333 535.802,8.584 C535.144667,8.7 534.429333,8.758 533.656,8.758 C533.346667,8.758 533.027667,8.83533333 532.699,8.99 C532.370333,9.14466667 532.012667,9.164 531.626,9.048 C531.587333,8.62266667 531.558333,8.21666667 531.539,7.83 C531.519667,7.44333333 531.51,7.05666667 531.51,6.67 C531.316667,6.47666667 531.152333,6.25433333 531.017,6.003 C530.881667,5.75166667 530.717333,5.54866667 530.524,5.394 C529.944,4.89133333 529.354333,4.42733333 528.755,4.002 C528.155667,3.57666667 527.585333,3.11266667 527.044,2.61 C526.773333,2.80333333 526.560667,2.96766667 526.406,3.103 C526.251333,3.23833333 526.125667,3.364 526.029,3.48 C525.932333,3.596 525.845333,3.73133333 525.768,3.886 C525.690667,4.04066667 525.594,4.234 525.478,4.466 C525.13,5.23933333 524.801333,5.98366667 524.492,6.699 C524.182667,7.41433333 523.854,8.15866667 523.506,8.932 C523.39,9.24133333 523.274,9.541 523.158,9.831 C523.042,10.121 522.906667,10.4206667 522.752,10.73 C521.824,10.9233333 520.905667,11.107 519.997,11.281 C519.088333,11.455 518.189333,11.6386667 517.3,11.832 C516.681333,12.0253333 516.072333,12.209 515.473,12.383 C514.873667,12.557 514.264667,12.7406667 513.646,12.934 C513.414,13.05 513.191667,13.2143333 512.979,13.427 C512.766333,13.6396667 512.66,13.978 512.66,14.442 C512.930667,15.0606667 513.259333,15.5826667 513.646,16.008 C514.032667,16.4333333 514.438667,16.8006667 514.864,17.11 C515.289333,17.1873333 515.685667,17.284 516.053,17.4 C516.420333,17.516 516.816667,17.4773333 517.242,17.284 C517.783333,17.0133333 518.324667,16.791 518.866,16.617 C519.407333,16.443 519.948667,16.1046667 520.49,15.602 C520.528667,15.5633333 520.577,15.5536667 520.635,15.573 C520.693,15.5923333 520.78,15.5826667 520.896,15.544 C520.973333,15.6213333 521.041,15.7083333 521.099,15.805 C521.157,15.9016667 521.224667,15.9886667 521.302,16.066 L521.128,17.11 C520.818667,18.5793333 520.499667,20.068 520.171,21.576 C519.842333,23.084 519.562,24.592 519.33,26.1 C518.982,27.84 518.711333,29.551 518.518,31.233 C518.324667,32.915 518.131333,34.6066667 517.938,36.308 C517.822,37.3906667 517.802667,38.454 517.88,39.498 C517.957333,40.542 518.054,41.5666667 518.17,42.572 C518.75,42.9973333 519.320333,43.384 519.881,43.732 C520.441667,44.08 520.992667,44.3506667 521.534,44.544 Z M531.22,43.79 C531.490667,43.8673333 531.761333,43.877 532.032,43.819 C532.302667,43.761 532.592667,43.6933333 532.902,43.616 C532.824667,43.384 532.757,43.1713333 532.699,42.978 C532.641,42.7846667 532.573333,42.5913333 532.496,42.398 C532.612,42.05 532.708667,41.8373333 532.786,41.76 C533.018,41.6826667 533.221,41.6343333 533.395,41.615 C533.569,41.5956667 533.733333,41.5473333 533.888,41.47 C534.042667,41.1606667 534.255333,40.8706667 534.526,40.6 C535.376667,39.092 536.304667,37.6516667 537.31,36.279 C538.315333,34.9063333 539.359333,33.5626667 540.442,32.248 C540.79,31.8226667 541.128333,31.3973333 541.457,30.972 C541.785667,30.5466667 542.066,30.0053333 542.298,29.348 C542.375333,29.4253333 542.452667,29.464 542.53,29.464 C542.607333,29.464 542.694333,29.4446667 542.791,29.406 C542.887667,29.3673333 542.984333,29.348 543.081,29.348 C543.177667,29.348 543.303333,29.406 543.458,29.522 C543.264667,30.5273333 543.100333,31.5713333 542.965,32.654 C542.829667,33.7366667 542.916667,34.8193333 543.226,35.902 C543.728667,36.25 544.173333,36.54 544.56,36.772 C544.946667,37.004 545.304333,37.1973333 545.633,37.352 C545.961667,37.5066667 546.290333,37.6226667 546.619,37.7 C546.947667,37.7773333 547.344,37.8353333 547.808,37.874 C548.465333,37.7193333 549.209667,37.3423333 550.041,36.743 C550.872333,36.1436667 551.703667,35.467 552.535,34.713 C553.366333,33.959 554.13,33.1856667 554.826,32.393 C555.522,31.6003333 556.082667,30.9333333 556.508,30.392 C556.585333,30.1986667 556.633667,30.0053333 556.653,29.812 C556.672333,29.6186667 556.624,29.3866667 556.508,29.116 C556.430667,29.0773333 556.218,29.0096667 555.87,28.913 C555.522,28.8163333 555.29,28.7293333 555.174,28.652 C555.019333,28.9226667 554.623,29.3673333 553.985,29.986 C553.347,30.6046667 552.670333,31.233 551.955,31.871 C551.239667,32.509 550.563,33.0793333 549.925,33.582 C549.287,34.0846667 548.890667,34.3553333 548.736,34.394 C548.426667,34.4326667 548.272,34.336 548.272,34.104 C548.272,33.872 548.33,33.5723333 548.446,33.205 C548.562,32.8376667 548.716667,32.4606667 548.91,32.074 C549.103333,31.6873333 549.238667,31.3393333 549.316,31.03 C549.625333,30.0246667 549.954,29.0676667 550.302,28.159 C550.65,27.2503333 550.978667,26.332 551.288,25.404 C551.133333,24.9786667 551.075333,24.5436667 551.114,24.099 C551.152667,23.6543333 550.959333,23.2 550.534,22.736 C549.876667,22.388 549.161333,22.0786667 548.388,21.808 C547.614667,21.5373333 546.88,21.2086667 546.184,20.822 C545.990667,20.938 545.807,21.054 545.633,21.17 C545.459,21.286 545.275333,21.4213333 545.082,21.576 C544.966,21.692 544.801667,21.8176667 544.589,21.953 C544.376333,22.0883333 544.173333,22.2526667 543.98,22.446 C543.825333,22.5233333 543.680333,22.6393333 543.545,22.794 C543.409667,22.9486667 543.245333,23.1033333 543.052,23.258 C542.897333,23.374 542.752333,23.49 542.617,23.606 C542.481667,23.722 542.317333,23.8573333 542.124,24.012 C541.930667,24.1666667 541.766333,24.2923333 541.631,24.389 C541.495667,24.4856667 541.37,24.6306667 541.254,24.824 C541.022,25.0173333 540.848,25.1913333 540.732,25.346 C540.616,25.5006667 540.461333,25.6553333 540.268,25.81 C540.074667,25.9646667 539.910333,26.1193333 539.775,26.274 C539.639667,26.4286667 539.514,26.564 539.398,26.68 C539.05,26.912 538.76,27.1826667 538.528,27.492 C538.334667,27.6853333 538.160667,27.869 538.006,28.043 C537.851333,28.217 537.677333,28.3813333 537.484,28.536 C537.368,28.6906667 537.261667,28.8453333 537.165,29 C537.068333,29.1546667 536.865333,29.232 536.556,29.232 C536.478667,28.7293333 536.585,28.2556667 536.875,27.811 L536.976047,27.6437969 C537.193849,27.252599 537.285833,26.854 537.252,26.448 C537.638667,25.984 537.919,25.4716667 538.093,24.911 C538.267,24.3503333 538.431333,23.7993333 538.586,23.258 C538.818,22.7553333 538.721333,22.272 538.296,21.808 C537.638667,21.3826667 536.933,21.054 536.179,20.822 C535.425,20.59 534.680667,20.3 533.946,19.952 C533.752667,19.8746667 533.598,19.8553333 533.482,19.894 C533.366,19.9326667 533.211333,19.952 533.018,19.952 C532.631333,20.3386667 532.322,20.7156667 532.09,21.083 C531.858,21.4503333 531.645333,21.8466667 531.452,22.272 C530.872,23.432 530.398333,24.65 530.031,25.926 C529.663667,27.202 529.344667,28.4973333 529.074,29.812 C528.842,30.8946667 528.629333,31.9676667 528.436,33.031 C528.242667,34.0943333 528.049333,35.1866667 527.856,36.308 C527.778667,37.0813333 527.691667,37.8643333 527.595,38.657 C527.498333,39.4496667 527.546667,40.194 527.74,40.89 C528.049333,41.7793333 528.513333,42.4463333 529.132,42.891 C529.750667,43.3356667 530.446667,43.6353333 531.22,43.79 Z M568.053043,44.3766286 L568.34,44.37 C568.649333,44.2926667 568.949,44.196 569.239,44.08 C569.529,43.964 569.828667,43.848 570.138,43.732 C570.988667,42.2626667 571.926333,40.832 572.951,39.44 C573.975667,38.048 575.106667,36.6753333 576.344,35.322 C576.846667,34.742 577.33,34.1716667 577.794,33.611 C578.258,33.0503333 578.702667,32.4413333 579.128,31.784 C578.702667,31.5133333 578.267667,31.32 577.823,31.204 C577.378333,31.088 576.924,30.972 576.46,30.856 C575.416,31.8226667 574.517,32.8666667 573.763,33.988 C573.009,35.1093333 572.245333,36.2306667 571.472,37.352 C571.278667,37.1586667 571.191667,36.9653333 571.211,36.772 C571.230333,36.5786667 571.278667,36.4046667 571.356,36.25 C571.549333,35.3606667 571.752333,34.4906667 571.965,33.64 C572.177667,32.7893333 572.361333,31.9193333 572.516,31.03 C572.748,30.1406667 572.970333,29.261 573.183,28.391 C573.395667,27.521 573.618,26.622 573.85,25.694 C573.966,25.1526667 574.091667,24.621 574.227,24.099 C574.362333,23.577 574.488,23.0453333 574.604,22.504 C574.410667,22.272 574.227,22.069 574.053,21.895 C573.879,21.721 573.695333,21.5373333 573.502,21.344 C573.424667,21.1893333 573.328,20.938 573.212,20.59 C572.786667,20.4353333 572.361333,20.3096667 571.936,20.213 C571.510667,20.1163333 571.085333,20.01 570.66,19.894 C570.505333,20.01 570.350667,20.1066667 570.196,20.184 C570.041333,20.2613333 569.867333,20.358 569.674,20.474 C569.132667,20.2806667 568.697667,20.0003333 568.369,19.633 C568.040333,19.2656667 567.605333,19.0046667 567.064,18.85 C566.754667,18.8113333 566.455,18.7726667 566.165,18.734 C565.875,18.6953333 565.672,18.6566667 565.556,18.618 C563.932,18.8113333 562.559333,19.256 561.438,19.952 C560.316667,20.648 559.311333,21.4986667 558.422,22.504 C558.112667,22.7746667 557.880667,23.055 557.726,23.345 C557.571333,23.635 557.339333,23.9346667 557.03,24.244 C556.488667,24.7853333 556.063333,25.3363333 555.754,25.897 C555.444667,26.4576667 555.135333,27.0473333 554.826,27.666 C554.207333,28.7873333 553.675667,29.957 553.231,31.175 C552.786333,32.393 552.467333,33.64 552.274,34.916 C552.080667,35.7666667 551.974333,36.627 551.955,37.497 C551.935667,38.367 552.138667,39.2466667 552.564,40.136 C553.414667,41.1026667 554.391,41.7116667 555.493,41.963 C556.595,42.2143333 557.706667,42.2046667 558.828,41.934 C559.446667,41.702 559.978333,41.4216667 560.423,41.093 C560.867667,40.7643333 561.264,40.4066667 561.612,40.02 C561.96,39.6333333 562.288667,39.237 562.598,38.831 C562.907333,38.425 563.236,38.0286667 563.584,37.642 C563.622667,38.0673333 563.642,38.4926667 563.642,38.918 L563.642,38.918 L563.642,40.194 C563.642,40.6193333 563.671,41.0253333 563.729,41.412 C563.787,41.7986667 563.912667,42.1853333 564.106,42.572 C565.188667,43.848 566.6,44.4473333 568.34,44.37 L568.053043,44.3766286 Z M557.552,38.744 C557.436,38.5893333 557.378,38.4926667 557.378,38.454 C557.455333,38.0673333 557.523,37.7 557.581,37.352 C557.639,37.004 557.706667,36.6366667 557.784,36.25 C558.132,35.09 558.528333,33.93 558.973,32.77 C559.417667,31.61 559.910667,30.4886667 560.452,29.406 C560.916,28.478 561.496,27.5983333 562.192,26.767 C562.888,25.9356667 563.661333,25.1913333 564.512,24.534 C564.821333,24.186 565.169333,23.8766667 565.556,23.606 C565.749333,23.606 565.962,23.519 566.194,23.345 C566.426,23.171 566.716,23.142 567.064,23.258 L567.048,23.254 L567.031778,23.3127778 C567.023185,23.3492963 567.016741,23.3847407 567.012444,23.4191111 L567.006,23.519 C567.006,23.6156667 566.986667,23.7026667 566.948,23.78 C566.716,24.4373333 566.474333,25.0656667 566.223,25.665 C565.971667,26.2643333 565.73,26.8926667 565.498,27.55 C565.227333,28.2073333 564.898667,28.8163333 564.512,29.377 C564.125333,29.9376667 563.719333,30.5466667 563.294,31.204 C563.100667,31.5133333 562.917,31.842 562.743,32.19 C562.569,32.538 562.346667,32.886 562.076,33.234 C562.037333,33.3113333 562.018,33.35 562.018,33.35 C561.399333,34.2393333 560.771,35.0996667 560.133,35.931 C559.495,36.7623333 558.789333,37.5646667 558.016,38.338 C557.9,38.4153333 557.745333,38.5506667 557.552,38.744 Z M594.556,48.72 C594.865333,48.372 595.232667,48.0046667 595.658,47.618 C595.928667,47.5793333 596.189667,47.56 596.441,47.56 L596.441,47.56 L597.166,47.56 C598.326,46.9413333 599.515,46.4966667 600.733,46.226 C601.951,45.9553333 603.178667,45.704 604.416,45.472 C605.962667,45.1626667 607.499667,44.9016667 609.027,44.689 C610.554333,44.4763333 612.110667,44.3313333 613.696,44.254 C614.585333,44.2153333 615.494,44.1863333 616.422,44.167 C617.35,44.1476667 618.258667,44.2926667 619.148,44.602 C619.418667,44.6793333 619.689333,44.7276667 619.96,44.747 C620.230667,44.7663333 620.482,44.7953333 620.714,44.834 C620.946,44.4473333 620.926667,44.1186667 620.656,43.848 C620.192,43.4226667 619.728,43.007 619.264,42.601 C618.8,42.195 618.355333,41.818 617.93,41.47 C617.504667,41.3926667 617.127667,41.3056667 616.799,41.209 C616.470333,41.1123333 616.151333,41.006 615.842,40.89 C615.339333,40.7353333 614.827,40.6096667 614.305,40.513 C613.783,40.4163333 613.270667,40.4066667 612.768,40.484 C612.110667,40.5613333 611.453333,40.5613333 610.796,40.484 C610.138667,40.4066667 609.481333,40.4066667 608.824,40.484 C608.553333,40.484 608.302,40.4936667 608.07,40.513 C607.838,40.5323333 607.586667,40.5613333 607.316,40.6 C607.084,40.6 606.842333,40.6193333 606.591,40.658 C606.339667,40.6966667 606.098,40.7353333 605.866,40.774 C604.512667,40.9286667 603.149667,41.0736667 601.777,41.209 C600.404333,41.3443333 599.041333,41.528 597.688,41.76 C597.494667,41.8373333 597.34,41.876 597.224,41.876 C597.108,41.876 596.972667,41.7986667 596.818,41.644 C597.011333,40.6773333 597.175667,39.7106667 597.311,38.744 C597.446333,37.7773333 597.649333,36.8106667 597.92,35.844 C598.538667,33.6786667 599.196,31.523 599.892,29.377 C600.588,27.231 601.245333,25.056 601.864,22.852 C602.250667,21.6533333 602.666333,20.4546667 603.111,19.256 C603.555667,18.0573333 603.855333,16.8393333 604.01,15.602 C604.087333,15.4086667 604.155,15.254 604.213,15.138 C604.271,15.022 604.319333,14.906 604.358,14.79 C604.551333,14.4033333 604.715667,14.007 604.851,13.601 C604.986333,13.195 605.150667,12.818 605.344,12.47 C605.808,11.426 606.262333,10.382 606.707,9.338 C607.151667,8.294 607.606,7.26933333 608.07,6.264 C608.263333,5.83866667 608.447,5.41333333 608.621,4.988 C608.795,4.56266667 608.882,4.13733333 608.882,3.712 C608.843333,3.63466667 608.824,3.55733333 608.824,3.48 C608.824,3.40266667 608.804667,3.34466667 608.766,3.306 C608.186,2.76466667 607.615667,2.27166667 607.055,1.827 C606.494333,1.38233333 605.924,0.908666667 605.344,0.406 C604.996,0.29 604.725333,0.232 604.532,0.232 C604.222667,0.116 603.894,0.0386666667 603.546,0 C602.888667,0.425333333 602.299,0.918333333 601.777,1.479 C601.255,2.03966667 600.762,2.64866667 600.298,3.306 C599.138,5.046 598.094,6.86333333 597.166,8.758 C596.238,10.6526667 595.445333,12.6246667 594.788,14.674 C593.550667,18.3086667 592.458333,22.0013333 591.511,25.752 C590.563667,29.5026667 589.858,33.3113333 589.394,37.178 C589.239333,38.4926667 589.171667,39.788 589.191,41.064 C589.210333,42.34 589.452,43.5966667 589.916,44.834 C589.838667,44.95 589.790333,45.0563333 589.771,45.153 C589.751667,45.2496667 589.703333,45.356 589.626,45.472 C589.587333,45.6266667 589.568,45.762 589.568,45.878 C589.568,45.994 589.548667,46.11 589.51,46.226 C589.896667,46.7673333 590.264,47.1926667 590.612,47.502 C590.96,47.8113333 591.327333,48.0626667 591.714,48.256 C592.100667,48.4493333 592.516333,48.575 592.961,48.633 C593.405667,48.691 593.937333,48.72 594.556,48.72 Z M623.44,18.676 C623.904,18.5986667 624.339,18.5213333 624.745,18.444 C625.151,18.3666667 625.508667,18.1153333 625.818,17.69 C625.818,17.4966667 625.827667,17.2646667 625.847,16.994 C625.866333,16.7233333 625.895333,16.4526667 625.934,16.182 C625.392667,15.5246667 624.764333,15.051 624.049,14.761 C623.333667,14.471 622.628,14.1133333 621.932,13.688 C621.274667,14.152 620.791333,14.7513333 620.482,15.486 L620.482,15.486 L620.598,16.066 C620.636667,16.2593333 620.656,16.4526667 620.656,16.646 C621.081333,17.11 621.497,17.516 621.903,17.864 C622.309,18.212 622.821333,18.4826667 623.44,18.676 Z M615.958,43.877 C616.808667,44.0896667 617.736667,44.138 618.742,44.022 L618.742,44.022 L619.641,43.123 C619.931,42.833 620.211333,42.5333333 620.482,42.224 C620.907333,41.5666667 621.400333,40.9576667 621.961,40.397 C622.521667,39.8363333 622.956667,39.1886667 623.266,38.454 C623.304667,38.3766667 623.353,38.3283333 623.411,38.309 C623.469,38.2896667 623.536667,38.2413333 623.614,38.164 C623.884667,37.8933333 624.252,37.468 624.716,36.888 C625.18,36.308 625.663333,35.699 626.166,35.061 C626.668667,34.423 627.142333,33.814 627.587,33.234 C628.031667,32.654 628.408667,32.2093333 628.718,31.9 C629.027333,31.5133333 629.278667,31.1846667 629.472,30.914 C629.278667,30.6433333 629.095,30.3533333 628.921,30.044 C628.747,29.7346667 628.563333,29.4253333 628.37,29.116 C628.099333,29.0386667 627.770667,28.9226667 627.384,28.768 C626.881333,29.2706667 626.320667,29.928 625.702,30.74 C625.083333,31.552 624.445333,32.393 623.788,33.263 C623.130667,34.133 622.492667,34.9836667 621.874,35.815 C621.255333,36.6463333 620.694667,37.3133333 620.192,37.816 C620.153333,37.004 620.269333,36.2886667 620.54,35.67 C620.810667,35.0513333 621.042667,34.4713333 621.236,33.93 C621.429333,33.3113333 621.613,32.712 621.787,32.132 C621.961,31.552 622.144667,30.9526667 622.338,30.334 C622.531333,29.6766667 622.734333,29.058 622.947,28.478 C623.159667,27.898 623.324,27.2793333 623.44,26.622 C623.556,25.9646667 623.788,25.3556667 624.136,24.795 C624.484,24.2343333 624.658,23.5673333 624.658,22.794 C624.580667,22.7166667 624.503333,22.6103333 624.426,22.475 C624.348667,22.3396667 624.271333,22.214 624.194,22.098 C623.768667,21.9046667 623.382,21.7113333 623.034,21.518 C622.686,21.3246667 622.299333,21.1313333 621.874,20.938 C621.719333,20.8606667 621.555,20.8026667 621.381,20.764 C621.207,20.7253333 621.023333,20.6673333 620.83,20.59 C620.520667,20.6673333 620.221,20.7543333 619.931,20.851 C619.641,20.9476667 619.322,21.054 618.974,21.17 C618.626,21.634 618.355333,22.098 618.162,22.562 C616.963333,24.8046667 616.074,26.97 615.494,29.058 C614.991333,30.7593333 614.546667,32.451 614.16,34.133 C613.773333,35.815 613.483333,37.526 613.29,39.266 C613.251333,39.846 613.251333,40.4066667 613.29,40.948 C613.328667,41.4893333 613.464,42.0306667 613.696,42.572 C614.353333,43.2293333 615.107333,43.6643333 615.958,43.877 Z M629.501,58.522 C629.868333,58.5606667 630.206667,58.4833333 630.516,58.29 C630.322667,57.2846667 630.255,56.2793333 630.313,55.274 C630.371,54.2686667 630.438667,53.244 630.516,52.2 C630.748,49.8026667 631.038,47.4246667 631.386,45.066 C631.734,42.7073333 632.120667,40.368 632.546,38.048 C632.623333,37.4293333 632.72,36.8203333 632.836,36.221 C632.952,35.6216667 633.126,35.0513333 633.358,34.51 C633.783333,34.3166667 634.208667,34.133 634.634,33.959 C635.059333,33.785 635.504,33.64 635.968,33.524 C636.664,33.3306667 637.476,33.1953333 638.404,33.118 C638.829333,33.0793333 639.254667,33.0503333 639.68,33.031 C640.105333,33.0116667 640.530667,33.002 640.956,33.002 C641.226667,32.6153333 641.226667,32.3446667 640.956,32.19 C640.569333,31.8033333 640.202,31.436 639.854,31.088 C639.506,30.74 639.177333,30.392 638.868,30.044 C638.210667,29.7733333 637.582333,29.5993333 636.983,29.522 C636.383667,29.4446667 635.755333,29.5026667 635.098,29.696 C634.75,29.7733333 634.518,29.696 634.402,29.464 C634.402,29.3866667 634.392333,29.29 634.373,29.174 C634.353667,29.058 634.363333,28.9613333 634.402,28.884 C634.711333,27.4533333 635.069,26.0323333 635.475,24.621 C635.881,23.2096667 636.374,21.8273333 636.954,20.474 C637.147333,20.01 637.369667,19.5363333 637.621,19.053 C637.872333,18.5696667 638.210667,18.1346667 638.636,17.748 C639.216,18.4053333 639.854,18.937 640.55,19.343 C641.246,19.749 642,19.9133333 642.812,19.836 C643.005333,19.72 643.121333,19.6233333 643.16,19.546 C643.276,19.43 643.334,19.314 643.334,19.198 C643.952667,17.5353333 643.604667,16.066 642.29,14.79 C641.826,14.326 641.352333,13.8523333 640.869,13.369 C640.385667,12.8856667 639.873333,12.4313333 639.332,12.006 C638.056,10.846 636.741333,10.5946667 635.388,11.252 C635.04,11.4066667 634.730667,11.5806667 634.46,11.774 C634.189333,11.9673333 633.918667,12.1993333 633.648,12.47 C633.106667,13.05 632.613667,13.688 632.169,14.384 C631.724333,15.08 631.308667,15.8146667 630.922,16.588 C630.148667,17.9413333 629.501,19.343 628.979,20.793 C628.457,22.243 627.983333,23.7413333 627.558,25.288 C626.978,27.608 626.523667,29.9473333 626.195,32.306 C625.866333,34.6646667 625.547333,37.0233333 625.238,39.382 C625.044667,40.8513333 624.909333,42.3206667 624.832,43.79 L624.832,43.79 L624.6,48.198 C624.406667,50.2473333 624.464667,52.3353333 624.774,54.462 C624.812667,54.8873333 624.89,55.3126667 625.006,55.738 C625.122,56.1633333 625.334667,56.5886667 625.644,57.014 C625.837333,57.0913333 626.040333,57.2073333 626.253,57.362 C626.465667,57.5166667 626.668667,57.652 626.862,57.768 C627.171333,57.884 627.442,58.0096667 627.674,58.145 C627.906,58.2803333 628.176667,58.406 628.486,58.522 C628.795333,58.4833333 629.133667,58.4833333 629.501,58.522 Z M649.714,45.153 C650.951333,45.1336667 652.208,44.95 653.484,44.602 C653.754667,44.486 654.102667,44.2926667 654.528,44.022 L654.528,44.022 L655.804,42.862 C656.229333,42.4753333 656.654667,42.0693333 657.08,41.644 C659.284,39.0146667 661.333333,36.2306667 663.228,33.292 C663.382667,33.0986667 663.547,32.8763333 663.721,32.625 C663.895,32.3736667 663.962667,32.1513333 663.924,31.958 C663.885333,31.61 663.943333,31.3393333 664.098,31.146 C664.252667,30.9526667 664.368667,30.74 664.446,30.508 C664.214,30.3146667 664.020667,30.16 663.866,30.044 C663.711333,29.928 663.527667,29.8313333 663.315,29.754 C663.102333,29.6766667 662.851,29.5993333 662.561,29.522 C662.271,29.4446667 661.855333,29.348 661.314,29.232 L661.314,29.232 L660.618,30.276 C659.767333,31.552 658.926333,32.7796667 658.095,33.959 C657.263667,35.1383333 656.364667,36.2886667 655.398,37.41 C654.702,38.222 653.986667,38.9663333 653.252,39.643 C652.517333,40.3196667 651.705333,40.9093333 650.816,41.412 C650.738667,41.4893333 650.429333,41.586 649.888,41.702 C649.888,41.122 649.897667,40.5613333 649.917,40.02 C649.936333,39.4786667 649.984667,38.9373333 650.062,38.396 C650.294,38.164 650.487333,37.99 650.642,37.874 C651.802,36.7913333 652.904,35.6506667 653.948,34.452 C654.992,33.2533333 656.094,32.0933333 657.254,30.972 C657.911333,30.276 658.404333,29.5026667 658.733,28.652 C659.061667,27.8013333 659.361333,26.9313333 659.632,26.042 C659.670667,25.8873333 659.69,25.694 659.69,25.462 L659.69,25.462 L659.69,24.824 C659.496667,23.7026667 659.139,22.707 658.617,21.837 C658.095,20.967 657.292667,20.2613333 656.21,19.72 C655.282,19.2173333 654.431333,18.8113333 653.658,18.502 C652.884667,18.1926667 652.15,18.0476667 651.454,18.067 C650.758,18.0863333 650.071667,18.3376667 649.395,18.821 C648.718333,19.3043333 648.012667,20.0873333 647.278,21.17 C646.040667,23.142 645.054667,25.1816667 644.32,27.289 C643.585333,29.3963333 642.986,31.5713333 642.522,33.814 C642.367333,34.7033333 642.270667,35.6023333 642.232,36.511 C642.193333,37.4196667 642.251333,38.338 642.406,39.266 C642.792667,41.5086667 643.991333,43.152 646.002,44.196 C647.239333,44.8533333 648.476667,45.1723333 649.714,45.153 Z M652.556,29.986 C652.362667,29.87 652.266,29.7733333 652.266,29.696 C652.266,29.3866667 652.275667,29.0676667 652.295,28.739 C652.314333,28.4103333 652.343333,28.072 652.382,27.724 C652.691333,27.4533333 652.942667,27.1633333 653.136,26.854 C653.329333,26.5446667 653.484,26.1966667 653.6,25.81 C653.716,25.3846667 653.880333,24.9786667 654.093,24.592 C654.305667,24.2053333 654.508667,23.838 654.702,23.49 C654.740667,23.374 654.808333,23.2676667 654.905,23.171 L654.905,23.171 L655.224,22.852 C655.494667,23.3933333 655.601,23.896 655.543,24.36 C655.485,24.824 655.456,25.3073333 655.456,25.81 C655.108,26.6993333 654.682667,27.4726667 654.18,28.13 C653.677333,28.7873333 653.136,29.406 652.556,29.986 Z" id="Experience#MyntraLife" fill="url(#linearGradient-1)" fill-rule="nonzero"></path>
                    </g>
                </g>
            </g>
        </g>
    </g>
</svg>