<?xml version="1.0" encoding="UTF-8"?>
<svg width="494px" height="178px" viewBox="0 0 494 178" version="1.1" xmlns="http://www.w3.org/2000/svg" xmlns:xlink="http://www.w3.org/1999/xlink">
    <!-- Generator: Sketch 60 (88103) - https://sketch.com -->
    <title>Group 2</title>
    <desc>Created with Sketch.</desc>
    <defs>
        <linearGradient x1="100.839563%" y1="50%" x2="1.19073174%" y2="50%" id="linearGradient-1">
            <stop stop-color="#FF933D" offset="0%"></stop>
            <stop stop-color="#FF29A4" offset="100%"></stop>
        </linearGradient>
    </defs>
    <g id="Careers" stroke="none" stroke-width="1" fill="none" fill-rule="evenodd">
        <g id="01_Careers" transform="translate(-473.000000, -781.000000)">
            <g id="Group-2" transform="translate(473.000000, 781.000000)">
                <g id="Group">
                    <g id="Group-34" transform="translate(70.000000, 45.500000) rotate(-180.000000) translate(-70.000000, -45.500000) translate(0.000000, 45.000000)" stroke="#353A50" stroke-width="0.88209">
                        <line x1="-2.69687343e-13" y1="0.441045" x2="85.844393" y2="0.441045" id="Path-2" transform="translate(42.922196, 0.441045) rotate(-180.000000) translate(-42.922196, -0.441045) "></line>
                        <line x1="86.44482" y1="0.441045" x2="139.728023" y2="0.441045" id="Path-2" stroke-dasharray="2.646269989013672" transform="translate(113.086421, 0.441045) rotate(-180.000000) translate(-113.086421, -0.441045) "></line>
                    </g>
                    <g id="Group-14" transform="translate(74.000000, 30.000000)" stroke="#353A50" stroke-width="0.88209">
                        <line x1="40.4246373" y1="0.441045" x2="81.2824403" y2="0.441045" id="Path-2"></line>
                        <line x1="3.55271368e-15" y1="0.441045" x2="32.036903" y2="0.441045" id="Path-2" stroke-dasharray="2.646269989013672"></line>
                    </g>
                    <g id="Group-17" opacity="0.5" transform="translate(318.000000, 21.000000) rotate(-5.000000) translate(-318.000000, -21.000000) translate(299.000000, 2.000000)" fill="#D8D8D8">
                        <g id="Group-16">
                            <g id="Group-15">
                                <circle id="Oval" cx="0.96" cy="0.96" r="1"></circle>
                                <circle id="Oval" cx="4.8" cy="0.96" r="1"></circle>
                                <circle id="Oval" cx="8.64" cy="0.96" r="1"></circle>
                                <circle id="Oval" cx="12.48" cy="0.96" r="1"></circle>
                                <circle id="Oval" cx="16.32" cy="0.96" r="1"></circle>
                            </g>
                            <g id="Group-15" transform="translate(0.000000, 3.840000)">
                                <circle id="Oval" cx="0.96" cy="0.96" r="1"></circle>
                                <circle id="Oval" cx="4.8" cy="0.96" r="1"></circle>
                                <circle id="Oval" cx="8.64" cy="0.96" r="1"></circle>
                                <circle id="Oval" cx="12.48" cy="0.96" r="1"></circle>
                                <circle id="Oval" cx="16.32" cy="0.96" r="1"></circle>
                            </g>
                            <g id="Group-15" transform="translate(0.000000, 7.680000)">
                                <circle id="Oval" cx="0.96" cy="0.96" r="1"></circle>
                                <circle id="Oval" cx="4.8" cy="0.96" r="1"></circle>
                                <circle id="Oval" cx="8.64" cy="0.96" r="1"></circle>
                                <circle id="Oval" cx="12.48" cy="0.96" r="1"></circle>
                                <circle id="Oval" cx="16.32" cy="0.96" r="1"></circle>
                            </g>
                            <g id="Group-15" transform="translate(0.000000, 11.520000)">
                                <circle id="Oval" cx="0.96" cy="0.96" r="1"></circle>
                                <circle id="Oval" cx="4.8" cy="0.96" r="1"></circle>
                                <circle id="Oval" cx="8.64" cy="0.96" r="1"></circle>
                                <circle id="Oval" cx="12.48" cy="0.96" r="1"></circle>
                                <circle id="Oval" cx="16.32" cy="0.96" r="1"></circle>
                            </g>
                            <g id="Group-15" transform="translate(0.000000, 15.360000)">
                                <circle id="Oval" cx="0.96" cy="0.96" r="1"></circle>
                                <circle id="Oval" cx="4.8" cy="0.96" r="1"></circle>
                                <circle id="Oval" cx="8.64" cy="0.96" r="1"></circle>
                                <circle id="Oval" cx="12.48" cy="0.96" r="1"></circle>
                                <circle id="Oval" cx="16.32" cy="0.96" r="1"></circle>
                            </g>
                        </g>
                        <g id="Group-16" transform="translate(19.200000, 0.000000)">
                            <g id="Group-15">
                                <circle id="Oval" cx="0.96" cy="0.96" r="1"></circle>
                                <circle id="Oval" cx="4.8" cy="0.96" r="1"></circle>
                                <circle id="Oval" cx="8.64" cy="0.96" r="1"></circle>
                                <circle id="Oval" cx="12.48" cy="0.96" r="1"></circle>
                                <circle id="Oval" cx="16.32" cy="0.96" r="1"></circle>
                            </g>
                            <g id="Group-15" transform="translate(0.000000, 3.840000)">
                                <circle id="Oval" cx="0.96" cy="0.96" r="1"></circle>
                                <circle id="Oval" cx="4.8" cy="0.96" r="1"></circle>
                                <circle id="Oval" cx="8.64" cy="0.96" r="1"></circle>
                                <circle id="Oval" cx="12.48" cy="0.96" r="1"></circle>
                                <circle id="Oval" cx="16.32" cy="0.96" r="1"></circle>
                            </g>
                            <g id="Group-15" transform="translate(0.000000, 7.680000)">
                                <circle id="Oval" cx="0.96" cy="0.96" r="1"></circle>
                                <circle id="Oval" cx="4.8" cy="0.96" r="1"></circle>
                                <circle id="Oval" cx="8.64" cy="0.96" r="1"></circle>
                                <circle id="Oval" cx="12.48" cy="0.96" r="1"></circle>
                                <circle id="Oval" cx="16.32" cy="0.96" r="1"></circle>
                            </g>
                            <g id="Group-15" transform="translate(0.000000, 11.520000)">
                                <circle id="Oval" cx="0.96" cy="0.96" r="1"></circle>
                                <circle id="Oval" cx="4.8" cy="0.96" r="1"></circle>
                                <circle id="Oval" cx="8.64" cy="0.96" r="1"></circle>
                                <circle id="Oval" cx="12.48" cy="0.96" r="1"></circle>
                                <circle id="Oval" cx="16.32" cy="0.96" r="1"></circle>
                            </g>
                            <g id="Group-15" transform="translate(0.000000, 15.360000)">
                                <circle id="Oval" cx="0.96" cy="0.96" r="1"></circle>
                                <circle id="Oval" cx="4.8" cy="0.96" r="1"></circle>
                                <circle id="Oval" cx="8.64" cy="0.96" r="1"></circle>
                                <circle id="Oval" cx="12.48" cy="0.96" r="1"></circle>
                                <circle id="Oval" cx="16.32" cy="0.96" r="1"></circle>
                            </g>
                        </g>
                        <g id="Group-16" transform="translate(0.000000, 19.200000)">
                            <g id="Group-15">
                                <circle id="Oval" cx="0.96" cy="0.96" r="1"></circle>
                                <circle id="Oval" cx="4.8" cy="0.96" r="1"></circle>
                                <circle id="Oval" cx="8.64" cy="0.96" r="1"></circle>
                                <circle id="Oval" cx="12.48" cy="0.96" r="1"></circle>
                                <circle id="Oval" cx="16.32" cy="0.96" r="1"></circle>
                            </g>
                            <g id="Group-15" transform="translate(0.000000, 3.840000)">
                                <circle id="Oval" cx="0.96" cy="0.96" r="1"></circle>
                                <circle id="Oval" cx="4.8" cy="0.96" r="1"></circle>
                                <circle id="Oval" cx="8.64" cy="0.96" r="1"></circle>
                                <circle id="Oval" cx="12.48" cy="0.96" r="1"></circle>
                                <circle id="Oval" cx="16.32" cy="0.96" r="1"></circle>
                            </g>
                            <g id="Group-15" transform="translate(0.000000, 7.680000)">
                                <circle id="Oval" cx="0.96" cy="0.96" r="1"></circle>
                                <circle id="Oval" cx="4.8" cy="0.96" r="1"></circle>
                                <circle id="Oval" cx="8.64" cy="0.96" r="1"></circle>
                                <circle id="Oval" cx="12.48" cy="0.96" r="1"></circle>
                                <circle id="Oval" cx="16.32" cy="0.96" r="1"></circle>
                            </g>
                            <g id="Group-15" transform="translate(0.000000, 11.520000)">
                                <circle id="Oval" cx="0.96" cy="0.96" r="1"></circle>
                                <circle id="Oval" cx="4.8" cy="0.96" r="1"></circle>
                                <circle id="Oval" cx="8.64" cy="0.96" r="1"></circle>
                                <circle id="Oval" cx="12.48" cy="0.96" r="1"></circle>
                                <circle id="Oval" cx="16.32" cy="0.96" r="1"></circle>
                            </g>
                            <g id="Group-15" transform="translate(0.000000, 15.360000)">
                                <circle id="Oval" cx="0.96" cy="0.96" r="1"></circle>
                                <circle id="Oval" cx="4.8" cy="0.96" r="1"></circle>
                                <circle id="Oval" cx="8.64" cy="0.96" r="1"></circle>
                                <circle id="Oval" cx="12.48" cy="0.96" r="1"></circle>
                                <circle id="Oval" cx="16.32" cy="0.96" r="1"></circle>
                            </g>
                        </g>
                        <g id="Group-16" transform="translate(19.200000, 19.200000)">
                            <g id="Group-15">
                                <circle id="Oval" cx="0.96" cy="0.96" r="1"></circle>
                                <circle id="Oval" cx="4.8" cy="0.96" r="1"></circle>
                                <circle id="Oval" cx="8.64" cy="0.96" r="1"></circle>
                                <circle id="Oval" cx="12.48" cy="0.96" r="1"></circle>
                                <circle id="Oval" cx="16.32" cy="0.96" r="1"></circle>
                            </g>
                            <g id="Group-15" transform="translate(0.000000, 3.840000)">
                                <circle id="Oval" cx="0.96" cy="0.96" r="1"></circle>
                                <circle id="Oval" cx="4.8" cy="0.96" r="1"></circle>
                                <circle id="Oval" cx="8.64" cy="0.96" r="1"></circle>
                                <circle id="Oval" cx="12.48" cy="0.96" r="1"></circle>
                                <circle id="Oval" cx="16.32" cy="0.96" r="1"></circle>
                            </g>
                            <g id="Group-15" transform="translate(0.000000, 7.680000)">
                                <circle id="Oval" cx="0.96" cy="0.96" r="1"></circle>
                                <circle id="Oval" cx="4.8" cy="0.96" r="1"></circle>
                                <circle id="Oval" cx="8.64" cy="0.96" r="1"></circle>
                                <circle id="Oval" cx="12.48" cy="0.96" r="1"></circle>
                                <circle id="Oval" cx="16.32" cy="0.96" r="1"></circle>
                            </g>
                            <g id="Group-15" transform="translate(0.000000, 11.520000)">
                                <circle id="Oval" cx="0.96" cy="0.96" r="1"></circle>
                                <circle id="Oval" cx="4.8" cy="0.96" r="1"></circle>
                                <circle id="Oval" cx="8.64" cy="0.96" r="1"></circle>
                                <circle id="Oval" cx="12.48" cy="0.96" r="1"></circle>
                                <circle id="Oval" cx="16.32" cy="0.96" r="1"></circle>
                            </g>
                            <g id="Group-15" transform="translate(0.000000, 15.360000)">
                                <circle id="Oval" cx="0.96" cy="0.96" r="1"></circle>
                                <circle id="Oval" cx="4.8" cy="0.96" r="1"></circle>
                                <circle id="Oval" cx="8.64" cy="0.96" r="1"></circle>
                                <circle id="Oval" cx="12.48" cy="0.96" r="1"></circle>
                                <circle id="Oval" cx="16.32" cy="0.96" r="1"></circle>
                            </g>
                        </g>
                    </g>
                    <g id="Group-33" transform="translate(352.000000, 13.000000)" fill="#333A54" fill-rule="nonzero">
                        <path d="M141.738974,87.82992 C141.738974,39.3227946 102.41618,-2.20268248e-13 53.9090542,-2.20268248e-13 C34.1048605,-2.20268248e-13 15.3008717,6.57362509 -1.13686838e-13,18.4857505 L0.429917573,19.0379705 C15.6089619,7.22069087 34.2619889,0.69984 53.9090542,0.69984 C102.029669,0.69984 141.039134,39.7093056 141.039134,87.82992 L141.738974,87.82992 Z" id="Path"></path>
                        <path d="M96.2590517,164.793693 C96.875103,164.453986 97.4870245,164.106884 98.0946887,163.752473 L97.7421038,163.14794 C97.1392872,163.499524 96.5322485,163.843856 95.9211142,164.180852 L96.2590517,164.793693 Z M99.900106,162.670275 C100.498113,162.302006 101.091683,161.926578 101.68069,161.544082 L101.299536,160.957143 C100.715219,161.336594 100.126375,161.709032 99.5331303,162.074368 L99.900106,162.670275 Z M103.439003,160.371984 C104.019565,159.974829 104.595356,159.570723 105.166249,159.159761 L104.757383,158.591778 C104.191025,158.999475 103.61981,159.40037 103.043863,159.794368 L103.439003,160.371984 Z M106.866852,157.904335 C107.427208,157.480194 107.982486,157.049359 108.532563,156.611932 L108.096978,156.064171 C107.551265,156.498128 107.000392,156.925545 106.444483,157.34632 L106.866852,157.904335 Z M110.159871,155.285986 C110.699854,154.835215 111.234442,154.377998 111.763515,153.914441 L111.302319,153.388063 C110.777438,153.847946 110.247086,154.301541 109.711384,154.748739 L110.159871,155.285986 Z M113.338482,152.500801 C113.855794,152.025169 114.367421,151.543376 114.873245,151.055533 L114.387418,150.551799 C113.885599,151.035778 113.378024,151.513756 112.86481,151.985621 L113.338482,152.500801 Z M116.379158,149.567937 C116.873457,149.067813 117.361772,148.561805 117.84399,148.05003 L117.334638,147.570095 C116.856239,148.077818 116.371791,148.579819 115.881406,149.075982 L116.379158,149.567937 Z M119.276346,146.492945 C119.745666,145.970335 120.208735,145.442149 120.665444,144.908506 L120.133742,144.453457 C119.680651,144.982872 119.221251,145.506874 118.755649,146.025343 L119.276346,146.492945 Z M122.003143,143.307564 C122.447153,142.763233 122.884645,142.213627 123.315515,141.658867 L122.762801,141.229585 C122.335348,141.779944 121.901326,142.325191 121.460837,142.865205 L122.003143,143.307564 Z M124.594602,139.970533 C125.01202,139.405588 125.422665,138.83568 125.826441,138.260932 L125.25379,137.85863 C124.853222,138.428811 124.445839,138.994193 124.031736,139.55465 L124.594602,139.970533 Z M127.020121,136.517706 C127.409916,135.933538 127.792703,135.344724 128.168391,134.75139 L127.577111,134.377004 C127.204415,134.965615 126.824674,135.549743 126.43798,136.129263 L127.020121,136.517706 Z M129.278414,132.950696 C129.640075,132.347873 129.994491,131.740715 130.341576,131.12935 L129.732975,130.783835 C129.388659,131.390323 129.037069,131.992639 128.678292,132.590655 L129.278414,132.950696 Z M131.364678,129.275434 C131.696829,128.655986 132.021532,128.032528 132.338708,127.405187 L131.714154,127.089421 C131.399514,127.711746 131.077406,128.330221 130.747909,128.94472 L131.364678,129.275434 Z M133.271708,125.502951 C133.573327,124.868682 133.867323,124.230734 134.153625,123.589232 L133.514544,123.30401 C133.230535,123.940373 132.938893,124.573212 132.63969,125.202403 L133.271708,125.502951 Z M134.995514,121.639493 C135.266079,120.991339 135.528857,120.33983 135.783781,119.68509 L135.131629,119.431173 C134.87875,120.08066 134.61808,120.726943 134.349685,121.369899 L134.995514,121.639493 Z M136.508752,117.75598 C136.748109,117.095458 136.979535,116.431896 137.202968,115.765416 L136.539423,115.542967 C136.317784,116.204094 136.088217,116.862328 135.850781,117.517547 L136.508752,117.75598 Z M137.850746,113.752436 C138.057762,113.081313 138.25673,112.40747 138.447598,111.731024 L137.774056,111.540976 C137.584722,112.211989 137.387351,112.880421 137.181999,113.546154 L137.850746,113.752436 Z M138.995895,109.693807 C139.170165,109.013607 139.336295,108.330999 139.494239,107.646097 L138.812297,107.488836 C138.65562,108.168243 138.490823,108.845374 138.317951,109.520115 L138.995895,109.693807 Z M139.944184,105.581109 C140.085378,104.893186 140.21836,104.203158 140.343086,103.511136 L139.654343,103.387001 C139.530615,104.073484 139.398698,104.757988 139.258634,105.440402 L139.944184,105.581109 Z M140.692892,101.426405 C140.800699,100.732715 140.900252,100.037216 140.991515,99.3400157 L140.297595,99.2491827 C140.20706,99.9408259 140.1083,100.630777 140.001353,101.318932 L140.692892,101.426405 Z M141.241179,97.2360328 C141.315494,96.5380635 141.381535,95.8385711 141.439271,95.1376576 L140.741793,95.0802048 C140.684515,95.7755638 140.618998,96.4695082 140.545273,97.1619374 L141.241179,97.2360328 Z M141.587686,93.0280862 C141.628584,92.3274201 141.661212,91.625504 141.685543,90.9224347 L140.986122,90.8982297 C140.961982,91.5957706 140.929611,92.2921614 140.889036,92.9873062 L141.587686,93.0280862 Z M141.73363,88.8089202 C141.737175,88.4843229 141.738958,88.1595121 141.738974,87.834497 L141.039134,87.8344613 C141.039118,88.1569404 141.037349,88.4792153 141.033832,88.8012767 L141.73363,88.8089202 Z" id="Path"></path>
                    </g>
                    <path d="M193.649,61 L204.576,40.322 L207.075,61 L217.463,61 L235.446,26.7 L225.842,26.7 L214.18,48.897 L211.73,26.7 L202.763,26.7 L191.199,48.603 L188.553,26.7 L178.998,26.7 L183.212,61 L193.649,61 Z M241.669,61 L244.315,47.868 C244.739667,45.8753333 245.474667,44.3808333 246.52,43.3845 C247.565333,42.3881667 248.904667,41.89 250.538,41.89 C252.988,41.89 254.213,43.066 254.213,45.418 C254.213,46.0386667 254.147667,46.6266667 254.017,47.182 L254.017,47.182 L251.273,61 L260.583,61 L263.523,46.3 C263.751667,45.2546667 263.866,44.193 263.866,43.115 C263.866,40.175 262.984,37.921 261.22,36.353 C259.456,34.785 257.136667,34.001 254.262,34.001 C251.354667,34.001 248.774,34.883 246.52,36.647 L246.52,36.647 L248.921,24.642 L239.611,24.642 L232.359,61 L241.669,61 Z M269.55,70.947 C271.477333,70.947 273.159667,70.6775 274.597,70.1385 C276.034333,69.5995 277.398167,68.7011667 278.6885,67.4435 C279.978833,66.1858333 281.326333,64.43 282.731,62.176 L282.731,62.176 L299.734,34.442 L290.62,34.442 L280.82,50.759 L277.488,34.442 L268.227,34.442 L274.254,61.196 C273.666,62.0453333 273.078,62.6578333 272.49,63.0335 C271.902,63.4091667 271.183333,63.597 270.334,63.597 C268.766,63.597 267.394,63.0906667 266.218,62.078 L266.218,62.078 L262.053,68.644 C262.869667,69.33 263.972167,69.8853333 265.3605,70.31 C266.748833,70.7346667 268.145333,70.947 269.55,70.947 Z" id="Why" fill="#353A50" fill-rule="nonzero"></path>
                    <polyline id="Path" stroke="#353A50" stroke-linecap="round" stroke-linejoin="round" points="154.696572 78 145 78 167.352941 10 325 10 302.647059 78 240.97082 78"></polyline>
                    <path d="M264.203852,95.6546763 C265.302226,95.8633994 266.280451,96.2460527 267.138556,96.8026477 C267.99666,97.3592427 268.940562,97.8810426 269.970287,98.3680632 C269.832991,98.7855095 269.764343,99.1507694 269.764343,99.4638541 C269.764343,99.7769388 269.730019,100.211772 269.661371,100.768367 C270.210558,102.09028 270.450824,103.429567 270.382176,104.786267 C270.313527,106.142967 270.210556,107.551827 270.073259,109.012889 C269.730017,111.239269 269.28381,113.483009 268.734623,115.744176 C268.185436,118.005343 267.636257,120.249083 267.08707,122.475463 C266.469234,124.910566 265.782761,127.293452 265.027629,129.624194 C264.272496,131.954935 263.551699,134.303035 262.865215,136.668564 C262.65927,137.433882 262.350357,138.199189 261.938467,138.964507 C261.457928,139.451527 261.217662,140.042901 261.217662,140.738644 C261.011717,142.686727 260.222273,144.252127 258.849305,145.434891 C258.780657,145.782763 258.746333,146.148023 258.746333,146.530682 C258.746333,146.913341 258.712009,147.278601 258.643361,147.626473 C258.094174,148.461365 257.613643,149.226672 257.201752,149.922416 C256.789862,150.618159 256.446625,151.244319 256.172032,151.800914 C256.034735,152.566232 255.931764,153.244572 255.863116,153.835955 C255.794467,154.427337 255.691496,155.001317 255.554199,155.557912 C254.936364,156.740676 254.318538,157.888636 253.700702,159.001826 C253.082867,160.115016 252.499364,161.262976 251.950177,162.44574 C251.812881,162.793612 251.658424,163.106692 251.486803,163.384989 C251.315182,163.663287 251.160726,163.94158 251.023429,164.219878 C250.54289,165.333068 249.97655,166.341881 249.32439,167.246348 C248.67223,168.150815 247.968595,169.090055 247.213463,170.064096 C246.801573,170.829414 246.235232,171.490361 245.514424,172.046956 C244.793616,172.603551 244.158628,173.055777 243.609441,173.403649 C241.618638,174.099393 239.782321,174.186359 238.100436,173.664552 C236.418551,173.142744 234.788176,172.499191 233.209263,171.733872 C233.003318,171.316426 233.003318,170.91638 233.209263,170.533721 C233.415208,170.151061 233.62115,169.785801 233.827096,169.43793 C234.513579,168.672612 235.07992,167.855125 235.526134,166.985445 C235.972349,166.115766 236.435719,165.193919 236.916257,164.219878 C238.08328,161.645626 239.164475,159.088806 240.159877,156.549342 C241.155279,154.009877 242.133503,151.52263 243.094581,149.087527 C243.643768,147.904763 244.141461,146.756803 244.587675,145.643613 C245.03389,144.530423 245.428612,143.41725 245.771854,142.30406 C246.526986,140.286403 247.299269,138.373137 248.088725,136.564203 C248.878182,134.755269 249.650464,132.876789 250.405597,130.928707 C250.542893,130.650409 250.628703,130.372116 250.663027,130.093819 C250.697351,129.815521 250.645865,129.502441 250.508569,129.154569 C250.02803,129.084995 249.736279,129.224142 249.633306,129.572013 C249.530334,129.919885 249.341553,130.198179 249.06696,130.406902 C248.792366,130.615625 248.517777,130.876525 248.243183,131.189609 C247.96859,131.502694 247.659677,131.763594 247.316435,131.972317 C247.179138,132.18104 246.990358,132.372367 246.750089,132.546303 C246.509819,132.720239 246.252392,132.911566 245.977798,133.120289 C245.634556,133.398586 245.342805,133.624699 245.102536,133.798635 C244.862266,133.972571 244.467544,134.233471 243.918357,134.581343 C243.36917,134.720492 242.785668,134.824852 242.167832,134.894426 C241.549997,134.964001 240.863523,135.033574 240.108391,135.103148 C237.568401,135.033574 234.994125,134.268267 232.385487,132.807206 C231.561706,132.389759 230.875233,131.763599 230.326046,130.928707 C229.776859,130.093814 229.330651,129.154574 228.987409,128.110959 C228.438222,126.302025 228.266603,124.493119 228.472549,122.684185 C228.678494,120.875251 228.953083,119.101131 229.296325,117.361772 C230.326051,112.421992 231.733321,107.621432 233.518179,102.959949 L233.930068,101.707616 C234.067364,101.29017 234.238983,100.907517 234.444928,100.559645 C234.719521,100.00305 235.045596,99.5160367 235.423162,99.0985905 C235.800729,98.6811443 236.367069,98.3332776 237.122201,98.0549801 C238.220575,98.6811495 239.318933,99.3420961 240.417307,100.03784 L243.712413,102.125061 C244.2616,102.403358 244.656322,102.768618 244.896592,103.220851 C245.136861,103.673085 245.325641,104.177492 245.462938,104.734087 C244.845102,107.725785 244.210114,110.734831 243.557955,113.761316 C242.905795,116.787801 242.511073,120.075141 242.373776,123.623434 C242.785666,123.275562 243.128903,122.997269 243.403497,122.788546 C243.67809,122.579823 243.987003,122.336316 244.330245,122.058019 C245.634565,120.457808 246.904541,118.857622 248.140211,117.257411 C249.375882,115.6572 250.645858,113.987441 251.950177,112.248081 C252.842606,110.995742 253.71786,109.778209 254.575965,108.595445 C255.43407,107.412681 256.240676,106.229934 256.995808,105.04717 C257.682292,104.212277 258.31728,103.325217 258.900791,102.385963 C259.484302,101.446709 259.947672,100.420503 260.290914,99.3073126 C260.634156,98.3332713 261.183335,97.6027514 261.938467,97.1157308 L264.203852,95.6546763 Z M170.256548,65.1330349 C171.024583,65.8961023 171.897336,66.5377629 172.874835,67.0580361 C173.852333,67.5783093 174.550536,68.4280762 174.969464,69.6073621 C175.039285,70.786648 174.742549,71.7404679 174.079246,72.4688504 C173.415944,73.1972329 172.979567,74.0123154 172.770103,74.9141223 C172.281354,75.0528618 171.879887,75.1569149 171.565691,75.2262846 C171.251496,75.2956544 170.919849,75.3997075 170.570743,75.538447 C170.640564,75.8852958 170.675474,76.2494816 170.675474,76.6310153 C170.675474,77.012549 170.710384,77.3767348 170.780206,77.7235836 C170.431099,78.6947602 170.151818,79.6659223 169.942354,80.637099 C169.73289,81.6082756 169.471064,82.5620955 169.156868,83.4985873 C168.842672,84.4350791 168.45866,85.3368724 168.004822,86.2039944 C167.550983,87.0711165 166.940056,87.8515146 166.172021,88.5452122 C166.1022,90.1407167 165.910194,91.6494863 165.595998,93.0715664 C165.281802,94.4936465 164.880336,95.8983631 164.391587,97.2857584 C163.879563,99.0431256 163.375303,100.792768 162.8788,102.534708 L162.13986,105.141845 C161.406736,107.743211 160.656168,110.36188 159.888134,112.997931 C159.608848,114.246586 159.329567,115.477881 159.050282,116.691852 C158.770997,117.905823 158.456806,119.137118 158.107699,120.385773 C158.037878,120.732622 158.002968,121.426309 158.002968,122.466856 C158.352074,122.050637 158.666265,121.773162 158.945551,121.634423 C160.970369,117.472237 163.152253,113.414167 165.491267,109.460091 C167.830281,105.506014 170.291446,101.65605 172.874835,97.9100831 C174.969474,94.7884438 177.064083,91.7362201 179.158722,88.7533204 C181.253362,85.7704207 183.41779,82.8222501 185.652073,79.9087201 C186.769214,78.3132156 187.938703,76.8044459 189.160577,75.3823658 C190.38245,73.9602857 191.586849,72.5555691 192.773812,71.1681739 C193.122918,70.8906949 193.489475,70.61322 193.873492,70.3357409 C194.257509,70.0582619 194.624066,69.7461027 194.973173,69.3992539 C195.322279,69.6767329 195.63647,69.8848391 195.915756,70.0235786 C196.195041,70.1623181 196.439412,70.3704243 196.648876,70.6479033 C197.207446,71.2028614 197.748554,71.6711003 198.272213,72.0526339 C198.795873,72.4341676 199.441711,72.6943003 200.209745,72.8330399 C201.536351,73.2492584 202.478924,74.1510518 203.037495,75.538447 C203.386601,76.5096237 203.386601,77.7235763 203.037495,79.1803413 C202.478924,81.4001736 201.937817,83.5852883 201.414157,85.7357509 C200.890497,87.8862135 200.27957,90.0019595 199.581357,92.0830523 L197.69619,98.1181913 C197.067799,100.129914 196.474326,102.176292 195.915756,104.257384 C195.776113,104.465494 195.741203,104.708284 195.811024,104.985763 C195.862877,105.191835 195.895476,105.417034 195.90882,105.661365 C196.440638,105.500515 196.861872,105.188605 197.172533,104.725628 C197.52164,104.205355 197.905651,103.702432 198.324579,103.216843 L203.142226,97.3898125 C204.748117,95.4474592 206.353983,93.4704506 207.959873,91.4587276 C208.797729,90.4875509 209.600662,89.533731 210.368697,88.5972392 C211.136732,87.6607475 211.939665,86.7416119 212.777521,85.839805 C213.545555,84.7992586 214.400853,83.7934122 215.343441,82.8222355 C216.286029,81.8510588 217.211148,80.8798968 218.118825,79.9087201 C219.026502,78.9375435 219.934166,77.9490392 220.841843,76.9431776 C221.74952,75.9373161 222.482633,74.8100744 223.041204,73.5614187 C223.39031,73.0064606 223.756867,72.4341687 224.140884,71.8445257 C224.524901,71.2548827 224.891458,70.6825908 225.240564,70.1276327 C225.519849,69.8501537 225.78796,69.6059749 226.044901,69.395092 L226.235513,69.2431727 C226.549709,69.0003785 226.881355,68.7055614 227.230462,68.3587126 C228.068318,68.4974522 228.801431,68.670874 229.429822,68.8789833 C230.058214,69.0870925 230.738962,69.3992518 231.472086,69.8154703 C232.20521,70.2316889 233.060508,70.8386652 234.038007,71.6364175 C235.015505,72.4341697 236.34209,73.5267271 238.017802,74.9141223 C238.087623,75.1222316 238.209809,75.3823643 238.384362,75.6945282 C238.558916,76.0066921 238.716011,76.3361935 238.855654,76.6830423 C238.967368,76.9605214 239.056738,77.2047001 239.123766,77.4155831 L239.169848,77.5675024 C239.239669,77.8102965 239.3444,78.1051136 239.484043,78.4519624 C239.134936,80.1862064 238.698559,81.7990292 238.174899,83.290479 C237.651239,84.7819289 237.075222,86.2906986 236.44683,87.8168333 C235.748617,89.4123378 235.120235,91.0425028 234.561664,92.707377 C234.003093,94.3722513 233.444531,96.0024162 232.885961,97.5979207 C232.536854,98.7772067 232.083022,99.9217905 231.524452,101.031707 C230.965881,102.141623 230.267678,103.182154 229.429822,104.15333 C229.29018,105.401986 229.133084,106.633281 228.958531,107.847252 C228.783978,109.061222 228.347601,110.223149 227.649388,111.333065 C226.881353,114.454704 225.938779,117.454901 224.821638,120.333746 C223.704497,123.212591 222.831744,126.212788 222.203352,129.334428 C221.854245,130.374974 221.522599,131.380821 221.208403,132.351997 C220.894207,133.323174 220.667291,134.32902 220.527648,135.369567 C220.318185,137.24255 220.021448,139.046137 219.637431,140.780381 C219.253414,142.514625 218.956678,144.179474 218.747214,145.774979 C218.817035,146.746156 218.886855,147.57858 218.956677,148.272278 C219.026498,148.965975 219.096318,149.624978 219.16614,150.249306 C218.817033,150.665525 218.485387,150.804262 218.171191,150.665523 C217.856995,150.526783 217.595169,150.457414 217.385705,150.457414 C217.036598,150.457414 216.704952,150.492099 216.390756,150.561468 C216.07656,150.630838 215.814734,150.665523 215.60527,150.665523 C214.208843,150.179934 213.039354,149.503589 212.096766,148.636467 C211.154178,147.769345 210.194149,146.85021 209.216651,145.879033 C208.239152,145.046596 207.64568,143.867328 207.436216,142.341193 C207.08711,141.092537 206.825283,139.8439 206.65073,138.595245 C206.476177,137.346589 206.458722,136.063267 206.598364,134.745242 C206.738007,133.149738 206.895103,131.554257 207.069656,129.958752 C207.244209,128.363248 207.436215,126.767767 207.645679,125.172263 C208.20425,122.397472 208.727902,119.67475 209.216651,117.004014 C209.7054,114.333279 210.229052,111.610556 210.787623,108.835766 C210.787623,108.697026 210.682892,108.419551 210.473428,108.003333 C209.216645,109.043879 208.13443,110.327201 207.226753,111.853335 C206.668183,112.477663 206.144531,113.154008 205.655781,113.882391 C205.167032,114.610773 204.64338,115.321803 204.084809,116.0155 C203.526239,116.778568 202.985132,117.541623 202.461472,118.304691 C201.937812,119.067758 201.396705,119.830814 200.838134,120.593882 C200.279564,121.356949 199.721001,122.067978 199.162431,122.726991 C198.60386,123.386004 198.115118,124.097033 197.69619,124.8601 C197.207441,125.623168 196.701244,126.282171 196.177584,126.837129 C195.653924,127.392087 195.252458,128.155143 194.973173,129.126319 C194.624066,129.403799 194.240054,129.611905 193.821126,129.750644 C193.402199,129.889384 192.983277,130.09749 192.564349,130.374969 C192.564349,130.513708 192.546894,130.652446 192.511983,130.791185 C192.477073,130.929925 192.459618,131.068662 192.459618,131.207402 C192.529439,131.970469 192.529439,132.473392 192.459618,132.716187 C192.389796,132.958981 192.180335,133.461904 191.831229,134.224971 C191.063194,134.77993 190.207896,135.144115 189.265308,135.31754 C188.32272,135.490964 187.397602,135.612359 186.489924,135.681729 C186.28046,136.167317 186.263005,136.479477 186.437559,136.618216 C186.612112,136.756956 186.839028,136.895693 187.118313,137.034433 C187.46742,137.242542 187.816521,137.46799 188.165628,137.710784 C188.514734,137.953579 188.689285,138.456502 188.689285,139.219569 C188.532187,139.323624 188.355454,139.437432 188.159082,139.560997 L187.956165,139.687813 C187.676879,139.861237 187.432509,140.017317 187.223045,140.156056 C187.013581,140.364166 186.90885,140.502903 186.90885,140.572273 C186.839029,140.919122 186.804119,141.317992 186.804119,141.768895 C186.804119,142.219799 186.734298,142.722722 186.594656,143.27768 C186.175728,143.832638 185.652076,144.56101 185.023684,145.462817 C183.138508,145.809665 181.305726,145.861692 179.525282,145.618898 C177.744839,145.376104 176.156427,144.352915 174.760001,142.549301 C175.737499,134.779888 177.15136,127.184013 179.001625,119.761449 C180.85189,112.338884 182.789403,104.812378 184.814221,97.1817042 C183.487616,98.4997297 182.405402,99.8350776 181.567546,101.187788 C180.72969,102.540498 179.822026,103.91053 178.844528,105.297926 C178.076493,106.685321 177.256105,108.072695 176.383339,109.460091 C175.510572,110.847486 174.620364,112.23486 173.712686,113.622255 C172.87483,115.009651 172.036987,116.414367 171.199131,117.836447 C170.361275,119.258527 169.488522,120.697928 168.580845,122.154693 C168.441202,122.293433 168.249196,122.449512 168.004822,122.622937 C167.760447,122.796361 167.498621,122.987125 167.219336,123.195235 C167.149515,123.750193 167.079694,124.253116 167.009873,124.704019 C166.940052,125.154923 166.870231,125.588477 166.80041,126.004696 C165.334162,129.265075 163.483925,132.178561 161.249643,134.745242 C161.249643,136.548856 160.900541,138.179021 160.202328,139.635786 C159.853222,140.398853 159.556485,141.161909 159.312111,141.924976 C159.067736,142.688044 158.73609,143.416415 158.317162,144.110113 C157.758591,144.803811 157.357125,145.532182 157.11275,146.295249 C156.868375,147.058317 156.431999,147.682635 155.803607,148.168224 C155.803607,148.376333 155.768697,148.584439 155.698875,148.792548 C155.629054,149.000658 155.594144,149.208764 155.594144,149.416873 C155.245037,149.902461 154.878481,150.3707 154.494464,150.821604 C154.110446,151.272507 153.67407,151.706062 153.18532,152.12228 C151.369966,152.746608 149.676824,152.798635 148.105845,152.278361 C146.534865,151.758088 145.016274,150.873637 143.550026,149.624981 C142.851813,148.029477 142.397981,146.433996 142.188517,144.838492 C141.979053,143.242987 141.944143,141.612822 142.083786,139.947948 C142.223428,137.936225 142.345614,135.924532 142.450346,133.912809 C142.555078,131.901086 142.781994,129.889393 143.1311,127.87767 C143.689671,123.368636 144.335508,118.94638 145.068632,114.61077 C145.801756,110.275159 146.726875,105.922272 147.844016,101.551977 C149.589549,94.684371 151.893618,87.9902895 154.756292,81.4695319 C155.663969,79.4578089 156.606543,77.4634581 157.584042,75.48642 C158.56154,73.5093818 159.643754,71.5843998 160.830717,69.7114162 C161.598751,68.5321303 162.436595,67.4048886 163.344272,66.3296573 C164.251949,65.254426 165.299253,64.5087122 166.486216,64.0924937 C167.882642,63.8150146 169.139407,64.1618582 170.256548,65.1330349 Z M345.690565,68.7482014 C346.675035,69.6493937 347.71223,70.481251 348.802179,71.2437983 C349.892128,72.0063456 350.964481,72.8382029 352.019271,73.7393952 C352.370867,74.0166851 352.66972,74.3806227 352.915837,74.8312188 C353.161955,75.281815 353.460808,75.6804133 353.812404,76.0270257 C353.812404,76.7202505 353.829984,77.4134649 353.865143,78.1066898 C353.900303,78.7999146 353.953042,79.5277897 354.023361,80.290337 C354.726554,80.4983045 355.376998,80.4636438 355.974712,80.1863538 C356.572426,79.9090639 357.152552,79.770421 357.715106,79.770421 C359.121492,79.770421 360.42238,79.6664388 361.617808,79.4584714 C362.321001,79.3891489 362.953865,79.3371578 363.51642,79.3024966 C364.078974,79.2678354 364.676679,79.2158443 365.309553,79.1465218 C366.012746,79.0771993 366.680769,79.0252082 367.313643,78.990547 C367.946517,78.9558857 368.579381,78.9385554 369.212255,78.9385554 C369.845128,78.8692329 370.495572,78.8519025 371.163606,78.8865638 C371.831639,78.921225 372.482083,78.9385554 373.114957,78.9385554 C373.81815,79.8397476 374.486173,80.7062657 375.119047,81.5381355 C375.75192,82.3700053 376.244148,83.3751662 376.595745,84.5536484 C375.822232,85.1082282 375.10147,85.4375051 374.433437,85.5414888 C373.765404,85.6454725 373.079801,85.6974636 372.376608,85.6974636 C370.337348,85.6974636 368.333278,85.8534369 366.364337,86.165388 C364.395397,86.4773392 362.391327,86.806616 360.352067,87.1532285 C359.156639,87.3611959 357.996387,87.5864906 356.871279,87.8291193 C355.74617,88.071748 354.585919,88.2623819 353.39049,88.4010269 C353.038894,88.4703494 352.722462,88.4876797 352.441185,88.4530185 C352.159907,88.4183573 351.843475,88.3663662 351.491879,88.2970437 C351.280921,88.6436561 351.052386,89.0075937 350.806269,89.3888673 C350.560151,89.770141 350.366776,90.1340786 350.226138,90.480691 L349.804224,91.9364558 C349.663585,92.4217132 349.522949,92.941624 349.38231,93.4962039 C348.749436,96.0611357 348.151731,98.6086987 347.589177,101.138969 C347.026622,103.66924 346.393758,106.147481 345.690565,108.573768 C345.19833,110.376153 344.794,112.126519 344.477563,113.82492 C344.161126,115.523321 343.791956,117.273687 343.37004,119.076072 C343.018443,120.739811 342.719591,122.420856 342.473473,124.119257 C342.227356,125.817658 341.858185,127.429382 341.36595,128.954476 C341.014353,130.132958 340.785819,131.328753 340.68034,132.541897 C340.574861,133.75504 340.381486,134.950835 340.100208,136.129317 C339.889251,137.169155 339.713455,138.243637 339.572816,139.352797 C339.432178,140.461956 339.291541,141.675082 339.150903,142.992209 C338.588348,143.200176 338.025802,143.37348 337.463248,143.512125 C336.900693,143.65077 336.302988,143.789413 335.670114,143.928058 C334.685644,143.581445 333.683609,143.096195 332.663979,142.472293 C331.644349,141.84839 330.607155,141.155176 329.552366,140.392629 C329.341408,138.590244 329.165612,136.753226 329.024973,134.881519 C328.901818,133.242486 328.913469,131.576896 329.059929,129.88471 C328.095362,131.164238 327.040781,132.518008 325.899741,133.941223 C324.758701,135.364439 323.704119,136.718209 322.735964,138.002575 C321.767809,139.28694 321.110857,140.172097 320.765087,140.658073 C320.350164,141.213475 319.935246,141.577951 319.520323,141.751514 C319.105399,141.925077 318.690482,142.081281 318.275558,142.220131 C317.860635,142.358982 317.463006,142.532542 317.082659,142.740818 C316.702312,142.949093 316.373836,143.365638 316.09722,143.990464 C316.028066,144.129314 315.941625,144.250807 315.837894,144.354944 L315.474838,144.719424 C314.714145,144.649999 313.970751,144.597931 313.244635,144.563219 C312.518519,144.528506 311.775125,144.441726 311.014432,144.302876 C309.907969,144.0946 308.818811,143.851616 307.746925,143.573915 C306.675039,143.296215 305.689611,142.636686 304.79061,141.595308 C304.652302,140.484506 304.462131,139.321652 304.220092,138.106712 C303.978054,136.891772 303.787883,135.694206 303.649575,134.513978 C303.442114,133.542026 303.407537,132.43124 303.545845,131.181587 C303.684153,129.723659 303.839747,128.196329 304.012632,126.59955 C304.185517,125.002772 304.341111,123.371305 304.479418,121.705102 C304.548572,121.357976 304.600437,120.941431 304.635014,120.455455 C304.669591,119.969479 304.548573,119.552934 304.271958,119.205809 C304.064496,119.205809 303.960767,119.240521 303.960767,119.309946 C302.78515,120.490173 301.661415,121.687739 300.589529,122.902679 C299.517643,124.11762 298.463062,125.349898 297.425753,126.59955 C297.079983,126.946676 296.768795,127.293797 296.49218,127.640922 C296.215564,127.988048 295.904376,128.335169 295.558606,128.682294 C294.382989,130.140223 293.20739,131.615485 292.031773,133.108126 C290.856157,134.600767 289.680557,136.076029 288.504941,137.533957 C288.366633,137.881083 288.124598,138.176135 287.778828,138.419123 C287.433058,138.662111 287.12187,138.88774 286.845255,139.096015 C286.292023,139.304291 285.756088,139.495207 285.237434,139.66877 L283.837074,140.137387 C283.698766,140.484513 283.595037,140.796922 283.525883,141.074622 C283.456729,141.352323 283.352999,141.630019 283.214692,141.90772 C282.938076,142.04657 282.644176,142.150706 282.332983,142.220131 C282.021791,142.289557 281.693314,142.393693 281.347545,142.532543 C281.001775,142.671393 280.673299,142.844954 280.362106,143.053229 C280.050914,143.261505 279.722437,143.469777 279.376668,143.678052 C278.685128,143.400352 277.976311,143.174723 277.250195,143.001161 C276.524079,142.827598 275.797973,142.636681 275.071857,142.428406 C274.345741,142.22013 273.636924,141.942434 272.945384,141.595308 C272.253845,141.248182 271.666046,140.727502 271.181968,140.03325 C270.697891,138.644747 270.438567,137.238909 270.40399,135.815693 C270.369413,134.392478 270.421278,132.882503 270.559586,131.285725 C270.974509,128.161593 271.510444,125.106932 272.167407,122.12165 C272.824369,119.136369 273.533186,116.081708 274.293879,112.957576 C274.777957,110.874822 275.417621,108.878878 276.212891,106.969687 C277.008161,105.060495 277.889861,103.133976 278.858016,101.190072 C279.272939,100.287545 279.826162,99.3850312 280.517702,98.4825042 C280.725164,98.1353784 280.967199,97.8229699 281.243814,97.5452693 L281.969927,96.8163089 C282.523158,96.5386083 283.041805,96.4171161 283.525883,96.4518287 C284.00996,96.4865412 284.424877,96.5733214 284.770647,96.7121717 C285.87711,97.0592974 286.966268,97.406418 288.038154,97.7535438 C289.11004,98.1006695 290.302927,98.5172142 291.616852,99.0031902 C291.824314,99.2808909 292.083637,99.5932994 292.39483,99.9404251 C292.706022,100.287551 292.999922,100.634671 293.276538,100.981797 C293.276538,101.328923 293.293826,101.658687 293.328403,101.971101 C293.36298,102.283514 293.345692,102.613278 293.276538,102.960404 C292.723306,105.59856 292.170083,108.184608 291.616852,110.718626 C291.06362,113.252644 290.302939,115.734556 289.334784,118.164436 C289.058168,119.205814 288.954439,120.177751 289.023593,121.080278 C288.401207,121.496829 288.332054,121.705102 288.816132,121.705102 C288.885286,121.705102 288.93715,121.653033 288.971727,121.548896 C289.006304,121.444758 289.092745,121.323266 289.231053,121.184416 C289.507669,120.906715 289.795346,120.662341 290.094089,120.45129 L290.320222,120.299249 C290.700569,120.056261 291.063622,119.761209 291.409391,119.414083 C296.042704,114.415472 301.021713,109.625208 306.346565,105.043148 C307.453028,104.071196 308.576763,103.133971 309.717802,102.231444 C310.858842,101.328917 312.017153,100.391691 313.19277,99.4197391 C313.331078,99.4197391 313.521248,99.4023831 313.763287,99.3676705 C314.005326,99.3329579 314.230073,99.3503139 314.437534,99.4197391 C315.889767,99.7668648 317.341978,100.148697 318.79421,100.565248 C320.246443,100.981799 321.629501,101.363632 322.943425,101.710758 C323.496657,102.266159 323.894286,102.838908 324.136324,103.429022 C324.378363,104.019135 324.499381,104.60924 324.499381,105.199354 C324.499381,105.789468 324.464804,106.362217 324.39565,106.917618 L324.18819,108.583813 C323.773266,109.764041 323.392925,110.909539 323.047156,112.020341 C322.701386,113.131144 322.286469,114.241929 321.802391,115.352732 C321.456621,116.394109 321.128145,117.452827 320.816952,118.528917 C320.50576,119.605007 320.142707,120.663724 319.727784,121.705102 C319.589476,122.260503 319.416593,123.05888 319.209132,124.100257 C319.00167,125.141635 318.776923,126.217708 318.534884,127.328511 C318.292845,128.439313 318.068099,129.515387 317.860637,130.556764 C317.653175,131.598141 317.480293,132.431231 317.341985,133.056057 C317.756908,132.917207 318.431149,132.344458 319.364727,131.337793 C320.298305,130.331129 321.283734,129.202987 322.321043,127.953334 C323.358352,126.703681 324.309204,125.523471 325.173628,124.412669 C326.038052,123.301867 326.608564,122.572913 326.885179,122.225788 L328.959787,119.726495 C329.305557,119.379369 329.668609,119.032248 330.048956,118.685123 L330.398124,118.360076 C330.726605,115.894817 331.147872,113.395275 331.661934,110.861399 C332.08385,108.157822 332.593657,105.454286 333.191371,102.750709 C333.789085,100.047132 334.369211,97.3782566 334.931765,94.7440023 L335.248201,92.8723046 C335.107562,92.7336597 334.984505,92.5776864 334.879026,92.4043802 C334.773547,92.231074 334.65049,92.0751008 334.509852,91.9364558 C334.298894,92.0057783 334.140678,92.0231087 334.035199,91.9884474 C333.92972,91.9537862 333.841822,91.9711165 333.771503,92.040439 C332.787032,92.9416313 331.802577,93.5481939 330.818107,93.8601451 C329.833636,94.1720962 328.849181,94.5706945 327.864711,95.0559519 C327.091198,95.4025643 326.370436,95.4718858 325.702403,95.2639183 C325.03437,95.0559509 324.313608,94.8826473 323.540095,94.7440023 C322.766583,94.1894225 322.028241,93.5308687 321.325048,92.7683214 C320.621855,92.0057741 320.02415,91.0699347 319.531915,89.9607749 C319.531915,89.1289052 319.72529,88.5223425 320.112046,88.1410689 C320.498802,87.7597952 320.903132,87.4651791 321.325048,87.2572117 C322.075121,87.0261367 322.817373,86.8027665 323.551814,86.587098 L324.647619,86.2693712 C325.737568,85.9574201 326.84508,85.6281432 327.970189,85.2815308 C329.587533,84.9349184 331.222432,84.6056415 332.874936,84.2936904 C334.52744,83.9817392 336.197498,83.6524623 337.885161,83.3058499 C338.166439,82.7512701 338.412553,82.2140289 338.62351,81.6941103 C338.834468,81.1741917 339.045423,80.6369505 339.256381,80.0823706 C339.889255,78.695921 340.48696,77.3614832 341.049514,76.0790173 C341.612069,74.7965514 342.209774,73.4621136 342.842648,72.075664 L343.37004,71.0358319 C343.510678,70.758542 343.668894,70.5159169 343.844693,70.3079495 C344.020491,70.099982 344.249025,69.8746874 344.530302,69.6320587 C344.81158,69.38943 345.19833,69.0948139 345.690565,68.7482014 Z M416.269316,105.437884 C415.850972,105.756557 415.467497,105.915891 415.118877,105.915891 C414.421638,106.411604 413.794132,106.978125 413.23634,107.615471 C411.702414,108.819346 410.307956,110.182537 409.052926,111.705085 C407.797895,113.227633 406.752052,114.838677 405.915365,116.538265 C404.93923,118.521118 404.050263,120.574757 403.248438,122.699242 C402.446613,124.823728 401.731953,126.948181 401.104438,129.072667 C400.96499,129.780829 400.842975,130.453572 400.738389,131.090918 C400.633803,131.728264 400.511788,132.401007 400.37234,133.109169 C400.37234,133.179985 400.476925,133.357023 400.686097,133.640288 C401.034716,133.286207 401.313608,133.038354 401.522779,132.896722 C402.917258,131.480398 404.189701,130.010984 405.340145,128.488436 C406.49059,126.965888 407.623587,125.390252 408.73917,123.76148 L408.843755,123.549032 C409.331823,122.911687 409.732729,122.274351 410.046487,121.637005 C410.360244,120.999659 410.691428,120.397731 411.040048,119.831201 C411.807011,118.627326 412.539101,117.511988 413.23634,116.485153 C413.93358,115.458319 414.526224,114.342981 415.014292,113.139105 C415.348966,112.176005 415.694793,111.246908 416.051778,110.351796 L416.321609,109.686834 C416.774814,108.589183 417.210582,107.438437 417.628926,106.234562 C417.69865,106.09293 417.733511,105.933596 417.733511,105.756555 C417.733511,105.606633 417.758511,105.444017 417.808511,105.268704 C417.194128,105.06784 416.681068,105.124233 416.269316,105.437884 Z M393.208,119.9 L393.17133,119.9985 C393.97541,117.790716 394.936795,115.670574 396.055514,113.638011 C396.614874,112.516596 397.174226,111.447765 397.733586,110.431483 C398.292945,109.415201 399.062054,108.416457 400.040933,107.435219 C400.600293,106.874512 401.019807,106.331335 401.299486,105.805673 C401.579166,105.28001 401.99868,104.771876 402.55804,104.281258 C404.166199,102.45896 405.984091,100.917038 408.011771,99.6554473 C410.03945,98.3938564 412.521572,97.587852 415.458211,97.2374101 C415.667971,97.3074985 416.035045,97.3775858 416.559445,97.4476742 C417.083845,97.5177626 417.625717,97.5878499 418.185076,97.6579383 C419.163956,97.9382918 419.950544,98.4113814 420.544864,99.077221 C421.139184,99.7430607 421.925772,100.251194 422.904651,100.601636 C423.254251,100.391371 423.568886,100.216152 423.848566,100.075976 C424.128246,99.9357988 424.407922,99.7605804 424.687602,99.5503153 C425.456721,99.7605804 426.22583,99.9533206 426.994949,100.128542 C427.764069,100.303763 428.533177,100.531546 429.302297,100.8119 C429.512057,101.442695 429.686854,101.898263 429.826694,102.178617 L430.823049,103.177371 C431.137689,103.492769 431.469804,103.860727 431.819404,104.281258 C431.679564,104.935416 431.531956,105.58178 431.37658,106.220359 L431.137687,107.172389 C430.892967,108.118582 430.665731,109.082283 430.455971,110.063521 C430.036451,111.745642 429.634417,113.375173 429.249857,114.952161 C428.865297,116.52915 428.463264,118.123637 428.043744,119.73567 C427.764064,121.347703 427.431949,122.924668 427.047389,124.466612 C426.662829,126.008557 426.295755,127.585522 425.946155,129.197555 C425.806315,129.477908 425.718916,129.793301 425.683956,130.143743 C425.648996,130.494185 425.806314,130.844622 426.155914,131.195064 C427.554313,129.1625 428.935212,127.129968 430.298652,125.097405 C431.662091,123.064841 433.287706,121.172483 435.175546,119.420274 C436.014585,119.630539 436.836133,119.840801 437.640213,120.051066 C438.444292,120.261331 439.23088,120.611768 440,121.102386 C439.23088,122.293889 438.426813,123.397765 437.587773,124.414046 C436.748733,125.430328 435.874747,126.464116 434.965787,127.515442 C432.728348,129.968535 430.683219,132.456636 428.83034,134.979818 C426.97746,137.503 425.281926,140.096231 423.743687,142.75959 C423.184327,142.969855 422.642455,143.180117 422.118055,143.390382 C421.593656,143.600647 421.051784,143.775865 420.492424,143.916042 C417.346025,144.056219 414.793984,142.969865 412.836225,140.656949 C412.486625,139.956065 412.259389,139.255191 412.154509,138.554307 C412.049629,137.853424 411.997189,137.117507 411.997189,136.346534 L411.997189,134.033629 C411.997189,133.262657 411.96223,132.491696 411.89231,131.720724 C411.26303,132.421608 410.668719,133.140003 410.109359,133.875931 C409.55,134.611859 408.955689,135.330254 408.326409,136.031138 C407.697129,136.732022 406.98046,137.38033 406.17638,137.976081 C405.372301,138.571832 404.410915,139.079966 403.292196,139.500496 C401.264517,139.991115 399.254347,140.008637 397.261628,139.553062 C395.268909,139.097487 393.503456,137.993612 391.965216,136.241402 C391.196097,134.629369 390.829022,133.034882 390.863982,131.457894 C390.892444,130.174046 391.025172,128.901827 391.26217,127.641211 C390.073371,128.670597 388.882324,129.609716 387.691264,130.46124 C386.197437,131.529222 384.85996,132.201006 383.678794,132.476615 C382.84503,132.407712 382.132867,132.304361 381.542284,132.166557 C380.951701,132.028753 380.361127,131.82205 379.770545,131.546442 C379.179962,131.270834 378.537278,130.926329 377.842475,130.512916 C377.147671,130.099504 376.348659,129.582747 375.445415,128.962628 C374.889572,127.033371 374.733244,125.104143 374.976425,123.174886 C375.219606,121.245629 375.514893,119.385302 375.862295,117.59385 C375.584374,117.387143 375.358566,117.283792 375.184865,117.283792 C375.011164,117.283792 374.837466,117.318242 374.663765,117.387144 C374.490064,117.456047 374.333736,117.490497 374.194775,117.490497 C374.055814,117.490497 373.916856,117.421596 373.777895,117.283792 C373.361013,118.455127 372.857288,119.419741 372.266705,120.177663 C371.676122,120.935585 371.068178,121.693496 370.442855,122.451419 C368.497406,124.794088 366.621465,127.188398 364.814976,129.63442 C363.008487,132.080442 361.340984,134.647004 359.812416,137.334184 C359.326054,137.816498 358.943918,138.333255 358.665996,138.884472 C358.388075,139.022276 358.092788,139.108402 357.780126,139.142853 C357.467465,139.177304 357.102699,139.26343 356.685817,139.401234 C356.546856,139.539038 356.373158,139.917994 356.164717,140.538112 C356.303677,140.882622 356.425266,141.227127 356.529487,141.571638 C356.633707,141.916148 356.755296,142.295103 356.894257,142.708515 C356.338414,142.846319 355.817319,142.966896 355.330957,143.070249 C354.844594,143.173602 354.358239,143.156377 353.871877,143.018573 C352.48227,142.742965 351.231643,142.208982 350.119957,141.416609 C349.008272,140.624235 348.17452,139.435693 347.618677,137.850946 C347.271277,136.61071 347.184427,135.284365 347.358127,133.871874 C347.531828,132.459382 347.688157,131.064137 347.827117,129.686096 C348.174519,127.687937 348.521916,125.741484 348.869317,123.846678 C349.216719,121.951872 349.598855,120.039869 350.015737,118.110612 C350.5021,115.767943 351.075304,113.45976 351.735367,111.185992 C352.39543,108.912225 353.246552,106.741844 354.288757,104.674783 C354.636158,103.91686 355.018295,103.210625 355.435177,102.556056 C355.852059,101.901486 356.407893,101.229702 357.102697,100.540681 C357.450098,100.540681 357.728015,100.506231 357.936456,100.437329 C358.144897,100.368427 358.422815,100.402878 358.770216,100.540681 C360.090343,101.1608 361.427819,101.677557 362.782686,102.090969 C364.137553,102.504382 365.40555,103.09004 366.586716,103.847962 C367.350999,104.674787 367.524698,105.536049 367.107816,106.431776 C366.829894,107.396404 366.534607,108.378244 366.221946,109.377323 C365.909284,110.376403 365.405559,111.289341 364.710756,112.116165 C364.780236,112.94299 364.554428,113.752576 364.033326,114.54495 C363.512223,115.337323 363.321155,116.18136 363.460116,117.077087 C364.015959,117.077087 364.380725,116.939285 364.554426,116.663677 C364.728127,116.388069 364.919195,116.112465 365.127636,115.836856 C365.475038,115.561248 365.787694,115.268419 366.065616,114.95836 C366.343537,114.648301 366.656194,114.321021 367.003596,113.976511 C367.420478,113.425295 367.941572,112.942988 368.566896,112.529575 C368.775337,112.322869 369.001144,112.081716 369.244325,111.806108 C369.487507,111.530499 369.782794,111.254895 370.130195,110.979287 C370.477597,110.703679 370.755514,110.428075 370.963955,110.152467 C371.172396,109.876859 371.485053,109.566804 371.901935,109.222294 C372.110376,108.877784 372.336184,108.619405 372.579365,108.44715 C372.822546,108.274895 373.117833,108.050967 373.465235,107.775359 C373.812637,107.499751 374.107924,107.258597 374.351105,107.051891 C374.594286,106.845185 374.854834,106.638482 375.132755,106.431776 C375.480157,106.156168 375.775444,105.880564 376.018625,105.604956 C376.261806,105.329347 376.522353,105.122644 376.800275,104.98484 C377.147677,104.64033 377.512443,104.347501 377.894585,104.106344 C378.276727,103.865187 378.572014,103.641258 378.780455,103.434552 C379.127856,103.158944 379.457883,102.917791 379.770545,102.711085 C380.083206,102.504379 380.413233,102.297676 380.760634,102.090969 C382.011281,102.77999 383.331387,103.365648 384.720994,103.847962 C386.110601,104.330277 387.395968,104.881485 388.577134,105.501603 C389.341418,106.328427 389.688814,107.138014 389.619334,107.930388 C389.549853,108.722761 389.654072,109.497897 389.931994,110.25582 C389.376151,111.909468 388.785577,113.545867 388.160254,115.165065 C387.534931,116.784263 386.944357,118.489563 386.388514,120.281015 C386.249553,120.832232 386.006376,121.452341 385.658974,122.141361 C385.311572,122.830381 385.033655,123.502166 384.825214,124.156735 C384.616773,124.811305 384.512554,125.345288 384.512554,125.7587 C384.512554,126.172112 384.790471,126.344364 385.346314,126.275462 C385.624235,126.20656 386.336398,125.724253 387.482824,124.828527 C388.62925,123.932801 389.845137,122.916511 391.130524,121.779627 C391.60688,121.358305 392.073691,120.939352 392.530959,120.522764 L393.207,119.901 L393.194,119.938 L393.209703,119.899658 L393.209703,119.899658 L393.208,119.9 Z" id="Myntra" fill="url(#linearGradient-1)" fill-rule="nonzero"></path>
                </g>
            </g>
        </g>
    </g>
</svg>