<svg xmlns="http://www.w3.org/2000/svg" width="34" height="34" viewBox="0 0 34 34"><g><g><path fill="#fff" d="M17.061 0c4.634 0 5.215.02 7.034.102 1.816.083 3.056.37 4.142.79a8.366 8.366 0 0 1 3.022 1.961 8.33 8.33 0 0 1 1.967 3.011c.422 1.082.71 2.317.793 4.127.083 1.813.103 2.392.103 7.009 0 4.617-.02 5.196-.103 7.01-.082 1.809-.37 3.044-.793 4.126a8.33 8.33 0 0 1-1.967 3.01 8.367 8.367 0 0 1-3.022 1.962c-1.086.42-2.326.707-4.142.79-1.82.082-2.4.102-7.034.102-4.633 0-5.214-.02-7.034-.102-1.816-.083-3.056-.37-4.142-.79a8.367 8.367 0 0 1-3.021-1.961 8.33 8.33 0 0 1-1.968-3.011c-.422-1.082-.71-2.317-.793-4.127C.02 22.196 0 21.617 0 17c0-4.617.02-5.196.103-7.01.083-1.809.37-3.044.793-4.126a8.33 8.33 0 0 1 1.968-3.01A8.366 8.366 0 0 1 5.885.892c1.086-.42 2.326-.708 4.142-.79C11.847.02 12.427 0 17.06 0zm.005 3.063c-4.557 0-5.097.017-6.897.1-1.664.075-2.567.352-3.169.585A5.289 5.289 0 0 0 5.038 5.02 5.267 5.267 0 0 0 3.76 6.975c-.233.6-.512 1.5-.587 3.158-.083 1.793-.1 2.331-.1 6.872 0 4.54.017 5.079.1 6.872.075 1.658.354 2.558.587 3.158.31.794.68 1.36 1.277 1.955A5.29 5.29 0 0 0 7 30.262c.602.233 1.505.51 3.17.586 1.799.082 2.339.099 6.896.099s5.097-.017 6.897-.1c1.664-.075 2.567-.352 3.169-.585a5.289 5.289 0 0 0 1.962-1.272 5.267 5.267 0 0 0 1.277-1.955c.234-.6.512-1.5.587-3.158.083-1.793.1-2.331.1-6.872 0-4.54-.017-5.079-.1-6.872-.075-1.658-.353-2.558-.587-3.158a5.266 5.266 0 0 0-1.277-1.955 5.29 5.29 0 0 0-1.962-1.272c-.602-.233-1.505-.51-3.17-.586-1.799-.082-2.339-.099-6.896-.099zm-.005 5.207c4.839 0 8.761 3.909 8.761 8.73 0 4.821-3.922 8.73-8.76 8.73-4.84 0-8.762-3.909-8.762-8.73 0-4.821 3.922-8.73 8.761-8.73zm.005 14.407c3.144 0 5.692-2.54 5.692-5.672 0-3.132-2.548-5.672-5.692-5.672s-5.692 2.54-5.692 5.672c0 3.132 2.548 5.672 5.692 5.672zm11.16-14.752c0 1.127-.92 2.04-2.053 2.04a2.046 2.046 0 0 1-2.052-2.04c0-1.126.919-2.04 2.052-2.04 1.134 0 2.053.914 2.053 2.04"/></g></g></svg>