<?xml version="1.0" encoding="UTF-8"?>
<svg width="36px" height="36px" viewBox="0 0 36 36" version="1.1" xmlns="http://www.w3.org/2000/svg" xmlns:xlink="http://www.w3.org/1999/xlink">
    <!-- Generator: Sketch 60.1 (88133) - https://sketch.com -->
    <title>linkedin-icon-2</title>
    <desc>Created with Sketch.</desc>
    <g id="Homepage" stroke="none" stroke-width="1" fill="none" fill-rule="evenodd">
        <g id="linkedin-icon-2" fill="#FFFFFF" fill-rule="nonzero">
            <path d="M33.339375,0 C34.8089062,0 36,1.155375 36,2.57878125 L36,33.4216406 C36,34.8454688 34.8089062,36 33.339375,36 L2.660625,36 C1.19179687,36 0,34.8456094 0,33.4220625 L0,2.57835938 C0,1.155375 1.19165625,0 2.660625,0 L33.339375,0 Z M10.9400625,13.9199063 L5.553,13.9199063 L5.553,30.1272188 L10.940625,30.1272188 L10.9400625,13.9199063 Z M24.1640156,13.5399375 C21.358479,13.5399375 20.0720589,15.0539414 19.3484928,16.1539822 L19.308,16.215 L19.3089375,13.9204688 L13.9221562,13.9204688 C13.9924687,15.4409063 13.9217344,30.1277813 13.9217344,30.1277813 L19.3085156,30.1272188 L19.3085156,21.0772969 C19.3085156,20.5935469 19.3436719,20.1085313 19.4859844,19.7630156 C19.8752344,18.7948125 20.7615937,17.7925781 22.2501094,17.7925781 C24.1988906,17.7925781 24.9789375,19.2787031 24.9789375,21.4576875 L24.9789375,30.1272188 L30.3654375,30.1272188 L30.3654375,20.8344375 C30.3654375,15.8564531 27.7081875,13.5399375 24.1640156,13.5399375 Z M8.283375,6.1070625 C6.43964062,6.1070625 5.23546875,7.31685938 5.23546875,8.90746875 C5.23546875,10.4627813 6.40434375,11.7073125 8.21235937,11.7073125 L8.24723437,11.7073125 C10.1258437,11.7074531 11.2951406,10.4629219 11.2951406,8.90760938 C11.2599844,7.31685938 10.1258437,6.1070625 8.283375,6.1070625 Z" id="Combined-Shape"></path>
        </g>
    </g>
</svg>