<svg xmlns="http://www.w3.org/2000/svg" width="41" height="34" viewBox="0 0 41 34"><g><g><path fill="#fff" d="M39.338.65c-1.63.974-3.369 1.732-5.325 2.057C32.492 1.083 30.32 0 27.928 0c-4.564 0-8.368 3.79-8.368 8.554 0 .65.11 1.3.218 1.95-6.955-.326-13.04-3.79-17.17-8.88-.76 1.3-1.087 2.707-1.087 4.331 0 2.924 1.522 5.523 3.695 7.147-1.413 0-2.608-.433-3.803-1.083v.108c0 4.115 2.825 7.58 6.737 8.338-.652.217-1.413.325-2.173.325-.544 0-1.087 0-1.522-.108 1.087 3.356 4.13 5.847 7.825 5.955-2.826 2.274-6.412 3.681-10.324 3.681-.652 0-1.304 0-1.956-.108C3.695 32.592 8.042 34 12.823 34 28.145 34 36.62 21.006 36.62 9.745V8.662a16.129 16.129 0 0 0 4.13-4.44c-1.521.65-3.152 1.192-4.782 1.3 1.413-1.19 2.717-2.815 3.37-4.872z"/></g></g></svg>