<?xml version="1.0" encoding="UTF-8"?>
<svg width="390px" height="93px" viewBox="0 0 390 93" version="1.1" xmlns="http://www.w3.org/2000/svg" xmlns:xlink="http://www.w3.org/1999/xlink">
    <!-- Generator: Sketch 58 (84663) - https://sketch.com -->
    <title>Awesome</title>
    <desc>Created with Sketch.</desc>
    <defs>
        <linearGradient x1="0%" y1="50%" x2="99.2634596%" y2="50.457209%" id="linearGradient-1">
            <stop stop-color="#F82E94" offset="0%"></stop>
            <stop stop-color="#FF9E33" offset="100%"></stop>
        </linearGradient>
    </defs>
    <g id="Page-1" stroke="none" stroke-width="1" fill="none" fill-rule="evenodd">
        <g id="Myntra-Website" transform="translate(-186.000000, -2065.000000)" fill="url(#linearGradient-1)" fill-rule="nonzero">
            <path d="M276.870735,2133.46804 C276.071832,2131.16178 275.295133,2128.85555 274.540613,2126.54929 C273.786094,2124.24302 273.497606,2121.9368 273.67514,2119.63053 C273.231305,2119.27572 272.898434,2119.16485 272.676517,2119.2979 C272.454599,2119.43095 272.254876,2119.63053 272.077343,2119.89664 C271.544741,2120.60626 271.05653,2121.36022 270.612695,2122.15854 L269.281197,2124.55349 C268.482294,2126.41624 267.61683,2128.19027 266.684776,2129.87561 C265.752723,2131.56096 264.620962,2133.15758 263.289457,2134.66552 C262.934389,2134.75422 262.623709,2134.79857 262.357409,2134.79857 C262.091108,2134.79857 261.780428,2134.84292 261.42536,2134.93163 C260.182623,2135.19773 259.228392,2135.37514 258.56264,2135.46384 C257.896888,2135.55254 257.275528,2135.59689 256.698543,2135.59689 C256.121558,2135.59689 255.500198,2135.50819 254.834446,2135.33078 C254.168694,2135.15338 253.303229,2134.88728 252.238025,2134.53247 C249.486249,2133.73414 247.75532,2131.82707 247.045184,2128.81119 C246.601349,2127.12584 246.335052,2125.52922 246.246285,2124.02128 C246.068751,2122.15853 246.135326,2120.34016 246.44601,2118.56611 C246.756694,2116.79206 247.045183,2115.01804 247.311484,2113.24399 C248.376687,2105.88169 250.152,2099.00735 252.637475,2092.62078 C253.170076,2091.37894 253.724862,2090.22583 254.301847,2089.1614 C254.878832,2088.09697 255.611149,2087.07691 256.498818,2086.10118 C256.853886,2086.10118 257.23114,2086.079 257.630591,2086.03465 C258.030043,2085.9903 258.45168,2086.05683 258.895514,2086.23423 L263.089732,2087.63129 C264.554387,2088.11915 265.908063,2088.85094 267.150801,2089.82666 C267.328335,2090.09277 267.461483,2090.35888 267.55025,2090.62498 C267.639017,2090.89109 267.772165,2091.24589 267.949699,2091.68941 C267.505865,2092.22162 267.062036,2092.70948 266.618202,2093.15299 L265.286704,2094.48352 C265.375471,2094.74963 265.419854,2095.0379 265.419854,2095.34836 C265.419854,2095.65882 265.508619,2096.0358 265.686153,2096.47931 C264.88725,2099.22909 264.154934,2102.001 263.489182,2104.79512 C262.823429,2107.58925 262.401793,2110.53856 262.224259,2113.64315 L262.756858,2114.44147 C264.798498,2111.51429 266.706959,2108.52062 268.482298,2105.46039 C270.257638,2102.40016 271.944185,2099.40649 273.54199,2096.47931 C273.808291,2095.50359 274.096779,2094.57222 274.407464,2093.6852 C274.718148,2092.79818 275.006636,2091.86681 275.272937,2090.89109 C275.894306,2090.62498 276.493474,2090.35888 277.070459,2090.09277 C277.647445,2089.82666 278.20223,2089.56056 278.734831,2089.29445 L281.664127,2090.35888 C282.640563,2090.71369 283.616985,2091.11284 284.593422,2091.55635 C285.747392,2092.62078 286.324369,2094.08435 286.324369,2095.9471 C286.324369,2098.16466 286.34656,2100.36001 286.390944,2102.53322 C286.435327,2104.70643 286.457519,2106.90179 286.457519,2109.11935 C286.457519,2109.56286 286.435327,2109.98419 286.390944,2110.38335 C286.34656,2110.78251 286.413135,2111.15949 286.590668,2111.5143 C286.768202,2112.49003 286.945734,2113.44356 287.123268,2114.37494 C287.300802,2115.30632 287.522716,2116.34855 287.789016,2117.50168 C288.232851,2116.70336 288.610105,2115.88288 288.92079,2115.0402 C289.231474,2114.19753 289.519962,2113.4214 289.786263,2112.71178 C291.206535,2108.63147 292.87089,2104.72862 294.77938,2101.00311 C296.68787,2097.27761 298.796053,2093.55217 301.103994,2089.82666 C301.81413,2088.76223 302.546447,2087.69782 303.300966,2086.63339 C304.055485,2085.56896 304.832184,2084.5489 305.631087,2083.57317 C306.696291,2082.50874 307.983392,2081.44433 309.492431,2080.3799 C310.912702,2080.82341 312.288569,2081.20039 313.620074,2081.51085 C314.951578,2081.82131 316.194297,2082.59745 317.348268,2083.83928 C316.726899,2084.81501 316.127731,2085.65767 315.550746,2086.36729 C314.97376,2087.07691 314.374592,2087.83087 313.753224,2088.62919 C313.309389,2089.33881 312.843369,2090.02624 312.355151,2090.69151 C311.866933,2091.35678 311.35653,2092.08856 310.823928,2092.88688 C310.380094,2093.6852 309.891883,2094.48351 309.359281,2095.28184 C308.826679,2096.08016 308.249702,2097.10022 307.628334,2098.34205 C307.539567,2098.96297 307.339844,2099.58388 307.02916,2100.2048 C306.718475,2100.82571 306.363413,2101.44662 305.963961,2102.06754 C305.56451,2102.68846 305.165065,2103.35371 304.765613,2104.06333 C304.366162,2104.77295 304.033291,2105.52691 303.76699,2106.32523 C303.323155,2107.83318 302.746179,2109.29674 302.036043,2110.71598 C301.325907,2112.13522 300.615782,2113.64315 299.905646,2115.23978 L298.840448,2116.30421 C298.840448,2116.65902 298.86264,2116.99165 298.907023,2117.30211 C298.951407,2117.61256 298.973598,2118.03389 298.973598,2118.56611 C298.61853,2119.18703 298.085936,2119.94099 297.375801,2120.82801 C297.287034,2121.27152 297.198268,2121.8259 297.109501,2122.49117 C297.020734,2123.15644 296.931968,2123.88822 296.843202,2124.68655 C296.576901,2124.86395 296.288412,2125.06353 295.977728,2125.28528 C295.667044,2125.50704 295.334172,2125.75097 294.979105,2126.01708 C294.801571,2126.19448 294.757188,2126.41623 294.845955,2126.68234 C295.112256,2127.65807 295.289787,2128.45638 295.378554,2129.07729 C295.467321,2129.69821 295.445129,2130.23042 295.311979,2130.67393 C295.178829,2131.11744 294.956915,2131.53877 294.64623,2131.93793 C294.335546,2132.33709 293.869526,2132.84713 293.248157,2133.46804 C293.336924,2134.17766 293.381307,2134.8651 293.381307,2135.53036 C293.381307,2136.19563 292.937479,2136.88307 292.049809,2137.59269 C291.16214,2138.0362 290.185718,2138.391 289.120514,2138.65711 C288.055311,2138.92322 286.901358,2138.96757 285.65862,2138.79016 C283.883281,2138.61276 282.285499,2138.14708 280.865228,2137.39311 C279.444957,2136.63914 278.113472,2135.33079 276.870735,2133.46804 Z M324.35792,2129.3998 C324.180386,2130.64163 324.069429,2131.88345 324.025046,2133.12528 C323.980662,2134.36712 323.958471,2135.65328 323.958471,2136.98382 C325.201208,2136.71771 325.911333,2136.49596 326.088867,2136.31856 C328.130507,2135.16542 329.994586,2133.81273 331.681158,2132.26044 C333.36773,2130.70815 335.009894,2129.00065 336.6077,2127.1379 C338.826874,2124.56553 340.890675,2121.92667 342.799165,2119.22125 C344.707654,2116.51582 346.638307,2113.69956 348.59118,2110.77238 L350.188977,2108.37743 C351.431715,2108.64354 352.385945,2108.86529 353.051698,2109.04269 C353.71745,2109.2201 354.294426,2109.3975 354.782645,2109.57491 C355.270863,2109.75231 355.6925,2109.97406 356.047568,2110.24017 C356.402635,2110.50628 356.846464,2110.86108 357.379065,2111.30459 C357.201531,2111.83681 356.935235,2112.32467 356.580167,2112.76818 C356.225099,2113.21169 356.09195,2113.8326 356.180717,2114.63092 C356.269484,2115.07443 356.114144,2115.58446 355.714693,2116.16103 C355.315242,2116.73759 354.937988,2117.24763 354.58292,2117.69114 C350.233339,2124.43252 345.52876,2130.819 340.469043,2136.85077 C339.492607,2137.82649 338.516185,2138.75786 337.539748,2139.64488 L334.610453,2142.30594 C333.634016,2142.92686 332.835126,2143.37036 332.213757,2143.63647 C329.284447,2144.43479 326.399564,2144.85612 323.559021,2144.90047 C320.718479,2144.94482 317.877978,2144.21304 315.037435,2142.7051 C310.421553,2140.31013 307.669819,2136.54034 306.782149,2131.3956 C306.427081,2129.26674 306.293933,2127.16009 306.3827,2125.07558 C306.471467,2122.99107 306.693381,2120.92877 307.048449,2118.88861 C308.113652,2113.74387 309.48952,2108.75444 311.176092,2103.92015 C312.862664,2099.08587 315.126188,2094.40689 317.966731,2089.88306 C319.653303,2087.3994 321.273276,2085.6032 322.826698,2084.49442 C324.380119,2083.38564 325.955709,2082.80908 327.553515,2082.76473 C329.15132,2082.72038 330.837867,2083.05301 332.613206,2083.76263 C334.388546,2084.47225 336.34139,2085.40361 338.471797,2086.55674 C340.957272,2087.79857 342.799159,2089.41737 343.997513,2091.41317 C345.195867,2093.40898 346.016949,2095.69303 346.460783,2098.2654 L346.460783,2099.72898 C346.460783,2100.2612 346.416401,2100.7047 346.327634,2101.05951 C345.706265,2103.09967 345.018331,2105.09545 344.263812,2107.0469 C343.509293,2108.99835 342.377531,2110.77237 340.868493,2112.36902 C338.205484,2114.94139 335.675663,2117.60242 333.278955,2120.3522 C330.882247,2123.10197 328.352427,2125.71866 325.689418,2128.20232 C325.33435,2128.46843 324.890522,2128.86759 324.35792,2129.3998 Z M326.088867,2090.94749 L326.222017,2091.08054 C326.153613,2091.13181 326.089327,2091.18801 326.02916,2091.24915 C326.049062,2091.14748 326.068965,2091.04693 326.088867,2090.94749 Z M336.74085,2100.5273 C336.74085,2099.37417 336.807424,2098.26541 336.940574,2097.20098 C337.073725,2096.13655 336.829619,2094.98343 336.20825,2093.7416 L335.475927,2094.47339 C335.254009,2094.69515 335.098669,2094.93908 335.009902,2095.20518 C334.566068,2096.00351 334.100048,2096.84617 333.61183,2097.73319 C333.123611,2098.62021 332.746356,2099.55158 332.480057,2100.5273 C332.213756,2101.41433 331.858693,2102.21264 331.414858,2102.92226 C330.971024,2103.63188 330.394047,2104.29713 329.683911,2104.91805 C329.595144,2105.71637 329.52857,2106.49251 329.484187,2107.24648 C329.439803,2108.00045 329.417612,2108.73223 329.417612,2109.44185 C329.417612,2109.61926 329.639526,2109.84101 330.083361,2110.10712 C331.414865,2108.77658 332.657584,2107.35736 333.811554,2105.84942 C334.965525,2104.34148 335.941947,2102.56746 336.74085,2100.5273 Z M326.222017,2091.08054 L326.088867,2090.94749 C326.147363,2090.91826 326.20345,2090.88663 326.257127,2090.85259 C326.23372,2090.95196 326.222017,2091.02794 326.222017,2091.08054 Z M349.523228,2143.76952 C349.700762,2143.23731 349.811719,2142.72728 349.856103,2142.23941 C349.900486,2141.75155 350.011443,2141.28587 350.188977,2140.84236 C351.786783,2140.04404 353.340181,2139.24573 354.84922,2138.4474 C356.358258,2137.64908 357.778508,2136.67337 359.110013,2135.52024 C362.838225,2132.32695 366.344467,2128.82326 369.628845,2125.00905 C370.07268,2124.47684 370.449934,2123.96681 370.760618,2123.47894 C371.071303,2122.99108 371.359791,2122.4367 371.626092,2121.81578 C371.892393,2121.37227 372.136498,2120.84006 372.358416,2120.21914 C372.580333,2119.59823 372.868821,2118.93297 373.223889,2118.22335 L372.158691,2118.22335 C368.96308,2120.70702 365.190541,2121.86013 360.84096,2121.68273 C357.290281,2121.15051 354.050336,2119.68694 351.121026,2117.29198 C349.700754,2116.05014 348.990629,2114.58658 348.990629,2112.90123 C348.813095,2111.21588 348.946244,2109.57491 349.390078,2107.97827 C349.833913,2106.73644 350.366507,2105.58332 350.987876,2104.51889 C351.609245,2103.45446 352.274987,2102.3457 352.985123,2101.19257 C354.760462,2098.7089 356.735497,2096.44702 358.910288,2094.40687 C361.085078,2092.36671 363.370793,2090.45964 365.767501,2088.68559 C366.300103,2088.24207 367.143377,2087.64334 368.297347,2086.88937 C369.451318,2086.1354 370.671845,2085.33709 371.958966,2084.49442 C373.246087,2083.65174 374.466615,2082.87561 375.620585,2082.16599 C376.774556,2081.45637 377.662212,2080.92416 378.283581,2080.56935 C378.816183,2080.30325 379.393159,2080.1702 380.014528,2080.1702 C380.369596,2080.08149 380.74685,2080.05932 381.146301,2080.10367 C381.545752,2080.14802 382.011772,2080.1702 382.544374,2080.1702 C384.40848,2081.41203 386.383515,2082.76472 388.469539,2084.22831 C390.555563,2085.6919 392.619363,2087.17765 394.661004,2088.68559 C394.838538,2089.0404 394.993877,2089.41738 395.127028,2089.81654 L395.593052,2091.21359 C394.172781,2091.5684 392.574999,2092.25584 390.79966,2093.27591 C389.024321,2094.29599 387.249008,2095.44911 385.473669,2096.73529 C383.69833,2098.02148 382.033974,2099.32982 380.480552,2100.66036 C378.92713,2101.99089 377.706603,2103.09966 376.818933,2103.98668 C376.375098,2104.43019 375.798122,2104.91805 375.087986,2105.45026 C374.644151,2105.89378 374.266897,2106.38163 373.956213,2106.91385 C373.645529,2107.44606 373.490189,2108.06697 373.490189,2108.77659 C375.176761,2109.3975 376.796734,2110.06276 378.350156,2110.77238 C379.903578,2111.482 381.434785,2112.19161 382.943823,2112.90123 C383.121357,2113.34474 383.298888,2113.72172 383.476422,2114.03218 C383.653956,2114.34264 383.87587,2114.63092 384.142171,2114.89703 C386.006277,2116.93718 386.67202,2119.24341 386.139418,2121.81578 C385.961884,2122.5254 385.850927,2123.14631 385.806543,2123.67852 C385.76216,2124.21074 385.695586,2124.83164 385.606819,2125.54126 C385.429285,2125.80737 385.229562,2126.0513 385.007645,2126.27306 C384.785727,2126.49481 384.630387,2126.69439 384.54162,2126.87179 C384.452853,2128.11363 384.119982,2129.13369 383.542997,2129.93201 C382.966012,2130.73033 382.411227,2131.52864 381.878625,2132.32697 C381.168489,2133.21399 380.54713,2134.0123 380.014528,2134.72192 C379.481926,2135.43154 378.860567,2136.14115 378.150431,2136.85077 C377.085227,2137.73779 376.042231,2138.60263 375.021411,2139.4453 C374.000591,2140.28797 372.913212,2141.06411 371.759242,2141.77373 C371.049106,2142.30594 370.361172,2142.74945 369.69542,2143.10426 C369.029668,2143.45907 368.208586,2143.68082 367.232149,2143.76952 C366.255712,2143.94693 365.279291,2144.25738 364.302854,2144.70089 C363.326417,2145.14441 362.349995,2145.49921 361.373559,2145.76532 C359.775753,2146.20883 358.244546,2146.34188 356.779891,2146.16448 C355.315236,2145.98707 353.828412,2145.67662 352.319374,2145.23311 C351.964306,2145.0557 351.587052,2144.85612 351.187601,2144.63437 C350.788149,2144.41261 350.233364,2144.12433 349.523228,2143.76952 Z M418.761114,2091.74581 C419.204949,2091.30229 419.604394,2090.92531 419.959462,2090.61486 C420.31453,2090.3044 420.713975,2089.92742 421.15781,2089.4839 C422.666848,2090.28223 424.242438,2091.03619 425.884627,2091.74581 C427.526816,2092.45543 429.102406,2093.25374 430.611444,2094.14076 C432.386783,2095.11649 434.117713,2095.98132 435.804286,2096.73529 C437.490858,2097.48926 439.177405,2098.2654 440.863977,2099.06372 C442.373016,2099.77334 443.992988,2100.32772 445.723944,2100.72688 C447.4549,2101.12604 449.163638,2101.94653 450.850211,2103.18836 C450.672677,2103.63187 450.495145,2103.9645 450.317612,2104.18626 C450.140078,2104.40802 450.006929,2104.65194 449.918162,2104.91805 C448.941726,2105.53897 447.987495,2106.07117 447.055442,2106.51469 C446.123389,2106.9582 445.080393,2107.44606 443.926422,2107.97827 C442.417384,2107.80086 440.841794,2107.51259 439.199605,2107.11343 C437.557416,2106.71426 435.981826,2106.15988 434.472788,2105.45026 C433.940186,2105.80507 433.651698,2106.18205 433.607314,2106.58121 C433.562931,2106.98037 433.540739,2107.4017 433.540739,2107.84522 C433.629506,2109.61927 433.607315,2111.41546 433.474164,2113.23386 C433.341014,2115.05226 433.008143,2116.89281 432.475541,2118.75556 C432.031706,2119.46518 431.565687,2120.17479 431.077468,2120.88441 C430.58925,2121.59403 430.12323,2122.43669 429.679396,2123.41242 C429.679396,2123.67852 429.701587,2123.9668 429.745971,2124.27726 C429.790354,2124.58772 429.856928,2124.9647 429.945695,2125.40821 C429.50186,2126.20653 429.146798,2127.02702 428.880497,2127.86969 C428.614196,2128.71236 428.259134,2129.4885 427.815299,2130.19812 C426.572561,2131.88346 425.352034,2133.59096 424.15368,2135.32066 C422.955326,2137.05036 421.60165,2138.58046 420.092612,2139.91099 C413.878924,2144.78962 407.132736,2145.80968 399.853845,2142.9712 C399.41001,2142.7938 398.899608,2142.54987 398.322623,2142.23941 C397.745637,2141.92895 397.235235,2141.68503 396.7914,2141.50762 C395.548663,2140.7093 394.505666,2139.99969 393.66238,2139.37877 C392.819094,2138.75786 392.108969,2138.0926 391.531984,2137.38298 C390.954999,2136.67336 390.422405,2135.80852 389.934186,2134.78845 C389.445968,2133.76837 388.891183,2132.50438 388.269814,2130.99644 C387.825979,2127.09353 387.870362,2123.39026 388.402964,2119.88651 C388.935566,2116.38277 389.867605,2112.9456 391.199109,2109.57491 C392.441847,2106.38162 393.817714,2103.36578 395.326753,2100.5273 C396.835791,2097.68882 398.389189,2094.93909 399.986995,2092.27802 C400.608364,2091.30229 401.207532,2090.45963 401.784517,2089.75001 C402.361502,2089.04039 402.96067,2088.33078 403.582039,2087.62116 C404.114641,2087.00025 404.691617,2086.49021 405.312986,2086.09105 C405.934355,2085.69189 406.688863,2085.44796 407.576532,2085.35926 C409.529405,2086.33499 411.393484,2087.37723 413.168823,2088.48601 C414.944162,2089.59479 416.808241,2090.68138 418.761114,2091.74581 Z M407.043933,2134.05665 C409.085573,2132.54871 410.971843,2131.01862 412.702799,2129.46633 C414.433755,2127.91403 415.964962,2126.02914 417.296466,2123.81158 C418.716738,2121.50531 419.759734,2119.11038 420.425486,2116.62671 C421.091238,2114.14305 421.557258,2111.61506 421.823559,2109.04269 C422.178627,2105.13979 422.178627,2101.9909 421.823559,2099.59593 C421.468491,2097.20097 420.758366,2095.11649 419.693162,2093.34244 C419.249327,2094.31817 418.849882,2095.183 418.494814,2095.93697 C418.139746,2096.69095 417.784684,2097.42273 417.429616,2098.13235 C417.074548,2098.30975 416.78606,2098.46498 416.564142,2098.59803 C416.342225,2098.73109 416.142502,2098.84196 415.964968,2098.93067 C415.432367,2100.1725 414.944156,2101.45867 414.500321,2102.7892 C414.056486,2104.11974 413.612658,2105.36156 413.168823,2106.51469 C412.36992,2108.37744 411.593221,2110.26234 410.838702,2112.16944 C410.084183,2114.07654 409.485015,2116.09449 409.04118,2118.22335 L408.508581,2120.3522 C406.999542,2123.81159 406.02312,2127.84749 405.579286,2132.46002 C405.579286,2132.63742 405.623668,2132.79265 405.712435,2132.9257 C405.801202,2133.05876 405.889968,2133.21399 405.978735,2133.39139 L406.511334,2133.6575 C406.688868,2133.7462 406.866399,2133.87925 407.043933,2134.05665 Z M502.379175,2135.78634 C502.201641,2133.92359 502.112876,2132.1274 502.112876,2130.3977 C502.112876,2128.668 502.201641,2126.91615 502.379175,2125.1421 C502.556709,2123.36806 502.800815,2121.66056 503.111499,2120.01956 C503.422183,2118.37857 503.666289,2116.67107 503.843823,2114.89703 L502.778625,2115.16313 C500.736984,2117.91291 498.761949,2120.68482 496.853459,2123.47894 C494.94497,2126.27307 493.014317,2129.17803 491.061444,2132.19391 L490.395695,2132.52655 C490.129394,2132.6596 489.774332,2132.85918 489.330497,2133.12528 L489.330497,2133.85708 C489.330497,2134.16753 489.37488,2134.50016 489.463647,2134.85497 C489.197346,2135.8307 488.620369,2136.42943 487.7327,2136.65119 C486.84503,2136.87294 486.001756,2137.11687 485.202854,2137.38298 C485.114087,2137.82649 485.025321,2138.13695 484.936554,2138.31435 L484.537105,2139.11267 C483.116833,2139.82229 481.652201,2140.04404 480.143162,2139.77793 C477.125085,2139.51183 474.772796,2138.09261 473.086224,2135.52024 C472.642389,2133.39138 472.376092,2131.28473 472.287325,2129.20022 C472.198558,2127.11571 472.376089,2125.05341 472.819924,2123.01326 C473.086225,2122.03753 473.219374,2120.95094 473.219374,2119.75346 C473.219374,2118.55598 473.308139,2117.42504 473.485673,2116.36061 C473.130605,2115.9171 472.842117,2115.76187 472.6202,2115.89492 C472.398282,2116.02798 472.242942,2116.22755 472.154175,2116.49366 C471.976641,2117.29198 471.665962,2117.93507 471.222127,2118.42293 C470.778292,2118.91079 470.378847,2119.42082 470.023779,2119.95304 C469.579944,2120.48525 469.291456,2121.06181 469.158305,2121.68273 C469.025155,2122.30364 468.603518,2122.83585 467.893382,2123.27936 C467.715848,2123.45677 467.560509,2123.65635 467.427358,2123.8781 C467.294208,2124.09986 467.227634,2124.34379 467.227634,2124.60989 C467.0501,2125.85173 466.561889,2126.89396 465.762986,2127.73664 C464.964083,2128.57931 464.475872,2129.5772 464.298338,2130.73033 C463.588203,2131.52865 463.033417,2132.39349 462.633966,2133.32486 C462.234515,2134.25624 461.590964,2135.07672 460.703294,2135.78634 C460.259459,2136.14115 459.94878,2136.58466 459.771246,2137.11687 C459.593712,2137.64909 459.416181,2138.00389 459.238647,2138.1813 C458.084676,2138.97962 457.063871,2139.73358 456.176202,2140.4432 L456.176202,2140.57625 C455.998668,2140.75366 455.776754,2140.84236 455.510453,2140.84236 C453.468813,2141.72938 451.582543,2141.95113 449.851587,2141.50762 C448.120631,2141.06411 446.36751,2140.39885 444.592171,2139.51183 C443.083133,2138.80221 441.884797,2137.8265 440.997127,2136.58466 C440.109457,2135.34283 439.665629,2133.87926 439.665629,2132.19391 C439.488095,2130.41986 439.377138,2128.66802 439.332755,2126.93832 C439.288371,2125.20862 439.354945,2123.45678 439.532479,2121.68273 C439.887547,2113.96562 441.174649,2106.24862 443.393823,2098.53151 C443.926425,2096.66876 444.592167,2094.80603 445.39107,2092.94328 C446.189972,2091.08053 447.033246,2089.17346 447.920915,2087.222 C448.453517,2086.24628 449.052685,2085.35927 449.718438,2084.56094 C450.38419,2083.76262 451.027741,2082.87561 451.649109,2081.89988 C451.91541,2081.45637 452.270473,2081.14592 452.714308,2080.96851 C453.158142,2080.79111 453.557588,2080.52501 453.912656,2080.1702 C454.622791,2080.61371 455.266342,2081.01286 455.843327,2081.36767 C456.420313,2081.72248 456.930715,2081.98859 457.37455,2082.16599 C459.061122,2082.78691 460.592329,2083.31911 461.968217,2083.76263 C463.344105,2084.20614 464.697781,2084.64964 466.029285,2085.09316 C466.384353,2085.18186 466.65065,2085.35926 466.828184,2085.62537 C467.005718,2085.89148 467.227632,2086.20193 467.493933,2086.55674 C467.138865,2087.70987 466.850377,2088.84081 466.62846,2089.94959 C466.406542,2091.05837 465.851757,2092.01191 464.964087,2092.81023 C464.87532,2094.76168 464.542449,2096.60223 463.965464,2098.33193 C463.388479,2100.06163 462.878076,2101.76912 462.434241,2103.45447 C461.990407,2105.05111 461.502196,2106.62556 460.969594,2108.17785 C460.436992,2109.73014 459.860015,2111.26024 459.238647,2112.76818 L459.238647,2114.03218 C459.238647,2114.43134 459.327412,2114.76397 459.504946,2115.03008 C460.037548,2115.11878 460.392611,2115.0079 460.570145,2114.69745 C460.747678,2114.38699 460.92521,2114.05436 461.102744,2113.69955 C462.611782,2111.39328 464.076415,2109.08706 465.496686,2106.78079 C466.916958,2104.47453 468.337208,2102.257 469.757479,2100.12814 C471.000217,2097.99929 472.46485,2096.04786 474.151422,2094.27381 C475.216626,2093.20938 476.326196,2092.16715 477.480167,2091.14707 C478.634137,2090.12699 480.09877,2089.39521 481.874109,2088.95169 C483.116847,2089.57261 484.403948,2090.14917 485.735453,2090.68138 C487.066957,2091.2136 488.487207,2091.8345 489.996246,2092.54412 C490.262547,2092.98764 490.551035,2093.38679 490.861719,2093.7416 C491.172404,2094.09641 491.416509,2094.49557 491.594043,2094.93908 C491.949111,2096.44702 491.993494,2097.91059 491.727193,2099.32983 C491.460892,2100.74906 491.283361,2102.12393 491.194594,2103.45447 C491.01706,2104.6963 490.772954,2105.98247 490.46227,2107.313 C490.151586,2108.64354 489.818715,2109.97406 489.463647,2111.30459 C489.907482,2111.482 490.240353,2111.45982 490.46227,2111.23807 L491.061444,2110.63933 C492.836783,2108.33307 494.634287,2106.02684 496.45401,2103.72057 C498.273733,2101.41431 500.071237,2099.06373 501.846576,2096.66877 C503.533149,2094.3625 505.175313,2092.05627 506.773118,2089.75001 C508.370923,2087.44375 510.05747,2085.13752 511.83281,2082.83126 C512.187878,2082.38774 512.565131,2081.92206 512.964583,2081.4342 C513.364034,2080.94634 513.963202,2080.56936 514.762105,2080.30325 C516.537444,2081.01287 518.334948,2081.72248 520.154671,2082.4321 C521.974394,2083.14172 523.816281,2083.98438 525.680387,2084.9601 C525.946688,2085.40362 526.190793,2085.82495 526.412711,2086.22411 C526.634628,2086.62327 526.878733,2087.0446 527.145034,2087.48811 C526.701199,2089.79437 526.368328,2092.05625 526.146411,2094.27381 C525.924494,2096.49137 525.414091,2098.7089 524.615189,2100.92646 C523.905053,2102.96662 523.261502,2105.05109 522.684517,2107.17995 C522.107531,2109.30881 521.286449,2111.34894 520.221246,2113.30039 C520.132479,2113.7439 520.088096,2114.16523 520.088096,2114.56439 C520.088096,2114.96355 519.99933,2115.38488 519.821796,2115.8284 L519.289197,2118.75556 C520.709469,2118.31205 521.796848,2117.55809 522.551367,2116.49366 C523.305886,2115.42923 524.215734,2114.58657 525.280937,2113.96565 C525.902306,2114.05436 526.457091,2114.14306 526.94531,2114.23176 C527.433528,2114.32046 527.988313,2114.45351 528.609682,2114.63092 C528.520915,2114.0987 528.476532,2113.6552 528.476532,2113.30039 C528.476532,2112.94558 528.432149,2112.54642 528.343382,2112.10291 C528.69845,2111.83681 529.075704,2111.52635 529.475155,2111.17154 C529.874607,2110.81673 530.251861,2110.46193 530.606929,2110.10712 C531.494598,2110.19582 532.204723,2110.46192 532.737325,2110.90544 C533.269927,2111.34895 533.758138,2111.8368 534.201973,2112.36902 C534.201973,2112.90123 534.224164,2113.43344 534.268548,2113.96565 C534.312931,2114.49787 534.379505,2115.03008 534.468272,2115.56229 C533.314302,2116.80412 532.160348,2118.06811 531.006378,2119.3543 C529.852407,2120.64049 528.698454,2121.90448 527.544484,2123.14631 C526.301746,2124.38814 525.192176,2125.65213 524.215739,2126.93832 C523.239303,2128.22451 522.262881,2129.53285 521.286444,2130.86338 C520.310007,2132.19392 519.289203,2133.54661 518.223999,2134.9215 C517.158796,2136.29639 516.315522,2137.87083 515.694153,2139.64488 C515.250318,2139.55618 514.873065,2139.51183 514.56238,2139.51183 C514.251696,2139.51183 513.918825,2139.46748 513.563757,2139.37877 C513.031155,2139.29007 512.542944,2139.1792 512.099109,2139.04614 C511.655274,2138.91309 511.211446,2138.84656 510.767611,2138.84656 C507.660768,2139.11267 504.86465,2138.09261 502.379175,2135.78634 Z M542.856708,2129.3998 C542.679174,2130.64163 542.568217,2131.88345 542.523834,2133.12528 C542.47945,2134.36712 542.457259,2135.65328 542.457259,2136.98382 C543.699996,2136.71771 544.410122,2136.49596 544.587655,2136.31856 C546.629296,2135.16542 548.493374,2133.81273 550.179946,2132.26044 C551.866518,2130.70815 553.508683,2129.00065 555.106488,2127.1379 C557.325662,2124.56553 559.389463,2121.92667 561.297953,2119.22125 C563.206442,2116.51582 565.137095,2113.69956 567.089968,2110.77238 L568.687766,2108.37743 C569.930503,2108.64354 570.884734,2108.86529 571.550486,2109.04269 C572.216238,2109.2201 572.793215,2109.3975 573.281433,2109.57491 C573.769651,2109.75231 574.191288,2109.97406 574.546356,2110.24017 C574.901424,2110.50628 575.345252,2110.86108 575.877854,2111.30459 C575.70032,2111.83681 575.434023,2112.32467 575.078955,2112.76818 C574.723887,2113.21169 574.590739,2113.8326 574.679506,2114.63092 C574.768273,2115.07443 574.612933,2115.58446 574.213481,2116.16103 C573.81403,2116.73759 573.436776,2117.24763 573.081708,2117.69114 C568.732127,2124.43252 564.027549,2130.819 558.967832,2136.85077 C557.991395,2137.82649 557.014973,2138.75786 556.038536,2139.64488 L553.109241,2142.30594 C552.132805,2142.92686 551.333914,2143.37036 550.712545,2143.63647 C547.783236,2144.43479 544.898352,2144.85612 542.05781,2144.90047 C539.217267,2144.94482 536.376767,2144.21304 533.536224,2142.7051 C528.920342,2140.31013 526.168607,2136.54034 525.280937,2131.3956 C524.92587,2129.26674 524.792721,2127.16009 524.881488,2125.07558 C524.970255,2122.99107 525.192169,2120.92877 525.547237,2118.88861 C526.612441,2113.74387 527.988308,2108.75444 529.67488,2103.92015 C531.361452,2099.08587 533.624976,2094.40689 536.465519,2089.88306 C538.152091,2087.3994 539.772064,2085.6032 541.325486,2084.49442 C542.878908,2083.38564 544.454498,2082.80908 546.052303,2082.76473 C547.650108,2082.72038 549.336655,2083.05301 551.111995,2083.76263 C552.887334,2084.47225 554.840178,2085.40361 556.970585,2086.55674 C559.45606,2087.79857 561.297947,2089.41737 562.496301,2091.41317 C563.694655,2093.40898 564.515737,2095.69303 564.959572,2098.2654 L564.959572,2099.72898 C564.959572,2100.2612 564.915189,2100.7047 564.826422,2101.05951 C564.205053,2103.09967 563.51712,2105.09545 562.7626,2107.0469 C562.008081,2108.99835 560.876319,2110.77237 559.367281,2112.36902 C556.704272,2114.94139 554.174452,2117.60242 551.777744,2120.3522 C549.381036,2123.10197 546.851215,2125.71866 544.188206,2128.20232 C543.833138,2128.46843 543.38931,2128.86759 542.856708,2129.3998 Z M544.587655,2090.94749 L544.720805,2091.08054 C544.652401,2091.13181 544.588116,2091.18801 544.527948,2091.24915 C544.54785,2091.14748 544.567753,2091.04693 544.587655,2090.94749 Z M555.239638,2100.5273 C555.239638,2099.37417 555.306212,2098.26541 555.439362,2097.20098 C555.572513,2096.13655 555.328407,2094.98343 554.707039,2093.7416 L553.974715,2094.47339 C553.752797,2094.69515 553.597458,2094.93908 553.508691,2095.20518 C553.064856,2096.00351 552.598836,2096.84617 552.110618,2097.73319 C551.6224,2098.62021 551.245144,2099.55158 550.978845,2100.5273 C550.712544,2101.41433 550.357481,2102.21264 549.913647,2102.92226 C549.469812,2103.63188 548.892835,2104.29713 548.182699,2104.91805 C548.093933,2105.71637 548.027358,2106.49251 547.982975,2107.24648 C547.938591,2108.00045 547.9164,2108.73223 547.9164,2109.44185 C547.9164,2109.61926 548.138314,2109.84101 548.582149,2110.10712 C549.913653,2108.77658 551.156372,2107.35736 552.310343,2105.84942 C553.464313,2104.34148 554.440735,2102.56746 555.239638,2100.5273 Z M545.120255,2089.75001 C545.209022,2090.19352 545.18683,2090.4818 545.05368,2090.61486 C544.964401,2090.70407 544.865147,2090.78331 544.755915,2090.85259 C544.811459,2090.61677 544.932905,2090.24925 545.120255,2089.75001 Z M241.224852,2057.39448 C241.386516,2057.43948 241.603897,2057.46143 241.877004,2057.46032 C242.15011,2057.45922 242.409868,2057.50838 242.656286,2057.60783 C243.949598,2057.96784 245.208358,2058.36452 246.432604,2058.79786 C247.656851,2059.23121 248.957987,2059.6551 250.336053,2060.06956 C250.660916,2060.80789 251.131747,2061.46344 251.74856,2062.03622 C251.412614,2063.11509 251.0959,2064.19159 250.798408,2065.26574 C250.500917,2066.33989 250.222657,2067.41167 249.963621,2068.4811 C249.056225,2071.89994 248.279511,2075.27026 247.633455,2078.59216 C246.987399,2081.91407 246.326047,2085.27022 245.649381,2088.66073 C245.079467,2091.64903 244.567243,2094.6302 244.112693,2097.60433 C243.658144,2100.57846 243.188296,2103.58685 242.703137,2106.62959 C242.718826,2106.75737 242.678794,2106.9082 242.583041,2107.08208 C242.487287,2107.25597 242.447256,2107.4068 242.462945,2107.53457 C242.56015,2109.59789 242.35914,2111.61672 241.859911,2113.59114 C241.360681,2115.56556 241.001932,2117.57134 240.783654,2119.60854 C240.69259,2120.13853 240.63606,2120.63185 240.614062,2121.08851 C240.592064,2121.54517 240.535534,2122.03849 240.444471,2122.56849 C240.133593,2124.48735 239.824681,2126.42216 239.517726,2128.37297 C239.210771,2130.32378 238.98269,2132.28109 238.833476,2134.24496 C238.781636,2135.09439 238.63366,2135.95562 238.389545,2136.82866 C238.145429,2137.7017 237.962921,2138.5996 237.842015,2139.52236 C236.496863,2140.01178 235.430332,2140.38593 234.642391,2140.6448 C233.854451,2140.90368 233.091248,2141.04603 232.352761,2141.07185 C231.614275,2141.09767 230.783202,2141.00516 229.859517,2140.79432 C228.935833,2140.58348 227.669612,2140.285 226.060817,2139.89887 C225.22112,2139.4183 224.738522,2138.66693 224.61301,2137.64471 C224.52672,2136.94194 224.427088,2136.28946 224.314111,2135.68724 C224.201133,2135.08502 224.139955,2134.42782 224.130576,2133.7156 C224.33163,2130.9023 224.436546,2128.10084 224.445326,2125.31115 C224.454106,2122.52146 224.589631,2119.65139 224.851907,2116.70087 C224.903748,2115.85143 224.980698,2115.04756 225.08276,2114.28924 C225.184823,2113.53092 225.257851,2112.6951 225.301848,2111.78178 L225.125347,2110.3443 C221.457214,2110.98925 218.381639,2111.69113 215.89853,2112.44998 C213.415421,2113.20883 211.371035,2114.0435 209.765311,2114.95403 C208.079438,2117.75509 206.353175,2120.54486 204.586471,2123.32341 C202.819766,2126.10197 201.178256,2128.94619 199.661892,2131.85614 C199.424854,2132.46891 199.079914,2132.99764 198.627071,2133.44235 C198.174225,2133.88706 197.786908,2134.38857 197.465118,2134.94689 L197.594552,2136.00105 C196.848988,2136.28715 196.122663,2136.57088 195.415554,2136.85226 C194.708448,2137.13363 193.974276,2137.35348 193.213023,2137.5118 C192.228886,2137.76234 191.227113,2137.86913 190.207676,2137.83217 C189.188238,2137.79521 188.216308,2137.50924 187.291856,2136.97423 C186.651509,2136.20978 186.630363,2135.40175 187.228416,2134.5501 C188.675706,2131.71348 190.199901,2128.86746 191.80102,2126.01195 C192.330008,2125.23364 192.818573,2124.44408 193.266729,2123.64326 C193.714885,2122.84244 194.20345,2122.05288 194.732438,2121.27456 C194.862724,2121.06401 194.952593,2120.84221 195.002047,2120.60916 C195.051501,2120.37611 195.137447,2120.12237 195.259889,2119.84793 C194.413882,2119.9518 193.685211,2120.05749 193.073856,2120.16498 C192.4625,2120.27247 191.814661,2120.40065 191.130318,2120.54953 C189.990826,2120.17063 188.880383,2119.86923 187.798957,2119.64533 C186.717531,2119.42143 185.614933,2119.18392 184.49113,2118.9328 C184.081514,2118.14002 183.928121,2117.52656 184.030952,2117.0924 C184.133782,2116.65824 184.542284,2116.17034 185.256469,2115.62869 C186.400735,2114.77483 187.560673,2114.04875 188.736317,2113.45044 C189.911961,2112.85212 191.257093,2112.36271 192.771754,2111.98218 C195.777542,2111.02945 198.937103,2110.05785 202.25053,2109.06735 L202.768516,2108.51736 L203.3901,2107.85738 L203.3901,2107.85738 C205.950287,2103.91135 208.599111,2100.05176 211.336651,2096.2785 C214.07419,2092.50524 216.884676,2088.69065 219.76819,2084.83462 C221.976742,2081.83967 224.202527,2078.82645 226.445611,2075.79484 C228.688695,2072.76323 230.91448,2069.75001 233.123031,2066.75507 C234.066411,2065.53676 235.025081,2064.28416 235.999071,2062.99724 C236.973061,2061.71033 237.927809,2060.42579 238.863344,2059.14359 C239.13176,2058.78638 239.440588,2058.44042 239.789836,2058.1057 C240.139085,2057.77099 240.617418,2057.53392 241.224852,2057.39448 Z M228.100382,2087.97522 C226.063156,2090.68548 224.008462,2093.41403 221.936238,2096.16095 C219.864014,2098.90788 217.813236,2101.66831 215.783841,2104.44235 L215.877812,2105.20768 C217.473503,2105.33546 219.061219,2105.23762 220.641006,2104.91417 C222.220785,2104.59071 223.917416,2104.41476 225.730926,2104.38631 C225.916937,2103.32763 226.145773,2102.29608 226.417442,2101.29163 C226.587792,2100.10539 226.760096,2098.93512 226.934361,2097.78078 C227.108625,2096.62643 227.323758,2095.48327 227.579765,2094.35126 C227.789269,2093.48391 228.000728,2092.63253 228.214147,2091.79707 C228.427567,2090.96162 228.600113,2090.11501 228.731791,2089.25723 C228.863951,2089.04678 228.931867,2088.79567 228.935541,2088.50389 C228.939215,2088.21211 228.660831,2088.03589 228.100382,2087.97522 Z M544.755915,2090.85259 C544.732508,2090.95196 544.720805,2091.02794 544.720805,2091.08054 L544.587655,2090.94749 C544.646151,2090.91826 544.702238,2090.88663 544.755915,2090.85259 Z" id="Awesome" transform="translate(379.938927, 2101.817495) rotate(-6.000000) translate(-379.938927, -2101.817495) "></path>
        </g>
    </g>
</svg>