<?xml version="1.0" encoding="UTF-8"?>
<svg width="144px" height="46px" viewBox="0 0 144 46" version="1.1" xmlns="http://www.w3.org/2000/svg" xmlns:xlink="http://www.w3.org/1999/xlink">
    <!-- Generator: Sketch 58 (84663) - https://sketch.com -->
    <title>Bottom_Line</title>
    <desc>Created with Sketch.</desc>
    <g id="Page-1" stroke="none" stroke-width="1" fill="none" fill-rule="evenodd">
        <g id="Myntra-Website" transform="translate(-398.000000, -2135.000000)" fill="#FF7342" fill-rule="nonzero">
            <path d="M542.085063,2148.10144 C540.061768,2147.43211 536.199658,2147.17805 530.498617,2147.33926 C524.797577,2147.50047 518.369272,2147.87224 511.21351,2148.45459 C504.057747,2149.03693 496.733997,2149.78813 489.242039,2150.7082 C481.750081,2151.62827 475.201635,2152.51249 469.596505,2153.36089 C455.637501,2155.44132 443.290915,2158.20545 432.556378,2161.65336 C421.821841,2165.10128 413.721511,2168.12533 408.255143,2170.72562 C412.729249,2170.39197 417.358883,2170.32081 422.144186,2170.51212 C426.929488,2170.70343 431.357867,2171.03707 435.429456,2171.51305 C439.501044,2171.98903 443.019949,2172.45952 445.986275,2172.92453 C448.952602,2173.38955 450.948191,2173.74219 451.973103,2173.98248 C453.645408,2174.40999 454.617248,2175.02779 454.888653,2175.83588 C455.024356,2176.23993 455.025121,2176.57688 454.890949,2176.84676 C454.432315,2176.68606 452.942542,2176.50074 450.421585,2176.29081 C447.900629,2176.08088 444.901187,2175.85182 441.42317,2175.60363 C437.945152,2175.35543 434.177421,2175.11464 430.119862,2174.88124 C426.062303,2174.64784 422.13974,2174.48153 418.352055,2174.3823 C414.564371,2174.28307 411.154256,2174.2369 408.121609,2174.24379 C405.088961,2174.25068 402.926042,2174.40385 401.632786,2174.70331 C400.798164,2175.16348 399.941745,2174.92281 399.063505,2173.98131 C398.185264,2173.03981 397.5426,2171.96301 397.135492,2170.75087 C396.511567,2169.02703 397.652779,2167.07009 400.559162,2164.87997 C403.465545,2162.68986 407.948639,2160.40858 414.008578,2158.03608 C420.068516,2155.66359 427.718765,2153.27403 436.959552,2150.86736 C446.20034,2148.46068 456.829752,2146.27327 468.848106,2144.30508 C475.153687,2143.26639 481.527023,2142.42975 487.968306,2141.79511 C494.409589,2141.16047 500.399545,2140.65491 505.938354,2140.27842 C511.477164,2139.90192 516.409829,2139.72898 520.736498,2139.75959 C525.063166,2139.7902 528.359007,2139.96467 530.624118,2140.28301 C536.098137,2141.05234 539.659129,2142.25056 541.307201,2143.87772 C542.955273,2145.50487 543.214558,2146.91277 542.085063,2148.10144 Z" id="Bottom_Line" transform="translate(469.872057, 2158.301446) rotate(-5.000000) translate(-469.872057, -2158.301446) "></path>
        </g>
    </g>
</svg>