<?xml version="1.0" encoding="UTF-8"?>
<svg width="505px" height="93px" viewBox="0 0 505 93" version="1.1" xmlns="http://www.w3.org/2000/svg" xmlns:xlink="http://www.w3.org/1999/xlink">
    <!-- Generator: Sketch 59.1 (86144) - https://sketch.com -->
    <title>ColourfulPlace</title>
    <desc>Created with Sketch.</desc>
    <defs>
        <linearGradient x1="0%" y1="50%" x2="99.2634596%" y2="50.3016639%" id="linearGradient-1">
            <stop stop-color="#F82E94" offset="0%"></stop>
            <stop stop-color="#FF9E33" offset="100%"></stop>
        </linearGradient>
    </defs>
    <g id="Assets" stroke="none" stroke-width="1" fill="none" fill-rule="evenodd">
        <g id="Artboard" transform="translate(-64.000000, -98.000000)" fill="url(#linearGradient-1)" fill-rule="nonzero">
            <path d="M106.601402,120.20313 C106.032449,121.947478 105.377755,123.659592 104.637305,125.339509 L104.259934,126.176785 C103.340333,128.172773 102.57401,130.184084 101.960943,132.210779 C98.5890722,132.640684 95.8303104,131.719473 93.6845746,129.447118 C93.3780409,128.464478 93.2554292,127.481852 93.316736,126.499212 C93.3780427,125.516572 93.5313073,124.5493 93.7765342,123.597368 C94.0217612,122.645435 94.3129638,121.693517 94.6501508,120.741584 C94.9873379,119.789652 95.2478876,118.82238 95.4318078,117.83974 C95.3398477,117.747617 95.2392675,117.681405 95.1300655,117.641102 L95.0179894,117.609435 C94.8647226,117.578727 94.6961316,117.50196 94.5122114,117.37913 L94.0064333,118.714899 L94.0064333,118.714899 C93.8531665,119.114097 93.6539226,119.467228 93.4086956,119.774303 C93.2247754,120.204208 92.9948786,120.557339 92.7189983,120.833706 C92.4431179,121.110074 92.1519153,121.463205 91.8453816,121.89311 C91.1710075,122.99858 90.481317,124.08868 89.7762896,125.163443 C89.3062712,125.879951 88.8430694,126.589628 88.3866778,127.292484 L87.7071975,128.341653 C86.0519156,130.859669 84.6112289,133.454414 83.3850941,136.125966 C82.1589593,138.797519 80.932843,141.484385 79.7067082,144.186646 C79.5840947,144.370891 79.5227889,144.677961 79.5227889,145.107866 C79.4001755,145.599186 79.3235432,146.121206 79.2928898,146.673941 C79.2622364,147.226676 79.1242984,147.748696 78.8790714,148.240016 C78.266004,149.836806 77.8828427,151.448926 77.7295758,153.076423 C77.576309,154.703921 77.3464122,156.346748 77.0398785,158.004953 C76.9785717,158.496273 76.9172659,159.033646 76.8559592,159.617089 C76.7946524,160.200531 76.7026937,160.830026 76.5800802,161.505591 L76.702693,162.406339 C76.7231285,162.563287 76.7435639,162.723648 76.7639995,162.887421 C76.8253063,163.378741 76.917265,163.870054 77.0398785,164.361374 L77.4077171,166.203815 C77.5303305,166.817965 77.6835951,167.432106 77.8675153,168.046256 C78.1127422,168.537576 78.5112301,169.059596 79.0629907,169.612331 C79.9825918,169.305256 80.7948939,168.906064 81.4999213,168.414744 C82.2049488,167.923424 82.9252922,167.401405 83.660973,166.848669 C84.7644943,166.173104 85.8066932,165.359368 86.787601,164.407435 C87.7685088,163.455503 88.718749,162.488231 89.6383501,161.505591 C91.538859,159.601725 93.3473806,157.605768 95.0639693,155.517658 C96.7805579,153.429547 98.4664679,151.310761 100.12175,149.161236 C100.612204,148.424256 101.056671,147.687287 101.455165,146.950307 C101.853659,146.213327 102.206167,145.414944 102.512701,144.555134 C102.594443,144.432304 102.676184,144.295827 102.757926,144.145703 L102.880539,143.910279 C103.003153,143.664619 103.125764,143.44967 103.248378,143.265425 L103.524257,142.989059 C103.585564,142.927644 103.708175,142.835523 103.892095,142.712693 C104.75039,143.019768 105.639324,143.326838 106.558925,143.633913 L109.317715,144.555134 C109.562941,144.677964 109.762185,144.831499 109.915452,145.015744 C110.068719,145.199989 110.267963,145.414938 110.51319,145.660598 C110.14535,146.336163 109.823494,146.981011 109.547614,147.595161 C109.271733,148.209311 109.103142,148.854159 109.041836,149.529724 C109.041836,149.836799 108.965203,150.14387 108.811936,150.450945 C108.65867,150.75802 108.459426,151.06509 108.214199,151.372165 C107.723745,152.04773 107.233298,152.692578 106.742844,153.306728 C106.252391,153.920878 105.82325,154.596433 105.455409,155.333413 C105.148876,156.070393 104.811694,156.776655 104.443853,157.452221 C104.076013,158.127786 103.646872,158.772633 103.156418,159.386784 C102.287906,160.410367 101.493908,161.433938 100.774409,162.457517 L100.351649,163.071665 C99.524008,164.299966 98.5890943,165.49754 97.5468797,166.664425 C96.8602443,167.303141 96.2226617,167.961502 95.63412,168.639521 L95.2019087,169.151721 C94.4968812,170.011531 93.6845792,170.779207 92.7649781,171.454772 C92.3971377,171.685078 92.0379225,171.941291 91.6873266,172.223415 L91.3396036,172.514175 C90.879803,172.913373 90.4046829,173.266504 89.914229,173.573579 C89.1172414,174.064899 88.2896129,174.479444 87.4313186,174.817227 C86.5730242,175.155009 85.6840899,175.323898 84.7644888,175.323898 C84.3966484,175.201068 84.013487,175.170361 83.6149932,175.231776 L82.4654976,175.41602 L82.4654976,175.41602 C80.0745349,175.53885 77.8521989,175.247133 75.7984232,174.54086 C73.7446475,173.834588 71.7675349,172.867316 69.867026,171.639016 C68.456971,170.717791 67.3687928,169.596984 66.6024585,168.276561 C65.8361243,166.956139 65.2690455,165.528261 64.9012051,163.992886 C64.3494444,162.334681 64.0735682,160.645793 64.0735682,158.926173 C63.9509548,157.145138 63.9816077,155.36413 64.1655279,153.583095 C64.3494481,151.802059 64.5946714,150.021051 64.9012051,148.240016 C65.2690455,146.274736 65.7441656,144.370899 66.3265796,142.528449 C66.9089936,140.685999 67.5986841,138.843576 68.3956717,137.001126 C69.0700458,135.527166 69.8057156,134.083935 70.6027032,132.67139 L72.993654,128.433775 C73.6680281,127.328305 74.3577186,126.238205 75.0627461,125.163443 C75.7677735,124.08868 76.4881169,122.99858 77.2237978,121.89311 C77.8981719,120.78764 78.6491681,119.728247 79.4768091,118.714899 C80.3044501,117.701552 81.1474051,116.703573 82.0056994,115.720933 C82.802687,115.536688 83.5077039,115.321738 84.1207713,115.076078 L83.7529327,113.233637 C85.9599752,110.592792 88.2895963,108.013401 90.7418659,105.495385 C93.1941354,102.97737 96.1368146,100.919998 99.569992,99.3232081 L101.593104,99.3232081 C101.960945,99.3846231 102.313453,99.4767442 102.65064,99.5995742 C102.987827,99.7224042 103.370989,99.8452324 103.800136,99.9680624 C104.47451,99.6609874 105.041589,99.2310888 105.501389,98.6783537 C105.96119,98.1256187 106.65088,97.9106694 107.570481,98.0334994 C108.244855,98.1563294 108.811934,98.4787533 109.271735,99.0007809 C109.731535,99.5228084 110.267961,99.9373535 110.881029,100.244429 L111.8581,100.785646 C112.172295,100.962212 112.474994,101.134941 112.766201,101.303832 C113.348615,101.641615 113.946347,101.994746 114.559414,102.363236 L114.881273,103.192334 L114.881273,103.192334 L115.114046,103.796885 C115.142783,103.869814 115.172479,103.944664 115.203132,104.021433 C114.881272,104.620229 114.576657,105.227655 114.289283,105.843721 L114.007657,106.462667 C113.639816,107.291769 113.241328,108.105506 112.812181,108.903901 C111.156899,111.790406 109.716212,114.615454 108.490078,117.37913 C108.244851,117.87045 107.984301,118.315702 107.708421,118.714899 L107.013615,119.738476 C106.873973,119.946604 106.72241,120.173497 106.558925,120.419157 L106.601402,120.20313 L106.601402,120.20313 Z M131.084163,132.947756 C131.268083,132.763511 131.440967,132.595849 131.602815,132.444769 L132.220784,131.884667 C132.382633,131.733587 132.555517,131.565926 132.739437,131.381681 C133.781651,131.934416 134.86983,132.456436 136.004004,132.947756 C137.138179,133.439076 138.226357,133.991802 139.268572,134.605953 C140.494706,135.281518 141.69017,135.880305 142.854998,136.402332 C144.019826,136.92436 145.184637,137.461733 146.349465,138.014468 C147.391679,138.505788 148.51051,138.889626 149.705992,139.165994 C150.901473,139.442361 152.08161,140.010442 153.246438,140.870252 C153.148347,141.115912 153.050258,141.312438 152.952167,141.459833 L152.878599,141.561167 C152.755986,141.714705 152.664027,141.883593 152.602721,142.067838 C151.928346,142.497744 151.269309,142.866228 150.625588,143.173303 L149.384134,143.759199 C149.089863,143.896768 148.783331,144.03925 148.464536,144.186646 C147.422322,144.063816 146.334144,143.86422 145.199969,143.587852 C144.065794,143.311485 142.977616,142.927647 141.935401,142.436327 C141.567561,142.681987 141.368317,142.942997 141.337664,143.219364 C141.30701,143.495732 141.291684,143.787448 141.291684,144.094524 C141.352991,145.322824 141.337664,146.566459 141.245704,147.825466 C141.153744,149.084474 140.923847,150.358816 140.556007,151.648531 C140.249473,152.139852 139.927618,152.631164 139.59043,153.122484 C139.253243,153.613804 138.931388,154.197238 138.624854,154.872803 C138.624854,155.057048 138.640181,155.256644 138.670834,155.471596 C138.701487,155.686549 138.747467,155.947559 138.808773,156.254634 C138.563547,156.696822 138.357558,157.148831 138.190805,157.61067 L138.073096,157.958892 C137.889176,158.542334 137.643953,159.079708 137.337419,159.571028 C136.479125,160.737913 135.63617,161.920134 134.808529,163.117727 C133.980888,164.315319 133.045974,165.374712 132.00376,166.295937 C127.712288,169.673762 123.053046,170.380024 118.025893,168.414744 C117.780666,168.31648 117.506016,168.188739 117.201935,168.031517 L116.968357,167.908073 C116.569864,167.69312 116.217355,167.524232 115.910821,167.401402 L115.292966,166.998367 C114.700976,166.606848 114.18658,166.249878 113.74977,165.927449 C113.167356,165.497544 112.676909,165.036938 112.278415,164.545618 C111.879922,164.054298 111.512087,163.455511 111.1749,162.749238 C110.837713,162.042966 110.454551,161.167815 110.025404,160.12376 C109.71887,157.4215 109.749523,154.857462 110.117364,152.431569 C110.485204,150.005676 111.128915,147.62588 112.048516,145.29211 C112.906811,143.08117 113.857051,140.993091 114.899265,139.027811 C115.94148,137.062531 117.014332,135.158694 118.117853,133.316244 C118.547,132.640679 118.960814,132.057245 119.359308,131.565925 C119.757802,131.074605 120.171616,130.583292 120.600763,130.091972 C120.968604,129.662067 121.367092,129.308936 121.796239,129.032569 C122.225386,128.756201 122.746485,128.587312 123.359553,128.525897 C124.708301,129.201462 125.995723,129.923078 127.221858,130.690765 C128.447993,131.458453 129.735415,132.210776 131.084163,132.947756 Z M122.991714,162.242567 C124.401769,161.198512 125.704518,160.139119 126.899999,159.064356 C128.095481,157.989594 129.153006,156.684544 130.072607,155.149169 C131.053515,153.552379 131.773858,151.894199 132.233659,150.174579 C132.693459,148.454959 133.015315,146.704657 133.199235,144.923622 C133.444462,142.221362 133.444462,140.041162 133.199235,138.382957 C132.954008,136.724751 132.463562,135.28152 131.727881,134.05322 L131.209228,135.186321 C131.101329,135.419697 130.998335,135.640789 130.900244,135.8496 C130.655017,136.371628 130.409794,136.878294 130.164567,137.369614 L129.831213,137.542343 C129.73159,137.596081 129.643462,137.64598 129.566829,137.692041 C129.413562,137.784164 129.275624,137.860931 129.153011,137.922346 C128.87713,138.567204 128.618495,139.229327 128.377101,139.908727 L128.141454,140.593886 C127.834921,141.515111 127.528392,142.374908 127.221858,143.173303 C126.670097,144.463018 126.133671,145.768067 125.612564,147.08849 C125.091457,148.408913 124.677643,149.806083 124.371109,151.280043 L124.00327,152.753996 C122.961056,155.149181 122.286692,157.943522 121.980158,161.137102 C121.980158,161.259932 122.010811,161.367407 122.072118,161.45953 C122.133424,161.551652 122.19473,161.659127 122.256037,161.781957 L122.623876,161.966201 C122.746489,162.027616 122.869101,162.119737 122.991714,162.242567 Z M159.563666,159.478906 C159.931506,159.478906 160.207383,159.356077 160.391303,159.110417 C160.575223,158.864757 160.75914,158.649808 160.943061,158.465563 C161.740048,157.544338 162.475718,156.63848 163.150092,155.747963 C163.824466,154.857445 164.560136,154.013001 165.357124,153.214606 C166.031498,152.293381 166.782494,151.418231 167.610135,150.589128 C168.437776,149.760025 169.280731,148.976996 170.139025,148.240016 C170.445559,147.810111 170.82872,147.487687 171.288521,147.272734 C171.748321,147.057782 172.223442,146.796772 172.713895,146.489697 C173.633497,146.305452 174.369166,146.581815 174.920927,147.318795 C174.874947,147.410918 174.84621,147.511676 174.834715,147.62107 L174.828967,147.733344 C174.828967,147.886882 174.798314,148.025064 174.737008,148.147894 C174.246554,148.700629 173.740781,149.222648 173.219674,149.713968 C172.698566,150.205289 172.192793,150.696601 171.702339,151.187921 C169.740524,153.337446 167.840043,155.533 166.000841,157.774648 C164.161639,160.016295 162.353117,162.334677 160.575222,164.729862 C160.084768,165.221182 159.640301,165.804616 159.241807,166.480181 L158.741547,167.320335 C158.480382,167.75515 158.202665,168.212073 157.908392,168.69111 C157.693819,168.798587 157.479248,168.788511 157.264675,168.660883 L157.172715,168.598988 C156.927488,168.414743 156.590306,168.322622 156.161159,168.322622 C155.875061,168.404509 155.588966,168.500042 155.302869,168.609224 L154.873724,168.783232 C154.444577,168.967477 153.984783,169.121013 153.494329,169.243843 C153.264429,169.15172 153.034531,169.085508 152.804632,169.045205 L152.574733,169.013538 C152.268199,168.98283 151.96167,168.906062 151.655136,168.783232 C150.183775,168.291912 149.018964,167.524236 148.16067,166.480181 C147.302375,165.436126 146.71997,164.207844 146.413436,162.795299 C146.106903,161.505584 145.922985,160.200535 145.861679,158.880112 C145.81059,157.77976 145.823362,156.711408 145.899995,155.675034 L145.953638,155.057047 C146.051729,153.877879 146.189054,152.708551 146.365617,151.549042 L146.505396,150.68125 C146.750623,149.237997 146.934541,147.779413 147.057154,146.305453 C147.363688,143.418947 147.792828,140.547839 148.344589,137.692041 C148.89635,134.836243 149.509408,131.995842 150.183782,129.170752 C152.022984,121.432461 154.996316,114.154892 159.103868,107.337826 C159.333768,106.969336 159.563666,106.626759 159.793565,106.31009 L160.023464,106.002057 C160.329998,105.602859 160.636527,105.188314 160.943061,104.758409 C161.126981,104.574164 161.326225,104.405275 161.540798,104.251738 L161.990379,103.924193 C162.068714,103.86619 162.148753,103.806481 162.230496,103.745066 L165.152767,104.604872 C165.636406,104.748172 166.118343,104.891473 166.598579,105.034775 C168.039287,105.46468 169.464648,105.9867 170.874703,106.60085 C171.058623,107.09217 171.24254,107.537422 171.42646,107.93662 L171.661877,108.437764 C171.786942,108.69939 171.923042,108.977597 172.070178,109.272389 L171.334501,112.185749 C171.089276,113.145351 170.844051,114.093438 170.598824,115.030017 C170.10837,116.903175 169.648576,118.822365 169.219429,120.787645 C168.912895,122.3742 168.531862,123.950072 168.07632,125.515295 L167.794054,126.453151 C167.21164,128.326309 166.73652,130.214792 166.36868,132.118657 C166.270589,132.511713 166.123455,132.894938 165.927274,133.26834 L165.770942,133.546549 C165.495062,134.007162 165.234512,134.544535 164.989285,135.158685 L165.173204,135.711417 C163.94707,140.133298 162.843565,144.555112 161.862657,148.976992 C161.43351,150.450952 161.035022,151.909537 160.667182,153.352789 L159.931505,156.218807 C159.808892,156.693064 159.686279,157.165616 159.563666,157.636465 C159.502359,157.94354 159.487033,158.25061 159.517686,158.557685 C159.54834,158.86476 159.563666,159.171831 159.563666,159.478906 Z M190.618039,132.947756 C190.801959,132.763511 190.974843,132.595849 191.136691,132.444769 L191.75466,131.884667 C191.916509,131.733587 192.089392,131.565926 192.273313,131.381681 C193.315527,131.934416 194.403705,132.456436 195.53788,132.947756 C196.672055,133.439076 197.760233,133.991802 198.802447,134.605953 C200.028582,135.281518 201.224046,135.880305 202.388874,136.402332 C203.553702,136.92436 204.718512,137.461733 205.88334,138.014468 C206.925555,138.505788 208.044386,138.889626 209.239867,139.165994 C210.435349,139.442361 211.615486,140.010442 212.780314,140.870252 C212.682223,141.115912 212.584133,141.312438 212.486043,141.459833 L212.412475,141.561167 C212.289862,141.714705 212.197903,141.883593 212.136596,142.067838 C211.462222,142.497744 210.803185,142.866228 210.159464,143.173303 L208.918009,143.759199 C208.623739,143.896768 208.317207,144.03925 207.998412,144.186646 C206.956198,144.063816 205.868019,143.86422 204.733845,143.587852 C203.59967,143.311485 202.511492,142.927647 201.469277,142.436327 C201.101437,142.681987 200.902193,142.942997 200.87154,143.219364 C200.840886,143.495732 200.82556,143.787448 200.82556,144.094524 C200.886866,145.322824 200.87154,146.566459 200.77958,147.825466 C200.68762,149.084474 200.457723,150.358816 200.089883,151.648531 C199.783349,152.139852 199.461493,152.631164 199.124306,153.122484 C198.787119,153.613804 198.465264,154.197238 198.15873,154.872803 C198.15873,155.057048 198.174056,155.256644 198.20471,155.471596 C198.235363,155.686549 198.281343,155.947559 198.342649,156.254634 C198.097422,156.696822 197.891434,157.148831 197.724681,157.61067 L197.606972,157.958892 C197.423052,158.542334 197.177829,159.079708 196.871295,159.571028 C196.013001,160.737913 195.170046,161.920134 194.342405,163.117727 C193.514764,164.315319 192.57985,165.374712 191.537635,166.295937 C187.246164,169.673762 182.586922,170.380024 177.559769,168.414744 C177.314542,168.31648 177.039891,168.188739 176.735811,168.031517 L176.502233,167.908073 C176.103739,167.69312 175.751231,167.524232 175.444697,167.401402 L174.826842,166.998367 C174.234852,166.606848 173.720456,166.249878 173.283645,165.927449 C172.701231,165.497544 172.210785,165.036938 171.812291,164.545618 C171.413797,164.054298 171.045962,163.455511 170.708775,162.749238 C170.371588,162.042966 169.988427,161.167815 169.55928,160.12376 C169.252746,157.4215 169.283399,154.857462 169.651239,152.431569 C170.01908,150.005676 170.662791,147.62588 171.582392,145.29211 C172.440686,143.08117 173.390926,140.993091 174.433141,139.027811 C175.475356,137.062531 176.548207,135.158694 177.651729,133.316244 C178.080876,132.640679 178.49469,132.057245 178.893184,131.565925 C179.291678,131.074605 179.705492,130.583292 180.134639,130.091972 C180.50248,129.662067 180.900967,129.308936 181.330115,129.032569 C181.759262,128.756201 182.280361,128.587312 182.893429,128.525897 C184.242177,129.201462 185.529599,129.923078 186.755734,130.690765 C187.981868,131.458453 189.269291,132.210776 190.618039,132.947756 Z M182.52559,162.242567 C183.935645,161.198512 185.238394,160.139119 186.433875,159.064356 C187.629356,157.989594 188.686882,156.684544 189.606483,155.149169 C190.587391,153.552379 191.307734,151.894199 191.767534,150.174579 C192.227335,148.454959 192.549191,146.704657 192.733111,144.923622 C192.978338,142.221362 192.978338,140.041162 192.733111,138.382957 C192.487884,136.724751 191.997437,135.28152 191.261756,134.05322 L190.743104,135.186321 C190.635205,135.419697 190.53221,135.640789 190.43412,135.8496 C190.188893,136.371628 189.943669,136.878294 189.698442,137.369614 L189.365089,137.542343 C189.265466,137.596081 189.177338,137.64598 189.100705,137.692041 C188.947438,137.784164 188.8095,137.860931 188.686886,137.922346 C188.411006,138.567204 188.152371,139.229327 187.910977,139.908727 L187.67533,140.593886 C187.368797,141.515111 187.062267,142.374908 186.755734,143.173303 C186.203973,144.463018 185.667547,145.768067 185.14644,147.08849 C184.625333,148.408913 184.211518,149.806083 183.904985,151.280043 L183.537146,152.753996 C182.494932,155.149181 181.820568,157.943522 181.514034,161.137102 C181.514034,161.259932 181.544687,161.367407 181.605993,161.45953 C181.6673,161.551652 181.728606,161.659127 181.789913,161.781957 L182.157751,161.966201 C182.280365,162.027616 182.402976,162.119737 182.52559,162.242567 Z M236.477915,126.8677 C237.336209,127.051946 238.133185,127.312955 238.868866,127.650738 C239.604547,127.98852 240.248258,128.310944 240.800018,128.618019 C241.106552,129.109339 241.198511,129.493177 241.075897,129.769545 C240.953284,130.045913 240.830672,130.306922 240.708059,130.552582 C240.891979,130.921072 241.06057,131.274203 241.213837,131.611986 C241.367104,131.949769 241.566348,132.272192 241.811575,132.579267 L241.73111,132.91321 C241.719615,132.963109 241.709078,133.01013 241.699499,133.054272 L241.673635,133.178061 C241.642982,133.331598 241.597002,133.531194 241.535696,133.776854 C241.351775,135.619304 241.060573,137.415666 240.662079,139.165994 C240.263585,140.916322 239.849771,142.681977 239.420624,144.463012 L238.439721,148.495908 L236.968367,154.509431 C236.804883,155.181579 236.6414,155.855435 236.477915,156.531 C235.987461,158.680525 235.542994,160.830018 235.1445,162.979543 C234.746006,165.129069 234.454804,167.309269 234.270883,169.520209 C234.209577,169.643039 234.178924,169.796574 234.178924,169.980819 C234.178924,170.165064 234.148271,170.349306 234.086964,170.533551 C233.59651,170.779211 233.136717,170.9481 232.707569,171.040223 C232.278422,171.132345 231.818629,171.23982 231.328175,171.36265 C229.611586,171.11699 228.048288,170.502849 226.638233,169.520209 C226.331699,168.353324 226.178435,167.20181 226.178435,166.065632 C226.178435,164.929454 226.23974,163.808647 226.362354,162.703177 C226.362354,161.867933 226.391781,161.013047 226.450635,160.138501 L226.500293,159.478906 C226.592253,158.373435 226.668886,157.206568 226.730192,155.978268 C226.239739,156.162513 225.88723,156.392816 225.672656,156.669183 C225.511726,156.876459 225.324935,157.092368 225.112278,157.316916 L224.890999,157.544343 C224.686644,157.749059 224.495913,157.953774 224.318806,158.158489 L224.063363,158.465563 C223.818136,158.772638 223.54226,159.079709 223.235726,159.386784 C222.990499,159.632444 222.755084,159.838796 222.529476,160.005844 L222.362109,160.12376 C222.086229,160.308005 221.825679,160.522954 221.580452,160.768614 C221.28618,161.014274 221.031147,161.259931 220.815348,161.50559 L220.660856,161.689835 C220.415629,161.99691 220.139753,162.242566 219.833219,162.426811 C219.261023,162.508698 218.695644,162.58376 218.137075,162.651998 L217.304329,162.749238 C216.476688,162.841361 215.633733,162.948835 214.775438,163.071665 C214.468905,163.13308 214.162376,163.13308 213.855842,163.071665 C213.549308,163.01025 213.212126,162.918129 212.844286,162.795299 C211.679458,162.549639 210.591279,162.181155 209.579718,161.689835 C208.568157,161.198515 207.571938,160.615081 206.59103,159.939516 C206.039269,159.141121 205.640781,158.358091 205.395554,157.590404 C205.150327,156.822716 204.997063,156.008979 204.935756,155.149169 C204.813143,153.613794 204.859122,152.109149 205.073696,150.635189 C205.288269,149.161229 205.579472,147.687291 205.947312,146.213331 C206.437766,144.555125 206.974192,142.958359 207.556606,141.422984 C208.13902,139.887609 208.767405,138.352257 209.441779,136.816882 C209.809619,136.141317 210.192781,135.542529 210.591274,135.020502 C210.989768,134.498474 211.556847,134.114636 212.292528,133.868976 C212.476448,133.009166 212.721671,132.395025 213.028205,132.026535 C213.212125,131.71946 213.426696,131.504511 213.671923,131.381681 C213.91715,131.258851 214.193026,131.074609 214.499559,130.828949 C215.787001,131.320269 216.982464,131.888349 218.085986,132.533206 C219.189507,133.178064 220.293012,133.868972 221.396533,134.605953 C221.580453,134.667368 221.733718,134.913024 221.856331,135.342929 C221.672411,136.509814 221.28925,137.523146 220.706836,138.382957 C220.124422,139.242767 219.649301,140.194685 219.281461,141.23874 C219.077105,141.893833 218.86594,142.54892 218.647962,143.204009 L218.315885,144.186646 C217.978698,145.169286 217.656842,146.182618 217.350308,147.226673 C217.166388,148.270728 216.967144,149.299414 216.752571,150.312762 C216.537997,151.326109 216.369406,152.354795 216.246793,153.39885 C216.614633,153.705925 216.875183,153.798047 217.02845,153.675217 C217.181717,153.552387 217.350308,153.429558 217.534228,153.306728 C218.576442,152.446918 219.511356,151.541061 220.338997,150.589128 C221.00111,149.827582 221.633788,149.036566 222.237043,148.216066 L222.683968,147.595161 C224.15533,145.568466 225.596016,143.526448 227.006071,141.469045 C228.416126,139.411642 229.82616,137.30821 231.236215,135.158685 C231.787976,134.36029 232.278422,133.515846 232.707569,132.625329 C233.136717,131.734811 233.59651,130.85966 234.086964,129.99985 C234.393498,129.447115 234.715353,128.909742 235.05254,128.387714 C235.389728,127.865687 235.864848,127.359021 236.477915,126.8677 Z M209.441779,142.159961 L209.309005,142.299061 L209.309005,142.299061 L209.349819,142.067838 L209.349819,142.067838 L209.441779,141.971806 L209.441779,141.971806 L209.441779,142.159961 Z M211.556851,141.883594 C211.495544,141.945009 211.464891,142.037131 211.464891,142.159961 L211.74077,141.883594 L211.556851,141.883594 Z M249.967995,129.723484 C250.274529,129.723484 250.519752,129.692777 250.703673,129.631362 C250.887593,129.569947 251.132816,129.600654 251.43935,129.723484 C252.604178,130.276219 253.784315,130.736825 254.979796,131.105315 C256.175278,131.473805 257.294109,131.995824 258.336323,132.67139 C259.010697,133.40837 259.163962,134.176046 258.796121,134.974441 C258.550895,135.834251 258.290345,136.709402 258.014464,137.599919 C257.738584,138.490437 257.294117,139.304173 256.68105,140.041153 C256.736226,140.704435 256.580356,141.355272 256.213435,141.993679 L256.083312,142.206022 C255.623511,142.912294 255.45492,143.664617 255.577534,144.463012 C256.067988,144.463012 256.389843,144.340184 256.54311,144.094524 C256.696377,143.848864 256.864968,143.603207 257.048888,143.357547 C257.355422,143.111887 257.631298,142.850877 257.876525,142.57451 C258.121752,142.298142 258.397628,142.006425 258.704162,141.69935 C259.072002,141.20803 259.531796,140.778132 260.083557,140.409642 C260.267477,140.225397 260.466721,140.010447 260.681294,139.764787 C260.842224,139.580542 261.029016,139.396299 261.241673,139.212055 L261.462951,139.027811 C261.708178,138.831283 261.914166,138.634757 262.08092,138.43823 L262.198628,138.290834 C262.382549,138.045174 262.658425,137.768811 263.026265,137.461736 C263.210185,137.154661 263.409429,136.924358 263.624003,136.770821 C263.752747,136.678698 263.898043,136.569995 264.059891,136.444709 L264.40566,136.172027 C264.650887,135.975499 264.866684,135.798626 265.053056,135.641405 L265.187317,135.527173 C265.401891,135.342928 265.631787,135.158686 265.877014,134.974441 C266.106915,134.790196 266.310949,134.605953 266.48912,134.421709 L266.658671,134.237464 C266.873245,133.991804 267.103142,133.807562 267.348369,133.684732 C267.654902,133.377657 267.976758,133.116647 268.313945,132.901695 C268.651132,132.686742 268.911682,132.487146 269.095602,132.302901 C269.402136,132.057241 269.693338,131.842292 269.969219,131.658047 C270.245099,131.473802 270.536302,131.28956 270.842835,131.105315 C271.762436,131.617106 272.724599,132.064919 273.729345,132.448761 L274.337302,132.67139 C275.563437,133.101295 276.697594,133.592607 277.739809,134.145342 C278.414183,134.882322 278.720712,135.603938 278.659405,136.31021 C278.598098,137.016483 278.690057,137.707391 278.935284,138.382957 C278.567444,139.488427 278.182365,140.585248 277.780042,141.673439 L277.37197,142.758754 C276.82021,144.202006 276.29911,145.722005 275.808656,147.318795 C275.706478,147.728229 275.540441,148.180306 275.310542,148.675036 L275.164939,148.976992 C274.858405,149.591142 274.613182,150.189929 274.429261,150.773372 C274.245341,151.356815 274.153383,151.832774 274.153383,152.201264 C274.153383,152.569754 274.398606,152.723289 274.88906,152.661874 C275.134287,152.600459 275.762671,152.17056 276.774232,151.372165 C277.785794,150.57377 278.858645,149.667913 279.99282,148.654565 C281.126995,147.641217 282.199847,146.643238 283.211408,145.660598 L283.621474,145.256388 C284.394688,144.481809 284.886386,143.910281 285.09658,143.541791 C285.257511,143.649267 285.559251,143.768497 286.001808,143.899484 L286.536147,144.051875 C286.89112,144.15537 287.116286,144.231 287.211652,144.278768 C287.395573,144.708673 287.472205,145.077157 287.441551,145.384232 C287.410898,145.691307 287.334266,145.998378 287.211652,146.305453 L286.822533,146.794234 C286.206936,147.557095 285.447704,148.453566 284.544823,149.483663 C283.441301,150.742671 282.230511,151.970953 280.912417,153.168545 C279.594322,154.366138 278.276247,155.440884 276.958152,156.392817 C275.640057,157.34475 274.45992,157.943537 273.417705,158.189197 C272.682024,158.127782 272.05364,158.035661 271.532533,157.912831 C271.011425,157.790001 270.490326,157.605759 269.969219,157.360098 C269.448111,157.114438 268.881032,156.807368 268.267965,156.438878 C267.654898,156.070388 266.949881,155.609782 266.152893,155.057047 C265.662439,153.337427 265.524501,151.617833 265.739075,149.898213 C265.953648,148.178592 266.214198,146.520412 266.520732,144.923622 C266.275505,144.739377 266.076261,144.647256 265.922994,144.647256 C265.769727,144.647256 265.616463,144.677963 265.463196,144.739378 C265.309929,144.800793 265.171991,144.8315 265.049377,144.8315 C264.926764,144.8315 264.804152,144.770086 264.681539,144.647256 C264.313698,145.691311 263.869231,146.551108 263.348124,147.226673 C262.827017,147.902238 262.290591,148.577793 261.73883,149.253358 C260.022242,151.341468 258.366984,153.475608 256.773009,155.655841 C255.179034,157.836073 253.707694,160.123748 252.358946,162.518933 C251.929799,162.948838 251.592617,163.409444 251.34739,163.900764 C251.16347,163.992886 250.970931,164.059099 250.769769,164.099402 L250.565733,164.131069 C250.289853,164.161777 249.967997,164.238544 249.600157,164.361374 C249.477543,164.484204 249.324279,164.821982 249.140359,165.374717 C249.262972,165.681792 249.370257,165.988862 249.462217,166.295937 C249.554177,166.603012 249.661463,166.94079 249.784076,167.30928 C249.293622,167.43211 248.833829,167.539584 248.404681,167.631707 C247.975534,167.723829 247.546393,167.708476 247.117246,167.585646 C245.891112,167.339986 244.787607,166.864027 243.806699,166.157754 C242.825791,165.451482 242.090121,164.392089 241.599667,162.979543 C241.293135,161.874073 241.216502,160.691852 241.369768,159.432845 C241.523035,158.173837 241.660973,156.930202 241.783587,155.701902 C242.09012,153.920866 242.39665,152.185919 242.703183,150.497006 C243.009717,148.808093 243.346899,147.103852 243.714739,145.384232 C244.143887,143.296122 244.64966,141.23875 245.232074,139.212055 C245.814488,137.18536 246.565484,135.250816 247.485085,133.408366 C247.791619,132.732801 248.128801,132.103306 248.496641,131.519864 C248.864481,130.936421 249.354928,130.337634 249.967995,129.723484 Z M294.356517,152.846118 C293.988677,153.705928 293.712801,154.611786 293.52888,155.563719 C293.34496,156.515651 293.191696,157.482923 293.069082,158.465563 C292.394708,162.150463 291.78165,165.866016 291.229889,169.612331 C290.678128,173.358646 290.218335,177.135612 289.850494,180.943343 C289.727881,182.601548 289.620596,184.229021 289.528636,185.825811 C289.436676,187.422602 289.543961,189.019368 289.850494,190.616158 C289.360041,190.923233 288.823615,191.046061 288.241201,190.984646 C287.658787,190.923231 287.122361,190.923231 286.631907,190.984646 C286.239544,190.83725 285.886421,190.68003 285.572532,190.512982 L285.344472,190.385853 C284.976631,190.1709 284.547491,189.971305 284.057037,189.787059 C283.750503,189.602814 283.428647,189.387865 283.09146,189.142205 C282.754273,188.896545 282.432418,188.712303 282.125884,188.589473 C281.63543,187.913908 281.298248,187.238353 281.114328,186.562788 C280.930408,185.887223 280.807796,185.211668 280.746489,184.536103 C280.256035,181.158277 280.164077,177.841917 280.47061,174.586922 L280.838449,167.585646 C280.961062,165.251876 281.175633,162.91814 281.482167,160.58437 C281.97262,156.838055 282.478393,153.091796 282.999501,149.34548 C283.520608,145.599165 284.240951,141.883613 285.160552,138.198712 C285.834927,135.742112 286.585923,133.362316 287.413564,131.059254 C288.241205,128.756191 289.268077,126.52993 290.494212,124.380405 C291.107279,123.152105 291.766317,121.985237 292.471344,120.879767 C293.176372,119.774297 293.958021,118.760965 294.816315,117.83974 C295.245463,117.409835 295.674603,117.04135 296.10375,116.734275 C296.447068,116.488615 296.829617,116.262611 297.251406,116.056257 L297.575105,115.905177 C299.720841,114.861122 301.805238,115.260313 303.828361,117.102763 C304.686655,117.778328 305.498957,118.499944 306.265291,119.267632 L308.518303,121.524622 C310.602732,123.551317 311.154484,125.885052 310.173576,128.525897 C310.173576,128.710142 310.081618,128.894385 309.897697,129.07863 C309.836391,129.20146 309.652473,129.354995 309.34594,129.53924 C308.058498,129.66207 306.863035,129.40106 305.759513,128.756202 C304.655992,128.111345 303.644446,127.266901 302.724845,126.222846 C302.050471,126.836996 301.514045,127.527905 301.115551,128.295592 C300.717057,129.06328 300.364549,129.815602 300.058015,130.552582 C299.138414,132.702108 298.356765,134.897661 297.713044,137.139309 C297.069323,139.380957 296.502245,141.637924 296.011791,143.910279 C295.950484,144.033109 295.935158,144.186645 295.965811,144.37089 C295.996464,144.555135 296.011791,144.70867 296.011791,144.8315 C296.195711,145.19999 296.563546,145.322818 297.115307,145.199988 C298.157521,144.892913 299.153741,144.800792 300.103995,144.923622 C301.054249,145.046452 302.050469,145.322815 303.092684,145.75272 C303.583137,146.305455 304.104237,146.858182 304.655998,147.410917 L306.403231,149.161236 C306.832378,149.406896 306.832378,149.836795 306.403231,150.450945 C305.728857,150.450945 305.054493,150.466298 304.380119,150.497006 C303.705745,150.527713 303.031381,150.573774 302.357006,150.635189 C301.049129,150.744371 299.886587,150.926339 298.869353,151.181097 L298.494701,151.280043 C297.75902,151.464288 297.054003,151.694591 296.379629,151.970959 C295.705255,152.247326 295.030891,152.539043 294.356517,152.846118 Z M341.227949,126.8677 C342.086244,127.051946 342.883219,127.312955 343.6189,127.650738 C344.354581,127.98852 344.998292,128.310944 345.550053,128.618019 C345.856586,129.109339 345.948545,129.493177 345.825932,129.769545 C345.703318,130.045913 345.580707,130.306922 345.458093,130.552582 C345.642013,130.921072 345.810604,131.274203 345.963871,131.611986 C346.117138,131.949769 346.316382,132.272192 346.561609,132.579267 L346.481144,132.91321 C346.469649,132.963109 346.459112,133.01013 346.449533,133.054272 L346.423669,133.178061 C346.393016,133.331598 346.347037,133.531194 346.28573,133.776854 C346.10181,135.619304 345.810607,137.415666 345.412113,139.165994 C345.013619,140.916322 344.599805,142.681977 344.170658,144.463012 L343.189756,148.495908 L343.189756,148.495908 L341.718401,154.509431 C341.554918,155.181579 341.391434,155.855435 341.227949,156.531 C340.737495,158.680525 340.293028,160.830018 339.894534,162.979543 C339.496041,165.129069 339.204838,167.309269 339.020918,169.520209 C338.974938,169.612331 338.9462,169.721726 338.934706,169.848393 L338.928958,169.980819 C338.928958,170.165064 338.898305,170.349306 338.836999,170.533551 C338.346545,170.779211 337.886751,170.9481 337.457604,171.040223 C337.028457,171.132345 336.568663,171.23982 336.078209,171.36265 C334.36162,171.11699 332.798322,170.502849 331.388267,169.520209 C331.081733,168.353324 330.928469,167.20181 330.928469,166.065632 C330.928469,164.929454 330.989775,163.808647 331.112388,162.703177 C331.112388,161.867933 331.141815,161.013047 331.200669,160.138501 L331.250328,159.478906 C331.342288,158.373435 331.41892,157.206568 331.480227,155.978268 C330.989773,156.162513 330.637264,156.392816 330.422691,156.669183 C330.261761,156.876459 330.074969,157.092368 329.862312,157.316916 L329.641034,157.544343 C329.436678,157.749059 329.245948,157.953774 329.068841,158.158489 L328.813397,158.465563 C328.56817,158.772638 328.292294,159.079709 327.98576,159.386784 C327.740533,159.632444 327.505118,159.838796 327.27951,160.005844 L327.112144,160.12376 C326.836263,160.308005 326.575713,160.522954 326.330487,160.768614 C326.036214,161.014274 325.781181,161.259931 325.565383,161.50559 L325.41089,161.689835 C325.165663,161.99691 324.889787,162.242566 324.583253,162.426811 C324.011057,162.508698 323.445678,162.58376 322.88711,162.651998 L322.054363,162.749238 C321.226722,162.841361 320.383767,162.948835 319.525473,163.071665 C319.218939,163.13308 318.91241,163.13308 318.605876,163.071665 C318.299342,163.01025 317.96216,162.918129 317.59432,162.795299 C316.429492,162.549639 315.341314,162.181155 314.329753,161.689835 C313.318191,161.198515 312.321972,160.615081 311.341064,159.939516 C310.789303,159.141121 310.390816,158.358091 310.145589,157.590404 C309.900362,156.822716 309.747097,156.008979 309.68579,155.149169 C309.563177,153.613794 309.609156,152.109149 309.82373,150.635189 C310.038303,149.161229 310.329506,147.687291 310.697347,146.213331 C311.1878,144.555125 311.724226,142.958359 312.30664,141.422984 C312.889054,139.887609 313.517439,138.352257 314.191813,136.816882 C314.559654,136.141317 314.942815,135.542529 315.341309,135.020502 C315.739803,134.498474 316.306881,134.114636 317.042562,133.868976 C317.226482,133.009166 317.471706,132.395025 317.778239,132.026535 C317.96216,131.71946 318.17673,131.504511 318.421957,131.381681 C318.667184,131.258851 318.94306,131.074609 319.249594,130.828949 C320.537035,131.320269 321.732499,131.888349 322.83602,132.533206 C323.939541,133.178064 325.043046,133.868972 326.146567,134.605953 C326.330487,134.667368 326.483752,134.913024 326.606365,135.342929 C326.422445,136.509814 326.039284,137.523146 325.45687,138.382957 C324.874456,139.242767 324.399336,140.194685 324.031495,141.23874 C323.82714,141.893833 323.615974,142.54892 323.397996,143.204009 L323.065919,144.186646 C322.728732,145.169286 322.406876,146.182618 322.100343,147.226673 C321.916423,148.270728 321.717179,149.299414 321.502605,150.312762 C321.288031,151.326109 321.11944,152.354795 320.996827,153.39885 C321.364667,153.705925 321.625217,153.798047 321.778484,153.675217 C321.931751,153.552387 322.100342,153.429558 322.284262,153.306728 C323.326477,152.446918 324.26139,151.541061 325.089031,150.589128 C325.751144,149.827582 326.383822,149.036566 326.987077,148.216066 L327.434002,147.595161 C328.905364,145.568466 330.346051,143.526448 331.756106,141.469045 C333.166161,139.411642 334.576194,137.30821 335.986249,135.158685 C336.53801,134.36029 337.028457,133.515846 337.457604,132.625329 C337.886751,131.734811 338.346545,130.85966 338.836999,129.99985 C339.143532,129.447115 339.465388,128.909742 339.802575,128.387714 C340.139762,127.865687 340.614882,127.359021 341.227949,126.8677 Z M361.706963,159.478906 C362.074803,159.478906 362.350679,159.356077 362.5346,159.110417 C362.71852,158.864757 362.902437,158.649808 363.086358,158.465563 C363.883345,157.544338 364.619015,156.63848 365.293389,155.747963 C365.967763,154.857445 366.703433,154.013001 367.500421,153.214606 C368.174795,152.293381 368.925791,151.418231 369.753432,150.589128 C370.581073,149.760025 371.424028,148.976996 372.282322,148.240016 C372.588856,147.810111 372.972017,147.487687 373.431818,147.272734 C373.891618,147.057782 374.366738,146.796772 374.857192,146.489697 C375.776793,146.305452 376.512463,146.581815 377.064224,147.318795 C377.018244,147.410918 376.989507,147.511676 376.978012,147.62107 L376.972264,147.733344 C376.972264,147.886882 376.941611,148.025064 376.880305,148.147894 C376.389851,148.700629 375.884078,149.222648 375.36297,149.713968 C374.841863,150.205289 374.33609,150.696601 373.845636,151.187921 C371.883821,153.337446 369.98334,155.533 368.144138,157.774648 C366.304936,160.016295 364.496414,162.334677 362.718519,164.729862 C362.228065,165.221182 361.783598,165.804616 361.385104,166.480181 L360.884843,167.320335 C360.623679,167.75515 360.345962,168.212073 360.051689,168.69111 C359.837116,168.798587 359.622545,168.788511 359.407972,168.660883 L359.316012,168.598988 C359.070785,168.414743 358.733603,168.322622 358.304456,168.322622 C358.018358,168.404509 357.732263,168.500042 357.446166,168.609224 L357.017021,168.783232 C356.587874,168.967477 356.12808,169.121013 355.637626,169.243843 C355.407726,169.15172 355.177828,169.085508 354.947929,169.045205 L354.71803,169.013538 C354.411496,168.98283 354.104967,168.906062 353.798433,168.783232 C352.327072,168.291912 351.162261,167.524236 350.303967,166.480181 C349.445672,165.436126 348.863267,164.207844 348.556733,162.795299 C348.2502,161.505584 348.066282,160.200535 348.004975,158.880112 C347.943669,157.55969 347.974322,156.285347 348.096935,155.057047 C348.195026,153.877879 348.332351,152.708551 348.508914,151.549042 L348.648693,150.68125 C348.89392,149.237997 349.077837,147.779413 349.200451,146.305453 C349.506985,143.418947 349.936125,140.547839 350.487886,137.692041 C351.039647,134.836243 351.652705,131.995842 352.327079,129.170752 C354.166281,121.432461 357.139613,114.154892 361.247165,107.337826 C361.477065,106.969336 361.706963,106.626759 361.936862,106.31009 L362.166761,106.002057 C362.473295,105.602859 362.779824,105.188314 363.086358,104.758409 C363.270278,104.574164 363.469522,104.405275 363.684095,104.251738 L364.133675,103.924193 C364.212011,103.86619 364.29205,103.806481 364.373793,103.745066 L367.296064,104.604872 C367.779703,104.748172 368.26164,104.891473 368.741876,105.034775 C370.182584,105.46468 371.607944,105.9867 373.017999,106.60085 C373.20192,107.09217 373.385837,107.537422 373.569757,107.93662 L373.805174,108.437764 C373.930239,108.69939 374.066339,108.977597 374.213475,109.272389 L373.477798,112.185749 C373.232573,113.145351 372.987347,114.093438 372.74212,115.030017 C372.251667,116.903175 371.791873,118.822365 371.362726,120.787645 C371.056192,122.3742 370.675159,123.950072 370.219617,125.515295 L369.937351,126.453151 C369.354937,128.326309 368.879817,130.214792 368.511977,132.118657 C368.413886,132.511713 368.266752,132.894938 368.070571,133.26834 L367.914239,133.546549 C367.638359,134.007162 367.377809,134.544535 367.132582,135.158685 L367.316501,135.711417 C366.090367,140.133298 364.986862,144.555112 364.005954,148.976992 C363.576807,150.450952 363.178319,151.909537 362.810479,153.352789 L362.074802,156.218807 C361.952189,156.693064 361.829576,157.165616 361.706963,157.636465 C361.645656,157.94354 361.63033,158.25061 361.660983,158.557685 C361.691636,158.86476 361.706963,159.171831 361.706963,159.478906 Z M436.50614,142.436327 C435.893073,143.173307 435.188056,143.894922 434.391068,144.601195 C433.594081,145.307467 432.674493,145.906255 431.632279,146.397575 C430.773984,146.95031 429.88505,147.533744 428.965449,148.147894 L426.20666,149.990335 L424.960096,150.747782 C424.74893,150.877435 424.53606,151.008794 424.321487,151.14186 C423.677766,151.541058 423.018729,151.894189 422.344354,152.201264 C421.547367,152.508339 420.62778,153.030359 419.585565,153.767339 C418.911191,153.644509 418.206174,153.490973 417.470493,153.306728 C416.734812,153.122483 415.96849,153.091776 415.171502,153.214606 C415.005974,153.601521 415.039079,153.913812 415.270818,154.151487 L415.355421,154.227949 C415.661955,154.473609 415.784567,154.842093 415.72326,155.333413 C415.6313,155.379475 415.53072,155.451444 415.421517,155.549324 L415.309441,155.655841 C415.156175,155.809378 415.018236,155.916853 414.895623,155.978268 C414.405169,156.162513 413.88407,156.331402 413.332309,156.484939 C412.780548,156.638477 412.259449,156.776658 411.768995,156.899488 C411.646382,157.390808 411.52377,157.851414 411.401156,158.281319 C411.278543,158.711224 411.186584,159.17183 411.125277,159.66315 C410.818744,161.444185 410.542868,163.225193 410.297641,165.006228 C410.052414,166.787264 409.929802,168.598979 409.929802,170.441429 L409.929802,171.500833 C409.929802,171.90003 409.960455,172.283868 410.021762,172.652358 C410.144375,172.959434 410.236334,173.281857 410.297641,173.61964 C410.358947,173.957423 410.450906,174.371968 410.57352,174.863288 C410.266986,174.863288 410.021763,174.847934 409.837842,174.817227 C409.653922,174.786519 409.470005,174.801873 409.286085,174.863288 C408.05995,175.416023 406.910466,175.600265 405.837598,175.41602 C404.76473,175.231775 403.676552,174.893997 402.57303,174.402677 C401.346896,173.849942 400.442635,173.112973 399.860221,172.191748 C399.277807,171.270523 398.863992,170.195777 398.618765,168.967477 C398.373539,166.572291 398.220274,164.161789 398.158967,161.735896 C398.097661,159.310003 398.220272,156.868793 398.526806,154.412193 C398.710726,153.306723 398.863991,152.170562 398.986604,151.003677 L399.354443,147.503039 C400.028817,140.010409 401.684074,132.824961 404.320264,125.94648 C404.442877,125.45516 404.350918,125.055968 404.044385,124.748893 C403.676544,125.055968 403.354689,125.424453 403.078808,125.854358 C402.802928,126.284263 402.557705,126.698808 402.343131,127.098006 C402.128558,127.497203 401.868008,127.865688 401.561474,128.20347 C401.254941,128.541253 400.887106,128.802263 400.457958,128.986508 C400.274038,129.907733 400.059468,130.736823 399.814241,131.473803 C399.752934,131.842293 399.722281,132.195424 399.722281,132.533206 L399.722281,133.776854 L396.411734,133.776854 C395.614746,133.408364 394.802444,133.024526 393.974803,132.625329 C393.147162,132.226131 392.488125,131.627344 391.997671,130.828949 C391.691137,129.846308 391.72179,128.863683 392.089631,127.881043 C392.702698,126.591328 393.377062,125.301632 394.112743,124.011917 C394.848424,122.722202 395.676052,121.49392 396.595653,120.327035 C397.883095,118.546 399.323781,116.88782 400.917757,115.352444 C402.511732,113.817069 404.197642,112.373838 405.975537,111.022708 C409.040874,108.381863 412.382041,106.140249 415.999139,104.297799 C416.980047,103.745064 418.052898,103.253751 419.217726,102.823846 C419.631547,102.639601 420.062605,102.463994 420.510908,102.297023 L420.96496,102.132931 C421.578027,101.917978 422.129779,101.687675 422.620233,101.442015 C427.892613,98.9854149 433.256872,97.8492544 438.713172,98.0334994 C440.491067,98.0949144 442.176977,98.3866313 443.770952,98.9086588 C445.364927,99.4306864 446.86692,100.305837 448.276975,101.534137 C448.690795,101.902627 449.09599,102.25384 449.492566,102.587783 L449.886269,102.915968 C450.407376,103.345873 450.943802,103.806479 451.495562,104.297799 C455.357887,108.166944 456.706615,112.680879 455.541787,117.83974 C455.29656,118.515305 455.097316,119.206213 454.944049,119.912486 C454.790782,120.618758 454.468927,121.27896 453.978473,121.89311 C453.733246,122.323015 453.549329,122.845035 453.426715,123.459185 C453.242795,124.13475 452.997572,124.764244 452.691038,125.347687 C452.384504,125.931129 451.986016,126.437795 451.495562,126.8677 C451.120059,127.136391 450.885372,127.452098 450.791496,127.81483 L450.759885,127.973165 C450.698579,128.40307 450.545314,128.771555 450.300087,129.07863 C449.610386,129.861671 448.946557,130.65334 448.308587,131.45365 L447.679237,132.25684 C446.851596,133.331603 445.977988,134.390996 445.058387,135.435051 C444.200093,136.294861 443.311158,137.139305 442.391557,137.968407 C441.77849,138.521142 441.165429,139.080696 440.552366,139.647075 L439.632768,140.501764 C439.377323,140.75766 439.047378,140.992228 438.642925,141.205473 L438.391313,141.330862 C437.870206,141.576522 437.241821,141.945007 436.50614,142.436327 Z M414.251905,147.226673 C414.389846,147.134551 414.545026,147.059702 414.717451,147.002126 L414.895623,146.950307 C415.14085,146.888892 415.35542,146.796771 415.539341,146.673941 C418.788598,144.524416 421.9765,142.313509 425.103144,140.041153 C428.229787,137.768798 431.172467,135.250821 433.93127,132.487145 C435.341325,131.0746 436.736032,129.646723 438.115434,128.20347 C439.494835,126.760218 440.766931,125.209512 441.931759,123.551307 C442.422213,122.752912 442.958639,122.000589 443.541053,121.294317 C444.123467,120.588044 444.721199,119.989257 445.334266,119.497937 C445.763413,117.839731 446.223207,116.457915 446.713661,115.352444 C447.020195,114.492634 447.296071,113.678898 447.541298,112.91121 C447.786525,112.143523 447.970442,111.329786 448.093056,110.469976 C448.215669,109.364506 448.215669,108.320466 448.093056,107.337826 C447.970442,106.355186 447.571954,105.433975 446.89758,104.574165 C446.407126,104.14426 445.947333,103.88325 445.518185,103.791127 C445.089038,103.699005 444.629245,103.652944 444.138791,103.652944 C442.422202,103.530114 440.766945,103.591529 439.17297,103.837188 C437.578995,104.082848 435.985043,104.451333 434.391068,104.942653 C434.023228,105.034776 433.672634,105.118261 433.33928,105.19311 L433.011673,105.26508 C432.582526,105.357203 432.122733,105.464677 431.632279,105.587507 C430.896598,105.915054 430.160924,106.22895 429.425248,106.529199 L428.321731,106.969338 C427.21821,107.399243 426.145358,107.859849 425.103144,108.351169 L423.44787,108.351169 L422.947609,108.918641 C422.704836,109.191322 422.473099,109.44742 422.252395,109.686938 C421.884554,110.086136 421.486067,110.469974 421.056919,110.838464 C421.547373,111.268369 421.99184,111.57544 422.390334,111.759685 C422.788828,111.94393 423.049378,112.281707 423.171991,112.773027 C423.227725,113.331345 423.068127,113.73739 422.693194,113.99117 L422.574254,114.062736 C422.114453,114.308396 421.792597,114.646173 421.608677,115.076078 C421.649548,115.239852 421.676796,115.403623 421.690419,115.567396 L421.700637,115.813055 C421.700637,116.058715 421.761943,116.335078 421.884556,116.642153 L421.73655,116.983387 C421.47899,117.601168 421.167019,118.464238 420.80063,119.572614 L420.689081,119.912486 C420.198627,121.417153 419.677527,123.121394 419.125767,125.02526 C418.574006,126.929125 418.022254,128.95579 417.470493,131.105315 L416.665846,134.260495 C416.492145,134.946291 416.32185,135.621851 416.15496,136.287177 L415.907179,137.277492 C415.478032,138.997112 415.095828,140.599159 414.760558,142.08367 L414.458678,143.451852 C414.179352,144.759006 413.987817,145.802321 413.884067,146.581819 L414.251905,147.226673 Z M461.950974,159.478906 C462.318815,159.478906 462.594691,159.356077 462.778611,159.110417 C462.962532,158.864757 463.146449,158.649808 463.330369,158.465563 C464.127357,157.544338 464.863027,156.63848 465.537401,155.747963 C466.211775,154.857445 466.947445,154.013001 467.744432,153.214606 C468.418806,152.293381 469.169803,151.418231 469.997444,150.589128 C470.825085,149.760025 471.66804,148.976996 472.526334,148.240016 C472.832868,147.810111 473.216029,147.487687 473.675829,147.272734 C474.13563,147.057782 474.61075,146.796772 475.101204,146.489697 C476.020805,146.305452 476.756475,146.581815 477.308236,147.318795 C477.262255,147.410918 477.233518,147.511676 477.222023,147.62107 L477.216276,147.733344 C477.216276,147.886882 477.185623,148.025064 477.124316,148.147894 C476.633862,148.700629 476.128089,149.222648 475.606982,149.713968 C475.085875,150.205289 474.580102,150.696601 474.089648,151.187921 C472.127832,153.337446 470.227352,155.533 468.38815,157.774648 C466.548948,160.016295 464.740426,162.334677 462.962531,164.729862 C462.472077,165.221182 462.02761,165.804616 461.629116,166.480181 L461.128855,167.320335 C460.86769,167.75515 460.589973,168.212073 460.295701,168.69111 C460.081127,168.798587 459.866557,168.788511 459.651984,168.660883 L459.560024,168.598988 C459.314797,168.414743 458.977615,168.322622 458.548468,168.322622 C458.262369,168.404509 457.976274,168.500042 457.690178,168.609224 L457.261033,168.783232 C456.831885,168.967477 456.372092,169.121013 455.881638,169.243843 C455.651738,169.15172 455.42184,169.085508 455.191941,169.045205 L454.962041,169.013538 C454.655508,168.98283 454.348979,168.906062 454.042445,168.783232 C452.571083,168.291912 451.406273,167.524236 450.547978,166.480181 C449.689684,165.436126 449.107279,164.207844 448.800745,162.795299 C448.494211,161.505584 448.310294,160.200535 448.248987,158.880112 C448.197898,157.77976 448.21067,156.711408 448.287304,155.675034 L448.340947,155.057047 C448.439038,153.877879 448.576363,152.708551 448.752926,151.549042 L448.892705,150.68125 C449.137932,149.237997 449.321849,147.779413 449.444463,146.305453 C449.750996,143.418947 450.180137,140.547839 450.731898,137.692041 C451.283658,134.836243 451.896716,131.995842 452.571091,129.170752 C454.410293,121.432461 457.383625,114.154892 461.491176,107.337826 C461.721077,106.969336 461.950974,106.626759 462.180873,106.31009 L462.410773,106.002057 C462.717306,105.602859 463.023836,105.188314 463.330369,104.758409 C463.514289,104.574164 463.713533,104.405275 463.928107,104.251738 L464.377687,103.924193 C464.456023,103.86619 464.536062,103.806481 464.617804,103.745066 L467.540076,104.604872 C468.023715,104.748172 468.505651,104.891473 468.985887,105.034775 C470.426596,105.46468 471.851956,105.9867 473.262011,106.60085 C473.445931,107.09217 473.629849,107.537422 473.813769,107.93662 L474.049186,108.437764 C474.174251,108.69939 474.31035,108.977597 474.457486,109.272389 L473.721809,112.185749 C473.476584,113.145351 473.231359,114.093438 472.986132,115.030017 C472.495678,116.903175 472.035885,118.822365 471.606737,120.787645 C471.300204,122.3742 470.91917,123.950072 470.463629,125.515295 L470.181363,126.453151 C469.598949,128.326309 469.123829,130.214792 468.755988,132.118657 C468.657898,132.511713 468.510763,132.894938 468.314583,133.26834 L468.158251,133.546549 C467.88237,134.007162 467.621821,134.544535 467.376594,135.158685 L467.560513,135.711417 C466.334378,140.133298 465.230873,144.555112 464.249966,148.976992 C463.820819,150.450952 463.422331,151.909537 463.05449,153.352789 L462.318813,156.218807 C462.196201,156.693064 462.073588,157.165616 461.950974,157.636465 C461.889668,157.94354 461.874341,158.25061 461.904995,158.557685 C461.935648,158.86476 461.950974,159.171831 461.950974,159.478906 Z M504.960102,130.736827 L505.092294,131.122589 C505.218738,131.479562 505.32794,131.750168 505.4199,131.934413 L506.293516,132.809573 C506.569397,133.08594 506.860599,133.408364 507.167133,133.776854 C507.04452,134.350061 506.915096,134.916438 506.778859,135.475993 L506.569395,136.31021 C506.354822,137.139313 506.155578,137.983757 505.971658,138.843567 L505.169885,142.082231 L505.169885,142.082231 L504.914122,143.127242 C504.576935,144.50908 504.224426,145.90625 503.856586,147.318795 C503.611359,148.73134 503.320156,150.113157 502.982969,151.464287 C502.645782,152.815418 502.323927,154.197234 502.017393,155.60978 C501.894779,155.85544 501.818147,156.131803 501.787494,156.438878 C501.75684,156.745953 501.894778,157.053023 502.201312,157.360098 C503.427447,155.579063 504.638237,153.798055 505.833718,152.01702 C507.0292,150.235985 508.45456,148.577804 510.109842,147.042429 L511.56076,147.410917 C511.799173,147.472332 512.035884,147.533746 512.270893,147.595161 C512.975921,147.779406 513.665611,148.086477 514.339986,148.516382 C513.665611,149.560437 512.960594,150.527709 512.224914,151.418226 C511.489233,152.308744 510.72291,153.214602 509.925922,154.135827 C507.964107,156.285352 506.170912,158.465552 504.546283,160.676492 C502.921655,162.887432 501.434988,165.159754 500.08624,167.493524 L499.125773,167.862012 C498.969102,167.923426 498.814133,167.984841 498.660866,168.046256 C498.201065,168.230501 497.725945,168.384036 497.235491,168.506866 C494.476688,168.629696 492.239026,167.677778 490.522437,165.651083 C490.215903,165.036933 490.016659,164.422792 489.924699,163.808642 C489.832739,163.194492 489.78676,162.549644 489.78676,161.874079 L489.78676,159.847394 C489.78676,159.171829 489.756107,158.496274 489.6948,157.820709 C489.28098,158.281321 488.884406,158.750565 488.505073,159.228448 L488.131486,159.709211 C487.641032,160.354068 487.119933,160.983563 486.568172,161.597713 C486.016412,162.211863 485.388027,162.779943 484.682999,163.301971 C483.977972,163.823998 483.135017,164.26925 482.154109,164.63774 C480.376214,165.067645 478.613671,165.082999 476.866429,164.683801 C475.119187,164.284604 473.571215,163.317332 472.222467,161.781957 C471.548093,160.369412 471.226238,158.972241 471.256891,157.590404 C471.287544,156.208566 471.456135,154.842103 471.762669,153.490972 C472.069203,151.464277 472.574976,149.483673 473.280003,147.5491 C473.985031,145.614528 474.827986,143.756752 475.808893,141.975716 C476.299347,140.993076 476.789794,140.056512 477.280248,139.165994 C477.709395,138.386791 478.279348,137.619353 478.990121,136.863663 L479.30336,136.540516 C479.723749,136.119384 480.054051,135.709538 480.294272,135.310969 L480.406876,135.112624 C480.652103,134.652011 481.019938,134.206759 481.510392,133.776854 C482.920447,132.180064 484.514398,130.828954 486.292293,129.723484 C488.070189,128.618014 490.246545,127.911752 492.821428,127.604677 C492.979074,127.657318 493.23806,127.709959 493.598393,127.7626 L493.787004,127.788921 C494.246805,127.850336 494.721925,127.91175 495.212379,127.973165 C495.975307,128.19153 496.605018,128.543334 497.101525,129.028587 L497.281471,129.216813 C497.802578,129.800255 498.492269,130.245507 499.350563,130.552582 C499.657097,130.368337 499.932973,130.214802 500.1782,130.091972 C500.423427,129.969142 500.66865,129.815607 500.913877,129.631362 C501.588251,129.815607 502.262615,129.984496 502.936989,130.138033 C503.611363,130.291571 504.285727,130.491166 504.960102,130.736827 Z M495.186365,134.965903 C494.646151,134.791704 494.195029,134.840611 493.832984,135.112624 C493.465144,135.388991 493.127962,135.527173 492.821428,135.527173 C492.208361,135.957078 491.656608,136.448391 491.166154,137.001126 C489.817406,138.045181 488.59129,139.227402 487.487769,140.547825 C486.384247,141.868247 485.46466,143.265418 484.728979,144.739378 C483.870685,146.458998 483.089036,148.240006 482.384008,150.082457 C481.678981,151.924907 481.050596,153.767329 480.498835,155.60978 C480.406875,156.070392 480.323537,156.513727 480.24882,156.939791 L480.176977,157.360098 C480.085017,157.912834 479.977731,158.496267 479.855118,159.110417 C479.855118,159.171832 479.947077,159.325368 480.130997,159.571028 C480.437531,159.263953 480.682754,159.049003 480.866674,158.926173 C482.092809,157.697873 483.21164,156.423531 484.223201,155.103108 C485.234762,153.782686 486.230982,152.416222 487.21189,151.003677 L487.303849,150.819433 C487.732996,150.266698 488.085505,149.713971 488.361385,149.161236 C488.637266,148.608501 488.928468,148.086481 489.235002,147.595161 C489.909376,146.551106 490.553087,145.583834 491.166154,144.693317 C491.779222,143.802799 492.300321,142.835527 492.729468,141.791472 C493.005349,141.008431 493.289847,140.251308 493.582968,139.520089 L493.878964,138.797506 C494.277458,137.845573 494.660619,136.847594 495.02846,135.803539 C495.07444,135.711417 495.103177,135.610659 495.114672,135.501264 L495.120419,135.38899 C495.120419,135.30231 495.130189,135.210738 495.149728,135.114272 L495.186365,134.965903 L495.186365,134.965903 Z M520.565254,162.334689 C521.423548,161.659124 522.143891,160.952862 522.726305,160.215882 C523.30872,159.478902 523.937104,158.711226 524.611478,157.912831 C525.224546,157.145143 525.890822,156.345479 526.610322,155.513821 L527.048409,155.010986 C527.937357,153.997639 528.810965,152.953599 529.669259,151.878837 C530.527553,150.804074 531.355182,149.713974 532.152169,148.608504 C532.949157,147.503034 533.623521,146.39758 534.175282,145.29211 C534.481815,144.80079 534.788344,144.23271 535.094878,143.587852 C535.401412,142.942995 535.830552,142.374914 536.382313,141.883594 C537.179301,142.129254 537.991603,142.359557 538.819244,142.57451 C539.646885,142.789462 540.397881,143.1733 541.072255,143.726035 C540.851551,144.997326 540.444633,146.1318 539.851492,147.129483 L539.646881,147.456978 C538.941853,148.531741 538.405427,149.683255 538.037587,150.911555 C537.743314,151.255479 537.449046,151.560094 537.154775,151.825405 L536.934071,152.01702 C536.566231,152.324095 536.229049,152.692579 535.922515,153.122484 C535.799901,153.920879 535.554678,154.596434 535.186838,155.149169 C534.818997,155.701904 534.405183,156.223924 533.945382,156.715244 C533.485582,157.206564 532.995135,157.697877 532.474028,158.189197 C531.952921,158.680517 531.477801,159.263951 531.048654,159.939516 C530.92604,160.123761 530.772776,160.277296 530.588855,160.400126 C530.404935,160.522956 530.251671,160.737905 530.129057,161.04498 C529.785739,161.5363 529.471853,162.007962 529.187391,162.459974 L528.979561,162.795299 C528.642374,163.348034 528.289866,163.870054 527.922026,164.361374 C527.799412,164.545619 527.6768,164.683801 527.554187,164.775923 C527.431573,164.868046 527.308962,164.975521 527.186348,165.098351 C526.646849,165.540539 526.107356,165.943416 525.56786,166.306991 L525.163236,166.572303 C524.488862,167.002208 523.814498,167.462814 523.140124,167.954134 C521.730069,168.384039 520.320035,168.583635 518.90998,168.552927 C517.499925,168.52222 516.089891,168.169089 514.679836,167.493524 C513.269781,166.940789 512.135624,166.127052 511.277329,165.05229 C510.419035,163.977527 509.83663,162.549649 509.530096,160.768614 C509.223562,159.663144 509.008992,158.603751 508.886379,157.590404 C508.763766,156.577056 508.733112,155.54837 508.794419,154.504315 C508.794419,152.60045 508.855725,150.865502 508.978338,149.299419 C509.100952,147.733337 509.269543,146.197984 509.484116,144.693317 C509.69869,143.188649 509.974566,141.684004 510.311753,140.179336 C510.64894,138.674669 511.093407,137.031842 511.645168,135.250807 C512.074315,134.206752 512.518782,133.162712 512.978583,132.118657 C513.438383,131.074602 513.913504,130.06127 514.403957,129.07863 C514.710491,128.46448 515.001694,127.957813 515.277574,127.558616 C515.553454,127.159418 515.844657,126.790934 516.151191,126.453151 C516.457724,126.115369 516.825559,125.792945 517.254707,125.48587 L518.90998,124.288283 L518.90998,124.288283 C519.952195,124.042623 521.025047,123.935148 522.128568,123.965856 C523.232089,123.996563 524.335594,124.196159 525.439115,124.564649 C526.113489,124.871724 526.818506,125.086674 527.554187,125.209504 C528.289868,125.332334 529.025538,125.485869 529.761218,125.670114 C530.435593,125.792944 531.033324,125.915772 531.554432,126.038602 C532.075539,126.161432 532.520006,126.28426 532.887846,126.40709 C533.500914,126.959825 533.930055,127.481845 534.175282,127.973165 C534.420508,128.464485 534.558447,128.955798 534.5891,129.447118 C534.613623,129.840174 534.598909,130.27253 534.54496,130.744195 L534.49714,131.105315 C534.40518,131.719465 534.359201,132.39502 534.359201,133.132 C533.917792,133.29782 533.650192,133.600438 533.556393,134.039862 L533.531564,134.191403 C533.470257,134.713431 533.194381,135.066562 532.703927,135.250807 L530.129057,134.329586 C529.270763,134.022511 528.381828,133.715441 527.462227,133.408366 C527.140367,133.868978 526.792647,134.329586 526.419061,134.790196 L526.036853,135.250807 C525.515746,135.864957 525.009973,136.509805 524.519519,137.18537 C524.580825,138.352255 524.442887,139.488416 524.1057,140.593886 C523.768513,141.699356 523.354699,142.866223 522.864245,144.094524 C522.496405,145.077164 522.205202,145.967668 521.990628,146.766063 C521.776055,147.564458 521.607464,148.332134 521.48485,149.069114 C521.39289,149.621849 521.309552,150.191851 521.234835,150.779128 L521.162991,151.372165 C521.071031,152.17056 520.933093,153.061065 520.749173,154.043705 C520.503946,155.272005 520.350682,156.51564 520.289375,157.774648 C520.228068,159.033655 520.136109,160.307998 520.013496,161.597713 C520.013496,161.695977 520.052732,161.774587 520.131204,161.833545 L520.197415,161.874079 C520.320029,161.935494 520.44264,162.089029 520.565254,162.334689 Z M546.194008,159.018295 C546.071394,159.878105 545.994762,160.737903 545.964108,161.597713 C545.933455,162.457523 545.918129,163.348027 545.918129,164.269252 L546.316622,164.179689 C546.929688,164.034682 547.287305,163.911 547.389483,163.808642 C548.799538,163.010247 550.08696,162.073682 551.251788,160.998919 C552.416616,159.924157 553.550774,158.741936 554.654295,157.452221 C556.186964,155.671185 557.612324,153.844116 558.930419,151.970959 C560.248514,150.097801 561.581915,148.147904 562.930663,146.121209 L564.034179,144.463012 L564.826055,144.63702 C565.309694,144.746202 565.704778,144.841735 566.011311,144.923622 C566.471112,145.046452 566.8696,145.16928 567.206787,145.29211 C567.543974,145.41494 567.835177,145.568475 568.080404,145.75272 L568.404101,146.003292 C568.580664,146.143317 568.779296,146.305452 569,146.489697 C568.901909,146.784489 568.764584,147.059625 568.588021,147.31511 L568.448242,147.503039 C568.203015,147.810114 568.111056,148.240013 568.172363,148.792748 C568.23367,149.099823 568.126385,149.452954 567.850504,149.852152 C567.574624,150.251349 567.314074,150.60448 567.068847,150.911555 C564.064817,155.579096 560.815609,160.00091 557.321125,164.17713 C556.646751,164.852695 555.972387,165.497543 555.298013,166.111693 L553.2749,167.954134 C552.600526,168.384039 552.048774,168.69111 551.619627,168.875355 C549.596504,169.42809 547.604065,169.719806 545.64225,169.750514 C543.680434,169.781221 541.718648,169.274555 539.756832,168.2305 C536.568882,166.572295 534.668402,163.962196 534.055334,160.400126 C533.810107,158.926166 533.718148,157.467581 533.779455,156.024329 C533.840762,154.581076 533.994027,153.153199 534.239253,151.740654 C534.974934,148.178583 535.925175,144.724041 537.090003,141.376923 C538.254831,138.029805 539.818129,134.790212 541.779945,131.658047 C542.944773,129.938427 544.063604,128.694792 545.136472,127.927104 C546.20934,127.159416 547.297518,126.760225 548.401039,126.729517 C549.50456,126.69881 550.669371,126.929113 551.895506,127.420433 C553.12164,127.911753 554.470368,128.556601 555.94173,129.354996 C557.658319,130.214806 558.930415,131.335613 559.758055,132.717451 C560.585696,134.099288 561.152775,135.680701 561.459309,137.461736 L561.459309,138.475079 C561.459309,138.843569 561.428656,139.150639 561.367349,139.396299 C560.938202,140.808844 560.463082,142.190661 559.941975,143.541791 C559.420868,144.892921 558.639218,146.121203 557.597004,147.226673 C556.064335,148.710869 554.595546,150.237695 553.190606,151.807183 L552.355304,152.753996 C550.700022,154.657861 548.952806,156.469577 547.113604,158.189197 C546.868377,158.373442 546.561848,158.649805 546.194008,159.018295 Z M554.746255,139.027811 C554.746255,138.229416 554.792234,137.46174 554.884194,136.72476 C554.976154,135.98778 554.807563,135.189396 554.378416,134.329586 L553.872638,134.836258 C553.719371,134.989795 553.612086,135.158684 553.550779,135.342929 L552.585203,137.093248 L552.585203,137.093248 C552.248016,137.707398 551.987466,138.352246 551.803546,139.027811 C551.619626,139.641961 551.374403,140.194688 551.067869,140.686008 C550.761335,141.177328 550.362847,141.637933 549.872393,142.067838 C549.811087,142.620574 549.765107,143.157947 549.734454,143.679974 C549.703801,144.202002 549.688474,144.708668 549.688474,145.199988 C549.688474,145.322818 549.841739,145.476353 550.148272,145.660598 C551.067873,144.739373 551.926155,143.756748 552.723142,142.712693 C553.52013,141.668638 554.194494,140.440356 554.746255,139.027811 Z" id="ColourfulPlace"></path>
        </g>
    </g>
</svg>