<svg width="352" height="77" xmlns="http://www.w3.org/2000/svg"><defs><linearGradient x1="0%" y1="50%" x2="99.263%" y2="50.419%" id="linearGradient-1"><stop stop-color="#F82E94" offset="0%"/><stop stop-color="#FF9E33" offset="100%"/></linearGradient></defs><g id="Design" stroke="none" stroke-width="1" fill="none" fill-rule="evenodd"><path d="M14.349 17.925c-.007.03-.077-.065-.209-.285-.093.093-.187.14-.28.14a.621.621 0 00-.28.07c-.42.327-.723.688-.91 1.085-.187.397-.35.828-.49 1.295-.233.653-.49 1.272-.77 1.855s-.723 1.038-1.33 1.365c-.813 1.668-1.459 3.082-1.938 4.24l-.127.31a54.53 54.53 0 00-1.155 3.08c-.28.84-.455 1.575-.525 2.205a46.03 46.03 0 00-.175 1.995c-.28.093-.583.175-.91.245-.327.07-.677.128-1.05.175-1.54-.467-2.707-1.54-3.5-3.22-.467-.933-.7-1.96-.7-3.08a11.966 11.966 0 01.7-4.06c.467-1.307.945-2.59 1.435-3.85a26.69 26.69 0 011.444-3.101l.341-.609c.28-.49.534-.967.761-1.43l.219-.46c.28-.607.583-1.213.91-1.82.14-.327.327-.642.56-.945.233-.303.537-.525.91-.665a3.595 3.595 0 01.735-1.995A48.85 48.85 0 019.38 8.75a32.197 32.197 0 013.745-3.815A34.691 34.691 0 0117.36 1.82 8.559 8.559 0 0119.39.735c.7-.257 1.307-.502 1.82-.735.56 0 .992.093 1.295.28.303.187.618.397.945.63l.987.974c.233.228.476.463.728.706l.74.706c.36.341.709.666 1.045.974.175.175.337.37.486.584l.144.221c.187.303.397.572.63.805 0 .98-.07 1.913-.21 2.8a142.333 142.333 0 00-3.45 9.838l-.435 1.432a433.609 433.609 0 01-3.605 11.48c-.047.047 0 .233.14.56a3.66 3.66 0 001.435-.28c.443-.187.898-.35 1.365-.49.342-.093.68-.192 1.011-.296l.494-.159c.49-.163.992-.315 1.505-.455l1.54-.42a16.19 16.19 0 011.61-.35c.342-.062.68-.13 1.011-.202l.494-.113c.327-.078.659-.15.996-.218l2.014-.377a15.34 15.34 0 011.575-.21c.233-.233.385-.502.455-.805a5.56 5.56 0 01.245-.805 2047.69 2047.69 0 011.82-6.125c.404-1.353.82-2.701 1.244-4.044l.646-2.011a59.66 59.66 0 011.75-4.83 84.447 84.447 0 012.1-4.69c.233-.467.478-.887.735-1.26s.642-.63 1.155-.77c.28.14.502.268.665.385.163.117.315.245.455.385.105.105.223.23.354.374l.906 1.026c.218.156.436.306.653.451l.327.214c.327.21.653.432.98.665.093.047.175.14.245.28s.152.28.245.42a23.23 23.23 0 00-.56 2.59 11.46 11.46 0 01-.77 2.66c-.28.7-.525 1.435-.735 2.205-.21.77-.432 1.552-.665 2.345a240.157 240.157 0 01-1.175 4.226l-.4 1.374a312.846 312.846 0 00-1.575 5.53c-.42 1.4-.817 2.812-1.19 4.235a41.229 41.229 0 01-1.33 4.165 79.042 79.042 0 00-1.715 5.705L39.06 48.09a259.636 259.636 0 00-.996 3.827l-.474 1.913a540.857 540.857 0 01-1.47 5.88c-.124.062-.244.12-.358.171l-.167.074c-.163.07-.338.152-.525.245-.385-.035-.75-.077-1.096-.125l-.339-.05a28.46 28.46 0 00-1.295-.175c-1.027-.467-1.843-1.143-2.45-2.03.187-1.307.362-2.613.525-3.92a75.73 75.73 0 01.595-3.92 72.29 72.29 0 01.584-3.006l.221-.984c.303-1.307.572-2.637.805-3.99.233-1.307.537-2.602.91-3.885s.63-2.625.77-4.025c-.467-.093-.875-.035-1.225.175-.35.21-.712.362-1.085.455-.373.093-.723.21-1.05.35-.327.14-.677.28-1.05.42a4.65 4.65 0 00-.82.289l-.265.131c-.35.187-.712.35-1.085.49l-.638.187-.307.093c-.303.093-.618.187-.945.28l-2.1 1.05c-.28.105-.56.19-.84.256l-.28.059c-.373.07-.793.222-1.26.455-.42.373-.863.735-1.33 1.085-.467.35-1.05.478-1.75.385-1.12 1.837-2.175 4.77-3.166 8.8l-.124.51c-.28 1.12-.54 2.253-.78 3.4l-.235 1.15a92.317 92.317 0 01-1.015 4.55 65.77 65.77 0 01-2.31.77c-1.073-.187-1.913-.432-2.52-.735s-1.353-.898-2.24-1.785a22.183 22.183 0 01-.175-3.325c.023-1.143.105-2.275.245-3.395a77.73 77.73 0 011.61-8.785c.7-2.87 1.447-5.728 2.24-8.575a110.38 110.38 0 012.03-7 394.91 394.91 0 012.31-6.86 1.18 1.18 0 00.14-.525c0-.108.01-.22.03-.339l.04-.18h-.001zM67.97 25.48l.114.331c.09.253.17.446.236.579l.665.665c.21.21.432.455.665.735-.093.436-.192.866-.296 1.291l-.159.634c-.163.63-.315 1.272-.455 1.925l-.61 2.46-.195.795c-.257 1.05-.525 2.112-.805 3.185a44.232 44.232 0 01-.665 3.15 104.644 104.644 0 00-.735 3.15 1.796 1.796 0 00-.175.63c-.023.233.082.467.315.7a417.041 417.041 0 002.765-4.06 21.5 21.5 0 013.255-3.78l1.104.28.541.14a5.53 5.53 0 011.575.7 23.345 23.345 0 01-1.61 2.205c-.56.677-1.143 1.365-1.75 2.065a60.72 60.72 0 00-4.095 4.97 56.417 56.417 0 00-3.395 5.18l-.731.28-.354.14a8.41 8.41 0 01-1.085.35c-2.1.093-3.803-.63-5.11-2.17a4.676 4.676 0 01-.455-1.4 9.907 9.907 0 01-.105-1.47V47.6c0-.513-.023-1.027-.07-1.54-.28.311-.55.627-.809.949l-.381.486c-.373.49-.77.968-1.19 1.435-.42.467-.898.898-1.435 1.295-.537.397-1.178.735-1.925 1.015a8.693 8.693 0 01-4.025.035c-1.33-.303-2.508-1.038-3.535-2.205-.513-1.073-.758-2.135-.735-3.185.023-1.05.152-2.088.385-3.115a23.32 23.32 0 011.155-4.515 30.17 30.17 0 011.925-4.235c.373-.747.747-1.458 1.12-2.135a8.65 8.65 0 011.269-1.714l.271-.281a5.06 5.06 0 00.739-.909l.101-.176c.187-.35.467-.688.84-1.015a16.355 16.355 0 013.64-3.08c1.353-.84 3.01-1.377 4.97-1.61.14.047.385.093.735.14l1.085.14c.572.163 1.045.425 1.42.785l.155.16c.397.443.922.782 1.575 1.015a9.51 9.51 0 01.63-.35c.187-.093.373-.21.56-.35.513.14 1.027.268 1.54.385.513.117 1.027.268 1.54.455zm-7.44 3.214c-.411-.133-.754-.096-1.03.111-.28.21-.537.315-.77.315-.467.327-.887.7-1.26 1.12a17.984 17.984 0 00-2.8 2.695 16.335 16.335 0 00-2.1 3.185 45.442 45.442 0 00-1.785 4.06c-.537 1.4-1.015 2.8-1.435 4.2-.062.311-.12.612-.171.902l-.074.428c-.07.42-.152.863-.245 1.33 0 .047.07.163.21.35a4.1 4.1 0 01.56-.49 29.57 29.57 0 002.555-2.905 82.49 82.49 0 002.275-3.115l.07-.14c.327-.42.595-.84.805-1.26.21-.42.432-.817.665-1.19a90.329 90.329 0 011.47-2.205 11.77 11.77 0 001.19-2.205c.21-.595.427-1.17.65-1.726l.225-.549c.303-.723.595-1.482.875-2.275a.657.657 0 00.062-.202l.008-.113c0-.066.007-.135.022-.209l.028-.112zm24.023.76c.342-.096.6-.254.777-.474.187-.233.397-.467.63-.7a82.924 82.924 0 015.88-5.46c.41-.299.821-.56 1.232-.784l.308-.161c.513-.257 1.05-.572 1.61-.945.175.035.37.057.584.066l.221.004c.303 0 .572.047.805.14.595.28 1.164.56 1.706.84l.534.28c.7.373 1.447.747 2.24 1.12.7.327 1.167.933 1.4 1.82.093.653.21 1.307.35 1.96.12.56.137 1.12.051 1.68l-.051.28c-.12.68-.206 1.257-.257 1.731l-.023.229c-.047.513-.117.992-.21 1.435a36.36 36.36 0 01-.315 1.365 16.1 16.1 0 01-.494 1.547l-.101.273a13.987 13.987 0 01-.583 1.415l-.117.23c-.233.443-.42.992-.56 1.645-.187.14-.42.35-.7.63a.475.475 0 00-.14.35c.14.7.023 1.283-.35 1.75-.163.408-.318.674-.463.796l-.062.044c-.163.093-.362.35-.595.77-.14.233-.21.537-.21.91-.047.093-.047.175 0 .245s.093.152.14.245c.187.047.677-.28 1.47-.98.793-.7 1.633-1.493 2.52-2.38.71-.71 1.374-1.389 1.994-2.038l1.786-1.882c.156-.156.311-.3.467-.436l.233-.194c.156-.124.311-.26.467-.404l.233-.226c.56-.56 1.143-.91 1.75-1.05.42.093.852.35 1.295.77.443.42.758.84.945 1.26a9.94 9.94 0 01-1.406 1.766l-.274.264c-.523.485-1 1-1.434 1.546l-.316.414c-.233.327-.933 1.015-2.1 2.065l-1.029.917c-.88.779-1.821 1.593-2.821 2.443a118.95 118.95 0 01-3.99 3.255l-.662.51c-.889.675-1.485 1.088-1.788 1.24a53.27 53.27 0 00-2.31 1.155c-.747.397-1.447.805-2.1 1.225-.373.037-.724.03-1.053-.022l-.242-.048a3.328 3.328 0 00-.93-.09l-.225.02c-1.773.187-3.43.023-4.97-.49-1.422-.474-2.704-1.246-3.847-2.316l-.283-.274a.861.861 0 00-.19-.15l-.055-.025a.69.69 0 01-.245-.175l-.213.42c-.1.196-.193.371-.277.525-.14.257-.257.432-.35.525a61 61 0 00-.455 2.52 11.52 11.52 0 01-.525 2.1 254.03 254.03 0 01-1.175 4.331l-.4 1.409a250.187 250.187 0 00-1.575 5.74c-.28 1.167-.56 2.345-.84 3.535a70.39 70.39 0 00-.77 3.745 8.117 8.117 0 01-.591.358l-.319.167c-.327.163-.63.338-.91.525-1.073.14-2.053.035-2.94-.315a73.09 73.09 0 01-2.45-1.015c-.42-.467-.7-.898-.84-1.295a3.655 3.655 0 01-.21-1.225c0-.747.012-1.47.035-2.17.023-.7.082-1.423.175-2.17.14-1.167.303-2.322.49-3.465.14-.858.293-1.735.46-2.632l.17-.903c.467-2.52.98-4.982 1.54-7.385.56-2.403 1.12-4.865 1.68-7.385a119.65 119.65 0 011.12-4.41c.373-1.353.77-2.672 1.19-3.955.42-1.283.863-2.578 1.33-3.885l.482-1.338c.332-.912.685-1.866 1.058-2.862a59.857 59.857 0 011.645-3.92 19.608 19.608 0 012.275-3.71c.233-.233.455-.467.665-.7.21-.233.525-.42.945-.56.047.023.105.047.175.07l.245.07c.187.047.373.117.56.21.793.42 1.587.852 2.38 1.295.793.443 1.54.992 2.24 1.645.42.84.467 1.61.14 2.31a48.22 48.22 0 00-.245 1.47 5.94 5.94 0 00-.059 1.097l.017.286zM83.79 49.63c.233-.14.432-.268.595-.385a3.66 3.66 0 00.455-.385 11.82 11.82 0 002.73-3.5c.467-.887.933-1.738 1.4-2.555.35-.613.674-1.232.971-1.857l1.112-2.434.542-1.204c.397-.887.77-1.75 1.12-2.59.35-.84.688-1.727 1.015-2.66l.286-.829c.243-.714.497-1.488.764-2.321l.14-.56c.047-.187-.07-.35-.35-.49-.175.14-.33.28-.466.42l-.129.14a4.638 4.638 0 01-.595.56l-.503.457a27.41 27.41 0 01-1.107.943c-.467.373-.933.735-1.4 1.085-.467.35-.922.723-1.365 1.12-.443.397-.945.898-1.505 1.505l-2.45 2.87c-.84.98-1.587 2.007-2.24 3.08-.233.373-.42.735-.56 1.085-.14.35-.35.665-.63.945a5.533 5.533 0 00-1.225 2.38c-.21.887-.478 1.75-.805 2.59l1.4.63 1.26.56c.156.156.321.311.498.467l.272.233c.28.233.537.467.77.7zm36.323-20.177c.342-.095.6-.253.777-.473.187-.233.397-.467.63-.7a82.924 82.924 0 015.88-5.46c.41-.299.821-.56 1.232-.784l.308-.161c.513-.257 1.05-.572 1.61-.945.175.035.37.057.584.066l.221.004c.303 0 .572.047.805.14.595.28 1.164.56 1.706.84l.534.28c.7.373 1.447.747 2.24 1.12.7.327 1.167.933 1.4 1.82.093.653.21 1.307.35 1.96.12.56.137 1.12.051 1.68l-.051.28c-.12.68-.206 1.257-.257 1.731l-.023.229c-.047.513-.117.992-.21 1.435a36.36 36.36 0 01-.315 1.365 16.1 16.1 0 01-.494 1.547l-.101.273a13.987 13.987 0 01-.583 1.415l-.117.23c-.233.443-.42.992-.56 1.645-.187.14-.42.35-.7.63a.475.475 0 00-.14.35c.14.7.023 1.283-.35 1.75-.163.408-.318.674-.463.796l-.062.044c-.163.093-.362.35-.595.77-.14.233-.21.537-.21.91-.047.093-.047.175 0 .245s.093.152.14.245c.187.047.677-.28 1.47-.98.793-.7 1.633-1.493 2.52-2.38.71-.71 1.374-1.389 1.994-2.038l1.786-1.882c.156-.156.311-.3.467-.436l.233-.194c.156-.124.311-.26.467-.404l.233-.226c.56-.56 1.143-.91 1.75-1.05.42.093.852.35 1.295.77.443.42.758.84.945 1.26a9.94 9.94 0 01-1.406 1.766l-.274.264c-.523.485-1 1-1.434 1.546l-.316.414c-.233.327-.933 1.015-2.1 2.065l-1.029.917c-.88.779-1.821 1.593-2.821 2.443a118.95 118.95 0 01-3.99 3.255l-.662.51c-.889.675-1.485 1.088-1.788 1.24a53.27 53.27 0 00-2.31 1.155c-.747.397-1.447.805-2.1 1.225-.373.037-.724.03-1.053-.022l-.242-.048a3.328 3.328 0 00-.93-.09l-.225.02c-1.773.187-3.43.023-4.97-.49-1.422-.474-2.704-1.246-3.847-2.316l-.283-.274a.861.861 0 00-.19-.15l-.055-.025a.69.69 0 01-.245-.175l-.213.42c-.1.196-.193.371-.277.525-.14.257-.257.432-.35.525a60.998 60.998 0 00-.455 2.52 11.52 11.52 0 01-.525 2.1 254.03 254.03 0 01-1.175 4.331l-.4 1.409a250.189 250.189 0 00-1.575 5.74c-.28 1.167-.56 2.345-.84 3.535a70.391 70.391 0 00-.77 3.745 8.117 8.117 0 01-.591.358l-.319.167c-.327.163-.63.338-.91.525-1.073.14-2.053.035-2.94-.315a73.09 73.09 0 01-2.45-1.015c-.42-.467-.7-.898-.84-1.295a3.655 3.655 0 01-.21-1.225c0-.747.012-1.47.035-2.17.023-.7.082-1.423.175-2.17.14-1.167.303-2.322.49-3.465.14-.858.293-1.735.46-2.632l.17-.903c.467-2.52.98-4.982 1.54-7.385.56-2.403 1.12-4.865 1.68-7.385a119.65 119.65 0 011.12-4.41c.373-1.353.77-2.672 1.19-3.955.42-1.283.863-2.578 1.33-3.885l.482-1.338c.332-.912.685-1.866 1.058-2.862a59.857 59.857 0 011.645-3.92 19.608 19.608 0 012.275-3.71c.233-.233.455-.467.665-.7.21-.233.525-.42.945-.56.047.023.105.047.175.07l.245.07c.187.047.373.117.56.21.793.42 1.587.852 2.38 1.295.793.443 1.54.992 2.24 1.645.42.84.467 1.61.14 2.31a48.218 48.218 0 00-.245 1.47 5.94 5.94 0 00-.059 1.097l.017.286zm-.763 20.177c.233-.14.432-.268.595-.385a3.66 3.66 0 00.455-.385 11.82 11.82 0 002.73-3.5c.467-.887.933-1.738 1.4-2.555.35-.613.674-1.232.971-1.857l1.112-2.434.542-1.204c.397-.887.77-1.75 1.12-2.59.35-.84.688-1.727 1.015-2.66l.286-.829c.243-.714.497-1.488.764-2.321l.14-.56c.047-.187-.07-.35-.35-.49-.175.14-.33.28-.466.42l-.129.14a4.637 4.637 0 01-.595.56l-.503.457a27.41 27.41 0 01-1.107.943c-.467.373-.933.735-1.4 1.085-.467.35-.922.723-1.365 1.12-.443.397-.945.898-1.505 1.505l-2.45 2.87c-.84.98-1.587 2.007-2.24 3.08-.233.373-.42.735-.56 1.085-.14.35-.35.665-.63.945a5.533 5.533 0 00-1.225 2.38c-.21.887-.478 1.75-.805 2.59l1.4.63 1.26.56c.156.156.321.311.498.467l.272.233c.28.233.537.467.77.7zm27.37-23.45l1.155-.385c.35-.117.712-.222 1.085-.315.156.062.306.114.451.156l.214.054c.21.047.408.117.595.21.385.175.744.35 1.076.525l.324.175c.42.233.887.467 1.4.7l.093.144.187.311c.093.163.187.292.28.385 0 .933-.21 1.738-.63 2.415a6.156 6.156 0 00-.78 1.91l-.06.295c-.14.793-.338 1.54-.595 2.24a36.12 36.12 0 00-.735 2.24c-.156.498-.306.985-.451 1.462l-.214.708c-.21.7-.432 1.423-.665 2.17a32.752 32.752 0 01-.84 2.1c-.327.747-.467 1.61-.42 2.59.607-.607 1.283-1.412 2.03-2.415l1.137-1.522 1.173-1.558a972.97 972.97 0 011.746-2.303l.564-.742c.747-.98 1.423-1.773 2.03-2.38.467.187.863.327 1.19.42.233.373.455.747.665 1.12.21.373.432.723.665 1.05l-.257.35c-.186.249-.404.529-.653.84a15.38 15.38 0 00-1.168 1.355l-1.028 1.331c-.286.368-.58.744-.884 1.129l-1.75 2.205-.356.439c-.395.48-.72.847-.974 1.101a.861.861 0 01-.19.15l-.055.025c-.07.023-.128.082-.175.175a7.277 7.277 0 01-1.328 2.086l-.247.259a13.427 13.427 0 00-1.785 2.205 22.64 22.64 0 01-1.015 1.085l-1.085 1.085c-1.213.14-2.333.082-3.36-.175-1.027-.257-1.937-.782-2.73-1.575a6.05 6.05 0 01-.49-1.96 14.73 14.73 0 010-2.03c.233-2.1.583-4.165 1.05-6.195.373-1.624.791-3.255 1.254-4.894l.356-1.231c.7-2.52 1.773-5.133 3.22-7.84.233-.56.56-1.12.98-1.68zm5.39-3.01c-.747-.233-1.365-.56-1.855-.98-.49-.42-.992-.91-1.505-1.47 0-.233-.023-.467-.07-.7l-.14-.7a4.969 4.969 0 011.75-2.17c.84.513 1.692.945 2.555 1.295.863.35 1.622.922 2.275 1.715a13.96 13.96 0 00-.14 1.82c-.373.513-.805.817-1.295.91l-.761.14c-.263.047-.534.093-.814.14zm12.11 23.8a18.525 18.525 0 00-.175 1.96c-.023.653-.035 1.33-.035 2.03l.358-.081c.433-.105.687-.194.762-.269a15.79 15.79 0 002.94-2.135 31.736 31.736 0 002.59-2.695 54.245 54.245 0 003.255-4.165 207.24 207.24 0 003.045-4.445l.84-1.26.671.148c.337.076.615.144.834.202a11 11 0 01.91.28c.257.093.478.21.665.35l.246.19c.135.107.286.23.454.37-.093.28-.233.537-.42.77-.187.233-.257.56-.21.98.047.233-.035.502-.245.805-.21.303-.408.572-.595.805a100.14 100.14 0 01-7.42 10.08 44.757 44.757 0 01-1.54 1.47l-1.54 1.4c-.513.327-.933.56-1.26.7-1.54.42-3.057.642-4.55.665-1.493.023-2.987-.362-4.48-1.155-2.427-1.26-3.873-3.243-4.34-5.95a16.031 16.031 0 01-.21-3.325 25.24 25.24 0 01.35-3.255 62.136 62.136 0 012.17-7.875 36.444 36.444 0 013.57-7.385c.887-1.307 1.738-2.252 2.555-2.835.817-.583 1.645-.887 2.485-.91.84-.023 1.727.152 2.66.525s1.96.863 3.08 1.47c1.307.653 2.275 1.505 2.905 2.555.63 1.05 1.062 2.252 1.295 3.605v.77c0 .28-.023.513-.07.7a45.477 45.477 0 01-1.085 3.15 8.533 8.533 0 01-1.785 2.8 67.806 67.806 0 00-3.226 3.338l-.764.862a55.565 55.565 0 01-3.99 4.13c-.187.14-.42.35-.7.63zm6.51-15.19c0-.607.035-1.19.105-1.75.07-.56-.058-1.167-.385-1.82l-.385.385a.982.982 0 00-.245.385l-.482.871-.253.459a6.695 6.695 0 00-.595 1.47c-.14.467-.327.887-.56 1.26a4.74 4.74 0 01-.91 1.05c-.047.42-.082.828-.105 1.225a19.68 19.68 0 00-.035 1.155c0 .093.117.21.35.35.7-.7 1.353-1.447 1.96-2.24.607-.793 1.12-1.727 1.54-2.8zm-5.512-5.09l-.088.05.07.07a.57.57 0 01.018-.12zm16.292-1.98c.233 0 .42-.023.56-.07.14-.047.327-.023.56.07.71.336 1.426.627 2.15.874l.545.176c.91.28 1.762.677 2.555 1.19.513.56.63 1.143.35 1.75a92.064 92.064 0 01-.595 1.995 5.353 5.353 0 01-1.015 1.855c.041.498-.074.986-.346 1.466l-.109.179c-.35.537-.478 1.108-.385 1.715.373 0 .618-.093.735-.28.117-.187.245-.373.385-.56a5.19 5.19 0 00.63-.595c.187-.21.397-.432.63-.665.28-.373.63-.7 1.05-.98.093-.093.192-.197.296-.311l.159-.179c.123-.14.265-.28.427-.42l.168-.14c.175-.14.324-.28.446-.42l.114-.14c.14-.187.35-.397.63-.63a1.73 1.73 0 01.455-.525l.271-.201c.1-.076.207-.16.324-.254l.466-.38.129-.11c.163-.14.338-.28.525-.42.175-.14.33-.28.466-.42l.129-.14c.163-.187.338-.327.525-.42a4.46 4.46 0 01.545-.466l.19-.129c.257-.163.455-.315.595-.455.233-.187.455-.35.665-.49.21-.14.432-.28.665-.42a16.94 16.94 0 002.106.986l.554.204c.933.327 1.797.7 2.59 1.12.513.56.747 1.108.7 1.645a3.635 3.635 0 00.21 1.575 80.48 80.48 0 01-.778 2.224l-.412 1.101a54.536 54.536 0 00-1.19 3.465 5.737 5.737 0 01-.358.986l-.132.274a9.37 9.37 0 00-.56 1.365c-.14.443-.21.805-.21 1.085 0 .28.187.397.56.35.187-.047.665-.373 1.435-.98a52.784 52.784 0 002.45-2.065c.863-.77 1.68-1.528 2.45-2.275l.36-.356c.561-.564.92-.982 1.075-1.254.12.08.343.169.669.266l.455.13c.254.074.416.129.486.164.14.327.198.607.175.84a2.567 2.567 0 01-.175.7l-.366.458a68.92 68.92 0 01-1.664 1.957 34.66 34.66 0 01-2.765 2.8 34.69 34.69 0 01-3.01 2.45c-1.003.723-1.902 1.178-2.695 1.365a9.99 9.99 0 01-1.435-.21 6.046 6.046 0 01-1.19-.42c-.397-.187-.828-.42-1.295-.7-.467-.28-1.003-.63-1.61-1.05a9.737 9.737 0 01-.315-3.92c.163-1.307.362-2.567.595-3.78-.187-.14-.338-.21-.455-.21a.902.902 0 00-.233.031l-.117.039a.86.86 0 01-.315.07c-.093 0-.187-.047-.28-.14-.28.793-.618 1.447-1.015 1.96a70.686 70.686 0 01-1.225 1.54 108.484 108.484 0 00-3.78 4.865 52.325 52.325 0 00-3.36 5.215 4.046 4.046 0 00-.77 1.05c-.14.07-.287.12-.44.15l-.155.025c-.21.023-.455.082-.735.175-.093.093-.21.35-.35.77.093.233.175.467.245.7.07.233.152.49.245.77-.373.093-.723.175-1.05.245a1.98 1.98 0 01-.784.011l-.196-.046a6.421 6.421 0 01-2.52-1.085c-.747-.537-1.307-1.342-1.68-2.415-.233-.84-.292-1.738-.175-2.695.117-.957.222-1.902.315-2.835l.35-2.004c.117-.659.233-1.31.35-1.951.233-1.283.49-2.578.77-3.885.327-1.587.712-3.15 1.155-4.69a25.792 25.792 0 011.715-4.41c.233-.513.49-.992.77-1.435.28-.443.653-.898 1.12-1.365zm72.1 9.66a15.187 15.187 0 01-1.61 1.645 8.802 8.802 0 01-2.1 1.365c-.49.315-.993.643-1.51.984l-2.62 1.746c-.467.28-.945.572-1.435.875-.49.303-.992.572-1.505.805-.607.233-1.307.63-2.1 1.19-.513-.093-1.05-.21-1.61-.35a4.394 4.394 0 00-1.75-.07c-.124.29-.101.525.07.705l.07.065c.233.187.327.467.28.84-.07.035-.147.09-.23.164l-.085.081a1.288 1.288 0 01-.315.245c-.373.14-.77.268-1.19.385l-.809.218-.381.097-.187.716c-.03.114-.062.225-.093.334a6.966 6.966 0 00-.21 1.05 122.028 122.028 0 00-.63 4.06 30.192 30.192 0 00-.28 4.13v.805c0 .303.023.595.07.875.093.233.163.478.21.735.047.257.117.572.21.945a3.6 3.6 0 01-.56-.035.862.862 0 00-.42.035c-.933.42-1.808.56-2.625.42a10.48 10.48 0 01-2.485-.77c-.933-.42-1.622-.98-2.065-1.68-.443-.7-.758-1.517-.945-2.45a71.597 71.597 0 01-.35-5.495 37.215 37.215 0 01.28-5.565c.14-.84.257-1.703.35-2.59l.28-2.66c.513-5.693 1.773-11.153 3.78-16.38.093-.373.023-.677-.21-.91-.28.233-.525.513-.735.84-.21.327-.397.642-.56.945a4.216 4.216 0 01-.595.84 2.396 2.396 0 01-.84.595c-.14.7-.303 1.33-.49 1.89a4.9 4.9 0 00-.07.805v.945h-2.52a127.58 127.58 0 01-1.855-.875 3.54 3.54 0 01-1.505-1.365 3.36 3.36 0 01.07-2.24c.467-.98.98-1.96 1.54-2.94a22.64 22.64 0 011.89-2.8 28.094 28.094 0 013.29-3.78 43.347 43.347 0 013.85-3.29A38.239 38.239 0 01238 5.39c.747-.42 1.563-.793 2.45-1.12.28-.124.57-.244.871-.358l.459-.167c.467-.163.887-.338 1.26-.525 4.013-1.867 8.097-2.73 12.25-2.59 1.353.047 2.637.268 3.85.665s2.357 1.062 3.43 1.995c.28.249.555.487.824.716l.401.334c.397.327.805.677 1.225 1.05 2.94 2.94 3.967 6.37 3.08 10.29a12.165 12.165 0 00-.455 1.575 3.625 3.625 0 01-.735 1.505 3.955 3.955 0 00-.42 1.19c-.14.513-.327.992-.56 1.435a3.99 3.99 0 01-.91 1.155c-.28.2-.457.434-.531.703l-.029.137a1.701 1.701 0 01-.35.84 47.987 47.987 0 00-1.516 1.805l-.479.61a47.531 47.531 0 01-1.995 2.415 53.203 53.203 0 01-2.03 1.925c-.467.42-.933.845-1.4 1.276l-.7.649c-.233.233-.548.443-.945.63a11.61 11.61 0 00-1.435.84zm-16.94 3.64a1.45 1.45 0 01.354-.17l.136-.04c.187-.047.35-.117.49-.21 2.473-1.633 4.9-3.313 7.28-5.04a55.989 55.989 0 006.72-5.74 209.513 209.513 0 003.185-3.255 30.398 30.398 0 002.905-3.535 15.18 15.18 0 011.225-1.715 9.422 9.422 0 011.365-1.365c.327-1.26.677-2.31 1.05-3.15.233-.653.443-1.272.63-1.855a11.34 11.34 0 00.42-1.855c.093-.84.093-1.633 0-2.38-.093-.747-.397-1.447-.91-2.1-.373-.327-.723-.525-1.05-.595a5.006 5.006 0 00-1.05-.105 16.886 16.886 0 00-3.78.14 25.607 25.607 0 00-3.64.84c-.249.062-.487.12-.716.171l-.334.074c-.327.07-.677.152-1.05.245-.56.249-1.12.487-1.68.716l-.84.334a38.66 38.66 0 00-2.45 1.05h-1.26l-.472.534c-.152.169-.298.33-.438.481-.28.303-.583.595-.91.875.311.272.598.48.86.622l.155.078c.303.14.502.397.595.77.047.467-.105.793-.455.98-.35.187-.595.443-.735.77.031.124.052.249.062.373l.008.187c0 .187.047.397.14.63-.212.467-.482 1.194-.81 2.181l-.1.304c-.327 1-.671 2.117-1.034 3.35l-.156.535c-.35 1.206-.7 2.476-1.05 3.811l-.21.809a742.11 742.11 0 00-.963 3.786l-.227.904c-.32 1.28-.606 2.474-.857 3.583l-.123.547c-.28 1.26-.467 2.24-.56 2.94l.28.49zm-4.48-14.28c.047-.047.093-.07.14-.07.047 0 .093-.047.14-.14v.21c-.047.047-.117.07-.21.07l-.07-.07zm-.42 2.03c-.047-.093-.058-.152-.035-.175.023-.023.035-.082.035-.175l.14.14v.21h-.14zm40.6 21.56c.28 0 .49-.093.63-.28.14-.187.28-.35.42-.49.455-.525.884-1.043 1.286-1.555l.394-.51a18.724 18.724 0 011.68-1.925c.513-.7 1.085-1.365 1.715-1.995.63-.63 1.272-1.225 1.925-1.785.233-.327.525-.572.875-.735.35-.163.712-.362 1.085-.595.7-.14 1.26.07 1.68.63a.657.657 0 00-.062.202l-.008.113a.695.695 0 01-.07.315c-.373.42-.758.817-1.155 1.19s-.782.747-1.155 1.12a125.724 125.724 0 00-4.34 5.005 138.088 138.088 0 00-4.13 5.285 6.657 6.657 0 00-1.015 1.33l-.584.974c-.138.228-.282.463-.431.706a.48.48 0 01-.48-.017l-.08-.053c-.187-.14-.443-.21-.77-.21a8.038 8.038 0 00-.653.218l-.327.132c-.327.14-.677.257-1.05.35a2.59 2.59 0 00-.525-.15l-.175-.025a2.5 2.5 0 01-.525-.112l-.175-.063c-1.12-.373-2.007-.957-2.66-1.75s-1.097-1.727-1.33-2.8a16.032 16.032 0 01-.42-2.975 19.892 19.892 0 01.07-2.905c.07-.84.166-1.673.289-2.5l.131-.825a38.96 38.96 0 00.42-3.325c.233-2.193.56-4.375.98-6.545.42-2.17.887-4.328 1.4-6.475a57.838 57.838 0 016.79-16.59c.175-.28.35-.54.525-.78l.175-.235c.233-.303.467-.618.7-.945.14-.14.292-.268.455-.385l.342-.249.183-.136c1.12.327 2.228.653 3.325.98 1.097.327 2.182.723 3.255 1.19.14.373.28.712.42 1.015l.228.481c.081.17.169.347.262.534l-.56 2.214c-.187.729-.373 1.45-.56 2.161a109.339 109.339 0 00-1.05 4.375 39.928 39.928 0 01-.829 3.45l-.256.855a40.071 40.071 0 00-1.085 4.305c-.075.299-.187.59-.336.874l-.119.211a8.6 8.6 0 00-.595 1.225l.14.42c-.933 3.36-1.773 6.72-2.52 10.08-.327 1.12-.63 2.228-.91 3.325l-.56 2.178-.28 1.077a2.355 2.355 0 00-.035.7c.023.233.035.467.035.7zm32.13-21.84l.114.331c.09.253.17.446.236.579l.665.665c.21.21.432.455.665.735-.093.436-.192.866-.296 1.291l-.159.634c-.163.63-.315 1.272-.455 1.925l-.61 2.46-.195.795c-.257 1.05-.525 2.112-.805 3.185a44.232 44.232 0 01-.665 3.15 104.642 104.642 0 00-.735 3.15 1.796 1.796 0 00-.175.63c-.023.233.082.467.315.7a417.05 417.05 0 002.765-4.06 21.5 21.5 0 013.255-3.78l1.104.28.541.14a5.53 5.53 0 011.575.7 23.345 23.345 0 01-1.61 2.205 119.02 119.02 0 01-1.75 2.065 60.72 60.72 0 00-4.095 4.97 56.417 56.417 0 00-3.395 5.18l-.731.28-.354.14a8.41 8.41 0 01-1.085.35c-2.1.093-3.803-.63-5.11-2.17a4.676 4.676 0 01-.455-1.4 9.907 9.907 0 01-.105-1.47V47.6c0-.513-.023-1.027-.07-1.54-.28.311-.55.627-.809.949l-.381.486c-.373.49-.77.968-1.19 1.435-.42.467-.898.898-1.435 1.295-.537.397-1.178.735-1.925 1.015a8.693 8.693 0 01-4.025.035c-1.33-.303-2.508-1.038-3.535-2.205-.513-1.073-.758-2.135-.735-3.185.023-1.05.152-2.088.385-3.115a23.32 23.32 0 011.155-4.515 30.17 30.17 0 011.925-4.235c.373-.747.747-1.458 1.12-2.135a8.65 8.65 0 011.269-1.714l.271-.281a5.06 5.06 0 00.739-.909l.101-.176c.187-.35.467-.688.84-1.015a16.355 16.355 0 013.64-3.08c1.353-.84 3.01-1.377 4.97-1.61.14.047.385.093.735.14l1.085.14c.572.163 1.045.425 1.42.785l.155.16c.397.443.922.782 1.575 1.015a9.51 9.51 0 01.63-.35c.187-.093.373-.21.56-.35.513.14 1.027.268 1.54.385.513.117 1.027.268 1.54.455zm-7.44 3.214c-.411-.133-.754-.096-1.03.111-.28.21-.537.315-.77.315-.467.327-.887.7-1.26 1.12a17.984 17.984 0 00-2.8 2.695 16.335 16.335 0 00-2.1 3.185 45.442 45.442 0 00-1.785 4.06c-.537 1.4-1.015 2.8-1.435 4.2-.062.311-.12.612-.171.902l-.074.428c-.07.42-.152.863-.245 1.33 0 .047.07.163.21.35a4.1 4.1 0 01.56-.49 29.57 29.57 0 002.555-2.905 82.489 82.489 0 002.275-3.115l.07-.14c.327-.42.595-.84.805-1.26.21-.42.432-.817.665-1.19a90.33 90.33 0 011.47-2.205 11.77 11.77 0 001.19-2.205c.21-.595.427-1.17.65-1.726l.225-.549c.303-.723.595-1.482.875-2.275a.657.657 0 00.062-.202l.008-.113c0-.066.007-.135.022-.209l.028-.112zm18.71 20.796a9.818 9.818 0 001.645-1.61 69.53 69.53 0 011.435-1.75c.56-.7 1.178-1.435 1.855-2.205a67.178 67.178 0 001.995-2.38 63.382 63.382 0 001.89-2.485 18.24 18.24 0 001.54-2.52c.233-.373.467-.805.7-1.295.233-.49.56-.922.98-1.295.607.187 1.225.362 1.855.525a4.44 4.44 0 011.715.875c-.187 1.073-.548 2.018-1.085 2.835a9.974 9.974 0 00-1.225 2.625 7.51 7.51 0 01-.63.656l-.21.184c-.28.233-.537.513-.77.84-.093.607-.28 1.12-.56 1.54-.28.42-.595.817-.945 1.19s-.723.747-1.12 1.12a6.901 6.901 0 00-1.085 1.33 1.24 1.24 0 01-.25.276l-.1.074c-.14.093-.257.257-.35.49-.327.467-.618.91-.875 1.33-.171.28-.347.55-.529.809l-.276.381c-.093.14-.187.245-.28.315-.093.07-.187.152-.28.245a16.02 16.02 0 01-1.54 1.12c-.513.327-1.027.677-1.54 1.05a10.236 10.236 0 01-3.22.455c-1.073-.023-2.147-.292-3.22-.805-1.073-.42-1.937-1.038-2.59-1.855-.653-.817-1.097-1.902-1.33-3.255a16.427 16.427 0 01-.49-2.415 13.071 13.071 0 01-.07-2.345c0-1.447.047-2.765.14-3.955a55.32 55.32 0 01.385-3.5c.163-1.143.373-2.287.63-3.43a48.768 48.768 0 011.015-3.745c.327-.793.665-1.587 1.015-2.38a53.01 53.01 0 011.085-2.31c.233-.467.455-.852.665-1.155a8.22 8.22 0 01.665-.84c.233-.257.513-.502.84-.735l1.26-.91a9.5 9.5 0 012.45-.245 8.7 8.7 0 012.52.455c.513.233 1.05.397 1.61.49.56.093 1.12.21 1.68.35l.588.112c.187.037.364.075.532.112l.245.056c.397.093.735.187 1.015.28.467.42.793.817.98 1.19.187.373.292.747.315 1.12a5.62 5.62 0 01-.034.986l-.036.274c-.07.467-.105.98-.105 1.54-.332.124-.535.35-.608.678l-.022.127c-.047.397-.257.665-.63.805l-1.96-.7c-.653-.233-1.33-.467-2.03-.7-.245.35-.51.7-.794 1.05l-.291.35a24.7 24.7 0 00-1.155 1.47 7.455 7.455 0 01-.315 2.59c-.257.84-.572 1.727-.945 2.66-.28.747-.502 1.423-.665 2.03-.163.607-.292 1.19-.385 1.75-.062.373-.12.757-.171 1.151l-.074.599a29.41 29.41 0 01-.315 2.03 19.207 19.207 0 00-.35 2.835 63.035 63.035 0 01-.21 2.905c0 .07.026.127.079.17l.061.04c.093.047.187.163.28.35zm18.9-2.52a18.525 18.525 0 00-.175 1.96c-.023.653-.035 1.33-.035 2.03l.358-.081c.433-.105.687-.194.762-.269a15.79 15.79 0 002.94-2.135 31.736 31.736 0 002.59-2.695 54.245 54.245 0 003.255-4.165 207.24 207.24 0 003.045-4.445l.84-1.26.671.148c.337.076.615.144.834.202a11 11 0 01.91.28c.257.093.478.21.665.35l.246.19c.135.107.286.23.454.37-.093.28-.233.537-.42.77-.187.233-.257.56-.21.98.047.233-.035.502-.245.805-.21.303-.408.572-.595.805a100.14 100.14 0 01-7.42 10.08 44.757 44.757 0 01-1.54 1.47l-1.54 1.4c-.513.327-.933.56-1.26.7-1.54.42-3.057.642-4.55.665-1.493.023-2.987-.362-4.48-1.155-2.427-1.26-3.873-3.243-4.34-5.95a16.031 16.031 0 01-.21-3.325 25.24 25.24 0 01.35-3.255 62.136 62.136 0 012.17-7.875 36.444 36.444 0 013.57-7.385c.887-1.307 1.738-2.252 2.555-2.835.817-.583 1.645-.887 2.485-.91.84-.023 1.727.152 2.66.525s1.96.863 3.08 1.47c1.307.653 2.275 1.505 2.905 2.555.63 1.05 1.062 2.252 1.295 3.605v.77c0 .28-.023.513-.07.7a45.477 45.477 0 01-1.085 3.15 8.533 8.533 0 01-1.785 2.8 67.806 67.806 0 00-3.226 3.338l-.764.862a55.565 55.565 0 01-3.99 4.13c-.187.14-.42.35-.7.63zm6.51-15.19c0-.607.035-1.19.105-1.75.07-.56-.058-1.167-.385-1.82l-.385.385a.982.982 0 00-.245.385l-.482.871-.253.459a6.695 6.695 0 00-.595 1.47c-.14.467-.327.887-.56 1.26a4.74 4.74 0 01-.91 1.05c-.047.42-.082.828-.105 1.225a19.68 19.68 0 00-.035 1.155c0 .093.117.21.35.35.7-.7 1.353-1.447 1.96-2.24.607-.793 1.12-1.727 1.54-2.8z" id="HappierPlace-Copy" fill="url(#linearGradient-1)" fill-rule="nonzero"/></g></svg>