<svg version="1.1" id="Layer_1" xmlns="http://www.w3.org/2000/svg" x="0" y="0" viewBox="0 0 595.3 841.9" xml:space="preserve"><path fill="none" stroke="#fff" class="life-stroke-1" d="M67.5 456.2c23.1 1.9 56.9-32.8 75.7-69.9 3.4-6.3 8.7-6.7 10.6 0 2.4 7.7.5 18.3-4.8 29.9-6.7 14.5-41.9 54.5-80.5 53.5-33.3-1-51.1-24.1-40-76.2 17.8-83.9 72.8-171.1 122-222.2 7.2-7.7 14-8.7 20.7-2.4 14 12.5 16.9 30.4 11.1 53-15 59.2-69 117.1-111.9 145.1-19.3 47.2-24.6 87.2-2.9 89.2zm98.4-244.5c-6.3-3.9-41.9 49.7-75.2 111.4-4.3 7.7-8.2 15.4-11.6 23.1 66-53.5 93-130.6 86.8-134.5z"/><path fill="none" stroke="#fff" class="life-stroke-2" d="M147.1 400.2C159.2 365 191 308.1 208.8 283c4.3-5.8 7.7-7.2 11.6-2.9 7.2 7.7 11.1 28.4-.5 52.5-10.1 21.2-30.4 54-40.5 78.1-11.6 28-10.6 46.8 4.8 45.8 21.7-1 48.2-32.8 62.7-66 2.4-4.3 5.8-3.9 7.7 0 3.9 7.7 2.4 17.8-3.4 29.9-14.5 29.9-44.8 50.1-71.8 50.1-36.7.1-45.8-30.7-32.3-70.3zm107.5-125.8c-6.3 6.7-19.8 5.3-27-7.2-7.7-13-5.3-27.5 2.4-35.7 7.7-8.2 21.7-2.4 28 10.6 6.2 12.5 2.8 25.6-3.4 32.3z"/><path fill="none" stroke="#fff" class="life-stroke-3" d="M326.4 430.6c0 5.3-.5 10.6-1 16.4 18.3-12.1 37.6-36.2 50.1-61.2 2.9-5.8 7.7-6.3 10.1.5 2.4 7.2-.5 17.8-4.8 28.9-4.8 11.6-28.9 40-57.9 50.1-7.7 48.7-28.9 102.2-52.1 131.1-16.4 20.2-28.4 22.2-42.9 9.6-12.1-10.1-26.5-28.9-21.2-69.9C220.3 428.7 331.2 244 384.7 164c3.9-5.8 10.1-5.3 12.1.5 5.8 16.4 4.3 37.1-16.4 72.3-19.8 32.8-53 87.3-79.1 137.9 18.3 5.8 25.6 24.1 25.1 55.9zm-93.1 156.7c10.6 14 46.8-52.5 62.7-118.6-14-1.4-23.6-7.7-29.4-19.3-27 64.1-44.3 123.9-33.3 137.9zm70-167.3c.5-17.8-4.3-32.8-7.7-31.3-4.8 1.9-9.2 27.5-9.6 38.6-.5 15.4 3.9 25.6 13 27.5 2.3-11.7 3.8-23.7 4.3-34.8z"/><path fill="none" stroke="#fff" class="life-stroke-4" d="M438.7 457.1c40 1.9 75.2-36.6 95.9-68.5 2.4-3.9 6.3-3.9 8.2.5 1.9 3.9.5 17.4-8.2 29.9-20.2 29.4-57.4 51.6-94.5 52.1-61.2 1-82.4-59.3-51.1-121.5s80.5-87.3 104.6-73.3c12.1 7.2 20.7 14.5 28.4 25.1 8.7 11.6 4.8 41-15.4 65.6-23.6 28.9-55.9 41.5-89.7 14-15.3 44.3-3.7 74.7 21.8 76.1zm40-110.9c15.4-20.2 26-45.3 19.3-50.6-10.1-8.2-50.1 20.7-72.8 66.5-1.4 2.9-2.9 5.8-3.9 8.2 23.7 15 43.5-5.7 57.4-24.1z"/></svg>