<!--?xml version="1.0" encoding="utf-8"?-->
<!-- Generator: Adobe Illustrator 22.1.0, SVG Export Plug-In . SVG Version: 6.00 Build 0)  -->
<svg version="1.1" class="life-text" id="life-text" x="0px" y="0px" viewBox="0 0 45 41.8" style="">
	<path fill="none" stroke="#ffffff" d="M15.9,5.7l-4.5,19.7L11.3,26c-0.1,0.6-0.2,1.2-0.2,1.6c0,0.4,0.1,0.6,0.2,0.9c0.1,0.2,0.3,0.3,0.5,0.3
		c0.4,0,0.9-0.4,1.7-1.3l0.3,0.2L13.6,28c-0.6,0.8-1.1,1.3-1.4,1.5s-0.6,0.4-0.9,0.4c-0.3,0-0.6-0.2-0.9-0.6
		C10.1,29,10,28.5,10,28.1c0-0.3,0.1-0.9,0.2-1.6l3.9-19.9L15.9,5.7z" class="VfYDsRVP_0"></path>
	<path fill="none" stroke="#ffffff" d="M18.9,19.8l-1.5,5.6C17.1,26.3,17,27,17,27.6c0,0.4,0.1,0.7,0.2,0.9c0.1,0.2,0.3,0.3,0.5,0.3c0.4,0,0.9-0.4,1.7-1.3
		l0.3,0.2L19.5,28c-0.6,0.8-1.1,1.3-1.4,1.5s-0.6,0.4-0.9,0.4c-0.4,0-0.7-0.2-0.9-0.5c-0.2-0.4-0.4-0.8-0.4-1.3
		c0-0.3,0.1-0.9,0.2-1.6l1.1-6L18.9,19.8z M19.4,13.1c0.3,0,0.5,0.1,0.7,0.3c0.2,0.2,0.3,0.4,0.3,0.7c0,0.3-0.1,0.5-0.3,0.7
		c-0.2,0.2-0.4,0.3-0.7,0.3c-0.3,0-0.5-0.1-0.7-0.3s-0.3-0.4-0.3-0.7c0-0.3,0.1-0.5,0.3-0.7C18.8,13.2,19.1,13.1,19.4,13.1z" class="VfYDsRVP_1"></path>
	<path fill="none" stroke="#ffffff" d="M23.5,20.6h-1.7l0.1-0.6h1.7l1.6-7.5c0.3-1.2,0.6-2.2,0.8-3c0.3-0.7,0.6-1.4,1-1.9c1-1.3,2.2-2,3.7-2
		c0.5,0,0.9,0.1,1.4,0.2l-0.6,1.6c-0.5-0.6-1-1-1.7-1c-0.5,0-1,0.2-1.3,0.6c-0.3,0.4-0.6,1.1-0.9,2.1L25,20h2.8l-0.1,0.6h-2.8
		l-2.3,9.7c-0.3,1.3-0.6,2.3-0.9,2.9c-0.3,0.6-0.7,1.2-1.2,1.8c-0.9,1-1.9,1.5-3,1.5c-0.5,0-1-0.1-1.4-0.3l0.8-1.2
		c0.5,0.4,1,0.6,1.6,0.6c0.8,0,1.5-0.4,1.9-1.3c0.3-0.7,0.6-1.8,1-3.3L23.5,20.6z" class="VfYDsRVP_2"></path>
	<path fill="none" stroke="#ffffff" d="M34.8,27.1l0.3,0.3c-0.7,0.9-1.4,1.6-2.1,2c-0.7,0.4-1.4,0.6-2.2,0.6c-0.9,0-1.7-0.3-2.2-0.9s-0.8-1.4-0.8-2.4
		c0-1,0.3-2.1,0.8-3.1c0.5-1.1,1.2-1.9,2-2.6s1.6-1,2.4-1c0.5,0,0.9,0.1,1.2,0.4c0.3,0.3,0.5,0.6,0.5,1.1c0,0.9-0.5,1.8-1.4,2.6
		c-1,0.9-2.3,1.6-3.9,2.2c0,0.1,0,0.2,0,0.3c0,0.8,0.2,1.4,0.6,1.9c0.4,0.5,1,0.7,1.7,0.7c0.5,0,1.1-0.2,1.6-0.5
		C33.7,28.3,34.3,27.8,34.8,27.1z M29.4,25.8c1.2-0.5,2.2-1.2,2.8-1.8c0.4-0.5,0.8-0.9,1.1-1.5c0.3-0.5,0.4-1,0.4-1.4
		c0-0.5-0.2-0.8-0.7-0.8c-0.7,0-1.5,0.6-2.2,1.8C30,23.2,29.5,24.5,29.4,25.8z" class="VfYDsRVP_3"></path>
<style data-made-with="vivus-instant">.VfYDsRVP_0{stroke-dasharray:57 59;stroke-dashoffset:58;animation:VfYDsRVP_draw_0 2500ms linear 0ms infinite,VfYDsRVP_fade 2500ms linear 0ms infinite;}.VfYDsRVP_1{stroke-dasharray:34 36;stroke-dashoffset:35;animation:VfYDsRVP_draw_1 2500ms linear 0ms infinite,VfYDsRVP_fade 2500ms linear 0ms infinite;}.VfYDsRVP_2{stroke-dasharray:88 90;stroke-dashoffset:89;animation:VfYDsRVP_draw_2 2500ms linear 0ms infinite,VfYDsRVP_fade 2500ms linear 0ms infinite;}.VfYDsRVP_3{stroke-dasharray:53 55;stroke-dashoffset:54;animation:VfYDsRVP_draw_3 2500ms linear 0ms infinite,VfYDsRVP_fade 2500ms linear 0ms infinite;}@keyframes VfYDsRVP_draw{100%{stroke-dashoffset:0;}}@keyframes VfYDsRVP_fade{0%{stroke-opacity:1;}84%{stroke-opacity:1;}100%{stroke-opacity:0;}}@keyframes VfYDsRVP_draw_0{4%{stroke-dashoffset: 58}36%{ stroke-dashoffset: 0;}100%{ stroke-dashoffset: 0;}}@keyframes VfYDsRVP_draw_1{6.666666666666668%{stroke-dashoffset: 35}38.66666666666667%{ stroke-dashoffset: 0;}100%{ stroke-dashoffset: 0;}}@keyframes VfYDsRVP_draw_2{9.333333333333334%{stroke-dashoffset: 89}41.333333333333336%{ stroke-dashoffset: 0;}100%{ stroke-dashoffset: 0;}}@keyframes VfYDsRVP_draw_3{12%{stroke-dashoffset: 54}44%{ stroke-dashoffset: 0;}100%{ stroke-dashoffset: 0;}}</style></svg>
