<svg version="1.1" id="life-text-svg" xmlns="http://www.w3.org/2000/svg" x="0" y="0" viewBox="0 0 33.3 37.7" xml:space="preserve"><defs class="st1"><clipPath id="clip-1"><path class="st0" d="M10 4.2L5.5 23.9l-.2.7c-.1.6-.2 1.2-.2 1.6 0 .4.1.6.2.9.1.2.3.3.5.3.4 0 .9-.4 1.7-1.3l.3.2-.2.2c-.6.8-1.1 1.3-1.4 1.5-.3.3-.6.4-.9.4-.3 0-.6-.2-.9-.6-.3-.2-.4-.7-.4-1.2 0-.3.1-.9.2-1.6l4-19.9 1.8-.9z"/></clipPath><clipPath id="clip-2"><path class="st0" d="M12.9 18.3l-1.5 5.6c-.3.9-.4 1.7-.4 2.2 0 .4.1.7.2.9.1.2.3.3.5.3.4 0 .9-.4 1.7-1.3l.3.2-.2.2c-.6.8-1.1 1.3-1.4 1.5-.3.3-.6.4-.9.4-.4 0-.7-.2-.9-.5-.2-.4-.4-.8-.4-1.3 0-.3.1-.9.2-1.6l1.1-6 1.7-.6zm.5-6.7c.3 0 .5.1.7.3.2.2.3.4.3.7 0 .3-.1.5-.3.7-.2.2-.4.3-.7.3-.3 0-.5-.1-.7-.3s-.3-.4-.3-.7c0-.3.1-.5.3-.7.2-.2.4-.3.7-.3z"/></clipPath><clipPath id="clip-3"><path class="st0" d="M17.5 19.2h-1.7l.1-.6h1.7l1.6-7.5c.3-1.2.6-2.2.8-3 .3-.7.6-1.4 1-1.9 1-1.3 2.2-2 3.7-2 .5 0 .9.1 1.4.2L25.5 6c-.5-.6-1-1-1.7-1-.5 0-1 .2-1.3.6-.3.4-.6 1.1-.9 2.1L19 18.6h2.8l-.1.6h-2.8l-2.3 9.7c-.3 1.3-.6 2.3-.9 2.9-.3.6-.7 1.2-1.2 1.8-.9 1-1.9 1.5-3 1.5-.5 0-1-.1-1.4-.3l.8-1.2c.5.4 1 .6 1.6.6.8 0 1.5-.4 1.9-1.3.3-.7.6-1.8 1-3.3l2.1-10.4z"/></clipPath><clipPath id="clip-4"><path class="st0" d="M28.9 25.7l.3.3c-.7.9-1.4 1.6-2.1 2-.7.4-1.4.6-2.2.6-.9 0-1.7-.3-2.2-.9s-.8-1.4-.8-2.4.3-2.1.8-3.1c.5-1.1 1.2-1.9 2-2.6s1.6-1 2.4-1c.5 0 .9.1 1.2.4.3.3.5.6.5 1.1 0 .9-.5 1.8-1.4 2.6-1 .9-2.3 1.6-3.9 2.2v.3c0 .8.2 1.4.6 1.9.4.5 1 .7 1.7.7.5 0 1.1-.2 1.6-.5.4-.4.9-.9 1.5-1.6zm-5.5-1.3c1.2-.5 2.2-1.2 2.8-1.8.4-.5.8-.9 1.1-1.5.3-.5.4-1 .4-1.4 0-.5-.2-.8-.7-.8-.7 0-1.5.6-2.2 1.8-.8 1.1-1.3 2.3-1.4 3.7z"/></clipPath></defs><g clip-path="url(#clip-1)"><path class="life-text life-text--l" d="M9 4.8c-1.1 5-2.1 10-3.2 15-.5 2.4-1 4.6-1.2 7.3 0 .3 0 .6.2.9.8 1.1 2.4-.7 2.8-1.3"/></g><g clip-path="url(#clip-2)"><path class="life-text life-text--i" d="M12.2 18.8s-2.3 7.4-1.4 8.6 2.7-1.1 2.7-1.1m.1-14.2l-.3.9"/></g><g clip-path="url(#clip-3)"><path class="life-text life-text--f" d="M25.8 5.1S22 2.9 20.6 9c-.7 3.2-1.5 6.5-2.2 9.7-.6 2.4-1.1 4.8-1.7 7.3-.6 2.2-.9 4.5-1.9 6.6-.2.3-.3.6-.6.9-1 1.1-2.4 1.4-3.8.8"/><path class="life-text life-text--a-f" d="M15.9 18.8h5.8"/></g><g clip-path="url(#clip-4)"><path class="life-text life-text--e" d="M22.8 24.8c1.7-.7 3.5-1.6 4.6-3.2.4-.6.7-1.2.8-1.9.1-.9-.9-1.2-1.7-1-1 .3-1.9 1.3-2.5 2.2-.4.6-.8 1.3-1.1 2-.6 1.6-.9 4.6 1.7 5.2 0 0 2.4.6 4.3-2.2"/></g></svg>