<?xml version="1.0" encoding="utf-8"?>
<!-- Generator: Adobe Illustrator 22.1.0, SVG Export Plug-In . SVG Version: 6.00 Build 0)  -->
<svg version="1.1" id="Layer_1" xmlns="http://www.w3.org/2000/svg" xmlns:xlink="http://www.w3.org/1999/xlink" x="0px" y="0px"
viewBox="0 0 33.3 37.7" style="enable-background:new 0 0 33.3 37.7;" xml:space="preserve">
<g>
<path class="st0" d="M-34,4.2l-4.5,19.7l-0.2,0.7c-0.1,0.6-0.2,1.2-0.2,1.6c0,0.4,0.1,0.6,0.2,0.9c0.1,0.2,0.3,0.3,0.5,0.3
c0.4,0,0.9-0.4,1.7-1.3l0.3,0.2l-0.2,0.2c-0.6,0.8-1.1,1.3-1.4,1.5c-0.3,0.3-0.6,0.4-0.9,0.4c-0.3,0-0.6-0.2-0.9-0.6
c-0.3-0.4-0.4-0.8-0.4-1.3c0-0.3,0.1-0.9,0.2-1.6l3.9-19.9L-34,4.2z"/>
<path class="st0" d="M-31.1,18.3l-1.5,5.6c-0.3,0.9-0.4,1.7-0.4,2.2c0,0.4,0.1,0.7,0.2,0.9c0.1,0.2,0.3,0.3,0.5,0.3
c0.4,0,0.9-0.4,1.7-1.3l0.3,0.2l-0.2,0.2c-0.6,0.8-1.1,1.3-1.4,1.5c-0.3,0.3-0.6,0.4-0.9,0.4c-0.4,0-0.7-0.2-0.9-0.5
c-0.2-0.4-0.4-0.8-0.4-1.3c0-0.3,0.1-0.9,0.2-1.6l1.1-6L-31.1,18.3z M-30.6,11.6c0.3,0,0.5,0.1,0.7,0.3c0.2,0.2,0.3,0.4,0.3,0.7
c0,0.3-0.1,0.5-0.3,0.7c-0.2,0.2-0.4,0.3-0.7,0.3c-0.3,0-0.5-0.1-0.7-0.3s-0.3-0.4-0.3-0.7c0-0.3,0.1-0.5,0.3-0.7
C-31.1,11.7-30.8,11.6-30.6,11.6z"/>
<path class="st0" d="M-26.4,19.2h-1.7l0.1-0.6h1.7l1.6-7.5c0.3-1.2,0.6-2.2,0.8-3c0.3-0.7,0.6-1.4,1-1.9c1-1.3,2.2-2,3.7-2
c0.5,0,0.9,0.1,1.4,0.2l-0.6,1.6c-0.5-0.6-1-1-1.7-1c-0.5,0-1,0.2-1.3,0.6c-0.3,0.4-0.6,1.1-0.9,2.1L-25,18.6h2.8l-0.1,0.6h-2.8
l-2.3,9.7c-0.3,1.3-0.6,2.3-0.9,2.9c-0.3,0.6-0.7,1.2-1.2,1.8c-0.9,1-1.9,1.5-3,1.5c-0.5,0-1-0.1-1.4-0.3l0.8-1.2
c0.5,0.4,1,0.6,1.6,0.6c0.8,0,1.5-0.4,1.9-1.3c0.3-0.7,0.6-1.8,1-3.3L-26.4,19.2z"/>
<path class="st0" d="M-15.1,25.7l0.3,0.3c-0.7,0.9-1.4,1.6-2.1,2c-0.7,0.4-1.4,0.6-2.2,0.6c-0.9,0-1.7-0.3-2.2-0.9
s-0.8-1.4-0.8-2.4c0-1,0.3-2.1,0.8-3.1c0.5-1.1,1.2-1.9,2-2.6s1.6-1,2.4-1c0.5,0,0.9,0.1,1.2,0.4c0.3,0.3,0.5,0.6,0.5,1.1
c0,0.9-0.5,1.8-1.4,2.6c-1,0.9-2.3,1.6-3.9,2.2c0,0.1,0,0.2,0,0.3c0,0.8,0.2,1.4,0.6,1.9c0.4,0.5,1,0.7,1.7,0.7
c0.5,0,1.1-0.2,1.6-0.5C-16.2,26.9-15.7,26.4-15.1,25.7z M-20.6,24.4c1.2-0.5,2.2-1.2,2.8-1.8c0.4-0.5,0.8-0.9,1.1-1.5
c0.3-0.5,0.4-1,0.4-1.4c0-0.5-0.2-0.8-0.7-0.8c-0.7,0-1.5,0.6-2.2,1.8C-20,21.8-20.4,23-20.6,24.4z"/>
</g>
<g class="st1">
<path class="st0" d="M10,4.2L5.5,23.9l-0.2,0.7c-0.1,0.6-0.2,1.2-0.2,1.6c0,0.4,0.1,0.6,0.2,0.9c0.1,0.2,0.3,0.3,0.5,0.3
c0.4,0,0.9-0.4,1.7-1.3l0.3,0.2l-0.2,0.2c-0.6,0.8-1.1,1.3-1.4,1.5c-0.3,0.3-0.6,0.4-0.9,0.4c-0.3,0-0.6-0.2-0.9-0.6
C4.1,27.6,4,27.1,4,26.6c0-0.3,0.1-0.9,0.2-1.6L8.2,5.1L10,4.2z"/>
<path class="st0" d="M12.9,18.3l-1.5,5.6c-0.3,0.9-0.4,1.7-0.4,2.2c0,0.4,0.1,0.7,0.2,0.9c0.1,0.2,0.3,0.3,0.5,0.3
c0.4,0,0.9-0.4,1.7-1.3l0.3,0.2l-0.2,0.2c-0.6,0.8-1.1,1.3-1.4,1.5c-0.3,0.3-0.6,0.4-0.9,0.4c-0.4,0-0.7-0.2-0.9-0.5
c-0.2-0.4-0.4-0.8-0.4-1.3c0-0.3,0.1-0.9,0.2-1.6l1.1-6L12.9,18.3z M13.4,11.6c0.3,0,0.5,0.1,0.7,0.3c0.2,0.2,0.3,0.4,0.3,0.7
c0,0.3-0.1,0.5-0.3,0.7c-0.2,0.2-0.4,0.3-0.7,0.3c-0.3,0-0.5-0.1-0.7-0.3s-0.3-0.4-0.3-0.7c0-0.3,0.1-0.5,0.3-0.7
C12.9,11.7,13.1,11.6,13.4,11.6z"/>
<path class="st0" d="M17.5,19.2h-1.7l0.1-0.6h1.7l1.6-7.5c0.3-1.2,0.6-2.2,0.8-3c0.3-0.7,0.6-1.4,1-1.9c1-1.3,2.2-2,3.7-2
c0.5,0,0.9,0.1,1.4,0.2l-0.6,1.6c-0.5-0.6-1-1-1.7-1c-0.5,0-1,0.2-1.3,0.6c-0.3,0.4-0.6,1.1-0.9,2.1L19,18.6h2.8l-0.1,0.6h-2.8
l-2.3,9.7c-0.3,1.3-0.6,2.3-0.9,2.9c-0.3,0.6-0.7,1.2-1.2,1.8c-0.9,1-1.9,1.5-3,1.5c-0.5,0-1-0.1-1.4-0.3l0.8-1.2
c0.5,0.4,1,0.6,1.6,0.6c0.8,0,1.5-0.4,1.9-1.3c0.3-0.7,0.6-1.8,1-3.3L17.5,19.2z"/>
<path class="st0" d="M28.9,25.7l0.3,0.3c-0.7,0.9-1.4,1.6-2.1,2c-0.7,0.4-1.4,0.6-2.2,0.6c-0.9,0-1.7-0.3-2.2-0.9s-0.8-1.4-0.8-2.4
c0-1,0.3-2.1,0.8-3.1c0.5-1.1,1.2-1.9,2-2.6s1.6-1,2.4-1c0.5,0,0.9,0.1,1.2,0.4c0.3,0.3,0.5,0.6,0.5,1.1c0,0.9-0.5,1.8-1.4,2.6
c-1,0.9-2.3,1.6-3.9,2.2c0,0.1,0,0.2,0,0.3c0,0.8,0.2,1.4,0.6,1.9c0.4,0.5,1,0.7,1.7,0.7c0.5,0,1.1-0.2,1.6-0.5
C27.8,26.9,28.3,26.4,28.9,25.7z M23.4,24.4c1.2-0.5,2.2-1.2,2.8-1.8c0.4-0.5,0.8-0.9,1.1-1.5c0.3-0.5,0.4-1,0.4-1.4
c0-0.5-0.2-0.8-0.7-0.8c-0.7,0-1.5,0.6-2.2,1.8C24,21.8,23.5,23,23.4,24.4z"/>
</g>
<path class="st2" d="M9,4.8c-1.1,5-2.1,10-3.2,15c-0.5,2.4-1,4.6-1.2,7.3c0,0.3,0,0.6,0.2,0.9c0.8,1.1,2.4-0.7,2.8-1.3"/>
<path class="st2" d="M12.2,18.8c0,0-2.3,7.4-1.4,8.6s2.7-1.1,2.7-1.1"/>
<line class="st2" x1="13.6" y1="12.1" x2="13.3" y2="13"/>
<path class="st2" d="M25.8,5.1c0,0-3.8-2.2-5.2,3.9c-0.7,3.2-1.5,6.5-2.2,9.7c-0.6,2.4-1.1,4.8-1.7,7.3c-0.6,2.2-0.9,4.5-1.9,6.6
c-0.2,0.3-0.3,0.6-0.6,0.9c-1,1.1-2.4,1.4-3.8,0.8"/>
<line class="st2" x1="15.9" y1="18.8" x2="21.7" y2="18.8"/>
<path class="st2" d="M22.8,24.8c1.7-0.7,3.5-1.6,4.6-3.2c0.4-0.6,0.7-1.2,0.8-1.9c0.1-0.9-0.9-1.2-1.7-1C25.5,19,24.6,20,24,20.9
c0,0,0,0,0,0c-0.4,0.6-0.8,1.3-1.1,2c-0.6,1.6-0.9,4.6,1.7,5.2c0,0,2.4,0.6,4.3-2.2"/>
</svg>