<?xml version="1.0" encoding="UTF-8"?>
<svg width="111px" height="37px" viewBox="0 0 111 37" version="1.1" xmlns="http://www.w3.org/2000/svg" xmlns:xlink="http://www.w3.org/1999/xlink">
    <!-- Generator: Sketch 60.1 (88133) - https://sketch.com -->
    <title>Myntra_Logo_Black</title>
    <desc>Created with Sketch.</desc>
    <defs>
        <filter x="-27.3%" y="-40.0%" width="154.5%" height="180.0%" filterUnits="objectBoundingBox" id="filter-1">
            <feOffset dx="0" dy="2" in="SourceAlpha" result="shadowOffsetOuter1"></feOffset>
            <feGaussianBlur stdDeviation="2" in="shadowOffsetOuter1" result="shadowBlurOuter1"></feGaussianBlur>
            <feColorMatrix values="0 0 0 0 0   0 0 0 0 0   0 0 0 0 0  0 0 0 0.3 0" type="matrix" in="shadowBlurOuter1" result="shadowMatrixOuter1"></feColorMatrix>
            <feMerge>
                <feMergeNode in="shadowMatrixOuter1"></feMergeNode>
                <feMergeNode in="SourceGraphic"></feMergeNode>
            </feMerge>
        </filter>
        <path d="M58.609375,21.4833008 L61.5731445,12.8583984 L62.2058594,21.45 L64.4536621,21.45 L63.554541,9.68649902 L60.740625,9.68649902 L57.7768555,18.5694824 L54.7881104,9.68649902 L51.9242432,9.68649902 L51.0251221,21.45 L53.0481445,21.45 L53.6475586,12.8583984 L56.6279785,21.4833008 L58.609375,21.4833008 Z M67.176001,24.5552979 C67.9918701,24.5552979 68.6495605,24.3596558 69.1490723,23.9683716 C69.648584,23.5770874 70.075944,22.8847087 70.4311523,21.8912354 L70.4311523,21.8912354 L73.5531006,13.2163818 L71.5217529,13.2163818 L69.6818848,18.9607666 L67.775415,13.0915039 L65.644165,13.3662354 L68.624585,21.4833008 L68.4414307,22.0327637 C68.1916748,22.6099772 67.7476644,22.898584 67.1093994,22.898584 C66.793042,22.898584 66.4739095,22.8597331 66.152002,22.7820313 L66.152002,22.7820313 L66.4267334,24.4637207 C66.6598389,24.5247721 66.9095947,24.5552979 67.176001,24.5552979 Z M76.8915039,21.45 L76.8915039,15.8887695 C77.5464193,15.1950033 78.1708089,14.8481201 78.7646729,14.8481201 C79.1254313,14.8481201 79.3918376,14.9563477 79.5638916,15.1728027 C79.7359456,15.3892578 79.8219727,15.6861898 79.8219727,16.0635986 L79.8219727,16.0635986 L79.8219727,21.45 L81.8699707,21.45 L81.8699707,15.5141357 C81.8699707,14.7371175 81.6660034,14.1307658 81.2580688,13.6950806 C80.8501343,13.2593953 80.2687581,13.0415527 79.5139404,13.0415527 C78.6092692,13.0415527 77.6934977,13.4855632 76.766626,14.373584 L76.766626,14.373584 L76.5834717,13.2163818 L74.8435059,13.2163818 L74.8435059,21.45 L76.8915039,21.45 Z M87.0482422,21.5832031 C87.4756022,21.5832031 87.9057373,21.5388021 88.3386475,21.45 L88.3386475,21.45 L88.0888916,19.7266846 C87.9168376,19.7710856 87.7003825,19.7932861 87.4395264,19.7932861 C87.0565674,19.7932861 86.7790609,19.7086466 86.6070068,19.5393677 C86.4349528,19.3700887 86.3489258,19.1133952 86.3489258,18.7692871 L86.3489258,18.7692871 L86.3489258,14.8897461 L88.2886963,14.8897461 L88.0389404,13.2163818 L86.3489258,13.2163818 L86.3489258,10.3025635 L84.3342285,10.6022705 L84.3342285,13.2163818 L83.1770264,13.2163818 L83.1770264,14.8897461 L84.3342285,14.8897461 L84.3342285,19.1106201 C84.3342285,19.998641 84.5687215,20.6327433 85.0377075,21.0129272 C85.5066935,21.3931112 86.1768717,21.5832031 87.0482422,21.5832031 Z M91.9184814,21.45 L91.9184814,16.7296143 C92.2237386,16.2689535 92.6302856,15.887382 93.1381226,15.5848999 C93.6459595,15.2824178 94.2106852,15.1117513 94.8322998,15.0729004 L94.8322998,15.0729004 L94.5076172,13.0415527 C93.4142415,13.097054 92.5345459,13.7047933 91.8685303,14.8647705 L91.8685303,14.8647705 L91.6104492,13.2163818 L89.8704834,13.2163818 L89.8704834,21.45 L91.9184814,21.45 Z M97.6878418,21.6165039 C98.7312663,21.6165039 99.6470378,21.2030192 100.435156,20.3760498 L100.435156,20.3760498 L100.60166,21.45 L102.358276,21.45 L102.358276,15.8055176 C102.358276,14.8342448 102.098808,14.1307658 101.579871,13.6950806 C101.060933,13.2593953 100.257552,13.0415527 99.1697266,13.0415527 C98.120752,13.0415527 97.0301514,13.2635579 95.8979248,13.7075684 L95.8979248,13.7075684 L96.1560059,15.3476318 C97.1550293,14.9036214 98.0708008,14.6816162 98.9033203,14.6816162 C99.3695313,14.6816162 99.7219645,14.7787435 99.9606201,14.972998 C100.199276,15.1672526 100.318604,15.4780599 100.318604,15.9054199 L100.318604,15.9054199 L100.318604,16.1468506 C98.6147135,16.3133545 97.3617716,16.6421997 96.5597778,17.1333862 C95.757784,17.6245728 95.3567871,18.3585775 95.3567871,19.3354004 C95.3567871,20.0458171 95.5690796,20.6036051 95.9936646,21.0087646 C96.4182495,21.4139242 96.9829753,21.6165039 97.6878418,21.6165039 Z M98.3871582,20.0680176 C98.0708008,20.0680176 97.82382,19.9833781 97.6462158,19.8140991 C97.4686117,19.6448201 97.3798096,19.4103271 97.3798096,19.1106201 C97.3798096,18.6666097 97.5948771,18.2933634 98.0250122,17.9908813 C98.4551473,17.6883993 99.2196777,17.4705566 100.318604,17.3373535 L100.318604,17.3373535 L100.318604,19.1855469 C99.7302897,19.7738607 99.0864746,20.0680176 98.3871582,20.0680176 Z" id="path-2"></path>
        <filter x="-13.6%" y="-33.6%" width="127.3%" height="194.2%" filterUnits="objectBoundingBox" id="filter-3">
            <feOffset dx="0" dy="2" in="SourceAlpha" result="shadowOffsetOuter1"></feOffset>
            <feGaussianBlur stdDeviation="2" in="shadowOffsetOuter1" result="shadowBlurOuter1"></feGaussianBlur>
            <feColorMatrix values="0 0 0 0 0   0 0 0 0 0   0 0 0 0 0  0 0 0 0.3 0" type="matrix" in="shadowBlurOuter1"></feColorMatrix>
        </filter>
    </defs>
    <g id="Assets" stroke="none" stroke-width="1" fill="none" fill-rule="evenodd">
        <g id="Myntra_Logo_Black" transform="translate(4.000000, 2.000000)">
            <g id="myntra-seeklogo.com" filter="url(#filter-1)">
                <path d="M21.912,29.073 L21.846,29.073 L21.912,29.073 Z" id="Path" fill="#F37320"></path>
                <path d="M22.605,29.007 C22.572,29.007 22.539,29.007 22.506,29.04 C22.539,29.007 22.572,29.007 22.605,29.007" id="Path_1_" fill="#F37320"></path>
                <path d="M21.417,29.04 C21.417,29.04 21.384,29.04 21.384,29.04 C21.384,29.04 21.417,29.04 21.417,29.04" id="Path_2_" fill="#F37320"></path>
                <path d="M22.341,29.04 C22.308,29.04 22.242,29.073 22.209,29.073 C22.275,29.073 22.308,29.04 22.341,29.04" id="Path_3_" fill="#F37320"></path>
                <path d="M22.143,29.073 C22.11,29.073 22.077,29.073 22.044,29.073 C22.044,29.106 22.077,29.106 22.143,29.073" id="Path_4_" fill="#F37320"></path>
                <path d="M22.242,29.073 C22.209,29.073 22.143,29.073 22.143,29.073 C22.143,29.073 22.176,29.073 22.242,29.073" id="Path_5_" fill="#F15E22"></path>
                <path d="M21.384,29.04 C21.318,29.04 21.285,29.007 21.219,28.974 C21.252,29.007 21.318,29.04 21.384,29.04" id="Path_6_" fill="#F15E22"></path>
                <path d="M22.473,29.007 C22.44,29.04 22.374,29.04 22.341,29.073 C22.407,29.04 22.44,29.007 22.473,29.007" id="Path_7_" fill="#F15E22"></path>
                <path d="M21.813,29.106 C21.681,29.106 21.516,29.073 21.384,29.007 C21.516,29.073 21.681,29.106 21.813,29.106" id="Path_8_" fill="#F15E22"></path>
                <path d="M22.011,29.073 C21.978,29.073 21.912,29.073 21.879,29.073 C21.912,29.106 21.978,29.073 22.011,29.073" id="Path_9_" fill="#F15E22"></path>
                <path d="M31.251,5.016 L31.251,5.016 L31.251,5.016 C31.152,4.95 31.086,4.95 30.987,4.95 C31.086,4.95 31.218,5.016 31.317,5.049 C31.284,5.082 31.284,5.049 31.251,5.016" id="Path_10_" fill="#F15E22"></path>
                <path d="M30.657,5.016 L30.657,5.016 L30.657,5.016 C30.624,5.049 30.591,5.049 30.558,5.082 C30.723,5.016 30.855,4.983 30.987,4.983 C30.855,4.95 30.756,4.983 30.657,5.016" id="Path_11_" fill="#EC008B"></path>
                <path d="M33.957,5.973 L33.957,5.973 L33.957,5.973 C33.858,5.907 33.792,5.907 33.693,5.907 C33.792,5.907 33.891,5.94 34.023,6.006 C34.023,5.973 33.99,5.973 33.957,5.973" id="Path_12_" fill="#F15E22"></path>
                <path d="M33.396,5.94 L33.396,5.94 L33.396,5.94 C33.363,5.973 33.33,5.973 33.297,6.006 C33.429,5.94 33.594,5.907 33.693,5.907 C33.594,5.874 33.495,5.907 33.396,5.94" id="Path_13_" fill="#EC008B"></path>
                <path d="M34.089,6.006 L34.089,6.006 L34.089,6.006 C33.99,5.94 33.924,5.94 33.825,5.94 C33.924,5.94 34.023,5.973 34.155,6.039 C34.122,6.072 34.122,6.039 34.089,6.006" id="Path_14_" fill="#F15E22"></path>
                <path d="M33.495,6.006 L33.495,6.006 L33.495,6.006 C33.462,6.039 33.429,6.039 33.396,6.072 C33.528,5.973 33.693,5.973 33.792,5.973 C33.693,5.94 33.594,5.973 33.495,6.006" id="Path_15_" fill="#EC008B"></path>
                <path d="M12.276,0.165 L12.276,0.165 L12.276,0.165 C12.309,0.165 12.342,0.132 12.375,0.132 C10.065,0.495 4.983,8.679 2.244,16.203 C-0.66,24.222 0.033,28.083 2.31,28.908 L2.31,28.908 C4.587,29.733 7.623,27.225 10.527,19.206 C11.319,17.061 11.979,14.718 12.507,12.441 C11.121,6.369 10.791,0.726 12.276,0.165" id="Path_16_" fill="#F13AB1"></path>
                <path d="M21.021,28.908 L21.021,28.908 L21.021,28.908 L21.021,28.908 C18.711,28.05 18.051,24.189 20.955,16.203 C21.252,15.411 21.549,14.619 21.879,13.827 C18.876,6.666 14.289,-0.231 12.375,0.165 C12.54,0.132 12.672,0.165 12.771,0.198 L12.771,0.198 L12.771,0.198 C14.256,0.759 13.926,6.369 12.507,12.474 C13.035,14.751 13.695,17.061 14.487,19.239 C16.797,25.542 19.14,28.446 21.153,28.974 C21.153,28.941 21.087,28.941 21.021,28.908" id="Path_17_" fill="#FD913C"></path>
                <path d="M12.771,0.198 L12.771,0.198 L12.771,0.198 C12.639,0.165 12.507,0.132 12.375,0.165 C12.342,0.165 12.309,0.198 12.276,0.198 L12.276,0.198 C10.791,0.759 11.121,6.369 12.54,12.474 C13.959,6.369 14.256,0.759 12.771,0.198" id="Path_18_" fill="#F05524"></path>
                <path d="M30.822,0.231 C28.677,0.99 24.618,7.326 21.912,13.827 C22.242,14.619 22.572,15.411 22.836,16.203 C25.74,24.189 25.047,28.083 22.77,28.908 L22.77,28.908 C22.704,28.941 22.638,28.941 22.572,28.974 C24.585,28.446 26.961,25.575 29.271,19.239 C30.03,17.127 30.69,14.883 31.218,12.672 C29.766,6.6 29.403,0.957 30.822,0.231" id="Path_19_" fill="#FD913C"></path>
                <path d="M22.737,28.908 L22.737,28.908 L22.737,28.908 C25.014,28.083 25.707,24.189 22.803,16.203 C22.506,15.411 22.209,14.619 21.846,13.827 C21.516,14.619 21.186,15.411 20.922,16.203 C18.018,24.189 18.711,28.083 20.988,28.908 C21.054,28.941 21.12,28.941 21.153,28.974 C21.219,29.007 21.252,29.007 21.318,29.007 L21.351,29.007 C21.516,29.04 21.648,29.073 21.78,29.073 L21.813,29.073 L21.945,29.073 C21.978,29.073 22.011,29.073 22.044,29.04 C22.077,29.04 22.11,29.04 22.143,29.04 C22.176,29.04 22.209,29.007 22.275,29.007 C22.341,29.007 22.374,29.007 22.407,28.974 C22.44,28.974 22.44,28.974 22.473,28.974 C22.605,28.941 22.671,28.941 22.737,28.908" id="Path_20_" fill="#F05524"></path>
                <path d="M31.548,0.198 C32.967,0.891 32.604,6.567 31.185,12.639 C31.68,14.85 32.373,17.127 33.132,19.206 C36.036,27.225 39.072,29.733 41.349,28.908 L41.349,28.908 C43.626,28.05 44.319,24.222 41.415,16.203 C38.775,8.943 33.957,1.056 31.548,0.198" id="Path_21_" fill="#F13AB1"></path>
                <path d="M31.548,0.198 C31.449,0.165 31.317,0.132 31.218,0.132 C31.086,0.132 30.954,0.165 30.822,0.231 C29.436,0.957 29.766,6.6 31.218,12.672 C32.604,6.567 32.967,0.924 31.548,0.198" id="Path_22_" fill="#F05524"></path>
            </g>
            <g id="Myntra">
                <use fill="black" fill-opacity="1" filter="url(#filter-3)" xlink:href="#path-2"></use>
                <use fill="#000000" fill-rule="evenodd" xlink:href="#path-2"></use>
            </g>
        </g>
    </g>
</svg>