<svg xmlns="http://www.w3.org/2000/svg" width="822" height="139" viewBox="0 0 822 139"><g><g><path fill="none" stroke="#353a50" stroke-miterlimit="50" stroke-width="1.5" d="M311.392 123.736v12.816h-41.904v-50.4h40.968v12.816h-24.264v5.904h21.312v12.24h-21.312v6.624zm-65.448-18.581c0-1.87-.576-3.321-1.728-4.352-1.152-1.031-2.88-1.547-5.184-1.547h-6.192v11.798h6.192c2.304 0 4.032-.516 5.184-1.547 1.152-1.03 1.728-2.482 1.728-4.352zm-8.496 18.725h-4.608v12.672h-16.992v-50.4h24.264c4.656 0 8.712.768 12.168 2.304 3.456 1.536 6.12 3.744 7.992 6.624 1.872 2.88 2.808 6.24 2.808 10.08 0 3.6-.816 6.744-2.448 9.432-1.632 2.688-3.984 4.824-7.056 6.408l10.584 15.552h-18.144zm-56.232.072c2.112 0 4.02-.516 5.724-1.548 1.704-1.032 3.06-2.496 4.068-4.392 1.008-1.896 1.512-4.116 1.512-6.66 0-2.544-.504-4.764-1.512-6.66s-2.364-3.36-4.068-4.392c-1.704-1.032-3.612-1.548-5.724-1.548s-4.02.516-5.724 1.548c-1.704 1.032-3.06 2.496-4.068 4.392-1.008 1.896-1.512 4.116-1.512 6.66 0 2.544.504 4.764 1.512 6.66s2.364 3.36 4.068 4.392c1.704 1.032 3.612 1.548 5.724 1.548zm0 13.752c-5.424 0-10.296-1.128-14.616-3.384-4.32-2.256-7.704-5.388-10.152-9.396-2.448-4.008-3.672-8.532-3.672-13.572 0-5.04 1.224-9.564 3.672-13.572 2.448-4.008 5.832-7.14 10.152-9.396 4.32-2.256 9.192-3.384 14.616-3.384 5.424 0 10.296 1.128 14.616 3.384 4.32 2.256 7.704 5.388 10.152 9.396 2.448 4.008 3.672 8.532 3.672 13.572 0 5.04-1.224 9.564-3.672 13.572-2.448 4.008-5.832 7.14-10.152 9.396-4.32 2.256-9.192 3.384-14.616 3.384zm-50.112-1.152l-.144-22.968-10.944 18.432h-7.488l-10.944-17.64v22.176h-15.48v-50.4h13.968l16.416 26.856 15.984-26.856h13.968l.144 50.4zm-94.958-21.024l-4.901-12.672-4.901 12.672zm4.67 12.24H21.664l-3.384 8.784H1l22.032-50.4h16.704l22.032 50.4H44.2zm750.82-88.464c3.65 0 6.567-1.044 8.752-3.132 2.185-2.088 3.278-5.028 3.278-8.82 0-3.792-1.093-6.732-3.278-8.82s-5.102-3.132-8.752-3.132h-7.132v23.904zM767.512 2.152h24.84c5.616 0 10.572 1.02 14.868 3.06 4.296 2.04 7.632 4.956 10.008 8.748 2.376 3.792 3.564 8.256 3.564 13.392 0 5.136-1.188 9.6-3.564 13.392-2.376 3.792-5.712 6.708-10.008 8.748-4.296 2.04-9.252 3.06-14.868 3.06h-24.84zm-44.424 0h16.992v37.224h22.752v13.176h-39.744zm-23.544 19.003c0-1.87-.576-3.321-1.728-4.352-1.152-1.031-2.88-1.547-5.184-1.547h-6.192v11.798h6.192c2.304 0 4.032-.516 5.184-1.547 1.152-1.03 1.728-2.482 1.728-4.352zm-8.496 18.725h-4.608v12.672h-16.992v-50.4h24.264c4.656 0 8.712.768 12.168 2.304 3.456 1.536 6.12 3.744 7.992 6.624 1.872 2.88 2.808 6.24 2.808 10.08 0 3.6-.816 6.744-2.448 9.432-1.632 2.688-3.984 4.824-7.056 6.408l10.584 15.552h-18.144zm-56.232.072c2.112 0 4.02-.516 5.724-1.548 1.704-1.032 3.06-2.496 4.068-4.392 1.008-1.896 1.512-4.116 1.512-6.66 0-2.544-.504-4.764-1.512-6.66s-2.364-3.36-4.068-4.392c-1.704-1.032-3.612-1.548-5.724-1.548s-4.02.516-5.724 1.548c-1.704 1.032-3.06 2.496-4.068 4.392-1.008 1.896-1.512 4.116-1.512 6.66 0 2.544.504 4.764 1.512 6.66s2.364 3.36 4.068 4.392c1.704 1.032 3.612 1.548 5.724 1.548zm0 13.752c-5.424 0-10.296-1.128-14.616-3.384-4.32-2.256-7.704-5.388-10.152-9.396-2.448-4.008-3.672-8.532-3.672-13.572 0-5.04 1.224-9.564 3.672-13.572 2.448-4.008 5.832-7.14 10.152-9.396C624.52 2.128 629.392 1 634.816 1c5.424 0 10.296 1.128 14.616 3.384 4.32 2.256 7.704 5.388 10.152 9.396 2.448 4.008 3.672 8.532 3.672 13.572 0 5.04-1.224 9.564-3.672 13.572-2.448 4.008-5.832 7.14-10.152 9.396-4.32 2.256-9.192 3.384-14.616 3.384zM605.368 2.152l-16.128 50.4h-18.216l-8.136-26.928-8.568 26.928h-18.216l-16.128-50.4h17.496l8.784 28.656 9.288-28.656h15.624l8.784 29.016 9.288-29.016zm-110.15 37.584v12.816h-41.914v-50.4h40.978v12.816h-24.27v5.904h21.317v12.24h-21.317v6.624zM445.096 2.152v50.4h-16.992V33.976h-15.696v18.576h-16.992v-50.4h16.992v17.856h15.696V2.152zm-85.824 13.176h-14.76V2.152h46.512v13.176h-14.76v37.224h-16.992zm-54.57 10.656h14.764v21.312c-2.977 2.064-6.434 3.648-10.37 4.752-3.937 1.104-7.802 1.656-11.595 1.656-5.377 0-10.201-1.116-14.474-3.348-4.273-2.232-7.622-5.352-10.046-9.36-2.425-4.008-3.637-8.556-3.637-13.644 0-5.088 1.212-9.636 3.637-13.644 2.424-4.008 5.809-7.128 10.154-9.36C287.48 2.116 292.388 1 297.862 1c4.945 0 9.373.828 13.286 2.484 3.913 1.656 7.165 4.068 9.758 7.236l-10.874 9.576c-3.169-3.696-6.937-5.544-11.306-5.544-3.745 0-6.722 1.128-8.93 3.384-2.208 2.256-3.313 5.328-3.313 9.216 0 3.792 1.093 6.84 3.277 9.144 2.184 2.304 5.1 3.456 8.75 3.456 2.16 0 4.224-.408 6.193-1.224zm-41.55-23.832v50.4h-13.968l-19.152-22.896v22.896h-16.56v-50.4h13.968l19.152 22.896V2.152zm-74.88 0h16.992v50.4h-16.992zm-34.56 33.696l-3.816 4.248v12.456h-16.704v-50.4h16.704V20.44l16.56-18.288h18.504L164.8 24.328l21.168 28.224h-19.656zm-48.888-4.32l-4.896-12.672-4.896 12.672zm4.68 12.24H90.352l-3.384 8.784h-17.28l22.032-50.4h16.704l22.032 50.4h-17.568zm-58.032 8.784l-.144-22.968-10.944 18.432h-7.488l-10.944-17.64v22.176H6.472v-50.4H20.44l16.416 26.856L52.84 2.152h13.968l.144 50.4z"/></g></g></svg>