<?xml version="1.0" encoding="utf-8"?>
<!-- Generator: Adobe Illustrator 22.1.0, SVG Export Plug-In . SVG Version: 6.00 Build 0)  -->
<svg version="1.1" id="Layer_1" xmlns="http://www.w3.org/2000/svg" xmlns:xlink="http://www.w3.org/1999/xlink" x="0px" y="0px"
	 viewBox="0 0 175 42" style="enable-background:new 0 0 175 42;" xml:space="preserve">
<style type="text/css">
	.st0{fill-rule:evenodd;clip-rule:evenodd;fill:#EC8623;}
	.st1{fill-rule:evenodd;clip-rule:evenodd;fill:#A32381;}
	.st2{fill-rule:evenodd;clip-rule:evenodd;fill:#EF9021;}
	.st3{fill-rule:evenodd;clip-rule:evenodd;fill:#E45225;}
	.st4{fill-rule:evenodd;clip-rule:evenodd;fill:#E10B7E;}
	.st5{fill:#404040;}
</style>
<g id="XMLID_21_">
	<g id="XMLID_23_">
		<path id="XMLID_30_" class="st0" d="M37.6,8.1c5-8.6,10.1-9.8,8,3.2C38.7,53.8,15.1,47,37.6,8.1L37.6,8.1z"/>
		<path id="XMLID_29_" class="st1" d="M12.8,8.4c5-8.6,10.1-9.8,8,3.2C13.9,54.1-9.7,47.3,12.8,8.4L12.8,8.4z"/>
		<path id="XMLID_28_" class="st2" d="M18.1,8.2c-0.3-8.4,4-9.3,9.9,3.8C47.1,54.4,19.4,46,18.1,8.2L18.1,8.2z"/>
		<path id="XMLID_27_" class="st3" d="M31.5,20.5c4.2,11.6,3.8,17.8,1.6,19.4c-0.4,0.2-0.9,0.4-1.3,0.4c-0.7,0-1.5-0.2-2.3-0.7
			C27.4,37.5,27.3,30.9,31.5,20.5L31.5,20.5z"/>
		<path id="XMLID_26_" class="st4" d="M50.9,8.4c-5-8.6-10.1-9.8-8,3.2C49.8,54.1,73.4,47.3,50.9,8.4L50.9,8.4z"/>
		<path id="XMLID_25_" class="st3" d="M20,2.1c1.3,0.8,1.7,3.8,0.8,9.6c-0.4,2.7-0.9,5.2-1.5,7.5c-0.6-3.3-1.1-6.9-1.2-10.9
			C17.9,4.6,18.7,2.4,20,2.1L20,2.1z"/>
		<path id="XMLID_24_" class="st3" d="M44.2,1.9c1.6,0.3,2.4,3.2,1.3,9.8c-0.4,2.4-0.8,4.6-1.3,6.7c-0.5-2.1-0.9-4.3-1.3-6.7
			C41.9,5.1,42.6,2.1,44.2,1.9L44.2,1.9z"/>
	</g>
</g>
<g id="XMLID_60_">
	<path id="XMLID_61_" class="st5" d="M92.5,31.7L91,13.1l-7.4,18.7h-2.4l-7.4-18.7l-1.4,18.6h-3l1.9-23.4h3.9l7.3,19.2l7.3-19.2h3.9
		l1.8,23.4H92.5z"/>
	<path id="XMLID_63_" class="st5" d="M106.8,33.1c-0.3,0.9-0.7,1.7-1.1,2.3c-0.4,0.6-0.8,1.1-1.3,1.4c-0.5,0.3-1,0.6-1.5,0.7
		c-0.6,0.1-1.2,0.2-1.8,0.2c-0.2,0-0.4,0-0.6,0c-0.2,0-0.3-0.1-0.5-0.1l-0.4-2.6c0.2,0.1,0.5,0.1,0.8,0.2c0.3,0,0.6,0.1,0.9,0.1
		c1.2,0,2.1-0.6,2.6-1.9l0.6-1.7l-5.9-16l3-0.5l4.4,12.9l4.3-12.6h3.1L106.8,33.1z"/>
	<path id="XMLID_65_" class="st5" d="M126.6,31.7v-11c0-0.8-0.2-1.5-0.6-2c-0.4-0.5-1-0.8-1.9-0.8c-0.8,0-1.6,0.2-2.4,0.7
		c-0.8,0.5-1.6,1.1-2.3,1.9v11.2h-3V15.5h2.4l0.4,2.3c0.8-0.7,1.6-1.3,2.6-1.9c0.9-0.5,2-0.8,3.2-0.8c1.5,0,2.7,0.4,3.5,1.3
		c0.8,0.8,1.2,2,1.2,3.5v11.8H126.6z"/>
	<path id="XMLID_67_" class="st5" d="M141.1,31.9c-0.4,0-0.8,0.1-1.3,0.1c-1.4,0-2.6-0.3-3.4-0.9c-0.9-0.6-1.3-1.7-1.3-3.4v-9.6
		h-2.4v-2.5h2.4v-5.4l2.9-0.4v5.8h3.5l0.4,2.5H138v9.1c0,0.7,0.2,1.2,0.5,1.6c0.3,0.4,0.9,0.6,1.8,0.6c0.5,0,1,0,1.4-0.1l0.4,2.6
		C141.8,31.8,141.5,31.9,141.1,31.9z"/>
	<path id="XMLID_69_" class="st5" d="M152.8,18.5c-0.6,0.2-1.2,0.5-1.7,0.9c-0.5,0.4-1,0.8-1.4,1.3c-0.4,0.5-0.7,1-1,1.5v9.5h-3
		V15.5h2.4l0.5,3.3c0.6-0.9,1.3-1.7,2.3-2.5c0.9-0.7,2.1-1.1,3.4-1.2l0.5,2.9C154.1,18.2,153.4,18.3,152.8,18.5z"/>
	<path id="XMLID_71_" class="st5" d="M167,31.7l-0.3-2.2c-0.7,0.7-1.4,1.2-2.3,1.7c-0.9,0.5-2,0.8-3.4,0.8c-1.5,0-2.6-0.4-3.5-1.2
		c-0.8-0.8-1.3-1.9-1.3-3.3c0-1,0.2-1.9,0.6-2.6c0.4-0.7,1.1-1.3,1.9-1.8c0.9-0.5,1.9-0.9,3.2-1.2c1.3-0.3,2.7-0.5,4.4-0.7v-0.7
		c0-1-0.3-1.7-0.8-2.1c-0.6-0.4-1.3-0.6-2.2-0.6c-1,0-1.9,0.1-2.9,0.4c-0.9,0.3-1.8,0.6-2.7,1l-0.4-2.6c1-0.4,1.9-0.7,2.9-1
		c1-0.3,2.1-0.4,3.3-0.4c2,0,3.4,0.4,4.4,1.2c0.9,0.8,1.4,2.1,1.4,3.9v11.3H167z M166.4,23.5c-1.5,0.1-2.7,0.3-3.6,0.6
		c-0.9,0.3-1.7,0.6-2.2,0.9c-0.5,0.3-0.9,0.7-1.1,1.1c-0.2,0.4-0.3,0.8-0.3,1.2c0,0.7,0.2,1.2,0.6,1.6c0.4,0.4,1,0.6,1.8,0.6
		c0.9,0,1.7-0.2,2.5-0.6c0.8-0.4,1.6-1,2.2-1.7V23.5z"/>
</g>
</svg>
