<?xml version="1.0" encoding="UTF-8"?>
<svg width="432px" height="241px" viewBox="0 0 432 241" version="1.1" xmlns="http://www.w3.org/2000/svg" xmlns:xlink="http://www.w3.org/1999/xlink">
    <!-- Generator: Sketch 58 (84663) - https://sketch.com -->
    <title>Social_Media_Right</title>
    <desc>Created with Sketch.</desc>
    <g id="Page-1" stroke="none" stroke-width="1" fill="none" fill-rule="evenodd" opacity="0.118210565">
        <g id="Myntra-Website" transform="translate(-1008.000000, -4284.000000)">
            <g id="Group-44-+-Group-45-Mask" transform="translate(0.000000, 4284.000000)">
                <g id="Social_Media_Right" transform="translate(1009.000000, -42.000000)">
                    <g id="Group-34-Copy-2" transform="translate(0.000000, 78.000000)">
                        <g id="Group-35" transform="translate(23.896552, 1.137097)" fill="#FFFFFF">
                            <g id="Group-27">
                                <g id="Instagram/Color">
                                    <g id="Instagram-/-Color-Copy-2">
                                        <path d="M14.6056983,0.00131779625 C16.837913,0.00613045797 17.3410825,0.025361591 18.5137752,0.0788289239 C19.9090718,0.142422442 20.8620093,0.363881801 21.695836,0.687725164 C22.5578664,1.0224361 23.2889219,1.47034662 24.0177398,2.19857821 C24.7465057,2.92686179 25.1947448,3.65738128 25.5297533,4.51877967 C25.8537823,5.35199516 26.0754041,6.304234 26.1390443,7.69850759 C26.2007826,9.05062257 26.2169068,9.51201393 26.2178828,12.7646742 L26.2178828,13.4340826 C26.2169068,16.6866957 26.2007826,17.1480871 26.1390443,18.5002021 C26.0754041,19.8944757 25.8537823,20.8467145 25.5297533,21.67993 C25.1947448,22.5413284 24.7465057,23.2718479 24.0177398,24.0001315 C23.2889219,24.7283631 22.5578664,25.1762736 21.695836,25.5110365 C20.8620093,25.8348279 19.9090718,26.0562872 18.5137752,26.1198808 C17.2959789,26.1754045 16.8001981,26.1940079 14.3403253,26.1978843 L11.8776401,26.1978843 C9.41773292,26.1940079 8.92195209,26.1754045 7.7041558,26.1198808 C6.30885926,26.0562872 5.35592178,25.8348279 4.52209499,25.5110365 C3.66006461,25.1762736 2.92900916,24.7283631 2.20019125,24.0001315 C1.47142538,23.2718479 1.02318624,22.5413284 0.688229731,21.67993 C0.364148772,20.8467145 0.142526934,19.8944757 0.0788867588,18.5002021 C0.0253801982,17.3283691 0.00613495574,16.8255685 0.00131876308,14.5949903 L0.00131876308,11.6037501 C0.00613495574,9.37314115 0.0253801982,8.87034057 0.0788867588,7.69850759 C0.142526934,6.304234 0.364148772,5.35199516 0.688229731,4.51877967 C1.02318624,3.65738128 1.47142538,2.92686179 2.20019125,2.19857821 C2.92900916,1.47034662 3.66006461,1.0224361 4.52209499,0.687725164 C5.35592178,0.363881801 6.30885926,0.142422442 7.7041558,0.0788289239 C8.82354431,0.0277919243 9.332892,0.00794947874 11.3183585,0.00206530016 L11.6122635,0.00131779625 L14.6056983,0.00131779625 Z M14.0421632,2.36064825 L12.1758062,2.36064825 C9.51941767,2.36329144 9.06033628,2.37970224 7.81181853,2.43662492 C6.53370734,2.49486265 5.83959752,2.70826232 5.37767288,2.88765532 C4.76578014,3.12528605 4.32909302,3.40914297 3.87039461,3.86755708 C3.41164417,4.32591919 3.12757899,4.76228617 2.88977392,5.37373031 C2.7102493,5.8353163 2.49669307,6.52891723 2.43841261,7.80609139 C2.38348261,9.00913658 2.3662501,9.47866494 2.36271755,11.8907412 L2.36271755,14.3080028 C2.3662501,16.7200447 2.38348261,17.1895731 2.43841261,18.3926183 C2.49669307,19.6697924 2.7102493,20.3633934 2.88977392,20.8249794 C3.12757899,21.4364235 3.41169621,21.8727905 3.87039461,22.3311526 C4.32909302,22.7895667 4.76578014,23.0734236 5.37767288,23.3110544 C5.83959752,23.4904474 6.53370734,23.703847 7.81181853,23.7620848 C9.06019528,23.8190074 9.51917812,23.8354182 12.1757406,23.8380614 L14.0422301,23.8380614 C16.698762,23.8354182 17.1577828,23.8190074 18.4061125,23.7620848 C19.6842237,23.703847 20.3783335,23.4904474 20.8402582,23.3110544 C21.4521509,23.0734236 21.888838,22.7895667 22.3475364,22.3311526 C22.8062869,21.8727905 23.090352,21.4364235 23.3281571,20.8249794 C23.5076817,20.3633934 23.721238,19.6697924 23.7795184,18.3926183 C23.8405518,17.0559014 23.855045,16.6247609 23.8559165,13.4283731 L23.8559165,12.7703837 C23.855045,9.57394882 23.8405518,9.14280826 23.7795184,7.80609139 C23.721238,6.52891723 23.5076817,5.8353163 23.3281571,5.37373031 C23.090352,4.76228617 22.8062869,4.32591919 22.3475364,3.86755708 C21.888838,3.40914297 21.4521509,3.12528605 20.8402582,2.88765532 C20.3783335,2.70826232 19.6842237,2.49486265 18.4061125,2.43662492 C17.1575948,2.37970224 16.6985134,2.36329144 14.0421632,2.36064825 Z M13.1089915,6.37266333 C16.8267642,6.37266333 19.8405922,9.38428181 19.8405922,13.0993808 C19.8405922,16.8144279 16.8267642,19.8260464 13.1089915,19.8260464 C9.39116683,19.8260464 6.3773388,16.8144279 6.3773388,13.0993808 C6.3773388,9.38428181 9.39116683,6.37266333 13.1089915,6.37266333 Z M13.1089915,8.73290323 C10.6956603,8.73290323 8.73931034,10.6878189 8.73931034,13.0993808 C8.73931034,15.5108907 10.6956603,17.4658065 13.1089915,17.4658065 C15.5222707,17.4658065 17.4786207,15.5108907 17.4786207,13.0993808 C17.4786207,10.6878189 15.5222707,8.73290323 13.1089915,8.73290323 Z M20.1065489,4.53495104 C20.9753439,4.53495104 21.6796528,5.23874357 21.6796528,6.1069017 C21.6796528,6.97505982 20.9753439,7.67880036 20.1065489,7.67880036 C19.2378058,7.67880036 18.5334969,6.97505982 18.5334969,6.1069017 C18.5334969,5.23874357 19.2378058,4.53495104 20.1065489,4.53495104 Z"></path>
                                    </g>
                                </g>
                            </g>
                            <g id="Group-25" transform="translate(0.000000, 64.435484)" fill-rule="nonzero">
                                <path d="M26.8005517,25.179871 C26.8005517,25.9803871 26.1451034,26.6353548 25.344,26.6353548 L18.4982069,26.6353548 L18.4982069,16.3014194 L21.993931,16.3014194 L22.5037241,12.2988387 L18.4982069,12.2988387 L18.4982069,9.75174194 C18.4982069,8.58735484 18.7895172,7.78683871 20.4645517,7.78683871 L22.5765517,7.78683871 L22.5765517,4.14812903 C22.2124138,4.07535484 20.9743448,4.00258065 19.4449655,4.00258065 C16.3862069,4.00258065 14.2742069,5.89470968 14.2742069,9.31509677 L14.2742069,12.2988387 L10.7784828,12.2988387 L10.7784828,16.3014194 L14.2742069,16.3014194 L14.2742069,26.6353548 L1.45655172,26.6353548 C0.655448276,26.6353548 5.68434189e-14,25.9803871 5.68434189e-14,25.179871 L5.68434189e-14,1.45548387 C5.68434189e-14,0.654967742 0.655448276,0 1.45655172,0 L25.2711724,0 C26.0722759,0 26.7277241,0.654967742 26.7277241,1.45548387 L26.7277241,25.179871 L26.8005517,25.179871 Z" id="Facebook"></path>
                            </g>
                        </g>
                        <g id="Group-36" transform="translate(117.206897, 1.895161)" fill="#FFFFFF" fill-rule="nonzero">
                            <g id="Group-26">
                                <path d="M26.5456552,0.982451613 C25.4532414,1.63741935 24.288,2.14683871 22.9771034,2.36516129 C21.9575172,1.27354839 20.5009655,0.545806452 18.8987586,0.545806452 C15.84,0.545806452 13.2910345,3.09290323 13.2910345,6.29496774 C13.2910345,6.7316129 13.3638621,7.16825806 13.4366897,7.60490323 C8.77572414,7.38658065 4.69737931,5.05780645 1.92993103,1.63741935 C1.42013793,2.51070968 1.20165517,3.45677419 1.20165517,4.5483871 C1.20165517,6.51329032 2.22124138,8.25987097 3.6777931,9.35148387 C2.73103448,9.35148387 1.92993103,9.0603871 1.12882759,8.62374194 L1.12882759,8.69651613 C1.12882759,11.4619355 3.02234483,13.7907097 5.64413793,14.300129 C5.20717241,14.4456774 4.69737931,14.5184516 4.18758621,14.5184516 C3.82344828,14.5184516 3.45931034,14.5184516 3.168,14.4456774 C3.89627586,16.7016774 5.93544828,18.3754839 8.41158621,18.4482581 C6.51806897,19.9765161 4.11475862,20.9225806 1.49296552,20.9225806 C1.056,20.9225806 0.619034483,20.9225806 0.182068966,20.8498065 C2.6582069,22.4508387 5.57131034,23.3969032 8.77572414,23.3969032 C19.0444138,23.3969032 24.7249655,14.664 24.7249655,7.09548387 C24.7249655,6.87716129 24.7249655,6.58606452 24.7249655,6.36774194 C25.8173793,5.56722581 26.7641379,4.5483871 27.4924138,3.384 C26.4728276,3.82064516 25.3804138,4.18451613 24.288,4.25729032 C25.2347586,3.45677419 26.1086897,2.36516129 26.5456552,0.982451613 Z" id="Twitter"></path>
                            </g>
                            <g id="Group-24" transform="translate(0.000000, 63.677419)">
                                <g id="LinkedIn" transform="translate(0.182069, 0.727742)">
                                    <rect id="Rectangle" x="0.946758621" y="7.8596129" width="5.24358621" height="16.5925161"></rect>
                                    <path d="M20.4645517,7.71406452 C17.4786207,7.71406452 15.5851034,9.31509677 15.2209655,10.4794839 L15.2209655,7.8596129 L9.32193103,7.8596129 C9.39475862,9.24232258 9.32193103,24.452129 9.32193103,24.452129 L15.2209655,24.452129 L15.2209655,15.5009032 C15.2209655,14.9914839 15.2209655,14.4820645 15.3666207,14.1181935 C15.8035862,13.0993548 16.6046897,12.0805161 18.2068966,12.0805161 C20.246069,12.0805161 21.1928276,13.6087742 21.1928276,15.8647742 L21.1928276,24.452129 L27.1646897,24.452129 L27.1646897,15.2098065 C27.0918621,10.1156129 24.1787586,7.71406452 20.4645517,7.71406452 Z" id="Path"></path>
                                    <path d="M3.42289655,0.0727741935 C1.45655172,0.0727741935 0.218482759,1.30993548 0.218482759,2.98374194 C0.218482759,4.58477419 1.45655172,5.82193548 3.35006897,5.82193548 L3.42289655,5.82193548 C5.38924138,5.82193548 6.62731034,4.58477419 6.62731034,2.91096774 C6.55448276,1.30993548 5.38924138,0.0727741935 3.42289655,0.0727741935 Z" id="Path"></path>
                                </g>
                            </g>
                        </g>
                        <path d="M84.2068966,0 L84.2068966,92.483871" id="Line-4" stroke="#FFFFFF" stroke-width="0.5" opacity="0.118326823" stroke-linecap="square"></path>
                        <path d="M176,46.2419355 L0,46.2419355" id="Line-4" stroke="#FFFFFF" stroke-width="0.5" opacity="0.118326823" stroke-linecap="square"></path>
                    </g>
                    <g id="Group-34-Copy-3" transform="translate(2.000000, 210.000000)">
                        <g id="Group-36" transform="translate(117.206897, 1.885246)" fill="#FFFFFF" fill-rule="nonzero">
                            <g id="Group-26">
                                <path d="M26.5456552,0.977311475 C25.4532414,1.62885246 24.288,2.13560656 22.9771034,2.35278689 C21.9575172,1.26688525 20.5009655,0.54295082 18.8987586,0.54295082 C15.84,0.54295082 13.2910345,3.07672131 13.2910345,6.26203279 C13.2910345,6.69639344 13.3638621,7.1307541 13.4366897,7.56511475 C8.77572414,7.34793443 4.69737931,5.03134426 1.92993103,1.62885246 C1.42013793,2.49757377 1.20165517,3.43868852 1.20165517,4.52459016 C1.20165517,6.47921311 2.22124138,8.21665574 3.6777931,9.30255738 C2.73103448,9.30255738 1.92993103,9.01298361 1.12882759,8.57862295 L1.12882759,8.65101639 C1.12882759,11.4019672 3.02234483,13.7185574 5.64413793,14.2253115 C5.20717241,14.3700984 4.69737931,14.4424918 4.18758621,14.4424918 C3.82344828,14.4424918 3.45931034,14.4424918 3.168,14.3700984 C3.89627586,16.6142951 5.93544828,18.2793443 8.41158621,18.3517377 C6.51806897,19.872 4.11475862,20.8131148 1.49296552,20.8131148 C1.056,20.8131148 0.619034483,20.8131148 0.182068966,20.7407213 C2.6582069,22.333377 5.57131034,23.2744918 8.77572414,23.2744918 C19.0444138,23.2744918 24.7249655,14.5872787 24.7249655,7.05836066 C24.7249655,6.84118033 24.7249655,6.55160656 24.7249655,6.33442623 C25.8173793,5.53809836 26.7641379,4.52459016 27.4924138,3.36629508 C26.4728276,3.80065574 25.3804138,4.16262295 24.288,4.23501639 C25.2347586,3.43868852 26.1086897,2.35278689 26.5456552,0.977311475 Z" id="Twitter"></path>
                            </g>
                        </g>
                        <path d="M84.2068966,0 L84.2068966,92" id="Line-4" stroke="#FFFFFF" stroke-width="0.5" opacity="0.118326823" stroke-linecap="square"></path>
                        <path d="M176,46 L0,46" id="Line-4" stroke="#FFFFFF" stroke-width="0.5" opacity="0.118326823" stroke-linecap="square"></path>
                    </g>
                    <g id="Group-34-Copy-6" transform="translate(206.000000, 0.000000)">
                        <g id="Group-35" transform="translate(0.100840, 1.137097)" fill="#FFFFFF" fill-rule="nonzero">
                            <g id="Group-25" transform="translate(0.000000, 64.435484)">
                                <path d="M26.7186555,25.179871 C26.7186555,25.9803871 26.0652101,26.6353548 25.2665546,26.6353548 L18.4416807,26.6353548 L18.4416807,16.3014194 L21.9267227,16.3014194 L22.434958,12.2988387 L18.4416807,12.2988387 L18.4416807,9.75174194 C18.4416807,8.58735484 18.7321008,7.78683871 20.4020168,7.78683871 L22.507563,7.78683871 L22.507563,4.14812903 C22.1445378,4.07535484 20.9102521,4.00258065 19.3855462,4.00258065 C16.3361345,4.00258065 14.2305882,5.89470968 14.2305882,9.31509677 L14.2305882,12.2988387 L10.7455462,12.2988387 L10.7455462,16.3014194 L14.2305882,16.3014194 L14.2305882,26.6353548 L1.45210084,26.6353548 C0.653445378,26.6353548 5.68434189e-14,25.9803871 5.68434189e-14,25.179871 L5.68434189e-14,1.45548387 C5.68434189e-14,0.654967742 0.653445378,0 1.45210084,0 L25.1939496,0 C25.992605,0 26.6460504,0.654967742 26.6460504,1.45548387 L26.6460504,25.179871 L26.7186555,25.179871 Z" id="Facebook"></path>
                            </g>
                        </g>
                        <g id="Group-36" transform="translate(93.126050, 1.895161)" fill="#FFFFFF" fill-rule="nonzero">
                            <g id="Group-24" transform="translate(0.000000, 63.677419)">
                                <g id="LinkedIn" transform="translate(0.181513, 0.727742)">
                                    <rect id="Rectangle" x="0.943865546" y="7.8596129" width="5.22756303" height="16.5925161"></rect>
                                    <path d="M20.4020168,7.71406452 C17.4252101,7.71406452 15.537479,9.31509677 15.1744538,10.4794839 L15.1744538,7.8596129 L9.29344538,7.8596129 C9.36605042,9.24232258 9.29344538,24.452129 9.29344538,24.452129 L15.1744538,24.452129 L15.1744538,15.5009032 C15.1744538,14.9914839 15.1744538,14.4820645 15.3196639,14.1181935 C15.7552941,13.0993548 16.5539496,12.0805161 18.1512605,12.0805161 C20.1842017,12.0805161 21.1280672,13.6087742 21.1280672,15.8647742 L21.1280672,24.452129 L27.0816807,24.452129 L27.0816807,15.2098065 C27.0090756,10.1156129 24.1048739,7.71406452 20.4020168,7.71406452 Z" id="Path"></path>
                                    <path d="M3.41243697,0.0727741935 C1.45210084,0.0727741935 0.217815126,1.30993548 0.217815126,2.98374194 C0.217815126,4.58477419 1.45210084,5.82193548 3.33983193,5.82193548 L3.41243697,5.82193548 C5.37277311,5.82193548 6.60705882,4.58477419 6.60705882,2.91096774 C6.53445378,1.30993548 5.37277311,0.0727741935 3.41243697,0.0727741935 Z" id="Path"></path>
                                </g>
                            </g>
                        </g>
                        <path d="M60.2268908,0 L60.2268908,92.483871" id="Line-4" stroke="#FFFFFF" stroke-width="0.5" opacity="0.118326823" stroke-linecap="square"></path>
                    </g>
                    <g id="Group-38-Copy" transform="translate(182.000000, 82.000000)">
                        <g id="Group-34" transform="translate(0.000000, 61.903956)">
                            <g id="Group-35" transform="translate(23.865556, 1.132389)" fill="#FFFFFF">
                                <g id="Group-27">
                                    <g id="Instagram/Color">
                                        <g id="Instagram-/-Color-Copy-10">
                                            <path d="M14.5867537,0.00131234086 C16.8160732,0.00610507923 17.31859,0.0252565996 18.4897617,0.0785025897 C19.8832484,0.141832845 20.8349499,0.362375411 21.6676951,0.684878134 C22.5286074,1.01820344 23.2587146,1.46425972 23.9865872,2.18947658 C24.7144078,2.91474523 25.1620656,3.64224053 25.4966396,4.50007292 C25.8202482,5.32983908 26.0415826,6.27813587 26.1051402,7.66663748 C26.1667985,9.013155 26.1829017,9.4726363 26.1838765,12.7118313 L26.1838765,13.3784685 C26.1829017,16.6176165 26.1667985,17.0770978 26.1051402,18.4236154 C26.0415826,19.812117 25.8202482,20.7604137 25.4966396,21.5901799 C25.1620656,22.4480123 24.7144078,23.1755076 23.9865872,23.9007762 C23.2587146,24.6259931 22.5286074,25.0720494 21.6676951,25.4054265 C20.8349499,25.7278774 19.8832484,25.94842 18.4897617,26.0117502 C17.1834548,26.07114 16.70901,26.0881134 13.7424164,26.0900563 L12.4415508,26.0900563 C9.47491471,26.0881134 9.00046986,26.07114 7.694163,26.0117502 C6.30067626,25.94842 5.3489748,25.7278774 4.51622953,25.4054265 C3.65531727,25.0720494 2.92521004,24.6259931 2.19733746,23.9007762 C1.46951685,23.1755076 1.0218591,22.4480123 0.687337052,21.5901799 C0.363676447,20.7604137 0.142342068,19.812117 0.0787844375,18.4236154 C0.0253472784,17.2566335 0.0061269983,16.7559144 0.00131705256,14.5345702 L0.00131705256,11.5557131 C0.0061269983,9.33433842 0.0253472784,8.83361933 0.0787844375,7.66663748 C0.142342068,6.27813587 0.363676447,5.32983908 0.687337052,4.50007292 C1.0218591,3.64224053 1.46951685,2.91474523 2.19733746,2.18947658 C2.92521004,1.46425972 3.65531727,1.01820344 4.51622953,0.684878134 C5.3489748,0.362375411 6.30067626,0.141832845 7.694163,0.0785025897 C8.8120996,0.0276768719 9.32078663,0.00791656966 11.3036779,0.00205675028 L11.5972016,0.00131234086 L14.5867537,0.00131234086 Z M13.7311769,2.35064491 L12.4527903,2.35064491 C9.53881373,2.35239205 9.09311651,2.36782626 7.80168609,2.42653783 C6.52523269,2.48453447 5.83202318,2.69705071 5.37069769,2.87570107 C4.75959861,3.11234805 4.3234779,3.39502987 3.86537446,3.85154625 C3.40721905,4.30801085 3.12352232,4.74257136 2.88602569,5.35148425 C2.70673393,5.81115938 2.49345469,6.50188896 2.43524983,7.7737759 C2.38039108,8.97184075 2.36318092,9.43942537 2.35965295,11.8415162 L2.35965295,14.2487708 C2.36318092,16.6508275 2.38039108,17.1184121 2.43524983,18.3164769 C2.49345469,19.5883639 2.70673393,20.2790934 2.88602569,20.7387686 C3.12352232,21.3476815 3.40727102,21.782242 3.86537446,22.2387066 C4.3234779,22.695223 4.75959861,22.9779048 5.37069769,23.2145518 C5.83202318,23.3932021 6.52523269,23.6057184 7.80168609,23.663715 C9.00391656,23.7183775 9.47308358,23.7355261 11.8839477,23.7390414 L14.3000136,23.7390414 C16.7108528,23.7355261 17.1800534,23.7183775 18.3822386,23.663715 C19.658692,23.6057184 20.3519015,23.3932021 20.813227,23.2145518 C21.4243261,22.9779048 21.8604468,22.695223 22.3185502,22.2387066 C22.7767056,21.782242 23.0604023,21.3476815 23.297899,20.7387686 C23.4771907,20.2790934 23.69047,19.5883639 23.7486748,18.3164769 C23.8075972,17.0296665 23.8230868,16.5855638 23.8248402,13.6820542 L23.8248402,12.408241 C23.8230868,9.50468905 23.8075972,9.06058629 23.7486748,7.7737759 C23.69047,6.50188896 23.4771907,5.81115938 23.297899,5.35148425 C23.0604023,4.74257136 22.7767056,4.30801085 22.3185502,3.85154625 C21.8604468,3.39502987 21.4243261,3.11234805 20.813227,2.87570107 C20.3519015,2.69705071 19.658692,2.48453447 18.3822386,2.42653783 C17.0908081,2.36782626 16.6451109,2.35239205 13.7311769,2.35064491 Z M13.0919883,6.34628191 C16.8049388,6.34628191 19.8148577,9.34543296 19.8148577,13.0451523 C19.8148577,16.7448199 16.8049388,19.7439709 13.0919883,19.7439709 C9.37898587,19.7439709 6.36906697,16.7448199 6.36906697,13.0451523 C6.36906697,9.34543296 9.37898587,6.34628191 13.0919883,6.34628191 Z M13.0919883,8.69675094 C10.6817874,8.69675094 8.72797489,10.6435737 8.72797489,13.0451523 C8.72797489,15.4466791 10.6817874,17.3935019 13.0919883,17.3935019 C15.5021373,17.3935019 17.4559498,15.4466791 17.4559498,13.0451523 C17.4559498,10.6435737 15.5021373,8.69675094 13.0919883,8.69675094 Z M20.0804693,4.51617735 C20.9481375,4.51617735 21.6515329,5.21705634 21.6515329,6.08162048 C21.6515329,6.94618462 20.9481375,7.64701183 20.0804693,7.64701183 C19.2128531,7.64701183 18.5094578,6.94618462 18.5094578,6.08162048 C18.5094578,5.21705634 19.2128531,4.51617735 20.0804693,4.51617735 Z"></path>
                                        </g>
                                    </g>
                                </g>
                                <g id="Group-25" transform="translate(0.000000, 64.168735)" fill-rule="nonzero">
                                    <path d="M26.7657897,25.0756319 C26.7657897,25.8728341 26.1111915,26.5250904 25.3111272,26.5250904 L18.4742135,26.5250904 L18.4742135,16.2339351 L21.9654035,16.2339351 L22.4745353,12.2479242 L18.4742135,12.2479242 L18.4742135,9.71137189 C18.4742135,8.55180509 18.765146,7.75460292 20.4380079,7.75460292 L22.5472685,7.75460292 L22.5472685,4.1309567 C22.1836028,4.05848377 20.9471397,3.98601085 19.4197441,3.98601085 C16.3649529,3.98601085 14.2556923,5.87030689 14.2556923,9.27653434 L14.2556923,12.2479242 L10.7645024,12.2479242 L10.7645024,16.2339351 L14.2556923,16.2339351 L14.2556923,26.5250904 L1.45466248,26.5250904 C0.654598117,26.5250904 5.68434189e-14,25.8728341 5.68434189e-14,25.0756319 L5.68434189e-14,1.44945849 C5.68434189e-14,0.652256321 0.654598117,0 1.45466248,0 L25.238394,0 C26.0384584,0 26.6930565,0.652256321 26.6930565,1.44945849 L26.6930565,25.0756319 L26.7657897,25.0756319 Z" id="Facebook"></path>
                                </g>
                            </g>
                            <g id="Group-36" transform="translate(117.054872, 1.887316)" fill="#FFFFFF" fill-rule="nonzero">
                                <g id="Group-26">
                                    <path d="M26.5112237,0.978384481 C25.4202269,1.6306408 24.2564969,2.13795127 22.9473006,2.35537005 C21.9290369,1.26827618 20.4743744,0.543546934 18.8742457,0.543546934 C15.8194545,0.543546934 13.2737951,3.08009929 13.2737951,6.26890797 C13.2737951,6.70374552 13.3465283,7.13858307 13.4192614,7.57342061 C8.76434145,7.35600184 4.6912865,5.03686825 1.92742779,1.6306408 C1.41829592,2.5003159 1.20009655,3.44246391 1.20009655,4.52955778 C1.20009655,6.48632674 2.21836028,8.22567693 3.67302277,9.3127708 C2.72749215,9.3127708 1.92742779,9.0228791 1.12736342,8.58804156 L1.12736342,8.66051448 C1.12736342,11.4144856 3.01842465,13.7336192 5.63681711,14.2409297 C5.20041837,14.3858755 4.6912865,14.4583484 4.18215463,14.4583484 C3.81848901,14.4583484 3.45482339,14.4583484 3.1638909,14.3858755 C3.89122214,16.6325362 5.92774961,18.2994134 8.40067583,18.3718864 C6.5096146,19.8938178 4.10942151,20.8359658 1.49102904,20.8359658 C1.0546303,20.8359658 0.618231555,20.8359658 0.18183281,20.7634929 C2.65475903,22.3578972 5.56408399,23.3000452 8.76434145,23.3000452 C19.0197119,23.3000452 24.6928956,14.6032943 24.6928956,7.06611014 C24.6928956,6.84869137 24.6928956,6.55879967 24.6928956,6.3413809 C25.7838925,5.54417873 26.7294231,4.52955778 27.4567543,3.36999099 C26.4384906,3.80482854 25.3474937,4.16719316 24.2564969,4.23966608 C25.2020275,3.44246391 26.074825,2.35537005 26.5112237,0.978384481 Z" id="Twitter"></path>
                                </g>
                                <g id="Group-24" transform="translate(0.000000, 63.413809)">
                                    <g id="LinkedIn" transform="translate(0.181833, 0.724729)">
                                        <rect id="Rectangle" x="0.945530613" y="7.82707585" width="5.23678493" height="16.5238268"></rect>
                                        <path d="M20.4380079,7.68213 C17.4559498,7.68213 15.5648885,9.27653434 15.2012229,10.4361011 L15.2012229,7.82707585 L9.30983988,7.82707585 C9.382573,9.20406141 9.30983988,24.3509026 9.30983988,24.3509026 L15.2012229,24.3509026 L15.2012229,15.4367329 C15.2012229,14.9294225 15.2012229,14.422112 15.3466892,14.0597474 C15.7830879,13.0451264 16.5831523,12.0305055 18.183281,12.0305055 C20.2198085,12.0305055 21.1653391,13.5524369 21.1653391,15.7990975 L21.1653391,24.3509026 L27.1294553,24.3509026 L27.1294553,15.1468412 C27.0567222,10.0737365 24.1473972,7.68213 20.4380079,7.68213 Z" id="Path"></path>
                                        <path d="M3.41845683,0.0724729245 C1.45466248,0.0724729245 0.218199372,1.30451264 0.218199372,2.97138991 C0.218199372,4.56579424 1.45466248,5.79783396 3.34572371,5.79783396 L3.41845683,5.79783396 C5.38225118,5.79783396 6.61871429,4.56579424 6.61871429,2.89891698 C6.54598117,1.30451264 5.38225118,0.0724729245 3.41845683,0.0724729245 Z" id="Path"></path>
                                    </g>
                                </g>
                            </g>
                            <path d="M84.0976747,0 L84.0976747,92.1010082" id="Line-4" stroke="#FFFFFF" stroke-width="0.5" opacity="0.118326823" stroke-linecap="square"></path>
                            <path d="M175.771716,46.0505041 L0,46.0505041" id="Line-4" stroke="#FFFFFF" stroke-width="0.5" opacity="0.118326823" stroke-linecap="square"></path>
                        </g>
                        <g id="Group-34" transform="translate(166.680076, 0.000000)">
                            <g id="Group-35" transform="translate(23.865556, 1.132389)" fill="#FFFFFF">
                                <g id="Group-27">
                                    <g id="Instagram/Color">
                                        <g id="Instagram-/-Color-Copy-11">
                                            <path d="M14.5867537,0.00131234086 C16.8160732,0.00610507923 17.31859,0.0252565996 18.4897617,0.0785025897 C19.8832484,0.141832845 20.8349499,0.362375411 21.6676951,0.684878134 C22.5286074,1.01820344 23.2587146,1.46425972 23.9865872,2.18947658 C24.7144078,2.91474523 25.1620656,3.64224053 25.4966396,4.50007292 C25.8202482,5.32983908 26.0415826,6.27813587 26.1051402,7.66663748 C26.1667985,9.013155 26.1829017,9.4726363 26.1838765,12.7118313 L26.1838765,13.3784685 C26.1829017,16.6176165 26.1667985,17.0770978 26.1051402,18.4236154 C26.0415826,19.812117 25.8202482,20.7604137 25.4966396,21.5901799 C25.1620656,22.4480123 24.7144078,23.1755076 23.9865872,23.9007762 C23.2587146,24.6259931 22.5286074,25.0720494 21.6676951,25.4054265 C20.8349499,25.7278774 19.8832484,25.94842 18.4897617,26.0117502 C17.1834548,26.07114 16.70901,26.0881134 13.7424164,26.0900563 L12.4415508,26.0900563 C9.47491471,26.0881134 9.00046986,26.07114 7.694163,26.0117502 C6.30067626,25.94842 5.3489748,25.7278774 4.51622953,25.4054265 C3.65531727,25.0720494 2.92521004,24.6259931 2.19733746,23.9007762 C1.46951685,23.1755076 1.0218591,22.4480123 0.687337052,21.5901799 C0.363676447,20.7604137 0.142342068,19.812117 0.0787844375,18.4236154 C0.0253472784,17.2566335 0.0061269983,16.7559144 0.00131705256,14.5345702 L0.00131705256,11.5557131 C0.0061269983,9.33433842 0.0253472784,8.83361933 0.0787844375,7.66663748 C0.142342068,6.27813587 0.363676447,5.32983908 0.687337052,4.50007292 C1.0218591,3.64224053 1.46951685,2.91474523 2.19733746,2.18947658 C2.92521004,1.46425972 3.65531727,1.01820344 4.51622953,0.684878134 C5.3489748,0.362375411 6.30067626,0.141832845 7.694163,0.0785025897 C8.8120996,0.0276768719 9.32078663,0.00791656966 11.3036779,0.00205675027 L11.5972016,0.00131234086 L14.5867537,0.00131234086 Z M13.7311769,2.35064491 L12.4527903,2.35064491 C9.53881373,2.35239205 9.09311651,2.36782626 7.80168609,2.42653783 C6.52523269,2.48453447 5.83202318,2.69705071 5.37069769,2.87570107 C4.75959861,3.11234805 4.3234779,3.39502987 3.86537446,3.85154625 C3.40721905,4.30801085 3.12352232,4.74257136 2.88602569,5.35148425 C2.70673393,5.81115938 2.49345469,6.50188896 2.43524983,7.7737759 C2.38039108,8.97184075 2.36318092,9.43942537 2.35965295,11.8415162 L2.35965295,14.2487708 C2.36318092,16.6508275 2.38039108,17.1184121 2.43524983,18.3164769 C2.49345469,19.5883639 2.70673393,20.2790934 2.88602569,20.7387686 C3.12352232,21.3476815 3.40727102,21.782242 3.86537446,22.2387066 C4.3234779,22.695223 4.75959861,22.9779048 5.37069769,23.2145518 C5.83202318,23.3932021 6.52523269,23.6057184 7.80168609,23.663715 C9.00391656,23.7183775 9.47308358,23.7355261 11.8839477,23.7390414 L14.3000136,23.7390414 C16.7108528,23.7355261 17.1800534,23.7183775 18.3822386,23.663715 C19.658692,23.6057184 20.3519015,23.3932021 20.813227,23.2145518 C21.4243261,22.9779048 21.8604468,22.695223 22.3185502,22.2387066 C22.7767056,21.782242 23.0604023,21.3476815 23.297899,20.7387686 C23.4771907,20.2790934 23.69047,19.5883639 23.7486748,18.3164769 C23.8075972,17.0296665 23.8230868,16.5855638 23.8248402,13.6820542 L23.8248402,12.408241 C23.8230868,9.50468905 23.8075972,9.06058629 23.7486748,7.7737759 C23.69047,6.50188896 23.4771907,5.81115938 23.297899,5.35148425 C23.0604023,4.74257136 22.7767056,4.30801085 22.3185502,3.85154625 C21.8604468,3.39502987 21.4243261,3.11234805 20.813227,2.87570107 C20.3519015,2.69705071 19.658692,2.48453447 18.3822386,2.42653783 C17.0908081,2.36782626 16.6451109,2.35239205 13.7311769,2.35064491 Z M13.0919883,6.34628191 C16.8049388,6.34628191 19.8148577,9.34543296 19.8148577,13.0451523 C19.8148577,16.7448199 16.8049388,19.7439709 13.0919883,19.7439709 C9.37898587,19.7439709 6.36906697,16.7448199 6.36906697,13.0451523 C6.36906697,9.34543296 9.37898587,6.34628191 13.0919883,6.34628191 Z M13.0919883,8.69675094 C10.6817874,8.69675094 8.72797489,10.6435737 8.72797489,13.0451523 C8.72797489,15.4466791 10.6817874,17.3935019 13.0919883,17.3935019 C15.5021373,17.3935019 17.4559498,15.4466791 17.4559498,13.0451523 C17.4559498,10.6435737 15.5021373,8.69675094 13.0919883,8.69675094 Z M20.0804693,4.51617735 C20.9481375,4.51617735 21.6515329,5.21705634 21.6515329,6.08162048 C21.6515329,6.94618462 20.9481375,7.64701183 20.0804693,7.64701183 C19.2128531,7.64701183 18.5094578,6.94618462 18.5094578,6.08162048 C18.5094578,5.21705634 19.2128531,4.51617735 20.0804693,4.51617735 Z"></path>
                                        </g>
                                    </g>
                                </g>
                                <g id="Group-25" transform="translate(0.000000, 64.168735)" fill-rule="nonzero">
                                    <path d="M26.7657897,25.0756319 C26.7657897,25.8728341 26.1111915,26.5250904 25.3111272,26.5250904 L18.4742135,26.5250904 L18.4742135,16.2339351 L21.9654035,16.2339351 L22.4745353,12.2479242 L18.4742135,12.2479242 L18.4742135,9.71137189 C18.4742135,8.55180509 18.765146,7.75460292 20.4380079,7.75460292 L22.5472685,7.75460292 L22.5472685,4.1309567 C22.1836028,4.05848377 20.9471397,3.98601085 19.4197441,3.98601085 C16.3649529,3.98601085 14.2556923,5.87030689 14.2556923,9.27653434 L14.2556923,12.2479242 L10.7645024,12.2479242 L10.7645024,16.2339351 L14.2556923,16.2339351 L14.2556923,26.5250904 L1.45466248,26.5250904 C0.654598117,26.5250904 5.68434189e-14,25.8728341 5.68434189e-14,25.0756319 L5.68434189e-14,1.44945849 C5.68434189e-14,0.652256321 0.654598117,0 1.45466248,0 L25.238394,0 C26.0384584,0 26.6930565,0.652256321 26.6930565,1.44945849 L26.6930565,25.0756319 L26.7657897,25.0756319 Z" id="Facebook"></path>
                                </g>
                            </g>
                            <path d="M175.771716,46.0505041 L0,46.0505041" id="Line-4" stroke="#FFFFFF" stroke-width="0.5" opacity="0.118326823" stroke-linecap="square"></path>
                        </g>
                        <g id="Group-34" transform="translate(168.195349, 131.357176)">
                            <g id="Group-35" transform="translate(23.865556, 1.132389)" fill="#FFFFFF">
                                <g id="Group-27">
                                    <g id="Instagram/Color">
                                        <g id="Instagram-/-Color-Copy-12">
                                            <path d="M14.5867537,0.00131234086 C16.8160732,0.00610507923 17.31859,0.0252565996 18.4897617,0.0785025897 C19.8832484,0.141832845 20.8349499,0.362375411 21.6676951,0.684878134 C22.5286074,1.01820344 23.2587146,1.46425972 23.9865872,2.18947658 C24.7144078,2.91474523 25.1620656,3.64224053 25.4966396,4.50007292 C25.8202482,5.32983908 26.0415826,6.27813587 26.1051402,7.66663748 C26.1667985,9.013155 26.1829017,9.4726363 26.1838765,12.7118313 L26.1838765,13.3784685 C26.1829017,16.6176165 26.1667985,17.0770978 26.1051402,18.4236154 C26.0415826,19.812117 25.8202482,20.7604137 25.4966396,21.5901799 C25.1620656,22.4480123 24.7144078,23.1755076 23.9865872,23.9007762 C23.2587146,24.6259931 22.5286074,25.0720494 21.6676951,25.4054265 C20.8349499,25.7278774 19.8832484,25.94842 18.4897617,26.0117502 C17.1834548,26.07114 16.70901,26.0881134 13.7424164,26.0900563 L12.4415508,26.0900563 C9.47491471,26.0881134 9.00046986,26.07114 7.694163,26.0117502 C6.30067626,25.94842 5.3489748,25.7278774 4.51622953,25.4054265 C3.65531727,25.0720494 2.92521004,24.6259931 2.19733746,23.9007762 C1.46951685,23.1755076 1.0218591,22.4480123 0.687337052,21.5901799 C0.363676447,20.7604137 0.142342068,19.812117 0.0787844375,18.4236154 C0.0253472784,17.2566335 0.0061269983,16.7559144 0.00131705256,14.5345702 L0.00131705256,11.5557131 C0.0061269983,9.33433842 0.0253472784,8.83361933 0.0787844375,7.66663748 C0.142342068,6.27813587 0.363676447,5.32983908 0.687337052,4.50007292 C1.0218591,3.64224053 1.46951685,2.91474523 2.19733746,2.18947658 C2.92521004,1.46425972 3.65531727,1.01820344 4.51622953,0.684878134 C5.3489748,0.362375411 6.30067626,0.141832845 7.694163,0.0785025897 C8.8120996,0.0276768719 9.32078663,0.00791656966 11.3036779,0.00205675028 L11.5972016,0.00131234086 L14.5867537,0.00131234086 Z M13.7311769,2.35064491 L12.4527903,2.35064491 C9.53881373,2.35239205 9.09311651,2.36782626 7.80168609,2.42653783 C6.52523269,2.48453447 5.83202318,2.69705071 5.37069769,2.87570107 C4.75959861,3.11234805 4.3234779,3.39502987 3.86537446,3.85154625 C3.40721905,4.30801085 3.12352232,4.74257136 2.88602569,5.35148425 C2.70673393,5.81115938 2.49345469,6.50188896 2.43524983,7.7737759 C2.38039108,8.97184075 2.36318092,9.43942537 2.35965295,11.8415162 L2.35965295,14.2487708 C2.36318092,16.6508275 2.38039108,17.1184121 2.43524983,18.3164769 C2.49345469,19.5883639 2.70673393,20.2790934 2.88602569,20.7387686 C3.12352232,21.3476815 3.40727102,21.782242 3.86537446,22.2387066 C4.3234779,22.695223 4.75959861,22.9779048 5.37069769,23.2145518 C5.83202318,23.3932021 6.52523269,23.6057184 7.80168609,23.663715 C9.00391656,23.7183775 9.47308358,23.7355261 11.8839477,23.7390414 L14.3000136,23.7390414 C16.7108528,23.7355261 17.1800534,23.7183775 18.3822386,23.663715 C19.658692,23.6057184 20.3519015,23.3932021 20.813227,23.2145518 C21.4243261,22.9779048 21.8604468,22.695223 22.3185502,22.2387066 C22.7767056,21.782242 23.0604023,21.3476815 23.297899,20.7387686 C23.4771907,20.2790934 23.69047,19.5883639 23.7486748,18.3164769 C23.8075972,17.0296665 23.8230868,16.5855638 23.8248402,13.6820542 L23.8248402,12.408241 C23.8230868,9.50468905 23.8075972,9.06058629 23.7486748,7.7737759 C23.69047,6.50188896 23.4771907,5.81115938 23.297899,5.35148425 C23.0604023,4.74257136 22.7767056,4.30801085 22.3185502,3.85154625 C21.8604468,3.39502987 21.4243261,3.11234805 20.813227,2.87570107 C20.3519015,2.69705071 19.658692,2.48453447 18.3822386,2.42653783 C17.0908081,2.36782626 16.6451109,2.35239205 13.7311769,2.35064491 Z M13.0919883,6.34628191 C16.8049388,6.34628191 19.8148577,9.34543296 19.8148577,13.0451523 C19.8148577,16.7448199 16.8049388,19.7439709 13.0919883,19.7439709 C9.37898587,19.7439709 6.36906697,16.7448199 6.36906697,13.0451523 C6.36906697,9.34543296 9.37898587,6.34628191 13.0919883,6.34628191 Z M13.0919883,8.69675094 C10.6817874,8.69675094 8.72797489,10.6435737 8.72797489,13.0451523 C8.72797489,15.4466791 10.6817874,17.3935019 13.0919883,17.3935019 C15.5021373,17.3935019 17.4559498,15.4466791 17.4559498,13.0451523 C17.4559498,10.6435737 15.5021373,8.69675094 13.0919883,8.69675094 Z M20.0804693,4.51617735 C20.9481375,4.51617735 21.6515329,5.21705634 21.6515329,6.08162048 C21.6515329,6.94618462 20.9481375,7.64701183 20.0804693,7.64701183 C19.2128531,7.64701183 18.5094578,6.94618462 18.5094578,6.08162048 C18.5094578,5.21705634 19.2128531,4.51617735 20.0804693,4.51617735 Z"></path>
                                        </g>
                                    </g>
                                </g>
                                <g id="Group-25" transform="translate(0.000000, 64.168735)" fill-rule="nonzero">
                                    <path d="M26.7657897,25.0756319 C26.7657897,25.8728341 26.1111915,26.5250904 25.3111272,26.5250904 L18.4742135,26.5250904 L18.4742135,16.2339351 L21.9654035,16.2339351 L22.4745353,12.2479242 L18.4742135,12.2479242 L18.4742135,9.71137189 C18.4742135,8.55180509 18.765146,7.75460292 20.4380079,7.75460292 L22.5472685,7.75460292 L22.5472685,4.1309567 C22.1836028,4.05848377 20.9471397,3.98601085 19.4197441,3.98601085 C16.3649529,3.98601085 14.2556923,5.87030689 14.2556923,9.27653434 L14.2556923,12.2479242 L10.7645024,12.2479242 L10.7645024,16.2339351 L14.2556923,16.2339351 L14.2556923,26.5250904 L1.45466248,26.5250904 C0.654598117,26.5250904 5.68434189e-14,25.8728341 5.68434189e-14,25.0756319 L5.68434189e-14,1.44945849 C5.68434189e-14,0.652256321 0.654598117,0 1.45466248,0 L25.238394,0 C26.0384584,0 26.6930565,0.652256321 26.6930565,1.44945849 L26.6930565,25.0756319 L26.7657897,25.0756319 Z" id="Facebook"></path>
                                </g>
                            </g>
                            <path d="M175.771716,46.0505041 L0,46.0505041" id="Line-4" stroke="#FFFFFF" stroke-width="0.5" opacity="0.118326823" stroke-linecap="square"></path>
                        </g>
                    </g>
                </g>
            </g>
        </g>
    </g>
</svg>