<?xml version="1.0" encoding="UTF-8"?>
<svg width="405px" height="241px" viewBox="0 0 405 241" version="1.1" xmlns="http://www.w3.org/2000/svg" xmlns:xlink="http://www.w3.org/1999/xlink">
    <!-- Generator: Sketch 58 (84663) - https://sketch.com -->
    <title>Social_Media_Left</title>
    <desc>Created with Sketch.</desc>
    <g id="Page-1" stroke="none" stroke-width="1" fill="none" fill-rule="evenodd" opacity="0.118210565">
        <g id="Myntra-Website" transform="translate(0.000000, -4284.000000)">
            <g id="Group-44-+-Group-45-Mask" transform="translate(0.000000, 4284.000000)">
                <g id="Social_Media_Left" transform="translate(-105.000000, -32.000000)">
                    <g id="Group-34-Copy-7">
                        <g id="Group-36" transform="translate(113.877155, 1.837198)" fill="#FFFFFF" fill-rule="nonzero">
                            <g id="Group-24" transform="translate(0.000000, 61.729839)">
                                <g id="LinkedIn" transform="translate(0.176897, 0.705484)">
                                    <rect id="Rectangle" x="0.919862069" y="7.61922581" width="5.09462069" height="16.0850323"></rect>
                                    <path d="M19.8831724,7.47812903 C16.982069,7.47812903 15.1423448,9.03019355 14.7885517,10.1589677 L14.7885517,7.61922581 L9.05710345,7.61922581 C9.12786207,8.95964516 9.05710345,23.7042581 9.05710345,23.7042581 L14.7885517,23.7042581 L14.7885517,15.0268065 C14.7885517,14.5329677 14.7885517,14.039129 14.930069,13.6863871 C15.3546207,12.6987097 16.1329655,11.7110323 17.6896552,11.7110323 C19.6708966,11.7110323 20.5907586,13.1925484 20.5907586,15.3795484 L20.5907586,23.7042581 L26.3929655,23.7042581 L26.3929655,14.7446129 C26.3222069,9.80622581 23.4918621,7.47812903 19.8831724,7.47812903 Z" id="Path"></path>
                                    <path d="M3.32565517,0.0705483871 C1.41517241,0.0705483871 0.212275862,1.26987097 0.212275862,2.89248387 C0.212275862,4.44454839 1.41517241,5.64387097 3.25489655,5.64387097 L3.32565517,5.64387097 C5.23613793,5.64387097 6.43903448,4.44454839 6.43903448,2.82193548 C6.36827586,1.26987097 5.23613793,0.0705483871 3.32565517,0.0705483871 Z" id="Path"></path>
                                </g>
                            </g>
                        </g>
                        <path d="M171,44.827621 L0,44.827621" id="Line-4" stroke="#FFFFFF" stroke-width="0.5" opacity="0.118326823" stroke-linecap="square"></path>
                    </g>
                    <g id="Group-38" transform="translate(0.000000, 80.000000)">
                        <g id="Group-34" transform="translate(0.000000, 60.295786)">
                            <g id="Group-36" transform="translate(113.620743, 1.838286)" fill="#FFFFFF" fill-rule="nonzero">
                                <g id="Group-26">
                                    <path d="M25.7334435,0.95296755 C24.6744541,1.58827925 23.5448653,2.08241057 22.274078,2.29418114 C21.2856878,1.23532831 19.8737019,0.529426417 18.3205174,0.529426417 C15.355347,0.529426417 12.8843716,3.00008303 12.8843716,6.10605134 C12.8843716,6.52959247 12.9549709,6.95313361 13.0255702,7.37667474 C8.50721521,7.16490417 4.55365461,4.90601813 1.87088135,1.58827925 C1.37668628,2.43536152 1.16488839,3.35303397 1.16488839,4.41188681 C1.16488839,6.31782191 2.15327854,8.01198644 3.56526447,9.07083927 C2.64747361,9.07083927 1.87088135,8.78847852 1.09428909,8.36493738 L1.09428909,8.43552757 C1.09428909,11.1179547 2.9298708,13.3768408 5.47144547,13.8709721 C5.04784969,14.0121525 4.55365461,14.0827427 4.05945954,14.0827427 C3.70646306,14.0827427 3.35346658,14.0827427 3.07106939,14.0121525 C3.77706235,16.2004483 5.75384265,17.8240227 8.15421873,17.8946129 C6.31863702,19.3770068 3.98886024,20.2946793 1.44728557,20.2946793 C1.0236898,20.2946793 0.600094019,20.2946793 0.176498241,20.2240891 C2.57687432,21.7770733 5.40084617,22.6947457 8.50721521,22.6947457 C18.461716,22.6947457 23.9684611,14.2239231 23.9684611,6.88254342 C23.9684611,6.67077285 23.9684611,6.38841209 23.9684611,6.17664153 C25.0274506,5.40014945 25.9452414,4.41188681 26.6512344,3.28244378 C25.6628442,3.70598492 24.6038548,4.05893586 23.5448653,4.12952605 C24.4626562,3.35303397 25.3098477,2.29418114 25.7334435,0.95296755 Z" id="Twitter"></path>
                                </g>
                                <g id="Group-24" transform="translate(0.000000, 61.766415)">
                                    <g id="LinkedIn" transform="translate(0.176498, 0.705902)">
                                        <rect id="Rectangle" x="0.917790852" y="7.6237404" width="5.08314934" height="16.0945631"></rect>
                                        <path d="M19.8384023,7.48256002 C16.9438311,7.48256002 15.1082494,9.03554418 14.7552529,10.1649872 L14.7552529,7.6237404 L9.03670993,7.6237404 C9.10730923,8.96495399 9.03670993,23.7183035 9.03670993,23.7183035 L14.7552529,23.7183035 L14.7552529,15.0357102 C14.7552529,14.5415789 14.7552529,14.0474476 14.8964515,13.6944966 C15.3200473,12.706234 16.0966396,11.7179714 17.6498241,11.7179714 C19.6266044,11.7179714 20.5443952,13.2003653 20.5443952,15.3886612 L20.5443952,23.7183035 L26.3335375,23.7183035 L26.3335375,14.7533495 C26.2629382,9.81203626 23.4389664,7.48256002 19.8384023,7.48256002 Z" id="Path"></path>
                                        <path d="M3.31816693,0.0705901889 C1.41198593,0.0705901889 0.211797889,1.2706234 0.211797889,2.89419774 C0.211797889,4.4471819 1.41198593,5.64721511 3.24756763,5.64721511 L3.31816693,5.64721511 C5.22434793,5.64721511 6.42453597,4.4471819 6.42453597,2.82360756 C6.35393667,1.2706234 5.22434793,0.0705901889 3.31816693,0.0705901889 Z" id="Path"></path>
                                    </g>
                                </g>
                            </g>
                            <path d="M170.614966,44.8541825 L0,44.8541825" id="Line-4" stroke="#FFFFFF" stroke-width="0.5" opacity="0.118326823" stroke-linecap="square"></path>
                        </g>
                        <g id="Group-34" transform="translate(161.790054, 0.000000)">
                            <g id="Group-35" transform="translate(23.165394, 1.102972)" fill="#FFFFFF">
                                <g id="Group-27">
                                    <g id="Instagram/Color">
                                        <g id="Instagram-/-Color-Copy-5">
                                            <path d="M13.3392445,0.000191395242 C16.2188048,0.00208383925 16.6793305,0.0186163094 17.9473133,0.0764632126 C19.2999182,0.138148245 20.2236989,0.352961452 21.0320133,0.667086049 C21.8676683,0.991752077 22.5763558,1.42622049 23.2828742,2.13259733 C23.9893422,2.83902461 24.4238666,3.5476207 24.748625,4.38316792 C25.0627397,5.19137802 25.2775806,6.11503951 25.3392736,7.46746997 C25.395133,8.69157123 25.4124731,9.16303912 25.4153061,11.78563 L25.4153061,13.6268751 C25.4124731,16.2494289 25.395133,16.7208968 25.3392736,17.944998 C25.2775806,19.2974285 25.0627397,20.22109 24.748625,21.0293001 C24.4238666,21.8648473 23.9893422,22.5734434 23.2828742,23.2798707 C22.5763558,23.9862475 21.8676683,24.4207159 21.0320133,24.7454324 C20.2236989,25.0595065 19.2999182,25.2743198 17.9473133,25.3360048 C16.635607,25.3958464 16.1880046,25.4114752 13.0325976,25.4124212 L12.3831948,25.4124212 C9.22774211,25.4114752 8.78013969,25.3958464 7.46843341,25.3360048 C6.11582846,25.2743198 5.19204781,25.0595065 4.38373343,24.7454324 C3.54807841,24.4207159 2.8393909,23.9862475 2.13287248,23.2798707 C1.4264045,22.5734434 0.991880032,21.8648473 0.667172115,21.0293001 C0.353006991,20.22109 0.138166069,19.2974285 0.0764730778,17.944998 C0.0186187113,16.6771789 0.0020841081,16.2167126 0.000191419937,13.3375238 L0.000191419937,12.0749855 C0.0020841081,9.19575541 0.0186187113,8.73528913 0.0764730778,7.46746997 C0.138166069,6.11503951 0.353006991,5.19137802 0.667172115,4.38316792 C0.991880032,3.5476207 1.4264045,2.83902461 2.13287248,2.13259733 C2.8393909,1.42622049 3.54807841,0.991752077 4.38373343,0.667086049 C5.19204781,0.352961452 6.11582846,0.138148245 7.46843341,0.0764632126 C8.69113105,0.0206822703 9.16301722,0.00331742696 11.7771244,0.000451392733 L12.0765434,0.000191395242 L13.3392445,0.000191395242 Z M13.8804002,2.29013052 L11.5353798,2.29013052 C9.19538977,2.29355455 8.73989352,2.31025764 7.57280201,2.36350009 C6.33379691,2.41999007 5.66092463,2.62698546 5.21313339,2.80099475 C4.6199626,3.03149402 4.1966367,3.30683219 3.75197299,3.75148898 C3.30725884,4.19609532 3.03188514,4.61936661 2.80135613,5.21246089 C2.62732439,5.66019435 2.42030229,6.33297984 2.36380503,7.57182511 C2.30858351,8.78198609 2.29266316,9.22696366 2.29009897,11.8017431 L2.29009897,13.6107621 C2.29266316,16.1855043 2.30858351,16.6304819 2.36380503,17.8406429 C2.42030229,19.0794882 2.62732439,19.7522736 2.80135613,20.2000071 C3.03188514,20.7931014 3.30730928,21.2163727 3.75197299,21.660979 C4.1966367,22.1056358 4.6199626,22.380974 5.21313339,22.6114732 C5.66092463,22.7854825 6.33379691,22.9924779 7.57280201,23.0489679 C8.73976172,23.1022104 9.19516443,23.1189135 11.5352992,23.1223375 L13.880483,23.1223375 C16.2205936,23.1189135 16.6760289,23.1022104 17.8429447,23.0489679 C19.0819498,22.9924779 19.7548221,22.7854825 20.2026133,22.6114732 C20.7957841,22.380974 21.21911,22.1056358 21.6637737,21.660979 C22.1084878,21.2163727 22.3838615,20.7931014 22.6143905,20.2000071 C22.7884223,19.7522736 22.9954444,19.0794882 23.0519417,17.8406429 C23.105191,16.6737019 23.1218962,16.2182644 23.1253207,13.8786096 L23.1253207,11.5338917 C23.1218962,9.19420355 23.105191,8.73876606 23.0519417,7.57182511 C22.9954444,6.33297984 22.7884223,5.66019435 22.6143905,5.21246089 C22.3838615,4.61936661 22.1084878,4.19609532 21.6637737,3.75148898 C21.21911,3.30683219 20.7957841,3.03149402 20.2026133,2.80099475 C19.7548221,2.62698546 19.0819498,2.41999007 17.8429447,2.36350009 C16.6758532,2.31025764 16.2203569,2.29355455 13.8804002,2.29013052 Z M12.7078986,6.18141522 C16.3119193,6.18141522 19.2335339,9.10265292 19.2335339,12.7062592 C19.2335339,16.3098151 16.3119193,19.2310528 12.7078986,19.2310528 C9.10382733,19.2310528 6.18221274,16.3098151 6.18221274,12.7062592 C6.18221274,9.10265292 9.10382733,6.18141522 12.7078986,6.18141522 Z M12.7078986,8.47082267 C10.3684075,8.47082267 8.47191556,10.36707 8.47191556,12.7062592 C8.47191556,15.045398 10.3684075,16.9416453 12.7078986,16.9416453 C15.0473391,16.9416453 16.9438311,15.045398 16.9438311,12.7062592 C16.9438311,10.36707 15.0473391,8.47082267 12.7078986,8.47082267 Z M19.4913531,4.39885397 C20.3335659,4.39885397 21.0163252,5.0815252 21.0163252,5.92362929 C21.0163252,6.76573338 20.3335659,7.44835417 19.4913531,7.44835417 C18.6491908,7.44835417 17.9664315,6.76573338 17.9664315,5.92362929 C17.9664315,5.0815252 18.6491908,4.39885397 19.4913531,4.39885397 Z"></path>
                                        </g>
                                    </g>
                                </g>
                                <g id="Group-25" transform="translate(0.000000, 62.501730)" fill-rule="nonzero">
                                    <path d="M25.9805411,24.4242054 C25.9805411,25.2006974 25.3451474,25.8360091 24.5685551,25.8360091 L17.9322213,25.8360091 L17.9322213,15.8122023 L21.3209875,15.8122023 L21.8151826,11.9297419 L17.9322213,11.9297419 L17.9322213,9.45908531 C17.9322213,8.32964229 18.2146185,7.55315021 19.8384023,7.55315021 L21.8857819,7.55315021 L21.8857819,4.02364077 C21.5327854,3.95305058 20.3325973,3.88246039 18.8500121,3.88246039 C15.8848417,3.88246039 13.8374621,5.7178053 13.8374621,9.03554418 L13.8374621,11.9297419 L10.4486959,11.9297419 L10.4486959,15.8122023 L13.8374621,15.8122023 L13.8374621,25.8360091 L1.41198593,25.8360091 C0.635393667,25.8360091 5.68434189e-14,25.2006974 5.68434189e-14,24.4242054 L5.68434189e-14,1.41180378 C5.68434189e-14,0.6353117 0.635393667,0 1.41198593,0 L24.4979558,0 C25.2745481,0 25.9099418,0.6353117 25.9099418,1.41180378 L25.9099418,24.4242054 L25.9805411,24.4242054 Z" id="Facebook"></path>
                                </g>
                            </g>
                            <g id="Group-36" transform="translate(113.620743, 1.838286)" fill="#FFFFFF" fill-rule="nonzero">
                                <g id="Group-26">
                                    <path d="M25.7334435,0.95296755 C24.6744541,1.58827925 23.5448653,2.08241057 22.274078,2.29418114 C21.2856878,1.23532831 19.8737019,0.529426417 18.3205174,0.529426417 C15.355347,0.529426417 12.8843716,3.00008303 12.8843716,6.10605134 C12.8843716,6.52959247 12.9549709,6.95313361 13.0255702,7.37667474 C8.50721521,7.16490417 4.55365461,4.90601813 1.87088135,1.58827925 C1.37668628,2.43536152 1.16488839,3.35303397 1.16488839,4.41188681 C1.16488839,6.31782191 2.15327854,8.01198644 3.56526447,9.07083927 C2.64747361,9.07083927 1.87088135,8.78847852 1.09428909,8.36493738 L1.09428909,8.43552757 C1.09428909,11.1179547 2.9298708,13.3768408 5.47144547,13.8709721 C5.04784969,14.0121525 4.55365461,14.0827427 4.05945954,14.0827427 C3.70646306,14.0827427 3.35346658,14.0827427 3.07106939,14.0121525 C3.77706235,16.2004483 5.75384265,17.8240227 8.15421873,17.8946129 C6.31863702,19.3770068 3.98886024,20.2946793 1.44728557,20.2946793 C1.0236898,20.2946793 0.600094019,20.2946793 0.176498241,20.2240891 C2.57687432,21.7770733 5.40084617,22.6947457 8.50721521,22.6947457 C18.461716,22.6947457 23.9684611,14.2239231 23.9684611,6.88254342 C23.9684611,6.67077285 23.9684611,6.38841209 23.9684611,6.17664153 C25.0274506,5.40014945 25.9452414,4.41188681 26.6512344,3.28244378 C25.6628442,3.70598492 24.6038548,4.05893586 23.5448653,4.12952605 C24.4626562,3.35303397 25.3098477,2.29418114 25.7334435,0.95296755 Z" id="Twitter"></path>
                                </g>
                                <g id="Group-24" transform="translate(0.000000, 61.766415)">
                                    <g id="LinkedIn" transform="translate(0.176498, 0.705902)">
                                        <rect id="Rectangle" x="0.917790852" y="7.6237404" width="5.08314934" height="16.0945631"></rect>
                                        <path d="M19.8384023,7.48256002 C16.9438311,7.48256002 15.1082494,9.03554418 14.7552529,10.1649872 L14.7552529,7.6237404 L9.03670993,7.6237404 C9.10730923,8.96495399 9.03670993,23.7183035 9.03670993,23.7183035 L14.7552529,23.7183035 L14.7552529,15.0357102 C14.7552529,14.5415789 14.7552529,14.0474476 14.8964515,13.6944966 C15.3200473,12.706234 16.0966396,11.7179714 17.6498241,11.7179714 C19.6266044,11.7179714 20.5443952,13.2003653 20.5443952,15.3886612 L20.5443952,23.7183035 L26.3335375,23.7183035 L26.3335375,14.7533495 C26.2629382,9.81203626 23.4389664,7.48256002 19.8384023,7.48256002 Z" id="Path"></path>
                                        <path d="M3.31816693,0.0705901889 C1.41198593,0.0705901889 0.211797889,1.2706234 0.211797889,2.89419774 C0.211797889,4.4471819 1.41198593,5.64721511 3.24756763,5.64721511 L3.31816693,5.64721511 C5.22434793,5.64721511 6.42453597,4.4471819 6.42453597,2.82360756 C6.35393667,1.2706234 5.22434793,0.0705901889 3.31816693,0.0705901889 Z" id="Path"></path>
                                    </g>
                                </g>
                            </g>
                            <path d="M81.6304364,0 L81.6304364,89.708365" id="Line-4" stroke="#FFFFFF" stroke-width="0.5" opacity="0.118326823" stroke-linecap="square"></path>
                            <path d="M170.614966,44.8541825 L0,44.8541825" id="Line-4" stroke="#FFFFFF" stroke-width="0.5" opacity="0.118326823" stroke-linecap="square"></path>
                        </g>
                        <g id="Group-34" transform="translate(163.260873, 127.944717)">
                            <g id="Group-35" transform="translate(23.165394, 1.102972)" fill="#FFFFFF">
                                <g id="Group-27">
                                    <g id="Instagram/Color">
                                        <g id="Instagram-/-Color-Copy-14">
                                            <path d="M13.3392445,0.000191395242 C16.2188048,0.00208383925 16.6793305,0.0186163094 17.9473133,0.0764632126 C19.2999182,0.138148245 20.2236989,0.352961452 21.0320133,0.667086049 C21.8676683,0.991752077 22.5763558,1.42622049 23.2828742,2.13259733 C23.9893422,2.83902461 24.4238666,3.5476207 24.748625,4.38316792 C25.0627397,5.19137802 25.2775806,6.11503951 25.3392736,7.46746997 C25.395133,8.69157123 25.4124731,9.16303912 25.4153061,11.78563 L25.4153061,13.6268751 C25.4124731,16.2494289 25.395133,16.7208968 25.3392736,17.944998 C25.2775806,19.2974285 25.0627397,20.22109 24.748625,21.0293001 C24.4238666,21.8648473 23.9893422,22.5734434 23.2828742,23.2798707 C22.5763558,23.9862475 21.8676683,24.4207159 21.0320133,24.7454324 C20.2236989,25.0595065 19.2999182,25.2743198 17.9473133,25.3360048 C16.635607,25.3958464 16.1880046,25.4114752 13.0325976,25.4124212 L12.3831948,25.4124212 C9.22774211,25.4114752 8.78013969,25.3958464 7.46843341,25.3360048 C6.11582846,25.2743198 5.19204781,25.0595065 4.38373343,24.7454324 C3.54807841,24.4207159 2.8393909,23.9862475 2.13287248,23.2798707 C1.4264045,22.5734434 0.991880032,21.8648473 0.667172115,21.0293001 C0.353006991,20.22109 0.138166069,19.2974285 0.0764730778,17.944998 C0.0186187113,16.6771789 0.0020841081,16.2167126 0.000191419937,13.3375238 L0.000191419937,12.0749855 C0.0020841081,9.19575541 0.0186187113,8.73528913 0.0764730778,7.46746997 C0.138166069,6.11503951 0.353006991,5.19137802 0.667172115,4.38316792 C0.991880032,3.5476207 1.4264045,2.83902461 2.13287248,2.13259733 C2.8393909,1.42622049 3.54807841,0.991752077 4.38373343,0.667086049 C5.19204781,0.352961452 6.11582846,0.138148245 7.46843341,0.0764632126 C8.69113105,0.0206822703 9.16301722,0.00331742696 11.7771244,0.000451392733 L12.0765434,0.000191395242 L13.3392445,0.000191395242 Z M13.8804002,2.29013052 L11.5353798,2.29013052 C9.19538977,2.29355455 8.73989352,2.31025764 7.57280201,2.36350009 C6.33379691,2.41999007 5.66092463,2.62698546 5.21313339,2.80099475 C4.6199626,3.03149402 4.1966367,3.30683219 3.75197299,3.75148898 C3.30725884,4.19609532 3.03188514,4.61936661 2.80135613,5.21246089 C2.62732439,5.66019435 2.42030229,6.33297984 2.36380503,7.57182511 C2.30858351,8.78198609 2.29266316,9.22696366 2.29009897,11.8017431 L2.29009897,13.6107621 C2.29266316,16.1855043 2.30858351,16.6304819 2.36380503,17.8406429 C2.42030229,19.0794882 2.62732439,19.7522736 2.80135613,20.2000071 C3.03188514,20.7931014 3.30730928,21.2163727 3.75197299,21.660979 C4.1966367,22.1056358 4.6199626,22.380974 5.21313339,22.6114732 C5.66092463,22.7854825 6.33379691,22.9924779 7.57280201,23.0489679 C8.73976172,23.1022104 9.19516443,23.1189135 11.5352992,23.1223375 L13.880483,23.1223375 C16.2205936,23.1189135 16.6760289,23.1022104 17.8429447,23.0489679 C19.0819498,22.9924779 19.7548221,22.7854825 20.2026133,22.6114732 C20.7957841,22.380974 21.21911,22.1056358 21.6637737,21.660979 C22.1084878,21.2163727 22.3838615,20.7931014 22.6143905,20.2000071 C22.7884223,19.7522736 22.9954444,19.0794882 23.0519417,17.8406429 C23.105191,16.6737019 23.1218962,16.2182644 23.1253207,13.8786096 L23.1253207,11.5338917 C23.1218962,9.19420355 23.105191,8.73876606 23.0519417,7.57182511 C22.9954444,6.33297984 22.7884223,5.66019435 22.6143905,5.21246089 C22.3838615,4.61936661 22.1084878,4.19609532 21.6637737,3.75148898 C21.21911,3.30683219 20.7957841,3.03149402 20.2026133,2.80099475 C19.7548221,2.62698546 19.0819498,2.41999007 17.8429447,2.36350009 C16.6758532,2.31025764 16.2203569,2.29355455 13.8804002,2.29013052 Z M12.7078986,6.18141522 C16.3119193,6.18141522 19.2335339,9.10265292 19.2335339,12.7062592 C19.2335339,16.3098151 16.3119193,19.2310528 12.7078986,19.2310528 C9.10382733,19.2310528 6.18221274,16.3098151 6.18221274,12.7062592 C6.18221274,9.10265292 9.10382733,6.18141522 12.7078986,6.18141522 Z M12.7078986,8.47082267 C10.3684075,8.47082267 8.47191556,10.36707 8.47191556,12.7062592 C8.47191556,15.045398 10.3684075,16.9416453 12.7078986,16.9416453 C15.0473391,16.9416453 16.9438311,15.045398 16.9438311,12.7062592 C16.9438311,10.36707 15.0473391,8.47082267 12.7078986,8.47082267 Z M19.4913531,4.39885397 C20.3335659,4.39885397 21.0163252,5.0815252 21.0163252,5.92362929 C21.0163252,6.76573338 20.3335659,7.44835417 19.4913531,7.44835417 C18.6491908,7.44835417 17.9664315,6.76573338 17.9664315,5.92362929 C17.9664315,5.0815252 18.6491908,4.39885397 19.4913531,4.39885397 Z"></path>
                                        </g>
                                    </g>
                                </g>
                                <g id="Group-25" transform="translate(0.000000, 62.501730)" fill-rule="nonzero">
                                    <path d="M25.9805411,24.4242054 C25.9805411,25.2006974 25.3451474,25.8360091 24.5685551,25.8360091 L17.9322213,25.8360091 L17.9322213,15.8122023 L21.3209875,15.8122023 L21.8151826,11.9297419 L17.9322213,11.9297419 L17.9322213,9.45908531 C17.9322213,8.32964229 18.2146185,7.55315021 19.8384023,7.55315021 L21.8857819,7.55315021 L21.8857819,4.02364077 C21.5327854,3.95305058 20.3325973,3.88246039 18.8500121,3.88246039 C15.8848417,3.88246039 13.8374621,5.7178053 13.8374621,9.03554418 L13.8374621,11.9297419 L10.4486959,11.9297419 L10.4486959,15.8122023 L13.8374621,15.8122023 L13.8374621,25.8360091 L1.41198593,25.8360091 C0.635393667,25.8360091 5.68434189e-14,25.2006974 5.68434189e-14,24.4242054 L5.68434189e-14,1.41180378 C5.68434189e-14,0.6353117 0.635393667,0 1.41198593,0 L24.4979558,0 C25.2745481,0 25.9099418,0.6353117 25.9099418,1.41180378 L25.9099418,24.4242054 L25.9805411,24.4242054 Z" id="Facebook"></path>
                                </g>
                            </g>
                            <g id="Group-36" transform="translate(113.620743, 1.838286)" fill="#FFFFFF" fill-rule="nonzero">
                                <g id="Group-26">
                                    <path d="M25.7334435,0.95296755 C24.6744541,1.58827925 23.5448653,2.08241057 22.274078,2.29418114 C21.2856878,1.23532831 19.8737019,0.529426417 18.3205174,0.529426417 C15.355347,0.529426417 12.8843716,3.00008303 12.8843716,6.10605134 C12.8843716,6.52959247 12.9549709,6.95313361 13.0255702,7.37667474 C8.50721521,7.16490417 4.55365461,4.90601813 1.87088135,1.58827925 C1.37668628,2.43536152 1.16488839,3.35303397 1.16488839,4.41188681 C1.16488839,6.31782191 2.15327854,8.01198644 3.56526447,9.07083927 C2.64747361,9.07083927 1.87088135,8.78847852 1.09428909,8.36493738 L1.09428909,8.43552757 C1.09428909,11.1179547 2.9298708,13.3768408 5.47144547,13.8709721 C5.04784969,14.0121525 4.55365461,14.0827427 4.05945954,14.0827427 C3.70646306,14.0827427 3.35346658,14.0827427 3.07106939,14.0121525 C3.77706235,16.2004483 5.75384265,17.8240227 8.15421873,17.8946129 C6.31863702,19.3770068 3.98886024,20.2946793 1.44728557,20.2946793 C1.0236898,20.2946793 0.600094019,20.2946793 0.176498241,20.2240891 C2.57687432,21.7770733 5.40084617,22.6947457 8.50721521,22.6947457 C18.461716,22.6947457 23.9684611,14.2239231 23.9684611,6.88254342 C23.9684611,6.67077285 23.9684611,6.38841209 23.9684611,6.17664153 C25.0274506,5.40014945 25.9452414,4.41188681 26.6512344,3.28244378 C25.6628442,3.70598492 24.6038548,4.05893586 23.5448653,4.12952605 C24.4626562,3.35303397 25.3098477,2.29418114 25.7334435,0.95296755 Z" id="Twitter"></path>
                                </g>
                                <g id="Group-24" transform="translate(0.000000, 61.766415)">
                                    <g id="LinkedIn" transform="translate(0.176498, 0.705902)">
                                        <path d="M3.31816693,0.0705901889 C1.41198593,0.0705901889 0.211797889,1.2706234 0.211797889,2.89419774 C0.211797889,4.4471819 1.41198593,5.64721511 3.24756763,5.64721511 L3.31816693,5.64721511 C5.22434793,5.64721511 6.42453597,4.4471819 6.42453597,2.82360756 C6.35393667,1.2706234 5.22434793,0.0705901889 3.31816693,0.0705901889 Z" id="Path"></path>
                                    </g>
                                </g>
                            </g>
                            <path d="M81.6304364,0 L81.6304364,89.708365" id="Line-4" stroke="#FFFFFF" stroke-width="0.5" opacity="0.118326823" stroke-linecap="square"></path>
                            <path d="M170.614966,44.8541825 L0,44.8541825" id="Line-4" stroke="#FFFFFF" stroke-width="0.5" opacity="0.118326823" stroke-linecap="square"></path>
                        </g>
                    </g>
                    <g id="Group-34-Copy-9" transform="translate(338.000000, 4.000000)">
                        <g id="Group-35" transform="translate(23.217672, 1.102319)" fill="#FFFFFF" fill-rule="nonzero">
                            <g id="Group-25" transform="translate(0.000000, 62.464718)">
                                <path d="M26.0391724,24.4097419 C26.0391724,25.1857742 25.4023448,25.8207097 24.624,25.8207097 L17.9726897,25.8207097 L17.9726897,15.8028387 L21.3691034,15.8028387 L21.8644138,11.9226774 L17.9726897,11.9226774 L17.9726897,9.45348387 C17.9726897,8.32470968 18.2557241,7.54867742 19.8831724,7.54867742 L21.9351724,7.54867742 L21.9351724,4.02125806 C21.5813793,3.95070968 20.3784828,3.88016129 18.8925517,3.88016129 C15.9206897,3.88016129 13.8686897,5.71441935 13.8686897,9.03019355 L13.8686897,11.9226774 L10.4722759,11.9226774 L10.4722759,15.8028387 L13.8686897,15.8028387 L13.8686897,25.8207097 L1.41517241,25.8207097 C0.636827586,25.8207097 5.68434189e-14,25.1857742 5.68434189e-14,24.4097419 L5.68434189e-14,1.41096774 C5.68434189e-14,0.634935484 0.636827586,0 1.41517241,0 L24.5532414,0 C25.3315862,0 25.9684138,0.634935484 25.9684138,1.41096774 L25.9684138,24.4097419 L26.0391724,24.4097419 Z" id="Facebook"></path>
                            </g>
                        </g>
                        <g id="Group-36" transform="translate(113.877155, 1.837198)" fill="#FFFFFF" fill-rule="nonzero">
                            <g id="Group-24" transform="translate(0.000000, 61.729839)">
                                <g id="LinkedIn" transform="translate(0.176897, 0.705484)">
                                    <rect id="Rectangle" x="0.919862069" y="7.61922581" width="5.09462069" height="16.0850323"></rect>
                                    <path d="M19.8831724,7.47812903 C16.982069,7.47812903 15.1423448,9.03019355 14.7885517,10.1589677 L14.7885517,7.61922581 L9.05710345,7.61922581 C9.12786207,8.95964516 9.05710345,23.7042581 9.05710345,23.7042581 L14.7885517,23.7042581 L14.7885517,15.0268065 C14.7885517,14.5329677 14.7885517,14.039129 14.930069,13.6863871 C15.3546207,12.6987097 16.1329655,11.7110323 17.6896552,11.7110323 C19.6708966,11.7110323 20.5907586,13.1925484 20.5907586,15.3795484 L20.5907586,23.7042581 L26.3929655,23.7042581 L26.3929655,14.7446129 C26.3222069,9.80622581 23.4918621,7.47812903 19.8831724,7.47812903 Z" id="Path"></path>
                                    <path d="M3.32565517,0.0705483871 C1.41517241,0.0705483871 0.212275862,1.26987097 0.212275862,2.89248387 C0.212275862,4.44454839 1.41517241,5.64387097 3.25489655,5.64387097 L3.32565517,5.64387097 C5.23613793,5.64387097 6.43903448,4.44454839 6.43903448,2.82193548 C6.36827586,1.26987097 5.23613793,0.0705483871 3.32565517,0.0705483871 Z" id="Path"></path>
                                </g>
                            </g>
                        </g>
                        <path d="M81.8146552,0 L81.8146552,89.6552419" id="Line-4" stroke="#FFFFFF" stroke-width="0.5" opacity="0.118326823" stroke-linecap="square"></path>
                        <path d="M171,44.827621 L0,44.827621" id="Line-4" stroke="#FFFFFF" stroke-width="0.5" opacity="0.118326823" stroke-linecap="square"></path>
                    </g>
                </g>
            </g>
        </g>
    </g>
</svg>