<?xml version="1.0" encoding="UTF-8"?>
<svg width="430px" height="97px" viewBox="0 0 430 97" version="1.1" xmlns="http://www.w3.org/2000/svg" xmlns:xlink="http://www.w3.org/1999/xlink">
    <!-- Generator: Sketch 59.1 (86144) - https://sketch.com -->
    <title>StylishPlace</title>
    <desc>Created with Sketch.</desc>
    <defs>
        <linearGradient x1="0%" y1="50%" x2="99.2634596%" y2="50.4526336%" id="linearGradient-1">
            <stop stop-color="#F82E94" offset="0%"></stop>
            <stop stop-color="#FF9E33" offset="100%"></stop>
        </linearGradient>
    </defs>
    <g id="Assets" stroke="none" stroke-width="1" fill="none" fill-rule="evenodd">
        <g id="Artboard" transform="translate(-64.000000, -258.000000)" fill="url(#linearGradient-1)" fill-rule="nonzero">
            <path d="M111.279748,270.664386 C110.605458,271.525855 109.762608,272.264246 108.751174,272.879581 C107.739739,273.494916 106.682345,274.048709 105.578962,274.540976 C103.801288,275.587046 102.038966,276.663865 100.291942,277.771468 C98.5449183,278.879071 96.8745433,280.017423 95.2807671,281.186559 C93.6869909,282.478762 92.1085632,283.801712 90.5454365,285.155449 C88.9823099,286.509186 87.5877766,287.924435 86.3617949,289.401238 C85.8714023,289.95504 85.3503679,290.4473 84.7986761,290.878034 C84.2469843,291.308769 83.6340027,291.801029 82.9597128,292.354831 L82.3160756,293.416278 C82.0708793,293.816245 81.8256866,294.262357 81.5804903,294.754624 C81.4333725,294.853078 81.2372179,294.961376 80.9920226,295.079519 L80.3276963,295.389185 C80.1821121,295.45841 80.0480214,295.523789 79.9254233,295.585322 C79.8028251,295.913501 79.6734173,296.234839 79.537198,296.549342 L79.3277602,297.015969 C79.1132134,297.47747 78.9446434,297.954347 78.8220453,298.446615 C78.5155498,298.877349 78.2550326,299.277311 78.0404859,299.646512 C77.8259391,300.015713 77.5654219,300.384908 77.2589264,300.754109 C77.5654219,301.061776 77.8719127,301.246374 78.1784081,301.307908 C78.4849035,301.369441 78.8526925,301.338675 79.2817861,301.215608 L82.161603,300.774415 C82.5588181,300.711651 82.9781002,300.64335 83.4194536,300.569509 C83.7872481,300.477209 84.1636585,300.410869 84.5486913,300.370488 L84.9365984,300.33876 C85.4576406,300.307993 85.9633504,300.231078 86.4537431,300.108011 L88.7708385,299.886491 C89.9109934,299.775732 91.0235616,299.664972 92.1085554,299.554212 C93.9168783,299.369612 95.7711478,299.246547 97.6714194,299.185013 L102.682595,299.185013 C104.30702,299.185013 105.916097,299.369611 107.509873,299.738812 C107.938967,299.861879 108.368054,300.000327 108.797148,300.154161 C109.226241,300.307994 109.59403,300.477209 109.900526,300.661809 C110.734193,301.10485 111.52862,301.538041 112.283821,301.961389 L114.199103,303.050066 C114.643518,303.303889 115.08027,303.553867 115.509364,303.800001 L115.959767,304.565802 C116.192031,304.955191 116.394364,305.284488 116.566768,305.553697 C116.842614,305.984431 117.026508,306.384393 117.118457,306.753594 C117.210405,307.122794 117.256379,307.538139 117.256379,307.99964 L117.256379,309.891785 C117.149106,310.268678 116.901039,310.62201 116.512174,310.95179 L116.336897,311.091682 C115.846505,311.460883 115.723908,311.891611 115.969105,312.383879 C115.172217,313.245348 114.497937,314.091421 113.946245,314.922123 C113.394553,315.752825 112.689624,316.568131 111.831437,317.368066 C110.666755,318.414135 109.502089,319.490955 108.337407,320.598558 C107.172724,321.706161 105.885463,322.78298 104.475584,323.82905 C102.575312,325.24432 100.659745,326.613419 98.7288234,327.936389 C96.7979022,329.259359 94.5451947,330.443861 91.9706331,331.48993 C91.2963432,331.736064 90.6067388,332.01296 89.9017994,332.320628 C89.1968599,332.628295 88.5072555,332.997491 87.8329656,333.428225 C87.6286353,333.428225 87.4243071,333.414551 87.2199782,333.387203 L86.9134839,333.335925 C86.6069885,333.274392 86.3311468,333.243625 86.0859504,333.243625 C86.0369112,333.391306 85.9486417,333.529139 85.82114,333.657128 L85.7181578,333.751274 C85.5342605,333.905108 85.350366,334.135855 85.1664688,334.443522 C84.4921788,334.443522 83.6033555,334.597354 82.4999719,334.905021 C82.1321774,335.028088 81.8256866,335.166536 81.5804903,335.32037 C81.3352939,335.474204 81.0901013,335.674185 80.8449049,335.920319 L79.2920033,336.043385 C79.0399977,336.063896 78.7913971,336.084407 78.5462008,336.104918 C77.8106118,336.166452 77.0137356,336.25875 76.1555484,336.381817 C74.0100805,336.320284 72.0638638,335.966472 70.3168398,335.32037 C68.5698159,334.674269 66.93009,333.766663 65.3976129,332.597527 C64.9072203,332.105259 64.5241067,331.582232 64.2482608,331.028431 C63.972415,330.47463 63.9264413,329.797772 64.1103386,328.997836 L64.4321572,328.674787 C64.5241058,328.582487 64.6620267,328.505571 64.8459239,328.444038 L65.2392585,328.495316 C65.4776424,328.522664 65.6683485,328.536338 65.8113797,328.536338 C66.0259265,328.536338 66.2557946,328.59787 66.5009909,328.720937 C66.9913836,329.090138 67.4817689,329.474716 67.9721616,329.874684 C68.4625543,330.274652 68.9835887,330.65923 69.5352804,331.028431 C70.3934676,331.028431 71.1903438,330.951515 71.9259328,330.797682 C72.6615218,330.643848 73.3970998,330.413101 74.1326888,330.105434 C76.6459512,329.243965 78.990606,328.305593 81.1667235,327.290291 C83.342841,326.274988 85.5036013,325.182785 87.6490693,324.013649 C90.346229,322.475312 92.8747783,320.844699 95.234793,319.121762 C97.5948078,317.398824 99.8475153,315.645146 101.992983,313.860675 C103.464161,312.506939 104.782072,311.122456 105.946754,309.707186 C107.111437,308.291916 107.969611,306.784368 108.521303,305.184498 L108.866109,304.653774 C108.973381,304.484558 109.072992,304.323034 109.16494,304.1692 C109.16494,304.107667 109.134291,304.030751 109.072992,303.938451 C109.011693,303.846151 108.981044,303.707702 108.981044,303.523102 C108.184156,303.461568 107.601823,303.36927 107.234029,303.246203 L106.111884,303.291411 C105.204913,303.322805 104.368315,303.338502 103.602076,303.338502 C102.529342,303.338502 101.471949,303.400035 100.429864,303.523102 C99.3264809,303.707702 98.253763,303.876917 97.2116786,304.030751 C96.1695942,304.184584 95.2194726,304.199967 94.3612854,304.0769 C92.0319202,304.938369 89.6719409,305.538312 87.2812766,305.876746 C84.8906123,306.21518 82.530633,306.630525 80.2012678,307.122793 C79.8334733,307.08177 79.4656824,307.033911 79.0978904,306.979215 L78.5462008,306.892043 C77.994509,306.799743 77.4121764,306.753594 76.7991856,306.753594 C75.0215122,306.568993 73.3817862,306.122882 71.8799587,305.415247 C70.3781311,304.707612 69.0142469,303.892306 67.7882653,302.969303 C67.2978726,302.600102 66.8534609,302.138608 66.4550168,301.584807 C66.0565728,301.031006 65.8573538,300.507979 65.8573538,300.015711 C65.7347556,298.723508 65.7960538,297.50824 66.0412501,296.36987 C66.2864464,295.231501 66.7768318,294.108532 67.5124208,293.000929 C67.9415144,292.324061 68.2480052,291.739501 68.4319024,291.247233 C69.1061924,289.95503 69.887744,288.739762 70.7765807,287.601393 C71.6654174,286.463023 72.7534598,285.463119 74.0407406,284.601651 C74.4698342,284.109383 74.8376232,283.647888 75.1441186,283.217154 C75.450614,282.78642 75.818403,282.386458 76.2474966,282.017257 L78.5002267,279.755913 C79.2051662,279.048278 79.9867178,278.356037 80.8449049,277.679168 C84.5841491,274.540961 88.6145034,271.679697 92.9360889,269.09529 C97.2576743,266.510884 101.992958,264.203413 107.142081,262.172808 C107.755071,261.865141 108.383378,261.572861 109.027018,261.29596 C109.670658,261.01906 110.360263,260.819079 111.095852,260.696012 C112.321833,260.203744 113.624419,259.773016 115.003649,259.403815 C116.382878,259.034614 118.022604,258.911549 119.922876,259.034616 C120.413268,259.09615 120.980276,259.265364 121.623917,259.542265 C122.267557,259.819166 122.895863,260.203744 123.508854,260.696012 C124.980032,261.619014 126.451188,262.572769 127.922366,263.557305 C128.167563,263.680372 128.397431,263.81882 128.611978,263.972654 L129.020636,264.259808 C129.08534,264.304249 129.148342,264.34698 129.209641,264.388003 C130.313024,265.249471 131.079251,266.141693 131.508345,267.064696 C131.937438,267.987698 131.814842,269.002985 131.140552,270.110588 C131.017954,270.418255 130.926007,270.695152 130.864708,270.941286 C130.803409,271.18742 130.711461,271.402784 130.588863,271.587384 C130.09847,272.264252 129.638734,272.925727 129.209641,273.571829 C128.780547,274.21793 128.136916,274.787107 127.278729,275.279375 C127.156131,276.017776 126.803667,276.648485 126.221325,277.17152 C125.638984,277.694554 124.980029,278.202198 124.24444,278.694466 C123.950204,278.9406 123.70501,279.206421 123.508855,279.491935 L123.370932,279.709763 C123.156385,280.078964 122.895868,280.417393 122.589373,280.72506 L119.588186,283.442364 C119.345443,283.661422 119.104538,283.878635 118.865472,284.094002 C117.67014,285.170838 116.428852,286.263041 115.141571,287.370643 C114.068837,288.285954 112.902254,289.130586 111.641796,289.904559 L111.095852,290.231936 C109.624674,291.093405 108.276114,292.108692 107.050132,293.277828 C107.050132,293.330571 106.948803,293.372012 106.746141,293.40215 L106.636366,293.416278 C106.36052,293.447045 106.161301,293.52396 106.038703,293.647027 C104.19973,293.462427 102.452732,293.262446 100.797657,293.047079 C99.1425818,292.831712 97.7940222,292.077938 96.7519378,290.785735 C98.4683121,289.124331 100.184661,287.493718 101.901035,285.893847 C103.617409,284.293977 105.364407,282.69413 107.142081,281.09426 C107.836804,280.273813 108.53833,279.460212 109.246671,278.653445 L110.314292,277.448419 C111.029448,276.648484 111.737786,275.841719 112.439316,275.028115 L113.486504,273.802578 C113.7317,273.507218 114.016125,273.21186 114.339782,272.916501 L114.589882,272.694981 C115.018976,272.32578 115.448063,271.895052 115.877156,271.402784 C115.877156,271.279718 115.907806,271.110503 115.969105,270.895136 C116.030404,270.679769 116.061053,270.418255 116.061053,270.110588 C115.897589,270.069565 115.747748,270.028544 115.611529,269.987522 L115.417416,269.925988 C115.233518,269.864455 115.080273,269.833689 114.957675,269.833689 C114.451957,269.925989 113.972106,270.026941 113.518112,270.136547 L113.072737,270.249037 C112.490396,270.402871 111.892739,270.541319 111.279748,270.664386 Z M131.664257,328.074839 C131.173864,328.259439 130.683479,328.413271 130.193086,328.536338 C129.702694,328.659405 129.181659,328.78247 128.629967,328.905537 C127.77178,328.597869 126.898281,328.167141 126.009445,327.61334 C125.120608,327.059539 124.21646,326.444213 123.296974,325.767345 C123.113076,324.167474 122.959831,322.536861 122.837233,320.875457 C122.714635,319.214053 122.745284,317.521908 122.929181,315.79897 L123.542169,310.404565 C123.644333,309.508917 123.746498,308.614977 123.848663,307.722741 C124.155158,305.046035 124.584245,302.323219 125.135937,299.554212 C125.503732,297.154406 125.948143,294.754636 126.469185,292.354831 C126.990228,289.955025 127.495938,287.586021 127.98633,285.247749 L128.262175,283.586353 C128.180443,283.504308 128.105522,283.415428 128.037413,283.31971 L127.940356,283.171004 C127.848408,283.017171 127.741136,282.878722 127.618538,282.755655 C127.47142,282.804882 127.353727,282.824573 127.265457,282.814727 L127.204771,282.801805 C127.112822,282.771038 127.036199,282.786422 126.9749,282.847955 C126.116713,283.64789 125.258539,284.1863 124.400352,284.463201 C123.542165,284.740102 122.68399,285.093914 121.825803,285.524648 C121.151513,285.832316 120.523207,285.893848 119.940866,285.709248 C119.358524,285.524647 118.730218,285.370816 118.055928,285.247749 C117.381638,284.755481 116.738008,284.170922 116.125017,283.494053 C115.512026,282.817185 114.990991,281.986496 114.561898,281.00196 C114.561898,280.263558 114.730468,279.725148 115.067613,279.386714 C115.404758,279.04828 115.757222,278.786766 116.125017,278.602166 C116.778874,278.397054 117.425913,278.198782 118.066144,278.007346 L119.021384,277.725318 C119.97152,277.448418 120.936966,277.156138 121.917751,276.84847 C122.857671,276.643359 123.804391,276.445086 124.757926,276.25365 L126.193341,275.971623 C127.633869,275.694722 129.089701,275.402442 130.560879,275.094775 C130.806075,274.602507 131.020619,274.12563 131.204516,273.664129 C131.388413,273.202628 131.572308,272.72575 131.756205,272.233482 L132.403521,270.778837 C132.614388,270.301341 132.820351,269.831229 133.021411,269.368499 L133.922504,267.291752 C134.231449,266.586584 134.551428,265.864802 134.882443,265.126401 L135.342184,264.203403 C135.464782,263.957269 135.602703,263.741905 135.75595,263.557305 C135.909198,263.372704 136.108417,263.172723 136.353613,262.957356 C136.59881,262.741989 136.93595,262.480476 137.365043,262.172808 C138.051593,262.812756 138.767558,263.413316 139.512951,263.974499 L140.077514,264.388003 C140.837623,264.929497 141.587915,265.510366 142.328404,266.130621 L142.881933,266.603197 C143.137346,266.808308 143.36083,267.066831 143.552388,267.378771 L143.663493,267.572344 C143.878039,267.972312 144.138557,268.326124 144.445052,268.633792 C144.445052,269.249126 144.460377,269.864452 144.491026,270.479787 C144.521676,271.095122 144.567649,271.741214 144.628948,272.418082 C145.241939,272.602682 145.808947,272.571916 146.32999,272.325782 C146.851032,272.079648 147.356742,271.956583 147.847134,271.956583 C149.073116,271.956583 150.207132,271.864284 151.249216,271.679684 L151.955379,271.613228 C152.180958,271.593537 152.396729,271.576308 152.602693,271.56154 L152.904283,271.541234 C153.394676,271.510467 153.915711,271.464318 154.467402,271.402784 C155.080393,271.341251 155.662726,271.295102 156.214417,271.264335 C156.766109,271.233568 157.317793,271.218185 157.869484,271.218185 C158.421176,271.156651 158.988184,271.141268 159.570526,271.172035 C160.152867,271.202802 160.719875,271.218185 161.271567,271.218185 L162.168061,272.395007 C162.45923,272.779588 162.742736,273.156478 163.018582,273.525679 C163.570274,274.264081 163.999361,275.156303 164.305856,276.202372 C163.631566,276.69464 163.00326,276.98692 162.420919,277.07922 C161.838577,277.17152 161.24092,277.21767 160.627929,277.21767 C158.850256,277.21767 157.103258,277.356118 155.386884,277.633018 C153.67051,277.909919 151.923512,278.202199 150.145838,278.509866 C149.103754,278.694467 148.092334,278.894447 147.111549,279.109815 C146.130764,279.325182 145.119344,279.494396 144.077259,279.617463 C143.770764,279.678997 143.494922,279.69438 143.249726,279.663613 C143.00453,279.632846 142.728688,279.586697 142.422192,279.525164 L142.033967,280.161006 C141.965857,280.270398 141.896045,280.3815 141.824529,280.494311 C141.609983,280.832745 141.441413,281.155791 141.318814,281.463459 L140.951022,282.755655 C140.828424,283.18639 140.705827,283.647884 140.583229,284.140152 C140.031537,286.416891 139.510503,288.678212 139.02011,290.924184 C138.529718,293.170156 137.978034,295.369945 137.365043,297.523617 C137.007465,298.856843 136.703102,300.158003 136.451947,301.427126 L136.307639,302.184755 C136.031793,303.692326 135.709978,305.246023 135.342184,306.845893 C135.035688,308.32269 134.775171,309.814861 134.560624,311.322432 C134.346077,312.830002 134.024262,314.260634 133.595168,315.614371 C133.339756,316.486095 133.15884,317.368491 133.052419,318.261578 L132.997505,318.798713 C132.905557,319.875549 132.736987,320.936985 132.49179,321.983054 C132.307893,322.906057 132.154648,323.859811 132.03205,324.844347 C131.909451,325.828883 131.786855,326.905703 131.664257,328.074839 Z M153.427988,310.445584 L153.839916,310.105921 C153.967418,310.002545 154.085111,309.909015 154.192997,309.82533 L154.738249,309.407212 C154.876171,309.299529 155.021756,309.184155 155.175003,309.061088 C156.339686,307.645818 157.473702,306.230569 158.577086,304.815299 C159.680469,303.400028 160.814485,301.923247 161.979168,300.38491 L163.163,298.746589 C163.553779,298.208175 163.940727,297.677453 164.323846,297.154418 C165.090085,296.108349 165.810338,295.062296 166.484628,294.016226 C167.097619,293.277825 167.664627,292.493284 168.185669,291.662582 C168.706711,290.83188 169.120474,289.924275 169.426969,288.939739 C169.733465,288.078271 170.22385,287.432179 170.89814,287.001444 L172.921,285.709248 C173.901785,285.893848 174.775284,286.232277 175.541522,286.724545 C176.307761,287.216813 177.150611,287.678307 178.070097,288.109042 C177.947499,288.478242 177.886201,288.801288 177.886201,289.078189 C177.886201,289.35509 177.855551,289.739668 177.794252,290.231936 C178.284645,291.401072 178.499189,292.585574 178.43789,293.785477 C178.37659,294.98538 178.284643,296.231414 178.162045,297.523617 C177.85555,299.492689 177.457112,301.477114 176.966719,303.476952 L175.985939,307.456095 C175.822476,308.115866 175.659012,308.77393 175.495548,309.430287 C174.943856,311.583959 174.330875,313.691449 173.656585,315.75282 C173.150867,317.298849 172.662396,318.853514 172.191162,320.41684 L171.725673,321.983054 C171.541776,322.659923 171.265934,323.336781 170.89814,324.013649 C170.469046,324.444384 170.254503,324.96741 170.254503,325.582745 C170.070605,327.305683 169.365677,328.690165 168.139695,329.736234 C168.093721,329.966985 168.064987,330.206386 168.053493,330.454441 L168.047747,330.705382 C168.047747,331.043816 168.017098,331.366862 167.955799,331.674529 C167.465406,332.412931 167.036319,333.089789 166.668524,333.705124 C166.30073,334.320459 165.994239,334.874252 165.749043,335.36652 C165.626444,336.043388 165.534497,336.643331 165.473198,337.166365 C165.411899,337.6894 165.319952,338.197044 165.197354,338.689311 C164.645662,339.735381 164.093978,340.750668 163.542287,341.735204 C162.990595,342.719739 162.46956,343.735027 161.979168,344.781096 C161.85657,345.088763 161.718649,345.36566 161.565401,345.611794 C161.412153,345.857928 161.274232,346.104058 161.151634,346.350192 C160.722541,347.334727 160.216831,348.22695 159.634489,349.026885 C159.052148,349.82682 158.423842,350.65751 157.749552,351.518978 C157.381758,352.195847 156.876048,352.780406 156.232407,353.272674 L155.699482,353.672012 C155.271017,353.985957 154.881647,354.252808 154.531366,354.472571 C152.753693,355.087906 151.113967,355.164821 149.612139,354.70332 C148.110312,354.241819 146.65448,353.672643 145.244601,352.995775 C145.060704,352.626574 145.060704,352.272762 145.244601,351.934327 C145.428499,351.595893 145.612393,351.272847 145.79629,350.96518 C146.409281,350.288312 146.914991,349.565304 147.313435,348.796135 L147.922592,347.607776 C148.129475,347.20012 148.340189,346.780926 148.554735,346.350192 C149.59682,344.073453 150.562266,341.812131 151.451103,339.566159 L152.772858,336.23183 C153.20961,335.131927 153.642532,334.043562 154.071625,332.966726 C154.562018,331.920657 155.00643,330.90537 155.404874,329.920834 C155.803318,328.936298 156.155782,327.951777 156.462278,326.967242 C157.024186,325.480182 157.596729,324.057238 158.17992,322.69838 L158.531111,321.890755 C159.236051,320.290884 159.925655,318.629505 160.599945,316.906567 C160.722543,316.660434 160.799166,316.414303 160.829816,316.168169 C160.860465,315.922035 160.814492,315.645139 160.691893,315.337471 C160.310477,315.282775 160.062256,315.373934 159.947227,315.610952 L159.910334,315.706671 C159.818385,316.014338 159.649815,316.260468 159.404619,316.445069 C159.220722,316.583519 159.036827,316.747927 158.85293,316.938295 L158.669034,317.137317 C158.423837,317.414218 158.147996,317.644965 157.8415,317.829565 C157.718902,318.014166 157.550332,318.18338 157.335785,318.337214 C157.121238,318.491047 156.89137,318.660262 156.646174,318.844862 L156.300449,319.11807 C156.192563,319.201755 156.092033,319.278056 155.998859,319.346973 L155.864615,319.444811 C155.650068,319.598645 155.297603,319.829392 154.807211,320.137059 C154.316818,320.260126 153.795784,320.352425 153.244092,320.413958 L152.18485,320.524718 C151.934751,320.549331 151.674845,320.573945 151.405129,320.598558 C149.278817,320.54087 147.125597,319.94237 144.945412,318.80304 L144.509016,318.567963 C143.773427,318.198762 143.160445,317.644969 142.670053,316.906567 C142.17966,316.168166 141.781222,315.337476 141.474727,314.414474 C140.984334,312.814603 140.831088,311.214757 141.014986,309.614886 C141.198883,308.015016 141.444076,306.445935 141.750571,304.907598 C142.670057,300.538721 143.92667,296.292974 145.520446,292.170231 L145.888239,291.062634 C146.010837,290.693433 146.164082,290.355004 146.347979,290.047337 C146.593176,289.555069 146.884342,289.124341 147.221487,288.75514 C147.558632,288.385939 148.064342,288.078276 148.738632,287.832142 C149.719417,288.385944 150.700188,288.970503 151.680973,289.585838 L154.623314,291.431833 C155.113707,291.677967 155.466171,292.001013 155.680718,292.40098 C155.895265,292.800948 156.063835,293.247059 156.186433,293.739327 C155.634741,296.385267 155.067733,299.04655 154.485392,301.723256 C153.903051,304.399963 153.550586,307.307376 153.427988,310.445584 Z M193.581353,319.583261 C193.949147,319.583261 194.224989,319.460195 194.408886,319.214062 C194.592784,318.967928 194.776678,318.752564 194.960575,318.567963 C195.757463,317.644961 196.493041,316.737356 197.167331,315.84512 C197.841621,314.952885 198.577199,314.106812 199.374087,313.306877 C200.048377,312.383874 200.79928,311.507035 201.626817,310.676333 C202.454355,309.845631 203.297205,309.061091 204.155392,308.32269 C204.461887,307.891955 204.845001,307.568909 205.304744,307.353542 C205.764487,307.138175 206.239548,306.876661 206.729941,306.568994 C207.649427,306.384394 208.385005,306.66129 208.936697,307.399692 C208.890722,307.491992 208.861989,307.592944 208.850495,307.70255 L208.844749,307.815041 C208.844749,307.968875 208.814099,308.107323 208.7528,308.23039 C208.262408,308.784191 207.756698,309.307218 207.235656,309.799486 C206.714613,310.291754 206.208904,310.784014 205.718511,311.276282 C203.75694,313.429954 201.856697,315.629743 200.017725,317.875715 C198.178752,320.121687 196.370456,322.444541 194.592783,324.844347 C194.10239,325.336615 193.657978,325.921174 193.259534,326.598043 L192.759336,327.439817 C192.498204,327.875471 192.220521,328.333276 191.926286,328.813237 C191.711739,328.92092 191.497195,328.910825 191.282649,328.782951 L191.1907,328.720937 C190.945504,328.536337 190.608364,328.444038 190.179271,328.444038 C189.893208,328.526082 189.607149,328.6218 189.321088,328.731192 L188.891996,328.905537 C188.462903,329.090137 188.003167,329.243968 187.512774,329.367035 C187.282902,329.274735 187.053033,329.208395 186.823163,329.168014 L186.593292,329.136286 C186.363421,329.113211 186.133552,329.064177 185.903681,328.989183 L185.67381,328.905537 C184.202632,328.413269 183.037967,327.644112 182.17978,326.598043 C181.321593,325.551973 180.73926,324.321322 180.432765,322.906052 C180.12627,321.613849 179.942375,320.306282 179.881076,318.983312 C179.829993,317.880837 179.842764,316.810424 179.919388,315.772051 L179.973024,315.152872 C180.071103,313.971429 180.208411,312.799846 180.384952,311.638099 L180.524713,310.768633 C180.769909,309.322596 180.953804,307.861198 181.076402,306.384395 C181.382898,303.492321 181.811985,300.615674 182.363676,297.754367 C182.915368,294.89306 183.52835,292.047179 184.20264,289.216639 C186.041612,281.46342 189.014573,274.171812 193.121612,267.341595 C193.351484,266.972394 193.581353,266.629156 193.811223,266.311876 L194.041094,266.003248 C194.347589,265.603281 194.65408,265.187936 194.960575,264.757202 C195.144473,264.572601 195.343692,264.403387 195.558238,264.249553 L196.24785,263.741904 L196.24785,263.741904 L199.169757,264.603368 C199.653335,264.746945 200.135211,264.890523 200.615388,265.034101 C202.055916,265.464835 203.481098,265.987862 204.890977,266.603197 C205.074875,267.095465 205.258769,267.541576 205.442666,267.941543 L205.678054,268.443654 C205.803103,268.705785 205.939186,268.984529 206.086304,269.27989 L205.350718,272.19887 C205.105524,273.160324 204.860329,274.110239 204.615133,275.048625 C204.12474,276.925396 203.665004,278.848289 203.23591,280.81736 C202.929415,282.406975 202.548429,283.985888 202.092944,285.55413 L201.810714,286.493796 C201.228372,288.370567 200.753312,290.262693 200.385517,292.170231 C200.262919,292.662499 200.0637,293.139376 199.787854,293.600877 C199.512008,294.062379 199.251491,294.600788 199.006295,295.216123 L199.190191,295.769922 C197.964209,300.200333 196.860842,304.630677 195.880057,309.061088 C195.558237,310.16869 195.25366,311.267628 194.966323,312.357918 L193.949146,316.316873 C193.826549,316.792045 193.703951,317.265509 193.581353,317.737265 C193.520054,318.044933 193.504729,318.352596 193.535379,318.660263 C193.566028,318.96793 193.581353,319.275593 193.581353,319.583261 Z M212.218846,291.708732 L213.735991,291.201084 C214.195734,291.04725 214.670795,290.908802 215.161188,290.785735 C215.391059,290.878035 215.612308,290.953028 215.824938,291.010715 L216.034695,291.062634 C216.24158,291.108784 216.439842,291.17224 216.629485,291.253002 L216.816255,291.339533 C217.355687,291.585667 217.855881,291.831798 218.316848,292.077931 L218.655218,292.262531 C219.20691,292.570198 219.819892,292.877861 220.494181,293.185528 C220.61678,293.370129 220.739376,293.57011 220.861974,293.785477 C220.984572,294.000844 221.107169,294.170059 221.229767,294.293126 C221.229767,295.411916 221.001798,296.390845 220.545855,297.229935 L220.402233,297.477467 C219.911841,298.270566 219.566754,299.124426 219.366965,300.039069 L219.298855,300.38491 C219.114958,301.430979 218.854441,302.4155 218.517296,303.338502 C218.180151,304.261505 217.858336,305.246026 217.55184,306.292095 L217.103593,307.745816 C217.030801,307.984257 216.958966,308.220774 216.88809,308.455369 L216.678333,309.153387 C216.402487,310.07639 216.11132,311.030144 215.804825,312.01468 C215.49833,312.876149 215.130541,313.799137 214.701447,314.783673 C214.272353,315.768209 214.088459,316.906561 214.149758,318.198764 C214.946646,317.398829 215.835469,316.337392 216.816255,315.014422 C217.551844,314.022195 218.304665,313.012673 219.07473,311.985838 L219.850544,310.953233 C220.684212,309.84563 221.498254,308.767576 222.292686,307.719051 L222.884834,306.938193 C223.865619,305.64599 224.754443,304.599936 225.551331,303.800001 C226.164321,304.046135 226.685356,304.230733 227.114449,304.3538 C227.31878,304.681978 227.516297,305.010154 227.707004,305.33833 L227.987957,305.830596 C228.263803,306.322864 228.554969,306.784358 228.861465,307.215092 L228.576237,307.606896 C228.319784,307.952235 228.016419,308.344663 227.666138,308.784188 C227.175746,309.276456 226.578089,309.984081 225.873149,310.907083 L225.005158,312.036833 C224.708473,312.420799 224.404432,312.812148 224.093034,313.210883 L223.620419,313.814525 C222.823531,314.829828 222.057304,315.798966 221.321715,316.721968 L220.898752,317.246232 C220.359322,317.905868 219.917975,318.407975 219.5747,318.752563 C219.482751,318.844863 219.399424,318.911203 219.324716,318.951584 L219.252881,318.983312 C219.160933,319.014079 219.08431,319.090995 219.023011,319.214062 C218.532618,320.383198 217.843014,321.413868 216.954177,322.306104 C216.06534,323.198339 215.283789,324.167477 214.609499,325.213546 C214.180405,325.705814 213.735994,326.182691 213.27625,326.644192 L211.851054,328.074839 C210.257278,328.259439 208.786122,328.182523 207.437542,327.844089 C206.088962,327.505655 204.893648,326.813414 203.851563,325.767345 C203.483769,324.905876 203.269225,324.04442 203.207926,323.182951 C203.146627,322.321483 203.146627,321.42926 203.207926,320.506258 C203.514422,317.737251 203.974158,315.014436 204.587149,312.337729 C205.200139,309.661023 205.905068,306.968973 206.701956,304.2615 C207.621443,300.938692 209.031301,297.492869 210.931572,293.923927 C211.238068,293.185525 211.667155,292.447134 212.218846,291.708732 Z M219.298855,287.739842 C218.31807,287.432175 217.505869,287.001447 216.862229,286.447646 C216.218588,285.893844 215.559633,285.247753 214.885343,284.509351 C214.885343,284.201683 214.854694,283.894021 214.793395,283.586353 L214.609499,282.663356 C215.099891,281.494219 215.866119,280.540465 216.908203,279.802063 C217.827689,280.36612 218.757806,280.855391 219.698573,281.269885 L220.264311,281.509608 C221.398344,281.97111 222.394439,282.724883 223.252626,283.770953 C223.191327,284.201687 223.145354,284.632415 223.114704,285.063149 L223.085281,285.550493 C223.074247,285.779396 223.06873,285.986146 223.06873,286.170746 C222.578337,286.847615 222.011329,287.247576 221.367689,287.370643 C220.724049,287.49371 220.034444,287.616775 219.298855,287.739842 Z M225.891139,329.090136 C225.983088,328.813235 226.049175,328.544991 226.089402,328.285398 L226.121009,328.028689 C226.151659,327.690255 226.228282,327.367209 226.35088,327.059541 C227.454263,326.50574 228.526981,325.951947 229.569066,325.398146 C230.61115,324.844344 231.591921,324.167486 232.511407,323.367551 C235.085969,321.152345 237.507246,318.721809 239.775312,316.07587 C240.081808,315.706669 240.342325,315.352856 240.556872,315.014422 C240.771418,314.675988 240.970637,314.29141 241.154535,313.860675 C241.301653,313.614541 241.438961,313.32903 241.566462,313.004134 L241.66025,312.753078 C241.813497,312.322344 242.012716,311.86085 242.257913,311.368582 L241.522327,311.368582 C239.31556,313.091519 236.710388,313.891442 233.706733,313.768376 C231.25477,313.399175 229.017387,312.383887 226.994517,310.722483 C226.013732,309.861015 225.523346,308.845727 225.523346,307.676591 C225.400748,306.507455 225.492695,305.369103 225.799191,304.2615 C226.105686,303.400031 226.473475,302.600108 226.902569,301.861706 C227.331662,301.123304 227.791399,300.354147 228.281791,299.554212 C229.507773,297.831275 230.871657,296.262194 232.373485,294.846924 C233.875312,293.431654 235.45374,292.108704 237.108815,290.878034 C237.435744,290.604552 237.932184,290.245992 238.598148,289.802344 L241.384405,287.970592 C242.095475,287.502937 242.777112,287.064824 243.429331,286.656244 L243.91298,286.355346 C244.709868,285.863078 245.322849,285.493883 245.751943,285.247749 C246.119738,285.063148 246.518176,284.97085 246.947269,284.97085 C247.192466,284.909316 247.452983,284.893933 247.728829,284.9247 C248.004675,284.955466 248.32649,284.97085 248.694284,284.97085 C249.981565,285.832318 251.345449,286.77069 252.785978,287.785992 C254.226506,288.801295 255.651689,289.831965 257.061568,290.878034 C257.184166,291.124168 257.291438,291.385682 257.383386,291.662582 L257.705205,292.63173 C256.724419,292.877864 255.621052,293.354741 254.395071,294.062376 C253.169089,294.770011 251.943126,295.569935 250.717144,296.46217 C249.491162,297.354406 248.341822,298.262011 247.269088,299.185013 L246.653033,299.720353 C245.868408,300.409525 245.230906,301.000239 244.740513,301.492507 C244.434018,301.800175 244.03558,302.138604 243.545187,302.507804 C243.238692,302.815472 242.978174,303.153901 242.763628,303.523102 C242.549081,303.892303 242.441809,304.323031 242.441809,304.815299 C243.606492,305.246033 244.725183,305.707527 245.797917,306.199795 C246.870651,306.692063 247.928044,307.184323 248.970129,307.676591 C249.092727,307.984257 249.215323,308.245772 249.337922,308.461139 C249.46052,308.676506 249.613765,308.876487 249.797662,309.061088 C251.084943,310.476358 251.544679,312.076204 251.176885,313.860675 C251.054287,314.352943 250.977664,314.783671 250.947015,315.152872 L250.902879,315.625447 C250.877134,315.876502 250.845872,316.149708 250.809092,316.445069 C250.72736,316.568136 250.638818,316.684364 250.543464,316.793756 L250.395326,316.952717 C250.242078,317.106551 250.134806,317.244999 250.073507,317.368066 C250.012208,318.229535 249.78234,318.937159 249.383896,319.490961 C248.985452,320.044762 248.602338,320.598555 248.234544,321.152357 L247.675498,321.861219 C247.410688,322.200882 247.167946,322.518392 246.947269,322.813752 C246.579475,323.30602 246.150388,323.798281 245.659995,324.290548 L244.209258,325.5007 C243.970874,325.698974 243.734193,325.895538 243.499213,326.090394 C242.794274,326.674962 242.043371,327.213372 241.246483,327.70564 C240.75609,328.074841 240.281029,328.382503 239.821286,328.628637 C239.361543,328.874771 238.794535,329.028603 238.120245,329.090136 C237.558337,329.192692 236.996436,329.359343 236.43453,329.590093 L236.097386,329.736234 C235.423096,330.043902 234.748816,330.290032 234.074526,330.474633 C232.971142,330.7823 231.913749,330.874599 230.902314,330.751532 C229.890879,330.628465 228.864135,330.413101 227.822051,330.105434 C227.658586,330.023389 227.488313,329.934508 227.311228,329.83879 L226.777782,329.546926 C226.536966,329.418209 226.24142,329.265946 225.891139,329.090136 Z M273.76815,263.188106 C274.013346,263.311173 274.289188,263.418855 274.595683,263.511155 C274.902179,263.603455 275.17802,263.77267 275.423217,264.018803 C276.281404,264.695672 277.185552,265.37253 278.135688,266.049398 C279.085823,266.726267 279.867375,267.587722 280.480366,268.633792 C280.357768,269.249126 280.235171,269.741387 280.112573,270.110588 C279.622181,271.156657 279.177769,272.218094 278.779325,273.29493 C278.380881,274.371766 277.967118,275.433202 277.538025,276.479271 C276.679837,278.940611 275.882961,281.417296 275.147372,283.909402 C274.411783,286.401508 273.645556,288.90896 272.848668,291.431833 L271.193601,296.969819 C270.641909,298.815823 270.090226,300.631034 269.538534,302.415505 C269.17074,303.646174 268.818275,304.861442 268.48113,306.061345 C268.143985,307.261248 267.82217,308.476516 267.515674,309.707186 C267.454375,309.95332 267.439051,310.19945 267.4697,310.445584 C267.50035,310.691718 267.515674,310.968615 267.515674,311.276282 C268.189964,310.599414 268.772297,309.953322 269.26269,309.337987 C269.753082,308.722652 270.212818,308.07656 270.641912,307.399692 C274.626353,302.169346 278.825277,297.123676 283.238811,292.262531 L283.893942,291.501058 C284.116149,291.239543 284.342188,290.970336 284.572059,290.693435 C285.031802,290.139634 285.660109,289.739672 286.456997,289.493538 C287.290664,289.887352 288.114514,290.330388 288.928562,290.822654 L289.53726,291.201084 C290.548695,291.847185 291.575439,292.385595 292.617524,292.816329 C293.107917,293.308597 293.414407,293.816241 293.537006,294.339275 C293.659604,294.86231 293.751551,295.369954 293.81285,295.862222 C293.81285,297.031358 293.705578,298.154327 293.491031,299.231163 C293.330121,300.03879 293.143353,300.837755 292.930723,301.628071 L291.85129,305.471651 C291.708259,305.977589 291.565229,306.48182 291.422198,306.984343 C290.993104,308.491913 290.533368,309.984078 290.042975,311.460881 C289.981676,311.768549 289.951027,312.045445 289.951027,312.291579 C289.951027,312.537713 290.042974,312.81461 290.226872,313.122277 C290.34947,313.060744 290.51804,312.999211 290.732586,312.937678 C290.947133,312.876144 291.115703,312.783845 291.238301,312.660778 C293.199872,310.630173 295.253361,308.568833 297.398829,306.476694 C297.766623,306.107493 298.134412,305.815214 298.502207,305.599847 C298.870001,305.384479 299.23779,305.153732 299.605585,304.907598 C299.973379,305.046049 300.315309,305.184497 300.631381,305.322947 L300.938833,305.461397 C301.337277,305.645997 301.75104,305.830595 302.180133,306.015195 C302.42533,305.933151 302.670523,305.857944 302.915718,305.789574 L303.858187,305.542159 C304.057408,305.488318 304.264291,305.430631 304.478837,305.369097 C304.570786,305.461397 304.688594,305.553697 304.832263,305.645996 L304.984552,305.738296 C305.199099,305.861363 305.459616,306.045961 305.766112,306.292095 C305.153121,306.784363 304.616762,307.276623 304.157019,307.768891 C303.697276,308.261159 303.222215,308.753419 302.731822,309.245687 L301.720392,309.245687 L301.720392,310.537884 L298.548181,313.722226 C297.475447,314.799062 296.356755,315.891265 295.192073,316.998867 C294.149988,317.860336 293.138568,318.737175 292.157783,319.62941 C291.176998,320.521646 290.257525,321.490784 289.399338,322.536853 C288.847646,323.152188 288.295963,323.829046 287.744271,324.567448 C287.192579,325.30585 286.640896,326.075007 286.089204,326.874942 C285.782709,326.936475 285.460893,326.982625 285.123748,327.013391 C284.786603,327.044158 284.464788,327.059541 284.158293,327.059541 C283.851797,327.059541 283.545306,327.044158 283.238811,327.013391 C282.932315,326.982625 282.656474,326.967242 282.411277,326.967242 C281.55309,326.659574 280.832837,326.274996 280.250495,325.813495 C279.668154,325.351993 279.070497,324.967415 278.457506,324.659748 C278.21231,323.552145 278.151012,322.521474 278.27361,321.567705 C278.396208,320.613936 278.488155,319.675565 278.549454,318.752563 C278.631186,318.17825 278.719729,317.597106 278.815082,317.009124 L278.963221,316.122019 C279.065386,315.527196 279.160739,314.939215 279.249282,314.358069 L279.376988,313.491476 C279.475066,312.753074 279.612375,312.024527 279.788915,311.305819 L279.928677,310.768633 C280.173873,309.876398 280.327119,308.938026 280.388418,307.95349 C280.2413,308.002717 280.113799,308.022408 280.005913,308.012562 L279.928677,307.99964 C279.806079,307.968874 279.714131,307.984257 279.652832,308.04579 C279.468935,308.353458 279.31569,308.66112 279.193092,308.968788 C279.070493,309.276455 278.886599,309.522586 278.641403,309.707186 C277.783215,310.568655 277.032313,311.522409 276.388672,312.568479 C275.745032,313.614548 275.086077,314.660601 274.411787,315.706671 L273.411851,317.252692 L273.411851,317.252692 L271.457952,320.252434 C271.128472,320.760081 270.795161,321.27542 270.458016,321.798455 C269.952298,322.444556 269.472447,323.081998 269.018453,323.710789 L268.573078,324.336698 C267.990737,325.1674 267.39308,325.982707 266.780089,326.782642 C266.504243,326.874942 266.23702,326.941282 265.978416,326.981663 L265.722685,327.013391 C265.38554,327.044158 265.063725,327.121074 264.757229,327.244141 C264.450734,327.551808 264.297489,327.859471 264.297489,328.167138 C264.297489,328.474806 264.23619,328.813235 264.113592,329.182436 C263.786664,329.264481 263.452928,329.353361 263.112379,329.449079 L261.93442,329.789768 C261.585018,329.889452 261.208032,329.994673 260.803458,330.105434 C260.313066,329.8593 259.822678,329.620005 259.332288,329.387547 L258.596702,329.043986 C257.861113,328.705552 257.125535,328.35174 256.389946,327.982539 C256.206049,327.859472 256.037479,327.75179 255.884231,327.65949 C255.730984,327.56719 255.593063,327.459508 255.470465,327.336441 C254.980072,326.474972 254.658256,325.567367 254.505009,324.613598 C254.351761,323.659829 254.275138,322.752223 254.275138,321.890755 C254.275138,319.737083 254.397735,317.660359 254.642931,315.660521 C254.888127,313.660682 255.163969,311.676257 255.470465,309.707186 C255.899558,306.384378 256.451242,303.138535 257.125532,299.969561 C257.799821,296.800587 258.566049,293.616277 259.424236,290.416536 C260.772816,285.678457 262.458515,281.063515 264.481385,276.571571 C265.155675,274.910167 265.891253,273.264171 266.688141,271.633534 C267.485029,270.002897 268.373852,268.387667 269.354638,266.787796 C269.906329,265.987861 270.519311,265.264853 271.193601,264.618752 C271.867891,263.97265 272.726065,263.495773 273.76815,263.188106 Z M361.52268,302.507804 C360.90969,303.246206 360.204761,303.969214 359.407873,304.676849 C358.610985,305.384484 357.691512,305.984426 356.649428,306.476694 C356.005787,306.892045 355.344914,307.324698 354.666797,307.774659 L351.224486,310.076385 C350.611495,310.445586 349.983189,310.830164 349.339548,311.230132 C348.695908,311.6301 348.036953,311.983912 347.362663,312.291579 C346.565775,312.599247 345.646302,313.122273 344.604218,313.860675 C343.929928,313.737608 343.224999,313.583777 342.48941,313.399176 C341.753821,313.214576 340.987594,313.18381 340.190706,313.306877 C340.025198,313.694538 340.058299,314.007431 340.290009,314.245565 L340.374602,314.322174 C340.681098,314.568308 340.803694,314.937503 340.742395,315.429771 C340.650446,315.475921 340.549879,315.54803 340.44069,315.646099 L340.328628,315.75282 C340.17538,315.906654 340.037459,316.014336 339.914861,316.07587 C339.424469,316.26047 338.903434,316.429685 338.351742,316.583518 C337.800051,316.737352 337.279016,316.8758 336.788624,316.998867 C336.666025,317.491135 336.543429,317.952629 336.420831,318.383364 C336.298233,318.814098 336.206286,319.275592 336.144986,319.76786 C335.838491,321.552331 335.562649,323.336775 335.317453,325.121246 C335.072257,326.905717 334.94966,328.720928 334.94966,330.566932 L334.94966,331.62838 C334.94966,332.028347 334.980309,332.412926 335.041608,332.782127 C335.164207,333.089794 335.256154,333.41284 335.317453,333.751274 C335.378752,334.089708 335.470699,334.505053 335.593297,334.997321 C335.286802,334.997321 335.041609,334.981938 334.857712,334.951171 C334.673815,334.920404 334.48992,334.935787 334.306023,334.997321 C333.080041,335.551122 331.930701,335.73572 330.857967,335.55112 C329.785233,335.366519 328.69719,335.02809 327.593807,334.535822 C326.367825,333.982021 325.463677,333.24363 324.881336,332.320628 C324.298995,331.397626 323.885232,330.320806 323.640036,329.090136 C323.394839,326.69033 323.241594,324.275177 323.180295,321.844605 C323.118996,319.414032 323.241592,316.968113 323.548088,314.506774 C323.731985,313.399171 323.88523,312.260819 324.007828,311.091682 L324.375621,307.584291 C325.049911,300.077207 326.704962,292.877897 329.340822,285.986147 C329.46342,285.493879 329.371473,285.093917 329.064978,284.78625 C328.697183,285.093917 328.375368,285.463113 328.099522,285.893847 C327.823676,286.324582 327.578483,286.739926 327.363937,287.139894 C327.14939,287.539862 326.888873,287.909057 326.582377,288.247491 C326.275882,288.585925 325.908093,288.847439 325.478999,289.032039 C325.295102,289.955041 325.080558,290.785731 324.835362,291.524133 C324.774063,291.893334 324.743414,292.247146 324.743414,292.58558 L324.743414,293.831627 L321.43328,293.831627 C320.636392,293.462426 319.824191,293.077847 318.996653,292.67788 C318.169116,292.277912 317.51016,291.67797 317.019768,290.878034 C316.713272,289.893499 316.743921,288.908978 317.111716,287.924442 C317.724707,286.632239 318.398987,285.340055 319.134576,284.047852 C319.870165,282.755649 320.69769,281.524998 321.617176,280.355861 C322.904457,278.57139 324.344964,276.910011 325.93874,275.371674 C327.532516,273.833337 329.218216,272.387322 330.995889,271.033585 C334.060843,268.387646 337.401593,266.141707 341.018239,264.295703 C341.999025,263.741901 343.071743,263.249641 344.236425,262.818907 C344.650194,262.634306 345.081198,262.458361 345.529445,262.291068 L345.98344,262.126658 C346.596431,261.911291 347.148115,261.680544 347.638507,261.43441 C352.910229,258.973071 358.273818,257.834718 363.729436,258.019319 C365.50711,258.080852 367.192809,258.373132 368.786586,258.896167 C370.380362,259.419201 371.882167,260.29604 373.292046,261.52671 C373.705815,261.895911 374.110959,262.247801 374.507485,262.582388 L374.901139,262.911206 C375.422181,263.341941 375.95854,263.803435 376.510232,264.295703 C380.372074,268.172312 381.720634,272.694955 380.555951,277.863768 C380.310755,278.540636 380.111536,279.232877 379.958288,279.940513 C379.80504,280.648148 379.483225,281.309623 378.992832,281.924957 C378.747636,282.355692 378.563741,282.878719 378.441143,283.494053 C378.257246,284.170922 378.012053,284.80163 377.705558,285.386199 C377.399062,285.970767 377.000624,286.47841 376.510232,286.909145 C376.134775,287.178354 375.900117,287.49467 375.806254,287.858101 L375.774646,288.016742 C375.713347,288.447476 375.560102,288.816671 375.314905,289.124339 C374.625291,289.908891 373.961544,290.702087 373.323654,291.503941 L372.694383,292.308681 C371.866845,293.385517 370.993346,294.446953 370.07386,295.493023 C369.215673,296.354491 368.326849,297.200564 367.407363,298.031266 C366.794372,298.585067 366.181388,299.1457 365.568401,299.713172 L364.648918,300.569509 C364.342423,300.877177 363.92866,301.154073 363.407618,301.400207 C362.886576,301.646341 362.258269,302.015537 361.52268,302.507804 Z M339.271224,307.307392 C339.409147,307.215092 339.564309,307.140099 339.736711,307.082412 L339.914861,307.030493 C340.160058,306.968959 340.374601,306.876661 340.558498,306.753594 C343.80735,304.599922 346.994855,302.38475 350.121108,300.108011 C353.247361,297.831272 356.189673,295.308437 358.948132,292.53943 C360.358011,291.12416 361.752544,289.693528 363.131773,288.247491 C364.511003,286.801454 365.78294,285.247757 366.947622,283.586353 C367.438015,282.786418 367.974374,282.032644 368.556715,281.325009 C369.139057,280.617374 369.736714,280.017431 370.349704,279.525164 C370.778798,277.86376 371.238534,276.479277 371.728927,275.371674 C372.035422,274.510206 372.311264,273.694899 372.55646,272.925731 C372.801657,272.156562 372.985551,271.341256 373.108149,270.479787 C373.230748,269.372184 373.230748,268.326131 373.108149,267.341595 C372.985551,266.357059 372.587113,265.434071 371.912823,264.572602 C371.422431,264.141868 370.962694,263.880354 370.533601,263.788054 C370.104507,263.695754 369.644771,263.649604 369.154378,263.649604 C367.438004,263.526537 365.782954,263.588071 364.189177,263.834204 C362.595401,264.080338 361.001649,264.449533 359.407873,264.941801 C359.040078,265.034101 358.689528,265.117747 358.356216,265.192741 L358.02865,265.26485 C357.599557,265.35715 357.13982,265.464832 356.649428,265.587899 C355.913839,265.916078 355.178257,266.230579 354.442673,266.531408 L353.339294,266.972396 C352.23591,267.40313 351.163192,267.864624 350.121108,268.356892 L348.466041,268.356892 L347.965842,268.925459 C347.7231,269.198666 347.491391,269.455258 347.270715,269.695239 C346.90292,270.095207 346.504482,270.479785 346.075388,270.848986 C346.495725,271.218187 346.88228,271.496968 347.235061,271.685335 L347.408637,271.771984 C347.807081,271.956584 348.067598,272.295013 348.190196,272.787281 C348.251495,273.402616 348.052276,273.833344 347.592533,274.079478 C347.13279,274.325612 346.810975,274.664041 346.627077,275.094775 C346.667944,275.258864 346.695187,275.422952 346.708809,275.58704 L346.719026,275.833173 C346.719026,276.079307 346.780324,276.356204 346.902922,276.663871 C346.596427,277.340739 346.197988,278.432942 345.707596,279.940513 L345.376128,280.975183 C344.984118,282.216861 344.573571,283.579509 344.144477,285.063149 C343.671598,286.698182 343.198726,288.423609 342.725849,290.239468 L342.48941,291.154934 C342.121615,292.590715 341.767446,293.98546 341.426898,295.339188 L340.926291,297.339018 C340.497198,299.061955 340.115041,300.667093 339.779813,302.154467 L339.477971,303.525289 C339.19868,304.834965 339.007168,305.880292 338.903431,306.661294 L339.271224,307.307392 Z M386.964338,319.583261 C387.332133,319.583261 387.607975,319.460195 387.791872,319.214062 C387.975769,318.967928 388.159664,318.752564 388.343561,318.567963 C389.140449,317.644961 389.876027,316.737356 390.550317,315.84512 C391.224607,314.952885 391.960185,314.106812 392.757073,313.306877 C393.431363,312.383874 394.182265,311.507035 395.009803,310.676333 C395.837341,309.845631 396.68019,309.061091 397.538378,308.32269 C397.844873,307.891955 398.227987,307.568909 398.68773,307.353542 C399.147473,307.138175 399.622534,306.876661 400.112926,306.568994 C401.032413,306.384394 401.767991,306.66129 402.319682,307.399692 C402.273708,307.491992 402.244974,307.592944 402.233481,307.70255 L402.227734,307.815041 C402.227734,307.968875 402.197085,308.107323 402.135786,308.23039 C401.645393,308.784191 401.139683,309.307218 400.618641,309.799486 C400.097599,310.291754 399.591889,310.784014 399.101496,311.276282 C397.139926,313.429954 395.239683,315.629743 393.40071,317.875715 C391.561738,320.121687 389.753442,322.444541 387.975768,324.844347 C387.485376,325.336615 387.040964,325.921174 386.64252,326.598043 L386.142322,327.439817 C385.881189,327.875471 385.603507,328.333276 385.309271,328.813237 C385.094725,328.92092 384.880181,328.910825 384.665635,328.782951 L384.573686,328.720937 C384.32849,328.536337 383.99135,328.444038 383.562256,328.444038 C383.276194,328.526082 382.990134,328.6218 382.704074,328.731192 L382.274982,328.905537 C381.845888,329.090137 381.386152,329.243968 380.895759,329.367035 C380.665888,329.274735 380.436019,329.208395 380.206149,329.168014 L379.976278,329.136286 C379.746406,329.113211 379.516537,329.064177 379.286667,328.989183 L379.056796,328.905537 C377.585618,328.413269 376.420953,327.644112 375.562766,326.598043 C374.704579,325.551973 374.122246,324.321322 373.815751,322.906052 C373.509255,321.613849 373.325361,320.306282 373.264062,318.983312 C373.212979,317.880837 373.22575,316.810424 373.302373,315.772051 L373.35601,315.152872 C373.454088,313.971429 373.591396,312.799846 373.767937,311.638099 L373.907699,310.768633 C374.152895,309.322596 374.33679,307.861198 374.459388,306.384395 C374.765883,303.492321 375.19497,300.615674 375.746662,297.754367 C376.298354,294.89306 376.911336,292.047179 377.585625,289.216639 C379.424598,281.46342 382.397559,274.171812 386.504598,267.341595 C386.811093,266.849327 387.117584,266.403216 387.424079,266.003248 C387.730575,265.603281 388.037066,265.187936 388.343561,264.757202 C388.527458,264.572601 388.726677,264.403387 388.941224,264.249553 L389.630835,263.741904 L389.630835,263.741904 L392.552742,264.603368 C393.036321,264.746945 393.518197,264.890523 393.998373,265.034101 C395.438902,265.464835 396.864084,265.987862 398.273963,266.603197 C398.45786,267.095465 398.641755,267.541576 398.825652,267.941543 L399.061039,268.443654 C399.186089,268.705785 399.322171,268.984529 399.469289,269.27989 L398.733704,272.19887 C398.488509,273.160324 398.243315,274.110239 397.998118,275.048625 C397.507726,276.925396 397.04799,278.848289 396.618896,280.81736 C396.312401,282.406975 395.931415,283.985888 395.47593,285.55413 L395.193699,286.493796 C394.611358,288.370567 394.136297,290.262693 393.768503,292.170231 C393.670424,292.564045 393.523308,292.94801 393.327152,293.322131 L393.17084,293.600877 C392.894994,294.062379 392.634477,294.600788 392.38928,295.216123 L392.573177,295.769922 C391.347195,300.200333 390.243828,304.630677 389.263043,309.061088 C388.941222,310.16869 388.636646,311.267628 388.349308,312.357918 L387.332132,316.316873 C387.209534,316.792045 387.086937,317.265509 386.964338,317.737265 C386.903039,318.044933 386.887715,318.352596 386.918364,318.660263 C386.949014,318.96793 386.964338,319.275593 386.964338,319.583261 Z M429.968096,290.785735 L430.100272,291.172241 C430.226701,291.529903 430.335888,291.801031 430.427837,291.985632 L431.301345,292.862479 C431.577191,293.13938 431.868357,293.462426 432.174852,293.831627 C432.052254,294.405939 431.922846,294.973409 431.786627,295.534044 L431.577189,296.36987 C431.362642,297.200572 431.163423,298.046645 430.979526,298.908114 L430.177853,302.153025 L429.922122,303.200053 C429.584977,304.584556 429.232513,305.984422 428.864718,307.399692 C428.619522,308.814962 428.328356,310.199445 427.991211,311.553181 C427.654066,312.906918 427.33225,314.2914 427.025755,315.706671 C426.903157,315.952804 426.826534,316.229701 426.795884,316.537368 C426.765235,316.845036 426.903156,317.152699 427.209651,317.460366 C428.435633,315.675895 429.646272,313.891451 430.841604,312.10698 C432.036936,310.322509 433.462118,308.66113 435.117194,307.122793 L436.567931,307.491991 C436.806314,307.553525 437.042996,307.615058 437.277975,307.676591 C437.982915,307.861192 438.672519,308.168854 439.346809,308.599589 C438.672519,309.645658 437.96759,310.614796 437.232001,311.507031 C436.496412,312.399267 435.730185,313.306872 434.933297,314.229874 C432.971727,316.383546 431.178755,318.567952 429.554329,320.783157 C427.929904,322.998363 426.443423,325.275068 425.094843,327.61334 C424.604451,327.79794 424.12939,327.982538 423.669647,328.167138 C423.209904,328.351739 422.734843,328.50557 422.24445,328.628637 C419.485991,328.751704 417.248608,327.79795 415.532234,325.767345 C415.225739,325.15201 415.02652,324.536684 414.934571,323.921349 C414.842622,323.306015 414.796649,322.659923 414.796649,321.983054 L414.796649,319.95246 C414.796649,319.275591 414.766,318.598733 414.704701,317.921865 C414.290932,318.383366 413.894408,318.853515 413.515122,319.33232 L413.141582,319.81401 C412.651189,320.460112 412.130155,321.09082 411.578463,321.706155 C411.026771,322.32149 410.398465,322.890666 409.693525,323.413701 C408.988586,323.936735 408.145736,324.382846 407.164951,324.752047 C405.387277,325.182782 403.624955,325.198165 401.877931,324.798197 C400.130907,324.39823 398.583129,323.429092 397.234549,321.890755 C396.560259,320.475485 396.238444,319.075619 396.269093,317.691115 C396.299743,316.306612 396.468313,314.937513 396.774808,313.583776 C397.081303,311.553171 397.587013,309.568746 398.291953,307.630441 C398.996892,305.692137 399.839742,303.830777 400.820527,302.046306 C401.31092,301.06177 401.801305,300.123398 402.291698,299.231163 C402.720792,298.450457 403.290674,297.681539 404.001358,296.924391 L404.314558,296.60062 C404.734894,296.178676 405.065155,295.768039 405.305346,295.368701 L405.417936,295.169973 C405.663132,294.708472 406.030921,294.262361 406.521314,293.831627 C407.931193,292.231756 409.524945,290.87804 411.302618,289.770437 C413.080292,288.662835 415.256377,287.95521 417.830938,287.647543 C418.014835,287.709076 418.336651,287.770609 418.796394,287.832142 L420.221591,288.016742 C420.984424,288.235527 421.614055,288.588011 422.110501,289.0742 L422.290424,289.262789 C422.811467,289.847357 423.501071,290.293468 424.359258,290.601135 C424.665753,290.416535 424.941595,290.262703 425.186792,290.139636 C425.431988,290.016569 425.677181,289.862738 425.922377,289.678137 C426.596667,289.862738 427.270947,290.031952 427.945237,290.185786 C428.619527,290.33962 429.293806,290.539601 429.968096,290.785735 Z M420.19558,295.022969 C419.655433,294.848435 419.204367,294.897436 418.842368,295.169973 C418.474574,295.446874 418.137434,295.585322 417.830938,295.585322 C417.217947,296.016057 416.666264,296.508317 416.175871,297.062118 C414.827291,298.108188 413.601328,299.292689 412.497945,300.615659 C411.394561,301.938629 410.475089,303.338495 409.7395,304.815299 C408.881312,306.538236 408.099761,308.32268 407.394821,310.168685 C406.689882,312.014689 406.061576,313.860666 405.509884,315.706671 C405.417935,316.168172 405.334608,316.612362 405.2599,317.039248 L405.188065,317.460366 C405.096117,318.014167 404.988845,318.598727 404.866247,319.214062 C404.866247,319.275595 404.958194,319.429426 405.142091,319.67556 C405.448587,319.367893 405.693779,319.152529 405.877677,319.029462 C407.103658,317.798792 408.22235,316.521992 409.233785,315.199022 C410.24522,313.876052 411.241315,312.506953 412.2221,311.091682 L412.314048,310.907083 C412.743142,310.353282 413.095606,309.799488 413.371452,309.245687 C413.647298,308.691886 413.938464,308.168859 414.24496,307.676591 C414.91925,306.630522 415.56288,305.661384 416.175871,304.769149 C416.788862,303.876913 417.309896,302.907775 417.73899,301.861706 C418.014836,301.077154 418.299299,300.31857 418.592383,299.585941 L418.888342,298.861964 C419.286786,297.908195 419.6699,296.908291 420.037694,295.862222 C420.083669,295.769921 420.112402,295.668969 420.123896,295.559363 L420.129642,295.446873 C420.129642,295.360026 420.139411,295.268277 420.158948,295.171625 L420.19558,295.022969 L420.19558,295.022969 Z M445.5713,322.444553 C446.429488,321.767685 447.149741,321.06006 447.732082,320.321659 C448.314424,319.583257 448.94273,318.8141 449.61702,318.014165 C450.352609,317.091162 451.164809,316.122025 452.053646,315.106722 C452.942483,314.09142 453.815982,313.045366 454.674169,311.96853 C455.532356,310.891694 456.359881,309.799491 457.156769,308.691889 C457.953657,307.584286 458.627937,306.4767 459.179629,305.369097 C459.486124,304.876829 459.792615,304.307653 460.099111,303.661552 C460.405606,303.01545 460.834693,302.446274 461.386385,301.954006 C462.183273,302.20014 462.995474,302.430887 463.823011,302.646254 C464.650549,302.861621 465.401452,303.2462 466.075742,303.800001 C465.830545,305.215271 465.355484,306.461306 464.650545,307.538142 C463.945605,308.614977 463.409247,309.768713 463.041452,310.999383 C462.747216,311.34397 462.452984,311.649173 462.15875,311.914996 L461.938074,312.10698 C461.57028,312.414647 461.23314,312.783843 460.926644,313.214577 C460.804046,314.014512 460.558853,314.69137 460.191059,315.245172 C459.823264,315.798973 459.409502,316.322 458.949759,316.814268 C458.490015,317.306536 457.99963,317.798796 457.478588,318.291064 C456.957546,318.783332 456.482485,319.367891 456.053391,320.044759 C455.961443,320.18321 455.852255,320.304352 455.725826,320.40819 L455.593651,320.506258 C455.409753,320.629325 455.256508,320.844689 455.13391,321.152357 C454.704816,321.767691 454.321703,322.352251 453.984558,322.906052 C453.731699,323.321403 453.470223,323.719443 453.200125,324.10018 L452.927154,324.475148 C452.804556,324.659748 452.681959,324.798197 452.559361,324.890497 C452.436763,324.982797 452.314167,325.090479 452.191568,325.213546 C451.652136,325.656587 451.112711,326.060242 450.573282,326.424518 L450.168709,326.690342 C449.494419,327.121077 448.820139,327.582571 448.145849,328.074839 C446.73597,328.505573 445.326112,328.705554 443.916233,328.674787 C442.506354,328.64402 441.096497,328.290208 439.686618,327.61334 C438.276739,327.059539 437.142723,326.244232 436.284536,325.167396 C435.426348,324.09056 434.844016,322.659928 434.53752,320.875457 C434.231025,319.767855 434.016481,318.706418 433.893883,317.691115 C433.771285,316.675813 433.740636,315.645143 433.801935,314.599073 C433.801935,312.691535 433.863233,310.953241 433.985831,309.384137 C434.10843,307.815033 434.276999,306.276719 434.491546,304.769149 C434.706093,303.261578 434.981935,301.754031 435.31908,300.24646 C435.656225,298.73889 436.100636,297.092894 436.652328,295.308423 C437.081422,294.262354 437.525833,293.2163 437.985577,292.170231 C438.44532,291.124162 438.920381,290.108875 439.410773,289.124339 C439.717269,288.509004 440.008435,288.00136 440.284281,287.601393 C440.560127,287.201425 440.851293,286.83223 441.157788,286.493796 C441.402985,286.223048 441.687409,285.962149 442.011067,285.711094 L442.261166,285.524648 C442.69026,285.216981 443.241943,284.817019 443.916233,284.324751 C444.958318,284.078617 446.031036,283.970935 447.134419,284.001702 C448.237803,284.032469 449.34117,284.23245 450.444553,284.601651 C451.118843,284.909318 451.823772,285.124682 452.559361,285.247749 C453.29495,285.370816 454.030528,285.524647 454.766117,285.709248 C455.440407,285.832315 456.038064,285.95538 456.559106,286.078447 C457.080149,286.201514 457.52456,286.324579 457.892355,286.447646 C458.505346,287.001447 458.934433,287.524474 459.179629,288.016742 C459.424825,288.50901 459.562746,289.00127 459.593396,289.493538 C459.617915,289.887352 459.603204,290.320543 459.549261,290.793118 L459.501448,291.154934 C459.409499,291.770269 459.363525,292.447127 459.363525,293.185528 C458.922172,293.351669 458.654605,293.654871 458.560818,294.095142 L458.535992,294.246976 C458.474693,294.77001 458.198851,295.123823 457.708458,295.308423 L455.13391,294.385425 C454.275723,294.077758 453.386899,293.770095 452.467413,293.462428 C452.145593,293.923929 451.797916,294.385425 451.424377,294.846923 L451.042216,295.308423 C450.521174,295.923758 450.015464,296.56985 449.525072,297.246718 C449.586371,298.415854 449.44845,299.554207 449.111305,300.661809 C448.77416,301.769412 448.360397,302.938531 447.870005,304.1692 C447.50221,305.153736 447.211044,306.045958 446.996497,306.845893 C446.78195,307.645829 446.61338,308.414986 446.490782,309.153387 C446.398833,309.707189 446.315506,310.27829 446.240798,310.866701 L446.168963,311.460881 C446.077015,312.260817 445.939094,313.153039 445.755197,314.137575 C445.51,315.368244 445.356755,316.614279 445.295456,317.875715 C445.234157,319.137151 445.14221,320.413952 445.019611,321.706155 C445.019611,321.804609 445.058842,321.883371 445.137305,321.942442 L445.203508,321.983054 C445.326106,322.044588 445.448702,322.198419 445.5713,322.444553 Z M471.196855,319.121762 C471.074256,319.983231 470.997634,320.844686 470.966984,321.706155 C470.936335,322.567624 470.92101,323.459846 470.92101,324.382848 L471.319454,324.293112 C471.932443,324.147825 472.290016,324.023905 472.392181,323.921349 C473.80206,323.121414 475.089321,322.183043 476.254004,321.106207 C477.418686,320.029371 478.552702,318.844869 479.656086,317.552666 C481.188563,315.768195 482.613745,313.937601 483.931676,312.06083 C485.249606,310.184059 486.582841,308.2304 487.931421,306.199795 L489.034799,304.538399 L489.826576,304.712744 C490.310155,304.822136 490.705189,304.917853 491.011685,304.999898 C491.471428,305.122965 491.869866,305.24603 492.207011,305.369097 C492.544156,305.492164 492.835322,305.645995 493.080518,305.830596 C493.325715,306.015196 493.632205,306.261327 494,306.568994 C493.901921,306.864355 493.764613,307.140022 493.588073,307.395999 L493.448311,307.584291 C493.203115,307.891959 493.111167,308.322687 493.172466,308.876488 C493.233766,309.184156 493.126494,309.537968 492.850648,309.937935 C492.574802,310.337903 492.314285,310.691715 492.069088,310.999383 C489.065433,315.675927 485.816631,320.106272 482.322583,324.290548 C481.648293,324.967417 480.974013,325.613509 480.299723,326.228843 L478.276863,328.074839 C477.602574,328.505573 477.05089,328.813236 476.621796,328.997836 C474.598927,329.551638 472.606736,329.843917 470.645166,329.874684 C468.683595,329.905451 466.722054,329.397807 464.760483,328.351738 C461.572931,326.690334 459.672687,324.0752 459.059697,320.506258 C458.8145,319.029455 458.722553,317.568056 458.783852,316.122019 C458.845151,314.675983 458.998397,313.245351 459.243593,311.830081 C459.979182,308.261139 460.929304,304.799932 462.093986,301.446357 C463.258669,298.092782 464.821772,294.84694 466.783343,291.708732 C467.948025,289.985795 469.066717,288.73976 470.139451,287.970592 C471.212185,287.201423 472.300227,286.801462 473.403611,286.770695 C474.506994,286.739928 475.671659,286.970675 476.897641,287.462943 C478.123623,287.955211 479.472182,288.601303 480.94336,289.401238 C482.659735,290.262707 483.931672,291.385676 484.759209,292.77018 C485.586747,294.154683 486.153755,295.739146 486.46025,297.523617 L486.46025,298.538915 C486.46025,298.908116 486.429601,299.215778 486.368302,299.461912 C485.939209,300.877182 485.464148,302.261665 484.943106,303.615402 C484.422063,304.969138 483.640512,306.199789 482.598427,307.307392 C481.06595,308.794451 479.597345,310.324223 478.19258,311.896739 L477.357382,312.845378 C475.702307,314.752916 473.955309,316.568126 472.116336,318.291064 C471.87114,318.475664 471.564649,318.752561 471.196855,319.121762 Z M479.748034,299.092713 C479.748034,298.292778 479.794008,297.523621 479.885956,296.785219 C479.977905,296.046817 479.809335,295.246894 479.380241,294.385425 L478.874527,294.893074 C478.721279,295.046908 478.614007,295.216122 478.552708,295.400723 L477.587252,297.154418 L477.587252,297.154418 C477.250107,297.769753 476.98959,298.415845 476.805693,299.092713 C476.621796,299.708048 476.376603,300.261841 476.070107,300.754109 C475.763612,301.246377 475.365174,301.707871 474.874781,302.138605 C474.813482,302.692407 474.767509,303.230817 474.736859,303.753851 C474.70621,304.276886 474.690885,304.784529 474.690885,305.276797 C474.690885,305.399864 474.84413,305.553696 475.150626,305.738296 C476.070112,304.815294 476.928286,303.830773 477.725174,302.784704 C478.522063,301.738635 479.196342,300.507983 479.748034,299.092713 Z" id="StylishPlace"></path>
        </g>
    </g>
</svg>