<svg width="213" height="83" xmlns="http://www.w3.org/2000/svg"><defs><linearGradient x1="0%" y1="50%" x2="99.263%" y2="51.381%" id="linearGradient-1"><stop stop-color="#F82E94" offset="0%"/><stop stop-color="#FF9E33" offset="100%"/></linearGradient></defs><g id="Page-1" stroke="none" stroke-width="1" fill="none" fill-rule="evenodd"><g id="Myntra-Website" transform="translate(-436 -3910)" fill="url(#linearGradient-1)" fill-rule="nonzero"><g id="Group-18" transform="translate(434 3904)"><g id="Group-14"><path d="M43.136 14.083a8.1 8.1 0 01-2.2 1.92c-.88.533-1.8 1.013-2.76 1.44a160.68 160.68 0 00-4.6 2.8 77.791 77.791 0 00-4.36 2.96 165.486 165.486 0 00-4.12 3.44 31.537 31.537 0 00-3.64 3.68c-.427.48-.88.906-1.36 1.28-.48.373-1.013.8-1.6 1.28-.16.266-.347.573-.56.92-.213.346-.427.733-.64 1.16-.16.106-.387.226-.68.36a21.81 21.81 0 00-.76.36c-.16.426-.333.84-.52 1.24a6.86 6.86 0 00-.44 1.24c-.267.373-.493.72-.68 1.04-.187.32-.413.64-.68.96.267.266.533.426.8.48.267.053.587.026.96-.08.693-.107 1.307-.2 1.84-.28.533-.08 1.12-.174 1.76-.28a7.165 7.165 0 011.32-.2 7.165 7.165 0 001.32-.2c1.707-.16 3.347-.32 4.92-.48a70.216 70.216 0 014.84-.32h4.36c1.413 0 2.813.16 4.2.48.373.106.747.226 1.12.36.373.133.693.28.96.44.907.48 1.76.946 2.56 1.4.8.453 1.573.893 2.32 1.32.373.64.68 1.146.92 1.52.24.373.4.72.48 1.04.08.32.12.68.12 1.08v1.64c-.107.373-.373.72-.8 1.04-.427.32-.533.693-.32 1.12-.693.746-1.28 1.48-1.76 2.2-.48.72-1.093 1.426-1.84 2.12-1.013.906-2.027 1.84-3.04 2.8a35.93 35.93 0 01-3.36 2.8 155.748 155.748 0 01-5 3.56c-1.68 1.146-3.64 2.173-5.88 3.08-.587.213-1.187.453-1.8.72a12.92 12.92 0 00-1.8.96 4.07 4.07 0 01-.8-.08 3.708 3.708 0 00-.72-.08.984.984 0 01-.32.44c-.16.133-.32.333-.48.6-.587 0-1.36.133-2.32.4a3.76 3.76 0 00-.8.36 3.655 3.655 0 00-.64.52 256.8 256.8 0 00-2 .16c-.64.053-1.333.133-2.08.24-1.867-.054-3.56-.36-5.08-.92a16.437 16.437 0 01-4.28-2.36 5.249 5.249 0 01-1-1.36c-.24-.48-.28-1.067-.12-1.76l.28-.28c.08-.08.2-.147.36-.2.373.053.653.08.84.08.187 0 .387.053.6.16.427.32.853.653 1.28 1 .427.346.88.68 1.36 1 .747 0 1.44-.067 2.08-.2a10.62 10.62 0 001.92-.6 62.24 62.24 0 006.12-2.44c1.893-.88 3.773-1.827 5.64-2.84a70.008 70.008 0 006.6-4.24 117.913 117.913 0 005.88-4.56 36.014 36.014 0 003.44-3.6c1.013-1.227 1.76-2.534 2.24-3.92.213-.32.4-.614.56-.88a.389.389 0 00-.08-.2c-.053-.08-.08-.2-.08-.36-.693-.054-1.2-.134-1.52-.24a70.28 70.28 0 01-3.16.08c-.933 0-1.853.053-2.76.16-.96.16-1.893.306-2.8.44-.907.133-1.733.146-2.48.04a29.825 29.825 0 01-6.16 1.56 92.79 92.79 0 00-6.16 1.08c-.48-.054-.96-.12-1.44-.2-.48-.08-.987-.12-1.52-.12-1.547-.16-2.973-.547-4.28-1.16a20.254 20.254 0 01-3.56-2.12 5.531 5.531 0 01-1.16-1.2c-.347-.48-.52-.934-.52-1.36-.107-1.12-.053-2.174.16-3.16.213-.987.64-1.96 1.28-2.92.373-.587.64-1.094.8-1.52a20.623 20.623 0 012.04-3.16 12.094 12.094 0 012.84-2.6c.373-.427.693-.827.96-1.2a5.85 5.85 0 01.96-1.04l1.96-1.96a22.808 22.808 0 012.04-1.8c3.253-2.72 6.76-5.2 10.52-7.44s7.88-4.24 12.36-6c.533-.267 1.08-.52 1.64-.76.56-.24 1.16-.414 1.8-.52 1.067-.427 2.2-.8 3.4-1.12 1.2-.32 2.627-.427 4.28-.32.427.053.92.2 1.48.44.56.24 1.107.573 1.64 1 1.28.8 2.56 1.626 3.84 2.48.213.106.413.226.6.36.187.133.36.253.52.36.96.746 1.627 1.52 2 2.32.373.8.267 1.68-.32 2.64a5.673 5.673 0 00-.24.72c-.053.213-.133.4-.24.56-.427.586-.827 1.16-1.2 1.72s-.933 1.053-1.68 1.48c-.107.64-.413 1.186-.92 1.64-.507.453-1.08.893-1.72 1.32-.32.266-.573.56-.76.88-.187.32-.413.613-.68.88-1.12 1.013-2.2 1.986-3.24 2.92-1.04.933-2.12 1.88-3.24 2.84a24.406 24.406 0 01-3.52 2.48 18.97 18.97 0 00-3.52 2.64c0 .053-.12.093-.36.12-.24.026-.413.093-.52.2-1.6-.16-3.12-.334-4.56-.52-1.44-.187-2.613-.84-3.52-1.96a327.415 327.415 0 014.48-4.24 353.31 353.31 0 014.56-4.16c.907-1.067 1.827-2.12 2.76-3.16.933-1.04 1.853-2.094 2.76-3.16.267-.32.587-.64.96-.96.373-.32.747-.694 1.12-1.12 0-.107.027-.254.08-.44.053-.187.08-.414.08-.68a7.686 7.686 0 01-.56-.16 1.316 1.316 0 00-.4-.08c-.587.106-1.133.226-1.64.36a26.72 26.72 0 01-1.56.36zm17.04 49.76c-.427.16-.853.293-1.28.4-.427.106-.88.213-1.36.32a11.987 11.987 0 01-2.28-1.12 36.953 36.953 0 01-2.36-1.6c-.16-1.387-.293-2.8-.4-4.24-.107-1.44-.08-2.907.08-4.4.267-2.347.533-4.68.8-7 .267-2.32.64-4.68 1.12-7.08.32-2.08.707-4.16 1.16-6.24.453-2.08.893-4.134 1.32-6.16l.24-1.44a1.86 1.86 0 01-.28-.36 1.86 1.86 0 00-.28-.36c-.16.053-.28.066-.36.04-.08-.027-.147-.014-.2.04-.747.693-1.493 1.16-2.24 1.4-.747.24-1.493.546-2.24.92-.587.266-1.133.32-1.64.16a13.424 13.424 0 00-1.64-.4 11.103 11.103 0 01-1.68-1.52c-.533-.587-.987-1.307-1.36-2.16 0-.64.147-1.107.44-1.4.293-.294.6-.52.92-.68.853-.267 1.693-.52 2.52-.76s1.667-.494 2.52-.76c1.227-.267 2.467-.52 3.72-.76 1.253-.24 2.52-.494 3.8-.76.213-.427.4-.84.56-1.24.16-.4.32-.814.48-1.24.48-1.067.933-2.094 1.36-3.08.427-.987.88-2.014 1.36-3.08l.4-.8c.107-.214.227-.4.36-.56a4.7 4.7 0 01.52-.52c.213-.187.507-.414.88-.68a23.183 23.183 0 002.36 1.92c.827.586 1.64 1.226 2.44 1.92.267.213.493.493.68.84.187.346.413.653.68.92 0 .533.013 1.066.04 1.6.027.533.067 1.093.12 1.68.533.16 1.027.133 1.48-.08a3.08 3.08 0 011.32-.32c1.067 0 2.053-.08 2.96-.24a39.164 39.164 0 011.44-.12c.427-.027.88-.067 1.36-.12a32.62 32.62 0 011.52-.12c.48-.027.96-.04 1.44-.04.48-.054.973-.067 1.48-.04.507.026 1 .04 1.48.04.533.693 1.04 1.36 1.52 2 .48.64.853 1.413 1.12 2.32-.587.426-1.133.68-1.64.76-.507.08-1.027.12-1.56.12-1.547 0-3.067.12-4.56.36-1.493.24-3.013.493-4.56.76a65.35 65.35 0 00-2.64.52 27.52 27.52 0 01-2.64.44 2.26 2.26 0 01-.72.04 10.096 10.096 0 01-.72-.12c-.16.266-.333.546-.52.84a5.123 5.123 0 00-.44.84l-.32 1.12a37.38 37.38 0 00-.32 1.2c-.48 1.973-.933 3.933-1.36 5.88a94.33 94.33 0 01-1.44 5.72 50.987 50.987 0 00-.92 4.04 91.47 91.47 0 01-.84 4.04 62.03 62.03 0 00-.68 3.88 22.96 22.96 0 01-.84 3.72 13.95 13.95 0 00-.52 2.76 19.25 19.25 0 01-.44 2.76c-.16.8-.293 1.626-.4 2.48-.107.853-.213 1.786-.32 2.8zm18.24-15.28c.32-.267.587-.48.8-.64.213-.16.453-.347.72-.56a178.9 178.9 0 002.96-3.68c.96-1.227 1.947-2.507 2.96-3.84.693-.96 1.373-1.894 2.04-2.8a55.382 55.382 0 001.88-2.72 18.97 18.97 0 001.48-2.04 10.01 10.01 0 001.08-2.36c.267-.747.693-1.307 1.28-1.68l1.76-1.12c.853.16 1.613.453 2.28.88.667.426 1.4.826 2.2 1.2-.107.32-.16.6-.16.84s-.027.573-.08 1a6.936 6.936 0 01.56 3.08 74.4 74.4 0 01-.24 3.24 60.955 60.955 0 01-1.04 5.16 1467.38 1467.38 0 01-1.28 5.16 87.058 87.058 0 01-1.6 5.48 181.17 181.17 0 00-1.68 5.4c-.16.586-.4 1.173-.72 1.76-.373.373-.56.826-.56 1.36-.16 1.493-.773 2.693-1.84 3.6-.053.266-.08.546-.08.84 0 .293-.027.573-.08.84-.427.64-.8 1.226-1.12 1.76a21.74 21.74 0 00-.8 1.44 25.492 25.492 0 00-.24 1.56c-.053.453-.133.893-.24 1.32-.48.906-.96 1.786-1.44 2.64a40.93 40.93 0 00-1.36 2.64 4.532 4.532 0 01-.36.72 7.736 7.736 0 00-.36.64 12.21 12.21 0 01-1.32 2.32 77.877 77.877 0 01-1.64 2.16 4.774 4.774 0 01-1.32 1.52c-.56.426-1.053.773-1.48 1.04-1.547.533-2.973.6-4.28.2a27.35 27.35 0 01-3.8-1.48c-.16-.32-.16-.627 0-.92.16-.294.32-.574.48-.84a8.886 8.886 0 001.32-1.88c.347-.667.707-1.374 1.08-2.12a121.758 121.758 0 002.52-5.88c.773-1.947 1.533-3.854 2.28-5.72.427-.907.813-1.787 1.16-2.64.347-.854.653-1.707.92-2.56a88.328 88.328 0 011.8-4.4 111.213 111.213 0 001.8-4.32c.107-.214.173-.427.2-.64.027-.214-.013-.454-.12-.72-.373-.054-.6.053-.68.32-.08.266-.227.48-.44.64-.213.16-.427.36-.64.6a3.08 3.08 0 01-.72.6c-.107.16-.253.306-.44.44-.187.133-.387.28-.6.44a17.09 17.09 0 01-.68.52c-.187.133-.493.333-.92.6-.427.106-.88.186-1.36.24-.48.053-1.013.106-1.6.16-1.973-.054-3.973-.64-6-1.76-.64-.32-1.173-.8-1.6-1.44a9.005 9.005 0 01-1.04-2.16 10.078 10.078 0 01-.4-4.16c.16-1.387.373-2.747.64-4.08a71.07 71.07 0 013.28-11.04l.32-.96c.107-.32.24-.614.4-.88.213-.427.467-.8.76-1.12.293-.32.733-.587 1.32-.8.853.48 1.707.986 2.56 1.52l2.56 1.6c.427.213.733.493.92.84.187.346.333.733.44 1.16-.48 2.293-.973 4.6-1.48 6.92-.507 2.32-.813 4.84-.92 7.56zm34.16 8l.08-.08c.32 0 .56-.107.72-.32.16-.214.32-.4.48-.56a46.8 46.8 0 001.92-2.36 21.4 21.4 0 011.92-2.2c.587-.8 1.24-1.56 1.96-2.28.72-.72 1.453-1.4 2.2-2.04a2.52 2.52 0 011-.84c.4-.187.813-.414 1.24-.68.8-.16 1.44.08 1.92.72a.794.794 0 00-.08.36.794.794 0 01-.08.36c-.427.48-.867.933-1.32 1.36-.453.426-.893.853-1.32 1.28a143.684 143.684 0 00-4.96 5.72c-1.6 1.946-3.173 3.96-4.72 6.04a7.608 7.608 0 00-1.16 1.52c-.347.586-.733 1.226-1.16 1.92-.213.106-.427.08-.64-.08-.213-.16-.507-.24-.88-.24a9.28 9.28 0 00-1.12.4c-.373.16-.773.293-1.2.4a2.934 2.934 0 00-.8-.2 2.934 2.934 0 01-.8-.2c-1.28-.427-2.293-1.094-3.04-2-.747-.907-1.253-1.974-1.52-3.2a18.323 18.323 0 01-.48-3.4 22.733 22.733 0 01.08-3.32 45.07 45.07 0 01.48-3.8c.213-1.254.373-2.52.48-3.8.267-2.507.64-5 1.12-7.48.48-2.48 1.013-4.947 1.6-7.4a66.1 66.1 0 017.76-18.96c.267-.427.533-.814.8-1.16.267-.347.533-.707.8-1.08.16-.16.333-.307.52-.44.187-.134.387-.28.6-.44 1.28.373 2.547.746 3.8 1.12a32.83 32.83 0 013.72 1.36c.16.426.32.813.48 1.16.16.346.347.733.56 1.16a447.516 447.516 0 01-1.28 5 124.958 124.958 0 00-1.2 5 45.796 45.796 0 01-1.24 4.92 45.796 45.796 0 00-1.24 4.92c-.107.426-.28.84-.52 1.24s-.467.866-.68 1.4l.16.48a227.135 227.135 0 00-2.88 11.52 116.52 116.52 0 00-1.04 3.8c-.32 1.253-.64 2.493-.96 3.72a2.692 2.692 0 00-.04.8c.027.266.04.533.04.8l-.08.08zm15.6-24.24l1.32-.44c.4-.134.813-.254 1.24-.36.267.106.52.186.76.24.24.053.467.133.68.24.587.266 1.12.533 1.6.8.48.266 1.013.533 1.6.8.107.16.213.333.32.52.107.186.213.333.32.44 0 1.066-.24 1.986-.72 2.76a7.06 7.06 0 00-.96 2.52c-.16.906-.387 1.76-.68 2.56a41.28 41.28 0 00-.84 2.56c-.267.853-.52 1.68-.76 2.48s-.493 1.626-.76 2.48a37.43 37.43 0 01-.96 2.4c-.373.853-.533 1.84-.48 2.96.693-.694 1.467-1.614 2.32-2.76.853-1.147 1.733-2.32 2.64-3.52.907-1.2 1.787-2.36 2.64-3.48.853-1.12 1.627-2.027 2.32-2.72.533.213.987.373 1.36.48.267.426.52.853.76 1.28.24.426.493.826.76 1.2a33.03 33.03 0 01-1.04 1.36c-.427.426-.947 1.04-1.56 1.84-.613.8-1.267 1.64-1.96 2.52-.693.88-1.36 1.72-2 2.52-.64.8-1.147 1.386-1.52 1.76a.788.788 0 01-.28.2c-.08.026-.147.093-.2.2a8.32 8.32 0 01-1.8 2.68 15.345 15.345 0 00-2.04 2.52c-.373.426-.76.84-1.16 1.24l-1.24 1.24c-1.387.16-2.667.093-3.84-.2-1.173-.294-2.213-.894-3.12-1.8a6.915 6.915 0 01-.56-2.24 16.835 16.835 0 010-2.32c.267-2.4.667-4.76 1.2-7.08.533-2.32 1.147-4.654 1.84-7 .8-2.88 2.027-5.867 3.68-8.96a8.96 8.96 0 011.12-1.92zm6.16-3.44c-.853-.267-1.56-.64-2.12-1.12-.56-.48-1.133-1.04-1.72-1.68a4.07 4.07 0 00-.08-.8l-.16-.8a5.679 5.679 0 012-2.48c.96.586 1.933 1.08 2.92 1.48.987.4 1.853 1.053 2.6 1.96a15.955 15.955 0 00-.16 2.08c-.427.586-.92.933-1.48 1.04-.56.106-1.16.213-1.8.32zm17.44 18.32c.267-.267.547-.494.84-.68a5.02 5.02 0 00.84-.68 141.53 141.53 0 0111.52-11.04 65.601 65.601 0 012.6-2.16 159.29 159.29 0 002.68-2.16c.107 0 .253-.014.44-.04a1.11 1.11 0 01.52.04c1.12.266 2.24.56 3.36.88 1.12.32 2.187.613 3.2.88.427.426.733.866.92 1.32.187.453.28.906.28 1.36 0 .453-.027.893-.08 1.32l-.16 1.28a76.27 76.27 0 00-.88 2.64 24.965 24.965 0 01-.96 2.56 64.4 64.4 0 00-.76 2.44c-.24.826-.52 1.64-.84 2.44-.107.426-.24 1.04-.4 1.84-.16.8-.333 1.626-.52 2.48-.187.853-.36 1.68-.52 2.48-.16.8-.293 1.44-.4 1.92.32-.107.84-.547 1.56-1.32.72-.774 1.48-1.64 2.28-2.6.8-.96 1.533-1.867 2.2-2.72a236.76 236.76 0 011.32-1.68l1.6-1.92c.267-.267.547-.534.84-.8.293-.267.573-.534.84-.8a39.164 39.164 0 011.44-.12 40.56 40.56 0 001.44-.12c.107.16.24.32.4.48.16.16.293.32.4.48.107.32.16.506.16.56.16.96-.107 1.706-.8 2.24-.64.586-1.2 1.2-1.68 1.84-.48.64-.96 1.306-1.44 2-.267.373-.773 1.053-1.52 2.04a136.64 136.64 0 01-2.44 3.12 132.871 132.871 0 00-2.44 3.12c-.747.986-1.253 1.666-1.52 2.04-.32.426-.64.706-.96.84-.32.133-.64.253-.96.36-.32.106-.627.24-.92.4-.293.16-.547.48-.76.96-.053.106-.12.2-.2.28l-.28.28a40.043 40.043 0 00-1.72-.12 13.096 13.096 0 01-1.72-.2 38.41 38.41 0 01-2.52-.56c-.827-.214-1.587-.72-2.28-1.52a37.251 37.251 0 00-.44-2.68 34.817 34.817 0 01-.44-2.76c-.16-.747-.187-1.6-.08-2.56.107-1.12.227-2.294.36-3.52.133-1.227.253-2.48.36-3.76.053-.267.093-.587.12-.96.027-.374-.067-.694-.28-.96-.16 0-.24.026-.24.08a62.644 62.644 0 00-2.6 2.76c-.827.933-1.64 1.88-2.44 2.84a9.742 9.742 0 00-.72.8 9.742 9.742 0 01-.72.8 379.332 379.332 0 00-2.72 3.4 379.367 379.367 0 01-2.72 3.4 1.515 1.515 0 01-.56.68 27.3 27.3 0 00-.72.52c-.427.16-.84.306-1.24.44l-1.08.36a5.673 5.673 0 00-.24.72 3.127 3.127 0 01-.24.64 2.94 2.94 0 01-.68.24c-.24.053-.493.133-.76.24-.267.106-.52.24-.76.4-.24.16-.493.32-.76.48a11.717 11.717 0 00-1.64-.52c-.56-.134-1.12-.28-1.68-.44a9.492 9.492 0 01-1.64-.64 3.641 3.641 0 01-1.36-1.2 10.532 10.532 0 01-.6-3.24 31.41 31.41 0 01.12-3.48c.32-2.4.733-4.747 1.24-7.04.507-2.294 1.053-4.64 1.64-7.04a28.95 28.95 0 011.48-4.6 72.342 72.342 0 012.04-4.44 10.95 10.95 0 011.28-2.08 3.72 3.72 0 01.56-.72l.56-.56c.427-.214.827-.307 1.2-.28.373.026.693.093.96.2.853.266 1.693.533 2.52.8.827.266 1.747.586 2.76.96.16.213.36.453.6.72.24.266.467.533.68.8 0 .266.013.52.04.76.027.24.013.493-.04.76a737.356 737.356 0 01-1.28 5.96 36.308 36.308 0 01-1.76 5.72c-.213.8-.293 1.546-.24 2.24-.48.32-.533.48-.16.48.053 0 .093-.04.12-.12a.788.788 0 01.2-.28zm57.52 18.16a4.71 4.71 0 00-.64.6 3.54 3.54 0 01-.56.52c-.267.533-.52 1.08-.76 1.64a4.52 4.52 0 00-.36 1.8 136.493 136.493 0 01-2.36 4.2 870.235 870.235 0 01-2.52 4.28c-.16.426-.4.786-.72 1.08-.32.293-.64.6-.96.92-.267.373-.507.76-.72 1.16-.213.4-.453.76-.72 1.08a41.104 41.104 0 01-2.68 2.6c-.933.826-2.04 1.426-3.32 1.8a3.184 3.184 0 00-.8.28c-.267.133-.533.253-.8.36a7.33 7.33 0 00-2.52-.52c-.88-.027-1.773-.254-2.68-.68a49.295 49.295 0 00-.24-1.36c.107-.16.2-.334.28-.52a1.39 1.39 0 01.28-.44c1.76-1.92 3.227-3.947 4.4-6.08a71.056 71.056 0 004.4-9.36 123.29 123.29 0 003.28-9.76c.213-.587.4-1.147.56-1.68.16-.534.347-1.094.56-1.68.107-.534.213-1.027.32-1.48.107-.454.267-.974.48-1.56a3.37 3.37 0 01-.6.08.497.497 0 00-.36.16 27.757 27.757 0 01-1.96 1.64 27.757 27.757 0 00-1.96 1.64 6.29 6.29 0 01-2.04 1.16c-.72.24-1.533.28-2.44.12h-.56c-1.227.16-2.333 0-3.32-.48a20.372 20.372 0 01-2.84-1.68c-1.227-.854-2-1.947-2.32-3.28a8.82 8.82 0 00-.16-.68 2.64 2.64 0 00-.16-.44c.16-2.294.573-4.427 1.24-6.4a41.904 41.904 0 012.44-5.76c1.013-1.814 2.16-3.427 3.44-4.84 1.28-1.414 2.827-2.6 4.64-3.56a11.065 11.065 0 012.96-1.28c1.013-.267 2.187-.267 3.52 0 .907.693 1.84 1.413 2.8 2.16.96.746 1.893 1.626 2.8 2.64.267-.16.52-.32.76-.48.24-.16.493-.32.76-.48.373.106.733.2 1.08.28.347.08.707.2 1.08.36a4.85 4.85 0 01.84-.4c.293-.107.6-.267.92-.48l1.76 1.12a8.325 8.325 0 011.68 1.44c0 .32-.027.586-.08.8 0 .106-.04.213-.12.32-.08.106-.147.24-.2.4a54.22 54.22 0 01.16 4.16c0 1.386-.133 2.773-.4 4.16a5.59 5.59 0 00-.16 1.36c0 .48-.027.933-.08 1.36a2.692 2.692 0 00-.04.8c.027.266-.013.533-.12.8a20.923 20.923 0 00-.72 3.04 77.753 77.753 0 01-.56 3.12c-.107.853-.28 1.68-.52 2.48s-.52 1.626-.84 2.48c-.267.8-.52 1.626-.76 2.48-.24.853-.493 1.68-.76 2.48zm-9.84-28.24l-.4.8c-.16.32-.427.613-.8.88-.267.106-.427.266-.48.48-.32.48-.627.933-.92 1.36-.293.426-.6.853-.92 1.28a9.741 9.741 0 00-1.56 2.52c-.4.933-.84 1.853-1.32 2.76-.267.373-.467.8-.6 1.28-.133.48-.28.96-.44 1.44a.71.71 0 01.32.08.34.34 0 00.32 0c.587-.427 1.173-.84 1.76-1.24s1.147-.84 1.68-1.32a554.343 554.343 0 014.04-3.68 29.513 29.513 0 003.64-3.92c.267-.747.52-1.467.76-2.16.24-.694.36-1.414.36-2.16-.373-.427-.72-.614-1.04-.56-.32.053-.667.186-1.04.4-.48.266-1 .52-1.56.76s-1.16.573-1.8 1z" id="Styling" transform="rotate(-2 108.248 45.823)"/></g></g></g></g></svg>