<?xml version="1.0" encoding="UTF-8"?>
<svg width="408px" height="236px" viewBox="0 0 408 236" version="1.1" xmlns="http://www.w3.org/2000/svg" xmlns:xlink="http://www.w3.org/1999/xlink">
    <!-- Generator: Sketch 58 (84663) - https://sketch.com -->
    <title>A_World</title>
    <desc>Created with Sketch.</desc>
    <g id="Page-1" stroke="none" stroke-width="1" fill="none" fill-rule="evenodd">
        <g id="Myntra-Website" transform="translate(-211.000000, -1952.000000)">
            <g id="A_World" transform="translate(211.618458, 1952.500000)">
                <g id="Group-4" transform="translate(0.000000, 44.950379)">
                    <g id="Group-2" transform="translate(0.000000, 10.688759)">
                        <path d="M335.76271,19.863451 L335.76271,76.887451 L2.76271027,76.887451 L2.76271027,19.863451 L335.76271,19.863451 Z M171.073621,41.7765726 C168.646942,41.7765726 166.466964,42.2565678 164.533621,43.2165726 C162.600278,44.1765774 161.08696,45.516564 159.993621,47.2365726 C158.900282,48.9565812 158.353621,50.909895 158.353621,53.0965726 C158.353621,55.2832502 158.900282,57.236564 159.993621,58.9565726 C161.08696,60.6765812 162.600278,62.0232344 164.533621,62.9965726 C166.466964,63.9699108 168.646942,64.4565726 171.073621,64.4565726 C173.526966,64.4565726 175.720278,63.9699108 177.653621,62.9965726 C179.586964,62.0232344 181.093615,60.6765812 182.173621,58.9565726 C183.253626,57.236564 183.793621,55.2832502 183.793621,53.0965726 C183.793621,50.909895 183.253626,48.9565812 182.173621,47.2365726 C181.093615,45.516564 179.586964,44.1765774 177.653621,43.2165726 C175.720278,42.2565678 173.526966,41.7765726 171.073621,41.7765726 Z M242.113621,34.3765726 L233.073621,34.3765726 L233.073621,43.6565726 C231.793614,42.403233 229.9403,41.7765726 227.513621,41.7765726 C225.593611,41.7765726 223.826962,42.236568 222.213621,43.1565726 C220.600279,44.0765772 219.320292,45.396564 218.373621,47.1165726 C217.426949,48.8365812 216.953621,50.8298946 216.953621,53.0965726 C216.953621,55.3632506 217.426949,57.3632306 218.373621,59.0965726 C219.320292,60.8299146 220.600279,62.156568 222.213621,63.0765726 C223.826962,63.9965772 225.593611,64.4565726 227.513621,64.4565726 C230.206968,64.4565726 232.206948,63.7232466 233.513621,62.2565726 L233.513621,62.2565726 L233.513621,64.0565726 L242.113621,64.0565726 L242.113621,34.3765726 Z M257.673621,41.7765726 C255.246942,41.7765726 253.066964,42.2565678 251.133621,43.2165726 C249.200278,44.1765774 247.68696,45.516564 246.593621,47.2365726 C245.500282,48.9565812 244.953621,50.909895 244.953621,53.0965726 C244.953621,55.2832502 245.500282,57.236564 246.593621,58.9565726 C247.68696,60.6765812 249.200278,62.0232344 251.133621,62.9965726 C253.066964,63.9699108 255.246942,64.4565726 257.673621,64.4565726 C260.126966,64.4565726 262.320278,63.9699108 264.253621,62.9965726 C266.186964,62.0232344 267.693615,60.6765812 268.773621,58.9565726 C269.853626,57.236564 270.393621,55.2832502 270.393621,53.0965726 C270.393621,50.909895 269.853626,48.9565812 268.773621,47.2365726 C267.693615,45.516564 266.186964,44.1765774 264.253621,43.2165726 C262.320278,42.2565678 260.126966,41.7765726 257.673621,41.7765726 Z M65.7936208,36.0565726 L59.3936208,36.0565726 L58.7136208,41.5365726 L53.1136208,41.5365726 L53.1136208,47.5365726 L57.9536208,47.5365726 L57.3536208,52.5765726 L51.7536208,52.5765726 L51.7536208,58.5765726 L56.5936208,58.5765726 L55.9136208,64.0565726 L62.3136208,64.0565726 L62.9936208,58.5765726 L66.9536208,58.5765726 L66.2736208,64.0565726 L72.6736208,64.0565726 L73.3536208,58.5765726 L78.9536208,58.5765726 L78.9536208,52.5765726 L74.1136208,52.5765726 L74.7136208,47.5365726 L80.3136208,47.5365726 L80.3136208,41.5365726 L75.4736208,41.5365726 L76.1536208,36.0565726 L69.7536208,36.0565726 L69.0736208,41.5365726 L65.1136208,41.5365726 L65.7936208,36.0565726 Z M101.593621,36.0565726 L92.3136208,36.0565726 L80.0736208,64.0565726 L89.6736208,64.0565726 L91.5536208,59.1765726 L102.193621,59.1765726 L104.073621,64.0565726 L113.833621,64.0565726 L101.593621,36.0565726 Z M121.593621,36.0565726 L111.873621,36.0565726 L120.833621,64.0565726 L130.953621,64.0565726 L135.713621,49.0965726 L140.233621,64.0565726 L150.353621,64.0565726 L159.313621,36.0565726 L150.353621,36.0565726 L145.193621,52.1765726 L140.313621,36.0565726 L131.633621,36.0565726 L126.473621,51.9765726 L121.593621,36.0565726 Z M202.313621,41.7765726 C199.193605,41.7765726 196.833629,42.6965634 195.233621,44.5365726 L195.233621,44.5365726 L195.233621,42.1765726 L186.633621,42.1765726 L186.633621,64.0565726 L195.673621,64.0565726 L195.673621,54.3365726 C195.673621,51.1898902 197.220272,49.6165726 200.313621,49.6165726 C200.926957,49.6165726 201.593617,49.6699054 202.313621,49.7765726 L202.313621,49.7765726 Z M213.913621,34.3765726 L204.873621,34.3765726 L204.873621,64.0565726 L213.913621,64.0565726 L213.913621,34.3765726 Z M283.993621,33.9765726 C280.900272,33.9765726 278.500296,34.8098976 276.793621,36.4765726 C275.086946,38.1432476 274.233621,40.403225 274.233621,43.2565726 L274.233621,43.2565726 L274.233621,43.3765726 L271.233621,43.3765726 L271.233621,49.9765726 L274.233621,49.9765726 L274.233621,64.0565726 L283.273621,64.0565726 L283.273621,49.9765726 L287.753621,49.9765726 L287.753621,43.3765726 L282.993621,43.3765726 L282.993621,43.3365726 C282.993621,42.483235 283.186952,41.849908 283.573621,41.4365726 C283.960289,41.0232372 284.486951,40.8165726 285.153621,40.8165726 C285.766957,40.8165726 286.44695,40.9899042 287.193621,41.3365726 L287.193621,41.3365726 L289.353621,35.0565726 C288.713618,34.7099042 287.913626,34.4432402 286.953621,34.2565726 C285.993616,34.069905 285.006959,33.9765726 283.993621,33.9765726 Z M171.073621,48.8165726 C172.113626,48.8165726 172.966951,49.1899022 173.633621,49.9365726 C174.300291,50.683243 174.633621,51.7365658 174.633621,53.0965726 C174.633621,54.4565794 174.300291,55.5165688 173.633621,56.2765726 C172.966951,57.0365764 172.113626,57.4165726 171.073621,57.4165726 C170.033616,57.4165726 169.180291,57.0365764 168.513621,56.2765726 C167.846951,55.5165688 167.513621,54.4565794 167.513621,53.0965726 C167.513621,51.7365658 167.846951,50.683243 168.513621,49.9365726 C169.180291,49.1899022 170.033616,48.8165726 171.073621,48.8165726 Z M229.673621,48.8165726 C230.713626,48.8165726 231.566951,49.1899022 232.233621,49.9365726 C232.900291,50.683243 233.233621,51.7365658 233.233621,53.0965726 C233.233621,54.4565794 232.900291,55.5165688 232.233621,56.2765726 C231.566951,57.0365764 230.713626,57.4165726 229.673621,57.4165726 C228.633616,57.4165726 227.780291,57.0365764 227.113621,56.2765726 C226.446951,55.5165688 226.113621,54.4565794 226.113621,53.0965726 C226.113621,51.7365658 226.446951,50.683243 227.113621,49.9365726 C227.780291,49.1899022 228.633616,48.8165726 229.673621,48.8165726 Z M257.673621,48.8165726 C258.713626,48.8165726 259.566951,49.1899022 260.233621,49.9365726 C260.900291,50.683243 261.233621,51.7365658 261.233621,53.0965726 C261.233621,54.4565794 260.900291,55.5165688 260.233621,56.2765726 C259.566951,57.0365764 258.713626,57.4165726 257.673621,57.4165726 C256.633616,57.4165726 255.780291,57.0365764 255.113621,56.2765726 C254.446951,55.5165688 254.113621,54.4565794 254.113621,53.0965726 C254.113621,51.7365658 254.446951,50.683243 255.113621,49.9365726 C255.780291,49.1899022 256.633616,48.8165726 257.673621,48.8165726 Z M68.3136208,47.5365726 L67.7136208,52.5765726 L63.7536208,52.5765726 L64.3536208,47.5365726 L68.3136208,47.5365726 Z M96.8736208,45.3365726 L99.5936208,52.3765726 L94.1536208,52.3765726 L96.8736208,45.3365726 Z" id="Combined-Shape" fill="#343A52" transform="translate(169.262710, 48.375451) rotate(-5.000000) translate(-169.262710, -48.375451) "></path>
                        <path d="M9.42308759,9.88493105 L20.2516978,28.9721883 L18.0362246,29.166017 L15.1856382,24.0633006 L4.10827191,25.0324446 L2.18706975,30.5526384 L2.39808173e-14,30.7439822 L7.34963186,10.0663349 L9.42308759,9.88493105 Z M42.8142254,8.79532334 C44.3593699,9.8813057 45.2247025,11.4846756 45.4102489,13.6054811 C45.5957953,15.7262866 45.0216173,17.4508272 43.6876975,18.7791547 C42.3537776,20.1074822 40.4181506,20.8826309 37.8807583,21.1046239 L32.5408997,21.571801 L33.0900813,27.8489752 L30.988222,28.0328641 L29.2487329,8.15041184 L36.6904507,7.49934589 C39.227843,7.27735283 41.2690808,7.70934099 42.8142254,8.79532334 Z M58.8692605,11.3976173 C60.0238614,11.9453468 60.9637019,12.7646711 61.6888103,13.8556148 C62.4139187,14.9465586 62.8410765,16.230506 62.9702963,17.7074955 L62.9965625,18.3348576 L50.499021,19.4282508 C50.7484821,20.9710434 51.4547021,22.1733347 52.6177022,23.0351609 C53.7807023,23.8969871 55.185887,24.2558299 56.8332984,24.1117001 C57.7611508,24.0305235 58.5987518,23.7902893 59.3461264,23.3909901 C60.0935011,22.991691 60.7230522,22.4452917 61.2347985,21.7517758 L62.4852479,22.9589376 C61.8920761,23.8122229 61.1166613,24.4906363 60.1589804,24.9941979 C59.2012994,25.4977596 58.1259985,25.8017209 56.9330454,25.9060907 C55.3992486,26.0402806 54.0120509,25.8325075 52.7714107,25.2827652 C51.5307706,24.7330229 50.5285614,23.9096149 49.7647531,22.8125166 C49.0009449,21.7154183 48.5552658,20.4378614 48.4277027,18.9798076 C48.3001395,17.5217538 48.5030006,16.187457 49.0362921,14.9768772 C49.5695837,13.7662973 50.3619253,12.7906566 51.4133409,12.0499258 C52.4647565,11.3091949 53.6816014,10.8783677 55.0639121,10.7574312 C56.4462228,10.6364947 57.7146596,10.8498879 58.8692605,11.3976173 Z M76.0249765,9.89668669 C77.1795773,10.4444161 78.1194179,11.2637404 78.8445263,12.3546841 C79.5696347,13.4456279 79.9967924,14.7295753 80.1260123,16.2065649 L80.1522784,16.8339269 L67.654737,17.9273201 C67.9041981,19.4701127 68.6104181,20.6724041 69.7734181,21.5342303 C70.9364182,22.3960564 72.3416029,22.7548992 73.9890143,22.6107694 C74.9168667,22.5295928 75.7544677,22.2893586 76.5018424,21.8900595 C77.2492171,21.4907604 77.8787681,20.9443611 78.3905144,20.2508452 L79.6409638,21.4580069 C79.047792,22.3112923 78.2723773,22.9897056 77.3146963,23.4932673 C76.3570154,23.996829 75.2817145,24.3007902 74.0887614,24.4051601 C72.5549645,24.5393499 71.1677668,24.3315768 69.9271267,23.7818345 C68.6864865,23.2320922 67.6842773,22.4086842 66.9204691,21.3115859 C66.1566608,20.2144876 65.7109818,18.9369307 65.5834186,17.4788769 C65.4558554,16.0208232 65.6587166,14.6865264 66.1920081,13.4759465 C66.7252996,12.2653667 67.5176413,11.289726 68.5690569,10.5489951 C69.6204724,9.80826429 70.8373173,9.37743707 72.2196281,9.25650055 C73.6019388,9.13556403 74.8703756,9.34895728 76.0249765,9.89668669 Z M85.0708614,2.06453015 L86.3208086,16.3514923 L94.526318,7.4194017 L97.0258263,7.20072306 L91.1693098,13.8665978 L98.9294018,22.0887811 L96.458297,22.3049747 L89.7807184,15.3332666 L86.5419722,18.8794041 L86.9147199,23.1399295 L84.8980712,23.3163634 L83.0542126,2.24096405 L85.0708614,2.06453015 Z M8.56350178,12.1639452 L4.72606743,23.2611398 L14.2696445,22.426185 L8.56350178,12.1639452 Z M110.119841,6.05514519 L111.426943,20.9953879 L109.410294,21.1718218 L108.103193,6.23157909 L110.119841,6.05514519 Z M127.962372,6.02534476 C129.165373,7.01723628 129.857979,8.55462597 130.040212,10.63756 L130.798132,19.3006284 L128.781484,19.4770623 L128.040958,11.0128184 C127.905112,9.46008577 127.413394,8.31057942 126.565792,7.56426484 C125.718189,6.81795026 124.574845,6.50775088 123.135727,6.63365739 C121.526187,6.77447388 120.294607,7.36400377 119.440948,8.40226472 C118.587289,9.44052568 118.234187,10.8022772 118.38163,12.4875602 L119.067486,20.3269271 L117.050837,20.503361 L115.743735,5.56311825 L117.675173,5.3941393 L117.916217,8.14927912 C118.385834,7.1923192 119.086277,6.42029283 120.017567,5.83317687 C120.948858,5.24606091 122.058302,4.89618158 123.345934,4.78352838 C125.220574,4.61951858 126.759372,5.03345324 127.962372,6.02534476 Z M36.7926827,9.32214007 L31.5096311,9.78434719 L32.3793757,19.7255733 L37.6624273,19.2633662 C39.6317467,19.0910731 41.0994288,18.5285881 42.0655175,17.5758943 C43.0316063,16.6232005 43.4458928,15.3610383 43.3083897,13.7893699 C43.1675732,12.17983 42.5387517,10.9898476 41.4219065,10.2193869 C40.3050613,9.44892624 38.7620021,9.14984694 36.7926827,9.32214007 Z M137.044624,0.408127133 L137.330397,3.67453 L141.874958,3.27693248 L142.024057,4.98114267 L137.479496,5.3787402 L138.259782,14.2974402 C138.337645,15.1874211 138.619362,15.844899 139.10494,16.2698936 C139.590519,16.6948881 140.249885,16.8709362 141.083059,16.7980429 C141.499646,16.7615963 141.896226,16.6601185 142.272813,16.4936066 C142.649399,16.3270946 142.968938,16.1083344 143.231438,15.8373195 L144.068259,17.2237736 C143.719364,17.5977506 143.27349,17.8991153 142.730623,18.1278767 C142.187756,18.356638 141.613359,18.4975232 141.007415,18.5505365 C139.606168,18.6731297 138.493713,18.3888486 137.670016,17.6976846 C136.846319,17.0065207 136.374009,15.9697989 136.253073,14.5874881 L135.462848,5.5551741 L132.792918,5.78876265 L132.643819,4.08455245 L135.313749,3.85096391 L135.027975,0.584561035 L137.044624,0.408127133 Z M55.2154962,12.4900449 C53.7763781,12.6159514 52.6094148,13.1807476 51.7145713,14.1844503 C50.8197277,15.1881531 50.3706474,16.4342789 50.3673169,17.9228651 L60.9618236,16.9959659 C60.7000534,15.530573 60.0414081,14.3813606 58.9858681,13.5482943 C57.930328,12.715228 56.67355,12.3624817 55.2154962,12.4900449 Z M152.090953,1.60771815 C153.535568,1.60771815 154.837603,1.93085091 155.997097,2.57712615 C157.156591,3.22340138 158.064214,4.12627235 158.719993,5.28576615 C159.375772,6.44525994 159.703657,7.75679883 159.703657,9.22042215 C159.703657,10.6840455 159.375772,11.9955843 158.719993,13.1550781 C158.064214,14.3145719 157.156591,15.2221949 155.997097,15.8779741 C154.837603,16.5337534 153.535568,16.8616381 152.090953,16.8616381 C150.646338,16.8616381 149.344303,16.5337534 148.184809,15.8779741 C147.025315,15.2221949 146.11294,14.3145719 145.447657,13.1550781 C144.782373,11.9955843 144.449737,10.6840455 144.449737,9.22042215 C144.449737,7.75679883 144.782373,6.44525994 145.447657,5.28576615 C146.11294,4.12627235 147.025315,3.22340138 148.184809,2.57712615 C149.344303,1.93085091 150.646338,1.60771815 152.090953,1.60771815 Z M72.3712121,10.9891142 C70.9320941,11.1150208 69.7651308,11.6798169 68.8702872,12.6835197 C67.9754436,13.6872224 67.5263633,14.9333482 67.5230328,16.4219344 L78.1175395,15.4950352 C77.8557693,14.0296423 77.1971241,12.8804299 76.141584,12.0473636 C75.086044,11.2142973 73.8292659,10.8615511 72.3712121,10.9891142 Z M152.23721,3.18981646 C151.172757,3.18981646 150.217614,3.43216604 149.371754,3.91687246 C148.525894,4.40157888 147.86062,5.09061199 147.375914,5.98399246 C146.891208,6.87737293 146.648858,7.89429076 146.648858,9.03477646 C146.648858,10.1752622 146.891208,11.19218 147.375914,12.0855605 C147.86062,12.9789409 148.525894,13.667974 149.371754,14.1526805 C150.217614,14.6373869 151.172757,14.8797365 152.23721,14.8797365 C153.301663,14.8797365 154.256806,14.6373869 155.102666,14.1526805 C155.948526,13.667974 156.609048,12.9789409 157.08425,12.0855605 C157.559452,11.19218 157.79705,10.1752622 157.79705,9.03477646 C157.79705,7.89429076 157.559452,6.87737293 157.08425,5.98399246 C156.609048,5.09061199 155.948526,4.40157888 155.102666,3.91687246 C154.256806,3.43216604 153.301663,3.18981646 152.23721,3.18981646 Z M109.675924,0.326869321 C109.983982,0.576587922 110.154575,0.890800145 110.187708,1.26951541 C110.224155,1.68610221 110.112787,2.04883338 109.8536,2.3577198 C109.594414,2.66660622 109.256532,2.83927016 108.839945,2.87571678 C108.423359,2.9121634 108.060628,2.80079514 107.751741,2.54160866 C107.442855,2.28242218 107.271019,1.95400834 107.236229,1.55635731 C107.203096,1.17764204 107.316121,0.833846351 107.575307,0.524959929 C107.834494,0.216073506 108.172375,0.0434095743 108.588962,0.00696295223 C109.005549,-0.0294836699 109.367866,0.0771507201 109.675924,0.326869321 Z" id="Combined-Shape" fill="#353A50" fill-rule="nonzero"></path>
                    </g>
                    <g id="Group-17" opacity="0.3" transform="translate(166.506643, 21.000000) rotate(-5.000000) translate(-166.506643, -21.000000) translate(147.506643, 2.000000)" fill="#D8D8D8">
                        <g id="Group-16">
                            <g id="Group-15">
                                <circle id="Oval" cx="1" cy="1" r="1"></circle>
                                <circle id="Oval" cx="5" cy="1" r="1"></circle>
                                <circle id="Oval" cx="9" cy="1" r="1"></circle>
                                <circle id="Oval" cx="13" cy="1" r="1"></circle>
                                <circle id="Oval" cx="17" cy="1" r="1"></circle>
                            </g>
                            <g id="Group-15" transform="translate(0.000000, 4.000000)">
                                <circle id="Oval" cx="1" cy="1" r="1"></circle>
                                <circle id="Oval" cx="5" cy="1" r="1"></circle>
                                <circle id="Oval" cx="9" cy="1" r="1"></circle>
                                <circle id="Oval" cx="13" cy="1" r="1"></circle>
                                <circle id="Oval" cx="17" cy="1" r="1"></circle>
                            </g>
                            <g id="Group-15" transform="translate(0.000000, 8.000000)">
                                <circle id="Oval" cx="1" cy="1" r="1"></circle>
                                <circle id="Oval" cx="5" cy="1" r="1"></circle>
                                <circle id="Oval" cx="9" cy="1" r="1"></circle>
                                <circle id="Oval" cx="13" cy="1" r="1"></circle>
                                <circle id="Oval" cx="17" cy="1" r="1"></circle>
                            </g>
                            <g id="Group-15" transform="translate(0.000000, 12.000000)">
                                <circle id="Oval" cx="1" cy="1" r="1"></circle>
                                <circle id="Oval" cx="5" cy="1" r="1"></circle>
                                <circle id="Oval" cx="9" cy="1" r="1"></circle>
                                <circle id="Oval" cx="13" cy="1" r="1"></circle>
                                <circle id="Oval" cx="17" cy="1" r="1"></circle>
                            </g>
                            <g id="Group-15" transform="translate(0.000000, 16.000000)">
                                <circle id="Oval" cx="1" cy="1" r="1"></circle>
                                <circle id="Oval" cx="5" cy="1" r="1"></circle>
                                <circle id="Oval" cx="9" cy="1" r="1"></circle>
                                <circle id="Oval" cx="13" cy="1" r="1"></circle>
                                <circle id="Oval" cx="17" cy="1" r="1"></circle>
                            </g>
                        </g>
                        <g id="Group-16" transform="translate(20.000000, 0.000000)">
                            <g id="Group-15">
                                <circle id="Oval" cx="1" cy="1" r="1"></circle>
                                <circle id="Oval" cx="5" cy="1" r="1"></circle>
                                <circle id="Oval" cx="9" cy="1" r="1"></circle>
                                <circle id="Oval" cx="13" cy="1" r="1"></circle>
                                <circle id="Oval" cx="17" cy="1" r="1"></circle>
                            </g>
                            <g id="Group-15" transform="translate(0.000000, 4.000000)">
                                <circle id="Oval" cx="1" cy="1" r="1"></circle>
                                <circle id="Oval" cx="5" cy="1" r="1"></circle>
                                <circle id="Oval" cx="9" cy="1" r="1"></circle>
                                <circle id="Oval" cx="13" cy="1" r="1"></circle>
                                <circle id="Oval" cx="17" cy="1" r="1"></circle>
                            </g>
                            <g id="Group-15" transform="translate(0.000000, 8.000000)">
                                <circle id="Oval" cx="1" cy="1" r="1"></circle>
                                <circle id="Oval" cx="5" cy="1" r="1"></circle>
                                <circle id="Oval" cx="9" cy="1" r="1"></circle>
                                <circle id="Oval" cx="13" cy="1" r="1"></circle>
                                <circle id="Oval" cx="17" cy="1" r="1"></circle>
                            </g>
                            <g id="Group-15" transform="translate(0.000000, 12.000000)">
                                <circle id="Oval" cx="1" cy="1" r="1"></circle>
                                <circle id="Oval" cx="5" cy="1" r="1"></circle>
                                <circle id="Oval" cx="9" cy="1" r="1"></circle>
                                <circle id="Oval" cx="13" cy="1" r="1"></circle>
                                <circle id="Oval" cx="17" cy="1" r="1"></circle>
                            </g>
                            <g id="Group-15" transform="translate(0.000000, 16.000000)">
                                <circle id="Oval" cx="1" cy="1" r="1"></circle>
                                <circle id="Oval" cx="5" cy="1" r="1"></circle>
                                <circle id="Oval" cx="9" cy="1" r="1"></circle>
                                <circle id="Oval" cx="13" cy="1" r="1"></circle>
                                <circle id="Oval" cx="17" cy="1" r="1"></circle>
                            </g>
                        </g>
                        <g id="Group-16" transform="translate(0.000000, 20.000000)">
                            <g id="Group-15">
                                <circle id="Oval" cx="1" cy="1" r="1"></circle>
                                <circle id="Oval" cx="5" cy="1" r="1"></circle>
                                <circle id="Oval" cx="9" cy="1" r="1"></circle>
                                <circle id="Oval" cx="13" cy="1" r="1"></circle>
                                <circle id="Oval" cx="17" cy="1" r="1"></circle>
                            </g>
                            <g id="Group-15" transform="translate(0.000000, 4.000000)">
                                <circle id="Oval" cx="1" cy="1" r="1"></circle>
                                <circle id="Oval" cx="5" cy="1" r="1"></circle>
                                <circle id="Oval" cx="9" cy="1" r="1"></circle>
                                <circle id="Oval" cx="13" cy="1" r="1"></circle>
                                <circle id="Oval" cx="17" cy="1" r="1"></circle>
                            </g>
                            <g id="Group-15" transform="translate(0.000000, 8.000000)">
                                <circle id="Oval" cx="1" cy="1" r="1"></circle>
                                <circle id="Oval" cx="5" cy="1" r="1"></circle>
                                <circle id="Oval" cx="9" cy="1" r="1"></circle>
                                <circle id="Oval" cx="13" cy="1" r="1"></circle>
                                <circle id="Oval" cx="17" cy="1" r="1"></circle>
                            </g>
                            <g id="Group-15" transform="translate(0.000000, 12.000000)">
                                <circle id="Oval" cx="1" cy="1" r="1"></circle>
                                <circle id="Oval" cx="5" cy="1" r="1"></circle>
                                <circle id="Oval" cx="9" cy="1" r="1"></circle>
                                <circle id="Oval" cx="13" cy="1" r="1"></circle>
                                <circle id="Oval" cx="17" cy="1" r="1"></circle>
                            </g>
                            <g id="Group-15" transform="translate(0.000000, 16.000000)">
                                <circle id="Oval" cx="1" cy="1" r="1"></circle>
                                <circle id="Oval" cx="5" cy="1" r="1"></circle>
                                <circle id="Oval" cx="9" cy="1" r="1"></circle>
                                <circle id="Oval" cx="13" cy="1" r="1"></circle>
                                <circle id="Oval" cx="17" cy="1" r="1"></circle>
                            </g>
                        </g>
                        <g id="Group-16" transform="translate(20.000000, 20.000000)">
                            <g id="Group-15">
                                <circle id="Oval" cx="1" cy="1" r="1"></circle>
                                <circle id="Oval" cx="5" cy="1" r="1"></circle>
                                <circle id="Oval" cx="9" cy="1" r="1"></circle>
                                <circle id="Oval" cx="13" cy="1" r="1"></circle>
                                <circle id="Oval" cx="17" cy="1" r="1"></circle>
                            </g>
                            <g id="Group-15" transform="translate(0.000000, 4.000000)">
                                <circle id="Oval" cx="1" cy="1" r="1"></circle>
                                <circle id="Oval" cx="5" cy="1" r="1"></circle>
                                <circle id="Oval" cx="9" cy="1" r="1"></circle>
                                <circle id="Oval" cx="13" cy="1" r="1"></circle>
                                <circle id="Oval" cx="17" cy="1" r="1"></circle>
                            </g>
                            <g id="Group-15" transform="translate(0.000000, 8.000000)">
                                <circle id="Oval" cx="1" cy="1" r="1"></circle>
                                <circle id="Oval" cx="5" cy="1" r="1"></circle>
                                <circle id="Oval" cx="9" cy="1" r="1"></circle>
                                <circle id="Oval" cx="13" cy="1" r="1"></circle>
                                <circle id="Oval" cx="17" cy="1" r="1"></circle>
                            </g>
                            <g id="Group-15" transform="translate(0.000000, 12.000000)">
                                <circle id="Oval" cx="1" cy="1" r="1"></circle>
                                <circle id="Oval" cx="5" cy="1" r="1"></circle>
                                <circle id="Oval" cx="9" cy="1" r="1"></circle>
                                <circle id="Oval" cx="13" cy="1" r="1"></circle>
                                <circle id="Oval" cx="17" cy="1" r="1"></circle>
                            </g>
                            <g id="Group-15" transform="translate(0.000000, 16.000000)">
                                <circle id="Oval" cx="1" cy="1" r="1"></circle>
                                <circle id="Oval" cx="5" cy="1" r="1"></circle>
                                <circle id="Oval" cx="9" cy="1" r="1"></circle>
                                <circle id="Oval" cx="13" cy="1" r="1"></circle>
                                <circle id="Oval" cx="17" cy="1" r="1"></circle>
                            </g>
                        </g>
                    </g>
                    <g id="Group-17" opacity="0.3" transform="translate(340.744473, 68.966050) rotate(-5.000000) translate(-340.744473, -68.966050) translate(321.744473, 49.966050)" fill="#D8D8D8">
                        <g id="Group-16">
                            <g id="Group-15">
                                <circle id="Oval" cx="1" cy="1" r="1"></circle>
                                <circle id="Oval" cx="5" cy="1" r="1"></circle>
                                <circle id="Oval" cx="9" cy="1" r="1"></circle>
                                <circle id="Oval" cx="13" cy="1" r="1"></circle>
                                <circle id="Oval" cx="17" cy="1" r="1"></circle>
                            </g>
                            <g id="Group-15" transform="translate(0.000000, 4.000000)">
                                <circle id="Oval" cx="1" cy="1" r="1"></circle>
                                <circle id="Oval" cx="5" cy="1" r="1"></circle>
                                <circle id="Oval" cx="9" cy="1" r="1"></circle>
                                <circle id="Oval" cx="13" cy="1" r="1"></circle>
                                <circle id="Oval" cx="17" cy="1" r="1"></circle>
                            </g>
                            <g id="Group-15" transform="translate(0.000000, 8.000000)">
                                <circle id="Oval" cx="1" cy="1" r="1"></circle>
                                <circle id="Oval" cx="5" cy="1" r="1"></circle>
                                <circle id="Oval" cx="9" cy="1" r="1"></circle>
                                <circle id="Oval" cx="13" cy="1" r="1"></circle>
                                <circle id="Oval" cx="17" cy="1" r="1"></circle>
                            </g>
                            <g id="Group-15" transform="translate(0.000000, 12.000000)">
                                <circle id="Oval" cx="1" cy="1" r="1"></circle>
                                <circle id="Oval" cx="5" cy="1" r="1"></circle>
                                <circle id="Oval" cx="9" cy="1" r="1"></circle>
                                <circle id="Oval" cx="13" cy="1" r="1"></circle>
                                <circle id="Oval" cx="17" cy="1" r="1"></circle>
                            </g>
                            <g id="Group-15" transform="translate(0.000000, 16.000000)">
                                <circle id="Oval" cx="1" cy="1" r="1"></circle>
                                <circle id="Oval" cx="5" cy="1" r="1"></circle>
                                <circle id="Oval" cx="9" cy="1" r="1"></circle>
                                <circle id="Oval" cx="13" cy="1" r="1"></circle>
                                <circle id="Oval" cx="17" cy="1" r="1"></circle>
                            </g>
                        </g>
                        <g id="Group-16" transform="translate(20.000000, 0.000000)">
                            <g id="Group-15">
                                <circle id="Oval" cx="1" cy="1" r="1"></circle>
                                <circle id="Oval" cx="5" cy="1" r="1"></circle>
                                <circle id="Oval" cx="9" cy="1" r="1"></circle>
                                <circle id="Oval" cx="13" cy="1" r="1"></circle>
                                <circle id="Oval" cx="17" cy="1" r="1"></circle>
                            </g>
                            <g id="Group-15" transform="translate(0.000000, 4.000000)">
                                <circle id="Oval" cx="1" cy="1" r="1"></circle>
                                <circle id="Oval" cx="5" cy="1" r="1"></circle>
                                <circle id="Oval" cx="9" cy="1" r="1"></circle>
                                <circle id="Oval" cx="13" cy="1" r="1"></circle>
                                <circle id="Oval" cx="17" cy="1" r="1"></circle>
                            </g>
                            <g id="Group-15" transform="translate(0.000000, 8.000000)">
                                <circle id="Oval" cx="1" cy="1" r="1"></circle>
                                <circle id="Oval" cx="5" cy="1" r="1"></circle>
                                <circle id="Oval" cx="9" cy="1" r="1"></circle>
                                <circle id="Oval" cx="13" cy="1" r="1"></circle>
                                <circle id="Oval" cx="17" cy="1" r="1"></circle>
                            </g>
                            <g id="Group-15" transform="translate(0.000000, 12.000000)">
                                <circle id="Oval" cx="1" cy="1" r="1"></circle>
                                <circle id="Oval" cx="5" cy="1" r="1"></circle>
                                <circle id="Oval" cx="9" cy="1" r="1"></circle>
                                <circle id="Oval" cx="13" cy="1" r="1"></circle>
                                <circle id="Oval" cx="17" cy="1" r="1"></circle>
                            </g>
                            <g id="Group-15" transform="translate(0.000000, 16.000000)">
                                <circle id="Oval" cx="1" cy="1" r="1"></circle>
                                <circle id="Oval" cx="5" cy="1" r="1"></circle>
                                <circle id="Oval" cx="9" cy="1" r="1"></circle>
                                <circle id="Oval" cx="13" cy="1" r="1"></circle>
                                <circle id="Oval" cx="17" cy="1" r="1"></circle>
                            </g>
                        </g>
                        <g id="Group-16" transform="translate(0.000000, 20.000000)">
                            <g id="Group-15">
                                <circle id="Oval" cx="1" cy="1" r="1"></circle>
                                <circle id="Oval" cx="5" cy="1" r="1"></circle>
                                <circle id="Oval" cx="9" cy="1" r="1"></circle>
                                <circle id="Oval" cx="13" cy="1" r="1"></circle>
                                <circle id="Oval" cx="17" cy="1" r="1"></circle>
                            </g>
                            <g id="Group-15" transform="translate(0.000000, 4.000000)">
                                <circle id="Oval" cx="1" cy="1" r="1"></circle>
                                <circle id="Oval" cx="5" cy="1" r="1"></circle>
                                <circle id="Oval" cx="9" cy="1" r="1"></circle>
                                <circle id="Oval" cx="13" cy="1" r="1"></circle>
                                <circle id="Oval" cx="17" cy="1" r="1"></circle>
                            </g>
                            <g id="Group-15" transform="translate(0.000000, 8.000000)">
                                <circle id="Oval" cx="1" cy="1" r="1"></circle>
                                <circle id="Oval" cx="5" cy="1" r="1"></circle>
                                <circle id="Oval" cx="9" cy="1" r="1"></circle>
                                <circle id="Oval" cx="13" cy="1" r="1"></circle>
                                <circle id="Oval" cx="17" cy="1" r="1"></circle>
                            </g>
                            <g id="Group-15" transform="translate(0.000000, 12.000000)">
                                <circle id="Oval" cx="1" cy="1" r="1"></circle>
                                <circle id="Oval" cx="5" cy="1" r="1"></circle>
                                <circle id="Oval" cx="9" cy="1" r="1"></circle>
                                <circle id="Oval" cx="13" cy="1" r="1"></circle>
                                <circle id="Oval" cx="17" cy="1" r="1"></circle>
                            </g>
                            <g id="Group-15" transform="translate(0.000000, 16.000000)">
                                <circle id="Oval" cx="1" cy="1" r="1"></circle>
                                <circle id="Oval" cx="5" cy="1" r="1"></circle>
                                <circle id="Oval" cx="9" cy="1" r="1"></circle>
                                <circle id="Oval" cx="13" cy="1" r="1"></circle>
                                <circle id="Oval" cx="17" cy="1" r="1"></circle>
                            </g>
                        </g>
                        <g id="Group-16" transform="translate(20.000000, 20.000000)">
                            <g id="Group-15">
                                <circle id="Oval" cx="1" cy="1" r="1"></circle>
                                <circle id="Oval" cx="5" cy="1" r="1"></circle>
                                <circle id="Oval" cx="9" cy="1" r="1"></circle>
                                <circle id="Oval" cx="13" cy="1" r="1"></circle>
                                <circle id="Oval" cx="17" cy="1" r="1"></circle>
                            </g>
                            <g id="Group-15" transform="translate(0.000000, 4.000000)">
                                <circle id="Oval" cx="1" cy="1" r="1"></circle>
                                <circle id="Oval" cx="5" cy="1" r="1"></circle>
                                <circle id="Oval" cx="9" cy="1" r="1"></circle>
                                <circle id="Oval" cx="13" cy="1" r="1"></circle>
                                <circle id="Oval" cx="17" cy="1" r="1"></circle>
                            </g>
                            <g id="Group-15" transform="translate(0.000000, 8.000000)">
                                <circle id="Oval" cx="1" cy="1" r="1"></circle>
                                <circle id="Oval" cx="5" cy="1" r="1"></circle>
                                <circle id="Oval" cx="9" cy="1" r="1"></circle>
                                <circle id="Oval" cx="13" cy="1" r="1"></circle>
                                <circle id="Oval" cx="17" cy="1" r="1"></circle>
                            </g>
                            <g id="Group-15" transform="translate(0.000000, 12.000000)">
                                <circle id="Oval" cx="1" cy="1" r="1"></circle>
                                <circle id="Oval" cx="5" cy="1" r="1"></circle>
                                <circle id="Oval" cx="9" cy="1" r="1"></circle>
                                <circle id="Oval" cx="13" cy="1" r="1"></circle>
                                <circle id="Oval" cx="17" cy="1" r="1"></circle>
                            </g>
                            <g id="Group-15" transform="translate(0.000000, 16.000000)">
                                <circle id="Oval" cx="1" cy="1" r="1"></circle>
                                <circle id="Oval" cx="5" cy="1" r="1"></circle>
                                <circle id="Oval" cx="9" cy="1" r="1"></circle>
                                <circle id="Oval" cx="13" cy="1" r="1"></circle>
                                <circle id="Oval" cx="17" cy="1" r="1"></circle>
                            </g>
                        </g>
                    </g>
                </g>
                <g id="Group-12" transform="translate(204.791475, 0.000000)" fill="#333A54" fill-rule="nonzero">
                    <path d="M202.530542,125.5 C202.530542,56.1882639 146.342278,0 77.0305415,0 C48.7323681,0 21.8633856,9.39303997 -2.84217094e-14,26.4142525 L0.614308374,27.2033185 C22.303615,10.317631 48.9568886,1 77.0305415,1 C145.789993,1 201.530542,56.7405486 201.530542,125.5 L202.530542,125.5 Z" id="Path"></path>
                    <path d="M137.54437,235.473384 C138.424644,234.987977 139.299018,234.492004 140.167308,233.985586 L139.6635,233.121771 C138.802136,233.624148 137.93474,234.116163 137.061492,234.597697 L137.54437,235.473384 Z M142.747065,232.439236 C143.601557,231.913017 144.449708,231.376569 145.291337,230.830021 L144.746708,229.991345 C143.911778,230.533541 143.07038,231.065718 142.222694,231.587746 L142.747065,232.439236 Z M147.803788,229.155213 C148.633352,228.587719 149.456098,228.010292 150.271847,227.423069 L149.687619,226.61148 C148.878351,227.194037 148.062143,227.766875 147.239173,228.329859 L147.803788,229.155213 Z M152.701835,225.629194 C153.502526,225.02314 154.295962,224.40752 155.081966,223.782481 L154.45956,222.999787 C153.67979,223.619868 152.89265,224.230603 152.098313,224.831848 L152.701835,225.629194 Z M157.407223,221.88784 C158.178803,221.243735 158.942675,220.590417 159.698667,219.928042 L159.039665,219.175901 C158.289664,219.833028 157.531845,220.481168 156.76638,221.120168 L157.407223,221.88784 Z M161.949134,217.908095 C162.68832,217.228466 163.419382,216.540032 164.142154,215.842954 L163.447957,215.123169 C162.730909,215.814727 162.005636,216.497708 161.272305,217.171955 L161.949134,217.908095 Z M166.29395,213.71733 C167.000252,213.002705 167.698005,212.279671 168.387046,211.548396 L167.659234,210.862619 C166.97565,211.588103 166.283423,212.305411 165.582713,213.014377 L166.29395,213.71733 Z M170.433736,209.323481 C171.104346,208.576725 171.766025,207.822 172.418616,207.059479 L171.658867,206.409261 C171.011447,207.165741 170.355012,207.914486 169.689714,208.655326 L170.433736,209.323481 Z M174.33005,204.771896 C174.964495,203.994103 175.589627,203.208772 176.205297,202.416077 L175.415525,201.802677 C174.804739,202.589083 174.184565,203.368186 173.555151,204.139811 L174.33005,204.771896 Z M178.032982,200.003619 C178.629429,199.196371 179.2162,198.38203 179.793154,197.560773 L178.974894,196.985925 C178.402524,197.800656 177.820414,198.608529 177.228704,199.409366 L178.032982,200.003619 Z M181.498801,195.069882 C182.055779,194.235166 182.602743,193.39381 183.139561,192.545996 L182.294683,192.011036 C181.762138,192.852102 181.219527,193.686762 180.666981,194.514837 L181.498801,195.069882 Z M184.725672,189.972988 C185.242448,189.111616 185.748872,188.244049 186.244821,187.370471 L185.375192,186.876765 C184.8832,187.743374 184.380815,188.604022 183.868158,189.458527 L184.725672,189.972988 Z M187.706731,184.721413 C188.181341,183.836285 188.645308,182.945427 189.09852,182.049022 L188.206096,181.597823 C187.756508,182.487062 187.296248,183.3708 186.825431,184.248856 L187.706731,184.721413 Z M190.431682,179.33092 C190.862664,178.424613 191.282755,177.513051 191.691851,176.596411 L190.77867,176.188858 C190.37285,177.098155 189.956123,178.002418 189.528592,178.901467 L190.431682,179.33092 Z M192.894825,173.810433 C193.281434,172.884287 193.656917,171.953346 194.021178,171.01779 L193.089319,170.654968 C192.727981,171.583019 192.35551,172.506492 191.972001,173.42521 L192.894825,173.810433 Z M195.057087,168.261289 C195.399105,167.31747 195.729788,166.369307 196.049052,165.416976 L195.100913,165.099118 C194.784214,166.043802 194.456185,166.984351 194.116913,167.920592 L195.057087,168.261289 Z M196.97466,162.540633 C197.270464,161.581666 197.55477,160.618813 197.8275,159.652241 L196.865078,159.380682 C196.594538,160.339491 196.312516,161.294611 196.019088,162.245876 L196.97466,162.540633 Z M198.610961,156.741264 C198.859975,155.769328 199.097359,154.793951 199.323044,153.815297 L198.348618,153.590586 C198.124743,154.561389 197.889264,155.52894 197.642249,156.493077 L198.610961,156.741264 Z M199.965969,150.864639 C200.167721,149.881667 200.357738,148.895687 200.53596,147.906859 L199.551817,147.729482 C199.375022,148.710397 199.186526,149.688483 198.986389,150.663582 L199.965969,150.864639 Z M201.035796,144.927991 C201.189842,143.936778 201.332094,142.942982 201.462498,141.946753 L200.470957,141.816962 C200.341592,142.80525 200.200475,143.79112 200.047658,144.774423 L201.035796,144.927991 Z M201.819243,138.940376 C201.925432,137.943049 202.019798,136.943546 202.102296,135.942012 L201.105672,135.859918 C201.023827,136.853515 200.930209,137.845091 200.824864,138.834501 L201.819243,138.940376 Z M202.314367,132.92765 C202.372805,131.926469 202.419427,130.923503 202.454194,129.918888 L201.454792,129.884302 C201.420299,130.881017 201.374044,131.876088 201.316066,132.869379 L202.314367,132.92765 Z M202.522905,126.898891 C202.527971,126.435075 202.530518,125.970954 202.530541,125.50654 L201.530541,125.506489 C201.530518,125.967279 201.527991,126.427777 201.522965,126.88797 L202.522905,126.898891 Z" id="Path"></path>
                </g>
            </g>
        </g>
    </g>
</svg>