<?xml version="1.0" encoding="UTF-8"?>
<svg width="1051px" height="226px" viewBox="0 0 1051 226" version="1.1" xmlns="http://www.w3.org/2000/svg" xmlns:xlink="http://www.w3.org/1999/xlink">
    <!-- Generator: Sketch 52.6 (67491) - http://www.bohemiancoding.com/sketch -->
    <title>Group 38</title>
    <desc>Created with Sketch.</desc>
    <g id="Homepage" stroke="none" stroke-width="1" fill="none" fill-rule="evenodd">
        <g id="Life" transform="translate(-211.000000, -2794.000000)">
            <g id="Group-22" transform="translate(211.000000, 2794.000000)">
                <g id="Group-39">
                    <g id="Group-38">
                        <g id="Group-37">
                            <g id="Group-19" transform="translate(0.000000, 116.000000)" fill-rule="nonzero">
                                <g id="Group-32" transform="translate(0.000000, 5.000000)">
                                    <polygon id="Star-Copy" fill="#FFFFFF" points="122.5 8.25 119.267181 9.94959347 119.884595 6.34979673 117.269189 3.80040653 120.883591 3.27520327 122.5 0 124.116409 3.27520327 127.730811 3.80040653 125.115405 6.34979673 125.732819 9.94959347"></polygon>
                                    <polygon id="Star-Copy" stroke="#FFFFFF" points="145.5 93.25 142.267181 94.9495935 142.884595 91.3497967 140.269189 88.8004065 143.883591 88.2752033 145.5 85 147.116409 88.2752033 150.730811 88.8004065 148.115405 91.3497967 148.732819 94.9495935"></polygon>
                                    <polygon id="Star-Copy-5" fill="#FFFFFF" points="5.5 63.25 2.26718111 64.9495935 2.88459458 61.3497967 0.26918916 58.8004065 3.88359056 58.2752033 5.5 55 7.11640944 58.2752033 10.7308108 58.8004065 8.11540542 61.3497967 8.73281889 64.9495935"></polygon>
                                    <path d="M97.5,14 L97.5,84" id="Line-2" stroke="#FFFFFF" stroke-linecap="round" stroke-linejoin="round" stroke-dasharray="1,5" transform="translate(97.500000, 49.000000) rotate(-90.000000) translate(-97.500000, -49.000000) "></path>
                                    <path d="M197.5,-6 L197.5,104" id="Line-2-Copy-3" stroke="#FFFFFF" stroke-linecap="round" stroke-linejoin="round" transform="translate(197.500000, 49.000000) rotate(-90.000000) translate(-197.500000, -49.000000) "></path>
                                </g>
                                <g id="Group-33" transform="translate(775.000000, 0.000000)">
                                    <polygon id="Star-Copy-8" stroke="#FFFFFF" points="270.5 69.25 267.267181 70.9495935 267.884595 67.3497967 265.269189 64.8004065 268.883591 64.2752033 270.5 61 272.116409 64.2752033 275.730811 64.8004065 273.115405 67.3497967 273.732819 70.9495935"></polygon>
                                    <polygon id="Star-Copy-7" stroke="#FFFFFF" points="133.5 8.25 130.267181 9.94959347 130.884595 6.34979673 128.269189 3.80040653 131.883591 3.27520327 133.5 0 135.116409 3.27520327 138.730811 3.80040653 136.115405 6.34979673 136.732819 9.94959347"></polygon>
                                    <polygon id="Star-Copy-6" fill="#FFFFFF" points="30.5 92.25 27.2671811 93.9495935 27.8845946 90.3497967 25.2691892 87.8004065 28.8835906 87.2752033 30.5 84 32.1164094 87.2752033 35.7308108 87.8004065 33.1154054 90.3497967 33.7328189 93.9495935"></polygon>
                                    <g id="Group-Copy-3" transform="translate(100.500000, 54.000000) scale(-1, 1) rotate(-90.000000) translate(-100.500000, -54.000000) translate(100.000000, -46.000000)" stroke="#FFFFFF" stroke-linecap="round" stroke-linejoin="round">
                                        <path d="M0.5,7.2475359e-13 L0.5,80" id="Line-2" stroke-dasharray="1,5"></path>
                                        <path d="M0.5,90 L0.5,200" id="Line-2-Copy-3"></path>
                                    </g>
                                </g>
                            </g>
                            <g id="Group-30" transform="translate(311.000000, 0.000000)">
                                <text id="Be-a-part-of-Copy-2" transform="translate(102.738281, 55.769531) rotate(-5.000000) translate(-102.738281, -55.769531) " font-family="SourceSansPro-SemiBold, Source Sans Pro" font-size="32" font-weight="500" line-spacing="42" fill="#FFFFFF">
                                    <tspan x="24.5942812" y="65.7695312">Be a part of</tspan>
                                </text>
                                <g id="Group-7">
                                    <g id="A_World" transform="translate(28.720000, 0.000000)" fill="#FFFFFF">
                                        <g id="Group-4" transform="translate(0.000000, 58.152364)">
                                            <g id="Group-2" transform="translate(0.000000, 0.261209)">
                                                <path d="M2.65220186,14.068913 L322.332202,14.068913 L322.332202,68.811953 L2.65220186,68.811953 L2.65220186,14.068913 Z M71.7250759,40.6351097 L77.1010759,40.6351097 L77.1010759,34.8751097 L72.4546759,34.8751097 L73.1074759,29.6143097 L66.9634759,29.6143097 L66.3106759,34.8751097 L62.5090759,34.8751097 L63.1618759,29.6143097 L57.0178759,29.6143097 L56.3650759,34.8751097 L50.9890759,34.8751097 L50.9890759,40.6351097 L55.6354759,40.6351097 L55.0594759,45.4735097 L49.6834759,45.4735097 L49.6834759,51.2335097 L54.3298759,51.2335097 L53.6770759,56.4943097 L59.8210759,56.4943097 L60.4738759,51.2335097 L64.2754759,51.2335097 L63.6226759,56.4943097 L69.7666759,56.4943097 L70.4194759,51.2335097 L75.7954759,51.2335097 L75.7954759,45.4735097 L71.1490759,45.4735097 L71.7250759,40.6351097 Z M65.5810759,40.6351097 L65.0050759,45.4735097 L61.2034759,45.4735097 L61.7794759,40.6351097 L65.5810759,40.6351097 Z M98.1058759,51.8095097 L99.9106759,56.4943097 L109.280276,56.4943097 L97.5298759,29.6143097 L88.6210759,29.6143097 L76.8706759,56.4943097 L86.0866759,56.4943097 L87.8914759,51.8095097 L98.1058759,51.8095097 Z M95.6098759,45.2815097 L90.3874759,45.2815097 L92.9986759,38.5231097 L95.6098759,45.2815097 Z M152.941076,29.6143097 L144.339476,29.6143097 L139.385876,45.0895097 L134.701076,29.6143097 L126.368276,29.6143097 L121.414676,44.8975097 L116.729876,29.6143097 L107.398676,29.6143097 L116.000276,56.4943097 L125.715476,56.4943097 L130.285076,42.1327097 L134.624276,56.4943097 L144.339476,56.4943097 L152.941076,29.6143097 Z M164.230676,56.8783097 C166.585888,56.8783097 168.691467,56.4111144 170.547476,55.4767097 C172.403485,54.542305 173.849871,53.249518 174.886676,51.5983097 C175.923481,49.9471014 176.441876,48.0719202 176.441876,45.9727097 C176.441876,43.8734992 175.923481,41.998318 174.886676,40.3471097 C173.849871,38.6959014 172.403485,37.4095143 170.547476,36.4879097 C168.691467,35.5663051 166.585888,35.1055097 164.230676,35.1055097 C161.901064,35.1055097 159.808285,35.5663051 157.952276,36.4879097 C156.096267,37.4095143 154.643481,38.6959014 153.593876,40.3471097 C152.544271,41.998318 152.019476,43.8734992 152.019476,45.9727097 C152.019476,48.0719202 152.544271,49.9471014 153.593876,51.5983097 C154.643481,53.249518 156.096267,54.542305 157.952276,55.4767097 C159.808285,56.4111144 161.901064,56.8783097 164.230676,56.8783097 Z M164.230676,50.1199097 C163.232271,50.1199097 162.413079,49.7551133 161.773076,49.0255097 C161.133073,48.2959061 160.813076,47.2783162 160.813076,45.9727097 C160.813076,44.6671032 161.133073,43.6559133 161.773076,42.9391097 C162.413079,42.2223061 163.232271,41.8639097 164.230676,41.8639097 C165.229081,41.8639097 166.048273,42.2223061 166.688276,42.9391097 C167.328279,43.6559133 167.648276,44.6671032 167.648276,45.9727097 C167.648276,47.2783162 167.328279,48.2959061 166.688276,49.0255097 C166.048273,49.7551133 165.229081,50.1199097 164.230676,50.1199097 Z M187.424276,37.7551097 L187.424276,35.4895097 L179.168276,35.4895097 L179.168276,56.4943097 L187.846676,56.4943097 L187.846676,47.1631097 C187.846676,44.1422946 189.331461,42.6319097 192.301076,42.6319097 C192.889879,42.6319097 193.529872,42.6831092 194.221076,42.7855097 L194.221076,35.1055097 C191.225861,35.1055097 188.960284,35.9887009 187.424276,37.7551097 Z M196.678676,28.0015097 L196.678676,56.4943097 L205.357076,56.4943097 L205.357076,28.0015097 L196.678676,28.0015097 Z M232.429076,28.0015097 L223.750676,28.0015097 L223.750676,36.9103097 C222.52187,35.7071037 220.742688,35.1055097 218.413076,35.1055097 C216.569867,35.1055097 214.873884,35.5471053 213.325076,36.4303097 C211.776268,37.3135141 210.54748,38.5807014 209.638676,40.2319097 C208.729871,41.883118 208.275476,43.7966988 208.275476,45.9727097 C208.275476,48.1487206 208.729871,50.0687014 209.638676,51.7327097 C210.54748,53.396718 211.776268,54.6703053 213.325076,55.5535097 C214.873884,56.4367141 216.569867,56.8783097 218.413076,56.8783097 C220.998689,56.8783097 222.91867,56.1743167 224.173076,54.7663097 L224.173076,56.4943097 L232.429076,56.4943097 L232.429076,28.0015097 Z M220.486676,50.1199097 C219.488271,50.1199097 218.669079,49.7551133 218.029076,49.0255097 C217.389073,48.2959061 217.069076,47.2783162 217.069076,45.9727097 C217.069076,44.6671032 217.389073,43.6559133 218.029076,42.9391097 C218.669079,42.2223061 219.488271,41.8639097 220.486676,41.8639097 C221.485081,41.8639097 222.304273,42.2223061 222.944276,42.9391097 C223.584279,43.6559133 223.904276,44.6671032 223.904276,45.9727097 C223.904276,47.2783162 223.584279,48.2959061 222.944276,49.0255097 C222.304273,49.7551133 221.485081,50.1199097 220.486676,50.1199097 Z M247.366676,56.8783097 C249.721888,56.8783097 251.827467,56.4111144 253.683476,55.4767097 C255.539485,54.542305 256.985871,53.249518 258.022676,51.5983097 C259.059481,49.9471014 259.577876,48.0719202 259.577876,45.9727097 C259.577876,43.8734992 259.059481,41.998318 258.022676,40.3471097 C256.985871,38.6959014 255.539485,37.4095143 253.683476,36.4879097 C251.827467,35.5663051 249.721888,35.1055097 247.366676,35.1055097 C245.037064,35.1055097 242.944285,35.5663051 241.088276,36.4879097 C239.232267,37.4095143 237.779481,38.6959014 236.729876,40.3471097 C235.680271,41.998318 235.155476,43.8734992 235.155476,45.9727097 C235.155476,48.0719202 235.680271,49.9471014 236.729876,51.5983097 C237.779481,53.249518 239.232267,54.542305 241.088276,55.4767097 C242.944285,56.4111144 245.037064,56.8783097 247.366676,56.8783097 Z M247.366676,50.1199097 C246.368271,50.1199097 245.549079,49.7551133 244.909076,49.0255097 C244.269073,48.2959061 243.949076,47.2783162 243.949076,45.9727097 C243.949076,44.6671032 244.269073,43.6559133 244.909076,42.9391097 C245.549079,42.2223061 246.368271,41.8639097 247.366676,41.8639097 C248.365081,41.8639097 249.184273,42.2223061 249.824276,42.9391097 C250.464279,43.6559133 250.784276,44.6671032 250.784276,45.9727097 C250.784276,47.2783162 250.464279,48.2959061 249.824276,49.0255097 C249.184273,49.7551133 248.365081,50.1199097 247.366676,50.1199097 Z M271.673876,36.6415097 L271.673876,36.6031097 C271.673876,35.7839056 271.859474,35.1759117 272.230676,34.7791097 C272.601878,34.3823077 273.107473,34.1839097 273.747476,34.1839097 C274.336279,34.1839097 274.989072,34.350308 275.705876,34.6831097 L277.779476,28.6543097 C277.165073,28.321508 276.397081,28.0655106 275.475476,27.8863097 C274.553871,27.7071088 273.606681,27.6175097 272.633876,27.6175097 C269.664261,27.6175097 267.360284,28.4175017 265.721876,30.0175097 C264.083468,31.6175177 263.264276,33.787096 263.264276,36.5263097 L263.264276,36.6415097 L260.384276,36.6415097 L260.384276,42.9775097 L263.264276,42.9775097 L263.264276,56.4943097 L271.942676,56.4943097 L271.942676,42.9775097 L276.243476,42.9775097 L276.243476,36.6415097 L271.673876,36.6415097 Z" id="Combined-Shape" transform="translate(162.492202, 41.440433) rotate(-5.000000) translate(-162.492202, -41.440433) "></path>
                                            </g>
                                        </g>
                                        <g id="Group-12" transform="translate(196.599816, 0.000000)" fill-rule="nonzero">
                                            <path d="M194.42932,120.48 C194.42932,53.9407333 140.488587,0 73.9493199,0 C46.7830734,0 20.9888501,9.01731837 -2.84217094e-14,25.3576824 L0.589736039,26.1151858 C21.4114704,9.90492575 46.9986131,0.96 73.9493199,0.96 C139.958393,0.96 193.46932,54.4709267 193.46932,120.48 L194.42932,120.48 Z" id="Path"></path>
                                            <path d="M132.042595,226.054449 C132.887658,225.588458 133.727057,225.112324 134.560616,224.626163 L134.07696,223.7969 C133.250051,224.279182 132.41735,224.751517 131.579032,225.213789 L132.042595,226.054449 Z M137.037182,223.141666 C137.857494,222.636496 138.671719,222.121506 139.479684,221.596821 L138.95684,220.791691 C138.155307,221.3122 137.347565,221.823089 136.533786,222.324236 L137.037182,223.141666 Z M141.891636,219.989005 C142.688018,219.44421 143.477854,218.88988 144.260973,218.326147 L143.700114,217.547021 C142.923217,218.106275 142.139657,218.6562 141.349606,219.196664 L141.891636,219.989005 Z M146.593762,216.604026 C147.362425,216.022214 148.124123,215.431219 148.878687,214.831182 L148.281177,214.079796 C147.532599,214.675073 146.776944,215.261379 146.01438,215.838574 L146.593762,216.604026 Z M151.110935,213.012327 C151.851651,212.393986 152.584968,211.766801 153.31072,211.13092 L152.678078,210.408865 C151.958077,211.039707 151.230571,211.661921 150.495725,212.275362 L151.110935,213.012327 Z M155.471169,209.191771 C156.180787,208.539327 156.882607,207.878431 157.576468,207.209236 L156.910039,206.518243 C156.221673,207.182137 155.525411,207.8378 154.821413,208.485077 L155.471169,209.191771 Z M159.642192,205.168637 C160.320242,204.482596 160.990085,203.788484 161.651564,203.08646 L160.952865,202.428114 C160.296624,203.124578 159.632086,203.813194 158.959405,204.493802 L159.642192,205.168637 Z M163.616386,200.950542 C164.260172,200.233656 164.895384,199.50912 165.521871,198.7771 L164.792513,198.152891 C164.17099,198.879111 163.540811,199.597906 162.902125,200.309113 L163.616386,200.950542 Z M167.356848,196.58102 C167.965916,195.834339 168.566042,195.080421 169.157085,194.319434 L168.398904,193.73057 C167.812549,194.48552 167.217183,195.233459 166.612945,195.974219 L167.356848,196.58102 Z M170.911663,192.003474 C171.484252,191.228516 172.047552,190.446749 172.601428,189.658343 L171.815898,189.106488 C171.266423,189.88863 170.707598,190.664188 170.139556,191.432991 L170.911663,192.003474 Z M174.238849,187.267087 C174.773548,186.465759 175.298633,185.658058 175.813979,184.844156 L175.002896,184.330595 C174.491652,185.138018 173.970746,185.939291 173.440302,186.734243 L174.238849,187.267087 Z M177.336645,182.374068 C177.83275,181.547151 178.318917,180.714287 178.795028,179.875652 L177.960185,179.401694 C177.487872,180.233639 177.005582,181.059861 176.513432,181.880185 L177.336645,182.374068 Z M180.198462,177.332557 C180.654087,176.482833 181.099496,175.62761 181.534579,174.767061 L180.677852,174.33391 C180.246247,175.18758 179.804398,176.035968 179.352413,176.878902 L180.198462,177.332557 Z M182.814415,172.157683 C183.228157,171.287629 183.631445,170.412529 184.024177,169.532555 L183.147523,169.141304 C182.757936,170.014229 182.357878,170.882321 181.947449,171.745409 L182.814415,172.157683 Z M185.179032,166.858016 C185.550177,165.968915 185.91064,165.075213 186.260331,164.177078 L185.365747,163.82877 C185.018861,164.719699 184.66129,165.606232 184.293121,166.488202 L185.179032,166.858016 Z M187.254803,161.530837 C187.58314,160.624771 187.900597,159.714535 188.20709,158.800297 L187.296877,158.495153 C186.992845,159.40205 186.677938,160.304977 186.352237,161.203768 L187.254803,161.530837 Z M189.095674,156.039007 C189.379646,155.1184 189.652579,154.19406 189.9144,153.266152 L188.990475,153.005454 C188.730757,153.925911 188.460015,154.842827 188.178325,155.756041 L189.095674,156.039007 Z M190.666522,150.471614 C190.905576,149.538555 191.133464,148.602193 191.350122,147.662685 L190.414674,147.446963 C190.199754,148.378934 189.973694,149.307783 189.736559,150.233353 L190.666522,150.471614 Z M191.96733,144.830053 C192.161013,143.8864 192.343429,142.93986 192.514521,141.990584 L191.569744,141.820303 C191.400021,142.761981 191.219065,143.700944 191.026933,144.637039 L191.96733,144.830053 Z M192.994364,139.130871 C193.142248,138.179307 193.27881,137.225262 193.403998,136.268883 L192.452119,136.144284 C192.327928,137.09304 192.192456,138.039475 192.045752,138.983446 L192.994364,139.130871 Z M193.746473,133.382761 C193.848414,132.425327 193.939006,131.465804 194.018205,130.504331 L193.061445,130.425521 C192.982874,131.379374 192.893001,132.331287 192.791869,133.281121 L193.746473,133.382761 Z M194.221792,127.610544 C194.277893,126.64941 194.32265,125.686562 194.356026,124.722133 L193.396601,124.68893 C193.363487,125.645776 193.319082,126.601044 193.263423,127.554604 L194.221792,127.610544 Z M194.421989,121.822936 C194.426852,121.377672 194.429297,120.932115 194.42932,120.486278 L193.46932,120.486229 C193.469297,120.928588 193.466872,121.370666 193.462046,121.812451 L194.421989,121.822936 Z" id="Path"></path>
                                        </g>
                                    </g>
                                    <g id="Group-5" transform="translate(195.837048, 184.919755) rotate(-5.000000) translate(-195.837048, -184.919755) translate(5.757048, 120.119755)"></g>
                                    <path d="M345.60166,188.257381 C343.659297,187.614823 339.951671,187.370928 334.478673,187.525689 C329.005674,187.68045 322.834501,188.037351 315.964969,188.596403 C309.095438,189.155455 302.064637,189.876604 294.872358,190.759873 C287.680078,191.643142 281.39357,192.491993 276.012645,193.306452 C262.612001,195.303664 250.759279,197.95723 240.454123,201.267228 C230.148968,204.577226 222.37265,207.480318 217.124938,209.976592 C221.420079,209.656294 225.864528,209.587976 230.458418,209.771635 C235.052309,209.955294 239.303553,210.275589 243.212278,210.73253 C247.121003,211.189472 250.499151,211.641141 253.346824,212.087553 C256.194498,212.533964 258.110263,212.872502 259.094179,213.103176 C260.699591,213.51359 261.632558,214.106674 261.893107,214.882444 C262.023381,215.270329 262.024116,215.593807 261.895311,215.852886 C261.455022,215.698614 260.02484,215.520713 257.604722,215.319178 C255.184603,215.117644 252.305139,214.897747 248.966243,214.659481 C245.627346,214.421215 242.010324,214.190053 238.115067,213.96599 C234.21981,213.741926 230.45415,213.582268 226.817973,213.48701 C223.181796,213.391751 219.908086,213.347428 216.996744,213.354039 C214.085403,213.36065 212.009,213.507696 210.767474,213.795181 C209.966237,214.236939 209.144075,214.005901 208.300964,213.10206 C207.457853,212.198219 206.840896,211.164486 206.450072,210.000831 C205.851104,208.345953 206.946667,206.467286 209.736795,204.364774 C212.526923,202.262261 216.830693,200.072239 222.648235,197.794641 C228.465776,195.517042 235.810014,193.223072 244.68117,190.912661 C253.552326,188.60225 263.756561,186.502343 275.294182,184.612876 C281.347539,183.615739 287.465942,182.812556 293.649573,182.203304 C299.833205,181.594053 305.583563,181.108715 310.90082,180.747279 C316.218077,180.385842 320.953436,180.219819 325.107038,180.249206 C329.26064,180.278592 332.424647,180.446086 334.599153,180.751693 C339.854211,181.490244 343.272764,182.640536 344.854913,184.202607 C346.437062,185.764677 346.685975,187.116255 345.60166,188.257381 Z" id="Bottom_Line" fill="#FF9938" fill-rule="nonzero" transform="translate(276.277175, 198.049389) rotate(-5.000000) translate(-276.277175, -198.049389) "></path>
                                    <path d="M94.2201449,174.3892 C93.4795768,172.221538 92.7595908,170.053907 92.0601653,167.886244 C91.3607399,165.718582 91.0933165,163.550951 91.2578872,161.383289 C90.8464605,161.049802 90.537895,160.945589 90.3321817,161.070647 C90.1264683,161.195704 89.941329,161.383287 89.7767583,161.633402 C89.2830463,162.300376 88.8304836,163.009024 88.4190569,163.759369 L87.1847829,166.010392 C86.4442147,167.761196 85.6419446,169.428604 84.7779485,171.012666 C83.9139523,172.596727 82.8648299,174.097394 81.6305497,175.514712 C81.3014083,175.598084 81.0134139,175.639769 80.7665578,175.639769 C80.5197018,175.639769 80.2317074,175.681454 79.902566,175.764826 C78.7505711,176.01494 77.8660169,176.181681 77.2488768,176.265053 C76.6317367,176.348425 76.0557479,176.39011 75.5208932,176.39011 C74.9860384,176.39011 74.4100496,176.306739 73.7929095,176.139996 C73.1757694,175.973253 72.3734993,175.723142 71.3860751,175.389655 C68.8352293,174.63931 67.2306891,172.846847 66.5724063,170.012211 C66.1609796,168.42815 65.9141273,166.927482 65.8318419,165.510164 C65.6672712,163.75936 65.7289843,162.050267 66.016983,160.382834 C66.3049817,158.715401 66.5724051,157.047993 66.8192612,155.38056 C67.8066853,148.460714 69.4523676,141.999508 71.7563573,135.99675 C72.2500694,134.829547 72.7643451,133.745732 73.2991999,132.745272 C73.8340546,131.744812 74.5128986,130.786052 75.335752,129.868964 C75.6648934,129.868964 76.0146009,129.848122 76.384885,129.806436 C76.755169,129.76475 77.1460186,129.827278 77.5574453,129.994021 L81.4454086,131.307118 C82.8031168,131.765662 84.0579495,132.453468 85.2099444,133.370556 C85.3745151,133.620671 85.4979413,133.870783 85.5802266,134.120897 C85.662512,134.371012 85.7859381,134.704494 85.9505088,135.121352 C85.5390821,135.621582 85.1276615,136.080119 84.7162348,136.496977 L83.4819607,137.747545 C83.5642461,137.99766 83.6053881,138.268614 83.6053881,138.560415 C83.6053881,138.852216 83.6876722,139.20654 83.8522429,139.623398 C83.1116748,142.207919 82.4328309,144.813244 81.8156908,147.439451 C81.1985507,150.065658 80.8077011,152.837723 80.6431304,155.755731 L81.13684,156.506072 C83.029403,153.754808 84.7985115,150.941057 86.4442184,148.064735 C88.0899254,145.188413 89.6533235,142.374662 91.1344598,139.623398 C91.3813158,138.70631 91.6487392,137.830921 91.9367379,136.997204 C92.2247366,136.163488 92.49216,135.288099 92.7390161,134.371011 C93.3150135,134.120896 93.8704313,133.870783 94.405286,133.62067 C94.9401408,133.370555 95.4544165,133.120444 95.9481286,132.870329 L98.6635315,133.870783 C99.5686703,134.20427 100.473796,134.579437 101.378934,134.996295 C102.448644,135.996755 102.983491,137.372366 102.983491,139.123171 C102.983491,141.207462 103.004062,143.270879 103.045204,145.313484 C103.086347,147.35609 103.106918,149.419507 103.106918,151.503798 C103.106918,151.920656 103.086347,152.316666 103.045204,152.691838 C103.004062,153.067011 103.065775,153.421335 103.230345,153.754821 C103.394916,154.671909 103.559484,155.568141 103.724055,156.443543 C103.888626,157.318946 104.094336,158.298548 104.341192,159.382379 C104.752619,158.632034 105.102326,157.860858 105.390325,157.068828 C105.678324,156.276797 105.945747,155.547306 106.192603,154.880333 C107.509169,151.045237 109.051996,147.37694 110.821131,143.875331 C112.590266,140.373722 114.544513,136.872165 116.683932,133.370556 C117.342215,132.370096 118.021059,131.369652 118.720485,130.369192 C119.41991,129.368732 120.139896,128.409972 120.880464,127.492884 C121.867888,126.492425 123.061008,125.49198 124.459859,124.49152 C125.776425,124.908378 127.051828,125.262703 128.286108,125.554503 C129.520389,125.846304 130.672366,126.575795 131.742076,127.742998 C131.166078,128.660086 130.610661,129.452105 130.075806,130.119078 C129.540951,130.786051 128.985533,131.4947 128.409536,132.245044 C127.998109,132.912018 127.566118,133.558138 127.113548,134.183425 C126.660979,134.808713 126.187845,135.496519 125.694133,136.246863 C125.282706,136.997204 124.830144,137.747542 124.336432,138.497887 C123.842719,139.248231 123.307873,140.206991 122.731875,141.374194 C122.64959,141.957795 122.464451,142.541388 122.176452,143.12499 C121.888453,143.708591 121.559317,144.292184 121.189033,144.875785 C120.818749,145.459387 120.44847,146.084665 120.078186,146.751638 C119.707902,147.418611 119.399337,148.12726 119.152481,148.877604 C118.741054,150.294922 118.206207,151.670534 117.547924,153.00448 C116.889642,154.338427 116.231369,155.755731 115.573086,157.256413 L114.585667,158.256868 C114.585667,158.590354 114.606238,158.902993 114.64738,159.194794 C114.688523,159.486595 114.709094,159.882604 114.709094,160.382834 C114.379953,160.966435 113.886248,161.675084 113.227965,162.5088 C113.14568,162.925658 113.063396,163.446723 112.98111,164.072011 C112.898825,164.697298 112.816541,165.385104 112.734256,166.135449 C112.4874,166.302192 112.219976,166.489775 111.931977,166.698204 C111.643979,166.906634 111.335413,167.135902 111.006272,167.386017 C110.841701,167.55276 110.800559,167.761186 110.882844,168.011301 C111.129701,168.928389 111.294269,169.678723 111.376554,170.262324 C111.458839,170.845926 111.438268,171.346148 111.31484,171.763007 C111.191412,172.179865 110.985702,172.575874 110.697703,172.951047 C110.409705,173.326219 109.977713,173.805599 109.401716,174.3892 C109.484001,175.056173 109.525143,175.702294 109.525143,176.327581 C109.525143,176.952869 109.113722,177.598989 108.290869,178.265962 C107.468016,178.682821 106.56289,179.016302 105.575466,179.266417 C104.588042,179.516532 103.518348,179.558217 102.366354,179.391474 C100.720647,179.224731 99.2395326,178.787036 97.922967,178.078377 C96.6064015,177.369718 95.3721398,176.140005 94.2201449,174.3892 Z M138.472151,170.937726 C138.305136,172.096795 138.200753,173.255847 138.158999,174.414917 C138.117245,175.573986 138.096368,176.774433 138.096368,178.016293 C139.265476,177.767921 139.933528,177.560947 140.100544,177.395366 C142.021221,176.319087 143.774857,175.056548 145.361504,173.607712 C146.948151,172.158875 148.49302,170.565178 149.996159,168.826574 C152.083853,166.425645 154.025378,163.96266 155.820794,161.437544 C157.61621,158.912429 159.432476,156.283865 161.269646,153.551772 L162.772777,151.316436 C163.941885,151.564808 164.83958,151.771781 165.465888,151.937362 C166.092196,152.102944 166.634988,152.268523 167.09428,152.434104 C167.553573,152.599685 167.950229,152.806659 168.28426,153.055031 C168.61829,153.303403 169.035823,153.634561 169.536869,154.048514 C169.369854,154.545258 169.119334,155.0006 168.785303,155.414553 C168.451272,155.828507 168.326013,156.408033 168.40952,157.153149 C168.493028,157.567102 168.346892,158.043141 167.971107,158.58128 C167.595322,159.11942 167.24042,159.595459 166.906389,160.009412 C162.814511,166.301503 158.388668,172.262342 153.628727,177.892107 C152.710142,178.802805 151.791571,179.672094 150.872986,180.5 L148.117245,182.983708 C147.19866,183.563243 146.447102,183.97719 145.862548,184.225562 C143.106793,184.970678 140.392833,185.363928 137.720585,185.405323 C135.048338,185.446718 132.376131,184.763705 129.703884,183.356264 C125.361482,181.120916 122.772782,177.602365 121.937705,172.800507 C121.603674,170.813531 121.478414,168.847282 121.561922,166.901701 C121.645429,164.95612 121.854196,163.031266 122.188226,161.127081 C123.190319,156.325222 124.484669,151.668317 126.071316,147.156225 C127.657963,142.644134 129.787378,138.276992 132.459625,134.054668 C134.046272,131.736529 135.570265,130.060043 137.03165,129.02516 C138.493035,127.990276 139.975275,127.452145 141.478414,127.41075 C142.981553,127.369354 144.568176,127.679815 146.238331,128.34214 C147.908485,129.004465 149.745627,129.873754 151.749813,130.950033 C154.088029,132.109102 155.820788,133.620009 156.948143,135.482799 C158.075497,137.345589 158.847932,139.477417 159.26547,141.878347 L159.26547,143.244386 C159.26547,143.74113 159.223717,144.155077 159.140209,144.48624 C158.555655,146.390425 157.90848,148.253187 157.198665,150.074582 C156.488849,151.895976 155.424141,153.551765 154.00451,155.041997 C151.499278,157.442926 149.119344,159.926609 146.864635,162.49312 C144.609927,165.059631 142.229992,167.501919 139.724761,169.820057 C139.39073,170.068429 138.973198,170.440982 138.472151,170.937726 Z M140.184067,135.084603 L140.317217,135.217656 C140.248813,135.268921 140.184527,135.325125 140.12436,135.386267 C140.144262,135.284597 140.164165,135.184043 140.184067,135.084603 Z M149.524068,143.637343 C149.524068,142.580427 149.585726,141.564177 149.709043,140.588563 C149.832359,139.612948 149.606282,138.556048 149.030804,137.417831 L148.352566,138.088563 C148.147038,138.291816 148.003171,138.515391 147.92096,138.759294 C147.509904,139.491005 147.078302,140.263355 146.626141,141.076368 C146.17398,141.88938 145.824587,142.74303 145.577955,143.637343 C145.331321,144.450355 145.002482,145.182055 144.591426,145.832465 C144.180371,146.482875 143.646007,147.092625 142.988318,147.661733 C142.906106,148.393444 142.844449,149.104819 142.803344,149.79588 C142.762238,150.48694 142.741686,151.157665 142.741686,151.808075 C142.741686,151.970677 142.94721,152.173927 143.358266,152.417831 C144.591432,151.198313 145.742371,149.897513 146.811115,148.515392 C147.87986,147.133271 148.784168,145.507271 149.524068,143.637343 Z M140.374337,134.35489 L140.241187,134.221837 C140.299683,134.192611 140.35577,134.160977 140.409447,134.126935 C140.38604,134.22631 140.374337,134.302295 140.374337,134.35489 Z M161.430579,183.986392 C161.597926,183.487634 161.702516,183.009665 161.744353,182.552471 C161.78619,182.095277 161.89078,181.65887 162.058126,181.243239 C163.564246,180.495103 165.028508,179.746978 166.450954,178.998841 C167.873401,178.250705 169.212154,177.33633 170.467254,176.255689 C173.981534,173.263144 177.286581,169.979706 180.382494,166.405277 C180.800861,165.90652 181.156467,165.428551 181.449324,164.971356 C181.742181,164.514162 182.014115,163.994631 182.265135,163.412747 C182.516155,162.997116 182.746253,162.498366 182.955436,161.916482 C183.16462,161.334598 183.436554,160.711161 183.771247,160.046151 L182.767172,160.046151 C179.754932,162.373686 176.198869,163.454311 172.098876,163.288058 C168.751943,162.789301 165.697912,161.417738 162.936692,159.173329 C161.597919,158.009562 160.928542,156.637999 160.928542,155.0586 C160.761195,153.479202 160.886703,151.941389 161.305069,150.445116 C161.723437,149.281349 162.225469,148.200724 162.811183,147.203209 C163.396896,146.205694 164.024436,145.166631 164.693823,144.08599 C166.36729,141.758455 168.228993,139.638767 170.27899,137.726863 C172.328987,135.81496 174.483543,134.027772 176.742723,132.365247 C177.244763,131.949616 178.039647,131.388522 179.127401,130.681949 C180.215154,129.975376 181.365645,129.227251 182.578908,128.437551 C183.792172,127.647852 184.942663,126.920508 186.030416,126.255498 C187.118169,125.590488 187.95489,125.091738 188.540603,124.759233 C189.042643,124.509854 189.586512,124.385167 190.172225,124.385167 C190.506919,124.302041 190.862525,124.281259 191.239055,124.322822 C191.615585,124.364385 192.054863,124.385167 192.556903,124.385167 C194.314043,125.548934 196.175747,126.816591 198.14207,128.188174 C200.108394,129.559757 202.053769,130.952101 203.978256,132.365247 C204.145603,132.697752 204.292029,133.051033 204.417539,133.425101 L204.856822,134.734333 C203.518048,135.066838 202.011951,135.711057 200.338484,136.667009 C198.665018,137.622961 196.991576,138.703586 195.318109,139.908917 C193.644643,141.114247 192.075791,142.340341 190.611508,143.587235 C189.147225,144.834129 187.996734,145.873191 187.16,146.704454 C186.741634,147.120085 186.197765,147.577273 185.528379,148.07603 C185.110012,148.491661 184.754406,148.948849 184.461549,149.447606 C184.168692,149.946364 184.022266,150.528239 184.022266,151.193249 C185.612059,151.775133 187.139075,152.39857 188.603358,153.06358 C190.067641,153.72859 191.510985,154.39359 192.933431,155.0586 C193.100778,155.474229 193.268122,155.827513 193.435469,156.118455 C193.602816,156.409397 193.811996,156.679553 194.063016,156.928932 C195.820156,158.840836 196.447696,161.002086 195.945656,163.412747 C195.77831,164.077757 195.67372,164.659632 195.631883,165.15839 C195.590046,165.657147 195.527292,166.239022 195.443619,166.904032 C195.276272,167.153411 195.08801,167.382005 194.878827,167.58982 C194.669643,167.797636 194.523217,167.984667 194.439544,168.15092 C194.35587,169.314687 194.0421,170.270625 193.498224,171.018761 C192.954347,171.766897 192.431396,172.515022 191.929356,173.263159 C191.25997,174.094421 190.674265,174.842546 190.172225,175.507556 C189.670185,176.172566 189.084481,176.837566 188.415094,177.502576 C187.411014,178.333839 186.427867,179.144308 185.465624,179.934007 C184.503381,180.723706 183.478398,181.45105 182.390644,182.11606 C181.721258,182.614818 181.072799,183.030443 180.445249,183.362948 C179.817699,183.695453 179.043732,183.903265 178.123326,183.986392 C177.202919,184.152644 176.282526,184.443582 175.36212,184.859213 C174.441713,185.274844 173.52132,185.607344 172.600913,185.856723 C171.094793,186.272354 169.65145,186.397042 168.27084,186.230789 C166.89023,186.064537 165.488723,185.773599 164.066276,185.357968 C163.731583,185.191715 163.375977,185.004684 162.999447,184.796869 C162.622917,184.589053 162.099966,184.318897 161.430579,183.986392 Z M225.772243,135.798373 C226.188671,135.386173 226.56345,135.035809 226.896593,134.747269 C227.229735,134.458729 227.604515,134.108364 228.020943,133.696164 C229.436799,134.438124 230.915096,135.138854 232.45588,135.798373 C233.996665,136.457893 235.474962,137.199842 236.890818,138.024242 C238.55653,138.931082 240.180576,139.73486 241.763002,140.435599 C243.345429,141.136339 244.927832,141.857678 246.510259,142.599638 C247.926115,143.259158 249.446055,143.7744 251.070124,144.14538 C252.694194,144.51636 254.297418,145.278919 255.879845,146.433078 C255.713274,146.845278 255.546705,147.154424 255.380134,147.360524 C255.213563,147.566624 255.088636,147.79333 255.00535,148.04065 C254.089209,148.61773 253.193902,149.112363 252.319403,149.524563 C251.444903,149.936762 250.466312,150.390176 249.383599,150.884816 C247.967743,150.719936 246.489446,150.45201 244.948662,150.08103 C243.407878,149.71005 241.92958,149.194808 240.513724,148.535288 C240.014011,148.865048 239.743336,149.215412 239.701694,149.586392 C239.660051,149.957372 239.63923,150.348956 239.63923,150.761156 C239.722515,152.409956 239.701694,154.079341 239.576766,155.76936 C239.451837,157.45938 239.139521,159.169984 238.639807,160.901224 C238.223379,161.560744 237.786136,162.220254 237.328065,162.879774 C236.869994,163.539293 236.432751,164.322462 236.016323,165.229301 C236.016323,165.476621 236.037144,165.744547 236.078787,166.033087 C236.12043,166.321627 236.182893,166.671992 236.266179,167.084192 C235.849751,167.826152 235.516613,168.58871 235.266756,169.37189 C235.016899,170.15507 234.683762,170.876409 234.267334,171.535929 C233.101335,173.102289 231.956175,174.689235 230.831819,176.296814 C229.707463,177.904394 228.437376,179.326469 227.021521,180.563062 C221.191527,185.097261 214.861915,186.045307 208.032493,183.407228 C207.616065,183.242348 207.13718,183.015641 206.595823,182.727101 C206.054467,182.438561 205.575582,182.211855 205.159154,182.046975 C203.993155,181.305015 203.014564,180.645505 202.22335,180.068425 C201.432137,179.491345 200.765862,178.873054 200.224505,178.213534 C199.683149,177.554014 199.183442,176.750237 198.725371,175.802177 C198.2673,174.854117 197.746773,173.679365 197.163774,172.277885 C196.747346,168.650526 196.788988,165.208708 197.288702,161.952328 C197.788415,158.695949 198.662901,155.501447 199.912186,152.368728 C201.078184,149.400888 202.369092,146.597971 203.784948,143.959891 C205.200803,141.321812 206.65828,138.76621 208.157421,136.293011 C208.74042,135.386171 209.30259,134.603003 209.843947,133.943483 C210.385303,133.283963 210.947473,132.624453 211.530472,131.964933 C212.030186,131.387853 212.571534,130.913831 213.154534,130.542851 C213.737533,130.171871 214.44545,129.945164 215.278306,129.862724 C217.11059,130.769564 218.859562,131.738219 220.525274,132.768719 C222.190987,133.799219 223.939959,134.809094 225.772243,135.798373 Z M215.290145,175.342821 C217.144993,173.935406 218.858685,172.507316 220.431274,171.058507 C222.003862,169.609698 223.394977,167.850456 224.60466,165.780729 C225.894989,163.628213 226.84256,161.392941 227.447402,159.074847 C228.052244,156.756753 228.475627,154.397299 228.717563,151.996416 C229.040145,148.353696 229.040145,145.414727 228.717563,143.179422 C228.394981,140.944117 227.749826,138.998603 226.78208,137.342821 C226.378852,138.253501 226.015952,139.060682 225.69337,139.764389 C225.370788,140.468097 225.04821,141.151096 224.725628,141.813409 C224.403046,141.978987 224.140952,142.123866 223.939338,142.24805 C223.737724,142.372233 223.556274,142.475718 223.394983,142.558507 C222.91111,143.717554 222.467566,144.917978 222.064338,146.159814 C221.66111,147.401651 221.257888,148.56068 220.854661,149.636938 C220.128851,151.375509 219.423213,153.134751 218.737725,154.914716 C218.052238,156.694682 217.507889,158.578105 217.104661,160.565043 L216.62079,162.551971 C215.249816,165.780745 214.362728,169.547592 213.9595,173.852625 C213.9595,174.018203 213.999822,174.163082 214.080468,174.287265 C214.161113,174.411449 214.241758,174.556328 214.322403,174.721906 L214.806274,174.970272 C214.967565,175.053061 215.128854,175.177243 215.290145,175.342821 Z M304.61688,176.906113 C304.450819,175.151061 304.36779,173.458714 304.36779,171.829023 C304.36779,170.199332 304.450819,168.548772 304.61688,166.877294 C304.782941,165.205816 305.011272,163.597043 305.301879,162.050926 C305.592486,160.504808 305.820816,158.896035 305.986877,157.224557 L304.990516,157.475277 C303.080813,160.066068 301.233411,162.677714 299.448254,165.310291 C297.663098,167.942869 295.85721,170.679874 294.030538,173.521386 L293.407812,173.834787 C293.158721,173.960148 292.826603,174.148186 292.411451,174.398908 L292.411451,175.088389 C292.411451,175.380898 292.452965,175.694295 292.535996,176.028591 C292.286904,176.947904 291.747214,177.512019 290.916908,177.720954 C290.086603,177.929889 289.297824,178.159714 288.550549,178.410435 C288.467519,178.828305 288.38449,179.120809 288.301459,179.287957 L287.927823,180.040118 C286.599335,180.708709 285.229351,180.91764 283.817832,180.666919 C280.994793,180.416198 278.794517,179.079035 277.216936,176.655392 C276.801784,174.649618 276.552696,172.664768 276.469665,170.700781 C276.386635,168.736795 276.552693,166.79373 276.967846,164.871531 C277.216938,163.952218 277.341481,162.928453 277.341481,161.800205 C277.341481,160.671957 277.424511,159.606406 277.590572,158.603519 C277.25845,158.18565 276.988604,158.039398 276.781028,158.164758 C276.573452,158.290119 276.42815,158.478158 276.34512,158.72888 C276.179059,159.481045 275.888456,160.086946 275.473303,160.546603 C275.058151,161.006259 274.684519,161.486802 274.352397,161.988245 C273.937244,162.489689 273.667399,163.032911 273.542853,163.617928 C273.418307,164.202946 273.023918,164.704382 272.359674,165.122251 C272.193612,165.289399 272.048311,165.477437 271.923765,165.686372 C271.799219,165.895307 271.736948,166.125132 271.736948,166.375853 C271.570886,167.545888 271.114225,168.527867 270.36695,169.321819 C269.619675,170.115771 269.163014,171.055963 268.996953,172.142424 C268.332709,172.894589 267.813776,173.709422 267.440138,174.586948 C267.066501,175.464474 266.464538,176.237521 265.634233,176.906113 C265.21908,177.240408 264.928477,177.658271 264.762416,178.159715 C264.596355,178.661158 264.430297,178.995449 264.264236,179.162597 C263.184838,179.914762 262.230001,180.625129 261.399696,181.29372 L261.399696,181.419081 C261.233635,181.586229 261.026062,181.669801 260.77697,181.669801 C258.867267,182.505538 257.102895,182.714472 255.483799,182.296602 C253.864703,181.878733 252.224874,181.251938 250.564264,180.416199 C249.152744,179.747608 248.031849,178.828309 247.201543,177.658274 C246.371238,176.488239 245.956091,175.109291 245.956091,173.521386 C245.79003,171.849908 245.686243,170.199348 245.644728,168.569657 C245.603213,166.939966 245.665485,165.289406 245.831546,163.617928 C246.163668,156.346999 247.367593,149.076178 249.443357,141.805249 C249.94154,140.050197 250.56426,138.295171 251.311535,136.540119 C252.05881,134.785067 252.847588,132.988255 253.677894,131.149629 C254.176077,130.230316 254.736525,129.39459 255.359254,128.642425 C255.981983,127.89026 256.583945,127.054533 257.165159,126.13522 C257.414251,125.717351 257.746368,125.424847 258.161521,125.257699 C258.576673,125.090551 258.950305,124.839833 259.282428,124.505537 C259.946672,124.923407 260.548634,125.299484 261.088333,125.633779 C261.628031,125.968075 262.10545,126.218793 262.520603,126.385941 C264.098183,126.970958 265.530439,127.472394 266.817412,127.890264 C268.104386,128.308133 269.370582,128.725996 270.616041,129.143866 C270.948163,129.22744 271.197251,129.394585 271.363312,129.645307 C271.529373,129.896028 271.736946,130.188533 271.986038,130.522828 C271.653916,131.609289 271.38407,132.67484 271.176494,133.719514 C270.968918,134.764188 270.449985,135.662594 269.619679,136.414759 C269.536649,138.253385 269.225289,139.987517 268.68559,141.617208 C268.145892,143.2469 267.668473,144.855673 267.25332,146.443577 C266.838168,147.947907 266.381506,149.431322 265.883323,150.893865 C265.38514,152.356409 264.845449,153.798037 264.264236,155.218793 L264.264236,156.409715 C264.264236,156.785798 264.347265,157.099195 264.513326,157.349917 C265.011509,157.433491 265.343626,157.329025 265.509688,157.036516 C265.675749,156.744008 265.841807,156.43061 266.007868,156.096315 C267.419388,153.923393 268.789371,151.750504 270.11786,149.577583 C271.446349,147.404661 272.774818,145.315345 274.103306,143.309572 C275.265734,141.303798 276.635717,139.4652 278.213298,137.793721 C279.209664,136.790835 280.247531,135.808856 281.326928,134.847756 C282.406325,133.886656 283.776309,133.197182 285.436919,132.779312 C286.599347,133.36433 287.803272,133.907554 289.04873,134.408995 C290.294189,134.910439 291.622657,135.495447 293.034177,136.164039 C293.283268,136.581908 293.553114,136.957985 293.84372,137.292281 C294.134327,137.626576 294.362658,138.002653 294.528719,138.420523 C294.860841,139.841279 294.902356,141.220228 294.653264,142.55741 C294.404173,143.894593 294.238114,145.189969 294.155083,146.443577 C293.989022,147.613612 293.760692,148.825415 293.470085,150.079024 C293.179478,151.332632 292.868118,152.586222 292.535996,153.839831 C292.951149,154.006978 293.262509,153.986085 293.470085,153.777151 L294.030538,153.213029 C295.691149,151.040108 297.372493,148.867219 299.074619,146.694298 C300.776745,144.521376 302.458089,142.306701 304.118699,140.050206 C305.69628,137.877284 307.232322,135.704395 308.726872,133.531474 C310.221422,131.358552 311.798978,129.185663 313.459589,127.012742 C313.791712,126.594872 314.144586,126.156116 314.518224,125.69646 C314.891861,125.236803 315.452309,124.881619 316.199584,124.630898 C317.860195,125.299489 319.541538,125.96807 321.243664,126.636661 C322.945791,127.305252 324.668649,128.099193 326.41229,129.018506 C326.661382,129.436375 326.889712,129.833345 327.097289,130.209428 C327.304865,130.58551 327.533196,130.98248 327.782287,131.40035 C327.367135,133.573271 327.055775,135.704374 326.848198,137.793721 C326.640622,139.883069 326.163204,141.972385 325.415929,144.061733 C324.751684,145.983933 324.149722,147.94789 323.610023,149.953664 C323.070325,151.959437 322.302304,153.881608 321.305937,155.720234 C321.222907,156.138104 321.181392,156.535074 321.181392,156.911156 C321.181392,157.287239 321.098363,157.684209 320.932301,158.102078 L320.434121,160.860003 C321.762609,160.442134 322.779718,159.731766 323.485478,158.72888 C324.191238,157.725993 325.042288,156.932053 326.038655,156.347035 C326.619868,156.430609 327.138802,156.514182 327.59547,156.597756 C328.052138,156.68133 328.571071,156.806689 329.152285,156.973836 C329.069254,156.472393 329.027739,156.05453 329.027739,155.720234 C329.027739,155.385938 328.986225,155.009862 328.903194,154.591992 C329.235316,154.34127 329.588191,154.048766 329.961828,153.71447 C330.335466,153.380175 330.68834,153.045884 331.020463,152.711589 C331.850768,152.795162 332.515003,153.04588 333.013186,153.46375 C333.511369,153.881619 333.96803,154.341269 334.383183,154.842712 C334.383183,155.344156 334.40394,155.845594 334.445456,156.347035 C334.486971,156.848479 334.549243,157.349914 334.632273,157.851358 C333.552876,159.021393 332.473495,160.212303 331.394098,161.424124 C330.314701,162.635946 329.23532,163.826856 328.155923,164.996891 C326.993495,166.166926 325.955629,167.357836 325.042293,168.569657 C324.128957,169.781479 323.215635,171.014176 322.302299,172.267784 C321.388963,173.521393 320.434126,174.795876 319.437759,176.091271 C318.441392,177.386667 317.652614,178.870081 317.0714,180.541559 C316.656248,180.457985 316.303373,180.416199 316.012766,180.416199 C315.722159,180.416199 315.410799,180.374413 315.078677,180.290839 C314.580494,180.207265 314.123833,180.102799 313.70868,179.977438 C313.293527,179.852077 312.878381,179.789398 312.463228,179.789398 C309.557159,180.040119 306.941736,179.079034 304.61688,176.906113 Z M341.6652,170.172994 C341.498185,171.332063 341.393802,172.491115 341.352048,173.650184 C341.310294,174.809254 341.289417,176.009701 341.289417,177.251561 C342.458525,177.003189 343.126577,176.796215 343.293593,176.630634 C345.21427,175.554355 346.967906,174.291816 348.554553,172.842979 C350.1412,171.394143 351.686069,169.800446 353.189208,168.061842 C355.276902,165.660913 357.218427,163.197927 359.013843,160.672812 C360.809259,158.147697 362.625525,155.519132 364.462695,152.78704 L365.965826,150.551703 C367.134934,150.800075 368.032629,151.007049 368.658937,151.17263 C369.285245,151.338212 369.828037,151.503791 370.287329,151.669372 C370.746622,151.834953 371.143278,152.041927 371.477309,152.290299 C371.811339,152.538671 372.228872,152.869829 372.729918,153.283782 C372.562903,153.780526 372.312383,154.235868 371.978352,154.649821 C371.644322,155.063774 371.519062,155.6433 371.60257,156.388416 C371.686077,156.80237 371.539941,157.278409 371.164156,157.816548 C370.788371,158.354688 370.433469,158.830727 370.099438,159.24468 C366.00756,165.536771 361.581717,171.49761 356.821776,177.127375 C355.903191,178.038073 354.98462,178.907362 354.066035,179.735268 L351.310294,182.218976 C350.391709,182.798511 349.640151,183.212458 349.055597,183.46083 C346.299842,184.205946 343.585882,184.599195 340.913634,184.640591 C338.241387,184.681986 335.56918,183.998973 332.896933,182.591532 C328.554531,180.356184 325.965831,176.837633 325.130754,172.035775 C324.796723,170.048798 324.671463,168.08255 324.754971,166.136969 C324.838478,164.191388 325.047245,162.266534 325.381275,160.362349 C326.383368,155.56049 327.677718,150.903585 329.264365,146.391493 C330.851012,141.879402 332.980427,137.512259 335.652674,133.289935 C337.239321,130.971797 338.763314,129.295311 340.224699,128.260427 C341.686084,127.225544 343.168324,126.687413 344.671463,126.646017 C346.174602,126.604622 347.761225,126.915082 349.43138,127.577408 C351.101534,128.239733 352.938677,129.109022 354.942862,130.185301 C357.281078,131.34437 359.013837,132.855277 360.141192,134.718067 C361.268546,136.580857 362.040981,138.712685 362.458519,141.113614 L362.458519,142.479654 C362.458519,142.976398 362.416766,143.390345 362.333259,143.721507 C361.748704,145.625693 361.101529,147.488455 360.391714,149.30985 C359.681898,151.131244 358.617191,152.787033 357.197559,154.277265 C354.692327,156.678194 352.312393,159.161877 350.057685,161.728388 C347.802976,164.294899 345.423042,166.737187 342.91781,169.055325 C342.583779,169.303697 342.166247,169.67625 341.6652,170.172994 Z M343.377116,134.319871 L343.510266,134.452924 C343.441862,134.504189 343.377576,134.560393 343.317409,134.621535 C343.337311,134.519865 343.357214,134.419311 343.377116,134.319871 Z M353.607111,143.971661 C353.607111,142.914746 353.668768,141.898496 353.792085,140.922881 C353.915402,139.947266 353.689325,138.890366 353.113847,137.752149 L352.435608,138.422881 C352.230081,138.626134 352.086213,138.849709 352.004002,139.093613 C351.592947,139.825324 351.161345,140.597674 350.709184,141.410686 C350.257023,142.223698 349.907629,143.077348 349.660997,143.971661 C349.414364,144.784674 349.085524,145.516374 348.674469,146.166783 C348.263413,146.817193 347.729049,147.426943 347.07136,147.996052 C346.989149,148.727763 346.927492,149.439138 346.886386,150.130198 C346.84528,150.821258 346.824728,151.491983 346.824728,152.142393 C346.824728,152.304996 347.030253,152.508246 347.441308,152.752149 C348.674475,151.532631 349.825413,150.231831 350.894158,148.84971 C351.962902,147.467589 352.867211,145.841589 353.607111,143.971661 Z M343.569377,133.970703 C343.658144,134.372954 343.635953,134.634413 343.502802,134.755089 C343.413524,134.836003 343.314269,134.907874 343.205038,134.970703 C343.260581,134.756826 343.382027,134.423494 343.569377,133.970703 Z M343.462857,134.58468 L343.329708,134.451627 C343.388204,134.4224 343.44429,134.390766 343.497967,134.356725 C343.474561,134.456099 343.462857,134.532084 343.462857,134.58468 Z M45.769375,152.811539 C42.3510625,153.413648 39.4850599,154.069532 37.1712811,154.779212 C34.8575023,155.488891 32.95267,156.269946 31.456727,157.122398 C29.8873561,159.746997 28.2803334,162.360983 26.6356109,164.964435 C24.9908884,167.567887 23.4628932,170.232966 22.0515795,172.959753 C21.8310688,173.534007 21.5099357,174.029413 21.0881794,174.445983 C20.6664201,174.862555 20.3057738,175.332413 20.0062369,175.855573 L20.1275795,176.843829 C19.4328972,177.111518 18.7561436,177.377003 18.0972985,177.640292 C17.4384561,177.90358 16.7543457,178.109172 16.0449551,178.257072 C15.1278952,178.491268 14.1943024,178.5907 13.2441489,178.55537 C12.2939954,178.52004 11.3879519,178.251309 10.5259913,177.749168 C9.92866616,177.032141 9.90841423,176.274669 10.4652349,175.476729 C11.8122194,172.818638 13.2308749,170.151785 14.7212172,167.476092 C15.2137175,166.746847 15.6685353,166.00704 16.085684,165.256648 C16.5028328,164.506256 16.9576505,163.766448 17.4501508,163.037203 C17.5714374,162.839918 17.6550469,162.632063 17.7009819,162.413631 C17.7469169,162.1952 17.8268494,161.957397 17.9407818,161.700218 C17.1523626,161.797024 16.4733038,161.895601 15.903585,161.995952 C15.3338663,162.096304 14.7301579,162.216027 14.0924417,162.355127 C13.030166,161.999177 11.995017,161.715899 10.9869638,161.505286 C9.97891063,161.294672 8.95111571,161.071289 7.90354821,160.835128 C7.52124733,160.0917 7.37787114,159.516535 7.47341845,159.10962 C7.56896552,158.702704 7.94936626,158.245619 8.61463207,157.738352 C9.68052821,156.938702 10.7611164,156.258853 11.8564291,155.698782 C12.9517418,155.138711 14.2050929,154.680836 15.61652,154.325141 C18.4173119,153.434069 21.3614085,152.525409 24.4488983,151.599134 L24.9312984,151.083923 C25.1242595,150.877839 25.3172176,150.671756 25.5101786,150.46567 C27.8936516,146.76835 30.3597932,143.152126 32.9086776,139.61689 C35.4575619,136.081653 38.0744044,132.507722 40.7592836,128.894989 C42.8156676,126.088998 44.8881006,123.265875 46.9766448,120.425535 C49.065189,117.585196 51.137622,114.762073 53.194006,111.956081 C54.0724284,110.814665 54.9650789,109.641119 55.8719844,108.435408 C56.7788899,107.229698 57.6678634,106.026205 58.5389316,104.824894 C58.7888588,104.490219 59.0764575,104.166122 59.4017363,103.852594 C59.7270151,103.539065 60.1726686,103.317155 60.7387103,103.186856 C60.8894134,103.22915 61.0920308,103.249869 61.3465685,103.249014 C61.6011062,103.24816 61.8432373,103.294426 62.072969,103.387813 C63.2785937,103.726162 64.4520407,104.098853 65.5933451,104.505897 C66.7346494,104.912941 67.9476101,105.311178 69.2322634,105.700621 C69.5355365,106.392955 69.9747978,107.007784 70.5500605,107.545127 C70.2376798,108.556244 69.9432222,109.565146 69.6666787,110.571863 C69.3901353,111.57858 69.1315143,112.583082 68.8908081,113.585399 C68.047403,116.789634 67.3257619,119.948473 66.7258632,123.062012 C66.1259646,126.17555 65.5118336,129.321189 64.8834519,132.499023 C64.3542943,135.299887 63.8788997,138.09411 63.4572538,140.881774 C63.0356079,143.669437 62.599727,146.489207 62.149598,149.341165 C62.1643063,149.460955 62.1270978,149.602316 62.0379714,149.765253 C61.9488451,149.928191 61.9116366,150.069552 61.9263449,150.189341 C62.0183283,152.12357 61.8323425,154.015905 61.368382,155.866401 C60.9044215,157.716898 60.5714119,159.596886 60.3693432,161.506423 C60.2848274,162.003181 60.2324725,162.465585 60.2122769,162.893648 C60.1920814,163.321711 60.1397265,163.784114 60.0552106,164.280872 C59.7667592,166.07942 59.4801507,167.892915 59.1953764,169.72141 C58.910602,171.549905 58.6993439,173.384546 58.5615956,175.225388 C58.5138504,176.021619 58.3765142,176.828839 58.1495828,177.647071 C57.9226514,178.465304 57.7531555,179.306871 57.64109,180.171797 C56.3877201,180.62968 55.3939518,180.979687 54.659755,181.221829 C53.9255584,181.463971 53.2143399,181.596895 52.5260782,181.620605 C51.8378165,181.644316 51.0631837,181.557038 50.2021566,181.358771 C49.3411294,181.160504 48.1607952,180.879854 46.6611184,180.516813 C45.8781864,180.065766 45.4278941,179.361096 45.3102279,178.402782 C45.2293324,177.743941 45.1360353,177.132231 45.0303337,176.567632 C44.9246322,176.003033 44.8671715,175.386922 44.8579508,174.719281 C45.0434443,172.082208 45.1393432,169.456175 45.1456505,166.841104 C45.1519578,164.226032 45.2763394,161.535706 45.5187991,158.770043 C45.5665443,157.973812 45.6377226,157.220313 45.7323356,156.509523 C45.8269499,155.798733 45.8944512,155.015287 45.9348423,154.159162 L45.769375,152.811539 Z M46.3297751,147.226889 C46.502428,146.234602 46.715013,145.267773 46.9675365,144.326373 C47.1255064,143.214503 47.2853093,142.117598 47.4469499,141.035624 C47.6085906,139.95365 47.8083282,138.882188 48.0461687,137.821204 C48.240846,137.008292 48.4373557,136.21034 48.6357038,135.427324 C48.8340518,134.644308 48.9942975,133.850808 49.1164457,133.046802 C49.2394795,132.849616 49.3026094,132.61427 49.3058373,132.340755 C49.3090652,132.067241 49.0494897,131.901863 48.5271028,131.844618 C46.630205,134.383861 44.7170391,136.940239 42.7875475,139.51383 C40.8580559,142.087421 38.9485606,144.673694 37.0590044,147.272728 L37.1471017,147.990223 C38.6343917,148.111072 40.1140966,148.020425 41.5862608,147.71828 C43.0584176,147.416136 44.6395807,147.25234 46.3297751,147.226889 Z" id="Awesome" fill="#FF9938" fill-rule="nonzero" transform="translate(190.087340, 144.744448) rotate(-6.000000) translate(-190.087340, -144.744448) "></path>
                                </g>
                            </g>
                        </g>
                    </g>
                </g>
            </g>
        </g>
    </g>
</svg>