<svg xmlns="http://www.w3.org/2000/svg" width="59" height="73" viewBox="0 0 59 73"><g><g><g><g><g><path fill="#ff9938" d="M29.5 66C45.24 66 58 53.24 58 37.5S45.24 9 29.5 9 1 21.76 1 37.5 13.76 66 29.5 66z"/><path fill="none" stroke="#fff" stroke-dasharray="1 1" stroke-miterlimit="50" d="M29.5 66C45.24 66 58 53.24 58 37.5S45.24 9 29.5 9 1 21.76 1 37.5 13.76 66 29.5 66z"/></g><g><path fill="#fff" d="M35.063 41.346c2.72 0 4.937 2.164 4.937 4.827S37.79 51 35.07 51c-2.721 0-4.932-2.17-4.932-4.827 0-.56.103-1.104.287-1.609l-7.571-4.143a4.968 4.968 0 0 1-3.917 1.9c-2.72 0-4.937-2.164-4.937-4.827s2.216-4.827 4.93-4.827c1.593 0 3.013.74 3.912 1.895l7.565-4.137a4.624 4.624 0 0 1-.28-1.598c0-2.663 2.21-4.827 4.93-4.827 2.721 0 4.932 2.164 4.932 4.827s-2.217 4.827-4.931 4.827a4.96 4.96 0 0 1-3.912-1.895l-7.57 4.138c.183.504.28 1.037.28 1.597a4.75 4.75 0 0 1-.275 1.593l7.577 4.143a4.973 4.973 0 0 1 3.905-1.884m0-15.827c-1.86 0-3.384 1.486-3.384 3.314 0 1.827 1.517 3.313 3.384 3.313s3.385-1.486 3.385-3.313c0-1.828-1.518-3.314-3.385-3.314M18.937 40.808c1.86 0 3.384-1.486 3.384-3.314 0-1.827-1.517-3.313-3.384-3.313s-3.385 1.486-3.385 3.313c0 1.828 1.518 3.314 3.385 3.314m16.126 8.673c1.867 0 3.385-1.486 3.385-3.314 0-1.827-1.518-3.313-3.385-3.313-1.867 0-3.384 1.486-3.384 3.313 0 1.828 1.517 3.314 3.384 3.314"/><path fill="none" stroke="#fff" stroke-miterlimit="50" stroke-width=".3" d="M35.063 41.346c2.72 0 4.937 2.164 4.937 4.827S37.79 51 35.07 51c-2.721 0-4.932-2.17-4.932-4.827 0-.56.103-1.104.287-1.609l-7.571-4.143a4.968 4.968 0 0 1-3.917 1.9c-2.72 0-4.937-2.164-4.937-4.827s2.216-4.827 4.93-4.827c1.593 0 3.013.74 3.912 1.895l7.565-4.137a4.624 4.624 0 0 1-.28-1.598c0-2.663 2.21-4.827 4.93-4.827 2.721 0 4.932 2.164 4.932 4.827s-2.217 4.827-4.931 4.827a4.96 4.96 0 0 1-3.912-1.895l-7.57 4.138c.183.504.28 1.037.28 1.597a4.75 4.75 0 0 1-.275 1.593l7.577 4.143a4.973 4.973 0 0 1 3.905-1.884m0-15.827c-1.86 0-3.384 1.486-3.384 3.314 0 1.827 1.517 3.313 3.384 3.313s3.385-1.486 3.385-3.313c0-1.828-1.518-3.314-3.385-3.314M18.937 40.808c1.86 0 3.384-1.486 3.384-3.314 0-1.827-1.517-3.313-3.384-3.313s-3.385 1.486-3.385 3.313c0 1.828 1.518 3.314 3.385 3.314m16.126 8.673c1.867 0 3.385-1.486 3.385-3.314 0-1.827-1.518-3.313-3.385-3.313-1.867 0-3.384 1.486-3.384 3.313 0 1.828 1.517 3.314 3.384 3.314"/></g><g transform="rotate(32 31.5 36.5)"><g><g><path fill="none" stroke="#fff" stroke-miterlimit="50" d="M28.55 56.3v18"/></g><g><path fill="none" stroke="#fff" stroke-miterlimit="50" d="M33.55 59.3v18"/></g></g><g><g><path fill="none" stroke="#fff" stroke-miterlimit="50" d="M28.55-3.7v18"/></g><g><path fill="none" stroke="#fff" stroke-miterlimit="50" d="M33.55-.7v18"/></g></g></g></g></g></g></g></svg>