<?xml version="1.0" encoding="UTF-8"?>
<svg width="28px" height="14px" viewBox="0 0 28 14" version="1.1" xmlns="http://www.w3.org/2000/svg" xmlns:xlink="http://www.w3.org/1999/xlink">
    <!-- Generator: Sketch 58 (84663) - https://sketch.com -->
    <title>Combined Shape</title>
    <desc>Created with Sketch.</desc>
    <g id="Design" stroke="none" stroke-width="1" fill="none" fill-rule="evenodd">
        <g id="Desktop-HD-Copy-5" transform="translate(-707.000000, -3527.000000)" fill="#FFFFFF" fill-rule="nonzero">
            <g id="Group-27-Copy" transform="translate(510.000000, 3192.000000)">
                <g id="Group-26" transform="translate(173.000000, 324.000000)">
                    <path d="M30.6013252,11.2562816 C30.954817,10.9145728 31.5279404,10.9145728 31.8814322,11.2562816 C32.234924,11.5979903 32.234924,12.1520097 31.8814322,12.4937184 L31.8814322,12.4937184 L27.09,17.124 L51.0948253,17.125 C51.5562833,17.125 51.937092,17.4587995 51.9929474,17.8902419 L52,18 C52,18.4832492 51.5947382,18.875 51.0948253,18.875 L51.0948253,18.875 L27.09,18.874 L31.8814322,23.5062816 C32.2054663,23.8195146 32.2324692,24.3111475 31.9624407,24.6541138 L31.8814322,24.7437184 C31.5279404,25.0854272 30.954817,25.0854272 30.6013252,24.7437184 L30.6013252,24.7437184 L24.2651188,18.6187184 C24.261147,18.614879 24.2572198,18.6110128 24.2533373,18.6071204 C24.2351819,18.5889042 24.2178761,18.5699803 24.2014311,18.5503549 C24.1902426,18.5370681 24.179888,18.5239648 24.1699677,18.5106527 C24.1619934,18.4998489 24.153768,18.4882461 24.1458289,18.4764467 C24.1321239,18.4561888 24.1197614,18.4360313 24.1083073,18.415525 C24.0392447,18.2919029 24,18.1503817 24,18 C24,17.8496183 24.0392447,17.7080971 24.108374,17.5844846 C24.1197614,17.5639687 24.1321239,17.5438112 24.1453949,17.5240578 C24.153768,17.5117539 24.1619934,17.5001511 24.1704957,17.4887541 C24.1981741,17.451497 24.2298911,17.415335 24.2651188,17.3812816 L24.2014311,17.4496451 C24.2178761,17.4300197 24.2351819,17.4110958 24.2532929,17.3929272 L24.2651188,17.3812816 Z" id="Combined-Shape" transform="translate(38.000000, 18.000000) scale(-1, 1) translate(-38.000000, -18.000000) "></path>
                </g>
            </g>
        </g>
    </g>
</svg>