<?xml version="1.0" encoding="UTF-8"?>
<svg width="433px" height="237px" viewBox="0 0 433 237" version="1.1" xmlns="http://www.w3.org/2000/svg" xmlns:xlink="http://www.w3.org/1999/xlink">
    <!-- Generator: Sketch 58 (84663) - https://sketch.com -->
    <title>Group 2</title>
    <desc>Created with Sketch.</desc>
    <defs>
        <linearGradient x1="0%" y1="50%" x2="99.2634596%" y2="50.457209%" id="linearGradient-1">
            <stop stop-color="#F82E94" offset="0%"></stop>
            <stop stop-color="#FF9E33" offset="100%"></stop>
        </linearGradient>
        <path d="M98.8707346,180.468043 C98.0718319,178.16178 97.2951326,175.855551 96.5406134,173.549288 C95.7860942,171.243024 95.4976059,168.936796 95.6751399,166.630532 C95.231305,166.275723 94.8984339,166.164846 94.6765165,166.2979 C94.4545991,166.430954 94.2548764,166.630531 94.0773425,166.896638 C93.5447407,167.606258 93.0565297,168.360217 92.6126949,169.158539 L91.2811971,171.553493 C90.4822945,173.416244 89.6168295,175.190266 88.6847764,176.875612 C87.7527233,178.560959 86.6209615,180.157578 85.2894571,181.66552 C84.9343892,181.754222 84.6237095,181.798573 84.3574086,181.798573 C84.0911077,181.798573 83.780428,181.842923 83.4253601,181.931626 C82.1826226,182.197733 81.2283921,182.375135 80.5626399,182.463838 C79.8968877,182.55254 79.2755282,182.596891 78.698543,182.596891 C78.1215577,182.596891 77.5001983,182.50819 76.8344461,182.330785 C76.1686938,182.15338 75.3032289,181.887277 74.2380253,181.532467 C71.4862495,180.734145 69.7553197,178.827071 69.0451839,175.811188 C68.6013491,174.125842 68.3350522,172.529222 68.2462853,171.021281 C68.0687513,169.15853 68.1353256,167.340157 68.4460099,165.566109 C68.7566943,163.79206 69.0451826,162.018038 69.3114835,160.243989 C70.3766871,152.881687 72.1519997,146.007352 74.6374747,139.620776 C75.1700765,138.378942 75.7248617,137.225828 76.3018469,136.161399 C76.8788322,135.09697 77.6111487,134.076907 78.4988183,133.10118 C78.8538861,133.10118 79.2311401,133.079005 79.6305914,133.034654 C80.0300428,132.990303 80.4516795,133.056828 80.8955143,133.234233 L85.0897324,134.63129 C86.5543873,135.119153 87.9080632,135.850937 89.1508007,136.826664 C89.3283346,137.092771 89.461483,137.358876 89.55025,137.624982 C89.639017,137.891089 89.7721654,138.245893 89.9496993,138.689406 C89.5058645,139.22162 89.0620364,139.709476 88.6182015,140.152988 L87.2867037,141.483518 C87.3754707,141.749626 87.4198535,142.037904 87.4198535,142.348363 C87.4198535,142.658821 87.5086192,143.035801 87.6861531,143.479313 C86.8872504,146.229089 86.1549339,149.000998 85.4891817,151.795125 C84.8234295,154.589251 84.4017927,157.538563 84.2242588,160.643148 L84.7568579,161.441466 C86.7984981,158.514286 88.7069592,155.520624 90.4822985,152.46039 C92.2576377,149.400156 93.9441847,146.406493 95.5419901,143.479313 C95.808291,142.503586 96.0967793,141.572225 96.4074636,140.6852 C96.718148,139.798176 97.0066363,138.866814 97.2729372,137.891088 C97.894306,137.62498 98.493474,137.358876 99.0704592,137.09277 C99.6474445,136.826662 100.20223,136.560559 100.734831,136.294452 L103.664127,137.358876 C104.640563,137.713685 105.616985,138.11284 106.593422,138.556353 C107.747392,139.620782 108.324369,141.08435 108.324369,142.947101 C108.324369,145.164662 108.34656,147.360014 108.390944,149.533224 C108.435327,151.706434 108.457519,153.901786 108.457519,156.119347 C108.457519,156.562859 108.435327,156.984189 108.390944,157.38335 C108.34656,157.782511 108.413135,158.159491 108.590668,158.5143 C108.768202,159.490027 108.945734,160.443564 109.123268,161.37494 C109.300802,162.306315 109.522716,163.348553 109.789016,164.501685 C110.232851,163.703363 110.610105,162.882878 110.92079,162.040205 C111.231474,161.197531 111.519962,160.421397 111.786263,159.711777 C113.206535,155.631465 114.87089,151.728617 116.77938,148.003115 C118.68787,144.277612 120.796053,140.552166 123.103994,136.826664 C123.81413,135.762235 124.546447,134.697821 125.300966,133.633392 C126.055485,132.568963 126.832184,131.5489 127.631087,130.573173 C128.696291,129.508744 129.983392,128.444331 131.492431,127.379902 C132.912702,127.823414 134.288569,128.200394 135.620074,128.510852 C136.951578,128.821311 138.194297,129.597445 139.348268,130.839279 C138.726899,131.815006 138.127731,132.657667 137.550746,133.367286 C136.97376,134.076906 136.374592,134.830865 135.753224,135.629187 C135.309389,136.338806 134.843369,137.02624 134.355151,137.691508 C133.866933,138.356776 133.35653,139.088561 132.823928,139.886882 C132.380094,140.6852 131.891883,141.483514 131.359281,142.281836 C130.826679,143.080158 130.249702,144.100221 129.628334,145.342055 C129.539567,145.962972 129.339844,146.58388 129.02916,147.204797 C128.718475,147.825714 128.363413,148.446621 127.963961,149.067538 C127.56451,149.688455 127.165065,150.353714 126.765613,151.063333 C126.366162,151.772953 126.033291,152.526912 125.76699,153.325234 C125.323155,154.833175 124.746179,156.296744 124.036043,157.715982 C123.325907,159.135221 122.615782,160.643148 121.905646,162.239784 L120.840448,163.304208 C120.840448,163.659018 120.86264,163.991647 120.907023,164.302105 C120.951407,164.612564 120.973598,165.033894 120.973598,165.566109 C120.61853,166.187026 120.085936,166.940985 119.375801,167.828009 C119.287034,168.271522 119.198268,168.825903 119.109501,169.491172 C119.020734,170.15644 118.931968,170.888224 118.843202,171.686546 C118.576901,171.863951 118.288412,172.063528 117.977728,172.285284 C117.667044,172.50704 117.334172,172.750968 116.979105,173.017076 C116.801571,173.194481 116.757188,173.416233 116.845955,173.682341 C117.112256,174.658067 117.289787,175.456377 117.378554,176.077294 C117.467321,176.698211 117.445129,177.230418 117.311979,177.67393 C117.178829,178.117442 116.956915,178.538773 116.64623,178.937934 C116.335546,179.337095 115.869526,179.847126 115.248157,180.468043 C115.336924,181.177662 115.381307,181.865096 115.381307,182.530364 C115.381307,183.195632 114.937479,183.883066 114.049809,184.592686 C113.16214,185.036198 112.185718,185.391002 111.120514,185.657109 C110.055311,185.923217 108.901358,185.967567 107.65862,185.790162 C105.883281,185.612758 104.285499,185.147077 102.865228,184.393106 C101.444957,183.639135 100.113472,182.330794 98.8707346,180.468043 Z M77.3004703,144.277631 C76.6791015,146.583894 76.324039,148.66837 76.235272,150.531121 C76.0577381,152.216468 76.0133553,153.857438 76.1021223,155.454082 C76.1908892,157.050726 76.013358,158.602995 75.5695231,160.110936 C75.4807562,160.288341 75.4807562,160.465743 75.5695231,160.643148 C75.6582901,160.820553 75.7026729,161.086656 75.7026729,161.441466 C75.9689738,160.731847 76.1908879,160.133114 76.3684218,159.645251 C76.5459557,159.157387 76.6347214,158.647356 76.6347214,158.115141 C76.7234883,155.631473 76.9010196,153.214368 77.1673205,150.863754 C77.425592,148.584014 77.642113,146.241733 77.8168896,143.836844 C77.4726085,144.05258 77.3004703,144.199507 77.3004703,144.277631 Z M79.1645672,143.146681 C79.608402,143.013627 80.0522302,142.902751 80.496065,142.814047 C80.407298,142.104429 80.2075754,141.572222 79.896891,141.217412 C79.5862066,140.862603 79.120187,140.818252 78.4988183,141.084359 C78.0549835,141.527871 77.8330694,141.971377 77.8330694,142.414889 C77.8330694,142.800749 77.8666635,143.186604 77.9338527,143.572463 C78.3440922,143.41159 78.7543268,143.269663 79.1645672,143.146681 Z M146.35792,176.3998 C146.180386,177.641635 146.069429,178.88345 146.025046,180.125284 C145.980662,181.367118 145.958471,182.653284 145.958471,183.983821 C147.201208,183.717713 147.911333,183.495961 148.088867,183.318556 C150.130507,182.165424 151.994586,180.812732 153.681158,179.26044 C155.36773,177.708147 157.009894,176.000651 158.6077,174.1379 C160.826874,171.565529 162.890675,168.926671 164.799165,166.221247 C166.707654,163.515823 168.638307,160.699563 170.59118,157.772382 L172.188977,155.377429 C173.431715,155.643536 174.385945,155.865289 175.051698,156.042694 C175.71745,156.220099 176.294426,156.397501 176.782645,156.574906 C177.270863,156.75231 177.6925,156.974063 178.047568,157.240171 C178.402635,157.506278 178.846464,157.861082 179.379065,158.304594 C179.201531,158.836809 178.935235,159.324665 178.580167,159.768177 C178.225099,160.211689 178.09195,160.832597 178.180717,161.630919 C178.269484,162.074431 178.114144,162.584463 177.714693,163.161028 C177.315242,163.737594 176.937988,164.247626 176.58292,164.691138 C172.233339,171.432523 167.52876,177.819002 162.469043,183.850768 C161.492607,184.826494 160.516185,185.757856 159.539748,186.64488 L156.610453,189.30594 C155.634016,189.926857 154.835126,190.370363 154.213757,190.63647 C151.284447,191.434792 148.399564,191.856122 145.559021,191.900473 C142.718479,191.944824 139.877978,191.21304 137.037435,189.705099 C132.421553,187.310133 129.669819,183.540336 128.782149,178.395595 C128.427081,176.266737 128.293933,174.160086 128.3827,172.075578 C128.471467,169.991071 128.693381,167.928771 129.048449,165.888615 C130.113652,160.743873 131.48952,155.754436 133.176092,150.920154 C134.862664,146.085871 137.126188,141.406888 139.966731,136.883064 C141.653303,134.399396 143.273276,132.603198 144.826698,131.494418 C146.380119,130.385637 147.955709,129.80908 149.553515,129.764729 C151.15132,129.720378 152.837867,130.053007 154.613206,130.762626 C156.388546,131.472246 158.34139,132.403608 160.471797,133.556739 C162.957272,134.798573 164.799159,136.417368 165.997513,138.413173 C167.195867,140.408978 168.016949,142.693031 168.460783,145.265402 L168.460783,146.728985 C168.460783,147.261199 168.416401,147.704705 168.327634,148.059515 C167.706265,150.099671 167.018331,152.095445 166.263812,154.046899 C165.509293,155.998352 164.377531,157.772375 162.868493,159.369018 C160.205484,161.941389 157.675663,164.602422 155.278955,167.352197 C152.882247,170.101973 150.352427,172.718655 147.689418,175.202324 C147.33435,175.468431 146.890522,175.867586 146.35792,176.3998 Z M147.822568,139.344544 C147.744825,139.771816 147.667084,140.182074 147.589342,140.575326 C148.109097,140.050545 148.586284,139.440711 149.020916,138.745806 C149.46475,138.036186 149.997344,137.54833 150.618713,137.282223 C150.70748,136.838711 150.774054,136.483906 150.818438,136.217799 C150.862821,135.951692 150.885013,135.685588 150.885013,135.419481 C150.441178,134.443754 150.130498,133.911548 149.952964,133.822845 C149.77543,133.734143 149.331602,133.867194 148.621466,134.222004 C148.177631,134.842921 147.822569,135.486004 147.556268,136.151272 C147.289967,136.816541 146.934905,137.459624 146.49107,138.080541 C142.851624,142.338257 140.210847,147.128117 138.568658,152.450263 C136.926469,157.772409 135.52841,163.892785 134.37444,170.811575 C134.37444,171.166385 134.418823,171.388138 134.50759,171.47684 C135.128958,170.944625 135.484021,170.456769 135.572788,170.013257 C136.460458,166.997374 137.192774,164.158939 137.769759,161.497866 C138.346745,158.836793 139.012487,156.286636 139.767006,153.847319 C140.521525,151.408003 141.431373,149.101774 142.496576,146.928564 C143.56178,144.755355 144.98203,142.648703 146.757369,140.608547 C147.112437,140.253738 147.356543,139.810232 147.489693,139.278018 C147.597192,138.848334 147.777013,138.505381 148.02916,138.249152 C147.960296,138.600936 147.891432,138.966065 147.822568,139.344544 Z M147.488619,140.8092 L147.156819,141.140759 C146.979285,141.318164 146.934902,141.628618 147.023669,142.07213 C147.178653,141.684951 147.333635,141.263978 147.488619,140.8092 Z M148.088867,137.947488 L148.222017,138.080541 C148.153613,138.131806 148.089327,138.18801 148.02916,138.249152 C148.049062,138.147482 148.068965,138.046928 148.088867,137.947488 Z M158.74085,147.527303 C158.74085,146.374171 158.807424,145.265407 158.940574,144.200978 C159.073725,143.136549 158.829619,141.983434 158.20825,140.7416 L157.475927,141.473392 C157.254009,141.695148 157.098669,141.939076 157.009902,142.205183 C156.566068,143.003505 156.100048,143.846166 155.61183,144.73319 C155.123611,145.620214 154.746356,146.551576 154.480057,147.527303 C154.213756,148.414327 153.858693,149.212637 153.414858,149.922256 C152.971024,150.631876 152.394047,151.297134 151.683911,151.918051 C151.595144,152.716373 151.52857,153.492508 151.484187,154.246478 C151.439803,155.000449 151.417612,155.732233 151.417612,156.441853 C151.417612,156.619258 151.639526,156.84101 152.083361,157.107118 C153.414865,155.776581 154.657584,154.357363 155.811554,152.849422 C156.965525,151.341481 157.941947,149.567459 158.74085,147.527303 Z M148.621466,136.750011 C148.710233,137.193523 148.688042,137.481802 148.554891,137.614855 C148.465613,137.704069 148.366359,137.783312 148.257127,137.852585 C148.31267,137.616771 148.434116,137.249247 148.621466,136.750011 Z M148.222017,138.080541 L148.088867,137.947488 C148.147363,137.918261 148.20345,137.886627 148.257127,137.852585 C148.23372,137.95196 148.222017,138.027945 148.222017,138.080541 Z M171.523228,190.769523 C171.700762,190.237308 171.811719,189.727277 171.856103,189.239414 C171.900486,188.75155 172.011443,188.285869 172.188977,187.842357 C173.786783,187.044035 175.340181,186.245725 176.84922,185.447403 C178.358258,184.649082 179.778508,183.673369 181.110013,182.520238 C184.838225,179.32695 188.344467,175.823257 191.628845,172.009052 C192.07268,171.476837 192.449934,170.966806 192.760618,170.478943 C193.071303,169.991079 193.359791,169.436697 193.626092,168.81578 C193.892393,168.372268 194.136498,167.840061 194.358416,167.219144 C194.580333,166.598227 194.868821,165.932969 195.223889,165.22335 L194.158691,165.22335 C190.96308,167.707018 187.190541,168.860132 182.84096,168.682727 C179.290281,168.150513 176.050336,166.686944 173.121026,164.291979 C171.700754,163.050145 170.990629,161.586576 170.990629,159.90123 C170.813095,158.215884 170.946244,156.574914 171.390078,154.97827 C171.833913,153.736436 172.366507,152.583321 172.987876,151.518892 C173.609245,150.454463 174.274987,149.345699 174.985123,148.192568 C176.760462,145.708899 178.735497,143.447021 180.910288,141.406865 C183.085078,139.366709 185.370793,137.459636 187.767501,135.685587 C188.300103,135.242075 189.143377,134.643342 190.297347,133.889372 C191.451318,133.135401 192.671845,132.337091 193.958966,131.494418 C195.246087,130.651745 196.466615,129.87561 197.620585,129.165991 C198.774556,128.456371 199.662212,127.924165 200.283581,127.569355 C200.816183,127.303248 201.393159,127.170196 202.014528,127.170196 C202.369596,127.081494 202.74685,127.059318 203.146301,127.103669 C203.545752,127.148021 204.011772,127.170196 204.544374,127.170196 C206.40848,128.41203 208.383515,129.764722 210.469539,131.228312 C212.555563,132.691902 214.619363,134.177646 216.661004,135.685587 C216.838538,136.040397 216.993877,136.417376 217.127028,136.816537 L217.593052,138.213594 C216.172781,138.568403 214.574999,139.255837 212.79966,140.275915 C211.024321,141.295993 209.249008,142.449107 207.473669,143.735293 C205.69833,145.021478 204.033974,146.329819 202.480552,147.660356 C200.92713,148.990892 199.706603,150.099656 198.818933,150.98668 C198.375098,151.430192 197.798122,151.918048 197.087986,152.450263 C196.644151,152.893775 196.266897,153.381631 195.956213,153.913846 C195.645529,154.446061 195.490189,155.066968 195.490189,155.776588 C197.176761,156.397505 198.796734,157.062763 200.350156,157.772382 C201.903578,158.482002 203.434785,159.191611 204.943823,159.90123 C205.121357,160.34474 205.298888,160.721722 205.476422,161.032181 C205.653956,161.342639 205.87587,161.630918 206.142171,161.897025 C208.006277,163.937181 208.67202,166.24341 208.139418,168.81578 C207.961884,169.5254 207.850927,170.146307 207.806543,170.678522 C207.76216,171.210737 207.695586,171.831644 207.606819,172.541264 C207.429285,172.807371 207.229562,173.051299 207.007645,173.273055 C206.785727,173.494811 206.630387,173.694389 206.54162,173.871794 C206.452853,175.113628 206.119982,176.13369 205.542997,176.932012 C204.966012,177.730334 204.411227,178.528644 203.878625,179.326966 C203.168489,180.21399 202.54713,181.0123 202.014528,181.72192 C201.481926,182.431539 200.860567,183.141148 200.150431,183.850768 C199.085227,184.737792 198.042231,185.602628 197.021411,186.445301 C196.000591,187.287974 194.913212,188.064109 193.759242,188.773728 C193.049106,189.305943 192.361172,189.749448 191.69542,190.104258 C191.029668,190.459068 190.208586,190.68082 189.232149,190.769523 C188.255712,190.946928 187.279291,191.257382 186.302854,191.700894 C185.326417,192.144406 184.349995,192.49921 183.373559,192.765318 C181.775753,193.20883 180.244546,193.341881 178.779891,193.164477 C177.315236,192.987072 175.828412,192.676618 174.319374,192.233106 C173.964306,192.055701 173.587052,191.856123 173.187601,191.634367 C172.788149,191.412611 172.233364,191.124333 171.523228,190.769523 Z M178.580167,156.974065 C179.024002,155.288718 179.756318,153.692098 180.777138,152.184157 C181.797958,150.676216 182.974103,149.256998 184.305607,147.926462 C185.548345,146.507223 186.968595,145.243232 188.5664,144.134452 C190.164206,143.025671 191.717604,141.850381 193.226642,140.608547 C192.782808,139.898928 192.272405,139.477598 191.69542,139.344544 C191.118435,139.21149 190.56365,139.189315 190.031048,139.278018 C187.012971,140.785959 184.416576,142.715208 182.241786,145.065822 C180.066995,147.416437 178.313874,150.010944 176.982369,152.849422 C176.716068,153.381637 176.58292,153.825142 176.58292,154.179952 C176.494153,154.357357 176.538536,154.712161 176.71607,155.244376 C177.159905,155.77659 177.359627,156.308797 177.315244,156.841012 C177.27086,157.373226 177.692497,157.417577 178.580167,156.974065 Z M240.761114,138.745806 C241.204949,138.302293 241.604394,137.925314 241.959462,137.614855 C242.31453,137.304397 242.713975,136.927417 243.15781,136.483905 C244.666848,137.282227 246.242438,138.036186 247.884627,138.745806 C249.526816,139.455425 251.102406,140.253735 252.611444,141.140759 C254.386783,142.116486 256.117713,142.981322 257.804286,143.735293 C259.490858,144.489263 261.177405,145.265398 262.863977,146.06372 C264.373016,146.773339 265.992988,147.327721 267.723944,147.726882 C269.4549,148.126043 271.163638,148.946528 272.850211,150.188362 C272.672677,150.631875 272.495145,150.964504 272.317612,151.18626 C272.140078,151.408016 272.006929,151.651944 271.918162,151.918051 C270.941726,152.538968 269.987495,153.071175 269.055442,153.514687 C268.123389,153.958199 267.080393,154.446055 265.926422,154.97827 C264.417384,154.800865 262.841794,154.512586 261.199605,154.113425 C259.557416,153.714264 257.981826,153.159883 256.472788,152.450263 C255.940186,152.805073 255.651698,153.182053 255.607314,153.581213 C255.562931,153.980374 255.540739,154.401705 255.540739,154.845217 C255.629506,156.619265 255.607315,158.415463 255.474164,160.233863 C255.341014,162.052263 255.008143,163.892811 254.475541,165.755562 C254.031706,166.465181 253.565687,167.17479 253.077468,167.884409 C252.58925,168.594029 252.12323,169.436689 251.679396,170.412416 C251.679396,170.678523 251.701587,170.966802 251.745971,171.27726 C251.790354,171.587719 251.856928,171.964699 251.945695,172.408211 C251.50186,173.206533 251.146798,174.027018 250.880497,174.869691 C250.614196,175.712364 250.259134,176.488499 249.815299,177.198118 C248.572561,178.883465 247.352034,180.590961 246.15368,182.320658 C244.955326,184.050356 243.60165,185.580456 242.092612,186.910986 C235.878924,191.78962 229.132736,192.809683 221.853845,189.971205 C221.41001,189.7938 220.899608,189.549872 220.322623,189.239414 C219.745637,188.928955 219.235235,188.685027 218.7914,188.507622 C217.548663,187.7093 216.505666,186.999691 215.66238,186.378774 C214.819094,185.757857 214.108969,185.092599 213.531984,184.38298 C212.954999,183.67336 212.422405,182.808524 211.934186,181.788446 C211.445968,180.768368 210.891183,179.504378 210.269814,177.996436 C209.825979,174.093529 209.870362,170.390258 210.402964,166.886512 C210.935566,163.382766 211.867605,159.945598 213.199109,156.574906 C214.441847,153.381618 215.817714,150.365781 217.326753,147.527303 C218.835791,144.688825 220.389189,141.939091 221.986995,139.278018 C222.608364,138.302291 223.207532,137.45963 223.784517,136.750011 C224.361502,136.040391 224.96067,135.330783 225.582039,134.621163 C226.114641,134.000246 226.691617,133.490215 227.312986,133.091054 C227.934355,132.691893 228.688863,132.447965 229.576532,132.359262 C231.529405,133.334989 233.393484,134.377227 235.168823,135.486007 C236.944162,136.594788 238.808241,137.681376 240.761114,138.745806 Z M229.043933,181.056655 C231.085573,179.548714 232.971843,178.01862 234.702799,176.466327 C236.433755,174.914034 237.964962,173.029136 239.296466,170.811575 C240.716738,168.505312 241.759734,166.110382 242.425486,163.626714 C243.091238,161.143046 243.557258,158.615064 243.823559,156.042694 C244.178627,152.139787 244.178627,148.990897 243.823559,146.595932 C243.468491,144.200966 242.758366,142.11649 241.693162,140.342441 C241.249327,141.318168 240.849882,142.183004 240.494814,142.936975 C240.139746,143.690945 239.784684,144.422729 239.429616,145.132349 C239.074548,145.309754 238.78606,145.464981 238.564142,145.598034 C238.342225,145.731088 238.142502,145.841964 237.964968,145.930667 C237.432367,147.172501 236.944156,148.458667 236.500321,149.789203 C236.056486,151.11974 235.612658,152.361555 235.168823,153.514687 C234.36992,155.377438 233.593221,157.262337 232.838702,159.169439 C232.084183,161.076541 231.485015,163.094491 231.04118,165.22335 L230.508581,167.352197 C228.999542,170.811592 228.02312,174.847493 227.579286,179.460019 C227.579286,179.637424 227.623668,179.792651 227.712435,179.925705 C227.801202,180.058758 227.889968,180.213985 227.978735,180.39139 L228.511334,180.657496 C228.688868,180.746198 228.866399,180.87925 229.043933,181.056655 Z M324.379175,182.786344 C324.201641,180.923593 324.112876,179.127395 324.112876,177.397698 C324.112876,175.668 324.201641,173.916154 324.379175,172.142105 C324.556709,170.368056 324.800815,168.66056 325.111499,167.019565 C325.422183,165.37857 325.666289,163.671074 325.843823,161.897025 L324.778625,162.163131 C322.736984,164.912906 320.761949,167.684816 318.853459,170.478943 C316.94497,173.273069 315.014317,176.17803 313.061444,179.193913 L312.395695,179.526546 C312.129394,179.659599 311.774332,179.859177 311.330497,180.125284 L311.330497,180.857075 C311.330497,181.167534 311.37488,181.500163 311.463647,181.854973 C311.197346,182.8307 310.620369,183.429432 309.7327,183.651188 C308.84503,183.872944 308.001756,184.116872 307.202854,184.38298 C307.114087,184.826492 307.025321,185.136946 306.936554,185.31435 L306.537105,186.112668 C305.116833,186.822288 303.652201,187.044039 302.143162,186.777933 C299.125085,186.511826 296.772796,185.092608 295.086224,182.520238 C294.642389,180.391379 294.376092,178.284728 294.287325,176.200221 C294.198558,174.115714 294.376089,172.053413 294.819924,170.013257 C295.086225,169.03753 295.219374,167.950942 295.219374,166.753459 C295.219374,165.555976 295.308139,164.425037 295.485673,163.360608 C295.130605,162.917096 294.842117,162.761869 294.6202,162.894922 C294.398282,163.027976 294.242942,163.227554 294.154175,163.493661 C293.976641,164.291983 293.665962,164.935066 293.222127,165.422929 C292.778292,165.910793 292.378847,166.420824 292.023779,166.953038 C291.579944,167.485253 291.291456,168.06181 291.158305,168.682727 C291.025155,169.303644 290.603518,169.835851 289.893382,170.279363 C289.715848,170.456768 289.560509,170.656345 289.427358,170.878102 C289.294208,171.099858 289.227634,171.343786 289.227634,171.609893 C289.0501,172.851727 288.561889,173.893965 287.762986,174.736638 C286.964083,175.579311 286.475872,176.577199 286.298338,177.73033 C285.588203,178.528652 285.033417,179.393488 284.633966,180.324863 C284.234515,181.256239 283.590964,182.076724 282.703294,182.786344 C282.259459,183.141153 281.94878,183.584659 281.771246,184.116874 C281.593712,184.649088 281.416181,185.003893 281.238647,185.181297 C280.084676,185.979619 279.063871,186.733579 278.176202,187.443198 L278.176202,187.576251 C277.998668,187.753656 277.776754,187.842357 277.510453,187.842357 C275.468813,188.729378 273.582543,188.951134 271.851587,188.507622 C270.120631,188.06411 268.36751,187.398852 266.592171,186.511827 C265.083133,185.802208 263.884797,184.826496 262.997127,183.584662 C262.109457,182.342828 261.665629,180.879259 261.665629,179.193913 C261.488095,177.419864 261.377138,175.668018 261.332755,173.93832 C261.288371,172.208623 261.354945,170.456776 261.532479,168.682727 C261.887547,160.965616 263.174649,153.24862 265.393823,145.531508 C265.926425,143.668757 266.592167,141.806034 267.39107,139.943282 C268.189972,138.080531 269.033246,136.173458 269.920915,134.222004 C270.453517,133.246277 271.052685,132.359266 271.718438,131.560944 C272.38419,130.762622 273.027741,129.875611 273.649109,128.899885 C273.91541,128.456373 274.270473,128.145919 274.714308,127.968514 C275.158142,127.791109 275.557588,127.525006 275.912656,127.170196 C276.622791,127.613708 277.266342,128.012863 277.843327,128.367673 C278.420313,128.722482 278.930715,128.988586 279.37455,129.165991 C281.061122,129.786908 282.592329,130.319114 283.968217,130.762626 C285.344105,131.206139 286.697781,131.649644 288.029285,132.093156 C288.384353,132.181859 288.65065,132.359261 288.828184,132.625368 C289.005718,132.891476 289.227632,133.201929 289.493933,133.556739 C289.138865,134.709871 288.850377,135.84081 288.62846,136.94959 C288.406542,138.058371 287.851757,139.011908 286.964087,139.810229 C286.87532,141.761683 286.542449,143.602231 285.965464,145.331928 C285.388479,147.061626 284.878076,148.769122 284.434241,150.454468 C283.990407,152.051112 283.502196,153.625557 282.969594,155.177849 C282.436992,156.730142 281.860015,158.260236 281.238647,159.768177 L281.238647,161.032181 C281.238647,161.431342 281.327412,161.763971 281.504946,162.030078 C282.037548,162.11878 282.392611,162.007904 282.570145,161.697446 C282.747678,161.386987 282.92521,161.054358 283.102744,160.699548 C284.611782,158.393285 286.076415,156.087056 287.496686,153.780793 C288.916958,151.47453 290.337208,149.257002 291.757479,147.128144 C293.000217,144.999285 294.46485,143.047861 296.151422,141.273812 C297.216626,140.209383 298.326196,139.167145 299.480167,138.147067 C300.634137,137.126989 302.09877,136.395205 303.874109,135.951693 C305.116847,136.57261 306.403948,137.14917 307.735453,137.681382 C309.066957,138.213596 310.487207,138.834504 311.996246,139.544124 C312.262547,139.987636 312.551035,140.386791 312.861719,140.7416 C313.172404,141.09641 313.416509,141.495565 313.594043,141.939077 C313.949111,143.447019 313.993494,144.910587 313.727193,146.329826 C313.460892,147.749065 313.283361,149.123932 313.194594,150.454468 C313.01706,151.696302 312.772954,152.982468 312.46227,154.313005 C312.151586,155.643541 311.818715,156.974058 311.463647,158.304594 C311.907482,158.481999 312.240353,158.459824 312.46227,158.238068 L313.061444,157.63933 C314.836783,155.333066 316.634287,153.026838 318.45401,150.720574 C320.273733,148.414311 322.071237,146.063732 323.846576,143.668766 C325.533149,141.362503 327.175313,139.056274 328.773118,136.750011 C330.370923,134.443748 332.05747,132.137519 333.83281,129.831256 C334.187878,129.387743 334.565131,128.922063 334.964583,128.434199 C335.364034,127.946336 335.963202,127.569356 336.762105,127.303249 C338.537444,128.012868 340.334948,128.722477 342.154671,129.432097 C343.974394,130.141716 345.816281,130.984377 347.680387,131.960103 C347.946688,132.403616 348.190793,132.824946 348.412711,133.224107 C348.634628,133.623268 348.878733,134.044598 349.145034,134.48811 C348.701199,136.794373 348.368328,139.056251 348.146411,141.273812 C347.924494,143.491373 347.414091,145.708901 346.615189,147.926462 C345.905053,149.966618 345.261502,152.051093 344.684517,154.179952 C344.107531,156.30881 343.286449,158.348936 342.221246,160.300389 C342.132479,160.743901 342.088096,161.165232 342.088096,161.564393 C342.088096,161.963554 341.99933,162.384884 341.821796,162.828396 L341.289197,165.755562 C342.709469,165.312049 343.796848,164.55809 344.551367,163.493661 C345.305886,162.429232 346.215734,161.586571 347.280937,160.965654 C347.902306,161.054357 348.457091,161.143058 348.94531,161.23176 C349.433528,161.320463 349.988313,161.453514 350.609682,161.630919 C350.520915,161.098704 350.476532,160.655199 350.476532,160.300389 C350.476532,159.945579 350.432149,159.546425 350.343382,159.102912 C350.69845,158.836805 351.075704,158.526351 351.475155,158.171541 C351.874607,157.816732 352.251861,157.461927 352.606929,157.107118 C353.494598,157.19582 354.204723,157.461923 354.737325,157.905435 C355.269927,158.348948 355.758138,158.836804 356.201973,159.369018 C356.201973,159.901233 356.224164,160.433442 356.268548,160.965654 C356.312931,161.497869 356.379505,162.030075 356.468272,162.56229 C355.314302,163.804124 354.160348,165.068115 353.006378,166.3543 C351.852407,167.640485 350.698454,168.904476 349.544484,170.14631 C348.301746,171.388144 347.192176,172.652135 346.215739,173.93832 C345.239303,175.224505 344.262881,176.532847 343.286444,177.863383 C342.310007,179.19392 341.289203,180.546612 340.223999,181.921499 C339.158796,183.296387 338.315522,184.870832 337.694153,186.64488 C337.250318,186.556178 336.873065,186.511827 336.56238,186.511827 C336.251696,186.511827 335.918825,186.467477 335.563757,186.378774 C335.031155,186.290072 334.542944,186.179196 334.099109,186.046142 C333.655274,185.913088 333.211446,185.846562 332.767611,185.846562 C329.660768,186.11267 326.86465,185.092607 324.379175,182.786344 Z M364.856708,176.3998 C364.679174,177.641635 364.568217,178.88345 364.523834,180.125284 C364.47945,181.367118 364.457259,182.653284 364.457259,183.983821 C365.699996,183.717713 366.410122,183.495961 366.587655,183.318556 C368.629296,182.165424 370.493374,180.812732 372.179946,179.26044 C373.866518,177.708147 375.508683,176.000651 377.106488,174.1379 C379.325662,171.565529 381.389463,168.926671 383.297953,166.221247 C385.206442,163.515823 387.137095,160.699563 389.089968,157.772382 L390.687766,155.377429 C391.930503,155.643536 392.884734,155.865289 393.550486,156.042694 C394.216238,156.220099 394.793215,156.397501 395.281433,156.574906 C395.769651,156.75231 396.191288,156.974063 396.546356,157.240171 C396.901424,157.506278 397.345252,157.861082 397.877854,158.304594 C397.70032,158.836809 397.434023,159.324665 397.078955,159.768177 C396.723887,160.211689 396.590739,160.832597 396.679506,161.630919 C396.768273,162.074431 396.612933,162.584463 396.213481,163.161028 C395.81403,163.737594 395.436776,164.247626 395.081708,164.691138 C390.732127,171.432523 386.027549,177.819002 380.967832,183.850768 C379.991395,184.826494 379.014973,185.757856 378.038536,186.64488 L375.109241,189.30594 C374.132805,189.926857 373.333914,190.370363 372.712545,190.63647 C369.783236,191.434792 366.898352,191.856122 364.05781,191.900473 C361.217267,191.944824 358.376767,191.21304 355.536224,189.705099 C350.920342,187.310133 348.168607,183.540336 347.280937,178.395595 C346.92587,176.266737 346.792721,174.160086 346.881488,172.075578 C346.970255,169.991071 347.192169,167.928771 347.547237,165.888615 C348.612441,160.743873 349.988308,155.754436 351.67488,150.920154 C353.361452,146.085871 355.624976,141.406888 358.465519,136.883064 C360.152091,134.399396 361.772064,132.603198 363.325486,131.494418 C364.878908,130.385637 366.454498,129.80908 368.052303,129.764729 C369.650108,129.720378 371.336655,130.053007 373.111995,130.762626 C374.887334,131.472246 376.840178,132.403608 378.970585,133.556739 C381.45606,134.798573 383.297947,136.417368 384.496301,138.413173 C385.694655,140.408978 386.515737,142.693031 386.959572,145.265402 L386.959572,146.728985 C386.959572,147.261199 386.915189,147.704705 386.826422,148.059515 C386.205053,150.099671 385.51712,152.095445 384.7626,154.046899 C384.008081,155.998352 382.876319,157.772375 381.367281,159.369018 C378.704272,161.941389 376.174452,164.602422 373.777744,167.352197 C371.381036,170.101973 368.851215,172.718655 366.188206,175.202324 C365.833138,175.468431 365.38931,175.867586 364.856708,176.3998 Z M366.321356,139.344544 C366.243613,139.771816 366.165872,140.182074 366.08813,140.575326 C366.607885,140.050545 367.085072,139.440711 367.519704,138.745806 C367.963539,138.036186 368.496133,137.54833 369.117501,137.282223 C369.206268,136.838711 369.272842,136.483906 369.317226,136.217799 C369.361609,135.951692 369.383801,135.685588 369.383801,135.419481 C368.939966,134.443754 368.629286,133.911548 368.451752,133.822845 C368.274218,133.734143 367.83039,133.867194 367.120255,134.222004 C366.67642,134.842921 366.321357,135.486004 366.055056,136.151272 C365.788755,136.816541 365.433693,137.459624 364.989858,138.080541 C361.350413,142.338257 358.709635,147.128117 357.067446,152.450263 C355.425257,157.772409 354.027199,163.892785 352.873228,170.811575 C352.873228,171.166385 352.917611,171.388138 353.006378,171.47684 C353.627747,170.944625 353.982809,170.456769 354.071576,170.013257 C354.959246,166.997374 355.691562,164.158939 356.268548,161.497866 C356.845533,158.836793 357.511275,156.286636 358.265794,153.847319 C359.020313,151.408003 359.930161,149.101774 360.995365,146.928564 C362.060568,144.755355 363.480818,142.648703 365.256158,140.608547 C365.611225,140.253738 365.855331,139.810232 365.988481,139.278018 C366.09598,138.848334 366.275801,138.505381 366.527948,138.249152 C366.459084,138.600936 366.39022,138.966065 366.321356,139.344544 Z M365.655607,141.140759 C365.478073,141.318164 365.43369,141.628618 365.522457,142.07213 C365.677441,141.684951 365.832424,141.263978 365.987407,140.809195 L365.655607,141.140759 Z M366.587655,137.947488 L366.720805,138.080541 C366.652401,138.131806 366.588116,138.18801 366.527948,138.249152 C366.54785,138.147482 366.567753,138.046928 366.587655,137.947488 Z M377.239638,147.527303 C377.239638,146.374171 377.306212,145.265407 377.439362,144.200978 C377.572513,143.136549 377.328407,141.983434 376.707039,140.7416 L375.974715,141.473392 C375.752797,141.695148 375.597458,141.939076 375.508691,142.205183 C375.064856,143.003505 374.598836,143.846166 374.110618,144.73319 C373.6224,145.620214 373.245144,146.551576 372.978845,147.527303 C372.712544,148.414327 372.357481,149.212637 371.913647,149.922256 C371.469812,150.631876 370.892835,151.297134 370.182699,151.918051 C370.093933,152.716373 370.027358,153.492508 369.982975,154.246478 C369.938591,155.000449 369.9164,155.732233 369.9164,156.441853 C369.9164,156.619258 370.138314,156.84101 370.582149,157.107118 C371.913653,155.776581 373.156372,154.357363 374.310343,152.849422 C375.464313,151.341481 376.440735,149.567459 377.239638,147.527303 Z M367.120255,136.750011 C367.209022,137.193523 367.18683,137.481802 367.05368,137.614855 C366.964401,137.704069 366.865147,137.783312 366.755915,137.852585 C366.811459,137.616771 366.932905,137.249247 367.120255,136.750011 Z M63.2248516,104.394482 C63.3865155,104.439483 63.6038974,104.46143 63.8770036,104.460323 C64.1501099,104.459215 64.4098682,104.508384 64.6562864,104.607831 C65.9495979,104.967844 67.208358,105.364518 68.4326043,105.797863 C69.6568506,106.231208 70.9579871,106.655104 72.3360529,107.069562 C72.6609161,107.807893 73.1317471,108.463438 73.7485602,109.036218 C73.4126139,110.115092 73.0958998,111.191588 72.7984084,112.26574 C72.500917,113.339892 72.2226572,114.411667 71.9636206,115.481097 C71.056225,118.899939 70.2795108,122.270261 69.6334548,125.592163 C68.9873987,128.914066 68.3260474,132.270222 67.6493809,135.660735 C67.0794669,138.64903 66.5672429,141.630199 66.1126934,144.604329 C65.658144,147.57846 65.1882964,150.58685 64.7031367,153.629591 C64.7188257,153.757367 64.6787941,153.908196 64.5830408,154.082082 C64.4872875,154.255968 64.4472559,154.406797 64.4629449,154.534574 C64.5601496,156.597888 64.3591401,158.616723 63.8599106,160.591141 C63.3606811,162.565559 63.0019324,164.571337 62.7836537,166.608536 C62.6925902,167.138529 62.6360603,167.631849 62.6140621,168.088511 C62.5920639,168.545173 62.5355339,169.038493 62.4444705,169.568487 C62.133593,171.487352 61.8246813,173.42216 61.5177261,175.37297 C61.2107709,177.323779 60.98269,179.281088 60.8334765,181.244955 C60.7816356,182.094391 60.6336597,182.955617 60.3895445,183.82866 C60.1454293,184.701704 59.9629214,185.599596 59.8420153,186.522362 C58.4968629,187.011784 57.4303323,187.385928 56.6423914,187.644803 C55.8544506,187.903679 55.0912483,188.046026 54.3527614,188.071849 C53.6142746,188.097673 52.7832015,188.005164 51.8595172,187.79432 C50.9358329,187.583477 49.6696123,187.284995 48.0608174,186.898867 C47.2211197,186.418305 46.7385221,185.666928 46.61301,184.644715 C46.5267205,183.941943 46.4270884,183.289458 46.3141108,182.68724 C46.2011331,182.085023 46.139955,181.427816 46.1305755,180.715601 C46.3316299,177.902299 46.4365456,175.100843 46.4453258,172.311149 C46.4541059,169.521455 46.5896315,166.65139 46.8519066,163.700868 C46.9037475,162.851433 46.9806981,162.047565 47.0827599,161.289241 C47.1848231,160.530916 47.2578515,159.695105 47.3018479,158.781781 L47.1253474,157.344301 C43.4572144,157.989246 40.3816394,158.691131 37.8985302,159.44998 C35.415421,160.208828 33.3710349,161.043502 31.7653106,161.954027 C30.079438,164.755087 28.3531753,167.544855 26.5864708,170.323415 C24.8197662,173.101974 23.1782565,175.946187 21.6618923,178.856137 C21.424854,179.468906 21.0799137,179.997638 20.6270707,180.442349 C20.1742246,180.887061 19.7869084,181.388571 19.4651184,181.946895 L19.5945521,183.001047 C18.8489884,183.287145 18.122663,183.570879 17.4155542,183.852255 C16.7084483,184.133631 15.9742756,184.353478 15.2130229,184.511799 C14.2288856,184.762339 13.2271131,184.869129 12.2076755,184.832171 C11.1882379,184.795213 10.2163077,184.509236 9.29185579,183.974229 C8.65150922,183.209783 8.63036297,182.401748 9.22841644,181.550098 C10.6757058,178.71348 12.1999011,175.86746 13.8010195,173.011954 C14.3300077,172.233636 14.8185726,171.444079 15.2667289,170.64326 C15.7148852,169.84244 16.2034501,169.052883 16.7324383,168.274565 C16.8627242,168.064013 16.9525928,167.842214 17.0020468,167.609162 C17.0515007,167.376109 17.1374471,167.122367 17.2598886,166.847927 C16.4138817,166.951803 15.6852114,167.057485 15.0738559,167.164976 C14.4625004,167.272467 13.8146609,167.40065 13.1303179,167.549528 C11.9908258,167.170628 10.8803834,166.869232 9.79895744,166.645331 C8.71753146,166.42143 7.61493347,166.183921 6.49113039,165.932797 C6.08151402,165.140022 5.9281214,164.526561 6.03095183,164.092402 C6.133782,163.658241 6.54228379,163.170342 7.25646947,162.628691 C8.40073545,161.774826 9.56067303,161.048748 10.736317,160.450437 C11.911961,159.852125 13.2570933,159.362711 14.7717542,158.982179 C17.7775424,158.029451 20.9371027,157.057851 24.2505298,156.067349 L24.7685164,155.517364 L25.3901002,154.857383 L25.3901002,154.857383 C27.9502871,150.911345 30.5991107,147.051755 33.3366506,143.278497 C36.0741904,139.505238 38.8846756,135.690649 41.7681904,131.834615 C43.976742,128.839675 46.2025266,125.826447 48.4456108,122.79484 C50.688695,119.763234 52.9144796,116.750006 55.1230312,113.755066 C56.0664107,112.536757 57.0250811,111.284163 57.9990709,109.997244 C58.9730608,108.710326 59.9278089,107.425787 60.863344,106.14359 C61.1317603,105.786375 61.440588,105.440416 61.7898364,105.105702 C62.1390847,104.770988 62.6174183,104.533917 63.2248516,104.394482 Z M54.9842856,161.215628 L55.228,163.197482 L55.2554509,163.010776 C55.3233628,162.526533 55.3494685,162.220482 55.3337687,162.092617 C55.3161064,161.948769 55.1996132,161.656443 54.9842856,161.215628 Z M50.1003818,134.975222 C48.0631559,137.685479 46.0084619,140.414028 43.936238,143.160952 C41.8640142,145.907875 39.8132356,148.668313 37.7838406,151.442348 L37.8778122,152.207685 C39.4735032,152.335458 41.0612185,152.23762 42.6410059,151.914166 C44.2207853,151.590714 45.9174162,151.414764 47.7309256,151.386312 C47.9169368,150.327634 48.1457734,149.296083 48.4174424,148.291628 C48.5877916,147.105393 48.7600959,145.935121 48.9343606,144.780775 C49.1086253,143.62643 49.3237579,142.483268 49.5797649,141.351256 C49.789269,140.483913 50.0007278,139.632528 50.2141475,138.797074 C50.4275672,137.961621 50.6001131,137.115013 50.7317905,136.257227 C50.8639511,136.04678 50.9318673,135.795669 50.9355412,135.503889 C50.9392151,135.212108 50.6608314,135.035888 50.1003818,134.975222 Z M366.755915,137.852585 C366.732508,137.95196 366.720805,138.027945 366.720805,138.080541 L366.587655,137.947488 C366.646151,137.918261 366.702238,137.886627 366.755915,137.852585 Z M59.6050453,132.819033 L59.6489183,133.17635 L59.7826481,133.280831 C59.7826481,133.280831 59.8126001,133.196554 59.872505,133.027996 C59.8627554,132.948592 59.8975822,132.904016 59.9769862,132.894266 C59.9672366,132.814862 59.8432576,132.789785 59.6050453,132.819033 Z M60.2061006,130.790068 L60.0869951,130.804692 C60.0967447,130.884097 60.0619179,130.928673 59.9825139,130.938422 C59.9031098,130.948172 59.8731578,131.03245 59.892657,131.191258 L60.0117625,131.176633 C60.0911666,131.166884 60.1333054,131.18186 60.1381802,131.221562 C60.143055,131.261264 60.1851938,131.27624 60.2645979,131.26649 L60.2061006,130.790068 Z M60.4618213,128.541552 L60.1524699,128.910354 C60.0118514,129.077997 60.078837,129.295333 60.3534286,129.562371 C60.3261441,129.340156 60.3408351,129.131588 60.3975021,128.936659 C60.4395296,128.792089 60.4609692,128.660387 60.4618213,128.541552 Z M61.4446026,126.709455 C61.4806954,127.003408 61.4680632,127.228744 61.4067055,127.38547 C61.360623,127.503178 61.3369355,127.618136 61.3356426,127.730344 C61.4486439,127.612779 61.5738413,127.504007 61.7112367,127.404025 C61.8962121,127.269418 61.807335,127.037898 61.4446026,126.709455 Z M63.2083377,119.453131 C62.7000389,119.840547 62.3207814,120.147114 62.0705619,120.37284 C61.8203424,120.598566 61.5760237,120.872316 61.337598,121.194094 C61.0991724,121.515873 60.872544,121.933699 60.6577061,122.447585 C60.4428683,122.961471 60.1623189,123.694668 59.8160497,124.647198 C60.014313,124.752856 60.1708707,124.896133 60.2857275,125.077034 C60.4005843,125.257934 60.6145695,125.49166 60.9276896,125.778218 C61.0394636,125.179486 61.2066997,124.655202 61.4294002,124.205351 C61.6521006,123.755501 61.823267,123.263234 61.9429045,122.728537 C62.0625421,122.19384 62.3230106,121.674358 62.7243178,121.170077 C63.1256251,120.665796 63.2869635,120.093487 63.2083377,119.453131 Z" id="path-2"></path>
    </defs>
    <g id="Assets" stroke="none" stroke-width="1" fill="none" fill-rule="evenodd">
        <g id="Artboard" transform="translate(-42.000000, -39.000000)">
            <g id="Group-2" transform="translate(34.000000, 40.000000)">
                <g id="Group-13" transform="translate(205.967603, 167.476985) rotate(-5.000000) translate(-205.967603, -167.476985) translate(7.967603, 74.976985)">
                    <path d="M367,6.96331881e-13 L367,57.024 L34,57.024 L34,6.96331881e-13 L367,6.96331881e-13 Z M202.31091,21.9131216 C199.884232,21.9131216 197.704253,22.3931168 195.77091,23.3531216 C193.837567,24.3131264 192.324249,25.653113 191.23091,27.3731216 C190.137572,29.0931302 189.59091,31.046444 189.59091,33.2331216 C189.59091,35.4197992 190.137572,37.373113 191.23091,39.0931216 C192.324249,40.8131302 193.837567,42.1597834 195.77091,43.1331216 C197.704253,44.1064598 199.884232,44.5931216 202.31091,44.5931216 C204.764256,44.5931216 206.957567,44.1064598 208.89091,43.1331216 C210.824253,42.1597834 212.330905,40.8131302 213.41091,39.0931216 C214.490916,37.373113 215.03091,35.4197992 215.03091,33.2331216 C215.03091,31.046444 214.490916,29.0931302 213.41091,27.3731216 C212.330905,25.653113 210.824253,24.3131264 208.89091,23.3531216 C206.957567,22.3931168 204.764256,21.9131216 202.31091,21.9131216 Z M273.35091,14.5131216 L264.31091,14.5131216 L264.31091,23.7931216 C263.030904,22.539782 261.177589,21.9131216 258.75091,21.9131216 C256.830901,21.9131216 255.064252,22.373117 253.45091,23.2931216 C251.837569,24.2131262 250.557582,25.533113 249.61091,27.2531216 C248.664239,28.9731302 248.19091,30.9664436 248.19091,33.2331216 C248.19091,35.4997996 248.664239,37.4997796 249.61091,39.2331216 C250.557582,40.9664636 251.837569,42.293117 253.45091,43.2131216 C255.064252,44.1331262 256.830901,44.5931216 258.75091,44.5931216 C261.444257,44.5931216 263.444237,43.8597956 264.75091,42.3931216 L264.75091,42.3931216 L264.75091,44.1931216 L273.35091,44.1931216 L273.35091,14.5131216 Z M288.91091,21.9131216 C286.484232,21.9131216 284.304253,22.3931168 282.37091,23.3531216 C280.437567,24.3131264 278.924249,25.653113 277.83091,27.3731216 C276.737572,29.0931302 276.19091,31.046444 276.19091,33.2331216 C276.19091,35.4197992 276.737572,37.373113 277.83091,39.0931216 C278.924249,40.8131302 280.437567,42.1597834 282.37091,43.1331216 C284.304253,44.1064598 286.484232,44.5931216 288.91091,44.5931216 C291.364256,44.5931216 293.557567,44.1064598 295.49091,43.1331216 C297.424253,42.1597834 298.930905,40.8131302 300.01091,39.0931216 C301.090916,37.373113 301.63091,35.4197992 301.63091,33.2331216 C301.63091,31.046444 301.090916,29.0931302 300.01091,27.3731216 C298.930905,25.653113 297.424253,24.3131264 295.49091,23.3531216 C293.557567,22.3931168 291.364256,21.9131216 288.91091,21.9131216 Z M97.0309105,16.1931216 L90.6309105,16.1931216 L89.9509105,21.6731216 L84.3509105,21.6731216 L84.3509105,27.6731216 L89.1909105,27.6731216 L88.5909105,32.7131216 L82.9909105,32.7131216 L82.9909105,38.7131216 L87.8309105,38.7131216 L87.1509105,44.1931216 L93.5509105,44.1931216 L94.2309105,38.7131216 L98.1909105,38.7131216 L97.5109105,44.1931216 L103.91091,44.1931216 L104.59091,38.7131216 L110.19091,38.7131216 L110.19091,32.7131216 L105.35091,32.7131216 L105.95091,27.6731216 L111.55091,27.6731216 L111.55091,21.6731216 L106.71091,21.6731216 L107.39091,16.1931216 L100.99091,16.1931216 L100.31091,21.6731216 L96.3509105,21.6731216 L97.0309105,16.1931216 Z M132.83091,16.1931216 L123.55091,16.1931216 L111.31091,44.1931216 L120.91091,44.1931216 L122.79091,39.3131216 L133.43091,39.3131216 L135.31091,44.1931216 L145.07091,44.1931216 L132.83091,16.1931216 Z M152.83091,16.1931216 L143.11091,16.1931216 L152.07091,44.1931216 L162.19091,44.1931216 L166.95091,29.2331216 L171.47091,44.1931216 L181.59091,44.1931216 L190.55091,16.1931216 L181.59091,16.1931216 L176.43091,32.3131216 L171.55091,16.1931216 L162.87091,16.1931216 L157.71091,32.1131216 L152.83091,16.1931216 Z M233.55091,21.9131216 C230.430895,21.9131216 228.070918,22.8331124 226.47091,24.6731216 L226.47091,24.6731216 L226.47091,22.3131216 L217.87091,22.3131216 L217.87091,44.1931216 L226.91091,44.1931216 L226.91091,34.4731216 C226.91091,31.3264392 228.457562,29.7531216 231.55091,29.7531216 C232.164247,29.7531216 232.830907,29.8064544 233.55091,29.9131216 L233.55091,29.9131216 Z M245.15091,14.5131216 L236.11091,14.5131216 L236.11091,44.1931216 L245.15091,44.1931216 L245.15091,14.5131216 Z M315.23091,14.1131216 C312.137562,14.1131216 309.737586,14.9464466 308.03091,16.6131216 C306.324235,18.2797966 305.47091,20.539774 305.47091,23.3931216 L305.47091,23.3931216 L305.47091,23.5131216 L302.47091,23.5131216 L302.47091,30.1131216 L305.47091,30.1131216 L305.47091,44.1931216 L314.51091,44.1931216 L314.51091,30.1131216 L318.99091,30.1131216 L318.99091,23.5131216 L314.23091,23.5131216 L314.23091,23.4731216 C314.23091,22.619784 314.424242,21.986457 314.81091,21.5731216 C315.197579,21.1597862 315.72424,20.9531216 316.39091,20.9531216 C317.004247,20.9531216 317.68424,21.1264532 318.43091,21.4731216 L318.43091,21.4731216 L320.59091,15.1931216 C319.950907,14.8464532 319.150915,14.5797892 318.19091,14.3931216 C317.230906,14.206454 316.244249,14.1131216 315.23091,14.1131216 Z M202.31091,28.9531216 C203.350916,28.9531216 204.20424,29.3264512 204.87091,30.0731216 C205.53758,30.819792 205.87091,31.8731148 205.87091,33.2331216 C205.87091,34.5931284 205.53758,35.6531178 204.87091,36.4131216 C204.20424,37.1731254 203.350916,37.5531216 202.31091,37.5531216 C201.270905,37.5531216 200.41758,37.1731254 199.75091,36.4131216 C199.08424,35.6531178 198.75091,34.5931284 198.75091,33.2331216 C198.75091,31.8731148 199.08424,30.819792 199.75091,30.0731216 C200.41758,29.3264512 201.270905,28.9531216 202.31091,28.9531216 Z M260.91091,28.9531216 C261.950916,28.9531216 262.80424,29.3264512 263.47091,30.0731216 C264.13758,30.819792 264.47091,31.8731148 264.47091,33.2331216 C264.47091,34.5931284 264.13758,35.6531178 263.47091,36.4131216 C262.80424,37.1731254 261.950916,37.5531216 260.91091,37.5531216 C259.870905,37.5531216 259.01758,37.1731254 258.35091,36.4131216 C257.68424,35.6531178 257.35091,34.5931284 257.35091,33.2331216 C257.35091,31.8731148 257.68424,30.819792 258.35091,30.0731216 C259.01758,29.3264512 259.870905,28.9531216 260.91091,28.9531216 Z M288.91091,28.9531216 C289.950916,28.9531216 290.80424,29.3264512 291.47091,30.0731216 C292.13758,30.819792 292.47091,31.8731148 292.47091,33.2331216 C292.47091,34.5931284 292.13758,35.6531178 291.47091,36.4131216 C290.80424,37.1731254 289.950916,37.5531216 288.91091,37.5531216 C287.870905,37.5531216 287.01758,37.1731254 286.35091,36.4131216 C285.68424,35.6531178 285.35091,34.5931284 285.35091,33.2331216 C285.35091,31.8731148 285.68424,30.819792 286.35091,30.0731216 C287.01758,29.3264512 287.870905,28.9531216 288.91091,28.9531216 Z M99.5509105,27.6731216 L98.9509105,32.7131216 L94.9909105,32.7131216 L95.5909105,27.6731216 L99.5509105,27.6731216 Z M128.11091,25.4731216 L130.83091,32.5131216 L125.39091,32.5131216 L128.11091,25.4731216 Z" id="Combined-Shape" fill="#343A52"></path>
                    <g id="Group-5" transform="translate(0.000000, 49.240000)"></g>
                </g>
                <g id="Group-17" opacity="0.3" transform="translate(200.125101, 65.450379) rotate(-5.000000) translate(-200.125101, -65.450379) translate(181.125101, 46.450379)" fill="#D8D8D8">
                    <g id="Group-16">
                        <g id="Group-15">
                            <circle id="Oval" cx="1" cy="1" r="1"></circle>
                            <circle id="Oval" cx="5" cy="1" r="1"></circle>
                            <circle id="Oval" cx="9" cy="1" r="1"></circle>
                            <circle id="Oval" cx="13" cy="1" r="1"></circle>
                            <circle id="Oval" cx="17" cy="1" r="1"></circle>
                        </g>
                        <g id="Group-15" transform="translate(0.000000, 4.000000)">
                            <circle id="Oval" cx="1" cy="1" r="1"></circle>
                            <circle id="Oval" cx="5" cy="1" r="1"></circle>
                            <circle id="Oval" cx="9" cy="1" r="1"></circle>
                            <circle id="Oval" cx="13" cy="1" r="1"></circle>
                            <circle id="Oval" cx="17" cy="1" r="1"></circle>
                        </g>
                        <g id="Group-15" transform="translate(0.000000, 8.000000)">
                            <circle id="Oval" cx="1" cy="1" r="1"></circle>
                            <circle id="Oval" cx="5" cy="1" r="1"></circle>
                            <circle id="Oval" cx="9" cy="1" r="1"></circle>
                            <circle id="Oval" cx="13" cy="1" r="1"></circle>
                            <circle id="Oval" cx="17" cy="1" r="1"></circle>
                        </g>
                        <g id="Group-15" transform="translate(0.000000, 12.000000)">
                            <circle id="Oval" cx="1" cy="1" r="1"></circle>
                            <circle id="Oval" cx="5" cy="1" r="1"></circle>
                            <circle id="Oval" cx="9" cy="1" r="1"></circle>
                            <circle id="Oval" cx="13" cy="1" r="1"></circle>
                            <circle id="Oval" cx="17" cy="1" r="1"></circle>
                        </g>
                        <g id="Group-15" transform="translate(0.000000, 16.000000)">
                            <circle id="Oval" cx="1" cy="1" r="1"></circle>
                            <circle id="Oval" cx="5" cy="1" r="1"></circle>
                            <circle id="Oval" cx="9" cy="1" r="1"></circle>
                            <circle id="Oval" cx="13" cy="1" r="1"></circle>
                            <circle id="Oval" cx="17" cy="1" r="1"></circle>
                        </g>
                    </g>
                    <g id="Group-16" transform="translate(20.000000, 0.000000)">
                        <g id="Group-15">
                            <circle id="Oval" cx="1" cy="1" r="1"></circle>
                            <circle id="Oval" cx="5" cy="1" r="1"></circle>
                            <circle id="Oval" cx="9" cy="1" r="1"></circle>
                            <circle id="Oval" cx="13" cy="1" r="1"></circle>
                            <circle id="Oval" cx="17" cy="1" r="1"></circle>
                        </g>
                        <g id="Group-15" transform="translate(0.000000, 4.000000)">
                            <circle id="Oval" cx="1" cy="1" r="1"></circle>
                            <circle id="Oval" cx="5" cy="1" r="1"></circle>
                            <circle id="Oval" cx="9" cy="1" r="1"></circle>
                            <circle id="Oval" cx="13" cy="1" r="1"></circle>
                            <circle id="Oval" cx="17" cy="1" r="1"></circle>
                        </g>
                        <g id="Group-15" transform="translate(0.000000, 8.000000)">
                            <circle id="Oval" cx="1" cy="1" r="1"></circle>
                            <circle id="Oval" cx="5" cy="1" r="1"></circle>
                            <circle id="Oval" cx="9" cy="1" r="1"></circle>
                            <circle id="Oval" cx="13" cy="1" r="1"></circle>
                            <circle id="Oval" cx="17" cy="1" r="1"></circle>
                        </g>
                        <g id="Group-15" transform="translate(0.000000, 12.000000)">
                            <circle id="Oval" cx="1" cy="1" r="1"></circle>
                            <circle id="Oval" cx="5" cy="1" r="1"></circle>
                            <circle id="Oval" cx="9" cy="1" r="1"></circle>
                            <circle id="Oval" cx="13" cy="1" r="1"></circle>
                            <circle id="Oval" cx="17" cy="1" r="1"></circle>
                        </g>
                        <g id="Group-15" transform="translate(0.000000, 16.000000)">
                            <circle id="Oval" cx="1" cy="1" r="1"></circle>
                            <circle id="Oval" cx="5" cy="1" r="1"></circle>
                            <circle id="Oval" cx="9" cy="1" r="1"></circle>
                            <circle id="Oval" cx="13" cy="1" r="1"></circle>
                            <circle id="Oval" cx="17" cy="1" r="1"></circle>
                        </g>
                    </g>
                    <g id="Group-16" transform="translate(0.000000, 20.000000)">
                        <g id="Group-15">
                            <circle id="Oval" cx="1" cy="1" r="1"></circle>
                            <circle id="Oval" cx="5" cy="1" r="1"></circle>
                            <circle id="Oval" cx="9" cy="1" r="1"></circle>
                            <circle id="Oval" cx="13" cy="1" r="1"></circle>
                            <circle id="Oval" cx="17" cy="1" r="1"></circle>
                        </g>
                        <g id="Group-15" transform="translate(0.000000, 4.000000)">
                            <circle id="Oval" cx="1" cy="1" r="1"></circle>
                            <circle id="Oval" cx="5" cy="1" r="1"></circle>
                            <circle id="Oval" cx="9" cy="1" r="1"></circle>
                            <circle id="Oval" cx="13" cy="1" r="1"></circle>
                            <circle id="Oval" cx="17" cy="1" r="1"></circle>
                        </g>
                        <g id="Group-15" transform="translate(0.000000, 8.000000)">
                            <circle id="Oval" cx="1" cy="1" r="1"></circle>
                            <circle id="Oval" cx="5" cy="1" r="1"></circle>
                            <circle id="Oval" cx="9" cy="1" r="1"></circle>
                            <circle id="Oval" cx="13" cy="1" r="1"></circle>
                            <circle id="Oval" cx="17" cy="1" r="1"></circle>
                        </g>
                        <g id="Group-15" transform="translate(0.000000, 12.000000)">
                            <circle id="Oval" cx="1" cy="1" r="1"></circle>
                            <circle id="Oval" cx="5" cy="1" r="1"></circle>
                            <circle id="Oval" cx="9" cy="1" r="1"></circle>
                            <circle id="Oval" cx="13" cy="1" r="1"></circle>
                            <circle id="Oval" cx="17" cy="1" r="1"></circle>
                        </g>
                        <g id="Group-15" transform="translate(0.000000, 16.000000)">
                            <circle id="Oval" cx="1" cy="1" r="1"></circle>
                            <circle id="Oval" cx="5" cy="1" r="1"></circle>
                            <circle id="Oval" cx="9" cy="1" r="1"></circle>
                            <circle id="Oval" cx="13" cy="1" r="1"></circle>
                            <circle id="Oval" cx="17" cy="1" r="1"></circle>
                        </g>
                    </g>
                    <g id="Group-16" transform="translate(20.000000, 20.000000)">
                        <g id="Group-15">
                            <circle id="Oval" cx="1" cy="1" r="1"></circle>
                            <circle id="Oval" cx="5" cy="1" r="1"></circle>
                            <circle id="Oval" cx="9" cy="1" r="1"></circle>
                            <circle id="Oval" cx="13" cy="1" r="1"></circle>
                            <circle id="Oval" cx="17" cy="1" r="1"></circle>
                        </g>
                        <g id="Group-15" transform="translate(0.000000, 4.000000)">
                            <circle id="Oval" cx="1" cy="1" r="1"></circle>
                            <circle id="Oval" cx="5" cy="1" r="1"></circle>
                            <circle id="Oval" cx="9" cy="1" r="1"></circle>
                            <circle id="Oval" cx="13" cy="1" r="1"></circle>
                            <circle id="Oval" cx="17" cy="1" r="1"></circle>
                        </g>
                        <g id="Group-15" transform="translate(0.000000, 8.000000)">
                            <circle id="Oval" cx="1" cy="1" r="1"></circle>
                            <circle id="Oval" cx="5" cy="1" r="1"></circle>
                            <circle id="Oval" cx="9" cy="1" r="1"></circle>
                            <circle id="Oval" cx="13" cy="1" r="1"></circle>
                            <circle id="Oval" cx="17" cy="1" r="1"></circle>
                        </g>
                        <g id="Group-15" transform="translate(0.000000, 12.000000)">
                            <circle id="Oval" cx="1" cy="1" r="1"></circle>
                            <circle id="Oval" cx="5" cy="1" r="1"></circle>
                            <circle id="Oval" cx="9" cy="1" r="1"></circle>
                            <circle id="Oval" cx="13" cy="1" r="1"></circle>
                            <circle id="Oval" cx="17" cy="1" r="1"></circle>
                        </g>
                        <g id="Group-15" transform="translate(0.000000, 16.000000)">
                            <circle id="Oval" cx="1" cy="1" r="1"></circle>
                            <circle id="Oval" cx="5" cy="1" r="1"></circle>
                            <circle id="Oval" cx="9" cy="1" r="1"></circle>
                            <circle id="Oval" cx="13" cy="1" r="1"></circle>
                            <circle id="Oval" cx="17" cy="1" r="1"></circle>
                        </g>
                    </g>
                </g>
                <g id="Group-17" opacity="0.3" transform="translate(374.362932, 113.416429) rotate(-5.000000) translate(-374.362932, -113.416429) translate(355.362932, 94.416429)" fill="#D8D8D8">
                    <g id="Group-16">
                        <g id="Group-15">
                            <circle id="Oval" cx="1" cy="1" r="1"></circle>
                            <circle id="Oval" cx="5" cy="1" r="1"></circle>
                            <circle id="Oval" cx="9" cy="1" r="1"></circle>
                            <circle id="Oval" cx="13" cy="1" r="1"></circle>
                            <circle id="Oval" cx="17" cy="1" r="1"></circle>
                        </g>
                        <g id="Group-15" transform="translate(0.000000, 4.000000)">
                            <circle id="Oval" cx="1" cy="1" r="1"></circle>
                            <circle id="Oval" cx="5" cy="1" r="1"></circle>
                            <circle id="Oval" cx="9" cy="1" r="1"></circle>
                            <circle id="Oval" cx="13" cy="1" r="1"></circle>
                            <circle id="Oval" cx="17" cy="1" r="1"></circle>
                        </g>
                        <g id="Group-15" transform="translate(0.000000, 8.000000)">
                            <circle id="Oval" cx="1" cy="1" r="1"></circle>
                            <circle id="Oval" cx="5" cy="1" r="1"></circle>
                            <circle id="Oval" cx="9" cy="1" r="1"></circle>
                            <circle id="Oval" cx="13" cy="1" r="1"></circle>
                            <circle id="Oval" cx="17" cy="1" r="1"></circle>
                        </g>
                        <g id="Group-15" transform="translate(0.000000, 12.000000)">
                            <circle id="Oval" cx="1" cy="1" r="1"></circle>
                            <circle id="Oval" cx="5" cy="1" r="1"></circle>
                            <circle id="Oval" cx="9" cy="1" r="1"></circle>
                            <circle id="Oval" cx="13" cy="1" r="1"></circle>
                            <circle id="Oval" cx="17" cy="1" r="1"></circle>
                        </g>
                        <g id="Group-15" transform="translate(0.000000, 16.000000)">
                            <circle id="Oval" cx="1" cy="1" r="1"></circle>
                            <circle id="Oval" cx="5" cy="1" r="1"></circle>
                            <circle id="Oval" cx="9" cy="1" r="1"></circle>
                            <circle id="Oval" cx="13" cy="1" r="1"></circle>
                            <circle id="Oval" cx="17" cy="1" r="1"></circle>
                        </g>
                    </g>
                    <g id="Group-16" transform="translate(20.000000, 0.000000)">
                        <g id="Group-15">
                            <circle id="Oval" cx="1" cy="1" r="1"></circle>
                            <circle id="Oval" cx="5" cy="1" r="1"></circle>
                            <circle id="Oval" cx="9" cy="1" r="1"></circle>
                            <circle id="Oval" cx="13" cy="1" r="1"></circle>
                            <circle id="Oval" cx="17" cy="1" r="1"></circle>
                        </g>
                        <g id="Group-15" transform="translate(0.000000, 4.000000)">
                            <circle id="Oval" cx="1" cy="1" r="1"></circle>
                            <circle id="Oval" cx="5" cy="1" r="1"></circle>
                            <circle id="Oval" cx="9" cy="1" r="1"></circle>
                            <circle id="Oval" cx="13" cy="1" r="1"></circle>
                            <circle id="Oval" cx="17" cy="1" r="1"></circle>
                        </g>
                        <g id="Group-15" transform="translate(0.000000, 8.000000)">
                            <circle id="Oval" cx="1" cy="1" r="1"></circle>
                            <circle id="Oval" cx="5" cy="1" r="1"></circle>
                            <circle id="Oval" cx="9" cy="1" r="1"></circle>
                            <circle id="Oval" cx="13" cy="1" r="1"></circle>
                            <circle id="Oval" cx="17" cy="1" r="1"></circle>
                        </g>
                        <g id="Group-15" transform="translate(0.000000, 12.000000)">
                            <circle id="Oval" cx="1" cy="1" r="1"></circle>
                            <circle id="Oval" cx="5" cy="1" r="1"></circle>
                            <circle id="Oval" cx="9" cy="1" r="1"></circle>
                            <circle id="Oval" cx="13" cy="1" r="1"></circle>
                            <circle id="Oval" cx="17" cy="1" r="1"></circle>
                        </g>
                        <g id="Group-15" transform="translate(0.000000, 16.000000)">
                            <circle id="Oval" cx="1" cy="1" r="1"></circle>
                            <circle id="Oval" cx="5" cy="1" r="1"></circle>
                            <circle id="Oval" cx="9" cy="1" r="1"></circle>
                            <circle id="Oval" cx="13" cy="1" r="1"></circle>
                            <circle id="Oval" cx="17" cy="1" r="1"></circle>
                        </g>
                    </g>
                    <g id="Group-16" transform="translate(0.000000, 20.000000)">
                        <g id="Group-15">
                            <circle id="Oval" cx="1" cy="1" r="1"></circle>
                            <circle id="Oval" cx="5" cy="1" r="1"></circle>
                            <circle id="Oval" cx="9" cy="1" r="1"></circle>
                            <circle id="Oval" cx="13" cy="1" r="1"></circle>
                            <circle id="Oval" cx="17" cy="1" r="1"></circle>
                        </g>
                        <g id="Group-15" transform="translate(0.000000, 4.000000)">
                            <circle id="Oval" cx="1" cy="1" r="1"></circle>
                            <circle id="Oval" cx="5" cy="1" r="1"></circle>
                            <circle id="Oval" cx="9" cy="1" r="1"></circle>
                            <circle id="Oval" cx="13" cy="1" r="1"></circle>
                            <circle id="Oval" cx="17" cy="1" r="1"></circle>
                        </g>
                        <g id="Group-15" transform="translate(0.000000, 8.000000)">
                            <circle id="Oval" cx="1" cy="1" r="1"></circle>
                            <circle id="Oval" cx="5" cy="1" r="1"></circle>
                            <circle id="Oval" cx="9" cy="1" r="1"></circle>
                            <circle id="Oval" cx="13" cy="1" r="1"></circle>
                            <circle id="Oval" cx="17" cy="1" r="1"></circle>
                        </g>
                        <g id="Group-15" transform="translate(0.000000, 12.000000)">
                            <circle id="Oval" cx="1" cy="1" r="1"></circle>
                            <circle id="Oval" cx="5" cy="1" r="1"></circle>
                            <circle id="Oval" cx="9" cy="1" r="1"></circle>
                            <circle id="Oval" cx="13" cy="1" r="1"></circle>
                            <circle id="Oval" cx="17" cy="1" r="1"></circle>
                        </g>
                        <g id="Group-15" transform="translate(0.000000, 16.000000)">
                            <circle id="Oval" cx="1" cy="1" r="1"></circle>
                            <circle id="Oval" cx="5" cy="1" r="1"></circle>
                            <circle id="Oval" cx="9" cy="1" r="1"></circle>
                            <circle id="Oval" cx="13" cy="1" r="1"></circle>
                            <circle id="Oval" cx="17" cy="1" r="1"></circle>
                        </g>
                    </g>
                    <g id="Group-16" transform="translate(20.000000, 20.000000)">
                        <g id="Group-15">
                            <circle id="Oval" cx="1" cy="1" r="1"></circle>
                            <circle id="Oval" cx="5" cy="1" r="1"></circle>
                            <circle id="Oval" cx="9" cy="1" r="1"></circle>
                            <circle id="Oval" cx="13" cy="1" r="1"></circle>
                            <circle id="Oval" cx="17" cy="1" r="1"></circle>
                        </g>
                        <g id="Group-15" transform="translate(0.000000, 4.000000)">
                            <circle id="Oval" cx="1" cy="1" r="1"></circle>
                            <circle id="Oval" cx="5" cy="1" r="1"></circle>
                            <circle id="Oval" cx="9" cy="1" r="1"></circle>
                            <circle id="Oval" cx="13" cy="1" r="1"></circle>
                            <circle id="Oval" cx="17" cy="1" r="1"></circle>
                        </g>
                        <g id="Group-15" transform="translate(0.000000, 8.000000)">
                            <circle id="Oval" cx="1" cy="1" r="1"></circle>
                            <circle id="Oval" cx="5" cy="1" r="1"></circle>
                            <circle id="Oval" cx="9" cy="1" r="1"></circle>
                            <circle id="Oval" cx="13" cy="1" r="1"></circle>
                            <circle id="Oval" cx="17" cy="1" r="1"></circle>
                        </g>
                        <g id="Group-15" transform="translate(0.000000, 12.000000)">
                            <circle id="Oval" cx="1" cy="1" r="1"></circle>
                            <circle id="Oval" cx="5" cy="1" r="1"></circle>
                            <circle id="Oval" cx="9" cy="1" r="1"></circle>
                            <circle id="Oval" cx="13" cy="1" r="1"></circle>
                            <circle id="Oval" cx="17" cy="1" r="1"></circle>
                        </g>
                        <g id="Group-15" transform="translate(0.000000, 16.000000)">
                            <circle id="Oval" cx="1" cy="1" r="1"></circle>
                            <circle id="Oval" cx="5" cy="1" r="1"></circle>
                            <circle id="Oval" cx="9" cy="1" r="1"></circle>
                            <circle id="Oval" cx="13" cy="1" r="1"></circle>
                            <circle id="Oval" cx="17" cy="1" r="1"></circle>
                        </g>
                    </g>
                </g>
                <text id="A-Peek-into" transform="translate(113.811332, 68.381898) rotate(-5.000000) translate(-113.811332, -68.381898) " font-family="Montserrat-Light, Montserrat" font-size="28.512" font-weight="300" fill="#353A50">
                    <tspan x="33.4645158" y="78.881898">A Peek into</tspan>
                </text>
                <path d="M364.085063,195.101438 C362.061768,194.432107 358.199658,194.17805 352.498617,194.339259 C346.797577,194.500468 340.369272,194.87224 333.21351,195.454586 C326.057747,196.036932 318.733997,196.788129 311.242039,197.708201 C303.750081,198.628273 297.201635,199.512493 291.596505,200.360888 C277.637501,202.441317 265.290915,205.205447 254.556378,208.653362 C243.821841,212.101277 235.721511,215.125331 230.255143,217.725616 C234.729249,217.391973 239.358883,217.320808 244.144186,217.512119 C248.929488,217.703431 253.357867,218.037072 257.429456,218.513052 C261.501044,218.989033 265.019949,219.459522 267.986275,219.924534 C270.952602,220.389546 272.948191,220.74219 273.973103,220.982475 C275.645408,221.40999 276.617248,222.027785 276.888653,222.835879 C277.024356,223.239926 277.025121,223.576882 276.890949,223.846756 C276.432315,223.686056 274.942542,223.500742 272.421585,223.290811 C269.900629,223.080879 266.901187,222.85182 263.42317,222.603626 C259.945152,222.355432 256.177421,222.114639 252.119862,221.881239 C248.062303,221.64784 244.13974,221.481529 240.352055,221.382302 C236.564371,221.283074 233.154256,221.236905 230.121609,221.243791 C227.088961,221.250677 224.926042,221.40385 223.632786,221.703314 C222.798164,222.163478 221.941745,221.922813 221.063505,220.981312 C220.185264,220.039811 219.5426,218.963007 219.135492,217.750866 C218.511567,216.027034 219.652779,214.070089 222.559162,211.879973 C225.465545,209.689856 229.948639,207.408582 236.008578,205.036084 C242.068516,202.663586 249.718765,200.274033 258.959552,197.867355 C268.20034,195.460677 278.829752,193.273274 290.848106,191.305079 C297.153687,190.266395 303.527023,189.429746 309.968306,188.795109 C316.409589,188.160471 322.399545,187.654912 327.938354,187.278415 C333.477164,186.901919 338.409829,186.728978 342.736498,186.759589 C347.063166,186.7902 350.359007,186.964673 352.624118,187.283014 C358.098137,188.052337 361.659129,189.250559 363.307201,190.877715 C364.955273,192.504872 365.214558,193.912765 364.085063,195.101438 Z" id="l" fill="#FF7342" fill-rule="nonzero" transform="translate(291.872057, 205.301446) rotate(-5.000000) translate(-291.872057, -205.301446) "></path>
                <g id="Awesome" fill-rule="nonzero" transform="translate(201.938927, 148.817495) rotate(-6.000000) translate(-201.938927, -148.817495) ">
                    <use fill="#000000" xlink:href="#path-2"></use>
                    <use fill="url(#linearGradient-1)" xlink:href="#path-2"></use>
                </g>
                <path d="M277.021517,149.410213 C276.960305,149.750392 276.899093,150.077025 276.837881,150.390119 C277.247123,149.972307 277.622847,149.486777 277.965065,148.933518 C278.314529,148.368543 278.73388,147.980129 279.22313,147.768264 C279.293023,147.415154 279.345441,147.132671 279.380388,146.920806 C279.415334,146.70894 279.432807,146.497078 279.432807,146.285213 C279.083343,145.508373 278.838722,145.084648 278.698936,145.014026 C278.559151,144.943404 278.209692,145.049336 277.650549,145.331823 C277.301085,145.826176 277.021518,146.338176 276.81184,146.86784 C276.602161,147.397504 276.322594,147.909504 275.97313,148.403857 C273.107524,151.793704 271.028244,155.607225 269.735227,159.844535 C268.442209,164.081844 267.341414,168.954677 266.432807,174.463179 C266.432807,174.745666 266.467753,174.922218 266.537646,174.99284 C267.026896,174.569109 267.306463,174.180694 267.376356,173.827585 C268.075284,171.426443 268.651891,169.166579 269.106194,167.047924 C269.560498,164.92927 270.084686,162.898923 270.678775,160.956823 C271.272864,159.014723 271.989255,157.178583 272.827969,155.448348 C273.666682,153.718114 274.784951,152.040871 276.182807,150.416569 C276.462379,150.134081 276.654581,149.780978 276.75942,149.357247 C276.844062,149.015148 276.985648,148.7421 277.184182,148.538099 C277.12996,148.818178 277.075739,149.108881 277.021517,149.410213 Z" id="Path" fill="#FFFFFF" fill-rule="nonzero" transform="translate(272.932807, 159.992840) rotate(-16.000000) translate(-272.932807, -159.992840) "></path>
                <g id="Group-12" transform="translate(223.440475, 152.000000)" fill="#FFFFFF">
                    <path d="M2.68134663,7.60653941 C2.80783314,7.50362262 2.94535332,7.41091863 3.09390938,7.32842586 C3.29391038,7.21736585 3.23391098,6.97673944 2.91390938,6.60653941 C2.91390938,6.90269943 2.87390978,7.12481612 2.79390938,7.27289613 C2.73382532,7.38411118 2.69630457,7.49532498 2.68134663,7.60653941 L2.68134663,7.60653941 Z" id="Path"></path>
                    <path d="M2.13456418,8.5887824 L1.782573,8.91713508 C1.6225722,9.06639079 1.6625718,9.29027099 1.902573,9.5887824 C1.902573,9.36489884 1.9425726,9.15967532 2.022573,8.97310569 C2.08190593,8.83473484 2.11923616,8.70662776 2.13456418,8.5887824 L2.13456418,8.5887824 Z" id="Path"></path>
                    <path d="M4,0 C3.44827586,0.322582258 3.03448414,0.580644194 2.75862069,0.774193548 C2.48275724,0.967742903 2.20689793,1.20967742 1.93103448,1.5 C1.65517103,1.79032403 1.37931172,2.17741694 1.10344828,2.66129032 C0.827584828,3.14516371 0.459772414,3.83870516 0,4.74193548 C0.183908966,4.87096839 0.321838621,5.0322571 0.413793103,5.22580645 C0.505747586,5.41935581 0.689653793,5.67741774 0.965517241,6 C1.14942529,5.41935194 1.37930897,4.91935694 1.65517241,4.5 C1.93103586,4.08064306 2.16091862,3.61290581 2.34482759,3.09677419 C2.52873655,2.58064258 2.85057241,2.09677645 3.31034483,1.64516129 C3.77011724,1.19354613 4,0.645164516 4,0 Z" id="Path"></path>
                    <path d="M2.05566343,10.8484778 L1.93566343,10.8484778 C1.93566343,10.9284782 1.89566383,10.9684778 1.81566343,10.9684778 C1.73566303,10.9684778 1.69566343,11.048477 1.69566343,11.2084778 L1.81566343,11.2084778 C1.89566383,11.2084778 1.93566343,11.2284776 1.93566343,11.2684778 C1.93566343,11.308478 1.97566303,11.3284778 2.05566343,11.3284778 L2.05566343,10.8484778 Z" id="Path"></path>
                    <path d="M1.66075862,13.2081732 L1.78075862,13.3281732 C1.78075862,13.3281732 1.82075822,13.248174 1.90075862,13.0881732 C1.90075862,13.0081728 1.94075822,12.9681732 2.02075862,12.9681732 C2.02075862,12.8881728 1.90075982,12.8481732 1.66075862,12.8481732 L1.66075862,13.2081732 Z" id="Path"></path>
                </g>
                <path d="M440.440475,125 C440.440475,55.9644063 384.476069,0 315.440475,0 C286.521277,0 259.895805,9.82060535 238.717088,26.3087855" id="Path" stroke="#333A54"></path>
                <path d="M375.712864,234.53554 C414.300476,213.257275 440.440475,172.181299 440.440475,125" id="Path" stroke="#333A54" stroke-dasharray="3"></path>
            </g>
        </g>
    </g>
</svg>