<?xml version="1.0" encoding="UTF-8"?>
<svg width="317px" height="109px" viewBox="0 0 317 109" version="1.1" xmlns="http://www.w3.org/2000/svg" xmlns:xlink="http://www.w3.org/1999/xlink">
    <!-- Generator: Sketch 58 (84663) - https://sketch.com -->
    <title>Colorful</title>
    <desc>Created with Sketch.</desc>
    <defs>
        <linearGradient x1="0%" y1="50%" x2="99.2634596%" y2="51.0516584%" id="linearGradient-1">
            <stop stop-color="#F82E94" offset="0%"></stop>
            <stop stop-color="#FF9E33" offset="100%"></stop>
        </linearGradient>
        <path d="M50.0900555,26.0230232 C49.4210901,28.0674739 48.6513111,30.0741458 47.780702,32.043081 L47.3369949,33.0244041 C46.2557424,35.3637875 45.3547123,37.7211308 44.6338773,40.0965048 C40.6692851,40.600372 37.4255765,39.5206727 34.9026542,36.8573747 C34.5422367,35.7056782 34.3980719,34.553999 34.4701554,33.4023026 C34.5422389,32.2506061 34.7224449,31.1169219 35.0107789,30.001216 C35.2991129,28.8855101 35.6415044,27.7698209 36.0379636,26.6541149 C36.4344228,25.538409 36.7407731,24.4047248 36.9570235,23.2530283 C36.8416899,23.1378587 36.7148246,23.0572408 36.5764249,23.0111733 L36.4704624,22.9831008 C36.2902536,22.9471103 36.092027,22.8571354 35.8757765,22.7131733 L35.2810907,24.2787528 L35.2810907,24.2787528 C35.1008819,24.7466295 34.8666141,25.1605142 34.5782801,25.5204194 C34.3620296,26.0242866 34.0917206,26.4381713 33.7673449,26.7620859 C33.4429691,27.0860005 33.1005777,27.4998852 32.7401602,28.0037524 C31.9472417,29.299411 31.1363146,30.577055 30.3073544,31.836723 C29.7547143,32.6765017 29.2100888,33.5082742 28.6734709,34.3320516 L27.8745486,35.5617226 C25.9282943,38.5129448 24.2343576,41.5540976 22.7926877,44.6852724 C21.3510178,47.8164471 19.9093695,50.9655699 18.4676996,54.1327351 C18.3235326,54.3486782 18.2514502,54.708578 18.2514502,55.2124452 C18.1072832,55.7882934 18.0171802,56.400123 17.9811385,57.0479522 C17.9450967,57.6957815 17.7829113,58.307611 17.4945773,58.8834593 C16.8458258,60.5678153 16.4160335,62.2667246 16.2051904,63.9802284 L16.1430185,64.5519369 C15.9628098,66.4594342 15.6925007,68.3848978 15.3320833,70.3283856 C15.2599998,70.9042338 15.1879174,71.5340583 15.1158339,72.2178781 C15.0437504,72.9016979 14.9356268,73.6394924 14.7914598,74.4312837 L14.8995845,75.2140733 C14.9356259,75.4840001 14.9716674,75.7629246 15.0077092,76.0508487 C15.0797927,76.6266969 15.1879163,77.2025365 15.3320833,77.7783848 L15.7645821,79.9378048 C15.9087491,80.6576151 16.0889551,81.3774146 16.3052056,82.0972249 C16.5935396,82.6730731 17.0620752,83.2849027 17.7108267,83.9327319 C18.7920791,83.5728268 19.7471711,83.1049571 20.5761313,82.5291089 C21.4050915,81.9532607 22.2520598,81.3414311 23.1170618,80.6936018 C24.4145647,79.9018105 25.6399657,78.9480762 26.7933016,77.8323703 C27.9466375,76.7166643 29.0639149,75.5829801 30.1451674,74.4312837 C32.3797557,72.1998718 34.5061869,69.8605235 36.5245247,67.4131685 C38.5428626,64.9658135 40.525129,62.4825053 42.4713833,59.9631693 C43.0480513,59.0993969 43.5706488,58.2356376 44.0391915,57.3718652 C44.5077342,56.5080929 44.9222081,55.5723535 45.2826255,54.5646191 C45.3907508,54.4026618 45.4988748,54.220462 45.6069994,54.0180164 L45.7151243,53.8088221 C45.8592913,53.520898 46.0034562,53.2689682 46.1476232,53.0530251 L46.4719973,52.7291121 C46.5440808,52.6571311 46.6882456,52.5491611 46.9044961,52.4051991 C47.913665,52.7651042 48.95886,53.125004 50.0401124,53.4849091 L53.2838534,54.5646191 C53.5721874,54.7085812 53.8064553,54.8885311 53.986664,55.1044742 C54.1668727,55.3204172 54.4011406,55.5723471 54.6894746,55.8602712 C54.2569736,56.6520625 53.8785409,57.407852 53.5541652,58.1276622 C53.2297895,58.8474725 53.0315628,59.603262 52.9594793,60.3950533 C52.9594793,60.7549584 52.8693763,61.1148582 52.6891676,61.4747633 C52.5089588,61.8346685 52.274691,62.1945682 51.986357,62.5544734 C51.4096891,63.3462647 50.8330298,64.1020541 50.2563618,64.8218644 C49.6796938,65.5416747 49.175117,66.3334541 48.742616,67.1972265 C48.3821985,68.0609988 47.9857452,68.8887682 47.5532443,69.6805595 C47.1207433,70.4723509 46.6161664,71.2281403 46.0394985,71.9479506 C44.989139,73.1819111 44.0314704,74.4158557 43.1664719,75.6498117 L42.7416951,76.2667907 C41.7685679,77.7064113 40.6693111,79.1100203 39.4438917,80.4776598 C38.6029176,81.2574543 37.8245255,82.0622321 37.1086996,82.89201 L36.6867118,83.3928769 C35.8577516,84.4006113 34.9026596,85.3003607 33.8214072,86.092152 C33.3600728,86.3800761 32.9102772,86.7025471 32.4720117,87.0595714 L32.1454743,87.3338185 C31.6048481,87.8016952 31.0462094,88.2155799 30.4695415,88.575485 C29.532456,89.1513333 28.5593434,89.6371979 27.5501745,90.0330936 C26.5410056,90.4289892 25.4958106,90.6269341 24.4145582,90.6269341 C23.9820572,90.482972 23.5315421,90.4469821 23.0629994,90.5189631 L22.1499468,90.6629244 C22.0017762,90.6869179 21.8556076,90.7109114 21.7114407,90.7349051 C18.9001844,90.8788672 16.2871969,90.5369624 13.8723998,89.7091806 C11.4576027,88.8813987 9.1329449,87.7477146 6.89835657,86.308094 C5.24043619,85.2283786 3.96097335,83.9147445 3.05992967,82.3671524 C2.15888599,80.8195603 1.49212366,79.1460265 1.0596227,77.3465007 C0.410871244,75.403013 0.0865003839,73.4235644 0.0865003839,71.4080956 C-0.0576666054,69.3206458 -0.0216253987,67.2332273 0.194625085,65.1457774 C0.410875569,63.0583276 0.699205223,60.9709091 1.0596227,58.8834593 C1.49212366,56.5800664 2.05076237,54.3486879 2.73555557,52.1892571 C3.42034877,50.0298262 4.23127592,47.8704278 5.16836135,45.7109969 C5.96127979,43.9834522 6.82626875,42.2919234 7.76335418,40.6363598 L10.5745964,35.6696936 C11.3675149,34.3740351 12.178442,33.096391 13.0074022,31.836723 C13.8363624,30.577055 14.6833307,29.299411 15.5483327,28.0037524 C16.3412511,26.7080939 17.2242607,25.4664398 18.1973879,24.2787528 C19.170515,23.0910659 20.1616482,21.9213917 21.1708171,20.7696953 C22.1079026,20.5537522 22.9368503,20.3018223 23.6576853,20.0138982 L23.2251865,17.8544782 C25.8201923,14.759294 28.559324,11.7361361 31.4426638,8.78491394 C34.3260036,5.83369177 37.7859594,3.42236349 41.8226351,1.55085675 L44.2013785,1.55085675 C44.6338795,1.62283778 45.0483534,1.7308077 45.4448126,1.87476976 C45.8412718,2.01873181 46.2917869,2.16269171 46.7963714,2.30665377 C47.490175,1.99173677 48.0873904,1.56660461 48.5880308,1.03124715 L48.7966783,0.795059728 C49.3373045,0.147230472 50.1482317,-0.104699348 51.2294841,0.0392627085 C51.9431107,0.16882856 52.5545509,0.487879877 53.0638191,0.996424925 L53.2297911,1.17295824 C53.7704173,1.78479698 54.4011384,2.27066163 55.1219734,2.63056678 L56.0475215,3.14019027 C56.3473867,3.30718507 56.6386016,3.47130042 56.9211675,3.63253713 L57.3385297,3.87223331 C58.0233229,4.26812897 58.7261265,4.68201367 59.4469614,5.11389984 L59.7409253,5.86294832 L59.7409253,5.86294832 L60.0011004,6.5445155 C60.064173,6.70647159 60.1317508,6.87742532 60.2038343,7.05737789 C59.825396,7.75919292 59.4672351,8.47112223 59.1293457,9.1931779 L58.7982132,9.91860947 C58.3657122,10.8903534 57.8971766,11.8440877 57.3925921,12.779841 C55.4463377,16.1629494 53.752401,19.474027 52.3107311,22.7131733 C52.0223972,23.2890215 51.7160469,23.8108762 51.3916712,24.2787528 L50.7342469,25.2418265 C50.5277871,25.5475215 50.2964093,25.8923176 50.0401124,26.2762164 L50.0900555,26.0230232 L50.0900555,26.0230232 Z M35.9839012,18.3943332 C35.2630663,17.6025419 34.5422421,17.0446973 33.8214072,16.7207826 C33.1005723,16.396868 32.1995421,16.414863 31.1182897,16.7747682 C29.6045363,17.7825025 28.2710116,19.2221015 27.1176757,21.0936083 C26.3247573,22.1733237 25.5859125,23.2710179 24.9011193,24.3867239 C24.2163261,25.5024298 23.5135226,26.636114 22.7926877,27.7878104 C20.7743498,31.0269567 18.9542689,34.3380344 17.3323902,37.7211427 C15.7105116,41.104251 14.1427191,44.5232986 12.6289657,47.978388 C10.9710454,51.5774394 9.67356192,55.2844068 8.73647649,59.0994013 C8.5923095,59.8911926 8.44814467,60.718962 8.30397769,61.5827343 C8.1598107,62.4465067 8.05168708,63.346256 7.97960358,64.2820094 C8.34002105,64.3539904 8.62835071,64.4439654 8.84460119,64.5519369 C9.06085168,64.6599085 9.27709892,64.7858734 9.4933494,64.9298354 C9.60147464,64.7138923 9.71973526,64.518196 9.8481333,64.3427433 L9.97991056,64.1740384 C10.1601193,63.9580953 10.3223047,63.7421555 10.4664717,63.5262124 C11.2593902,61.0068764 12.1604203,58.4875782 13.1695892,55.9682422 C14.1787582,53.4489062 15.2239532,50.929608 16.3052056,48.410272 C17.530625,45.818955 18.7740466,43.2276768 20.0355078,40.6363598 C21.2969689,38.0450428 22.7566378,35.5257445 24.4145582,33.0783896 C25.4237271,31.494807 26.4328809,29.8932531 27.4420498,28.27368 C28.4512187,26.6541068 29.4603725,25.016563 30.4695415,23.3609993 C30.9020424,22.569208 31.3705781,21.8494085 31.8751626,21.2015793 C32.379747,20.55375 32.9924476,19.9419204 33.7132825,19.3660722 C33.9535608,19.2700975 34.1938367,19.166126 34.4341134,19.0541562 L34.7945295,18.8802027 C35.154947,18.7002501 35.5514003,18.5382952 35.9839012,18.3943332 Z M77.9362853,40.9602728 C78.2246193,40.6723487 78.4898835,40.4189784 78.7320828,40.2001572 L78.9094077,40.0425193 C79.1977416,39.7905857 79.5221125,39.4846709 79.88253,39.1247657 C81.1079494,39.772595 82.3874122,40.3844246 83.7209569,40.9602728 C85.0545015,41.536121 86.3339644,42.1839406 87.5593838,42.9037508 C89.0010537,43.6955422 90.4066607,44.3973467 91.7762471,45.0091854 C93.1458335,45.6210241 94.5153994,46.2508487 95.8849858,46.8986779 C96.9353453,47.3922621 98.0518894,47.7932943 99.234643,48.101783 L99.8315374,48.2483155 C101.237166,48.5722301 102.624752,49.2380446 103.994338,50.245779 C103.879005,50.5337031 103.763673,50.7640398 103.64834,50.9367933 L103.56184,51.0555616 C103.417673,51.2355141 103.309549,51.433459 103.237465,51.6494021 C102.444547,52.1532693 101.669661,52.585149 100.912784,52.9450541 L99.2789012,53.7128473 C98.9865645,53.8488106 98.6842157,53.9887731 98.3718539,54.1327351 C97.1464345,53.9887731 95.8669717,53.7548382 94.533427,53.4309236 C93.1998824,53.107009 91.9204195,52.6571343 90.6950001,52.0812861 C90.2624991,52.3692102 90.0282313,52.675125 89.9921895,52.9990396 C89.9561478,53.3229542 89.9381272,53.664859 89.9381272,54.0247641 C90.0102107,55.4643847 89.9921901,56.9219787 89.8840648,58.3975897 C89.7759396,59.8732008 89.5056306,61.3667848 89.0731296,62.8783864 C88.7127121,63.4542346 88.3342794,64.0300742 87.9378202,64.6059224 C87.541361,65.1817706 87.1629283,65.8655802 86.8025109,66.6573715 C86.8025109,66.8733146 86.8205315,67.1072494 86.8565732,67.359183 L86.908473,67.6874149 C86.9387479,67.8644869 86.9755102,68.0609934 87.0187603,68.2769365 C86.7304263,68.7951999 86.4882285,69.3249739 86.2921625,69.8662687 L86.1537626,70.2744001 C85.9375122,70.9582198 85.6491825,71.5880444 85.288765,72.1638926 C84.2795961,73.5315322 83.2884629,74.9171462 82.3153357,76.3207762 C81.3422086,77.7244063 80.2429518,78.9660604 79.0175324,80.0457758 C73.9716877,84.0047324 68.4934243,84.8325018 62.5825778,82.5291089 C62.2942438,82.4139392 61.9713137,82.2642206 61.6137812,82.0799499 L61.3391437,81.9352684 C60.870601,81.6833348 60.4561271,81.4853899 60.0957096,81.3414279 L59.3692451,80.8690537 C58.6731925,80.4101771 58.068374,79.9917922 57.5547791,79.6138918 C56.8699859,79.1100246 56.2933266,78.570175 55.8247839,77.9943268 C55.3562412,77.4184785 54.9237467,76.716674 54.5272875,75.8888922 L54.2198074,75.230943 C53.9021914,74.5358805 53.5541671,73.7294767 53.1757287,72.8117186 C52.8153113,69.6445534 52.8513525,66.6393905 53.2838534,63.7961399 C53.7163544,60.9528893 54.4732197,58.1636663 55.5544722,55.4283872 C56.5636411,52.8370701 57.6809185,50.3897519 58.9063379,48.086359 C60.1317573,45.7829661 61.3931996,43.5515877 62.6907025,41.3921568 C63.1952869,40.6003655 63.6818432,39.916556 64.1503859,39.3407077 C64.6189286,38.7648595 65.1054849,38.1890199 65.6100694,37.6131717 C66.0425704,37.1093045 66.511106,36.6954198 67.0156905,36.3715052 C67.520275,36.0475905 68.1329755,35.8496457 68.8538104,35.7776647 C70.4396473,36.569456 71.953378,37.4152204 73.3950479,38.3149832 C74.8367178,39.2147461 76.3504485,40.0965004 77.9362853,40.9602728 Z M68.4213116,75.2950517 C70.079232,74.0713742 71.6109833,72.8297201 73.0166114,71.5700521 C74.4222396,70.3103841 75.6656612,68.7808102 76.7469136,66.9812845 C77.9002495,65.1097777 78.7472179,63.1663191 79.2878441,61.1508503 C79.8284703,59.1353815 80.206903,57.083953 80.4231535,54.9965032 C80.7114875,51.8293379 80.7114875,49.2740497 80.4231535,47.330562 C80.1348195,45.3870742 79.5581602,43.6955454 78.6931583,42.2559248 L78.0203826,43.7195313 C77.9162627,43.9434707 77.8161473,44.1574131 77.7200359,44.3613594 C77.431702,44.9731981 77.1433723,45.5670327 76.8550383,46.1428809 C76.6243711,46.2580506 76.4283063,46.361702 76.2668402,46.4538373 L76.1522278,46.5207794 C75.972019,46.628751 75.8098336,46.7187259 75.6656666,46.7907069 C75.3412909,47.5465077 75.037192,48.3225444 74.7533649,49.1188301 L74.4762949,49.921866 C74.1158774,51.0015815 73.7554654,52.0093007 73.3950479,52.9450541 C72.7462964,54.4566557 72.1155753,55.9862296 71.5028656,57.5338217 C70.8901559,59.0814138 70.4035996,60.7189577 70.0431821,62.4465024 L69.6106833,64.1740384 C68.3852639,66.9812985 67.5923574,70.2563862 67.2319399,73.9993997 C67.2319399,74.1433617 67.2679811,74.2693266 67.3400646,74.3772982 C67.4121481,74.4852697 67.4842305,74.6112346 67.556314,74.7551967 L67.9888128,74.9711387 C68.1329798,75.0431197 68.2771446,75.1510896 68.4213116,75.2950517 Z M110.48182,72.0559216 C110.914321,72.0559216 111.238692,71.9119617 111.454943,71.6240376 C111.671193,71.3361135 111.88744,71.0841837 112.103691,70.8682406 C113.040776,69.7885252 113.905765,68.7268209 114.698684,67.683096 C115.491602,66.6393711 116.356591,65.6496468 117.293677,64.7138934 C118.086595,63.634178 118.969605,62.6084637 119.942732,61.6367198 C120.915859,60.6649759 121.906992,59.7472316 122.916161,58.8834593 C123.276579,58.3795921 123.727094,58.0016973 124.26772,57.7497637 C124.808346,57.4978301 125.366985,57.1919153 125.943653,56.8320102 C127.024905,56.6160671 127.889894,56.9399769 128.538646,57.8037492 C128.484583,57.9117208 128.450794,58.0298133 128.437279,58.1580288 L128.430521,58.2896187 C128.430521,58.4695713 128.39448,58.6315262 128.322396,58.7754883 C127.745728,59.4233175 127.151048,60.0351471 126.538339,60.6109953 C125.925629,61.1868435 125.330949,61.7626831 124.754281,62.3385314 C122.447609,64.8578673 120.213054,67.4311505 118.05055,70.0584581 C115.888045,72.6857656 113.761614,75.4030087 111.671192,78.2102688 C111.094524,78.786117 110.571927,79.4699265 110.103384,80.2617178 L109.515185,81.2464137 C109.208112,81.7560357 108.881577,82.2915699 108.535576,82.8530219 C108.283284,82.9789887 108.030995,82.9671797 107.778703,82.8175942 L107.670578,82.7450509 C107.382244,82.5291078 106.985791,82.4211379 106.481206,82.4211379 C105.976622,82.5650999 105.472045,82.7450498 104.967461,82.9609929 C104.462876,83.176936 103.922258,83.3568859 103.34559,83.5008479 C103.075277,83.3928764 102.804967,83.3152726 102.534655,83.2680354 L102.264343,83.2309204 C101.99403,83.2039275 101.72372,83.1465684 101.453408,83.0588419 L101.183096,82.9609929 C99.4530923,82.3851447 98.0835264,81.4853953 97.0743575,80.2617178 C96.0651886,79.0380403 95.3804056,77.5984414 95.0199882,75.9428777 C94.6595707,74.4312761 94.4433234,72.9017022 94.3712399,71.3541101 C94.3111704,70.06445 94.3261877,68.8122956 94.4162918,67.5976209 L94.4793647,66.8733135 C94.5946982,65.4912777 94.7561632,64.1207754 94.9637628,62.7617801 L95.1281129,61.7446908 C95.4164468,60.0531367 95.6326941,58.3436129 95.7768611,56.6160682 C96.1372785,53.2329599 96.6418554,49.8678973 97.2906069,46.5207794 C97.9393583,43.1736616 98.6601825,39.844589 99.4531009,36.5334617 C101.615606,27.4638521 105.111603,18.9342282 109.941197,10.944334 C110.21151,10.5124478 110.48182,10.1109331 110.752132,9.73978308 L111.022444,9.37875445 C111.382861,8.91087777 111.743273,8.42501312 112.103691,7.92114592 C112.319941,7.70520283 112.554209,7.50725797 112.806502,7.3273054 L113.335111,6.94340878 C113.427217,6.87542714 113.521325,6.80544591 113.617437,6.73346489 L117.053398,7.74119369 C117.622053,7.9091483 118.188706,8.07710319 118.75336,8.24505893 C120.447322,8.74892612 122.123238,9.36075569 123.781159,10.080566 C123.997409,10.6564142 124.213656,11.1782688 124.429907,11.6461455 C124.646157,12.1140222 124.898446,12.6358768 125.18678,13.2117251 C124.610112,15.515118 124.033453,17.7644914 123.456785,19.9599127 C122.880117,22.1553341 122.339499,24.4047075 121.834914,26.7081004 C121.464199,28.6207392 121.000811,30.5201325 120.44474,32.4063223 L120.158981,33.3483171 C119.474188,35.5437385 118.915549,37.7571219 118.483048,39.9885338 C118.338881,40.564382 118.104614,41.1222266 117.780238,41.6620843 C117.455862,42.201942 117.149512,42.8317666 116.861178,43.5515769 L117.077427,44.1994029 C115.635757,49.3820369 114.338274,54.5645932 113.184938,59.7472273 C112.680354,61.474772 112.211818,63.1842958 111.779317,64.8758499 L110.91432,68.234946 C110.770154,68.7907958 110.625987,69.344647 110.48182,69.8965016 C110.409737,70.2564067 110.391716,70.6163064 110.427758,70.9762116 C110.4638,71.3361167 110.48182,71.6960165 110.48182,72.0559216 Z M146.054847,40.9602728 C146.343181,40.6723487 146.608445,40.4189784 146.850645,40.2001572 L147.027969,40.0425193 C147.316303,39.7905857 147.640674,39.4846709 148.001092,39.1247657 C149.226511,39.772595 150.505974,40.3844246 151.839519,40.9602728 C153.173063,41.536121 154.452526,42.1839406 155.677946,42.9037508 C157.119615,43.6955422 158.525223,44.3973467 159.894809,45.0091854 C161.264395,45.6210241 162.633961,46.2508487 164.003548,46.8986779 C165.053907,47.3922621 166.170451,47.7932943 167.353205,48.101783 L167.950099,48.2483155 C169.355727,48.5722301 170.743314,49.2380446 172.1129,50.245779 C171.997567,50.5337031 171.882234,50.7640398 171.766901,50.9367933 L171.680401,51.0555616 C171.536234,51.2355141 171.428111,51.433459 171.356027,51.6494021 C170.563109,52.1532693 169.788223,52.585149 169.031346,52.9450541 L167.397463,53.7128473 C167.105126,53.8488106 166.802778,53.9887731 166.490416,54.1327351 C165.264996,53.9887731 163.985533,53.7548382 162.651989,53.4309236 C161.318444,53.107009 160.038981,52.6571343 158.813562,52.0812861 C158.381061,52.3692102 158.146793,52.675125 158.110751,52.9990396 C158.07471,53.3229542 158.056689,53.664859 158.056689,54.0247641 C158.128773,55.4643847 158.110752,56.9219787 158.002627,58.3975897 C157.894501,59.8732008 157.624192,61.3667848 157.191691,62.8783864 C156.831274,63.4542346 156.452841,64.0300742 156.056382,64.6059224 C155.659923,65.1817706 155.28149,65.8655802 154.921073,66.6573715 C154.921073,66.8733146 154.939093,67.1072494 154.975135,67.359183 L155.027035,67.6874149 C155.05731,67.8644869 155.094072,68.0609934 155.137322,68.2769365 C154.848988,68.7951999 154.60679,69.3249739 154.410724,69.8662687 L154.272324,70.2744001 C154.056074,70.9582198 153.767744,71.5880444 153.407327,72.1638926 C152.398158,73.5315322 151.407025,74.9171462 150.433898,76.3207762 C149.46077,77.7244063 148.361514,78.9660604 147.136094,80.0457758 C142.09025,84.0047324 136.611986,84.8325018 130.70114,82.5291089 C130.412806,82.4139392 130.089876,82.2642206 129.732343,82.0799499 L129.457706,81.9352684 C128.989163,81.6833348 128.574689,81.4853899 128.214271,81.3414279 L127.487807,80.8690537 C126.791754,80.4101771 126.186936,79.9917922 125.673341,79.6138918 C124.988548,79.1100246 124.411888,78.570175 123.943346,77.9943268 C123.474803,77.4184785 123.042309,76.716674 122.645849,75.8888922 L122.338369,75.230943 C122.020753,74.5358805 121.672729,73.7294767 121.294291,72.8117186 C120.933873,69.6445534 120.969914,66.6393905 121.402415,63.7961399 C121.834916,60.9528893 122.591782,58.1636663 123.673034,55.4283872 C124.682203,52.8370701 125.79948,50.3897519 127.0249,48.086359 C128.250319,45.7829661 129.511761,43.5515877 130.809264,41.3921568 C131.313849,40.6003655 131.800405,39.916556 132.268948,39.3407077 C132.73749,38.7648595 133.224047,38.1890199 133.728631,37.6131717 C134.161132,37.1093045 134.629668,36.6954198 135.134252,36.3715052 C135.638837,36.0475905 136.251537,35.8496457 136.972372,35.7776647 C138.558209,36.569456 140.07194,37.4152204 141.51361,38.3149832 C142.95528,39.2147461 144.46901,40.0965004 146.054847,40.9602728 Z M136.539873,75.2950517 C138.197794,74.0713742 139.729545,72.8297201 141.135173,71.5700521 C142.540801,70.3103841 143.784223,68.7808102 144.865475,66.9812845 C146.018811,65.1097777 146.86578,63.1663191 147.406406,61.1508503 C147.947032,59.1353815 148.325465,57.083953 148.541715,54.9965032 C148.830049,51.8293379 148.830049,49.2740497 148.541715,47.330562 C148.253381,45.3870742 147.676722,43.6955454 146.81172,42.2559248 L146.138944,43.7195313 C146.034825,43.9434707 145.934709,44.1574131 145.838598,44.3613594 C145.550264,44.9731981 145.261934,45.5670327 144.9736,46.1428809 C144.742933,46.2580506 144.546868,46.361702 144.385402,46.4538373 L144.27079,46.5207794 C144.090581,46.628751 143.928395,46.7187259 143.784228,46.7907069 C143.459853,47.5465077 143.155754,48.3225444 142.871927,49.1188301 L142.594857,49.921866 C142.234439,51.0015815 141.874027,52.0093007 141.51361,52.9450541 C140.864858,54.4566557 140.234137,55.9862296 139.621427,57.5338217 C139.008718,59.0814138 138.522161,60.7189577 138.161744,62.4465024 L137.729245,64.1740384 C136.503826,66.9812985 135.710919,70.2563862 135.350502,73.9993997 C135.350502,74.1433617 135.386543,74.2693266 135.458626,74.3772982 C135.53071,74.4852697 135.602792,74.6112346 135.674876,74.7551967 L136.107375,74.9711387 C136.251542,75.0431197 136.395706,75.1510896 136.539873,75.2950517 Z M170.382905,37.1812877 C170.671239,37.1812877 170.913437,37.1582541 171.109503,37.1121864 L171.247903,37.0733167 C171.464153,37.0013357 171.752483,37.0373261 172.1129,37.1812877 C173.254222,37.7211454 174.408044,38.1860173 175.57439,38.5759126 L176.275701,38.8008527 C177.681329,39.2327389 178.996833,39.8445685 180.222253,40.6363598 C181.015171,41.5001321 181.195377,42.3998815 180.762876,43.3356349 C180.474542,44.3433692 180.168192,45.3690835 179.843816,46.4128084 C179.519441,47.4565333 178.996843,48.4102677 178.276008,49.27404 C178.340883,50.0514351 178.157614,50.8142438 177.726195,51.5624845 L177.573198,51.8113586 C177.032571,52.6391404 176.834345,53.5208948 176.978512,54.4566481 C177.55518,54.4566481 177.933612,54.3126882 178.113821,54.0247641 C178.29403,53.73684 178.492257,53.4489202 178.708507,53.1609961 C179.068924,52.873072 179.393295,52.5671572 179.681629,52.2432426 C179.969963,51.919328 180.294334,51.5774232 180.654752,51.2175181 C181.087253,50.6416698 181.627871,50.1378102 182.276622,49.705924 C182.492873,49.4899809 182.72714,49.2380511 182.979433,48.950127 C183.168652,48.7341839 183.388279,48.5182433 183.638317,48.3023014 L183.898493,48.086359 C184.186827,47.8560197 184.429024,47.6256832 184.62509,47.395345 L184.76349,47.222591 C184.979741,46.9346668 185.304112,46.6107571 185.736613,46.2508519 C185.952863,45.8909468 186.187131,45.621022 186.439423,45.4410694 L186.768122,45.1992144 C186.945446,45.0653307 187.142233,44.9120124 187.358483,44.7392579 L187.948844,44.2598667 L187.948844,44.2598667 L188.277543,43.9834609 C188.529835,43.7675178 188.800144,43.5515779 189.088478,43.3356349 C189.358791,43.1196918 189.598692,42.9037511 189.808183,42.6878092 L190.007538,42.4718668 C190.259831,42.1839427 190.53014,41.9680029 190.818474,41.8240408 C191.106808,41.5361167 191.406671,41.2827464 191.71807,41.0639253 L191.953783,40.9062873 C192.350242,40.6543537 192.656592,40.4204189 192.872843,40.2044758 C193.23326,39.9165517 193.575652,39.6646218 193.900028,39.4486787 C194.224403,39.2327357 194.566795,39.0167958 194.927212,38.8008527 C196.039351,39.417833 197.204445,39.9554804 198.422506,40.4138067 L199.035951,40.6363598 C200.477621,41.140227 201.811145,41.7160666 203.036565,42.3638958 C203.829483,43.2276682 204.189895,44.0734326 204.117812,44.9012144 C204.045728,45.7289962 204.153852,46.5387706 204.442186,47.330562 C204.009685,48.6262205 203.556916,49.9117422 203.08387,51.1871489 L202.604066,52.4591846 C201.955315,54.1507388 201.342614,55.9322425 200.765946,57.8037492 C200.642374,58.2973334 200.439366,58.8437945 200.156918,59.4431447 L200.009073,59.7472273 C199.648656,60.4670376 199.360326,61.1688421 199.144076,61.8526618 C198.927825,62.5364816 198.819701,63.0943262 198.819701,63.5262124 C198.819701,63.9580986 199.108031,64.1380484 199.684699,64.0660674 C199.973033,63.9940864 200.711878,63.4902267 201.901255,62.5544734 C203.090633,61.61872 204.352075,60.5570157 205.68562,59.3693288 C207.019165,58.1816418 208.280607,57.0119676 209.469985,55.8602712 L209.921707,55.4168686 C210.848378,54.4935945 211.436651,53.813623 211.686541,53.3769381 C211.902791,53.5209002 212.335286,53.6828551 212.984037,53.8628076 L213.379161,53.9747779 C213.796532,54.0960787 214.061279,54.1847209 214.173409,54.2407061 C214.38966,54.7445733 214.479763,55.176453 214.443721,55.5363582 C214.407679,55.8962633 214.317576,56.2561631 214.173409,56.6160682 L213.755927,57.1394289 C213.025084,58.0441861 212.119045,59.1113919 211.037793,60.3410678 C209.74029,61.8166789 208.316662,63.2562779 206.766867,64.6599079 C205.217072,66.063538 203.6673,67.3231871 202.117505,68.438893 C200.56771,69.554599 199.180123,70.2564035 197.954704,70.5443276 C197.089702,70.4723465 196.350857,70.3643766 195.738147,70.2204146 C195.125438,70.0764525 194.512737,69.8605127 193.900028,69.5725885 C193.287318,69.2846644 192.620556,68.9247647 191.899721,68.4928785 C191.178886,68.0609923 190.349938,67.5211427 189.412852,66.8733135 C188.836184,64.8578447 188.673999,62.8424061 188.926291,60.8269373 C189.178583,58.8114685 189.484934,56.8680099 189.845351,54.9965032 C189.557017,54.7805601 189.322749,54.6725901 189.142541,54.6725901 C189.007384,54.6725901 188.872229,54.6928345 188.737073,54.7333237 L188.601917,54.7805612 C188.421708,54.8525422 188.259523,54.8885322 188.115356,54.8885322 C187.971189,54.8885322 187.827024,54.8165522 187.682857,54.6725901 C187.250356,55.8962676 186.727759,56.9039869 186.115049,57.6957782 C185.502339,58.4875695 184.871618,59.279349 184.222867,60.0711403 C182.204529,62.5184953 180.258304,65.0197985 178.384133,67.575125 C176.509962,70.1304515 174.779984,72.8117046 173.194147,75.6189647 C172.689563,76.1228319 172.293109,76.6626815 172.004776,77.2385297 C171.774108,77.3536994 171.531911,77.4343173 171.278178,77.4803848 L171.085716,77.5084573 C170.76134,77.5444478 170.382907,77.6344227 169.950406,77.7783848 C169.806239,77.9223468 169.626033,78.3182365 169.409783,78.9660658 C169.55395,79.3259709 169.680094,79.6858707 169.788219,80.0457758 C169.896344,80.405681 170.022489,80.8015707 170.166656,81.2334569 L169.328689,81.4359025 C169.058378,81.4988855 168.797077,81.5573696 168.544785,81.6113554 C168.040201,81.7193269 167.535624,81.7013319 167.031039,81.5573699 C165.589369,81.2694457 164.291886,80.7116011 163.13855,79.8838193 C161.985214,79.0560375 161.120225,77.8143834 160.543557,76.1588197 C160.183141,74.8631612 160.093037,73.4775472 160.273245,72.0019361 C160.453454,70.526325 160.61564,69.0687311 160.759807,67.6291105 C161.120224,65.5416607 161.480636,63.5082271 161.841054,61.5287488 C162.111367,60.0441401 162.40195,58.5494259 162.712808,57.044581 L163.030425,55.5363582 C163.53501,53.0890032 164.12969,50.6776749 164.814483,48.302301 C165.499276,45.926927 166.382286,43.6595587 167.463538,41.5001278 C167.823956,40.7083365 168.220409,39.970542 168.65291,39.2867222 C169.085411,38.6029025 169.66207,37.901098 170.382905,37.1812877 Z M221.634013,64.2820094 C221.201512,65.2897438 220.877142,66.351448 220.660891,67.467154 C220.444641,68.5828599 220.264435,69.7165441 220.120268,70.8682406 C219.327349,75.1871023 218.606525,79.5418892 217.957774,83.9327319 C217.309022,88.3235747 216.768404,92.7503415 216.335903,97.2131653 C216.191736,99.156653 216.065592,101.064122 215.957467,102.935628 C215.849341,104.807135 215.975486,106.678614 216.335903,108.550121 C215.759235,108.910026 215.128514,109.053986 214.443721,108.982005 C213.758928,108.910024 213.128206,108.910024 212.551539,108.982005 C212.090204,108.80925 211.675008,108.624981 211.305943,108.429193 L211.037793,108.280193 C210.605292,108.028259 210.100715,107.794325 209.524047,107.578382 C209.253734,107.416424 208.973287,107.234224 208.682702,107.031779 L208.388738,106.822585 C207.992278,106.53466 207.613846,106.318721 207.253428,106.174759 C206.67676,105.382967 206.280307,104.591188 206.064056,103.799396 C205.847806,103.007605 205.703641,102.215826 205.631558,101.424034 C205.05489,97.4650778 204.946766,93.5781606 205.307184,89.7631661 L205.739682,81.5573699 C205.883849,78.8220908 206.136138,76.0868527 206.496555,73.3515736 C207.073223,68.9607309 207.667903,64.569954 208.280613,60.1791113 C208.893323,55.7882686 209.740291,51.4334817 210.821543,47.11462 C211.614462,44.2353788 212.497471,41.4461558 213.470598,38.7468672 C214.443726,36.0475787 215.651106,33.4383055 217.092776,30.9189695 C217.813611,29.479349 218.588497,28.1117299 219.417457,26.8160714 C220.246417,25.5204129 221.165468,24.3327437 222.174637,23.2530283 C222.679221,22.7491611 223.183798,22.3172814 223.688383,21.9573763 C224.09205,21.6694522 224.541846,21.4045651 225.037778,21.1627101 L225.418378,20.9856373 C227.9413,19.7619598 230.392102,20.2298294 232.770858,22.3892603 C233.780027,23.1810516 234.735119,24.026816 235.636162,24.9265789 L238.285217,27.5718684 C240.736056,29.9472424 241.384798,32.6824804 240.231462,35.7776647 C240.231462,35.9936077 240.123338,36.2095476 239.907088,36.4254907 C239.835004,36.5694527 239.618757,36.7494026 239.25834,36.9653457 C237.744586,37.1093077 236.338979,36.803393 235.041476,36.0475922 C233.743973,35.2917914 232.554614,34.3020671 231.473361,33.0783896 C230.680443,33.7981999 230.049722,34.6079743 229.581179,35.5077371 C229.112636,36.4075 228.698162,37.2892544 228.337745,38.1530267 C227.256492,40.6723627 226.337442,43.2456459 225.580565,45.8729534 C224.823688,48.500261 224.156926,51.1455241 223.580258,53.8088221 C223.508175,53.9527842 223.490154,54.1327341 223.526196,54.3486771 C223.562237,54.5646202 223.580258,54.7445701 223.580258,54.8885322 C223.796509,55.3204183 224.229003,55.4643782 224.877754,55.3204162 C226.103174,54.960511 227.274513,54.8525411 228.391807,54.9965032 C229.509101,55.1404652 230.680441,55.464375 231.90586,55.9682422 C232.482528,56.6160714 233.095229,57.263891 233.74398,57.9117202 L235.798349,59.9631693 C236.302934,60.2510934 236.302934,60.754953 235.798349,61.4747633 C235.005431,61.4747633 234.212524,61.4927583 233.419606,61.5287488 C232.626687,61.5647393 231.833781,61.6187243 231.040862,61.6907053 C229.503081,61.8186716 228.136183,62.0319457 226.940134,62.330533 L226.499625,62.4465024 C225.634623,62.6624454 224.805675,62.9323702 224.012757,63.2562849 C223.219838,63.5801995 222.426932,63.9221043 221.634013,64.2820094 Z M215.254656,68.9247625 C215.398823,67.485142 215.579029,66.0995279 215.79528,64.7678789 C216.01153,63.4362299 216.29986,62.0506159 216.660277,60.6109953 C216.876528,59.1713747 217.146837,57.7677657 217.471212,56.4001262 C217.795588,55.0324867 218.13798,53.6288777 218.498397,52.1892571 C218.858815,50.7496365 219.237247,49.3280325 219.633706,47.9244025 C220.030166,46.5207724 220.480681,45.0991684 220.985265,43.6595479 C221.273599,42.5078514 221.596529,41.3907191 221.954062,40.3081298 L222.228699,39.5026642 C222.697242,38.1710152 223.147757,36.8213912 223.580258,35.4537516 C224.012759,34.0861121 224.553377,32.772478 225.202129,31.51281 C225.85088,30.253142 226.247333,28.939508 226.3915,27.5718684 C226.247333,26.9960202 226.121189,26.7980753 226.013064,26.9780279 C225.904939,27.1579805 225.562547,27.2479554 224.985879,27.2479554 L224.337131,27.8957814 C224.048797,28.1837056 223.868591,28.4356354 223.796507,28.6515785 L220.786756,33.8004435 C220.65329,34.0298822 220.521231,34.2570719 220.390579,34.4820126 C219.345369,36.2815383 218.4984,38.3329669 217.849649,40.6363598 C217.071147,43.1628939 216.511606,45.7039698 216.171013,48.2596494 L216.065591,49.1120835 C215.741216,51.9553341 215.2907,54.8165371 214.714033,57.6957782 C214.353616,59.567285 214.263512,61.4387636 214.443721,63.3102704 C214.62393,65.1817771 214.894239,67.0532558 215.254656,68.9247625 Z M275.804489,33.8341866 C276.813658,34.0501297 277.750729,34.3560445 278.615731,34.7519401 C279.480733,35.1478358 280.237598,35.5257305 280.88635,35.8856357 C281.246767,36.4614839 281.354891,36.9113586 281.210724,37.2352732 L280.922391,37.8591054 C280.874336,37.9590783 280.826281,38.057052 280.778225,38.1530267 C280.994476,38.5849129 281.192702,38.9987976 281.372911,39.3946932 C281.55312,39.7905889 281.787387,40.1684836 282.075721,40.5283888 L281.965434,40.9883453 L281.965434,40.9883453 L281.861635,41.4720553 C281.83136,41.605939 281.794597,41.7592573 281.751347,41.9320118 C281.535097,44.0914427 281.192705,46.1968562 280.724163,48.2483155 C280.25562,50.2997748 279.769064,52.3691983 279.264479,54.4566481 L278.11115,59.1833762 L278.11115,59.1833762 L277.534484,61.5287488 C276.957816,63.8681323 276.381157,66.2254756 275.804489,68.6008495 C275.227821,71.1201855 274.705223,73.6394837 274.236681,76.1588197 C273.768138,78.6781557 273.425746,81.2334439 273.209496,83.8247609 C273.155433,83.9327325 273.121645,84.0609472 273.108129,84.2094073 L273.101371,84.3646159 C273.101371,84.580559 273.06533,84.7964989 272.993247,85.012442 C272.416579,85.3003661 271.87596,85.4983109 271.371376,85.6062825 C270.866792,85.714254 270.326173,85.8402189 269.749506,85.984181 C267.731168,85.6962569 265.893066,84.9764574 264.235146,83.8247609 C263.874728,82.4571214 263.694522,81.1074973 263.694522,79.7758483 C263.694522,78.4441993 263.766605,77.1305652 263.910772,75.8349067 C263.910772,74.8559647 263.945371,73.8540009 264.014571,72.8289959 L264.072959,72.0559216 C264.181084,70.7602631 264.271187,69.3926441 264.34327,67.9530235 C263.766602,68.1689666 263.352129,68.4388914 263.099836,68.762806 C262.898003,69.0219377 262.661572,69.2925831 262.390539,69.5747474 L262.180776,69.7885305 C261.910463,70.0584594 261.660426,70.3283852 261.430662,70.5983126 L261.207654,70.8682406 C260.91932,71.2281457 260.594949,71.5880455 260.234532,71.9479506 C259.946198,72.2358747 259.6694,72.4777282 259.404135,72.6735155 L259.207347,72.8117186 C258.882971,73.0276617 258.576621,73.2795915 258.288287,73.5675156 C257.855786,73.9274208 257.495374,74.2873205 257.20704,74.6472257 C256.918706,75.0071308 256.594335,75.2950506 256.233918,75.5109937 C255.561139,75.6069684 254.896375,75.6949444 254.239619,75.7749227 L253.260489,75.8888922 C252.287361,75.9968638 251.296228,76.1228287 250.287059,76.2667907 C249.926642,76.3387717 249.56623,76.3387717 249.205812,76.2667907 C248.845395,76.1948097 248.448942,76.0868398 248.016441,75.9428777 C246.646854,75.6549536 245.367391,75.2230739 244.178014,74.6472257 C242.988636,74.0713774 241.817297,73.3875679 240.663961,72.5957766 C240.015209,71.6600233 239.546674,70.7422789 239.25834,69.8425161 C238.970006,68.9427532 238.7898,67.9890189 238.717716,66.9812845 C238.573549,65.1817588 238.627611,63.41825 238.879903,61.6907053 C239.132196,59.9631607 239.474587,58.2356419 239.907088,56.5080972 C240.483756,54.5646094 241.114477,52.6931308 241.79927,50.8936051 C242.484063,49.0940793 243.222908,47.2945806 244.015827,45.4950549 C244.448328,44.7032636 244.898843,44.0014591 245.367385,43.3896204 C245.835928,42.7777816 246.50269,42.3279069 247.367692,42.0399828 C247.583943,41.0322484 247.872272,40.3124489 248.23269,39.8805628 C248.44894,39.5206576 248.701229,39.2687278 248.989563,39.1247657 C249.277897,38.9808037 249.602268,38.7648638 249.962685,38.4769397 C251.476439,39.052788 252.882046,39.7186025 254.179549,40.4744033 C255.477051,41.2302041 256.774535,42.0399785 258.072038,42.9037508 C258.288288,42.9757319 258.468494,43.2636517 258.612661,43.7675189 C258.396411,45.1351584 257.945896,46.3228276 257.261103,47.330562 C256.576309,48.3382964 256.017671,49.4539856 255.58517,50.677663 C255.344891,51.4454568 255.096606,52.2132481 254.840311,52.9810419 L254.44986,54.1327351 C254.053401,55.2844316 253.674968,56.4721007 253.314551,57.6957782 C253.170384,58.5115632 253.018209,59.3193423 252.858025,60.1191261 L252.61174,61.3128068 C252.359448,62.5004938 252.161221,63.7061579 252.017054,64.9298354 C252.449555,65.2897406 252.755906,65.3977105 252.936114,65.2537484 C253.116323,65.1097864 253.31455,64.9658265 253.5308,64.8218644 C254.75622,63.81413 255.855477,62.7524258 256.828604,61.6367198 C257.607105,60.7441551 258.350998,59.8170507 259.060296,58.8553886 L259.585784,58.1276622 C261.315787,55.7522883 263.009724,53.358955 264.667645,50.9475906 C266.325565,48.5362261 267.98346,46.0709129 269.641381,43.5515769 C270.290132,42.6158235 270.866792,41.6260992 271.371376,40.5823743 C271.87596,39.5386494 272.416579,38.5129351 272.993247,37.5052007 C273.353664,36.8573714 273.732097,36.2275469 274.128556,35.6157081 C274.525015,35.0038694 275.083654,34.4100348 275.804489,33.8341866 Z M247.607932,48.6163984 C247.953164,48.4717202 248.143394,48.2410571 248.178628,47.9244025 C248.210057,47.6419444 248.255188,47.4279077 248.314023,47.2822877 C248.034056,47.4196353 247.86278,47.597682 247.800191,47.8164315 C247.752126,47.9844202 247.704061,48.1764099 247.655997,48.3924035 L247.607932,48.6163984 L247.607932,48.6163984 Z M248.448939,47.1495818 C248.56536,47.0698317 248.676249,46.9900821 248.781608,46.9103322 L249.471799,46.3760986 C249.52514,46.3357894 249.580644,46.2940405 249.638311,46.2508519 C248.98956,45.8909468 248.593106,46.0349067 248.448939,46.6827359 L248.448939,47.1495818 L248.448939,47.1495818 Z M247.527835,48.7636073 C247.406811,48.8302147 247.299369,48.9103825 247.205505,49.0041125 C247.09738,49.112084 247.151442,49.3460189 247.367692,49.705924 C247.421755,49.5439667 247.455544,49.3921334 247.469059,49.2504216 L247.475817,49.1120835 C247.475817,49.0288723 247.483523,48.9495094 247.498936,48.8739943 L247.527835,48.7636073 L247.527835,48.7636073 Z M243.859714,51.920405 C243.531289,52.2806248 243.367078,52.5861818 243.367078,52.8370831 C243.294995,53.2689693 243.258954,53.682854 243.258954,54.0787496 L243.258954,55.1322681 C243.619371,54.8350804 243.799577,54.3579453 243.799577,53.7008511 L243.799577,52.6751266 C243.799577,52.5140821 243.808486,52.3485906 243.826304,52.1786509 L243.859714,51.920405 L243.859714,51.920405 Z M243.150829,55.4355932 C243.050813,55.5492589 242.960709,55.6728224 242.880517,55.8062857 C242.772392,55.9862383 242.71833,56.1481931 242.71833,56.2921552 C242.646247,57.6597947 242.610205,58.9914238 242.610205,60.2870823 L242.610205,64.3899804 C242.610205,64.5051501 242.644805,64.5972847 242.714005,64.6663861 L242.772393,64.7138934 C242.880518,64.7858744 243.006662,65.0018143 243.150829,65.3617194 L243.150829,55.4355932 L243.150829,55.4355932 Z M244.015827,51.5368479 C244.246166,51.2864427 244.408352,51.03604 244.502388,50.785634 C244.610513,50.4977099 244.484369,50.1378102 244.123951,49.705924 C244.051868,50.1378102 244.015827,50.4977099 244.015827,50.785634 L244.015827,51.5368479 L244.015827,51.5368479 Z M246.502695,51.4334601 C246.430611,51.5054411 246.39457,51.613411 246.39457,51.7573731 L246.718944,51.4334601 L246.502695,51.4334601 Z M245.743541,54.4091216 C245.735865,54.4372888 245.726897,54.4618722 245.714016,54.4825489 L245.691759,54.5106336 C245.655718,54.5466242 245.637697,54.6006091 245.637697,54.6725901 C245.699312,54.6110627 245.734593,54.5232406 245.743541,54.4091216 L245.740921,54.4087983 L245.743541,54.4091216 Z M298.943175,72.0559216 C299.375676,72.0559216 299.700047,71.9119617 299.916297,71.6240376 C300.132548,71.3361135 300.348795,71.0841837 300.565045,70.8682406 C301.502131,69.7885252 302.36712,68.7268209 303.160038,67.683096 C303.952957,66.6393711 304.817946,65.6496468 305.755031,64.7138934 C306.54795,63.634178 307.430959,62.6084637 308.404086,61.6367198 C309.377213,60.6649759 310.368347,59.7472316 311.377516,58.8834593 C311.737933,58.3795921 312.188448,58.0016973 312.729074,57.7497637 C313.269701,57.4978301 313.828339,57.1919153 314.405007,56.8320102 C315.48626,56.6160671 316.351249,56.9399769 317,57.8037492 C316.945937,57.9117208 316.912149,58.0298133 316.898633,58.1580288 L316.891875,58.2896187 C316.891875,58.4695713 316.855834,58.6315262 316.783751,58.7754883 C316.207083,59.4233175 315.612403,60.0351471 314.999693,60.6109953 C314.386983,61.1868435 313.792303,61.7626831 313.215635,62.3385314 C310.908964,64.8578673 308.674409,67.4311505 306.511904,70.0584581 C304.349399,72.6857656 302.222968,75.4030087 300.132547,78.2102688 C299.555879,78.786117 299.033281,79.4699265 298.564738,80.2617178 L297.97654,81.2464137 C297.669466,81.7560357 297.342931,82.2915699 296.99693,82.8530219 C296.744638,82.9789887 296.492349,82.9671797 296.240058,82.8175942 L296.131933,82.7450509 C295.843599,82.5291078 295.447145,82.4211379 294.942561,82.4211379 C294.437976,82.5650999 293.9334,82.7450498 293.428815,82.9609929 C292.924231,83.176936 292.383613,83.3568859 291.806944,83.5008479 C291.536631,83.3928764 291.266321,83.3152726 290.99601,83.2680354 L290.725698,83.2309204 C290.455384,83.2039275 290.185074,83.1465684 289.914763,83.0588419 L289.644451,82.9609929 C287.914447,82.3851447 286.544881,81.4853953 285.535712,80.2617178 C284.526543,79.0380403 283.84176,77.5984414 283.481343,75.9428777 C283.120925,74.4312761 282.904678,72.9017022 282.832594,71.3541101 C282.772525,70.06445 282.787542,68.8122956 282.877646,67.5976209 L282.940719,66.8733135 C283.056053,65.4912777 283.217518,64.1207754 283.425117,62.7617801 L283.589467,61.7446908 C283.877801,60.0531367 284.094049,58.3436129 284.238215,56.6160682 C284.598633,53.2329599 285.10321,49.8678973 285.751961,46.5207794 C286.400713,43.1736616 287.121537,39.844589 287.914455,36.5334617 C290.07696,27.4638521 293.572957,18.9342282 298.402551,10.944334 C298.672864,10.5124478 298.943175,10.1109331 299.213486,9.73978308 L299.483798,9.37875445 C299.844216,8.91087777 300.204628,8.42501312 300.565045,7.92114592 C300.781296,7.70520283 301.015564,7.50725797 301.267856,7.3273054 L301.796465,6.94340878 C301.888571,6.87542714 301.98268,6.80544591 302.078791,6.73346489 L305.514752,7.74119369 C306.083407,7.9091483 306.65006,8.07710319 307.214715,8.24505893 C308.908677,8.74892612 310.584593,9.36075569 312.242513,10.080566 C312.458764,10.6564142 312.675011,11.1782688 312.891261,11.6461455 C313.107512,12.1140222 313.3598,12.6358768 313.648134,13.2117251 C313.071466,15.515118 312.494807,17.7644914 311.918139,19.9599127 C311.341471,22.1553341 310.800853,24.4047075 310.296269,26.7081004 C309.925553,28.6207392 309.462166,30.5201325 308.906095,32.4063223 L308.620336,33.3483171 C307.935542,35.5437385 307.376904,37.7571219 306.944403,39.9885338 C306.800236,40.564382 306.565968,41.1222266 306.241592,41.6620843 C305.917216,42.201942 305.610866,42.8317666 305.322532,43.5515769 L305.538782,44.1994029 C304.097112,49.3820369 302.799628,54.5645932 301.646292,59.7472273 C301.141708,61.474772 300.673172,63.1842958 300.240671,64.8758499 L299.375674,68.234946 C299.231508,68.7907958 299.087342,69.344647 298.943175,69.8965016 C298.871091,70.2564067 298.853071,70.6163064 298.889113,70.9762116 C298.925154,71.3361167 298.943175,71.6960165 298.943175,72.0559216 Z" id="path-2"></path>
    </defs>
    <g id="Page-1" stroke="none" stroke-width="1" fill="none" fill-rule="evenodd">
        <g id="Colorful" fill-rule="nonzero">
            <use fill="#000000" xlink:href="#path-2"></use>
            <use fill="url(#linearGradient-1)" xlink:href="#path-2"></use>
        </g>
    </g>
</svg>