<?xml version="1.0" encoding="UTF-8"?>
<svg width="319px" height="117px" viewBox="0 0 319 117" version="1.1" xmlns="http://www.w3.org/2000/svg" xmlns:xlink="http://www.w3.org/1999/xlink">
    <!-- Generator: Sketch 58 (84663) - https://sketch.com -->
    <title>Happier</title>
    <desc>Created with Sketch.</desc>
    <defs>
        <linearGradient x1="0%" y1="50%" x2="99.2634596%" y2="51.1756229%" id="linearGradient-1">
            <stop stop-color="#F82E94" offset="0%"></stop>
            <stop stop-color="#FF9E33" offset="100%"></stop>
        </linearGradient>
        <path d="M22.5971164,27.9136612 C22.5762773,27.9348404 22.4715726,27.7882877 22.283,27.474 C22.1699328,27.5870672 22.0568669,27.6549069 21.9438002,27.6775201 L21.859,27.686 C21.717666,27.686 21.576334,27.721333 21.435,27.792 C20.7989968,28.2866691 20.3396681,28.8343303 20.057,29.435 C19.7743319,30.0356697 19.5270011,30.6893298 19.315,31.396 C18.9616649,32.3853383 18.5730021,33.3216622 18.149,34.205 C17.7249979,35.0883377 17.0536713,35.7773309 16.135,36.272 L15.6139493,37.3499059 C14.5197129,39.6322867 13.6510699,41.5696365 13.008,43.162 L12.6190401,44.1361516 C12.0592543,45.5553266 11.6059108,46.7852675 11.259,47.826 C10.8349979,49.0980064 10.5700005,50.2109952 10.464,51.165 C10.3579995,52.1190048 10.269667,53.1259947 10.199,54.186 C9.77499788,54.327334 9.31566914,54.4509995 8.821,54.557 C8.32633086,54.6630005 7.79633616,54.751333 7.231,54.822 C4.99615549,54.1447744 3.28054162,52.6238609 2.08411174,50.2592167 L1.931,49.946 C1.2243298,48.5326596 0.871,46.9780085 0.871,45.282 C0.871,44.2219947 0.95933245,43.1796718 1.136,42.155 C1.31266755,41.1303282 1.5776649,40.1233383 1.931,39.134 C2.6376702,37.1553234 3.36199629,35.2120095 4.104,33.304 C4.84600371,31.3959905 5.7469947,29.5233425 6.807,27.686 C7.25926893,26.8945294 7.66630621,26.1256814 8.02811946,25.3794413 L8.291,24.824 C8.71500212,23.9053287 9.17433086,22.9866713 9.669,22.068 C9.88100106,21.5733309 10.1636649,21.0963356 10.517,20.637 C10.8703351,20.1776644 11.3296638,19.8420011 11.895,19.63 C11.965667,18.4993277 12.3366633,17.4923377 13.008,16.609 C13.6793367,15.7256622 14.3683298,14.8600042 15.075,14.012 C16.8416755,11.8919894 18.7319899,9.96634199 20.746,8.235 C22.7600101,6.50365801 24.8976554,4.9313404 27.159,3.518 C28.1483383,2.8113298 29.1729947,2.26366861 30.233,1.875 C31.2930053,1.48633139 32.2116628,1.1153351 32.989,0.762 C33.8370042,0.762 34.4906644,0.90333192 34.95,1.186 C35.4093356,1.46866808 35.8863309,1.7866649 36.381,2.14 L37.1877784,2.9408896 C37.7452589,3.4905182 38.3419968,4.07155249 38.978,4.684 C39.9320048,5.60267126 40.8329958,6.45066278 41.681,7.228 C41.9636681,7.51066808 42.2237197,7.82725243 42.4611596,8.17775929 L42.635,8.447 C42.9176681,8.90633563 43.2356649,9.3126649 43.589,9.666 C43.589,11.1500074 43.4830011,12.5633266 43.271,13.906 C41.2993901,18.9304251 39.513835,24.0406416 37.9142918,29.2367737 L37.388,30.972 C35.656658,36.7666956 33.8370095,42.5613044 31.929,48.356 C31.858333,48.426667 31.9289989,48.7093309 32.141,49.204 C32.9183372,49.204 33.6426633,49.0626681 34.314,48.78 C34.9853367,48.4973319 35.6743298,48.2500011 36.381,48.038 C36.8992248,47.896666 37.4095927,47.7474816 37.9121103,47.5904448 L38.66,47.349 C39.4020037,47.1016654 40.1616628,46.8720011 40.939,46.66 L43.271,46.024 C44.0483372,45.8119989 44.8609958,45.635334 45.709,45.494 C46.2272248,45.3997773 46.7375927,45.2977038 47.2401103,45.187778 L47.988,45.017 C48.7300037,44.8403325 49.4896628,44.681334 50.267,44.54 L51.7981103,44.2573335 C52.0493692,44.2102225 52.2986654,44.1631113 52.546,44.116 C53.2880037,43.974666 54.0829958,43.868667 54.931,43.798 C55.2843351,43.4446649 55.5139995,43.0383356 55.62,42.579 C55.7260005,42.1196644 55.849666,41.7133351 55.991,41.36 C56.9096713,38.2506511 57.8283287,35.1590154 58.747,32.085 C59.4360034,29.7794885 60.1448739,27.4839403 60.8736236,25.1983167 L61.609,22.916 C62.3863372,20.4426543 63.2696617,18.0046787 64.259,15.602 C65.2483383,13.1993213 66.3083277,10.8320117 67.439,8.5 C67.7923351,7.7933298 68.1633314,7.15733616 68.552,6.592 C68.9406686,6.02666384 69.5236628,5.63800106 70.301,5.426 C70.7250021,5.63800106 71.0606654,5.83233245 71.308,6.009 C71.5553346,6.18566755 71.7849989,6.37999894 71.997,6.592 L72.2683601,6.87184 C72.4125197,7.02447962 72.5693992,7.19619905 72.739,7.387 L73.905,8.712 L73.905,8.712 C74.2347794,8.94755673 74.5645556,9.17525934 74.8943328,9.3951108 L75.389,9.719 C75.8836691,10.0370016 76.3783309,10.3726649 76.873,10.726 C77.014334,10.796667 77.1379995,10.9379989 77.244,11.15 C77.3500005,11.3620011 77.473666,11.5739989 77.615,11.786 C77.2616649,13.0580064 76.9790011,14.3653266 76.767,15.708 C76.5549989,17.0506734 76.1663362,18.3933266 75.601,19.736 C75.1769979,20.7960053 74.8060016,21.9089942 74.488,23.075 C74.1699984,24.2410058 73.8343351,25.4246607 73.481,26.626 C72.8591302,28.9438783 72.2259614,31.2165025 71.5814812,33.4439161 L71.096,35.106 C70.2833293,37.8620138 69.4883372,40.6533192 68.711,43.48 C68.2339976,45.070008 67.7768754,46.6699354 67.3396257,48.2798094 L66.909,49.893 C66.3436638,52.0483441 65.6723372,54.1506564 64.895,56.2 C63.9056617,59.0973478 63.0400037,61.9769857 62.298,64.839 L60.4832811,71.8095557 C60.3292278,72.3989158 60.1744674,72.990397 60.019,73.584 C59.4359971,75.7570109 58.8728755,77.9299973 58.3296259,80.1029959 L56.9280396,85.7867219 C56.4870806,87.5590379 56.0334023,89.3567909 55.567,91.18 C55.3785546,91.2742227 55.1979629,91.3605927 55.0252225,91.439111 L54.772,91.551 C54.5246654,91.6570005 54.2596681,91.780666 53.977,91.922 C53.3551302,91.8654664 52.7671876,91.7976269 52.2131609,91.7184802 L51.804,91.657 C51.1326633,91.5509995 50.4790032,91.462667 49.843,91.392 C48.2883256,90.6853298 47.0516713,89.6606734 46.133,88.318 C46.4156681,86.3393234 46.6806654,84.3606766 46.928,82.382 C47.1753346,80.4033234 47.4756649,78.4246766 47.829,76.446 C48.1116681,74.8065251 48.4282524,73.1896831 48.7787593,71.5954428 L49.048,70.404 C49.5073356,68.4253234 49.9136649,66.4113436 50.267,64.362 C50.5614459,62.7131029 50.9294985,61.0764947 51.3711658,59.4521416 L51.645,58.479 C52.2103362,56.5356569 52.5989989,54.5040106 52.811,52.384 C52.1043298,52.242666 51.4860027,52.3309984 50.956,52.649 C50.5143311,52.9140013 50.0603994,53.1176574 49.5941952,53.2599721 L49.313,53.338 C48.7476638,53.479334 48.2176691,53.6559989 47.723,53.868 C47.2283309,54.0800011 46.6983362,54.2919989 46.133,54.504 C45.5676638,54.645334 45.0200026,54.8573319 44.49,55.14 C43.9599973,55.4226681 43.4123362,55.6699989 42.847,55.882 L41.8812227,56.1646665 L41.8812227,56.1646665 L41.416,56.306 C40.9566644,56.447334 40.4796691,56.588666 39.985,56.73 L36.805,58.32 C36.3809979,58.4790008 35.9570005,58.6081876 35.5330008,58.7075624 L35.109,58.797 C34.5436638,58.9030005 33.9076702,59.1326649 33.201,59.486 C32.5649968,60.0513362 31.8936702,60.5989973 31.187,61.129 C30.4803298,61.6590026 29.5970053,61.853334 28.537,61.712 C26.8807417,64.4282636 25.3176699,68.7282622 23.8477434,74.612112 L23.555,75.81 C23.1027311,77.6190757 22.6843872,79.4507428 22.2999606,81.3050366 L22.018,82.7 C21.5586644,85.0320117 21.0463362,87.3286554 20.481,89.59 C19.2796607,90.0140021 18.1136723,90.4026649 16.983,90.756 C15.3576585,90.4733319 14.0856713,90.1023356 13.167,89.643 C12.2483287,89.1836644 11.1176734,88.2826734 9.775,86.94 C9.56299894,85.3146585 9.47466649,83.636342 9.51,81.905 C9.54533351,80.173658 9.66899894,78.4600085 9.881,76.764 C10.4463362,72.2413107 11.2589947,67.8070217 12.319,63.461 C13.3790053,59.1149783 14.5096607,54.7866882 15.711,50.476 C16.6296713,46.871982 17.6543277,43.338684 18.785,39.876 C19.9156723,36.413316 21.0816607,32.950684 22.283,29.488 C22.424334,29.2053319 22.495,28.9403346 22.495,28.693 C22.495,28.5109289 22.5141466,28.3192865 22.5524403,28.1180697 L22.5971164,27.9136612 L22.5971164,27.9136612 Z M17.513,66.482 L17.9635004,65.1569987 C18.0871668,64.8036662 18.184333,64.5386676 18.255,64.362 C19.3150053,60.2633128 20.5339931,56.2530196 21.912,52.331 C23.2900069,48.4089804 24.6856596,44.4693531 26.099,40.512 C27.0883383,37.8266532 28.0423287,35.1590133 28.961,32.509 C29.8796713,29.8589867 30.6216638,27.1913468 31.187,24.506 C31.4696681,23.7993298 31.646333,23.0750037 31.717,22.333 L31.929,20.054 L31.929,20.054 C31.929,19.7713319 31.858334,19.4180021 31.717,18.994 C31.2929979,18.7113319 30.9220016,18.5170005 30.604,18.411 C30.2859984,18.3049995 29.9503351,18.3933319 29.597,18.676 C29.2436649,19.1706691 29.031667,19.6653309 28.961,20.16 C28.890333,20.6546691 28.855,21.1846638 28.855,21.75 L28.855,23.34 C28.855,23.8346691 28.784334,24.3646638 28.643,24.93 C27.5829947,29.0993542 26.2403415,33.2686458 24.615,37.438 L21.7,44.699 L21.7,44.699 C20.7459952,47.0663452 19.8450042,49.4866543 18.997,51.96 C18.2196628,54.0093436 17.5836691,56.1116559 17.089,58.267 C16.5943309,60.4223441 16.1703351,62.5599894 15.817,64.68 C15.7463332,64.8920011 15.7286665,65.1393319 15.764,65.422 C15.7993335,65.7046681 15.852333,65.9519989 15.923,66.164 C16.1350011,66.2170003 16.3271249,66.2501251 16.4993748,66.263375 L16.665,66.27 C16.8770011,66.27 17.1596649,66.340666 17.513,66.482 Z M103.797,39.346 C104.009001,39.9820032 104.185666,40.4413319 104.327,40.724 L105.334,41.731 C105.652002,42.0490016 105.987665,42.4199979 106.341,42.844 C106.199666,43.5035589 106.050482,44.1552593 105.893445,44.7991101 L105.652,45.759 C105.404665,46.7130048 105.175001,47.6846617 104.963,48.674 L104.21888,51.669559 C104.057761,52.3225175 103.899467,52.9669968 103.744,53.603 C103.355331,55.1930079 102.949002,56.8006585 102.525,58.426 C102.242332,60.0513415 101.906669,61.6413256 101.518,63.196 C101.129331,64.7506744 100.758335,66.3406585 100.405,67.966 C100.263666,68.2486681 100.175334,68.5666649 100.14,68.92 C100.104666,69.2733351 100.263665,69.6266649 100.617,69.98 C102.03034,67.9306564 103.425993,65.8813436 104.804,63.832 C106.182007,61.7826564 107.82499,59.8746755 109.733,58.108 L111.405444,58.5319998 C111.680258,58.6026663 111.95311,58.673333 112.224,58.744 C113.036671,58.9560011 113.831663,59.3093309 114.609,59.804 C113.831663,61.0053393 113.019004,62.1183282 112.171,63.143 C111.322996,64.1676718 110.439671,65.2099947 109.521,66.27 C107.259655,68.7433457 105.192676,71.2519873 103.32,73.796 C101.447324,76.3400127 99.7336744,78.9546532 98.179,81.64 L97.0718894,82.0639998 C96.8912972,82.1346663 96.7126675,82.205333 96.536,82.276 C96.0059973,82.4880011 95.4583362,82.664666 94.893,82.806 C91.7129841,82.947334 89.1336766,81.8520117 87.155,79.52 C86.8016649,78.8133298 86.5720005,78.1066702 86.466,77.4 C86.3599995,76.6933298 86.307,75.9513372 86.307,75.174 L86.307,72.842 C86.307,72.0646628 86.271667,71.2873372 86.201,70.51 C85.7239976,71.0400027 85.2668754,71.5799367 84.8296257,72.1298114 L84.399,72.683 C83.8336638,73.4250037 83.2330032,74.1493298 82.597,74.856 C81.9609968,75.5626702 81.2366707,76.2163303 80.424,76.817 C79.6113293,77.4176697 78.6396723,77.9299979 77.509,78.354 C75.4596564,78.8486691 73.4280101,78.8663356 71.414,78.407 C69.3999899,77.9476644 67.6156744,76.8346755 66.061,75.068 C65.2836628,73.4426585 64.9126665,71.835008 64.948,70.245 C64.9833335,68.6549921 65.1776649,67.0826744 65.531,65.528 C65.8843351,63.1959883 66.4673293,60.9170111 67.28,58.691 C68.0926707,56.4649889 69.0643277,54.3273436 70.195,52.278 C70.7603362,51.1473277 71.3256638,50.0696718 71.891,49.045 C72.393521,48.1341806 73.0635399,47.2373321 73.9010729,46.3544332 L74.223,46.024 C74.7075739,45.5394261 75.0883058,45.067838 75.3652038,44.6092252 L75.495,44.381 C75.7776681,43.8509973 76.2016638,43.3386691 76.767,42.844 C78.3923415,41.0066575 80.2296564,39.4520064 82.279,38.18 C84.3283436,36.9079936 86.8369852,36.0953351 89.805,35.742 C89.9905009,35.8038336 90.2977326,35.8656665 90.7267024,35.9274999 L92.0015549,36.0953333 C92.1860731,36.1188888 92.3725546,36.1424443 92.561,36.166 C93.4514045,36.4204013 94.1843885,36.8322075 94.7599694,37.4014292 L94.946,37.597 C95.5466697,38.2683367 96.3416617,38.7806649 97.331,39.134 C97.5960013,38.9749992 97.8411249,38.835875 98.0663747,38.7166251 L98.285,38.604 C98.5676681,38.462666 98.8503319,38.2860011 99.133,38.074 C99.9103372,38.2860011 100.687663,38.4803324 101.465,38.657 C102.242337,38.8336675 103.019663,39.0633319 103.797,39.346 Z M96.059,47.19 C96.1120003,47.137 96.1451251,47.0939375 96.158375,47.0608125 L96.165,47.031 C96.165,46.9956665 96.200333,46.942667 96.271,46.872 C96.200333,46.872 96.094334,46.942666 95.953,47.084 C95.953,47.1311113 95.9451482,47.1703704 95.9294445,47.2017778 L95.9,47.243 C95.8646665,47.2783335 95.847,47.331333 95.847,47.402 L96.059,47.19 Z M97.331,48.78 L97.331,48.886 C97.1189989,49.0980011 96.9600005,49.3099989 96.854,49.522 C96.7479995,49.7340011 96.8716649,50.0873309 97.225,50.582 C97.225,50.3169987 97.2349374,50.0718751 97.2548124,49.8466253 L97.278,49.628 C97.3133335,49.3453319 97.331,49.0626681 97.331,48.78 Z M97.331,48.78 C98.1790042,48.638666 98.603,48.2146702 98.603,47.508 C98.4969995,47.4549997 98.4009375,47.4218749 98.3148126,47.408625 L98.232,47.402 C98.1259995,47.402 98.002334,47.331334 97.861,47.19 C97.5076649,47.5433351 97.331,47.8613319 97.331,48.144 L97.331,48.78 Z M93.331556,55.8323384 C93.2679247,55.8654462 93.1877397,55.882 93.091,55.882 C93.020333,55.882 92.949667,55.917333 92.879,55.988 C92.5256649,57.2600064 92.2430011,58.5143272 92.031,59.751 C91.8189989,60.9876728 91.6070011,62.2419936 91.395,63.514 C91.0416649,65.3513425 91.1123309,66.9766596 91.607,68.39 C91.748334,68.1779989 91.819,67.7893362 91.819,67.224 C91.819,66.4466628 91.854333,65.6340042 91.925,64.786 C91.995667,63.9379958 92.101666,63.0900042 92.243,62.242 C92.4550011,61.0406607 92.7376649,59.9276718 93.091,58.903 C93.3937481,58.0250306 93.4889725,57.1081626 93.3766746,56.1523756 L93.331556,55.8323384 L93.331556,55.8323384 Z M93.4467289,55.5666905 C93.7706388,55.3144458 93.9170612,55.048551 93.886,54.769 C93.8506665,54.4509984 93.7270011,54.0800021 93.515,53.656 L93.515,54.716 C93.515,54.9050434 93.5048858,55.0940853 93.4846574,55.2831273 L93.4467289,55.5666905 L93.4467289,55.5666905 Z M93.9388147,63.0901853 L93.727,63.302 C93.656333,63.372667 93.585667,63.478666 93.515,63.62 L92.667,67.436 C92.525666,68.3546713 92.4726665,69.4499936 92.508,70.722 C92.5433335,71.9940064 92.6669989,73.0539958 92.879,73.902 C93.2323351,73.902 93.479666,73.937333 93.621,74.008 C93.762334,73.866666 93.8153335,73.6900011 93.78,73.478 C93.7534999,73.3189992 93.7369374,73.1401254 93.7303125,72.9413754 L93.727,72.736 C93.727,72.3119979 93.6971878,71.8880005 93.6375627,71.4640008 L93.568,71.04 C93.4619995,70.4746638 93.479666,69.9446691 93.621,69.45 C93.762334,68.3193277 93.8506665,67.2416718 93.886,66.217 C93.9125953,65.4457351 93.9291814,64.6244343 93.9357585,63.7530832 L93.9388147,63.0901853 L93.9388147,63.0901853 Z M94.0468156,62.7823613 C94.3926208,62.4548698 94.5333476,62.0980857 94.469,61.712 C94.398333,61.2879979 94.292334,60.8286691 94.151,60.334 C94.151,60.8286691 94.1333335,61.3056644 94.098,61.765 C94.0836031,61.9521595 94.0721393,62.1305188 94.0636086,62.3000787 L94.0468156,62.7823613 L94.0468156,62.7823613 Z M92.5310139,44.2121757 C91.9083206,44.011735 91.388321,44.0680092 90.971,44.381 C90.5469979,44.6990016 90.1583351,44.858 89.805,44.858 C89.0983298,45.3526691 88.4623362,45.9179968 87.897,46.554 C86.3423256,47.7553393 84.9290064,49.1156591 83.657,50.635 C82.3849936,52.1543409 81.3250042,53.7619915 80.477,55.458 C79.4876617,57.4366766 78.5866707,59.4859894 77.774,61.606 C76.9613293,63.7260106 76.2370032,65.8459894 75.601,67.966 C75.4949995,68.4960027 75.3989375,69.0061245 75.3128126,69.4963742 L75.23,69.98 C75.1239995,70.6160032 75.000334,71.2873298 74.859,71.994 C74.859,72.064667 74.9649989,72.2413319 75.177,72.524 L75.4625516,72.2471014 C75.6860889,72.0379858 75.8735707,71.8829529 76.025,71.782 C77.4383404,70.3686596 78.7279942,68.9023409 79.894,67.383 C81.0600058,65.8636591 82.2083277,64.2913415 83.339,62.666 L83.445,62.454 C83.9396691,61.8179968 84.3459984,61.1820032 84.664,60.546 C84.9820016,59.9099968 85.3176649,59.3093362 85.671,58.744 C86.4483372,57.5426607 87.1903298,56.4296718 87.897,55.405 C88.6036702,54.3803282 89.2043309,53.2673393 89.699,52.066 C90.0382017,51.1049285 90.3887059,50.1777882 90.7505193,49.2845615 L91.024,48.621 C91.4833356,47.5256612 91.9249979,46.3773393 92.349,45.176 C92.4020003,45.0699995 92.4351251,44.9540627 92.448375,44.8281878 L92.455,44.699 C92.455,44.5992623 92.4662612,44.4938948 92.4887839,44.3828964 L92.5310139,44.2121757 L92.5310139,44.2121757 Z M94.257,52.066 L94.257,51.218 L94.151,51.218 L94.151,52.066 L94.257,52.066 Z M94.893,49.098 C94.963667,49.098 95.034333,49.062667 95.105,48.992 C95.105,48.850666 95.069667,48.744667 94.999,48.674 L94.893,48.674 C94.822333,48.674 94.787,48.709333 94.787,48.78 C94.787,48.8271113 94.7948518,48.8663704 94.8105555,48.8977778 L94.84,48.939 C94.8753335,48.9743335 94.893,49.027333 94.893,49.098 Z M128.907894,45.3629107 C129.42601,45.2182491 129.818375,44.979281 130.085,44.646 C130.367668,44.2926649 130.685665,43.9393351 131.039,43.586 C133.795014,40.7593192 136.762984,38.0033468 139.943,35.318 C140.720337,34.7526638 141.497663,34.2756686 142.275,33.887 C143.052337,33.4983314 143.864996,33.0213362 144.713,32.456 C145.066335,32.526667 145.472664,32.562 145.932,32.562 C146.391336,32.562 146.797665,32.632666 147.151,32.774 C148.112071,33.2262689 149.027905,33.6785324 149.898519,34.1307992 L150.543,34.47 C151.603005,35.0353362 152.733661,35.6006638 153.935,36.166 C154.995005,36.6606691 155.701665,37.5793266 156.055,38.922 C156.196334,39.9113383 156.372999,40.9006617 156.585,41.89 C156.797001,42.8793383 156.797001,43.8686617 156.585,44.858 C156.396555,45.9258572 156.263947,46.8261956 156.187173,47.5590362 L156.161,47.826 C156.090333,48.6033372 155.984334,49.3276633 155.843,49.999 C155.701666,50.6703367 155.542668,51.3593298 155.366,52.066 C155.228592,52.6156324 155.016375,53.293504 154.729346,54.0996278 L154.465,54.822 C154.155832,55.687671 153.846668,56.4315975 153.5375,57.0537961 L153.405,57.313 C153.051665,57.9843367 152.769001,58.8146617 152.557,59.804 C152.274332,60.0160011 151.921002,60.3339979 151.497,60.758 C151.355666,60.899334 151.285,61.0759989 151.285,61.288 C151.497001,62.3480053 151.320336,63.2313298 150.755,63.938 C150.500599,64.5740032 150.260511,64.9810401 150.03473,65.1591199 L149.96,65.21 C149.712665,65.351334 149.412335,65.7399968 149.059,66.376 C148.846999,66.7293351 148.741,67.1886638 148.741,67.754 C148.670333,67.895334 148.670333,68.0189995 148.741,68.125 C148.811667,68.2310005 148.882333,68.354666 148.953,68.496 C149.235668,68.566667 149.977661,68.0720053 151.179,67.012 C152.380339,65.9519947 153.652327,64.7506734 154.995,63.408 L156.1199,62.2744471 C156.852525,61.5302846 157.550535,60.8091996 158.213937,60.1111852 L160.563851,57.6304497 C160.629872,57.5622285 160.681588,57.509412 160.719,57.472 C160.984001,57.2069987 161.249,56.9618751 161.514,56.7366253 L161.779,56.518 C162.044001,56.3059989 162.309,56.0741255 162.574,55.8223755 L162.839,55.564 C163.687004,54.7159958 164.570329,54.1860011 165.489,53.974 C166.125003,54.115334 166.778663,54.5039968 167.45,55.14 C168.121337,55.7760032 168.598332,56.4119968 168.881,57.048 C168.262664,58.0373383 167.536128,58.9455081 166.701376,59.7725302 L166.337,60.122 C165.488996,60.9094325 164.718879,61.7487727 164.026634,62.6400394 L163.687,63.09 C163.333665,63.5846691 162.273676,64.626992 160.507,66.217 L159.303047,67.2927059 C157.867904,68.566014 156.325897,69.9034374 154.677,71.305 C152.821991,72.8817579 151.048154,74.3367619 149.355468,75.6700451 L148.108123,76.641657 C146.497526,77.8808116 145.436495,78.6282527 144.925,78.884 C143.723661,79.4493362 142.557672,80.0323303 141.427,80.633 C140.296328,81.2336697 139.236338,81.8519968 138.247,82.488 C137.641283,82.5485717 137.074512,82.5312659 136.546674,82.4360819 L136.286,82.382 C135.785442,82.2642216 135.297159,82.2200551 134.82114,82.2494998 L134.537,82.276 C131.851653,82.5586681 129.343012,82.3113372 127.011,81.534 C124.678988,80.7566628 122.594343,79.4493425 120.757,77.612 C120.643933,77.4989328 120.542173,77.4197866 120.45172,77.37456 L120.386,77.347 C120.279999,77.3116665 120.156334,77.223334 120.015,77.082 L119.744111,77.6178897 C119.57137,77.9555189 119.414334,78.2538876 119.273,78.513 C119.060999,78.9016686 118.884334,79.166666 118.743,79.308 L118.540937,80.3415022 C118.348812,81.3485019 118.186501,82.2759958 118.054,83.124 C117.877332,84.2546723 117.612335,85.3146617 117.259,86.304 C116.63713,88.6784119 116.003961,91.007569 115.359481,93.291516 L114.874,94.996 C114.061329,97.8226808 113.266337,100.719985 112.489,103.688 C112.064998,105.454676 111.641002,107.238991 111.217,109.041 C110.792998,110.843009 110.404335,112.733323 110.051,114.712 C109.732998,114.924001 109.395126,115.126062 109.037376,115.318187 L108.673,115.507 C108.178331,115.754335 107.719002,116.019332 107.295,116.302 C105.669659,116.514001 104.185673,116.355003 102.843,115.825 C101.500327,115.294997 100.263672,114.782669 99.133,114.288 C98.4969968,113.58133 98.0730011,112.92767 97.861,112.327 C97.6489989,111.72633 97.543,111.108003 97.543,110.472 C97.543,109.341328 97.5606665,108.246005 97.596,107.186 C97.6313335,106.125995 97.719666,105.030672 97.861,103.9 C98.0730011,102.133325 98.3203319,100.384342 98.603,98.653 C98.8291345,97.2679264 99.0778793,95.8489498 99.3492395,94.3960427 L99.557,93.3 C100.26367,89.4839809 101.040996,85.7563515 101.889,82.117 C102.737004,78.4776485 103.584996,74.7500191 104.433,70.934 C104.998336,68.5313213 105.563664,66.3053436 106.129,64.256 C106.694336,62.2066564 107.294997,60.2103431 107.931,58.267 C108.567003,56.3236569 109.23833,54.3626766 109.945,52.384 L110.488251,50.8734974 C111.04475,49.3364987 111.640997,47.7200085 112.277,46.024 C113.054337,43.9746564 113.884662,41.9960095 114.768,40.088 C115.651338,38.1799905 116.79966,36.3073425 118.213,34.47 C118.566335,34.1166649 118.901998,33.7633351 119.22,33.41 C119.538002,33.0566649 120.014997,32.7740011 120.651,32.562 C120.792334,32.632667 121.004332,32.703333 121.287,32.774 C121.569668,32.844667 121.852332,32.950666 122.135,33.092 C123.336339,33.7280032 124.537661,34.3816633 125.739,35.053 C126.940339,35.7243367 128.070995,36.5546617 129.131,37.544 C129.767003,38.8160064 129.837669,39.9819947 129.343,41.042 C129.201666,41.8193372 129.078001,42.5613298 128.972,43.268 C128.891979,43.8014753 128.862299,44.3550806 128.882959,44.9288256 L128.907894,45.3629107 L128.907894,45.3629107 Z M127.753,75.916 L128.15156,75.6700798 C128.33812,75.55136 128.505599,75.4390005 128.654,75.333 C128.901335,75.1563324 129.130999,74.9620011 129.343,74.75 C130.908546,73.380147 132.203115,71.7694633 133.226739,69.9179072 L133.477,69.45 C134.18367,68.1073266 134.89033,66.8176729 135.597,65.581 C136.162336,64.5916617 136.682439,63.5910288 137.157319,62.5790818 L138.489099,59.6613567 C138.877329,58.8063793 139.238295,58.0059297 139.572,57.26 C140.17267,55.9173266 140.737997,54.6100064 141.268,53.338 C141.798003,52.0659936 142.310331,50.7233404 142.805,49.31 L143.182626,48.2168733 C143.566875,47.0906243 143.970998,45.8650066 144.395,44.54 L144.607,43.692 C144.677667,43.4093319 144.501002,43.1620011 144.077,42.95 C143.811999,43.1620011 143.576813,43.3739997 143.371438,43.5859996 L143.176,43.798 C142.928665,44.0806681 142.628335,44.3633319 142.275,44.646 C141.356329,45.4940042 140.54367,46.2006638 139.837,46.766 C139.13033,47.3313362 138.42367,47.8789974 137.717,48.409 C137.01033,48.9390027 136.321337,49.5043303 135.65,50.105 C134.978663,50.7056697 134.219004,51.4653287 133.371,52.384 L131.5425,54.5304999 C130.924168,55.2548314 130.297003,55.9879963 129.661,56.73 C128.388994,58.2140074 127.258338,59.7686585 126.269,61.394 C125.915665,61.9593362 125.633001,62.5069973 125.421,63.037 C125.208999,63.5670027 124.891002,64.0439979 124.467,64.468 C123.624885,65.4396715 123.035142,66.5300878 122.697757,67.7392765 L122.612,68.072 C122.293998,69.4146734 121.887669,70.7219936 121.393,71.994 L122.291881,72.4010404 C122.5802,72.5310668 122.857213,72.6554396 123.122919,72.7741596 L125.421,73.796 C125.686001,74.0610013 125.970874,74.3259997 126.275624,74.5909995 L126.587,74.856 C127.011002,75.2093351 127.399665,75.5626649 127.753,75.916 Z M182.755894,45.3629107 C183.27401,45.2182491 183.666375,44.979281 183.933,44.646 C184.215668,44.2926649 184.533665,43.9393351 184.887,43.586 C187.643014,40.7593192 190.610984,38.0033468 193.791,35.318 C194.568337,34.7526638 195.345663,34.2756686 196.123,33.887 C196.900337,33.4983314 197.712996,33.0213362 198.561,32.456 C198.914335,32.526667 199.320664,32.562 199.78,32.562 C200.239336,32.562 200.645665,32.632666 200.999,32.774 C201.960071,33.2262689 202.875905,33.6785324 203.746519,34.1307992 L204.391,34.47 C205.451005,35.0353362 206.581661,35.6006638 207.783,36.166 C208.843005,36.6606691 209.549665,37.5793266 209.903,38.922 C210.044334,39.9113383 210.220999,40.9006617 210.433,41.89 C210.645001,42.8793383 210.645001,43.8686617 210.433,44.858 C210.244555,45.9258572 210.111947,46.8261956 210.035173,47.5590362 L210.009,47.826 C209.938333,48.6033372 209.832334,49.3276633 209.691,49.999 C209.549666,50.6703367 209.390668,51.3593298 209.214,52.066 C209.076592,52.6156324 208.864375,53.293504 208.577346,54.0996278 L208.313,54.822 C208.003832,55.687671 207.694668,56.4315975 207.3855,57.0537961 L207.253,57.313 C206.899665,57.9843367 206.617001,58.8146617 206.405,59.804 C206.122332,60.0160011 205.769002,60.3339979 205.345,60.758 C205.203666,60.899334 205.133,61.0759989 205.133,61.288 C205.345001,62.3480053 205.168336,63.2313298 204.603,63.938 C204.348599,64.5740032 204.108511,64.9810401 203.88273,65.1591199 L203.808,65.21 C203.560665,65.351334 203.260335,65.7399968 202.907,66.376 C202.694999,66.7293351 202.589,67.1886638 202.589,67.754 C202.518333,67.895334 202.518333,68.0189995 202.589,68.125 C202.659667,68.2310005 202.730333,68.354666 202.801,68.496 C203.083668,68.566667 203.825661,68.0720053 205.027,67.012 C206.228339,65.9519947 207.500327,64.7506734 208.843,63.408 L209.9679,62.2744471 C210.700525,61.5302846 211.398535,60.8091996 212.061937,60.1111852 L214.411851,57.6304497 C214.477872,57.5622285 214.529588,57.509412 214.567,57.472 C214.832001,57.2069987 215.097,56.9618751 215.362,56.7366253 L215.627,56.518 C215.892001,56.3059989 216.157,56.0741255 216.422,55.8223755 L216.687,55.564 C217.535004,54.7159958 218.418329,54.1860011 219.337,53.974 C219.973003,54.115334 220.626663,54.5039968 221.298,55.14 C221.969337,55.7760032 222.446332,56.4119968 222.729,57.048 C222.110664,58.0373383 221.384128,58.9455081 220.549376,59.7725302 L220.185,60.122 C219.336996,60.9094325 218.566879,61.7487727 217.874634,62.6400394 L217.535,63.09 C217.181665,63.5846691 216.121676,64.626992 214.355,66.217 L213.151047,67.2927059 C211.715904,68.566014 210.173897,69.9034374 208.525,71.305 C206.669991,72.8817579 204.896154,74.3367619 203.203468,75.6700451 L201.956123,76.641657 C200.345526,77.8808116 199.284495,78.6282527 198.773,78.884 C197.571661,79.4493362 196.405672,80.0323303 195.275,80.633 C194.144328,81.2336697 193.084338,81.8519968 192.095,82.488 C191.489283,82.5485717 190.922512,82.5312659 190.394674,82.4360819 L190.134,82.382 C189.633442,82.2642216 189.145159,82.2200551 188.66914,82.2494998 L188.385,82.276 C185.699653,82.5586681 183.191012,82.3113372 180.859,81.534 C178.526988,80.7566628 176.442343,79.4493425 174.605,77.612 C174.491933,77.4989328 174.390173,77.4197866 174.29972,77.37456 L174.234,77.347 C174.127999,77.3116665 174.004334,77.223334 173.863,77.082 L173.592111,77.6178897 C173.41937,77.9555189 173.262334,78.2538876 173.121,78.513 C172.908999,78.9016686 172.732334,79.166666 172.591,79.308 L172.388937,80.3415022 C172.196812,81.3485019 172.034501,82.2759958 171.902,83.124 C171.725332,84.2546723 171.460335,85.3146617 171.107,86.304 C170.48513,88.6784119 169.851961,91.007569 169.207481,93.291516 L168.722,94.996 C167.909329,97.8226808 167.114337,100.719985 166.337,103.688 C165.912998,105.454676 165.489002,107.238991 165.065,109.041 C164.640998,110.843009 164.252335,112.733323 163.899,114.712 C163.580998,114.924001 163.243126,115.126062 162.885376,115.318187 L162.521,115.507 C162.026331,115.754335 161.567002,116.019332 161.143,116.302 C159.517659,116.514001 158.033673,116.355003 156.691,115.825 C155.348327,115.294997 154.111672,114.782669 152.981,114.288 C152.344997,113.58133 151.921001,112.92767 151.709,112.327 C151.496999,111.72633 151.391,111.108003 151.391,110.472 C151.391,109.341328 151.408666,108.246005 151.444,107.186 C151.479334,106.125995 151.567666,105.030672 151.709,103.9 C151.921001,102.133325 152.168332,100.384342 152.451,98.653 C152.677134,97.2679264 152.925879,95.8489498 153.197239,94.3960427 L153.405,93.3 C154.11167,89.4839809 154.888996,85.7563515 155.737,82.117 C156.585004,78.4776485 157.432996,74.7500191 158.281,70.934 C158.846336,68.5313213 159.411664,66.3053436 159.977,64.256 C160.542336,62.2066564 161.142997,60.2103431 161.779,58.267 C162.415003,56.3236569 163.08633,54.3626766 163.793,52.384 L164.336251,50.8734974 C164.89275,49.3364987 165.488997,47.7200085 166.125,46.024 C166.902337,43.9746564 167.732662,41.9960095 168.616,40.088 C169.499338,38.1799905 170.64766,36.3073425 172.061,34.47 C172.414335,34.1166649 172.749998,33.7633351 173.068,33.41 C173.386002,33.0566649 173.862997,32.7740011 174.499,32.562 C174.640334,32.632667 174.852332,32.703333 175.135,32.774 C175.417668,32.844667 175.700332,32.950666 175.983,33.092 C177.184339,33.7280032 178.385661,34.3816633 179.587,35.053 C180.788339,35.7243367 181.918995,36.5546617 182.979,37.544 C183.615003,38.8160064 183.685669,39.9819947 183.191,41.042 C183.049666,41.8193372 182.926001,42.5613298 182.82,43.268 C182.739979,43.8014753 182.710299,44.3550806 182.730959,44.9288256 L182.755894,45.3629107 L182.755894,45.3629107 Z M181.601,75.916 L181.99956,75.6700798 C182.18612,75.55136 182.353599,75.4390005 182.502,75.333 C182.749335,75.1563324 182.978999,74.9620011 183.191,74.75 C184.756546,73.380147 186.051115,71.7694633 187.074739,69.9179072 L187.325,69.45 C188.03167,68.1073266 188.73833,66.8176729 189.445,65.581 C190.010336,64.5916617 190.530439,63.5910288 191.005319,62.5790818 L192.337099,59.6613567 C192.725329,58.8063793 193.086295,58.0059297 193.42,57.26 C194.02067,55.9173266 194.585997,54.6100064 195.116,53.338 C195.646003,52.0659936 196.158331,50.7233404 196.653,49.31 L197.030626,48.2168733 C197.414875,47.0906243 197.818998,45.8650066 198.243,44.54 L198.455,43.692 C198.525667,43.4093319 198.349002,43.1620011 197.925,42.95 C197.659999,43.1620011 197.424813,43.3739997 197.219438,43.5859996 L197.024,43.798 C196.776665,44.0806681 196.476335,44.3633319 196.123,44.646 C195.204329,45.4940042 194.39167,46.2006638 193.685,46.766 C192.97833,47.3313362 192.27167,47.8789974 191.565,48.409 C190.85833,48.9390027 190.169337,49.5043303 189.498,50.105 C188.826663,50.7056697 188.067004,51.4653287 187.219,52.384 L185.3905,54.5304999 C184.772168,55.2548314 184.145003,55.9879963 183.509,56.73 C182.236994,58.2140074 181.106338,59.7686585 180.117,61.394 C179.763665,61.9593362 179.481001,62.5069973 179.269,63.037 C179.056999,63.5670027 178.739002,64.0439979 178.315,64.468 C177.472885,65.4396715 176.883142,66.5300878 176.545757,67.7392765 L176.46,68.072 C176.141998,69.4146734 175.735669,70.7219936 175.241,71.994 L176.139881,72.4010404 C176.57236,72.59608 176.979398,72.7783992 177.361,72.948 L179.269,73.796 C179.534001,74.0610013 179.818874,74.3259997 180.123624,74.5909995 L180.435,74.856 C180.859002,75.2093351 181.247665,75.5626649 181.601,75.916 Z M223.047,40.406 L224.796,39.823 C225.326003,39.6463325 225.873664,39.487334 226.439,39.346 C226.704001,39.4520005 226.959062,39.5381251 227.204187,39.604375 L227.446,39.664 C227.684501,39.7170003 227.913062,39.7898747 228.131687,39.8826248 L228.347,39.982 C228.96887,40.2646681 229.545506,40.5473328 230.076919,40.8299995 L230.467,41.042 C231.103003,41.3953351 231.809663,41.7486649 232.587,42.102 C232.681223,42.243334 232.775444,42.3925184 232.869667,42.5495552 L233.011,42.791 C233.152334,43.0383346 233.293666,43.232666 233.435,43.374 C233.435,44.669562 233.167794,45.8018139 232.633376,46.7707838 L232.481,47.031 C231.915664,47.9418194 231.51784,48.9224201 231.287519,49.9728257 L231.209,50.37 C230.996999,51.5713393 230.696669,52.7019947 230.308,53.762 C229.919331,54.8220053 229.548335,55.9526607 229.195,57.154 L228.67825,58.8235001 C228.594333,59.0973328 228.511521,59.3689571 228.429813,59.6383736 L228.188,60.44 C227.869998,61.5000053 227.534335,62.5953277 227.181,63.726 C226.827665,64.7153383 226.403669,65.7753277 225.909,66.906 C225.414331,68.0366723 225.202333,69.3439926 225.273,70.828 C226.191671,69.9093287 227.216328,68.6903409 228.347,67.171 C229.195004,66.0314943 230.062874,64.8721266 230.950623,63.6928773 L233.269641,60.6244387 C233.973479,59.6958807 234.664597,58.7864045 235.343,57.896 C236.473672,56.4119926 237.498329,55.2106713 238.417,54.292 C239.12367,54.5746681 239.724331,54.786666 240.219,54.928 C240.454557,55.3048908 240.682259,55.6817778 240.902111,56.058666 L241.226,56.624 C241.544002,57.1893362 241.879665,57.7193309 242.233,58.214 C241.879665,58.7086691 241.420336,59.3093298 240.855,60.016 C240.289664,60.5813362 239.600671,61.3939947 238.788,62.454 C237.975329,63.5140053 237.109671,64.6269942 236.191,65.793 L234.575561,67.8345594 L234.575561,67.8345594 L233.541,69.132 C232.692996,70.1920053 232.021669,70.9693309 231.527,71.464 C231.413933,71.5770672 231.312173,71.6562134 231.22172,71.70144 L231.156,71.729 C231.049999,71.7643335 230.961667,71.852666 230.891,71.994 C230.325664,73.3366734 229.530672,74.5203282 228.506,75.545 C227.481328,76.5696718 226.580337,77.6826607 225.803,78.884 C225.308331,79.4493362 224.796003,79.9969974 224.266,80.527 L222.623,82.17 C220.785657,82.3820011 219.089674,82.2936686 217.535,81.905 C215.980326,81.5163314 214.602339,80.7213393 213.401,79.52 C212.976998,78.5306617 212.729667,77.5413383 212.659,76.552 C212.588333,75.5626617 212.588333,74.5380053 212.659,73.478 C213.012335,70.2979841 213.54233,67.1710154 214.249,64.097 C214.95567,61.0229846 215.768329,57.9313489 216.687,54.822 C217.747005,51.0059809 219.372322,47.0486872 221.563,42.95 C221.916335,42.1019958 222.410997,41.2540042 223.047,40.406 Z M231.209,35.848 C230.078328,35.4946649 229.142004,35.0000032 228.4,34.364 C227.657996,33.7279968 226.898337,32.9860042 226.121,32.138 C226.121,31.7846649 226.085667,31.4313351 226.015,31.078 L225.803,30.018 C226.368336,28.6753266 227.251661,27.5800042 228.453,26.732 C229.725006,27.5093372 231.01466,28.1629973 232.322,28.693 C233.62934,29.2230027 234.777662,30.0886607 235.767,31.29 C235.696333,31.7846691 235.643334,32.2793309 235.608,32.774 C235.572666,33.2686691 235.555,33.6926649 235.555,34.046 C234.989664,34.8233372 234.336004,35.282666 233.594,35.424 C232.851996,35.565334 232.057004,35.706666 231.209,35.848 Z M249.547,71.888 C249.405666,72.8773383 249.317334,73.8666617 249.282,74.856 C249.246666,75.8453383 249.229,76.8699947 249.229,77.93 L249.65551,77.8346624 C250.38225,77.6644767 250.80541,77.5195903 250.925,77.4 C252.550341,76.4813287 254.034327,75.4036729 255.377,74.167 C256.719673,72.9303271 258.026994,71.5700074 259.299,70.086 C261.065675,68.0366564 262.708659,65.9343441 264.228,63.779 C265.747341,61.6236559 267.284326,59.3800117 268.839,57.048 L270.111,55.14 L271.294014,55.4017286 C271.730227,55.5020576 272.095554,55.5914811 272.39,55.67 C272.920003,55.811334 273.379331,55.952666 273.768,56.094 C274.156669,56.235334 274.492332,56.4119989 274.775,56.624 L275.081222,56.8595556 C275.301074,57.032296 275.552332,57.2364433 275.835,57.472 C275.693666,57.8960021 275.481668,58.2846649 275.199,58.638 C274.916332,58.9913351 274.810333,59.4859968 274.881,60.122 C274.951667,60.4753351 274.828002,60.8816644 274.51,61.341 C274.191998,61.8003356 273.891668,62.2066649 273.609,62.56 C270.146316,67.9306935 266.40102,73.0186426 262.373,77.824 C261.595663,78.6013372 260.818337,79.3433298 260.041,80.05 L257.709,82.17 C256.931663,82.6646691 256.295669,83.0179989 255.801,83.23 C253.468988,83.8660032 251.172345,84.2016665 248.911,84.237 C246.649655,84.2723335 244.388345,83.6893393 242.127,82.488 C238.452315,80.5799905 236.26167,77.5766872 235.555,73.478 C235.272332,71.7819915 235.166333,70.103675 235.237,68.443 C235.307667,66.782325 235.484332,65.1393415 235.767,63.514 C236.615004,59.4153128 237.710327,55.4403526 239.053,51.589 C240.395673,47.7376474 242.197655,44.010018 244.459,40.406 C245.801673,38.4273234 247.091327,36.9963377 248.328,36.113 C249.564673,35.2296622 250.818994,34.7703335 252.091,34.735 C253.363006,34.6996665 254.70566,34.9646638 256.119,35.53 C257.53234,36.0953362 259.086992,36.8373287 260.783,37.756 C262.761677,38.7453383 264.227995,40.034992 265.182,41.625 C266.136005,43.215008 266.789665,45.0346564 267.143,47.084 L267.143,48.25 C267.143,48.6740021 267.107667,49.0273319 267.037,49.31 C266.542331,50.9353415 265.99467,52.5253256 265.394,54.08 C264.79333,55.6346744 263.892339,57.0479936 262.691,58.32 C260.873848,60.0765802 259.134596,61.8850557 257.473207,63.7454665 L256.649,64.68 C254.74099,66.8706776 252.727011,68.9553234 250.607,70.934 C250.324332,71.1460011 249.971002,71.4639979 249.547,71.888 Z M250.877467,41.4943282 L250.795234,41.922689 L250.795234,41.922689 L250.58922,43.029723 C250.56859,43.1371653 250.54796,43.2431021 250.52733,43.3475335 C250.85835,43.0130696 251.167681,42.6352393 251.455329,42.2140355 L251.667,41.89 C252.020335,41.3246638 252.444331,40.9360011 252.939,40.724 L253.04712,40.1643199 C253.066907,40.0569069 253.083867,39.9608004 253.098,39.876 C253.133334,39.6639989 253.151,39.4520011 253.151,39.24 L252.983166,38.8807765 C252.718166,38.3311455 252.526778,38.0268892 252.409,37.968 C252.267666,37.897333 251.914336,38.0033319 251.349,38.286 C251.066332,38.6817353 250.828893,39.0887724 250.63668,39.5071192 L250.501,39.823 C250.288999,40.3530026 250.006335,40.8653309 249.653,41.36 C246.755652,44.752017 244.65334,48.5679788 243.346,52.808 C242.03866,57.0480212 240.925671,61.9239724 240.007,67.436 C240.007,67.7186681 240.042333,67.895333 240.113,67.966 C240.607669,67.5419979 240.890333,67.1533351 240.961,66.8 C241.579336,64.6976562 242.102983,62.7035472 242.531953,60.8176276 L242.71,60.016 C243.169336,57.8959894 243.69933,55.8643431 244.3,53.921 C244.90067,51.9776569 245.624996,50.140342 246.473,48.409 C247.321004,46.677658 248.45166,44.9993415 249.865,43.374 C250.100557,43.1384433 250.274769,42.8538159 250.387639,42.5201117 L250.448,42.314 C250.519316,42.0287351 250.630615,41.7914532 250.781899,41.6021516 L250.877467,41.4943282 L250.877467,41.4943282 Z M250.447145,43.533851 L250.183,43.798 C250.041666,43.939334 250.006333,44.1866649 250.077,44.54 C250.159255,44.3343628 250.241509,44.1167597 250.323763,43.8871884 L250.447149,43.533851 L250.447145,43.533851 Z M250.877467,41.4943282 C250.925366,41.4456181 250.976544,41.4008421 251.031,41.36 L250.925,41.254 L250.877467,41.4943282 L250.877467,41.4943282 Z M259.405,48.886 C259.405,47.9673287 259.457999,47.0840042 259.564,46.236 C259.670001,45.3879958 259.475669,44.4693383 258.981,43.48 L258.398,44.063 C258.221332,44.2396675 258.097667,44.4339989 258.027,44.646 L256.914,46.66 L256.914,46.66 C256.525331,47.3666702 256.225001,48.1086628 256.013,48.886 C255.800999,49.5926702 255.518335,50.2286638 255.165,50.794 C254.811665,51.3593362 254.352336,51.8893309 253.787,52.384 C253.716333,53.0200032 253.663334,53.6383303 253.628,54.239 C253.592666,54.8396697 253.575,55.4226638 253.575,55.988 C253.575,56.129334 253.751665,56.3059989 254.105,56.518 C255.165005,55.4579947 256.154329,54.3273393 257.073,53.126 C257.991671,51.9246607 258.768997,50.5113415 259.405,48.886 Z M251.058951,41.1783938 L251.1097,40.9916673 C251.162699,40.8146477 251.242465,40.5840924 251.349,40.3 C251.419667,40.6533351 251.402001,40.8829995 251.296,40.989 C251.224926,41.0600742 251.14591,41.1232052 251.058951,41.1783938 Z M251.058951,41.1783938 C251.016219,41.2055137 250.971568,41.2307158 250.925,41.254 L251.031,41.36 C251.031,41.3320655 251.035141,41.2958495 251.043423,41.2513517 L251.058951,41.1783938 L251.058951,41.1783938 Z M275.729,38.18 C276.082335,38.18 276.364999,38.144667 276.577,38.074 C276.789001,38.003333 277.071665,38.0386664 277.425,38.18 C278.543894,38.7100026 279.675043,39.1663883 280.81847,39.5491662 L281.506,39.77 C282.884007,40.1940021 284.173661,40.7946628 285.375,41.572 C286.152337,42.4200042 286.329002,43.3033287 285.905,44.222 C285.622332,45.2113383 285.322002,46.2183282 285.004,47.243 C284.685998,48.2676718 284.17367,49.2039958 283.467,50.052 C283.531243,50.8229129 283.347278,51.579215 282.9151,52.3209248 L282.778,52.543 C282.247997,53.3556707 282.053666,54.2213287 282.195,55.14 C282.760336,55.14 283.131332,54.9986681 283.308,54.716 C283.484668,54.4333319 283.678999,54.1506681 283.891,53.868 C284.244335,53.5853319 284.562332,53.2850016 284.845,52.967 C285.127668,52.6489984 285.445665,52.3133351 285.799,51.96 C286.223002,51.3946638 286.752997,50.9000021 287.389,50.476 C287.601001,50.2639989 287.830665,50.0166681 288.078,49.734 C288.263501,49.5219989 288.478812,49.3100003 288.723937,49.0980004 L288.979,48.886 C289.261668,48.6598655 289.499107,48.4337338 289.69132,48.2076004 L289.827,48.038 C290.039001,47.7553319 290.356998,47.4373351 290.781,47.084 C290.993001,46.7306649 291.222665,46.4656676 291.47,46.289 L291.79224,46.05156 C291.908133,45.9639336 292.032506,45.8678272 292.165359,45.7632405 L292.76956,45.2777597 C292.893933,45.1759999 293.009826,45.0798936 293.11724,44.9894403 L293.272,44.858 C293.519335,44.6459989 293.784332,44.4340011 294.067,44.222 C294.332001,44.0099989 294.567187,43.7980003 294.772562,43.5860004 L294.968,43.374 C295.215335,43.0913319 295.480332,42.879334 295.763,42.738 C296.045668,42.4553319 296.339639,42.2065869 296.644919,41.9917603 L296.876,41.837 C297.264669,41.5896654 297.564999,41.3600011 297.777,41.148 C298.130335,40.8653319 298.465998,40.6180011 298.784,40.406 C299.102002,40.1939989 299.437665,39.9820011 299.791,39.77 C300.881291,40.3757173 302.023486,40.9035501 303.21761,41.3535096 L303.819,41.572 C305.23234,42.0666691 306.539661,42.6319968 307.741,43.268 C308.518337,44.1160042 308.871667,44.9463293 308.801,45.759 C308.730333,46.5716707 308.836332,47.3666628 309.119,48.144 C308.694998,49.4160064 308.251126,50.678061 307.787376,51.9301852 L307.317,53.179 C306.680997,54.839675 306.080336,56.5886575 305.515,58.426 C305.393857,58.9105739 305.194838,59.4470593 304.917939,60.0354684 L304.773,60.334 C304.419665,61.0406702 304.137001,61.7296633 303.925,62.401 C303.712999,63.0723367 303.607,63.6199979 303.607,64.044 C303.607,64.4680021 303.889664,64.644667 304.455,64.574 C304.720001,64.5077497 305.373179,64.0688477 306.41455,63.257282 L306.628,63.09 C307.794006,62.1713287 309.03066,61.1290058 310.338,59.963 C311.64534,58.7969942 312.881994,57.6486723 314.048,56.518 C315.214006,55.3873277 315.938332,54.5746691 316.221,54.08 C316.409445,54.2056303 316.765393,54.3452175 317.288851,54.4987652 L317.998621,54.7016903 C318.339941,54.803097 318.560066,54.8785331 318.659,54.928 C318.871001,55.4226691 318.959334,55.8466649 318.924,56.2 C318.888666,56.5533351 318.800334,56.9066649 318.659,57.26 L318.249721,57.7738068 C317.53324,58.6620477 316.645005,59.7097717 315.585,60.917 C314.312994,62.3656739 312.917341,63.7789931 311.398,65.157 C309.878659,66.5350069 308.359341,67.7716612 306.84,68.867 C305.320659,69.9623388 303.960339,70.6513319 302.759,70.934 C301.910996,70.863333 301.18667,70.757334 300.586,70.616 C299.98533,70.474666 299.38467,70.2626681 298.784,69.98 C298.18333,69.6973319 297.52967,69.3440021 296.823,68.92 C296.11633,68.4959979 295.303671,67.9660032 294.385,67.33 C293.819664,65.3513234 293.660665,63.3726766 293.908,61.394 C294.155335,59.4153234 294.455665,57.5073425 294.809,55.67 C294.526332,55.4579989 294.296668,55.352 294.12,55.352 C293.987499,55.352 293.855,55.3718748 293.7225,55.4116249 L293.59,55.458 C293.413332,55.528667 293.254334,55.564 293.113,55.564 C292.971666,55.564 292.830334,55.493334 292.689,55.352 C292.264998,56.5533393 291.75267,57.5426628 291.152,58.32 C290.751554,58.8382248 290.343259,59.3564444 289.927112,59.8746658 L289.297,60.652 C287.318323,63.0546787 285.410343,65.5103208 283.573,68.019 C281.735657,70.5276792 280.039674,73.1599862 278.485,75.916 C277.990331,76.4106691 277.601668,76.9406638 277.319,77.506 C277.092866,77.6190672 276.855427,77.6982134 276.60668,77.74344 L276.418,77.771 C276.099998,77.8063335 275.729002,77.894666 275.305,78.036 C275.163666,78.177334 274.987001,78.5659968 274.775,79.202 C274.916334,79.5553351 275.039999,79.9086649 275.146,80.262 C275.252001,80.6153351 275.375666,81.0039979 275.517,81.428 C274.951664,81.569334 274.421669,81.6929995 273.927,81.799 C273.432331,81.9050005 272.937669,81.887334 272.443,81.746 C271.02966,81.4633319 269.757672,80.9156707 268.627,80.103 C267.496328,79.2903293 266.648336,78.0713415 266.083,76.446 C265.729666,75.1739936 265.641332,73.8136739 265.818,72.365 C265.994668,70.9163261 266.153666,69.4853404 266.295,68.072 C266.648335,66.0226564 267.001665,64.026343 267.355,62.083 C267.620001,60.6254927 267.904874,59.1580644 268.209624,57.6806903 L268.521,56.2 C269.015669,53.7973213 269.598663,51.4300117 270.27,49.098 C270.941337,46.7659883 271.806995,44.5400106 272.867,42.42 C273.220335,41.6426628 273.608998,40.9183367 274.033,40.247 C274.457002,39.5756633 275.02233,38.8866702 275.729,38.18 Z" id="path-2"></path>
    </defs>
    <g id="Page-1" stroke="none" stroke-width="1" fill="none" fill-rule="evenodd">
        <g id="Happier" fill-rule="nonzero">
            <use fill="#000000" xlink:href="#path-2"></use>
            <use fill="url(#linearGradient-1)" xlink:href="#path-2"></use>
        </g>
    </g>
</svg>