<?xml version="1.0" encoding="UTF-8"?>
<svg width="293px" height="204px" viewBox="0 0 293 204" version="1.1" xmlns="http://www.w3.org/2000/svg" xmlns:xlink="http://www.w3.org/1999/xlink">
    <!-- Generator: Sketch 58 (84663) - https://sketch.com -->
    <title>Group 45</title>
    <desc>Created with Sketch.</desc>
    <g id="Design" stroke="none" stroke-width="1" fill="none" fill-rule="evenodd" opacity="0.118210565">
        <g id="Desktop-HD-Copy-5" transform="translate(0.000000, -4241.000000)">
            <g id="Group-45" transform="translate(-54.000000, 4242.000000)">
                <g id="Group-34-Copy-7">
                    <g id="Group-36" transform="translate(77.250000, 1.250000)" fill="#FFFFFF" fill-rule="nonzero">
                        <g id="Group-26">
                            <path d="M17.496,0.648 C16.776,1.08 16.008,1.416 15.144,1.56 C14.472,0.84 13.512,0.36 12.456,0.36 C10.44,0.36 8.76,2.04 8.76,4.152 C8.76,4.44 8.808,4.728 8.856,5.016 C5.784,4.872 3.096,3.336 1.272,1.08 C0.936,1.656 0.792,2.28 0.792,3 C0.792,4.296 1.464,5.448 2.424,6.168 C1.8,6.168 1.272,5.976 0.744,5.688 L0.744,5.736 C0.744,7.56 1.992,9.096 3.72,9.432 C3.432,9.528 3.096,9.576 2.76,9.576 C2.52,9.576 2.28,9.576 2.088,9.528 C2.568,11.016 3.912,12.12 5.544,12.168 C4.296,13.176 2.712,13.8 0.984,13.8 C0.696,13.8 0.408,13.8 0.12,13.752 C1.752,14.808 3.672,15.432 5.784,15.432 C12.552,15.432 16.296,9.672 16.296,4.68 C16.296,4.536 16.296,4.344 16.296,4.2 C17.016,3.672 17.64,3 18.12,2.232 C17.448,2.52 16.728,2.76 16.008,2.808 C16.632,2.28 17.208,1.56 17.496,0.648 Z" id="Twitter"></path>
                        </g>
                        <g id="Group-24" transform="translate(0.000000, 42.000000)">
                            <g id="LinkedIn" transform="translate(0.120000, 0.480000)">
                                <rect id="Rectangle" x="0.624" y="5.184" width="3.456" height="10.944"></rect>
                                <path d="M13.488,5.088 C11.52,5.088 10.272,6.144 10.032,6.912 L10.032,5.184 L6.144,5.184 C6.192,6.096 6.144,16.128 6.144,16.128 L10.032,16.128 L10.032,10.224 C10.032,9.888 10.032,9.552 10.128,9.312 C10.416,8.64 10.944,7.968 12,7.968 C13.344,7.968 13.968,8.976 13.968,10.464 L13.968,16.128 L17.904,16.128 L17.904,10.032 C17.856,6.672 15.936,5.088 13.488,5.088 Z" id="Path"></path>
                                <path d="M2.256,0.048 C0.96,0.048 0.144,0.864 0.144,1.968 C0.144,3.024 0.96,3.84 2.208,3.84 L2.256,3.84 C3.552,3.84 4.368,3.024 4.368,1.92 C4.32,0.864 3.552,0.048 2.256,0.048 Z" id="Path"></path>
                            </g>
                        </g>
                    </g>
                    <path d="M55.5,0 L55.5,61" id="Line-4" stroke="#FFFFFF" stroke-width="0.5" opacity="0.118326823" stroke-linecap="square"></path>
                    <path d="M116,30.5 L0,30.5" id="Line-4" stroke="#FFFFFF" stroke-width="0.5" opacity="0.118326823" stroke-linecap="square"></path>
                </g>
                <g id="Group-38" transform="translate(0.000000, 54.000000)">
                    <g id="Group-34" transform="translate(0.000000, 41.000000)">
                        <g id="Group-36" transform="translate(77.250000, 1.250000)" fill="#FFFFFF" fill-rule="nonzero">
                            <g id="Group-26">
                                <path d="M17.496,0.648 C16.776,1.08 16.008,1.416 15.144,1.56 C14.472,0.84 13.512,0.36 12.456,0.36 C10.44,0.36 8.76,2.04 8.76,4.152 C8.76,4.44 8.808,4.728 8.856,5.016 C5.784,4.872 3.096,3.336 1.272,1.08 C0.936,1.656 0.792,2.28 0.792,3 C0.792,4.296 1.464,5.448 2.424,6.168 C1.8,6.168 1.272,5.976 0.744,5.688 L0.744,5.736 C0.744,7.56 1.992,9.096 3.72,9.432 C3.432,9.528 3.096,9.576 2.76,9.576 C2.52,9.576 2.28,9.576 2.088,9.528 C2.568,11.016 3.912,12.12 5.544,12.168 C4.296,13.176 2.712,13.8 0.984,13.8 C0.696,13.8 0.408,13.8 0.12,13.752 C1.752,14.808 3.672,15.432 5.784,15.432 C12.552,15.432 16.296,9.672 16.296,4.68 C16.296,4.536 16.296,4.344 16.296,4.2 C17.016,3.672 17.64,3 18.12,2.232 C17.448,2.52 16.728,2.76 16.008,2.808 C16.632,2.28 17.208,1.56 17.496,0.648 Z" id="Twitter"></path>
                            </g>
                            <g id="Group-24" transform="translate(0.000000, 42.000000)">
                                <g id="LinkedIn" transform="translate(0.120000, 0.480000)">
                                    <rect id="Rectangle" x="0.624" y="5.184" width="3.456" height="10.944"></rect>
                                    <path d="M13.488,5.088 C11.52,5.088 10.272,6.144 10.032,6.912 L10.032,5.184 L6.144,5.184 C6.192,6.096 6.144,16.128 6.144,16.128 L10.032,16.128 L10.032,10.224 C10.032,9.888 10.032,9.552 10.128,9.312 C10.416,8.64 10.944,7.968 12,7.968 C13.344,7.968 13.968,8.976 13.968,10.464 L13.968,16.128 L17.904,16.128 L17.904,10.032 C17.856,6.672 15.936,5.088 13.488,5.088 Z" id="Path"></path>
                                    <path d="M2.256,0.048 C0.96,0.048 0.144,0.864 0.144,1.968 C0.144,3.024 0.96,3.84 2.208,3.84 L2.256,3.84 C3.552,3.84 4.368,3.024 4.368,1.92 C4.32,0.864 3.552,0.048 2.256,0.048 Z" id="Path"></path>
                                </g>
                            </g>
                        </g>
                        <path d="M55.5,0 L55.5,61" id="Line-4" stroke="#FFFFFF" stroke-width="0.5" opacity="0.118326823" stroke-linecap="square"></path>
                        <path d="M116,30.5 L0,30.5" id="Line-4" stroke="#FFFFFF" stroke-width="0.5" opacity="0.118326823" stroke-linecap="square"></path>
                    </g>
                    <g id="Group-34" transform="translate(110.000000, 0.000000)">
                        <g id="Group-35" transform="translate(15.750000, 0.750000)" fill="#FFFFFF">
                            <g id="Group-27">
                                <g id="Instagram/Color">
                                    <g id="Instagram-/-Color-Copy-5">
                                        <path d="M9.16513798,0.000202306748 C11.0375747,0.00179680914 11.3544369,0.0133097989 12.202261,0.0519935456 C13.1218882,0.0939382067 13.7499606,0.240007145 14.2995283,0.453605959 C14.8676847,0.674372749 15.3495167,0.969803093 15.8298739,1.45012605 C16.3101969,1.93048331 16.6056273,2.41231531 16.8264283,2.9804717 C17.0399929,3.53003936 17.1860618,4.15811179 17.2280065,5.07773905 C17.2650083,5.88870117 17.2771507,6.21386831 17.279532,7.8793048 L17.279532,9.40071857 C17.2771507,11.0661317 17.2650083,11.3912988 17.2280065,12.202261 C17.1860618,13.1218882 17.0399929,13.7499606 16.8264283,14.2995283 C16.6056273,14.8676847 16.3101969,15.3495167 15.8298739,15.8298739 C15.3495167,16.3101969 14.8676847,16.6056273 14.2995283,16.8264283 C13.7499606,17.0399929 13.1218882,17.1860618 12.202261,17.2280065 C11.3912988,17.2650083 11.0661317,17.2771507 9.40071857,17.279532 L7.8793048,17.279532 C6.21386831,17.2771507 5.88870117,17.2650083 5.07773905,17.2280065 C4.15811179,17.1860618 3.53003936,17.0399929 2.9804717,16.8264283 C2.41231531,16.6056273 1.93048331,16.3101969 1.45012605,15.8298739 C0.969803093,15.3495167 0.674372749,14.8676847 0.453605959,14.2995283 C0.240007145,13.7499606 0.0939382067,13.1218882 0.0519935456,12.202261 C0.0133097989,11.3544369 0.00179680914,11.0375747 0.000202306749,9.16513798 L0.000202306749,8.11488873 C0.00179680914,6.24242525 0.0133097989,5.92556309 0.0519935456,5.07773905 C0.0939382067,4.15811179 0.240007145,3.53003936 0.453605959,2.9804717 C0.674372749,2.41231531 0.969803093,1.93048331 1.45012605,1.45012605 C1.93048331,0.969803093 2.41231531,0.674372749 2.9804717,0.453605959 C3.53003936,0.240007145 4.15811179,0.0939382067 5.07773905,0.0519935456 C5.88317189,0.0152439863 6.20941163,0.00301603501 7.84542539,0.000518027296 L8.11488873,0.000202306748 L9.16513798,0.000202306748 Z M9.38728268,1.55717612 L7.8927407,1.55717612 C6.25825653,1.55934103 5.95042533,1.57055627 5.14869858,1.60713558 C4.30630711,1.6455477 3.84882564,1.78630068 3.54437531,1.90462372 C3.14108237,2.06135888 2.85326585,2.24858366 2.5509419,2.5509419 C2.24858366,2.85326585 2.06135888,3.14108237 1.90462372,3.54437531 C1.78630068,3.84882564 1.6455477,4.30630711 1.60713558,5.14869858 C1.57055627,5.95042533 1.55934103,6.25825653 1.55717612,7.8927407 L1.55717612,9.38728268 C1.55934103,11.0217435 1.57055627,11.3295747 1.60713558,12.1313014 C1.6455477,12.9736929 1.78630068,13.4311744 1.90462372,13.7356247 C2.06135888,14.1389176 2.24861796,14.4267341 2.5509419,14.7290581 C2.85326585,15.0314163 3.14108237,15.2186411 3.54437531,15.3753763 C3.84882564,15.4936993 4.30630711,15.6344523 5.14869858,15.6728644 C5.91389678,15.707781 6.22910278,15.719587 7.67784385,15.722471 L9.60217869,15.722471 C11.0509064,15.719587 11.366132,15.707781 12.1313014,15.6728644 C12.9736929,15.6344523 13.4311744,15.4936993 13.7356247,15.3753763 C14.1389176,15.2186411 14.4267341,15.0314163 14.7290581,14.7290581 C15.0314163,14.4267341 15.2186411,14.1389176 15.3753763,13.7356247 C15.4936993,13.4311744 15.6344523,12.9736929 15.6728644,12.1313014 C15.707781,11.3660168 15.719587,11.0507486 15.722471,9.60211176 L15.722471,7.67790857 C15.719587,6.22925143 15.707781,5.91398321 15.6728644,5.14869858 C15.6344523,4.30630711 15.4936993,3.84882564 15.3753763,3.54437531 C15.2186411,3.14108237 15.0314163,2.85326585 14.7290581,2.5509419 C14.4267341,2.24858366 14.1389176,2.06135888 13.7356247,1.90462372 C13.4311744,1.78630068 12.9736929,1.6455477 12.1313014,1.60713558 C11.3295747,1.57055627 11.0217435,1.55934103 9.38728268,1.55717612 Z M8.64001715,4.20324602 C11.0903673,4.20324602 13.076754,6.18963268 13.076754,8.64001715 C13.076754,11.0903673 11.0903673,13.076754 8.64001715,13.076754 C6.18963268,13.076754 4.20324602,11.0903673 4.20324602,8.64001715 C4.20324602,6.18963268 6.18963268,4.20324602 8.64001715,4.20324602 Z M8.64001715,5.76 C7.04941249,5.76 5.76,7.04941249 5.76,8.64001715 C5.76,10.2305875 7.04941249,11.52 8.64001715,11.52 C10.2305875,11.52 11.52,10.2305875 11.52,8.64001715 C11.52,7.04941249 10.2305875,5.76 8.64001715,5.76 Z M13.2520436,2.99113792 C13.8246585,2.99113792 14.2888621,3.45534151 14.2888621,4.02795644 C14.2888621,4.60057137 13.8246585,5.06474066 13.2520436,5.06474066 C12.6794629,5.06474066 12.2152593,4.60057137 12.2152593,4.02795644 C12.2152593,3.45534151 12.6794629,2.99113792 13.2520436,2.99113792 Z"></path>
                                    </g>
                                </g>
                            </g>
                            <g id="Group-25" transform="translate(0.000000, 42.500000)" fill-rule="nonzero">
                                <path d="M17.664,16.608 C17.664,17.136 17.232,17.568 16.704,17.568 L12.192,17.568 L12.192,10.752 L14.496,10.752 L14.832,8.112 L12.192,8.112 L12.192,6.432 C12.192,5.664 12.384,5.136 13.488,5.136 L14.88,5.136 L14.88,2.736 C14.64,2.688 13.824,2.64 12.816,2.64 C10.8,2.64 9.408,3.888 9.408,6.144 L9.408,8.112 L7.104,8.112 L7.104,10.752 L9.408,10.752 L9.408,17.568 L0.96,17.568 C0.432,17.568 5.68434189e-14,17.136 5.68434189e-14,16.608 L5.68434189e-14,0.96 C5.68434189e-14,0.432 0.432,0 0.96,0 L16.656,0 C17.184,0 17.616,0.432 17.616,0.96 L17.616,16.608 L17.664,16.608 Z" id="Facebook"></path>
                            </g>
                        </g>
                        <g id="Group-36" transform="translate(77.250000, 1.250000)" fill="#FFFFFF" fill-rule="nonzero">
                            <g id="Group-26">
                                <path d="M17.496,0.648 C16.776,1.08 16.008,1.416 15.144,1.56 C14.472,0.84 13.512,0.36 12.456,0.36 C10.44,0.36 8.76,2.04 8.76,4.152 C8.76,4.44 8.808,4.728 8.856,5.016 C5.784,4.872 3.096,3.336 1.272,1.08 C0.936,1.656 0.792,2.28 0.792,3 C0.792,4.296 1.464,5.448 2.424,6.168 C1.8,6.168 1.272,5.976 0.744,5.688 L0.744,5.736 C0.744,7.56 1.992,9.096 3.72,9.432 C3.432,9.528 3.096,9.576 2.76,9.576 C2.52,9.576 2.28,9.576 2.088,9.528 C2.568,11.016 3.912,12.12 5.544,12.168 C4.296,13.176 2.712,13.8 0.984,13.8 C0.696,13.8 0.408,13.8 0.12,13.752 C1.752,14.808 3.672,15.432 5.784,15.432 C12.552,15.432 16.296,9.672 16.296,4.68 C16.296,4.536 16.296,4.344 16.296,4.2 C17.016,3.672 17.64,3 18.12,2.232 C17.448,2.52 16.728,2.76 16.008,2.808 C16.632,2.28 17.208,1.56 17.496,0.648 Z" id="Twitter"></path>
                            </g>
                            <g id="Group-24" transform="translate(0.000000, 42.000000)">
                                <g id="LinkedIn" transform="translate(0.120000, 0.480000)">
                                    <rect id="Rectangle" x="0.624" y="5.184" width="3.456" height="10.944"></rect>
                                    <path d="M13.488,5.088 C11.52,5.088 10.272,6.144 10.032,6.912 L10.032,5.184 L6.144,5.184 C6.192,6.096 6.144,16.128 6.144,16.128 L10.032,16.128 L10.032,10.224 C10.032,9.888 10.032,9.552 10.128,9.312 C10.416,8.64 10.944,7.968 12,7.968 C13.344,7.968 13.968,8.976 13.968,10.464 L13.968,16.128 L17.904,16.128 L17.904,10.032 C17.856,6.672 15.936,5.088 13.488,5.088 Z" id="Path"></path>
                                    <path d="M2.256,0.048 C0.96,0.048 0.144,0.864 0.144,1.968 C0.144,3.024 0.96,3.84 2.208,3.84 L2.256,3.84 C3.552,3.84 4.368,3.024 4.368,1.92 C4.32,0.864 3.552,0.048 2.256,0.048 Z" id="Path"></path>
                                </g>
                            </g>
                        </g>
                        <path d="M55.5,0 L55.5,61" id="Line-4" stroke="#FFFFFF" stroke-width="0.5" opacity="0.118326823" stroke-linecap="square"></path>
                        <path d="M116,30.5 L0,30.5" id="Line-4" stroke="#FFFFFF" stroke-width="0.5" opacity="0.118326823" stroke-linecap="square"></path>
                    </g>
                    <g id="Group-34" transform="translate(111.000000, 87.000000)">
                        <g id="Group-35" transform="translate(15.750000, 0.750000)" fill="#FFFFFF">
                            <g id="Group-27">
                                <g id="Instagram/Color">
                                    <g id="Instagram-/-Color-Copy-14">
                                        <path d="M9.16513798,0.000202306748 C11.0375747,0.00179680914 11.3544369,0.0133097989 12.202261,0.0519935456 C13.1218882,0.0939382067 13.7499606,0.240007145 14.2995283,0.453605959 C14.8676847,0.674372749 15.3495167,0.969803093 15.8298739,1.45012605 C16.3101969,1.93048331 16.6056273,2.41231531 16.8264283,2.9804717 C17.0399929,3.53003936 17.1860618,4.15811179 17.2280065,5.07773905 C17.2650083,5.88870117 17.2771507,6.21386831 17.279532,7.8793048 L17.279532,9.40071857 C17.2771507,11.0661317 17.2650083,11.3912988 17.2280065,12.202261 C17.1860618,13.1218882 17.0399929,13.7499606 16.8264283,14.2995283 C16.6056273,14.8676847 16.3101969,15.3495167 15.8298739,15.8298739 C15.3495167,16.3101969 14.8676847,16.6056273 14.2995283,16.8264283 C13.7499606,17.0399929 13.1218882,17.1860618 12.202261,17.2280065 C11.3912988,17.2650083 11.0661317,17.2771507 9.40071857,17.279532 L7.8793048,17.279532 C6.21386831,17.2771507 5.88870117,17.2650083 5.07773905,17.2280065 C4.15811179,17.1860618 3.53003936,17.0399929 2.9804717,16.8264283 C2.41231531,16.6056273 1.93048331,16.3101969 1.45012605,15.8298739 C0.969803093,15.3495167 0.674372749,14.8676847 0.453605959,14.2995283 C0.240007145,13.7499606 0.0939382067,13.1218882 0.0519935456,12.202261 C0.0133097989,11.3544369 0.00179680914,11.0375747 0.000202306749,9.16513798 L0.000202306749,8.11488873 C0.00179680914,6.24242525 0.0133097989,5.92556309 0.0519935456,5.07773905 C0.0939382067,4.15811179 0.240007145,3.53003936 0.453605959,2.9804717 C0.674372749,2.41231531 0.969803093,1.93048331 1.45012605,1.45012605 C1.93048331,0.969803093 2.41231531,0.674372749 2.9804717,0.453605959 C3.53003936,0.240007145 4.15811179,0.0939382067 5.07773905,0.0519935456 C5.88317189,0.0152439863 6.20941163,0.00301603501 7.84542539,0.000518027296 L8.11488873,0.000202306748 L9.16513798,0.000202306748 Z M9.38728268,1.55717612 L7.8927407,1.55717612 C6.25825653,1.55934103 5.95042533,1.57055627 5.14869858,1.60713558 C4.30630711,1.6455477 3.84882564,1.78630068 3.54437531,1.90462372 C3.14108237,2.06135888 2.85326585,2.24858366 2.5509419,2.5509419 C2.24858366,2.85326585 2.06135888,3.14108237 1.90462372,3.54437531 C1.78630068,3.84882564 1.6455477,4.30630711 1.60713558,5.14869858 C1.57055627,5.95042533 1.55934103,6.25825653 1.55717612,7.8927407 L1.55717612,9.38728268 C1.55934103,11.0217435 1.57055627,11.3295747 1.60713558,12.1313014 C1.6455477,12.9736929 1.78630068,13.4311744 1.90462372,13.7356247 C2.06135888,14.1389176 2.24861796,14.4267341 2.5509419,14.7290581 C2.85326585,15.0314163 3.14108237,15.2186411 3.54437531,15.3753763 C3.84882564,15.4936993 4.30630711,15.6344523 5.14869858,15.6728644 C5.91389678,15.707781 6.22910278,15.719587 7.67784385,15.722471 L9.60217869,15.722471 C11.0509064,15.719587 11.366132,15.707781 12.1313014,15.6728644 C12.9736929,15.6344523 13.4311744,15.4936993 13.7356247,15.3753763 C14.1389176,15.2186411 14.4267341,15.0314163 14.7290581,14.7290581 C15.0314163,14.4267341 15.2186411,14.1389176 15.3753763,13.7356247 C15.4936993,13.4311744 15.6344523,12.9736929 15.6728644,12.1313014 C15.707781,11.3660168 15.719587,11.0507486 15.722471,9.60211176 L15.722471,7.67790857 C15.719587,6.22925143 15.707781,5.91398321 15.6728644,5.14869858 C15.6344523,4.30630711 15.4936993,3.84882564 15.3753763,3.54437531 C15.2186411,3.14108237 15.0314163,2.85326585 14.7290581,2.5509419 C14.4267341,2.24858366 14.1389176,2.06135888 13.7356247,1.90462372 C13.4311744,1.78630068 12.9736929,1.6455477 12.1313014,1.60713558 C11.3295747,1.57055627 11.0217435,1.55934103 9.38728268,1.55717612 Z M8.64001715,4.20324602 C11.0903673,4.20324602 13.076754,6.18963268 13.076754,8.64001715 C13.076754,11.0903673 11.0903673,13.076754 8.64001715,13.076754 C6.18963268,13.076754 4.20324602,11.0903673 4.20324602,8.64001715 C4.20324602,6.18963268 6.18963268,4.20324602 8.64001715,4.20324602 Z M8.64001715,5.76 C7.04941249,5.76 5.76,7.04941249 5.76,8.64001715 C5.76,10.2305875 7.04941249,11.52 8.64001715,11.52 C10.2305875,11.52 11.52,10.2305875 11.52,8.64001715 C11.52,7.04941249 10.2305875,5.76 8.64001715,5.76 Z M13.2520436,2.99113792 C13.8246585,2.99113792 14.2888621,3.45534151 14.2888621,4.02795644 C14.2888621,4.60057137 13.8246585,5.06474066 13.2520436,5.06474066 C12.6794629,5.06474066 12.2152593,4.60057137 12.2152593,4.02795644 C12.2152593,3.45534151 12.6794629,2.99113792 13.2520436,2.99113792 Z"></path>
                                    </g>
                                </g>
                            </g>
                            <g id="Group-25" transform="translate(0.000000, 42.500000)" fill-rule="nonzero">
                                <path d="M17.664,16.608 C17.664,17.136 17.232,17.568 16.704,17.568 L12.192,17.568 L12.192,10.752 L14.496,10.752 L14.832,8.112 L12.192,8.112 L12.192,6.432 C12.192,5.664 12.384,5.136 13.488,5.136 L14.88,5.136 L14.88,2.736 C14.64,2.688 13.824,2.64 12.816,2.64 C10.8,2.64 9.408,3.888 9.408,6.144 L9.408,8.112 L7.104,8.112 L7.104,10.752 L9.408,10.752 L9.408,17.568 L0.96,17.568 C0.432,17.568 5.68434189e-14,17.136 5.68434189e-14,16.608 L5.68434189e-14,0.96 C5.68434189e-14,0.432 0.432,0 0.96,0 L16.656,0 C17.184,0 17.616,0.432 17.616,0.96 L17.616,16.608 L17.664,16.608 Z" id="Facebook"></path>
                            </g>
                        </g>
                        <g id="Group-36" transform="translate(77.250000, 1.250000)" fill="#FFFFFF" fill-rule="nonzero">
                            <g id="Group-26">
                                <path d="M17.496,0.648 C16.776,1.08 16.008,1.416 15.144,1.56 C14.472,0.84 13.512,0.36 12.456,0.36 C10.44,0.36 8.76,2.04 8.76,4.152 C8.76,4.44 8.808,4.728 8.856,5.016 C5.784,4.872 3.096,3.336 1.272,1.08 C0.936,1.656 0.792,2.28 0.792,3 C0.792,4.296 1.464,5.448 2.424,6.168 C1.8,6.168 1.272,5.976 0.744,5.688 L0.744,5.736 C0.744,7.56 1.992,9.096 3.72,9.432 C3.432,9.528 3.096,9.576 2.76,9.576 C2.52,9.576 2.28,9.576 2.088,9.528 C2.568,11.016 3.912,12.12 5.544,12.168 C4.296,13.176 2.712,13.8 0.984,13.8 C0.696,13.8 0.408,13.8 0.12,13.752 C1.752,14.808 3.672,15.432 5.784,15.432 C12.552,15.432 16.296,9.672 16.296,4.68 C16.296,4.536 16.296,4.344 16.296,4.2 C17.016,3.672 17.64,3 18.12,2.232 C17.448,2.52 16.728,2.76 16.008,2.808 C16.632,2.28 17.208,1.56 17.496,0.648 Z" id="Twitter"></path>
                            </g>
                            <g id="Group-24" transform="translate(0.000000, 42.000000)">
                                <g id="LinkedIn" transform="translate(0.120000, 0.480000)">
                                    <rect id="Rectangle" x="0.624" y="5.184" width="3.456" height="10.944"></rect>
                                    <path d="M13.488,5.088 C11.52,5.088 10.272,6.144 10.032,6.912 L10.032,5.184 L6.144,5.184 C6.192,6.096 6.144,16.128 6.144,16.128 L10.032,16.128 L10.032,10.224 C10.032,9.888 10.032,9.552 10.128,9.312 C10.416,8.64 10.944,7.968 12,7.968 C13.344,7.968 13.968,8.976 13.968,10.464 L13.968,16.128 L17.904,16.128 L17.904,10.032 C17.856,6.672 15.936,5.088 13.488,5.088 Z" id="Path"></path>
                                    <path d="M2.256,0.048 C0.96,0.048 0.144,0.864 0.144,1.968 C0.144,3.024 0.96,3.84 2.208,3.84 L2.256,3.84 C3.552,3.84 4.368,3.024 4.368,1.92 C4.32,0.864 3.552,0.048 2.256,0.048 Z" id="Path"></path>
                                </g>
                            </g>
                        </g>
                        <path d="M55.5,0 L55.5,61" id="Line-4" stroke="#FFFFFF" stroke-width="0.5" opacity="0.118326823" stroke-linecap="square"></path>
                        <path d="M116,30.5 L0,30.5" id="Line-4" stroke="#FFFFFF" stroke-width="0.5" opacity="0.118326823" stroke-linecap="square"></path>
                    </g>
                </g>
                <g id="Group-34-Copy-9" transform="translate(230.000000, 3.000000)">
                    <g id="Group-35" transform="translate(15.750000, 0.750000)" fill="#FFFFFF">
                        <g id="Group-27">
                            <g id="Instagram/Color">
                                <g id="Instagram-/-Color-Copy-6">
                                    <path d="M9.16513798,0.000202306748 C11.0375747,0.00179680914 11.3544369,0.0133097989 12.202261,0.0519935456 C13.1218882,0.0939382067 13.7499606,0.240007145 14.2995283,0.453605959 C14.8676847,0.674372749 15.3495167,0.969803093 15.8298739,1.45012605 C16.3101969,1.93048331 16.6056273,2.41231531 16.8264283,2.9804717 C17.0399929,3.53003936 17.1860618,4.15811179 17.2280065,5.07773905 C17.2650083,5.88870117 17.2771507,6.21386831 17.279532,7.8793048 L17.279532,9.40071857 C17.2771507,11.0661317 17.2650083,11.3912988 17.2280065,12.202261 C17.1860618,13.1218882 17.0399929,13.7499606 16.8264283,14.2995283 C16.6056273,14.8676847 16.3101969,15.3495167 15.8298739,15.8298739 C15.3495167,16.3101969 14.8676847,16.6056273 14.2995283,16.8264283 C13.7499606,17.0399929 13.1218882,17.1860618 12.202261,17.2280065 C11.3912988,17.2650083 11.0661317,17.2771507 9.40071857,17.279532 L7.8793048,17.279532 C6.21386831,17.2771507 5.88870117,17.2650083 5.07773905,17.2280065 C4.15811179,17.1860618 3.53003936,17.0399929 2.9804717,16.8264283 C2.41231531,16.6056273 1.93048331,16.3101969 1.45012605,15.8298739 C0.969803093,15.3495167 0.674372749,14.8676847 0.453605959,14.2995283 C0.240007145,13.7499606 0.0939382067,13.1218882 0.0519935456,12.202261 C0.0133097989,11.3544369 0.00179680914,11.0375747 0.000202306749,9.16513798 L0.000202306749,8.11488873 C0.00179680914,6.24242525 0.0133097989,5.92556309 0.0519935456,5.07773905 C0.0939382067,4.15811179 0.240007145,3.53003936 0.453605959,2.9804717 C0.674372749,2.41231531 0.969803093,1.93048331 1.45012605,1.45012605 C1.93048331,0.969803093 2.41231531,0.674372749 2.9804717,0.453605959 C3.53003936,0.240007145 4.15811179,0.0939382067 5.07773905,0.0519935456 C5.88317189,0.0152439863 6.20941163,0.00301603501 7.84542539,0.000518027296 L8.11488873,0.000202306748 L9.16513798,0.000202306748 Z M9.38728268,1.55717612 L7.8927407,1.55717612 C6.25825653,1.55934103 5.95042533,1.57055627 5.14869858,1.60713558 C4.30630711,1.6455477 3.84882564,1.78630068 3.54437531,1.90462372 C3.14108237,2.06135888 2.85326585,2.24858366 2.5509419,2.5509419 C2.24858366,2.85326585 2.06135888,3.14108237 1.90462372,3.54437531 C1.78630068,3.84882564 1.6455477,4.30630711 1.60713558,5.14869858 C1.57055627,5.95042533 1.55934103,6.25825653 1.55717612,7.8927407 L1.55717612,9.38728268 C1.55934103,11.0217435 1.57055627,11.3295747 1.60713558,12.1313014 C1.6455477,12.9736929 1.78630068,13.4311744 1.90462372,13.7356247 C2.06135888,14.1389176 2.24861796,14.4267341 2.5509419,14.7290581 C2.85326585,15.0314163 3.14108237,15.2186411 3.54437531,15.3753763 C3.84882564,15.4936993 4.30630711,15.6344523 5.14869858,15.6728644 C5.91389678,15.707781 6.22910278,15.719587 7.67784385,15.722471 L9.60217869,15.722471 C11.0509064,15.719587 11.366132,15.707781 12.1313014,15.6728644 C12.9736929,15.6344523 13.4311744,15.4936993 13.7356247,15.3753763 C14.1389176,15.2186411 14.4267341,15.0314163 14.7290581,14.7290581 C15.0314163,14.4267341 15.2186411,14.1389176 15.3753763,13.7356247 C15.4936993,13.4311744 15.6344523,12.9736929 15.6728644,12.1313014 C15.707781,11.3660168 15.719587,11.0507486 15.722471,9.60211176 L15.722471,7.67790857 C15.719587,6.22925143 15.707781,5.91398321 15.6728644,5.14869858 C15.6344523,4.30630711 15.4936993,3.84882564 15.3753763,3.54437531 C15.2186411,3.14108237 15.0314163,2.85326585 14.7290581,2.5509419 C14.4267341,2.24858366 14.1389176,2.06135888 13.7356247,1.90462372 C13.4311744,1.78630068 12.9736929,1.6455477 12.1313014,1.60713558 C11.3295747,1.57055627 11.0217435,1.55934103 9.38728268,1.55717612 Z M8.64001715,4.20324602 C11.0903673,4.20324602 13.076754,6.18963268 13.076754,8.64001715 C13.076754,11.0903673 11.0903673,13.076754 8.64001715,13.076754 C6.18963268,13.076754 4.20324602,11.0903673 4.20324602,8.64001715 C4.20324602,6.18963268 6.18963268,4.20324602 8.64001715,4.20324602 Z M8.64001715,5.76 C7.04941249,5.76 5.76,7.04941249 5.76,8.64001715 C5.76,10.2305875 7.04941249,11.52 8.64001715,11.52 C10.2305875,11.52 11.52,10.2305875 11.52,8.64001715 C11.52,7.04941249 10.2305875,5.76 8.64001715,5.76 Z M13.2520436,2.99113792 C13.8246585,2.99113792 14.2888621,3.45534151 14.2888621,4.02795644 C14.2888621,4.60057137 13.8246585,5.06474066 13.2520436,5.06474066 C12.6794629,5.06474066 12.2152593,4.60057137 12.2152593,4.02795644 C12.2152593,3.45534151 12.6794629,2.99113792 13.2520436,2.99113792 Z"></path>
                                </g>
                            </g>
                        </g>
                        <g id="Group-25" transform="translate(0.000000, 42.500000)" fill-rule="nonzero">
                            <path d="M17.664,16.608 C17.664,17.136 17.232,17.568 16.704,17.568 L12.192,17.568 L12.192,10.752 L14.496,10.752 L14.832,8.112 L12.192,8.112 L12.192,6.432 C12.192,5.664 12.384,5.136 13.488,5.136 L14.88,5.136 L14.88,2.736 C14.64,2.688 13.824,2.64 12.816,2.64 C10.8,2.64 9.408,3.888 9.408,6.144 L9.408,8.112 L7.104,8.112 L7.104,10.752 L9.408,10.752 L9.408,17.568 L0.96,17.568 C0.432,17.568 5.68434189e-14,17.136 5.68434189e-14,16.608 L5.68434189e-14,0.96 C5.68434189e-14,0.432 0.432,0 0.96,0 L16.656,0 C17.184,0 17.616,0.432 17.616,0.96 L17.616,16.608 L17.664,16.608 Z" id="Facebook"></path>
                        </g>
                    </g>
                    <g id="Group-36" transform="translate(77.250000, 1.250000)" fill="#FFFFFF" fill-rule="nonzero">
                        <g id="Group-26">
                            <path d="M17.496,0.648 C16.776,1.08 16.008,1.416 15.144,1.56 C14.472,0.84 13.512,0.36 12.456,0.36 C10.44,0.36 8.76,2.04 8.76,4.152 C8.76,4.44 8.808,4.728 8.856,5.016 C5.784,4.872 3.096,3.336 1.272,1.08 C0.936,1.656 0.792,2.28 0.792,3 C0.792,4.296 1.464,5.448 2.424,6.168 C1.8,6.168 1.272,5.976 0.744,5.688 L0.744,5.736 C0.744,7.56 1.992,9.096 3.72,9.432 C3.432,9.528 3.096,9.576 2.76,9.576 C2.52,9.576 2.28,9.576 2.088,9.528 C2.568,11.016 3.912,12.12 5.544,12.168 C4.296,13.176 2.712,13.8 0.984,13.8 C0.696,13.8 0.408,13.8 0.12,13.752 C1.752,14.808 3.672,15.432 5.784,15.432 C12.552,15.432 16.296,9.672 16.296,4.68 C16.296,4.536 16.296,4.344 16.296,4.2 C17.016,3.672 17.64,3 18.12,2.232 C17.448,2.52 16.728,2.76 16.008,2.808 C16.632,2.28 17.208,1.56 17.496,0.648 Z" id="Twitter"></path>
                        </g>
                        <g id="Group-24" transform="translate(0.000000, 42.000000)">
                            <g id="LinkedIn" transform="translate(0.120000, 0.480000)">
                                <rect id="Rectangle" x="0.624" y="5.184" width="3.456" height="10.944"></rect>
                                <path d="M13.488,5.088 C11.52,5.088 10.272,6.144 10.032,6.912 L10.032,5.184 L6.144,5.184 C6.192,6.096 6.144,16.128 6.144,16.128 L10.032,16.128 L10.032,10.224 C10.032,9.888 10.032,9.552 10.128,9.312 C10.416,8.64 10.944,7.968 12,7.968 C13.344,7.968 13.968,8.976 13.968,10.464 L13.968,16.128 L17.904,16.128 L17.904,10.032 C17.856,6.672 15.936,5.088 13.488,5.088 Z" id="Path"></path>
                                <path d="M2.256,0.048 C0.96,0.048 0.144,0.864 0.144,1.968 C0.144,3.024 0.96,3.84 2.208,3.84 L2.256,3.84 C3.552,3.84 4.368,3.024 4.368,1.92 C4.32,0.864 3.552,0.048 2.256,0.048 Z" id="Path"></path>
                            </g>
                        </g>
                    </g>
                    <path d="M55.5,0 L55.5,61" id="Line-4" stroke="#FFFFFF" stroke-width="0.5" opacity="0.118326823" stroke-linecap="square"></path>
                    <path d="M116,30.5 L0,30.5" id="Line-4" stroke="#FFFFFF" stroke-width="0.5" opacity="0.118326823" stroke-linecap="square"></path>
                </g>
            </g>
        </g>
    </g>
</svg>