<?xml version="1.0" encoding="UTF-8"?>
<svg width="213px" height="83px" viewBox="0 0 213 83" version="1.1" xmlns="http://www.w3.org/2000/svg" xmlns:xlink="http://www.w3.org/1999/xlink">
    <!-- Generator: Sketch 58 (84663) - https://sketch.com -->
    <title>Group 14</title>
    <desc>Created with Sketch.</desc>
    <defs>
        <linearGradient x1="0%" y1="50%" x2="99.2634596%" y2="51.3806931%" id="linearGradient-1">
            <stop stop-color="#F82E94" offset="0%"></stop>
            <stop stop-color="#FF9E33" offset="100%"></stop>
        </linearGradient>
        <path d="M43.1360007,14.0825027 C42.5493311,14.8291731 41.8160051,15.4691667 40.9360007,16.0025027 C40.0559963,16.5358387 39.1360055,17.0158339 38.1760007,17.4425027 C36.6293263,18.3491739 35.0960083,19.2824979 33.5760007,20.2425027 C32.0559931,21.2025075 30.6026743,22.1891643 29.2160007,23.2025027 C27.8293271,24.3225083 26.4560075,25.4691635 25.0960007,26.6425027 C23.7359939,27.8158419 22.5226727,29.0424963 21.4560007,30.3225027 C21.0293319,30.8025051 20.5760031,31.2291675 20.0960007,31.6025027 C19.6159983,31.9758379 19.0826703,32.4025003 18.4960007,32.8825027 C18.3359999,33.1491707 18.1493351,33.4558343 17.9360007,33.8025027 C17.7226663,34.1491711 17.5093351,34.5358339 17.2960007,34.9625022 C17.1359999,35.0691699 16.9093355,35.1891687 16.6160007,35.3225027 C16.3226659,35.4558367 16.0693351,35.5758355 15.8560007,35.6825027 C15.6959999,36.1091715 15.5226683,36.5225007 15.3360007,36.9225027 C15.1493331,37.3225047 15.0026679,37.7358339 14.8960007,38.1625027 C14.6293327,38.5358379 14.4026683,38.8825011 14.2160007,39.2025027 C14.0293331,39.5225043 13.8026687,39.8425011 13.5360007,40.1625027 C13.8026687,40.4291707 14.0693327,40.5891691 14.3360007,40.6425027 C14.6026687,40.6958363 14.9226655,40.6691699 15.2960007,40.5625027 C15.9893375,40.4558355 16.6026647,40.3625031 17.1360007,40.2825027 C17.6693367,40.2025023 18.2559975,40.1091699 18.8960007,40.0025027 C19.3226695,39.8958355 19.7626651,39.8291695 20.2160007,39.8025027 C20.6693363,39.7758359 21.1093319,39.7091699 21.5360007,39.6025027 C23.2426759,39.4425019 24.8826595,39.2825035 26.4560007,39.1225027 C28.0293419,38.9625022 29.6426591,38.8558363 31.2960007,38.8025027 L35.6560007,38.8025027 C37.0693411,38.8025027 38.4693271,38.9625022 39.8560007,39.2825027 C40.2293359,39.3891699 40.6026655,39.5091687 40.9760007,39.6425027 C41.3493359,39.7758367 41.6693327,39.9225019 41.9360007,40.0825027 C42.8426719,40.5625051 43.6959967,41.0291671 44.4960007,41.4825027 C45.2960047,41.9358383 46.0693303,42.3758339 46.8160007,42.8025027 C47.1893359,43.4425059 47.4959995,43.9491675 47.7360007,44.3225027 C47.9760019,44.6958379 48.1360003,45.0425011 48.2160007,45.3625027 C48.2960011,45.6825043 48.3360007,46.0425007 48.3360007,46.4425027 L48.3360007,48.0825027 C48.2293335,48.4558379 47.9626695,48.8025011 47.5360007,49.1225027 C47.1093319,49.4425043 47.0026663,49.8158339 47.2160007,50.2425027 C46.5226639,50.9891731 45.9360031,51.7224991 45.4560007,52.4425027 C44.9759983,53.1625063 44.3626711,53.8691659 43.6160007,54.5625027 C42.6026623,55.4691739 41.5893391,56.4024979 40.5760007,57.3625027 C39.5626623,58.3225075 38.4426735,59.2558315 37.2160007,60.1625027 C35.5626591,61.3891755 33.8960091,62.5758303 32.2160007,63.7225027 C30.5359923,64.8691751 28.5760119,65.8958315 26.3360007,66.8025027 C25.7493311,67.0158371 25.1493371,67.2558347 24.5360007,67.5225027 C23.9226643,67.7891707 23.3226703,68.1091675 22.7360007,68.4825027 C22.4693327,68.4825027 22.2026687,68.4558363 21.9360007,68.4025027 C21.6693327,68.3491691 21.4293351,68.3225027 21.2160007,68.3225027 C21.1626671,68.4825035 21.0560015,68.6291687 20.8960007,68.7625027 C20.7359999,68.8958367 20.5760015,69.0958347 20.4160007,69.3625027 C19.8293311,69.3625027 19.0560055,69.4958347 18.0960007,69.7625027 C17.7759991,69.8691699 17.5093351,69.9891687 17.2960007,70.1225027 C17.0826663,70.2558367 16.8693351,70.4291683 16.6560007,70.6425027 C15.9626639,70.6958363 15.2960039,70.7491691 14.6560007,70.8025027 C14.0159975,70.8558363 13.3226711,70.9358355 12.5760007,71.0425027 C10.7093247,70.9891691 9.01600829,70.6825055 7.49600069,70.1225027 C5.97599309,69.5624999 4.54934069,68.7758411 3.21600069,67.7625027 C2.78933189,67.3358339 2.45600189,66.8825051 2.21600069,66.4025027 C1.97599949,65.9225003 1.93599989,65.3358395 2.09600069,64.6425027 L2.37600069,64.3625027 C2.45600109,64.2825023 2.57599989,64.2158363 2.73600069,64.1625027 C3.10933589,64.2158363 3.38933309,64.2425027 3.57600069,64.2425027 C3.76266829,64.2425027 3.96266629,64.2958355 4.17600069,64.4025027 C4.60266949,64.7225043 5.02933189,65.0558343 5.45600069,65.4025027 C5.88266949,65.7491711 6.33599829,66.0825011 6.81600069,66.4025027 C7.56267109,66.4025027 8.25599749,66.3358367 8.89600069,66.2025027 C9.53600389,66.0691687 10.1759975,65.8691707 10.8160007,65.6025027 C13.0026783,64.8558323 15.0426579,64.0425071 16.9360007,63.1625027 C18.8293435,62.2824983 20.7093247,61.3358411 22.5760007,60.3225027 C24.9226791,58.9891627 27.1226571,57.5758435 29.1760007,56.0825027 C31.2293443,54.5891619 33.1893247,53.0691771 35.0560007,51.5225027 C36.3360071,50.3491635 37.4826623,49.1491755 38.4960007,47.9225027 C39.5093391,46.6958299 40.2559983,45.3891763 40.7360007,44.0025027 C40.9493351,43.6825011 41.1359999,43.3891707 41.2960007,43.1225027 C41.2960007,43.0691691 41.2693343,43.0025031 41.2160007,42.9225027 C41.1626671,42.8425023 41.1360007,42.7225035 41.1360007,42.5625027 C40.4426639,42.5091691 39.9360023,42.4291699 39.6160007,42.3225027 C38.4426615,42.3758363 37.3893387,42.4025027 36.4560007,42.4025027 C35.5226627,42.4025027 34.6026719,42.4558355 33.6960007,42.5625027 C32.7359959,42.7225035 31.8026719,42.8691687 30.8960007,43.0025027 C29.9893295,43.1358367 29.1626711,43.1491699 28.4160007,43.0425027 C26.3893239,43.7891731 24.3360111,44.3091679 22.2560007,44.6025027 C20.1759903,44.8958375 18.1226775,45.2558339 16.0960007,45.6825027 C15.6159983,45.6291691 15.1360031,45.5625031 14.6560007,45.4825027 C14.1759983,45.4025023 13.6693367,45.3625027 13.1360007,45.3625027 C11.5893263,45.2025019 10.1626739,44.8158391 8.85600069,44.2025027 C7.54932749,43.5891663 6.36267269,42.8825067 5.29600069,42.0825027 C4.86933189,41.7625011 4.48266909,41.3625051 4.13600069,40.8825027 C3.78933229,40.4025003 3.61600069,39.9491715 3.61600069,39.5225027 C3.50933349,38.4024971 3.56266629,37.3491743 3.77600069,36.3625027 C3.98933509,35.3758311 4.41599749,34.4025075 5.05600069,33.4425027 C5.42933589,32.8558331 5.69599989,32.3491715 5.85600069,31.9225027 C6.44267029,30.8024971 7.12266349,29.7491743 7.89600069,28.7625027 C8.66933789,27.7758311 9.61599509,26.9091731 10.7360007,26.1625027 C11.1093359,25.7358339 11.4293327,25.3358379 11.6960007,24.9625022 C11.9626687,24.5891675 12.2826655,24.2425043 12.6560007,23.9225027 C13.3493375,23.2291659 14.0026643,22.5758391 14.6160007,21.9625022 C15.2293371,21.3491663 15.9093303,20.7491723 16.6560007,20.1625027 C19.9093503,17.4424891 23.4159819,14.9625139 27.1760007,12.7225027 C30.9360195,10.4824915 35.0559783,8.48251146 39.5360007,6.72250266 C40.0693367,6.45583466 40.6159979,6.20250386 41.1760007,5.96250221 C41.7360035,5.72250146 42.3359975,5.54916986 42.9760007,5.44250266 C44.0426727,5.01583386 45.1759947,4.64250426 46.3760007,4.32250266 C47.5760067,4.00250106 49.0026591,3.89583546 50.6560007,4.00250266 C51.0826695,4.05583626 51.5759979,4.20250146 52.1360007,4.44250266 C52.6960035,4.68250386 53.2426647,5.01583386 53.7760007,5.44250266 C55.0560071,6.24250666 56.3359943,7.06916506 57.6160007,7.92250266 C57.8293351,8.02916986 58.0293331,8.14916866 58.2160007,8.28250266 C58.4026683,8.41583666 58.5759999,8.53583546 58.7360007,8.64250266 C59.6960055,9.38917306 60.3626655,10.1624987 60.7360007,10.9625022 C61.1093359,11.7625067 61.0026703,12.6424979 60.4160007,13.6025027 C60.3093335,13.8691707 60.2293343,14.1091683 60.1760007,14.3225027 C60.1226671,14.5358371 60.0426679,14.7225019 59.9360007,14.8825027 C59.5093319,15.4691723 59.1093359,16.0424999 58.7360007,16.6025027 C58.3626655,17.1625055 57.8026711,17.6558339 57.0560007,18.0825027 C56.9493335,18.7225059 56.6426699,19.2691671 56.1360007,19.7225027 C55.6293315,20.1758383 55.0560039,20.6158339 54.4160007,21.0425027 C54.0959991,21.3091707 53.8426683,21.6025011 53.6560007,21.9225027 C53.4693331,22.2425043 53.2426687,22.5358347 52.9760007,22.8025027 C51.8559951,23.8158411 50.7760059,24.7891647 49.7360007,25.7225027 C48.6959955,26.6558407 47.6160063,27.6024979 46.4960007,28.5625027 C45.4293287,29.4691739 44.2560071,30.2958323 42.9760007,31.0425027 C41.6959943,31.7891731 40.5226727,32.6691643 39.4560007,33.6825027 C39.4560007,33.7358363 39.3360019,33.7758359 39.0960007,33.8025027 C38.8559995,33.8291695 38.6826679,33.8958355 38.5760007,34.0025027 C36.9759927,33.8425019 35.4560079,33.6691703 34.0160007,33.4825027 C32.5759935,33.2958351 31.4026719,32.6425083 30.4960007,31.5225027 C31.9893415,30.0824955 33.4826599,28.6691763 34.9760007,27.2825027 C36.4693415,25.8958291 37.9893263,24.5091763 39.5360007,23.1225027 C40.4426719,22.0558307 41.3626627,21.0025079 42.2960007,19.9625022 C43.2293387,18.9224975 44.1493295,17.8691747 45.0560007,16.8025027 C45.3226687,16.4825011 45.6426655,16.1625043 46.0160007,15.8425027 C46.3893359,15.5225011 46.7626655,15.1491715 47.1360007,14.7225027 C47.1360007,14.6158355 47.1626671,14.4691703 47.2160007,14.2825027 C47.2693343,14.0958351 47.2960007,13.8691707 47.2960007,13.6025027 C47.0826663,13.5491691 46.8960015,13.4958363 46.7360007,13.4425027 C46.5759999,13.3891691 46.4426679,13.3625027 46.3360007,13.3625027 C45.7493311,13.4691699 45.2026699,13.5891687 44.6960007,13.7225027 C44.1893315,13.8558367 43.6693367,13.9758355 43.1360007,14.0825027 Z M22.7122377,22.7667118 C23.2826711,22.4036339 23.8905864,22.0155678 24.5360007,21.6025027 C25.2026707,21.1758339 25.8293311,20.6958387 26.4160007,20.1625027 C27.2160047,19.5758331 28.0159967,19.0291719 28.8160007,18.5225027 C29.6160047,18.0158335 30.3893303,17.4691723 31.1360007,16.8825027 C32.3093399,16.2424995 33.3626627,15.5625063 34.2960007,14.8425027 C35.2293387,14.1224991 36.2026623,13.3891731 37.2160007,12.6425027 C37.3226679,12.5358355 37.3893339,12.4425031 37.4160007,12.3625027 C37.4426675,12.2825023 37.4826671,12.2158363 37.5360007,12.1625027 L36.9760007,12.1625027 C34.4693215,13.2825083 32.2026775,14.6024951 30.1760007,16.1225027 C28.1493239,17.6425103 26.1493439,19.1491619 24.1760007,20.6425027 C23.7493319,20.9091707 23.3760023,21.2425007 23.0560007,21.6425027 C22.7650292,22.0062171 22.6504423,22.3809503 22.7122377,22.7667118 L22.7122377,22.7667118 Z M60.1760007,63.8425027 C59.7493319,64.0025035 59.3226695,64.1358355 58.8960007,64.2425027 C58.4693319,64.3491699 58.0160031,64.4558355 57.5360007,64.5625027 C56.7893303,64.2958347 56.0293379,63.9225051 55.2560007,63.4425027 C54.4826635,62.9625003 53.6960047,62.4291723 52.8960007,61.8425027 C52.7359999,60.4558291 52.6026679,59.0425099 52.4960007,57.6025027 C52.3893335,56.1624955 52.4159999,54.6958435 52.5760007,53.2025027 C52.8426687,50.8558243 53.1093327,48.5225143 53.3760007,46.2025027 C53.6426687,43.8824911 54.0159983,41.5225147 54.4960007,39.1225027 C54.8160023,37.0424923 55.2026651,34.9625131 55.6560007,32.8825027 C56.1093363,30.8024923 56.5493319,28.7491795 56.9760007,26.7225027 L57.2160007,25.2825027 C57.1093335,25.1758355 57.0160011,25.0558367 56.9360007,24.9225027 C56.8560003,24.7891687 56.7626679,24.6691699 56.6560007,24.5625027 C56.4959999,24.6158363 56.3760011,24.6291695 56.2960007,24.6025027 C56.2160003,24.5758359 56.1493343,24.5891691 56.0960007,24.6425027 C55.3493303,25.3358395 54.6026711,25.8025015 53.8560007,26.0425027 C53.1093303,26.2825039 52.3626711,26.5891675 51.6160007,26.9625027 C51.0293311,27.2291707 50.4826699,27.2825035 49.9760007,27.1225027 C49.4693315,26.9625019 48.9226703,26.8291699 48.3360007,26.7225027 C47.7493311,26.2958339 47.1893367,25.7891723 46.6560007,25.2025027 C46.1226647,24.6158331 45.6693359,23.8958403 45.2960007,23.0425027 C45.2960007,22.4024995 45.4426659,21.9358375 45.7360007,21.6425027 C46.0293355,21.3491679 46.3359991,21.1225035 46.6560007,20.9625027 C47.5093383,20.6958347 48.3493299,20.4425039 49.1760007,20.2025027 C50.0026715,19.9625015 50.8426631,19.7091707 51.6960007,19.4425027 C52.9226735,19.1758347 54.1626611,18.9225039 55.4160007,18.6825027 C56.6693403,18.4425015 57.9359943,18.1891707 59.2160007,17.9225027 C59.4293351,17.4958339 59.6159999,17.0825047 59.7760007,16.6825027 C59.9360015,16.2825007 60.0959999,15.8691715 60.2560007,15.4425027 C60.7360031,14.3758307 61.1893319,13.3491743 61.6160007,12.3625027 C62.0426695,11.3758311 62.4959983,10.3491747 62.9760007,9.28250266 L63.3760007,8.48250266 C63.4826679,8.26916826 63.6026667,8.08250346 63.7360007,7.92250266 C63.8693347,7.76250186 64.0426663,7.58917026 64.2560007,7.40250266 C64.4693351,7.21583506 64.7626655,6.98917066 65.1360007,6.72250266 C65.8826711,7.41583946 66.6693299,8.05583306 67.4960007,8.64250266 C68.3226715,9.22917226 69.1359967,9.86916586 69.9360007,10.5625027 C70.2026687,10.7758371 70.4293331,11.0558343 70.6160007,11.4025027 C70.8026683,11.7491711 71.0293327,12.0558347 71.2960007,12.3225027 C71.2960007,12.8558387 71.3093339,13.3891667 71.3360007,13.9225027 C71.3626675,14.4558387 71.4026671,15.0158331 71.4560007,15.6025027 C71.9893367,15.7625035 72.4826651,15.7358371 72.9360007,15.5225027 C73.3893363,15.3091683 73.8293319,15.2025027 74.2560007,15.2025027 C75.3226727,15.2025027 76.3093295,15.1225035 77.2160007,14.9625027 C77.7493367,14.9091691 78.2293319,14.8691695 78.6560007,14.8425027 C79.0826695,14.8158359 79.5359983,14.7758363 80.0160007,14.7225027 C80.5493367,14.6691691 81.0559983,14.6291695 81.5360007,14.6025027 C82.0160031,14.5758359 82.4959983,14.5625027 82.9760007,14.5625027 C83.4560031,14.5091691 83.9493315,14.4958359 84.4560007,14.5225027 C84.9626699,14.5491695 85.4559983,14.5625027 85.9360007,14.5625027 C86.4693367,15.2558395 86.9759983,15.9224995 87.4560007,16.5625027 C87.9360031,17.2025059 88.3093327,17.9758315 88.5760007,18.8825027 C87.9893311,19.3091715 87.4426699,19.5625023 86.9360007,19.6425027 C86.4293315,19.7225027 85.9093367,19.7625027 85.3760007,19.7625027 C83.8293263,19.7625027 82.3093415,19.8825015 80.8160007,20.1225027 C79.3226599,20.3625039 77.8026751,20.6158347 76.2560007,20.8825027 C75.3493295,21.0425035 74.4693383,21.2158351 73.6160007,21.4025027 C72.7626631,21.5891703 71.8826719,21.7358355 70.9760007,21.8425027 C70.7093327,21.8958363 70.4693351,21.9091695 70.2560007,21.8825027 C70.0426663,21.8558359 69.8026687,21.8158363 69.5360007,21.7625027 C69.3759999,22.0291707 69.2026683,22.3091679 69.0160007,22.6025027 C68.8293331,22.8958375 68.6826679,23.1758347 68.5760007,23.4425027 L68.2560007,24.5625027 C68.1493335,24.9358379 68.0426679,25.3358339 67.9360007,25.7625027 C67.4559983,27.7358459 67.0026695,29.6958263 66.5760007,31.6425027 C66.1493319,33.5891791 65.6693367,35.4958267 65.1360007,37.3625027 C64.7626655,38.7491763 64.4560019,40.0958295 64.2160007,41.4025027 C63.9759995,42.7091759 63.6960023,44.0558291 63.3760007,45.4425027 C63.1093327,46.7225027 62.8826683,48.0158295 62.6960007,49.3225027 C62.5093331,50.6291759 62.2293359,51.8691635 61.8560007,53.0425027 C61.5893327,53.9491739 61.4160011,54.8691647 61.3360007,55.8025027 C61.2560003,56.7358407 61.1093351,57.6558315 60.8960007,58.5625027 C60.7359999,59.3625067 60.6026679,60.1891651 60.4960007,61.0425027 C60.3893335,61.8958403 60.2826679,62.8291643 60.1760007,63.8425027 Z M58.7253764,31.2101449 C58.3593784,31.4752776 58.1895881,31.7927271 58.2160007,32.1625027 C58.2394252,32.4904454 58.2319852,32.8389598 58.1936806,33.2080541 C58.5018954,32.9569002 58.6560007,32.6617188 58.6560007,32.3225027 C58.6560007,31.9748401 58.6791257,31.6040575 58.7253764,31.2101449 L58.7253764,31.2101449 Z M58.0968188,33.4111234 C57.7782345,33.6214834 57.6312966,33.9119407 57.6560007,34.2825027 C57.6799029,34.6410361 57.6930929,35.0102766 57.6955708,35.3902333 C58.0657523,35.1343304 58.225894,34.8317561 58.1760007,34.4825027 C58.1280604,34.1469205 58.1016666,33.789797 58.0968188,33.4111234 L58.0968188,33.4111234 Z M57.595578,35.6271424 C57.3887893,35.8523285 57.2622646,36.0574471 57.2160007,36.2425027 C57.0026663,36.9891731 56.8160015,37.7091659 56.6560007,38.4025027 C56.4959999,39.0958395 56.3360015,39.8158323 56.1760007,40.5625027 C55.7493319,42.4291787 55.4160019,44.3358263 55.1760007,46.2825027 C54.9359995,48.2291791 54.7093351,50.1624931 54.4960007,52.0825027 C54.4426671,52.3491707 54.4560003,52.6025015 54.5360007,52.8425027 C54.6160011,53.0825039 54.8159991,53.2291691 55.1360007,53.2825027 C55.2960015,52.9625011 55.4026671,52.5625051 55.4560007,52.0825027 C55.7760023,49.7358243 56.0693327,47.4025143 56.3360007,45.0825027 C56.6026687,42.7624911 56.9759983,40.4558475 57.4560007,38.1625027 C57.5626679,37.7358339 57.6026675,37.2825051 57.5760007,36.8025027 C57.5531465,36.3911271 57.5596722,35.9993431 57.595578,35.6271424 L57.595578,35.6271424 Z M58.7360007,31.1225027 C58.9493351,30.9091683 59.0960003,30.6825039 59.1760007,30.4425027 C59.2560011,30.2025015 59.1360023,29.8691715 58.8160007,29.4425027 C58.7626671,29.8691715 58.7360007,30.2025015 58.7360007,30.4425027 L58.7360007,31.1225027 Z M62.9760007,16.0025027 L62.8960007,16.0825027 C62.2026639,17.0958411 61.6426695,18.1758303 61.2160007,19.3225027 C60.7893319,20.4691751 60.4160023,21.6824963 60.0960007,22.9625027 C60.0960007,23.0158363 60.1493335,23.1491683 60.2560007,23.3625027 C60.5226687,23.3091691 60.7093335,23.1625039 60.8160007,22.9225027 C60.9226679,22.6825015 61.0293335,22.4291707 61.1360007,22.1625027 C61.4026687,21.2558315 61.6826659,20.4158399 61.9760007,19.6425027 C62.2693355,18.8691655 62.5493327,18.0558403 62.8160007,17.2025027 C62.9226679,16.9358347 62.9760007,16.6958371 62.9760007,16.4825027 L62.9760007,16.0025027 L62.9760007,16.0025027 Z M63.0447794,15.825308 L63.9360007,15.6025027 C64.0426679,15.2291675 64.0960007,14.9091707 64.0960007,14.6425027 C64.0960007,14.3758347 63.8826695,14.1891699 63.4560007,14.0825027 C63.0969944,14.441509 62.9599218,15.0224386 63.0447794,15.825308 L63.0447794,15.825308 Z M59.6960007,27.8425027 C59.6960007,27.7358355 59.6693343,27.6291699 59.6160007,27.5225027 C59.6160007,27.6291699 59.6026675,27.7091691 59.5760007,27.7625027 C59.5493339,27.8158363 59.5360007,27.8691691 59.5360007,27.9225027 C59.5360007,27.9225027 59.5893335,27.8958363 59.6960007,27.8425027 Z M78.4160007,48.5625027 C78.7360023,48.2958347 79.0026663,48.0825035 79.2160007,47.9225027 C79.4293351,47.7625019 79.6693327,47.5758371 79.9360007,47.3625027 C80.9493391,46.1358299 81.9359959,44.9091755 82.8960007,43.6825027 C83.8560055,42.4558299 84.8426623,41.1758427 85.8560007,39.8425027 C86.5493375,38.8824979 87.2293307,37.9491739 87.8960007,37.0425027 C88.5626707,36.1358315 89.1893311,35.2291739 89.7760007,34.3225027 C90.3093367,33.6824995 90.8026651,33.0025063 91.2560007,32.2825027 C91.7093363,31.5624991 92.0693327,30.7758403 92.3360007,29.9225027 C92.6026687,29.1758323 93.0293311,28.6158379 93.6160007,28.2425027 L95.3760007,27.1225027 C96.2293383,27.2825035 96.9893307,27.5758339 97.6560007,28.0025027 C98.3226707,28.4291715 99.0559967,28.8291675 99.8560007,29.2025027 C99.7493335,29.5225043 99.6960007,29.8025015 99.6960007,30.0425027 C99.6960007,30.2825039 99.6693343,30.6158339 99.6160007,31.0425027 C100.042669,32.0558411 100.229334,33.0824975 100.176001,34.1225027 C100.122667,35.1625079 100.042668,36.2424971 99.9360007,37.3625027 C99.6693327,39.0691779 99.3226695,40.7891607 98.8960007,42.5225027 C98.4693319,44.2558447 98.0426695,45.9758275 97.6160007,47.6825027 C97.1359983,49.5491787 96.6026703,51.3758271 96.0160007,53.1625027 C95.4293311,54.9491783 94.8693367,56.7491603 94.3360007,58.5625027 C94.1759999,59.1491723 93.9360023,59.7358331 93.6160007,60.3225027 C93.2426655,60.6958379 93.0560007,61.1491667 93.0560007,61.6825027 C92.8959999,63.1758435 92.2826727,64.3758315 91.2160007,65.2825027 C91.1626671,65.5491707 91.1360007,65.8291679 91.1360007,66.1225027 C91.1360007,66.4158375 91.1093343,66.6958347 91.0560007,66.9625027 C90.6293319,67.6025059 90.2560023,68.1891667 89.9360007,68.7225027 C89.6159991,69.2558387 89.3493351,69.7358339 89.1360007,70.1625027 C89.0293335,70.7491723 88.9493343,71.2691671 88.8960007,71.7225027 C88.8426671,72.1758383 88.7626679,72.6158339 88.6560007,73.0425027 C88.1759983,73.9491739 87.6960031,74.8291651 87.2160007,75.6825027 C86.7359983,76.5358403 86.2826695,77.4158315 85.8560007,78.3225027 C85.7493335,78.5891707 85.6293347,78.8291683 85.4960007,79.0425027 C85.3626667,79.2558371 85.2426679,79.4691683 85.1360007,79.6825027 C84.7626655,80.5358403 84.3226699,81.3091659 83.8160007,82.0025027 C83.3093315,82.6958395 82.7626703,83.4158323 82.1760007,84.1625027 C81.8559991,84.7491723 81.4160035,85.2558339 80.8560007,85.6825027 C80.2959979,86.1091715 79.8026695,86.4558347 79.3760007,86.7225027 C77.8293263,87.2558387 76.4026739,87.3225047 75.0960007,86.9225027 C73.7893275,86.5225007 72.5226735,86.0291723 71.2960007,85.4425027 C71.1359999,85.1225027 71.1359999,84.8158375 71.2960007,84.5225027 C71.4560015,84.2291679 71.6159999,83.9491707 71.7760007,83.6825027 C72.3093367,83.0958331 72.7493323,82.4691727 73.0960007,81.8025027 C73.4426691,81.1358327 73.8026655,80.4291731 74.1760007,79.6825027 C75.0826719,77.7091595 75.9226635,75.7491791 76.6960007,73.8025027 C77.4693379,71.8558263 78.2293303,69.9491787 78.9760007,68.0825027 C79.4026695,67.1758315 79.7893323,66.2958403 80.1360007,65.4425027 C80.4826691,64.5891651 80.7893327,63.7358403 81.0560007,62.8825027 C81.6426703,61.3358283 82.2426643,59.8691763 82.8560007,58.4825027 C83.4693371,57.0958291 84.0693311,55.6558435 84.6560007,54.1625027 C84.7626679,53.9491683 84.8293339,53.7358371 84.8560007,53.5225027 C84.8826675,53.3091683 84.8426679,53.0691707 84.7360007,52.8025027 C84.3626655,52.7491691 84.1360011,52.8558347 84.0560007,53.1225027 C83.9760003,53.3891707 83.8293351,53.6025019 83.6160007,53.7625027 C83.4026663,53.9225035 83.1893351,54.1225027 82.9760007,54.3625027 C82.7626663,54.6025039 82.5226687,54.8025019 82.2560007,54.9625027 C82.1493335,55.1225027 82.0026683,55.2691687 81.8160007,55.4025027 C81.6293331,55.5358367 81.4293351,55.6825019 81.2160007,55.8425027 C80.9493327,56.0558371 80.7226683,56.2291687 80.5360007,56.3625027 C80.3493331,56.4958367 80.0426695,56.6958347 79.6160007,56.9625027 C79.1893319,57.0691699 78.7360031,57.1491691 78.2560007,57.2025027 C77.7759983,57.2558363 77.2426703,57.3091691 76.6560007,57.3625027 C74.6826575,57.3091691 72.6826775,56.7225083 70.6560007,55.6025027 C70.0159975,55.2825011 69.4826695,54.8025059 69.0560007,54.1625027 C68.6293319,53.5224995 68.2826687,52.8025067 68.0160007,52.0025027 C67.5893319,50.6158291 67.4559999,49.2291763 67.6160007,47.8425027 C67.7760015,46.4558291 67.9893327,45.0958427 68.2560007,43.7625027 C69.0560047,39.9758171 70.1493271,36.2958539 71.5360007,32.7225027 L71.8560007,31.7625027 C71.9626679,31.4425011 72.0959999,31.1491707 72.2560007,30.8825027 C72.4693351,30.4558339 72.7226659,30.0825043 73.0160007,29.7625027 C73.3093355,29.4425011 73.7493311,29.1758371 74.3360007,28.9625027 C75.1893383,29.4425051 76.0426631,29.9491667 76.8960007,30.4825027 L79.4560007,32.0825027 C79.8826695,32.2958371 80.1893331,32.5758343 80.3760007,32.9225027 C80.5626683,33.2691711 80.7093335,33.6558339 80.8160007,34.0825027 C80.3359983,36.3758475 79.8426699,38.6824911 79.3360007,41.0025027 C78.8293315,43.3225143 78.5226679,45.8424891 78.4160007,48.5625027 Z M89.4560007,59.8425027 C89.9893367,59.0424987 90.5893307,57.7891779 91.2560007,56.0825027 C91.9226707,54.3758275 92.5626643,52.4958463 93.1760007,50.4425027 C93.7893371,48.3891591 94.3493315,46.2825135 94.8560007,44.1225027 C95.3626699,41.9624919 95.7493327,40.0025115 96.0160007,38.2425027 C95.9093335,37.9225011 95.8160011,37.6025043 95.7360007,37.2825027 C95.6560003,36.9625011 95.4026695,36.7491699 94.9760007,36.6425027 C94.6026655,36.9091707 94.3760011,37.2158343 94.2960007,37.5625027 C94.2160003,37.9091711 94.1226679,38.2958339 94.0160007,38.7225027 C93.6959991,40.6425027 93.3093363,42.5358267 92.8560007,44.4025027 C92.4026651,46.2691787 91.9093367,48.1358267 91.3760007,50.0025027 C91.0026655,51.5491771 90.6293359,53.0424955 90.2560007,54.4825027 C89.8826655,55.9225099 89.5093359,57.3891619 89.1360007,58.8825027 C89.0826671,59.0425035 89.0560007,59.2025019 89.0560007,59.3625027 C89.0560007,59.5225035 89.1893327,59.6825019 89.4560007,59.8425027 Z M112.576001,56.5625027 L112.656001,56.4825027 C112.976002,56.4825027 113.216,56.3758371 113.376001,56.1625027 C113.536001,55.9491683 113.696,55.7625035 113.856001,55.6025027 C114.549337,54.8024987 115.189331,54.0158399 115.776001,53.2425027 C116.36267,52.4691655 117.002664,51.7358395 117.696001,51.0425027 C118.28267,50.2424987 118.935997,49.4825063 119.656001,48.7625027 C120.376004,48.0424991 121.10933,47.3625059 121.856001,46.7225027 C122.122669,46.3491675 122.455999,46.0691703 122.856001,45.8825027 C123.256003,45.6958351 123.669332,45.4691707 124.096001,45.2025027 C124.896005,45.0425019 125.535998,45.2824995 126.016001,45.9225027 C125.962667,46.0291699 125.936001,46.1491687 125.936001,46.2825027 C125.936001,46.4158367 125.909334,46.5358355 125.856001,46.6425027 C125.429332,47.1225051 124.989336,47.5758339 124.536001,48.0025027 C124.082665,48.4291715 123.642669,48.8558339 123.216001,49.2825027 C121.509325,51.1491787 119.856009,53.0558263 118.256001,55.0025027 C116.655993,56.9491791 115.082675,58.9624923 113.536001,61.0425027 C113.109332,61.4691715 112.722669,61.9758331 112.376001,62.5625027 C112.029332,63.1491723 111.642669,63.7891659 111.216001,64.4825027 C111.002666,64.5891699 110.789335,64.5625035 110.576001,64.4025027 C110.362666,64.2425019 110.069336,64.1625027 109.696001,64.1625027 C109.322665,64.2691699 108.949336,64.4025019 108.576001,64.5625027 C108.202665,64.7225035 107.802669,64.8558355 107.376001,64.9625027 C107.109333,64.8558355 106.842669,64.7891695 106.576001,64.7625027 C106.309333,64.7358359 106.042669,64.6691699 105.776001,64.5625027 C104.495994,64.1358339 103.482671,63.4691739 102.736001,62.5625027 C101.98933,61.6558315 101.482669,60.5891755 101.216001,59.3625027 C100.949333,58.2424971 100.789334,57.1091751 100.736001,55.9625027 C100.682667,54.8158303 100.709334,53.7091747 100.816001,52.6425027 C100.922668,51.3624963 101.082666,50.0958423 101.296001,48.8425027 C101.509335,47.5891631 101.669333,46.3225091 101.776001,45.0425027 C102.042669,42.5358235 102.415998,40.0425151 102.896001,37.5625027 C103.376003,35.0824903 103.909331,32.6158483 104.496001,30.1625027 C106.096009,23.4424691 108.682649,17.1225323 112.256001,11.2025027 C112.522669,10.7758339 112.789333,10.3891711 113.056001,10.0425027 C113.322669,9.69583426 113.589333,9.33583786 113.856001,8.96250266 C114.016001,8.80250186 114.189333,8.65583666 114.376001,8.52250266 C114.562668,8.38916866 114.762666,8.24250346 114.976001,8.08250266 C116.256007,8.45583786 117.522661,8.82916746 118.776001,9.20250266 C120.02934,9.57583786 121.269328,10.0291667 122.496001,10.5625027 C122.656001,10.9891715 122.816,11.3758343 122.976001,11.7225027 C123.136001,12.0691711 123.322666,12.4558339 123.536001,12.8825027 C123.109332,14.5891779 122.682669,16.2558279 122.256001,17.8825027 C121.829332,19.5091775 121.429336,21.1758275 121.056001,22.8825027 C120.735999,24.5358443 120.32267,26.1758279 119.816001,27.8025027 C119.309331,29.4291775 118.896002,31.0691611 118.576001,32.7225027 C118.469333,33.1491715 118.296002,33.5625007 118.056001,33.9625027 C117.815999,34.3625047 117.589335,34.8291667 117.376001,35.3625027 L117.536001,35.8425027 C116.469329,39.6825219 115.509338,43.5224835 114.656001,47.3625027 C114.282665,48.6425091 113.936002,49.9091631 113.616001,51.1625027 C113.295999,52.4158423 112.976002,53.6558299 112.656001,54.8825027 C112.602667,55.1491707 112.589334,55.4158347 112.616001,55.6825027 C112.642667,55.9491707 112.656001,56.2158347 112.656001,56.4825027 L112.576001,56.5625027 Z M128.176001,32.3225027 L129.496001,31.8825027 C129.896003,31.7491687 130.309332,31.6291699 130.736001,31.5225027 C131.002669,31.6291699 131.255999,31.7091691 131.496001,31.7625027 C131.736002,31.8158363 131.962666,31.8958355 132.176001,32.0025027 C132.76267,32.2691707 133.296,32.5358347 133.776001,32.8025027 C134.256003,33.0691707 134.789331,33.3358347 135.376001,33.6025027 C135.482668,33.7625035 135.589333,33.9358351 135.696001,34.1225027 C135.802668,34.3091703 135.909333,34.4558355 136.016001,34.5625027 C136.016001,35.6291747 135.776003,36.5491655 135.296,37.3225027 C134.815998,38.0958399 134.496001,38.9358315 134.336001,39.8425027 C134.176,40.7491739 133.949335,41.6024987 133.656001,42.4025027 C133.362666,43.2025067 133.082669,44.0558315 132.816001,44.9625027 C132.549333,45.8158403 132.296,46.6424987 132.056001,47.4425027 C131.815999,48.2425067 131.562669,49.0691651 131.296,49.9225027 C131.029333,50.6691731 130.709336,51.4691651 130.336001,52.3225027 C129.962665,53.1758403 129.802667,54.1624971 129.856001,55.2825027 C130.549337,54.5891659 131.322663,53.6691751 132.176001,52.5225027 C133.029338,51.3758303 133.909329,50.2025087 134.816001,49.0025027 C135.722672,47.8024967 136.602663,46.6425083 137.456001,45.5225027 C138.309338,44.4024971 139.082664,43.4958395 139.776001,42.8025027 C140.309337,43.0158371 140.762665,43.1758355 141.136001,43.2825027 C141.402669,43.7091715 141.655999,44.1358339 141.896001,44.5625027 C142.136002,44.9891715 142.389333,45.3891675 142.656001,45.7625027 C142.389333,46.1358379 142.042669,46.5891667 141.616001,47.1225027 C141.189332,47.5491715 140.669337,48.1624987 140.056001,48.9625027 C139.442664,49.7625067 138.789337,50.6024983 138.096001,51.4825027 C137.402664,52.3625071 136.736004,53.2024987 136.096001,54.0025027 C135.455997,54.8025067 134.949336,55.3891675 134.576001,55.7625027 C134.469333,55.8691699 134.376001,55.9358359 134.296,55.9625027 C134.216,55.9891695 134.149334,56.0558355 134.096001,56.1625027 C133.669332,57.1758411 133.069338,58.0691655 132.296,58.8425027 C131.522663,59.6158399 130.84267,60.4558315 130.256001,61.3625027 C129.882665,61.7891715 129.496003,62.2025007 129.096001,62.6025027 L127.856001,63.8425027 C126.469327,64.0025035 125.18934,63.9358375 124.016001,63.6425027 C122.842661,63.3491679 121.802672,62.7491739 120.896001,61.8425027 C120.575999,61.0958323 120.389334,60.3491731 120.336001,59.6025027 C120.282667,58.8558323 120.282667,58.0825067 120.336001,57.2825027 C120.602669,54.8824907 121.002665,52.5225143 121.536001,50.2025027 C122.069337,47.8824911 122.682664,45.5491811 123.376001,43.2025027 C124.176005,40.3224883 125.402659,37.3358515 127.056001,34.2425027 C127.322669,33.6024995 127.695998,32.9625059 128.176001,32.3225027 Z M134.336001,28.8825027 C133.482663,28.6158347 132.776003,28.2425051 132.216001,27.7625027 C131.655998,27.2825003 131.08267,26.7225059 130.496001,26.0825027 C130.496001,25.8158347 130.469334,25.5491707 130.416001,25.2825027 L130.256001,24.4825027 C130.682669,23.4691643 131.349329,22.6425059 132.256001,22.0025027 C133.216005,22.5891723 134.189329,23.0825007 135.176001,23.4825027 C136.162672,23.8825047 137.02933,24.5358315 137.776001,25.4425027 C137.722667,25.8158379 137.682667,26.1891675 137.656001,26.5625027 C137.629334,26.9358379 137.616001,27.2558347 137.616001,27.5225027 C137.189332,28.1091723 136.696003,28.4558355 136.136001,28.5625027 C135.575998,28.6691699 134.976004,28.7758355 134.336001,28.8825027 Z M151.776001,47.2025027 C152.042669,46.9358347 152.322666,46.7091703 152.616001,46.5225027 C152.909335,46.3358351 153.189333,46.1091707 153.456001,45.8425027 C157.029352,42.0024835 160.869313,38.3225203 164.976001,34.8025027 C165.829338,34.0558323 166.695996,33.3358395 167.576001,32.6425027 C168.456005,31.9491659 169.349329,31.2291731 170.256001,30.4825027 C170.362668,30.4825027 170.509333,30.4691695 170.696001,30.4425027 C170.882668,30.4158359 171.056,30.4291691 171.216001,30.4825027 C172.336006,30.7491707 173.455995,31.0425011 174.576001,31.3625027 C175.696006,31.6825043 176.762662,31.9758347 177.776001,32.2425027 C178.202669,32.6691715 178.509333,33.1091671 178.696001,33.5625027 C178.882668,34.0158383 178.976001,34.4691671 178.976001,34.9225027 C178.976001,35.3758383 178.949334,35.8158339 178.896001,36.2425027 L178.736001,37.5225027 C178.415999,38.4291739 178.122669,39.3091651 177.856001,40.1625027 C177.589333,41.0158403 177.269336,41.8691651 176.896001,42.7225027 C176.629333,43.5225067 176.376002,44.3358319 176.136001,45.1625027 C175.895999,45.9891735 175.616002,46.8024987 175.296001,47.6025027 C175.189333,48.0291715 175.056001,48.6424987 174.896001,49.4425027 C174.736,50.2425067 174.562668,51.0691651 174.376001,51.9225027 C174.189333,52.7758403 174.016001,53.6024987 173.856001,54.4025027 C173.696,55.2025067 173.562668,55.8425003 173.456001,56.3225027 C173.776002,56.2158355 174.295997,55.7758399 175.016001,55.0025027 C175.736004,54.2291655 176.495997,53.3625075 177.296001,52.4025027 C178.096005,51.4424979 178.829331,50.5358403 179.496001,49.6825027 C180.162671,48.8291651 180.602666,48.2691707 180.816001,48.0025027 L182.416001,46.0825027 C182.682669,45.8158347 182.962666,45.5491707 183.256001,45.2825027 C183.549335,45.0158347 183.829333,44.7491707 184.096001,44.4825027 C184.629337,44.4291691 185.109332,44.3891695 185.536001,44.3625027 C185.962669,44.3358359 186.442665,44.2958363 186.976001,44.2425027 C187.082668,44.4025035 187.216,44.5625019 187.376001,44.7225027 C187.536001,44.8825035 187.669333,45.0425019 187.776001,45.2025027 C187.882668,45.5225043 187.936001,45.7091691 187.936001,45.7625027 C188.096001,46.7225075 187.829337,47.4691667 187.136001,48.0025027 C186.495997,48.5891723 185.936003,49.2024995 185.456001,49.8425027 C184.975998,50.4825059 184.496003,51.1491659 184.016001,51.8425027 C183.749333,52.2158379 183.242671,52.8958311 182.496001,53.8825027 C181.74933,54.8691743 180.936005,55.9091639 180.056001,57.0025027 C179.175996,58.0958415 178.362671,59.1358311 177.616001,60.1225027 C176.86933,61.1091743 176.362669,61.7891675 176.096001,62.1625027 C175.775999,62.5891715 175.456002,62.8691687 175.136001,63.0025027 C174.815999,63.1358367 174.496002,63.2558355 174.176001,63.3625027 C173.855999,63.4691699 173.549335,63.6025019 173.256001,63.7625027 C172.962666,63.9225035 172.709335,64.2425003 172.496001,64.7225027 C172.442667,64.8291699 172.376001,64.9225023 172.296001,65.0025027 L172.016001,65.2825027 C171.429331,65.2291691 170.856003,65.1891695 170.296001,65.1625027 C169.735998,65.1358359 169.16267,65.0691699 168.576001,64.9625027 C167.722663,64.8025019 166.882671,64.6158371 166.056001,64.4025027 C165.22933,64.1891683 164.469337,63.6825067 163.776001,62.8825027 C163.669333,62.0291651 163.522668,61.1358407 163.336001,60.2025027 C163.149333,59.2691647 163.002668,58.3491739 162.896001,57.4425027 C162.736,56.6958323 162.709333,55.8425075 162.816001,54.8825027 C162.922668,53.7624971 163.042667,52.5891755 163.176001,51.3625027 C163.309335,50.1358299 163.429333,48.8825091 163.536001,47.6025027 C163.589334,47.3358347 163.629334,47.0158379 163.656001,46.6425027 C163.682667,46.2691675 163.589335,45.9491707 163.376001,45.6825027 C163.216,45.6825027 163.136001,45.7091691 163.136001,45.7625027 C162.229329,46.6691739 161.362671,47.5891647 160.536001,48.5225027 C159.70933,49.4558407 158.896005,50.4024979 158.096001,51.3625027 C157.829333,51.6291707 157.589335,51.8958347 157.376001,52.1625027 C157.162666,52.4291707 156.922669,52.6958347 156.656001,52.9625027 C155.749329,54.0825083 154.842672,55.2158303 153.936001,56.3625027 C153.029329,57.5091751 152.122672,58.6424971 151.216001,59.7625027 C151.109333,60.0291707 150.922669,60.2558351 150.656001,60.4425027 C150.389333,60.6291703 150.149335,60.8025019 149.936001,60.9625027 C149.509332,61.1225035 149.096003,61.2691687 148.696001,61.4025027 L147.616001,61.7625027 C147.509333,62.0291707 147.429334,62.2691683 147.376001,62.4825027 C147.322667,62.6958371 147.242668,62.9091683 147.136001,63.1225027 C146.922666,63.2291699 146.696002,63.3091691 146.456001,63.3625027 C146.215999,63.4158363 145.962669,63.4958355 145.696001,63.6025027 C145.429333,63.7091699 145.176002,63.8425019 144.936001,64.0025027 C144.695999,64.1625035 144.442669,64.3225019 144.176001,64.4825027 C143.642665,64.2691683 143.096003,64.0958367 142.536001,63.9625027 C141.975998,63.8291687 141.416003,63.6825035 140.856001,63.5225027 C140.295998,63.3625019 139.749337,63.1491707 139.216001,62.8825027 C138.682665,62.6158347 138.229336,62.2158387 137.856001,61.6825027 C137.482665,60.6158307 137.282667,59.5358415 137.256001,58.4425027 C137.229334,57.3491639 137.269333,56.1891755 137.376001,54.9625027 C137.696002,52.5624907 138.109331,50.2158475 138.616001,47.9225027 C139.12267,45.6291579 139.669331,43.2825147 140.256001,40.8825027 C140.629336,39.2824947 141.122664,37.7491767 141.736001,36.2825027 C142.349337,34.8158287 143.02933,33.3358435 143.776001,31.8425027 C144.096002,31.1491659 144.522665,30.4558395 145.056001,29.7625027 C145.216001,29.4958347 145.402666,29.2558371 145.616001,29.0425027 L146.176001,28.4825027 C146.602669,28.2691683 147.002665,28.1758359 147.376001,28.2025027 C147.749336,28.2291695 148.069333,28.2958355 148.336001,28.4025027 C149.189338,28.6691707 150.02933,28.9358347 150.856001,29.2025027 C151.682671,29.4691707 152.602662,29.7891675 153.616001,30.1625027 C153.776001,30.3758371 153.975999,30.6158347 154.216001,30.8825027 C154.456002,31.1491707 154.682666,31.4158347 154.896001,31.6825027 C154.896001,31.9491707 154.909334,32.2025015 154.936001,32.4425027 C154.962667,32.6825039 154.949334,32.9358347 154.896001,33.2025027 C154.469332,35.2291795 154.042669,37.2158263 153.616001,39.1625027 C153.189332,41.1091791 152.602671,43.0158267 151.856001,44.8825027 C151.642666,45.6825067 151.562667,46.4291659 151.616001,47.1225027 C151.135998,47.4425043 151.082665,47.6025027 151.456001,47.6025027 C151.509334,47.6025027 151.549334,47.5625031 151.576001,47.4825027 C151.602667,47.4025023 151.669333,47.3091699 151.776001,47.2025027 Z M146.894335,45.7262731 C147.243577,45.5388542 147.48413,45.3242655 147.616001,45.0825027 C147.776001,44.7891679 147.856001,44.4825043 147.856001,44.1625027 C147.856001,43.8425011 147.829334,43.5225043 147.776001,43.2025027 C147.722667,42.8825011 147.696001,42.5625043 147.696001,42.2425027 C148.28267,41.9758347 148.576001,41.5758387 148.576001,41.0425027 C148.576001,40.6986301 148.587086,40.3547608 148.609258,40.0108906 C148.297203,40.2813768 148.112785,40.5585794 148.056001,40.8425027 C147.976,41.2425047 147.856001,41.7091667 147.696001,42.2425027 C147.055997,42.8825059 146.762667,43.5091663 146.816001,44.1225027 C146.861638,44.6473328 146.887749,45.181919 146.894335,45.7262731 L146.894335,45.7262731 Z M148.993386,39.2393657 C149.556182,38.85395 149.803718,38.4016654 149.736001,37.8825027 C149.668565,37.3654944 149.591656,36.8011229 149.505272,36.1893758 C148.956072,36.6273255 148.712983,37.0983649 148.776001,37.6025027 C148.839945,38.1140535 148.912406,38.659671 148.993386,39.2393657 L148.993386,39.2393657 Z M149.988113,35.6923213 C150.607201,35.4839634 151.043161,35.2006921 151.296001,34.8425027 C151.616002,34.3891671 151.722668,33.8158395 151.616001,33.1225027 C151.402666,32.8558347 151.029337,32.7225027 150.496001,32.7225027 C149.74933,33.0425043 149.456,33.4958331 149.616001,34.0825027 C149.762349,34.6191118 149.886385,35.1557135 149.988113,35.6923213 L149.988113,35.6923213 Z M146.715687,46.1870745 C146.52001,46.3922173 146.340116,46.5973588 146.176001,46.8025027 C145.962666,47.0691707 146.069333,47.3891675 146.496001,47.7625027 C146.720705,47.3130945 146.793933,46.7879556 146.715687,46.1870745 L146.715687,46.1870745 Z M209.296001,65.3625027 C209.029333,65.5758371 208.816001,65.7758351 208.656001,65.9625027 C208.496,66.1491703 208.309335,66.3225019 208.096001,66.4825027 C207.829333,67.0158387 207.576002,67.5624999 207.336001,68.1225027 C207.095999,68.6825055 206.976001,69.2824995 206.976001,69.9225027 C206.22933,71.3091763 205.442671,72.7091623 204.616001,74.1225027 C203.78933,75.5358431 202.949338,76.9624955 202.096001,78.4025027 C201.936,78.8291715 201.696002,79.1891679 201.376001,79.4825027 C201.055999,79.7758375 200.736002,80.0825011 200.416001,80.4025027 C200.149333,80.7758379 199.909335,81.1625007 199.696001,81.5625027 C199.482666,81.9625047 199.242669,82.3225011 198.976001,82.6425027 C198.122663,83.5491739 197.229339,84.4158319 196.296001,85.2425027 C195.362663,86.0691735 194.256007,86.6691675 192.976001,87.0425027 C192.709333,87.0958363 192.442669,87.1891687 192.176001,87.3225027 C191.909333,87.4558367 191.642669,87.5758355 191.376001,87.6825027 C190.575997,87.3625011 189.736005,87.1891695 188.856001,87.1625027 C187.975996,87.1358359 187.082672,86.9091715 186.176001,86.4825027 C186.069333,85.8424995 185.989334,85.3891707 185.936001,85.1225027 C186.042668,84.9625019 186.136,84.7891703 186.216001,84.6025027 C186.296001,84.4158351 186.389333,84.2691699 186.496001,84.1625027 C188.256009,82.2424931 189.722661,80.2158467 190.896001,78.0825027 C192.602676,75.0424875 194.069328,71.9225187 195.296001,68.7225027 C196.522673,65.5224867 197.615996,62.2691859 198.576001,58.9625027 C198.789335,58.3758331 198.976,57.8158387 199.136001,57.2825027 C199.296001,56.7491667 199.482666,56.1891723 199.696001,55.6025027 C199.802668,55.0691667 199.909333,54.5758383 200.016001,54.1225027 C200.122668,53.6691671 200.282666,53.1491723 200.496001,52.5625027 C200.229333,52.6158363 200.029335,52.6425027 199.896001,52.6425027 C199.762667,52.6425027 199.642668,52.6958355 199.536001,52.8025027 C198.895997,53.3891723 198.242671,53.9358335 197.576001,54.4425027 C196.909331,54.9491719 196.256004,55.4958331 195.616001,56.0825027 C194.975997,56.6158387 194.296004,57.0025015 193.576001,57.2425027 C192.855997,57.4825039 192.042672,57.5225035 191.136001,57.3625027 L190.576001,57.3625027 C189.349328,57.5225035 188.242672,57.3625051 187.256001,56.8825027 C186.269329,56.4025003 185.322672,55.8425059 184.416001,55.2025027 C183.189328,54.3491651 182.416002,53.2558427 182.096001,51.9225027 C182.042667,51.6558347 181.989334,51.4291703 181.936001,51.2425027 C181.882667,51.0558351 181.829334,50.9091699 181.776001,50.8025027 C181.936001,48.5091579 182.349331,46.3758459 183.016001,44.4025027 C183.682671,42.4291595 184.495996,40.5091787 185.456001,38.6425027 C186.469339,36.8291603 187.615994,35.2158431 188.896001,33.8025027 C190.176007,32.3891623 191.722658,31.2025075 193.536001,30.2425027 C194.496005,29.6558331 195.482662,29.2291707 196.496001,28.9625027 C197.509339,28.6958347 198.682661,28.6958347 200.016001,28.9625027 C200.922672,29.6558395 201.855996,30.3758323 202.816001,31.1225027 C203.776001,31.8691731 204.709329,32.7491643 205.616001,33.7625017 C205.882669,33.6025019 206.135999,33.4425035 206.376001,33.2825027 C206.616002,33.1225019 206.869333,32.9625035 207.136001,32.8025027 C207.509336,32.9091699 207.869332,33.0025023 208.216001,33.0825027 C208.562669,33.1625031 208.922665,33.2825019 209.296001,33.4425027 C209.562669,33.2825019 209.842666,33.1491699 210.136001,33.0425027 C210.429335,32.9358355 210.735999,32.7758371 211.056001,32.5625027 L212.816001,33.6825027 C213.40267,34.0558379 213.962665,34.5358331 214.496001,35.1225027 C214.496001,35.4425043 214.469334,35.7091683 214.416001,35.9225027 C214.416001,36.0291699 214.376001,36.1358355 214.296001,36.2425027 C214.216,36.3491699 214.149334,36.4825019 214.096001,36.6425027 C214.202668,38.0291763 214.256001,39.4158291 214.256001,40.8025027 C214.256001,42.1891763 214.122669,43.5758291 213.856001,44.9625027 C213.749333,45.3891715 213.696001,45.8425003 213.696001,46.3225027 C213.696001,46.8025051 213.669334,47.2558339 213.616001,47.6825027 C213.562667,47.9491707 213.549334,48.2158347 213.576001,48.4825027 C213.602667,48.7491707 213.562668,49.0158347 213.456001,49.2825027 C213.135999,50.2958411 212.896001,51.3091643 212.736001,52.3225027 C212.576,53.3358411 212.389335,54.3758307 212.176001,55.4425027 C212.069333,56.2958403 211.896002,57.1224987 211.656001,57.9225027 C211.415999,58.7225067 211.136002,59.5491651 210.816001,60.4025027 C210.549333,61.2025067 210.296002,62.0291651 210.056001,62.8825027 C209.815999,63.7358403 209.562669,64.5624987 209.296001,65.3625027 Z M199.456001,37.1225027 L199.056001,37.9225027 C198.896,38.2425043 198.629336,38.5358347 198.256001,38.8025027 C197.989333,38.9091699 197.829334,39.0691683 197.776001,39.2825027 C197.455999,39.7625051 197.149335,40.2158339 196.856001,40.6425027 C196.562666,41.0691715 196.256002,41.4958339 195.936001,41.9225027 C195.295997,42.6691731 194.776003,43.5091647 194.376001,44.4425027 C193.975999,45.3758407 193.536003,46.2958315 193.056001,47.2025027 C192.789333,47.5758379 192.589335,48.0025003 192.456001,48.4825027 C192.322667,48.9625051 192.176001,49.4425003 192.016001,49.9225027 C192.122668,49.9225027 192.229333,49.9491691 192.336001,50.0025027 C192.442668,50.0558363 192.549333,50.0558363 192.656001,50.0025027 C193.24267,49.5758339 193.829331,49.1625047 194.416001,48.7625027 C195.00267,48.3625007 195.562665,47.9225051 196.096001,47.4425027 C197.429341,46.2158299 198.775994,44.9891755 200.136001,43.7625027 C201.496007,42.5358299 202.709329,41.2291763 203.776001,39.8425027 C204.042669,39.0958323 204.295999,38.3758395 204.536001,37.6825027 C204.776002,36.9891659 204.896001,36.2691731 204.896001,35.5225027 C204.522665,35.0958339 204.176002,34.9091691 203.856001,34.9625027 C203.535999,35.0158363 203.189336,35.1491683 202.816001,35.3625027 C202.335998,35.6291707 201.816003,35.8825015 201.256001,36.1225027 C200.695998,36.3625039 200.096004,36.6958339 199.456001,37.1225027 Z M210.736001,45.2825027 L210.736001,46.6425027 C210.469333,46.2158339 210.469333,45.7625051 210.736001,45.2825027 Z" id="path-2"></path>
    </defs>
    <g id="Design" stroke="none" stroke-width="1" fill="none" fill-rule="evenodd">
        <g id="Desktop-HD-Copy-5" transform="translate(-436.000000, -3910.000000)" fill-rule="nonzero">
            <g id="Group-18" transform="translate(434.000000, 3904.000000)">
                <g id="Group-14">
                    <g id="Styling" transform="translate(108.248000, 45.822502) rotate(-2.000000) translate(-108.248000, -45.822502) ">
                        <use fill="#000000" xlink:href="#path-2"></use>
                        <use fill="url(#linearGradient-1)" xlink:href="#path-2"></use>
                    </g>
                    <path d="M186.010942,37 C186.395331,36.7945658 186.804977,36.5749929 187.239892,36.3412753 C187.689131,36.0998605 188.111409,35.828273 188.506739,35.5265045 C189.045825,35.1945592 189.584903,34.8852511 190.123989,34.5985711 C190.663076,34.311891 191.184185,34.002583 191.687332,33.6706376 C192.477991,33.3085155 193.187778,32.9237664 193.816712,32.516379 C194.445646,32.1089916 195.101524,31.6940661 195.784367,31.2715903 C195.856245,31.2112366 195.901168,31.1584279 195.919137,31.1131626 C195.937107,31.0678973 195.964061,31.0301768 196,31 L195.622642,31 C193.933505,31.6337138 192.406117,32.3805796 191.040431,33.2406197 C189.674746,34.1006599 188.327051,34.953143 186.997305,35.7980947 C186.709792,35.948979 186.458222,36.1375815 186.242588,36.3639078 C186.046515,36.5697022 185.969301,36.7817312 186.010942,37 L186.010942,37 Z" id="Path" fill="#FFFFFF" transform="translate(191.000000, 34.000000) rotate(-23.000000) translate(-191.000000, -34.000000) "></path>
                    <path d="M112.964631,14.6636124 L112.884631,14.7436124 C112.191294,15.7569508 111.631299,16.83694 111.204631,17.9836124 C110.777962,19.1302848 110.404632,20.343606 110.084631,21.6236124 C110.084631,21.676946 110.137963,21.810278 110.244631,22.0236124 C110.511299,21.9702788 110.697963,21.8236136 110.804631,21.5836124 C110.911298,21.3436112 111.017963,21.0902804 111.124631,20.8236124 C111.391299,19.9169412 111.671296,19.0769496 111.964631,18.3036124 C112.257965,17.5302752 112.537963,16.71695 112.804631,15.8636124 C112.911298,15.5969444 112.964631,15.3569468 112.964631,15.1436124 L112.964631,14.6636124 L112.964631,14.6636124 Z" id="Path" fill="#FFFFFF"></path>
                    <path d="M112.964621,14.3855257 L113.855842,14.1627204 C113.962509,13.7893852 114.015842,13.4693884 114.015842,13.2027204 C114.015842,12.9360524 113.802511,12.7493876 113.375842,12.6427204 C113.016836,13.0017267 112.879763,13.5826563 112.964621,14.3855257 L112.964621,14.3855257 Z" id="Path" fill="#FFFFFF"></path>
                </g>
            </g>
        </g>
    </g>
</svg>