<?xml version="1.0" encoding="UTF-8"?>
<svg width="284px" height="115px" viewBox="0 0 284 115" version="1.1" xmlns="http://www.w3.org/2000/svg" xmlns:xlink="http://www.w3.org/1999/xlink">
    <!-- Generator: Sketch 58 (84663) - https://sketch.com -->
    <title>Group 29</title>
    <desc>Created with Sketch.</desc>
    <defs>
        <linearGradient x1="0%" y1="50%" x2="99.2634596%" y2="51.4490709%" id="linearGradient-1">
            <stop stop-color="#F82E94" offset="0%"></stop>
            <stop stop-color="#FF9E33" offset="100%"></stop>
        </linearGradient>
        <path d="M56.562001,13.9150006 C55.7553303,14.9416724 54.747007,15.8216636 53.537001,16.5550006 C52.3269949,17.2883376 51.0620076,17.948331 49.742001,18.5350006 C47.6153237,19.7816735 45.5070114,21.064994 43.417001,22.3850006 C41.3269905,23.7050072 39.3286772,25.0616603 37.422001,26.4550006 C35.5153248,27.9950083 33.6270103,29.5716592 31.757001,31.1850006 C29.8869916,32.798342 28.218675,34.4849918 26.752001,36.2450006 C26.1653314,36.9050039 25.5420043,37.4916647 24.882001,38.0050006 C24.2219977,38.5183365 23.4886717,39.1049973 22.682001,39.7650006 C22.4619999,40.1316691 22.2053358,40.5533316 21.912001,41.0300006 C21.6186662,41.5066697 21.3253358,42.038331 21.032001,42.6250006 C20.8119999,42.771668 20.5003363,42.9366664 20.097001,43.1200006 C19.6936656,43.3033349 19.3453358,43.4683332 19.052001,43.6150006 C18.8319999,44.2016702 18.5936689,44.7699979 18.337001,45.3200006 C18.080333,45.8700034 17.8786684,46.438331 17.732001,47.0250006 C17.3653325,47.5383365 17.0536689,48.0149984 16.797001,48.4550006 C16.540333,48.8950028 16.2286695,49.3349984 15.862001,49.7750006 C16.2286695,50.1416691 16.5953325,50.3616669 16.962001,50.4350006 C17.3286695,50.5083343 17.7686651,50.471668 18.282001,50.3250006 C19.2353391,50.1783332 20.078664,50.0500012 20.812001,49.9400006 C21.545338,49.8300001 22.3519966,49.701668 23.232001,49.5550006 C23.8186706,49.4083332 24.4236645,49.3166675 25.047001,49.2800006 C25.6703374,49.2433338 26.2753314,49.151668 26.862001,49.0050006 C29.2086794,48.7849995 31.4636568,48.5650017 33.627001,48.3450006 C35.7903451,48.1249995 38.0086563,47.9783343 40.282001,47.9050006 L46.277001,47.9050006 C48.220344,47.9050006 50.1453248,48.1249984 52.052001,48.5650006 C52.5653369,48.711668 53.0786651,48.8766664 53.592001,49.0600006 C54.1053369,49.2433349 54.5453325,49.4449995 54.912001,49.6650006 C56.1586739,50.3250039 57.3319955,50.9666642 58.432001,51.5900006 C59.5320065,52.2133371 60.5953292,52.818331 61.622001,53.4050006 C62.1353369,54.285005 62.5569993,54.9816647 62.887001,55.4950006 C63.2170026,56.0083365 63.4370004,56.4849984 63.547001,56.9250006 C63.6570015,57.3650028 63.712001,57.8599979 63.712001,58.4100006 L63.712001,60.6650006 C63.5653336,61.1783365 63.1986706,61.6549984 62.612001,62.0950006 C62.0253314,62.5350028 61.8786662,63.048331 62.172001,63.6350006 C61.2186629,64.6616724 60.4120043,65.6699957 59.752001,66.6600006 C59.0919977,67.6500056 58.2486728,68.6216625 57.222001,69.5750006 C55.8286607,70.8216735 54.4353413,72.104994 53.042001,73.4250006 C51.6486607,74.7450072 50.1086761,76.0283277 48.422001,77.2750006 C46.1486563,78.9616757 43.8570125,80.5933261 41.547001,82.1700006 C39.2369894,83.7466752 36.5420164,85.1583277 33.462001,86.4050006 C32.6553303,86.6983354 31.8303385,87.0283321 30.987001,87.3950006 C30.1436634,87.7616691 29.3186717,88.2016647 28.512001,88.7150006 C28.1453325,88.7150006 27.7786695,88.6783343 27.412001,88.6050006 C27.0453325,88.5316669 26.7153358,88.4950006 26.422001,88.4950006 C26.3486673,88.7150017 26.2020021,88.9166664 25.982001,89.1000006 C25.7619999,89.2833349 25.5420021,89.5583321 25.322001,89.9250006 C24.5153303,89.9250006 23.4520076,90.1083321 22.132001,90.4750006 C21.6919988,90.621668 21.3253358,90.7866664 21.032001,90.9700006 C20.7386662,91.1533349 20.4453358,91.3916658 20.152001,91.6850006 C19.1986629,91.7583343 18.2820054,91.8316669 17.402001,91.9050006 C16.5219966,91.9783343 15.5686728,92.0883332 14.542001,92.2350006 C11.9753215,92.1616669 9.6470114,91.7400045 7.55700095,90.9700006 C5.4669905,90.1999968 3.50534345,89.1183409 1.67200095,87.7250006 C1.08533135,87.138331 0.6270026,86.5150039 0.29700095,85.8550006 C-0.0330006996,85.1949973 -0.0880001496,84.3883387 0.13200095,83.4350006 L0.51700095,83.0500006 C0.6270015,82.9400001 0.79199985,82.8483343 1.01200095,82.7750006 C1.52533685,82.8483343 1.910333,82.8850006 2.16700095,82.8850006 C2.4236689,82.8850006 2.69866615,82.9583332 2.99200095,83.1050006 C3.57867055,83.5450028 4.16533135,84.0033316 4.75200095,84.4800006 C5.33867055,84.9566697 5.96199765,85.4149984 6.62200095,85.8550006 C7.64867275,85.8550006 8.60199655,85.7633349 9.48200095,85.5800006 C10.3620054,85.3966664 11.2419966,85.1216691 12.122001,84.7550006 C15.1286827,83.7283288 17.9336546,82.6100067 20.537001,81.4000006 C23.1403473,80.1899946 25.7253215,78.8883409 28.292001,77.4950006 C31.5186838,75.6616581 34.5436535,73.7183442 37.367001,71.6650006 C40.1903484,69.611657 42.8853215,67.5216779 45.452001,65.3950006 C47.2120098,63.7816592 48.7886607,62.1316757 50.182001,60.4450006 C51.5753413,58.7583255 52.6019977,56.9616768 53.262001,55.0550006 C53.5553358,54.6149984 53.8119999,54.2116691 54.032001,53.8450006 C54.032001,53.7716669 53.9953347,53.6800012 53.922001,53.5700006 C53.8486673,53.4600001 53.812001,53.2950017 53.812001,53.0750006 C52.8586629,53.0016669 52.1620032,52.891668 51.722001,52.7450006 C50.1086596,52.8183343 48.6603407,52.8550006 47.377001,52.8550006 C46.0936612,52.8550006 44.8286739,52.9283332 43.582001,53.0750006 C42.2619944,53.2950017 40.9786739,53.4966664 39.732001,53.6800006 C38.4853281,53.8633349 37.3486728,53.881668 36.322001,53.7350006 C33.5353204,54.7616724 30.7120153,55.4766653 27.852001,55.8800006 C24.9919867,56.283336 22.1686816,56.778331 19.382001,57.3650006 C18.7219977,57.2916669 18.0620043,57.2000012 17.402001,57.0900006 C16.7419977,56.9800001 16.045338,56.9250006 15.312001,56.9250006 C13.1853237,56.7049995 11.2236766,56.1733382 9.42700095,55.3300006 C7.6303253,54.4866631 5.99867495,53.5150061 4.53200095,52.4150006 C3.94533135,51.9749984 3.41367,51.4250039 2.93700095,50.7650006 C2.4603319,50.1049973 2.22200095,49.4816702 2.22200095,48.8950006 C2.07533355,47.3549929 2.14866615,45.9066741 2.44200095,44.5500006 C2.73533575,43.1933272 3.32199655,41.8550072 4.20200095,40.5350006 C4.71533685,39.7283299 5.08199985,39.0316702 5.30200095,38.4450006 C6.10867165,36.9049929 7.0436623,35.4566741 8.10700095,34.1000006 C9.1703396,32.7433272 10.4719933,31.5516724 12.012001,30.5250006 C12.5253369,29.938331 12.9653325,29.3883365 13.332001,28.8750006 C13.6986695,28.3616647 14.1386651,27.8850028 14.652001,27.4450006 L17.347001,24.7500006 C18.1903385,23.9066631 19.1253292,23.0816713 20.152001,22.2750006 C24.6253567,18.5349819 29.4469751,15.125016 34.617001,12.0450006 C39.7870268,8.96498522 45.4519702,6.21501272 51.612001,3.79500062 C52.345338,3.42833212 53.0969971,3.08000227 53.867001,2.75000062 C54.6370048,2.41999897 55.4619966,2.18166802 56.342001,2.03500062 C57.808675,1.44833102 59.3669927,0.935002819 61.017001,0.495000619 C62.6670092,0.0549984188 64.6286563,-0.0916667812 66.902001,0.0550006188 C67.4886706,0.128334319 68.1669971,0.329998969 68.937001,0.660000619 C69.7070048,0.990002269 70.458664,1.44833102 71.192001,2.03500062 C72.9520098,3.13500612 74.7119922,4.27166142 76.472001,5.44500062 C76.7653358,5.59166802 77.040333,5.75666637 77.297001,5.94000062 C77.5536689,6.12333487 77.7919999,6.28833322 78.012001,6.43500062 C79.3320076,7.46167242 80.2486651,8.52499512 80.762001,9.62500062 C81.2753369,10.7250061 81.1286717,11.934994 80.322001,13.2550006 C80.1753336,13.6216691 80.0653347,13.9516658 79.992001,14.2450006 C79.9186673,14.5383354 79.8086684,14.7949995 79.662001,15.0150006 C79.0753314,15.8216713 78.5253369,16.6099968 78.012001,17.3800006 C77.4986651,18.1500045 76.7286728,18.828331 75.702001,19.4150006 C75.5553336,20.295005 75.1336711,21.0466642 74.437001,21.6700006 C73.7403308,22.2933371 72.9520054,22.898331 72.072001,23.4850006 C71.6319988,23.8516691 71.2836689,24.2549984 71.027001,24.6950006 C70.770333,25.1350028 70.4586695,25.5383321 70.092001,25.9050006 C68.5519933,27.2983409 67.0670081,28.6366609 65.637001,29.9200006 C64.2069938,31.2033404 62.7220087,32.504994 61.182001,33.8250006 C59.715327,35.0716735 58.1020098,36.2083288 56.342001,37.2350006 C54.5819922,38.2616724 52.968675,39.4716603 51.502001,40.8650006 C51.502001,40.9383343 51.3370026,40.9933338 51.007001,41.0300006 C50.6769993,41.0666675 50.4386684,41.1583332 50.292001,41.3050006 C48.09199,41.0849995 46.0020109,40.8466686 44.022001,40.5900006 C42.0419911,40.3333327 40.4286739,39.4350083 39.182001,37.8950006 C41.2353446,35.9149907 43.2886574,33.9716768 45.342001,32.0650006 C47.3953446,30.1583244 49.4853237,28.2516768 51.612001,26.3450006 C52.8586739,24.8783266 54.1236612,23.4300078 55.407001,22 C56.6903407,20.5699935 57.9553281,19.1216746 59.202001,17.6550006 C59.5686695,17.2149984 60.0086651,16.7750028 60.522001,16.3350006 C61.0353369,15.8949984 61.5486651,15.3816702 62.062001,14.7950006 C62.062001,14.6483332 62.0986673,14.4466686 62.172001,14.1900006 C62.2453347,13.9333327 62.282001,13.6216691 62.282001,13.2550006 C61.9886662,13.1816669 61.7320021,13.1083343 61.512001,13.0350006 C61.2919999,12.9616669 61.1086684,12.9250006 60.962001,12.9250006 C60.1553303,13.071668 59.4036711,13.2366664 58.707001,13.4200006 C58.0103308,13.6033349 57.295338,13.7683332 56.562001,13.9150006 Z M28.4793269,25.8557881 C29.2636728,25.356556 30.0995563,24.8229652 30.987001,24.2550006 C31.9036722,23.668331 32.7653303,23.0083376 33.572001,22.2750006 C34.6720065,21.4683299 35.7719955,20.7166708 36.872001,20.0200006 C37.9720065,19.3233305 39.0353292,18.5716713 40.062001,17.7650006 C41.6753424,16.8849962 43.1236612,15.9500056 44.407001,14.9600006 C45.6903407,13.9699957 47.0286607,12.9616724 48.422001,11.9350006 C48.5686684,11.7883332 48.6603341,11.6600012 48.697001,11.5500006 C48.7336678,11.4400001 48.7886673,11.3483343 48.862001,11.2750006 L48.092001,11.2750006 C44.6453171,12.8150083 41.5286816,14.6299902 38.742001,16.7200006 C35.9553204,18.8100111 33.2053479,20.881657 30.492001,22.9350006 C29.9053314,23.3016691 29.3920032,23.7599979 28.952001,24.3100006 C28.5519151,24.810108 28.3943582,25.3253662 28.4793269,25.8557881 L28.4793269,25.8557881 Z M79.992001,82.3350006 C79.4053314,82.5550017 78.8186706,82.7383332 78.232001,82.8850006 C77.6453314,83.031668 77.0220043,83.1783332 76.362001,83.3250006 C75.3353292,82.9583321 74.2903396,82.4450039 73.227001,81.7850006 C72.1636623,81.1249973 71.0820065,80.3916713 69.982001,79.5850006 C69.7619999,77.6783244 69.5786684,75.7350105 69.432001,73.7550006 C69.2853336,71.7749907 69.3219999,69.7583442 69.542001,67.7050006 C69.9086695,64.4783178 70.2753325,61.2700166 70.642001,58.0800006 C71.0086695,54.8899847 71.5219977,51.6450171 72.182001,48.3450006 C72.6220032,45.4849863 73.1536645,42.6250149 73.777001,39.7650006 C74.4003374,36.9049863 75.0053314,34.0816812 75.592001,31.2950006 L75.922001,29.3150006 C75.7753336,29.1683332 75.6470015,29.0033349 75.537001,28.8200006 C75.4270004,28.6366664 75.2986684,28.471668 75.152001,28.3250006 C74.9319999,28.3983343 74.7670015,28.4166675 74.657001,28.3800006 C74.5470004,28.3433338 74.4553347,28.3616669 74.382001,28.4350006 C73.3553292,29.3883387 72.3286728,30.029999 71.302001,30.3600006 C70.2753292,30.6900023 69.2486728,31.1116647 68.222001,31.6250006 C67.4153303,31.9916691 66.6636711,32.0650017 65.967001,31.8450006 C65.2703308,31.6249995 64.5186717,31.441668 63.712001,31.2950006 C62.9053303,30.708331 62.135338,30.0116713 61.402001,29.2050006 C60.668664,28.3983299 60.0453369,27.4083398 59.532001,26.2350006 C59.532001,25.3549962 59.7336656,24.713336 60.137001,24.3100006 C60.5403363,23.9066653 60.9619988,23.5950017 61.402001,23.3750006 C62.5753402,23.0083321 63.7303286,22.6600023 64.867001,22.3300006 C66.0036733,21.999999 67.1586618,21.6516691 68.332001,21.2850006 C70.0186761,20.9183321 71.723659,20.5700023 73.447001,20.2400006 C75.1703429,19.909999 76.9119922,19.5616691 78.672001,19.1950006 C78.9653358,18.608331 79.2219999,18.0400034 79.442001,17.4900006 C79.6620021,16.9399979 79.8819999,16.3716702 80.102001,15.7850006 C80.7620043,14.3183266 81.3853314,12.9066741 81.972001,11.5500006 C82.5586706,10.1933272 83.1819977,8.78167462 83.842001,7.31500062 L84.392001,6.21500062 C84.5386684,5.92166582 84.7036667,5.66500172 84.887001,5.44500062 C85.0703352,5.22499952 85.3086662,4.98666857 85.602001,4.73000062 C85.8953358,4.47333267 86.2986651,4.16166912 86.812001,3.79500062 C87.8386728,4.74833872 88.9203286,5.62832992 90.057001,6.43500062 C91.1936733,7.24167132 92.3119955,8.12166252 93.412001,9.07500062 C93.7786695,9.36833542 94.090333,9.75333157 94.347001,10.2300006 C94.6036689,10.7066697 94.9153325,11.1283321 95.282001,11.4950006 C95.282001,12.2283376 95.3003341,12.9616636 95.337001,13.6950006 C95.3736678,14.4283376 95.4286673,15.1983299 95.502001,16.0050006 C96.235338,16.2250017 96.9136645,16.1883354 97.537001,15.8950006 C98.1603374,15.6016658 98.7653314,15.4550006 99.352001,15.4550006 C100.818675,15.4550006 102.175328,15.3450017 103.422001,15.1250006 C104.155338,15.0516669 104.815331,14.9966675 105.402001,14.9600006 C105.988671,14.9233338 106.611998,14.8683343 107.272001,14.7950006 C108.005338,14.7216669 108.701998,14.6666675 109.362001,14.6300006 C110.022004,14.5933338 110.681998,14.5750006 111.342001,14.5750006 C112.002004,14.5016669 112.680331,14.4833338 113.377001,14.5200006 C114.073671,14.5566675 114.751998,14.5750006 115.412001,14.5750006 C116.145338,15.5283387 116.841998,16.4449962 117.502001,17.3250006 C118.162004,18.205005 118.675332,19.2683277 119.042001,20.5150006 C118.23533,21.1016702 117.483671,21.4500001 116.787001,21.5600006 C116.090331,21.6700012 115.375338,21.7250006 114.642001,21.7250006 C112.515324,21.7250006 110.425345,21.889999 108.372001,22.2200006 C106.318657,22.5500023 104.228678,22.8983321 102.102001,23.2650006 C100.855328,23.4850017 99.6453402,23.7233327 98.472001,23.9800006 C97.2986618,24.2366686 96.0886739,24.4383332 94.842001,24.5850006 C94.4753325,24.6583343 94.1453358,24.6766675 93.852001,24.6400006 C93.5586662,24.6033338 93.2286695,24.5483343 92.862001,24.4750006 C92.6419999,24.8416691 92.4036689,25.2266653 92.147001,25.6300006 C91.890333,26.033336 91.6886684,26.4183321 91.542001,26.7850006 L91.102001,28.3250006 C90.9553336,28.8383365 90.8086684,29.388331 90.662001,29.9750006 C90.0019977,32.6883475 89.3786706,35.3833206 88.792001,38.0600006 C88.2053314,40.7366807 87.545338,43.3583211 86.812001,45.9250006 C86.2986651,47.8316768 85.8770026,49.683325 85.547001,51.4800006 C85.2169993,53.2766763 84.8320032,55.1283244 84.392001,57.0350006 C84.0253325,58.7950006 83.7136689,60.573325 83.457001,62.3700006 C83.200333,64.1666763 82.8153369,65.8716592 82.302001,67.4850006 C81.9353325,68.7316735 81.6970015,69.9966609 81.587001,71.2800006 C81.4770004,72.5633404 81.2753358,73.8283277 80.982001,75.0750006 C80.7619999,76.1750061 80.5786684,77.3116614 80.432001,78.4850006 C80.2853336,79.6583398 80.1386684,80.9416603 79.992001,82.3350006 Z M77.9973926,37.4655087 C77.4941453,37.8300662 77.2606837,38.2665592 77.297001,38.7750006 C77.3292096,39.2259218 77.3189797,39.7051292 77.2663108,40.2126339 C77.6901062,39.8672973 77.902001,39.4614228 77.902001,38.9950006 C77.902001,38.5169647 77.9337979,38.0071385 77.9973926,37.4655087 L77.9973926,37.4655087 Z M77.1331258,40.4918542 C76.6950725,40.7810991 76.4930328,41.1804779 76.527001,41.6900006 C76.5598665,42.1829841 76.5780027,42.6906898 76.5814098,43.2131302 C77.0904094,42.8612637 77.3106043,42.4452241 77.242001,41.9650006 C77.176083,41.5035752 77.1397916,41.0125303 77.1331258,40.4918542 L77.1331258,40.4918542 Z M76.4439198,43.5388802 C76.1595853,43.8485112 75.9856138,44.1305492 75.922001,44.3850006 C75.6286662,45.4116724 75.3720021,46.4016625 75.152001,47.3550006 C74.9319999,48.3083387 74.7120021,49.2983288 74.492001,50.3250006 C73.9053314,52.8916801 73.4470026,55.5133206 73.117001,58.1900006 C72.7869993,60.8666807 72.4753358,63.5249874 72.182001,66.1650006 C72.1086673,66.5316691 72.1270004,66.879999 72.237001,67.2100006 C72.3470015,67.5400023 72.6219988,67.7416669 73.062001,67.8150006 C73.2820021,67.3749984 73.4286673,66.8250039 73.502001,66.1650006 C73.9420032,62.9383178 74.3453325,59.7300166 74.712001,56.5400006 C75.0786695,53.3499847 75.5919977,50.1783497 76.252001,47.0250006 C76.3986684,46.438331 76.4536678,45.8150039 76.417001,45.1550006 C76.3855764,44.5893592 76.3945493,44.0506563 76.4439198,43.5388802 L76.4439198,43.5388802 Z M78.012001,37.3450006 C78.3053358,37.0516658 78.5070004,36.7400023 78.617001,36.4100006 C78.7270015,36.079999 78.5620032,35.6216702 78.122001,35.0350006 C78.0486673,35.6216702 78.012001,36.079999 78.012001,36.4100006 L78.012001,37.3450006 Z M83.842001,16.5550006 L83.732001,16.6650006 C82.7786629,18.0583409 82.0086706,19.5433261 81.422001,21.1200006 C80.8353314,22.6966752 80.3220032,24.3649918 79.882001,26.1250006 C79.882001,26.1983343 79.9553336,26.3816658 80.102001,26.6750006 C80.4686695,26.6016669 80.7253336,26.4000023 80.872001,26.0700006 C81.0186684,25.739999 81.1653336,25.3916691 81.312001,25.0250006 C81.6786695,23.7783277 82.0636656,22.6233393 82.467001,21.5600006 C82.8703363,20.496662 83.2553325,19.3783398 83.622001,18.2050006 C83.7686684,17.8383321 83.842001,17.5083354 83.842001,17.2150006 L83.842001,16.5550006 L83.842001,16.5550006 Z M83.9365717,16.3113579 L85.162001,16.0050006 C85.3086684,15.4916647 85.382001,15.0516691 85.382001,14.6850006 C85.382001,14.3183321 85.0886706,14.061668 84.502001,13.9150006 C84.0083673,14.4086343 83.8198925,15.2074126 83.9365717,16.3113579 L83.9365717,16.3113579 Z M79.332001,32.8350006 C79.332001,32.6883332 79.2953347,32.541668 79.222001,32.3950006 C79.222001,32.541668 79.2036678,32.6516669 79.167001,32.7250006 C79.1303341,32.7983343 79.112001,32.8716669 79.112001,32.9450006 C79.112001,32.9450006 79.1853336,32.9083343 79.332001,32.8350006 Z M105.072001,61.3250006 C105.512003,60.9583321 105.878666,60.6650017 106.172001,60.4450006 C106.465336,60.2249995 106.795332,59.9683354 107.162001,59.6750006 C108.555341,57.9883255 109.911994,56.3016757 111.232001,54.6150006 C112.552008,52.9283255 113.908661,51.1683431 115.302001,49.3350006 C116.255339,48.014994 117.19033,46.7316735 118.107001,45.4850006 C119.023672,44.2383277 119.88533,42.9916735 120.692001,41.7450006 C121.425338,40.8649962 122.103665,39.9300056 122.727001,38.9400006 C123.350337,37.9499957 123.845332,36.8683398 124.212001,35.6950006 C124.578669,34.6683288 125.16533,33.8983365 125.972001,33.3850006 L128.392001,31.8450006 C129.56534,32.0650017 130.61033,32.468331 131.527001,33.0550006 C132.443672,33.6416702 133.451995,34.1916647 134.552001,34.7050006 C134.405334,35.1450028 134.332001,35.529999 134.332001,35.8600006 C134.332001,36.1900023 134.295335,36.648331 134.222001,37.2350006 C134.808671,38.6283409 135.065335,40.0399935 134.992001,41.4700006 C134.918667,42.9000078 134.808668,44.3849929 134.662001,45.9250006 C134.295332,48.271679 133.818671,50.6366554 133.232001,53.0200006 C132.645331,55.4033459 132.058671,57.7683222 131.472001,60.1150006 C130.811998,62.6816801 130.078672,65.1933217 129.272001,67.6500006 C128.46533,70.1066796 127.695338,72.5816548 126.962001,75.0750006 C126.742,75.8816713 126.412003,76.6883299 125.972001,77.4950006 C125.458665,78.0083365 125.202001,78.6316636 125.202001,79.3650006 C124.982,81.4183442 124.138675,83.0683277 122.672001,84.3150006 C122.598667,84.6816691 122.562001,85.0666653 122.562001,85.4700006 C122.562001,85.873336 122.525335,86.2583321 122.452001,86.6250006 C121.865331,87.505005 121.352003,88.3116636 120.912001,89.0450006 C120.471999,89.7783376 120.105336,90.438331 119.812001,91.0250006 C119.665334,91.8316713 119.555335,92.5466642 119.482001,93.1700006 C119.408667,93.7933371 119.298668,94.398331 119.152001,94.9850006 C118.491998,96.2316735 117.832004,97.4416614 117.172001,98.6150006 C116.511998,99.7883398 115.888671,100.998328 115.302001,102.245001 C115.155334,102.611669 114.990335,102.941666 114.807001,103.235001 C114.623667,103.528335 114.458668,103.821666 114.312001,104.115001 C113.798665,105.28834 113.193671,106.351663 112.497001,107.305001 C111.800331,108.258339 111.048672,109.248329 110.242001,110.275001 C109.801999,111.081671 109.197005,111.778331 108.427001,112.365001 C107.656997,112.95167 106.978671,113.428332 106.392001,113.795001 C104.265324,114.528338 102.303677,114.620003 100.507001,114.070001 C98.7103253,113.519998 96.9686761,112.841671 95.282001,112.035001 C95.0619999,111.594998 95.0619999,111.173336 95.282001,110.770001 C95.5020021,110.366665 95.7219999,109.981669 95.942001,109.615001 C96.675338,108.80833 97.2803319,107.946672 97.757001,107.030001 C98.23367,106.113329 98.7286651,105.141672 99.242001,104.115001 C100.488674,101.401654 101.643662,98.7066807 102.707001,96.0300006 C103.77034,93.3533206 104.815329,90.7316801 105.842001,88.1650006 C106.428671,86.9183277 106.960332,85.7083398 107.437001,84.5350006 C107.91367,83.3616614 108.335332,82.1883398 108.702001,81.0150006 C109.508672,78.8883233 110.333663,76.8716768 111.177001,74.9650006 C112.020339,73.0583244 112.84533,71.0783442 113.652001,69.0250006 C113.798668,68.7316658 113.890334,68.4383354 113.927001,68.1450006 C113.963668,67.8516658 113.908668,67.5216691 113.762001,67.1550006 C113.248665,67.0816669 112.937002,67.2283321 112.827001,67.5950006 C112.717,67.9616691 112.515336,68.2549995 112.222001,68.4750006 C111.928666,68.6950017 111.635336,68.969999 111.342001,69.3000006 C111.048666,69.6300023 110.718669,69.9049995 110.352001,70.1250006 C110.205334,70.3450006 110.003669,70.5466664 109.747001,70.7300006 C109.490333,70.9133349 109.215336,71.1149995 108.922001,71.3350006 C108.555332,71.6283354 108.243669,71.8666664 107.987001,72.0500006 C107.730333,72.2333349 107.308671,72.5083321 106.722001,72.8750006 C106.135331,73.021668 105.512004,73.1316669 104.852001,73.2050006 C104.191998,73.2783343 103.458672,73.3516669 102.652001,73.4250006 C99.9386541,73.3516669 97.1886816,72.5450083 94.402001,71.0050006 C93.5219966,70.5649984 92.7886706,69.905005 92.202001,69.0250006 C91.6153314,68.1449962 91.1386695,67.1550061 90.772001,66.0550006 C90.1853314,64.1483244 90.0019999,62.2416768 90.222001,60.3350006 C90.4420021,58.4283244 90.7353325,56.5583431 91.102001,54.7250006 C92.2020065,49.5183079 93.7053248,44.4583585 95.612001,39.5450006 L96.052001,38.2250006 C96.1986684,37.7849984 96.3819999,37.3816691 96.602001,37.0150006 C96.8953358,36.428331 97.2436656,35.9150028 97.647001,35.4750006 C98.0503363,35.0349984 98.6553303,34.6683354 99.462001,34.3750006 C100.63534,35.0350039 101.808662,35.7316636 102.982001,36.4650006 L106.502001,38.6650006 C107.088671,38.9583354 107.510333,39.3433316 107.767001,39.8200006 C108.023669,40.2966697 108.225334,40.828331 108.372001,41.4150006 C107.711998,44.5683497 107.033671,47.7399847 106.337001,50.9300006 C105.640331,54.1200166 105.218668,57.5849819 105.072001,61.3250006 Z M120.252001,76.8350006 C120.985338,75.7349951 121.81033,74.011679 122.727001,71.6650006 C123.643672,69.3183222 124.523663,66.7333481 125.367001,63.9100006 C126.210339,61.0866532 126.980331,58.1900155 127.677001,55.2200006 C128.373671,52.2499858 128.905332,49.5550127 129.272001,47.1350006 C129.125334,46.6949984 128.997002,46.2550028 128.887001,45.8150006 C128.777,45.3749984 128.428671,45.081668 127.842001,44.9350006 C127.328665,45.3016691 127.017002,45.7233316 126.907001,46.2000006 C126.797,46.6766697 126.668668,47.208331 126.522001,47.7950006 C126.081999,50.4350138 125.550337,53.0383211 124.927001,55.6050006 C124.303665,58.1716801 123.625338,60.7383211 122.892001,63.3050006 C122.378665,65.4316779 121.865337,67.4849907 121.352001,69.4650006 C120.838665,71.4450105 120.325337,73.461657 119.812001,75.5150006 C119.738667,75.7350017 119.702001,75.9549995 119.702001,76.1750006 C119.702001,76.3950017 119.885332,76.6149995 120.252001,76.8350006 Z M152.042001,72.3250006 L152.152001,72.2150006 C152.592003,72.2150006 152.922,72.0683354 153.142001,71.7750006 C153.362002,71.4816658 153.582,71.2250017 153.802001,71.0050006 C154.755339,69.9049951 155.63533,68.8233393 156.442001,67.7600006 C157.248672,66.696662 158.128663,65.6883387 159.082001,64.7350006 C159.888672,63.6349951 160.786996,62.5900056 161.777001,61.6000006 C162.767006,60.6099957 163.775329,59.675005 164.802001,58.7950006 C165.168669,58.2816647 165.626998,57.8966686 166.177001,57.6400006 C166.727004,57.3833327 167.295331,57.0716691 167.882001,56.7050006 C168.982006,56.4849995 169.861998,56.8149962 170.522001,57.6950006 C170.448667,57.841668 170.412001,58.0066664 170.412001,58.1900006 C170.412001,58.3733349 170.375335,58.5383332 170.302001,58.6850006 C169.715331,59.3450039 169.110337,59.968331 168.487001,60.5550006 C167.863665,61.1416702 167.258671,61.728331 166.672001,62.3150006 C164.325323,64.8816801 162.052012,67.5033206 159.852001,70.1800006 C157.65199,72.8566807 155.488678,75.6249863 153.362001,78.4850006 C152.775331,79.0716702 152.24367,79.7683299 151.767001,80.5750006 C151.290332,81.3816713 150.758671,82.2616625 150.172001,83.2150006 C149.878666,83.361668 149.585336,83.3250017 149.292001,83.1050006 C148.998666,82.8849995 148.595337,82.7750006 148.082001,82.7750006 C147.568665,82.921668 147.055337,83.1049995 146.542001,83.3250006 C146.028665,83.5450017 145.478671,83.7283332 144.892001,83.8750006 C144.525332,83.7283332 144.158669,83.6366675 143.792001,83.6000006 C143.425332,83.5633338 143.058669,83.471668 142.692001,83.3250006 C140.931992,82.738331 139.538673,81.8216735 138.512001,80.5750006 C137.485329,79.3283277 136.788669,77.8616757 136.422001,76.1750006 C136.055332,74.6349929 135.835335,73.0766752 135.762001,71.5000006 C135.688667,69.9233261 135.725334,68.4016746 135.872001,66.9350006 C136.018668,65.1749918 136.238666,63.4333426 136.532001,61.7100006 C136.825336,59.9866587 137.045334,58.2450094 137.192001,56.4850006 C137.558669,53.0383167 138.071998,49.6100177 138.732001,46.2000006 C139.392004,42.7899836 140.12533,39.3983508 140.932001,36.0250006 C143.132012,26.7849544 146.688643,18.0950413 151.602001,9.95500062 C151.968669,9.36833102 152.335332,8.83666967 152.702001,8.36000062 C153.068669,7.88333157 153.435332,7.38833652 153.802001,6.87500062 C154.022002,6.65499952 154.260333,6.45333487 154.517001,6.27000062 C154.773669,6.08666637 155.048666,5.88500172 155.342001,5.66500062 C157.10201,6.17833652 158.843659,6.69166472 160.567001,7.20500062 C162.290343,7.71833652 163.995326,8.34166362 165.682001,9.07500062 C165.902002,9.66167022 166.122,10.1933316 166.342001,10.6700006 C166.562002,11.1466697 166.818666,11.678331 167.112001,12.2650006 C166.525331,14.611679 165.938671,16.9033228 165.352001,19.1400006 C164.765331,21.3766785 164.215337,23.6683222 163.702001,26.0150006 C163.261999,28.2883453 162.693671,30.5433228 161.997001,32.7800006 C161.300331,35.0166785 160.732003,37.2716559 160.292001,39.5450006 C160.145334,40.1316702 159.907003,40.6999979 159.577001,41.2500006 C159.246999,41.8000034 158.935336,42.4416636 158.642001,43.1750006 L158.862001,43.8350006 C157.395327,49.115027 156.07534,54.3949742 154.902001,59.6750006 C154.388665,61.4350094 153.912003,63.1766587 153.472001,64.9000006 C153.031999,66.6233426 152.592003,68.3283255 152.152001,70.0150006 C152.078667,70.3816691 152.060334,70.7483321 152.097001,71.1150006 C152.133668,71.4816691 152.152001,71.8483321 152.152001,72.2150006 L152.042001,72.3250006 Z M173.492001,38.9950006 L175.307001,38.3900006 C175.857004,38.2066664 176.425331,38.041668 177.012001,37.8950006 C177.378669,38.041668 177.726999,38.1516669 178.057001,38.2250006 C178.387003,38.2983343 178.698666,38.4083332 178.992001,38.5550006 C179.798672,38.9216691 180.531998,39.2883321 181.192001,39.6550006 C181.852004,40.0216691 182.58533,40.3883321 183.392001,40.7550006 C183.538668,40.9750017 183.685334,41.2133327 183.832001,41.4700006 C183.978668,41.7266686 184.125334,41.9283332 184.272001,42.0750006 C184.272001,43.5416746 183.942004,44.806662 183.282001,45.8700006 C182.621998,46.9333393 182.182002,48.0883277 181.962001,49.3350006 C181.742,50.5816735 181.430336,51.7549951 181.027001,52.8550006 C180.623666,53.9550061 180.238669,55.1283277 179.872001,56.3750006 C179.505332,57.5483398 179.157001,58.6849951 178.827001,59.7850006 C178.496999,60.8850061 178.148669,62.0216614 177.782001,63.1950006 C177.415332,64.2216724 176.975337,65.3216614 176.462001,66.4950006 C175.948665,67.6683398 175.728667,69.0249929 175.802001,70.5650006 C176.755339,69.6116625 177.818662,68.3466752 178.992001,66.7700006 C180.16534,65.1933261 181.375328,63.5800089 182.622001,61.9300006 C183.868674,60.2799924 185.078662,58.6850083 186.252001,57.1450006 C187.42534,55.6049929 188.488663,54.3583387 189.442001,53.4050006 C190.175338,53.6983354 190.798665,53.9183332 191.312001,54.0650006 C191.678669,54.6516702 192.026999,55.238331 192.357001,55.8250006 C192.687003,56.4116702 193.035332,56.9616647 193.402001,57.4750006 C193.035332,57.9883365 192.558671,58.6116636 191.972001,59.3450006 C191.385331,59.9316702 190.670339,60.7749951 189.827001,61.8750006 C188.983663,62.9750061 188.085339,64.1299946 187.132001,65.3400006 C186.178663,66.5500067 185.262005,67.7049951 184.382001,68.8050006 C183.501997,69.9050061 182.805337,70.7116647 182.292001,71.2250006 C182.145334,71.371668 182.017002,71.4633338 181.907001,71.5000006 C181.797,71.5366675 181.705335,71.6283332 181.632001,71.7750006 C181.045331,73.1683409 180.22034,74.396662 179.157001,75.4600006 C178.093662,76.5233393 177.158672,77.6783277 176.352001,78.9250006 C175.838665,79.5116702 175.307004,80.0799979 174.757001,80.6300006 L173.052001,82.3350006 C171.145325,82.5550017 169.385342,82.463336 167.772001,82.0600006 C166.15866,81.6566653 164.728674,80.8316735 163.482001,79.5850006 C163.041999,78.5583288 162.785335,77.5316724 162.712001,76.5050006 C162.638667,75.4783288 162.638667,74.4150061 162.712001,73.3150006 C163.078669,70.0149841 163.628664,66.7700166 164.362001,63.5800006 C165.095338,60.3899847 165.938663,57.1816834 166.892001,53.9550006 C167.992006,49.9949808 169.678656,45.8883552 171.952001,41.6350006 C172.318669,40.7549962 172.831998,39.875005 173.492001,38.9950006 Z M181.962001,34.2650006 C180.788662,33.8983321 179.817005,33.3850039 179.047001,32.7250006 C178.276997,32.0649973 177.488672,31.295005 176.682001,30.4150006 C176.682001,30.0483321 176.645335,29.6816691 176.572001,29.3150006 L176.352001,28.2150006 C176.938671,26.8216603 177.855328,25.685005 179.102001,24.8050006 C180.422008,25.6116713 181.760328,26.2899979 183.117001,26.8400006 C184.473674,27.3900034 185.665329,28.2883277 186.692001,29.5350006 C186.618667,30.0483365 186.563668,30.5616647 186.527001,31.0750006 C186.490334,31.5883365 186.472001,32.0283321 186.472001,32.3950006 C185.885331,33.2016713 185.207005,33.6783332 184.437001,33.8250006 C183.666997,33.971668 182.842005,34.1183332 181.962001,34.2650006 Z M188.892001,83.5450006 C189.038668,83.1049984 189.130334,82.683336 189.167001,82.2800006 C189.203668,81.8766653 189.295334,81.4916691 189.442001,81.1250006 C190.762008,80.4649973 192.045328,79.8050039 193.292001,79.1450006 C194.538674,78.4849973 195.711995,77.6783387 196.812001,76.7250006 C199.892016,74.0849874 202.788654,71.1883497 205.502001,68.0350006 C205.868669,67.5949984 206.180333,67.173336 206.437001,66.7700006 C206.693669,66.3666653 206.932,65.9083365 207.152001,65.3950006 C207.372002,65.0283321 207.573667,64.5883365 207.757001,64.0750006 C207.940335,63.5616647 208.178666,63.0116702 208.472001,62.4250006 L207.592001,62.4250006 C204.951988,64.4783442 201.835352,65.431668 198.242001,65.2850006 C195.308653,64.8449984 192.632013,63.6350105 190.212001,61.6550006 C189.038662,60.6283288 188.452001,59.4183409 188.452001,58.0250006 C188.305334,56.6316603 188.415332,55.2750072 188.782001,53.9550006 C189.148669,52.9283288 189.588665,51.975005 190.102001,51.0950006 C190.615337,50.2149962 191.165331,49.2983387 191.752001,48.3450006 C193.218675,46.291657 194.850325,44.4216757 196.647001,42.7350006 C198.443677,41.0483255 200.331991,39.4716746 202.312001,38.0050006 C202.752003,37.6383321 203.448663,37.1433371 204.402001,36.5200006 C205.355339,35.8966642 206.363662,35.2366708 207.427001,34.5400006 C208.49034,33.8433305 209.498663,33.2016702 210.452001,32.6150006 C211.405339,32.028331 212.138665,31.5883354 212.652001,31.2950006 C213.092003,31.0749995 213.568665,30.9650006 214.082001,30.9650006 C214.375336,30.8916672 214.686999,30.8733338 215.017001,30.9100006 C215.347003,30.9466675 215.731999,30.9650006 216.172001,30.9650006 C217.712009,31.9916724 219.343659,33.1099946 221.067001,34.3200006 C222.790343,35.5300067 224.495326,36.7583277 226.182001,38.0050006 C226.328668,38.2983354 226.457,38.609999 226.567001,38.9400006 L226.952001,40.0950006 C225.778662,40.3883354 224.458675,40.9566631 222.992001,41.8000006 C221.525327,42.6433382 220.058675,43.596662 218.592001,44.6600006 C217.125327,45.7233393 215.750341,46.8049951 214.467001,47.9050006 C213.183661,49.0050061 212.175338,49.9216636 211.442001,50.6550006 C211.075332,51.0216691 210.598671,51.4249984 210.012001,51.8650006 C209.645332,52.2316691 209.333669,52.6349984 209.077001,53.0750006 C208.820333,53.5150028 208.692001,54.028331 208.692001,54.6150006 C210.085341,55.1283365 211.423661,55.678331 212.707001,56.2650006 C213.990341,56.8516702 215.255328,57.438331 216.502001,58.0250006 C216.648668,58.3916672 216.795334,58.7033327 216.942001,58.9600006 C217.088668,59.2166686 217.272,59.4549995 217.492001,59.6750006 C219.032009,61.3616757 219.582003,63.2683233 219.142001,65.3950006 C218.995334,65.9816702 218.903668,66.4949984 218.867001,66.9350006 C218.830334,67.3750028 218.775335,67.888331 218.702001,68.4750006 C218.555334,68.6950017 218.390335,68.8966664 218.207001,69.0800006 C218.023667,69.2633349 217.895335,69.4283332 217.822001,69.5750006 C217.748667,70.6016724 217.47367,71.4449973 216.997001,72.1050006 C216.520332,72.7650039 216.062003,73.4249973 215.622001,74.0850006 C215.035331,74.8183376 214.522003,75.478331 214.082001,76.0650006 C213.641999,76.6516702 213.128671,77.238331 212.542001,77.8250006 C211.661997,78.5583376 210.800339,79.2733305 209.957001,79.9700006 C209.113663,80.6666708 208.215339,81.308331 207.262001,81.8950006 C206.675331,82.3350028 206.107004,82.7016658 205.557001,82.9950006 C205.006998,83.2883354 204.328672,83.4716669 203.522001,83.5450006 C202.71533,83.691668 201.908672,83.9483321 201.102001,84.3150006 C200.29533,84.6816691 199.488672,84.9749995 198.682001,85.1950006 C197.361994,85.5616691 196.097007,85.671668 194.887001,85.5250006 C193.676995,85.3783332 192.448674,85.1216691 191.202001,84.7550006 C190.908666,84.6083332 190.597003,84.4433349 190.267001,84.2600006 C189.936999,84.0766664 189.478671,83.8383354 188.892001,83.5450006 Z M194.722001,55.6050006 C195.088669,54.2116603 195.693663,52.8916735 196.537001,51.6450006 C197.380339,50.3983277 198.351995,49.2250061 199.452001,48.1250006 C200.478673,46.9516614 201.651994,45.9066719 202.972001,44.9900006 C204.292008,44.0733294 205.575328,43.1016724 206.822001,42.0750006 C206.455332,41.488331 206.03367,41.1400012 205.557001,41.0300006 C205.080332,40.9200001 204.622003,40.9016669 204.182001,40.9750006 C201.688655,42.2216735 199.543677,43.8166576 197.747001,45.7600006 C195.950325,47.7033437 194.502006,49.8483222 193.402001,52.1950006 C193.182,52.6350028 193.072001,53.0016658 193.072001,53.2950006 C192.998667,53.441668 193.035334,53.7349984 193.182001,54.1750006 C193.548669,54.6150028 193.713668,55.0549984 193.677001,55.4950006 C193.640334,55.9350028 193.988664,55.9716691 194.722001,55.6050006 Z M245.212001,5.00500062 C245.505336,5.15166802 245.835332,5.28000007 246.202001,5.39000062 C246.568669,5.50000117 246.898666,5.70166582 247.192001,5.99500062 C248.218673,6.80167132 249.300329,7.60832992 250.437001,8.41500062 C251.573673,9.22167132 252.508664,10.2483277 253.242001,11.4950006 C253.095334,12.2283376 252.948668,12.8149984 252.802001,13.2550006 C252.215331,14.5016735 251.68367,15.7666609 251.207001,17.0500006 C250.730332,18.3333404 250.235337,19.5983277 249.722001,20.8450006 C248.695329,23.7783486 247.742005,26.7299858 246.862001,29.7000006 C245.981997,32.6700155 245.065339,35.6583189 244.112001,38.6650006 L242.132001,45.2650006 C241.471998,47.4650116 240.812004,49.6283233 240.152001,51.7550006 C239.711999,53.2216746 239.290336,54.6699935 238.887001,56.1000006 C238.483666,57.5300078 238.098669,58.9783266 237.732001,60.4450006 C237.658667,60.7383354 237.640334,61.0316658 237.677001,61.3250006 C237.713668,61.6183354 237.732001,61.9483321 237.732001,62.3150006 C238.538672,61.5083299 239.235331,60.7383376 239.822001,60.0050006 C240.408671,59.2716636 240.958665,58.5016713 241.472001,57.6950006 C246.238691,51.4616361 251.261975,45.4483629 256.542001,39.6550006 C257.055337,39.068331 257.586998,38.4450039 258.137001,37.7850006 C258.687004,37.1249973 259.438663,36.6483354 260.392001,36.3550006 C261.638674,36.9416702 262.866995,37.6199968 264.077001,38.3900006 C265.287007,39.1600045 266.515328,39.8016647 267.762001,40.3150006 C268.348671,40.9016702 268.715334,41.5066642 268.862001,42.1300006 C269.008668,42.7533371 269.118667,43.358331 269.192001,43.9450006 C269.192001,45.3383409 269.063669,46.6766609 268.807001,47.9600006 C268.550333,49.2433404 268.238669,50.5083277 267.872001,51.7550006 C267.358665,53.5883431 266.845337,55.403325 266.332001,57.2000006 C265.818665,58.9966763 265.268671,60.7749918 264.682001,62.5350006 C264.608667,62.9016691 264.572001,63.2316658 264.572001,63.5250006 C264.572001,63.8183354 264.682,64.1483321 264.902001,64.5150006 C265.048668,64.4416669 265.250333,64.3683343 265.507001,64.2950006 C265.763669,64.2216669 265.965334,64.111668 266.112001,63.9650006 C268.458679,61.5449885 270.915321,59.0883464 273.482001,56.5950006 C273.922003,56.1549984 274.361999,55.8066686 274.802001,55.5500006 C275.242003,55.2933327 275.681999,55.0183354 276.122001,54.7250006 C276.708671,54.9450017 277.240332,55.1649995 277.717001,55.3850006 C278.19367,55.6050017 278.688665,55.8249995 279.202001,56.0450006 C279.642003,55.8983332 280.081999,55.7700012 280.522001,55.6600006 C280.962003,55.5500001 281.438665,55.421668 281.952001,55.2750006 C282.098668,55.421668 282.300333,55.5683332 282.557001,55.7150006 C282.813669,55.861668 283.125332,56.0816658 283.492001,56.3750006 C282.758664,56.9616702 282.117004,57.548331 281.567001,58.1350006 C281.016998,58.7216702 280.448671,59.308331 279.862001,59.8950006 L278.652001,59.8950006 L278.652001,61.4350006 L274.857001,65.2300006 C273.573661,66.5133404 272.235341,67.814994 270.842001,69.1350006 C269.595328,70.1616724 268.38534,71.206662 267.212001,72.2700006 C266.038662,73.3333393 264.938673,74.4883277 263.912001,75.7350006 C263.251998,76.4683376 262.592004,77.2749962 261.932001,78.1550006 C261.271998,79.035005 260.612004,79.9516625 259.952001,80.9050006 C259.585332,80.9783343 259.200336,81.0333338 258.797001,81.0700006 C258.393666,81.1066675 258.008669,81.1250006 257.642001,81.1250006 C257.275332,81.1250006 256.908669,81.1066675 256.542001,81.0700006 C256.175332,81.0333338 255.845336,81.0150006 255.552001,81.0150006 C254.525329,80.6483321 253.663671,80.1900034 252.967001,79.6400006 C252.270331,79.0899979 251.555338,78.6316691 250.822001,78.2650006 C250.528666,76.944994 250.455334,75.716673 250.602001,74.5800006 C250.748668,73.4433283 250.858667,72.3250061 250.932001,71.2250006 C251.078668,70.1983288 251.243667,69.1533393 251.427001,68.0900006 C251.610335,67.026662 251.775334,65.9816724 251.922001,64.9550006 C252.068668,63.8549951 252.288666,62.7733393 252.582001,61.7100006 C252.875336,60.646662 253.058667,59.5283398 253.132001,58.3550006 C252.912,58.4283343 252.728668,58.4466675 252.582001,58.4100006 C252.435334,58.3733338 252.325335,58.3916669 252.252001,58.4650006 C252.032,58.8316691 251.848668,59.1983321 251.702001,59.5650006 C251.555334,59.9316691 251.335336,60.2249995 251.042001,60.4450006 C250.015329,61.4716724 249.117005,62.6083277 248.347001,63.8550006 C247.576997,65.1016735 246.788672,66.3483277 245.982001,67.5950006 C245.17533,68.8416735 244.387005,70.0516614 243.617001,71.2250006 C242.846997,72.3983398 242.058672,73.6083277 241.252001,74.8550006 C240.44533,75.8816724 239.693671,76.8899957 238.997001,77.8800006 C238.300331,78.8700056 237.585338,79.8416625 236.852001,80.7950006 C236.411999,80.941668 235.990336,81.0333338 235.587001,81.0700006 C235.183666,81.1066675 234.798669,81.1983332 234.432001,81.3450006 C234.065332,81.7116691 233.882001,82.0783321 233.882001,82.4450006 C233.882001,82.8116691 233.808668,83.2149984 233.662001,83.6550006 C233.075331,83.801668 232.470337,83.9666664 231.847001,84.1500006 C231.223665,84.3333349 230.508672,84.5349995 229.702001,84.7550006 C228.821997,84.3149984 227.942005,83.893336 227.062001,83.4900006 C226.181997,83.0866653 225.302005,82.6650028 224.422001,82.2250006 C224.202,82.0783332 224.000335,81.9500012 223.817001,81.8400006 C223.633667,81.7300001 223.468668,81.601668 223.322001,81.4550006 C222.735331,80.4283288 222.350335,79.346673 222.167001,78.2100006 C221.983667,77.0733283 221.892001,75.9916724 221.892001,74.9650006 C221.892001,72.3983211 222.038666,69.9233459 222.332001,67.5400006 C222.625336,65.1566554 222.955332,62.791679 223.322001,60.4450006 C223.835337,56.4849808 224.49533,52.6166862 225.302001,48.8400006 C226.108672,45.0633151 227.025329,41.268353 228.052001,37.4550006 C229.665342,31.8083057 231.681989,26.3083607 234.102001,20.9550006 C234.908672,18.9749907 235.788663,17.0133437 236.742001,15.0700006 C237.695339,13.1266576 238.758662,11.2016768 239.932001,9.29500062 C240.592004,8.34166252 241.32533,7.48000447 242.132001,6.71000062 C242.938672,5.93999677 243.965328,5.37166912 245.212001,5.00500062 Z" id="path-2"></path>
    </defs>
    <g id="Page-1" stroke="none" stroke-width="1" fill="none" fill-rule="evenodd">
        <g id="Group-29" fill-rule="nonzero">
            <g id="Stylish">
                <use fill="#000000" xlink:href="#path-2"></use>
                <use fill="url(#linearGradient-1)" xlink:href="#path-2"></use>
            </g>
            <path d="M152.842001,18.5550006 L152.732001,18.6650006 C151.778663,20.0583409 151.008671,21.5433261 150.422001,23.1200006 C149.835331,24.6966752 149.322003,26.3649918 148.882001,28.1250006 C148.882001,28.1983343 148.955334,28.3816658 149.102001,28.6750006 C149.468669,28.6016669 149.725334,28.4000023 149.872001,28.0700006 C150.018668,27.739999 150.165334,27.3916691 150.312001,27.0250006 C150.678669,25.7783277 151.063666,24.6233393 151.467001,23.5600006 C151.870336,22.496662 152.255332,21.3783398 152.622001,20.2050006 C152.768668,19.8383321 152.842001,19.5083354 152.842001,19.2150006 L152.842001,18.5550006 L152.842001,18.5550006 Z" id="Path" fill="#FFFFFF"></path>
            <path d="M152.936572,18.3113579 L154.162001,18.0050006 C154.308668,17.4916647 154.382001,17.0516691 154.382001,16.6850006 C154.382001,16.3183321 154.088671,16.061668 153.502001,15.9150006 C153.008367,16.4086343 152.819892,17.2074126 152.936572,18.3113579 L152.936572,18.3113579 Z" id="Path" fill="#FFFFFF"></path>
            <path d="M231.443493,41.679569 C231.455572,40.5935337 231.696281,39.0474001 232.165628,37.0411219 C232.634975,35.0348437 233.24084,32.8870553 233.983243,30.5976922 C234.725645,28.3083291 235.552534,26.0052014 236.463935,23.6882401 C237.375336,21.3712788 238.27115,19.3170667 239.151404,17.525542 C239.457534,17.3020996 239.751106,17.0698701 240.032128,16.8288467 C240.31315,16.5878233 240.688804,16.5589988 241.159102,16.7423723 C241.339203,17.2333112 241.355496,17.6642691 241.207981,18.0352589 C241.060467,18.4062487 240.899797,18.8227435 240.725967,19.2847559 C239.793082,21.2583256 238.940121,23.2513373 238.167059,25.2638509 C237.393998,27.2763645 236.65861,29.3152189 235.960873,31.3804754 C235.318184,33.0464797 234.709787,34.6634986 234.135664,36.2315808 C233.561541,37.799663 232.970285,39.3922018 232.361879,41.009245 C232.309247,41.1912902 232.231508,41.3557518 232.128659,41.502635 C232.02581,41.6495182 231.797424,41.7084956 231.443493,41.679569 Z" id="Path" fill="#FFFFFF"></path>
        </g>
    </g>
</svg>