<svg xmlns="http://www.w3.org/2000/svg" width="19" height="18" viewBox="0 0 19 18"><g><g><path d="M17.695 4.73h-2.718v2.718h2.718zM19 4.077V8.1c0 .36-.292.653-.652.653h-1.36v8.426a.653.653 0 0 1-1.304 0V8.753h-1.36a.653.653 0 0 1-.652-.653V4.077c0-.36.292-.652.653-.652h1.359V.652a.653.653 0 0 1 1.304 0v2.773h1.36c.36 0 .652.292.652.652zM4.648 4.73H1.929v2.718h2.719zm1.304-.653V8.1c0 .36-.292.653-.652.653H3.94v8.426a.653.653 0 0 1-1.304 0V8.753h-1.36A.653.653 0 0 1 .626 8.1V4.077c0-.36.292-.652.652-.652h1.359V.652a.653.653 0 0 1 1.305 0v2.773H5.3c.36 0 .652.292.652.652zm5.22 6.307H8.452v2.718h2.718zm1.304-.653v4.023c0 .36-.292.653-.652.653h-1.36v2.772a.653.653 0 0 1-1.304 0v-2.772H7.8a.653.653 0 0 1-.652-.653V9.731c0-.36.293-.652.653-.652H9.16V.652a.653.653 0 0 1 1.305 0V9.08h1.359c.36 0 .652.292.652.652z"/></g></g></svg>