<svg xmlns="http://www.w3.org/2000/svg" width="25" height="17"><path id="Forma_1" data-name="Forma 1" d="M848.937 6153.64c-.678-1.19-1.414-1.41-2.912-1.5s-5.261-.14-8.522-.14-7.033.04-8.528.14-2.233.3-2.917 1.5-1.058 3.24-1.058 6.86v.01c0 3.6.359 5.66 1.058 6.84.684 1.2 1.42 1.41 2.915 1.51s5.263.14 8.53.14 7.025-.05 8.524-.14 2.234-.31 2.912-1.51c.705-1.18 1.061-3.24 1.061-6.84v-.01c0-3.62-.356-5.67-1.063-6.86zm-14.562 11.5v-9.28l7.812 4.64z" transform="translate(-825 -6152)" fill="#91939d" fill-rule="evenodd"/></svg>