<svg xmlns="http://www.w3.org/2000/svg" width="50" height="47" viewBox="0 0 50 47"><defs><clipPath id="gje9a"><path fill="#fff" d="M4 23v-9h9v9zm4.565-2.81a1.745 1.745 0 1 0 0-3.49 1.745 1.745 0 0 0 0 3.49z"/></clipPath><clipPath id="gje9b"><path fill="#fff" d="M15 16V8h8v8zm3.825-2.34a1.745 1.745 0 1 0 0-3.49 1.745 1.745 0 0 0 0 3.49z"/></clipPath><clipPath id="gje9c"><path fill="#fff" d="M25 32v-8h8v8zm4.085-2.48a1.745 1.745 0 1 0 0-3.49 1.745 1.745 0 0 0 0 3.49z"/></clipPath><clipPath id="gje9d"><path fill="#fff" d="M35 21v-9h9v9zm4.355-2.67a1.745 1.745 0 1 0 0-3.49 1.745 1.745 0 0 0 0 3.49z"/></clipPath></defs><g><g><g><path fill="none" stroke="#000" stroke-linecap="round" stroke-linejoin="round" stroke-miterlimit="50" stroke-width="2" d="M31 4.028V1.03"/></g><g><path fill="none" stroke="#000" stroke-linecap="round" stroke-linejoin="round" stroke-miterlimit="50" stroke-width="2" d="M17.01 4.028V1.03"/></g><g><path fill="none" stroke="#000" stroke-linecap="round" stroke-linejoin="round" stroke-miterlimit="50" stroke-width="2" d="M15.114 39.94l-1.404 5.923"/></g><g><path fill="none" stroke="#000" stroke-linecap="round" stroke-linejoin="round" stroke-miterlimit="50" stroke-width="2" d="M32.9 39.94l1.404 5.923"/></g><g><path fill="#fff686" d="M3.97 6.97h45.962v31.974H3.97z"/></g><g><path fill="none" stroke="#000" stroke-linecap="round" stroke-linejoin="round" stroke-miterlimit="50" stroke-width="2" d="M1.03 4.03v0h45.962v31.974H1.03v0z"/></g><g><path fill="none" stroke="#000" stroke-linecap="round" stroke-linejoin="round" stroke-miterlimit="50" stroke-width="2" d="M17.374 12.88l-7.344 4.629"/></g><g><path fill="none" stroke="#000" stroke-linecap="round" stroke-linejoin="round" stroke-miterlimit="50" stroke-width="2" d="M19.77 13.38l8.371 12.937"/></g><g><path fill="none" stroke="#000" stroke-linecap="round" stroke-linejoin="round" stroke-miterlimit="50" stroke-width="2" d="M30.26 26.493l7.886-8.603"/></g><g><path fill="#fff" d="M8.565 20.19a1.745 1.745 0 1 0 0-3.49 1.745 1.745 0 0 0 0 3.49z"/><path fill="none" stroke="#000" stroke-linecap="round" stroke-linejoin="round" stroke-miterlimit="50" stroke-width="4" d="M8.565 20.19a1.745 1.745 0 1 0 0-3.49 1.745 1.745 0 0 0 0 3.49z" clip-path="url(&quot;#gje9a&quot;)"/></g><g><path fill="#fff" d="M18.825 13.66a1.745 1.745 0 1 0 0-3.49 1.745 1.745 0 0 0 0 3.49z"/><path fill="none" stroke="#000" stroke-linecap="round" stroke-linejoin="round" stroke-miterlimit="50" stroke-width="4" d="M18.825 13.66a1.745 1.745 0 1 0 0-3.49 1.745 1.745 0 0 0 0 3.49z" clip-path="url(&quot;#gje9b&quot;)"/></g><g><path fill="#fff" d="M29.085 29.52a1.745 1.745 0 1 0 0-3.49 1.745 1.745 0 0 0 0 3.49z"/><path fill="none" stroke="#000" stroke-linecap="round" stroke-linejoin="round" stroke-miterlimit="50" stroke-width="4" d="M29.085 29.52a1.745 1.745 0 1 0 0-3.49 1.745 1.745 0 0 0 0 3.49z" clip-path="url(&quot;#gje9c&quot;)"/></g><g><path fill="#fff" d="M39.355 18.33a1.745 1.745 0 1 0 0-3.49 1.745 1.745 0 0 0 0 3.49z"/><path fill="none" stroke="#000" stroke-linecap="round" stroke-linejoin="round" stroke-miterlimit="50" stroke-width="4" d="M39.355 18.33a1.745 1.745 0 1 0 0-3.49 1.745 1.745 0 0 0 0 3.49z" clip-path="url(&quot;#gje9d&quot;)"/></g></g></g></svg>