<svg xmlns="http://www.w3.org/2000/svg" xmlns:xlink="http://www.w3.org/1999/xlink" width="19" height="22" viewBox="0 0 19 22"><defs><path id="7ecda" d="M656.322 563.836c-.158-.16-.37-.178-.638.084-.261.256-1.012.99-1.086 1.059a.238.238 0 0 1-.06.043c-1.153.584-5.313-3.87-4.52-4.707l1.186-1.162a.389.389 0 0 0 .006-.549l-3.882-3.958a.388.388 0 0 0-.549-.004c-1.924 1.888-5.083 3.801 2.22 11.25 2.89 2.948 6.94 6.482 9.928 3.68l.073-.067c.05-.047 1.194-1.163 1.224-1.196a.39.39 0 0 0-.007-.538l-3.895-3.935z"/><path id="7ecdb" d="M658.998 569.507s.897 2.033-1.09 4.021c-1.375 1.375-3.591.879-4.815-.485l-6.465-6.634s-1.476-1.195-2.867.113l-.06.059a2.277 2.277 0 0 0-.005 3.222l2.271 2.27"/></defs><g><g transform="translate(-642 -553)"><g><use fill="#fff" fill-opacity="0" stroke="#111" stroke-miterlimit="50" xlink:href="#7ecda"/></g><g><use fill="#fff" fill-opacity="0" stroke="#111" stroke-miterlimit="50" xlink:href="#7ecdb"/></g></g></g></svg>