<svg xmlns="http://www.w3.org/2000/svg" xmlns:xlink="http://www.w3.org/1999/xlink" width="13" height="13" viewBox="0 0 13 13"><defs><path id="p6aza" d="M45.5 652.5v-16h16v16z"/><path id="p6azc" d="M48 639v4h4v-4zm-.5-1h5a.5.5 0 0 1 .5.5v5a.5.5 0 0 1-.5.5h-5a.5.5 0 0 1-.5-.5v-5a.5.5 0 0 1 .5-.5zm.5 8v4h4v-4zm-.5-1h5a.5.5 0 0 1 .5.5v5a.5.5 0 0 1-.5.5h-5a.5.5 0 0 1-.5-.5v-5a.5.5 0 0 1 .5-.5zm7.5 1v4h4v-4zm-.5-1h5a.5.5 0 0 1 .5.5v5a.5.5 0 0 1-.5.5h-5a.5.5 0 0 1-.5-.5v-5a.5.5 0 0 1 .5-.5zm.5-6v4h4v-4zm-.5-1h5a.5.5 0 0 1 .5.5v5a.5.5 0 0 1-.5.5h-5a.5.5 0 0 1-.5-.5v-5a.5.5 0 0 1 .5-.5z"/><clipPath id="p6azb"><use xlink:href="#p6aza"/></clipPath></defs><g><g transform="translate(-47 -638)"><g/><g clip-path="url(#p6azb)"><use fill="#111" xlink:href="#p6azc"/></g></g></g></svg>