<svg xmlns="http://www.w3.org/2000/svg" width="44" height="46" viewBox="0 0 44 46"><g><g><g><path fill="#fff686" d="M23.123 45.766c11.158 0 20.203-9.045 20.203-20.203S34.281 5.36 23.123 5.36 2.92 14.405 2.92 25.563s9.045 20.203 20.203 20.203z"/></g><g><path fill="none" stroke="#111" stroke-linecap="round" stroke-linejoin="round" stroke-miterlimit="50" stroke-width="2" d="M21.773 41.706c11.158 0 20.203-9.045 20.203-20.203S32.931 1.3 21.773 1.3 1.57 10.345 1.57 21.503s9.045 20.203 20.203 20.203z"/></g><g><path fill="none" stroke="#111" stroke-linecap="round" stroke-linejoin="round" stroke-miterlimit="50" stroke-width="2" d="M15.07 28.85c1.784 1.553 4.535 2.719 6.52 2.719 3.178 0 5.753-2.252 5.753-5.03 0-2.778-2.75-4.152-5.752-5.03-3.112-.975-5.753-2.251-5.753-5.03 0-2.777 2.575-5.029 5.753-5.029 2.139 0 4.006 1.021 4.997 2.536"/></g><g><path fill="none" stroke="#111" stroke-linecap="round" stroke-linejoin="round" stroke-miterlimit="50" stroke-width="2" d="M21.59 8.7v25.616"/></g></g></g></svg>