<svg xmlns="http://www.w3.org/2000/svg" xmlns:xlink="http://www.w3.org/1999/xlink" width="18" height="18" viewBox="0 0 18 18"><defs><path id="vov2a" d="M234.426 1556.522v-1.945c0-.87.707-1.577 1.577-1.577h1.358a.39.39 0 0 1 .391.391v.979a.39.39 0 1 1-.783 0v-.587h-.966a.795.795 0 0 0-.794.794v9.624a.39.39 0 1 1-.783 0v-1.712h-5.233v1.712a.39.39 0 1 1-.783 0v-9.624c0-.87.707-1.577 1.577-1.577h1.358c.216 0 .391.175.391.391v.979a.391.391 0 0 1-.783 0v-.587h-.966a.795.795 0 0 0-.794.794v1.945zm-5.233 5.185h5.24v-1.81h-5.24z"/><path id="vov2b" d="M239.859 1565.2c-.864 0-1.31.507-1.669.916-.363.414-.594.65-1.08.65-.486 0-.716-.236-1.08-.65-.358-.409-.804-.916-1.668-.916-.864 0-1.309.508-1.666.916-.364.414-.593.65-1.078.65-.485 0-.714-.236-1.078-.65-.357-.408-.803-.916-1.666-.916-.863 0-1.307.507-1.665.916-.363.414-.593.65-1.078.65-.483 0-.712-.236-1.075-.65-.357-.408-.801-.916-1.665-.916a.391.391 0 0 0 0 .783c.484 0 .713.234 1.076.648.357.409.802.917 1.664.917.864 0 1.309-.508 1.666-.917.364-.414.593-.648 1.077-.648.485 0 .714.234 1.078.648.358.409.802.917 1.666.917.863 0 1.309-.508 1.666-.917.363-.414.592-.648 1.078-.648.51 0 .761.286 1.08.65.358.408.804.915 1.668.915.865 0 1.31-.507 1.669-.916.364-.415.594-.65 1.08-.65a.391.391 0 0 0 0-.782"/><path id="vov2c" d="M239.859 1568.59c-.864 0-1.31.507-1.669.916-.363.414-.594.65-1.08.65-.486 0-.716-.236-1.08-.65-.358-.409-.804-.916-1.668-.916-.864 0-1.309.508-1.666.916-.364.414-.593.65-1.078.65-.485 0-.714-.236-1.078-.65-.357-.408-.803-.916-1.666-.916-.863 0-1.307.507-1.665.916-.363.414-.593.65-1.078.65-.483 0-.712-.236-1.075-.65-.357-.408-.801-.916-1.665-.916a.391.391 0 0 0 0 .783c.484 0 .713.234 1.076.648.357.409.802.917 1.664.917.864 0 1.309-.508 1.666-.917.364-.414.593-.648 1.077-.648.485 0 .714.234 1.078.648.358.409.802.917 1.666.917.863 0 1.309-.508 1.666-.917.363-.414.592-.648 1.078-.648.51 0 .761.286 1.08.65.358.408.804.915 1.668.915.865 0 1.31-.507 1.669-.916.364-.415.594-.65 1.08-.65a.391.391 0 0 0 0-.782"/></defs><g><g transform="translate(-223 -1553)"><g><g><use fill="#111" xlink:href="#vov2a"/></g><g><use fill="#111" xlink:href="#vov2b"/></g><g><use fill="#111" xlink:href="#vov2c"/></g></g><g/></g></g></svg>