<svg xmlns="http://www.w3.org/2000/svg" xmlns:xlink="http://www.w3.org/1999/xlink" width="47" height="40" viewBox="0 0 47 40"><defs><path id="l1qoa" d="M627 1424v-62h62v62z"/><path id="l1qob" d="M657.35 1401.6c1.424 2.106 3.704 3.683 6.277 3.683h3.031l5.043 4.962v-5.395c3.92-.145 7.623-3.931 7.623-8.585 0-4.745-3.48-8.485-7.8-8.485"/><path id="l1qoc" d="M647.263 1400.668c-5.88-1.007-9.363-5.904-9.363-11.869 0-6.692 4.674-12.059 10.769-12.059h11.17c6.094 0 11.035 5.117 11.035 11.81 0 6.692-4.94 11.81-11.036 11.81h-3.518l-9.057 8.983v-8.675z"/><path id="l1qod" d="M644.263 1397.718c-5.88-1.007-9.363-5.904-9.363-11.869 0-6.692 4.674-12.059 10.769-12.059h11.17c6.094 0 11.035 5.117 11.035 11.81 0 6.692-4.94 11.81-11.036 11.81h-3.518l-9.057 8.983v-8.675z"/><path id="l1qoe" d="M643.28 1385.6h15.68"/><path id="l1qof" d="M643.28 1381.66h15.68"/><path id="l1qog" d="M643.28 1389.54h7.84"/></defs><g><g transform="translate(-634 -1372)"><g><use fill="#d8d8d8" xlink:href="#l1qoa"/></g><g><g><use fill="#f8f4e7" xlink:href="#l1qob"/></g><g><use fill="#fff686" xlink:href="#l1qoc"/></g><g><use fill="#fff" fill-opacity="0" stroke="#000" stroke-linecap="round" stroke-linejoin="round" stroke-miterlimit="50" stroke-width="2" xlink:href="#l1qod"/></g><g><use fill="#fff" fill-opacity="0" stroke="#000" stroke-linecap="round" stroke-linejoin="round" stroke-miterlimit="50" stroke-width="2" xlink:href="#l1qob"/></g><g><use fill="#fff" fill-opacity="0" stroke="#000" stroke-linecap="round" stroke-linejoin="round" stroke-miterlimit="50" stroke-width="2" xlink:href="#l1qoe"/></g><g><use fill="#fff" fill-opacity="0" stroke="#000" stroke-linecap="round" stroke-linejoin="round" stroke-miterlimit="50" stroke-width="2" xlink:href="#l1qof"/></g><g><use fill="#fff" fill-opacity="0" stroke="#000" stroke-linecap="round" stroke-linejoin="round" stroke-miterlimit="50" stroke-width="2" xlink:href="#l1qog"/></g></g></g></g></svg>