<svg xmlns="http://www.w3.org/2000/svg" xmlns:xlink="http://www.w3.org/1999/xlink" width="71" height="70" viewBox="0 0 71 70"><defs><path id="vw6aa" d="M750.05 1498.33c.318 0 .62-.145.819-.394.441-.546 10.731-13.457 10.731-19.556 0-6.379-5.171-11.55-11.55-11.55-6.379 0-11.55 5.171-11.55 11.55 0 6.099 10.29 19.005 10.731 19.556.2.249.5.394.819.394z"/><path id="vw6ab" d="M747.833 1465.663c5.797.007 10.494 4.704 10.5 10.5 0 4.527-6.896 14.425-10.5 19.11-3.603-4.684-10.5-14.58-10.5-19.11.007-5.796 4.704-10.493 10.5-10.5zm0 32.667c.354 0 .69-.161.91-.438.49-.606 11.924-14.953 11.924-21.729 0-7.087-5.746-12.833-12.834-12.833-7.087 0-12.833 5.746-12.833 12.833 0 6.776 11.433 21.117 11.924 21.73.22.276.556.437.91.437z"/><path id="vw6ac" d="M745.503 1474.997a2.332 2.332 0 0 1 2.334-2.331 2.332 2.332 0 0 1 2.333 2.33 2.332 2.332 0 0 1-2.333 2.331 2.332 2.332 0 0 1-2.334-2.33zm7 0a4.667 4.667 0 1 0-9.333 0 4.667 4.667 0 0 0 9.333 0z"/><path id="vw6ad" d="M745.5 1475.003a2.333 2.333 0 1 1 4.667 0 2.333 2.333 0 0 1-4.667 0z"/><path id="vw6ae" d="M797.293 1458.375s.592-.132.79-.363c.773-.896 7.544-8.889 7.544-13.179a8.333 8.333 0 0 0-8.334-8.333 8.333 8.333 0 0 0-8.333 8.333c0 4.29 6.77 12.283 7.544 13.18.198.23.79.362.79.362z"/><path id="vw6af" d="M795.663 1435.333a7.007 7.007 0 0 1 7 7c0 2.957-4.454 9.049-7 12.18-2.547-3.131-7-9.217-7-12.18a7.007 7.007 0 0 1 7-7zm0 22.167c.34 0 .663-.148.884-.406.866-1.004 8.45-9.956 8.45-14.76a9.333 9.333 0 0 0-9.334-9.334 9.333 9.333 0 0 0-9.333 9.333c0 4.805 7.583 13.757 8.45 14.76.22.259.543.407.883.407z"/><path id="vw6ag" d="M794.503 1441.175a1.172 1.172 0 1 1 2.344 0 1.172 1.172 0 0 1-2.344 0zm4.667-.005a3.5 3.5 0 1 0-7 0 3.5 3.5 0 0 0 7 0z"/><path id="vw6ah" d="M794.5 1441.167a1.167 1.167 0 1 1 2.333 0 1.167 1.167 0 0 1-2.333 0z"/><path id="vw6ai" d="M794.497 1462.163h1.166a1.167 1.167 0 0 0 0-2.333h-1.166a1.167 1.167 0 0 0 0 2.333z"/><path id="vw6aj" d="M779.336 1469.163h2.359a1.167 1.167 0 0 0 0-2.333h-2.378a1.16 1.16 0 0 0-1.157 1.167c.004.646.53 1.167 1.176 1.166z"/><path id="vw6ak" d="M792.41 1467.997c0 .644.522 1.166 1.167 1.166h2.376a1.167 1.167 0 0 0 0-2.333h-2.376c-.645 0-1.167.522-1.167 1.167z"/><path id="vw6al" d="M787.367 1462.163h2.377a1.167 1.167 0 0 0 0-2.333h-2.377a1.166 1.166 0 1 0 0 2.333z"/><path id="vw6am" d="M756.254 1500.67h-2.377a1.167 1.167 0 0 0 0 2.333h2.377a1.167 1.167 0 0 0 0-2.333z"/><path id="vw6an" d="M775.91 1466.388a1.167 1.167 0 0 0 1.143-1.406 2.333 2.333 0 0 1 .204-1.546 1.166 1.166 0 1 0-2.08-1.058 4.667 4.667 0 0 0-.407 3.08c.113.54.588.929 1.14.93z"/><path id="vw6ao" d="M786.447 1469.163h2.377a1.167 1.167 0 0 0 0-2.333h-2.377a1.167 1.167 0 0 0 0 2.333z"/><path id="vw6ap" d="M780.237 1462.163h2.377a1.167 1.167 0 0 0 0-2.333h-2.377a1.167 1.167 0 0 0 0 2.333z"/><path id="vw6aq" d="M768.705 1482.44a1.167 1.167 0 0 0 1.414-.85c.15-.598.435-1.157.831-1.632a1.166 1.166 0 1 0-1.786-1.5 6.427 6.427 0 0 0-1.309 2.567 1.164 1.164 0 0 0 .85 1.416z"/><path id="vw6ar" d="M791.751 1500.62c-.25.033-.503.05-.756.049h-1.468a1.166 1.166 0 1 0 0 2.333h1.468c.351 0 .702-.023 1.05-.068a1.168 1.168 0 0 0-.298-2.314z"/><path id="vw6as" d="M793.384 1487.02a8.163 8.163 0 0 0-2.381-.35h-.306a1.167 1.167 0 0 0 0 2.333h.306c.576 0 1.15.085 1.702.252a1.167 1.167 0 0 0 .679-2.231z"/><path id="vw6at" d="M790.893 1478.503a1.167 1.167 0 0 0 0-2.333h-2.376a1.167 1.167 0 0 0 0 2.333z"/><path id="vw6au" d="M797.867 1496.643a1.166 1.166 0 0 0-1.542.584 5.821 5.821 0 0 1-1.103 1.633 1.165 1.165 0 0 0 .556 1.96c.412.098.845-.035 1.13-.348a8.13 8.13 0 0 0 1.545-2.287 1.167 1.167 0 0 0-.586-1.542z"/><path id="vw6av" d="M803.972 1472.868a1.167 1.167 0 0 0-1.45.789 3.54 3.54 0 0 1-.911 1.51 1.167 1.167 0 1 0 1.633 1.668 5.863 5.863 0 0 0 1.517-2.517 1.167 1.167 0 0 0-.789-1.45z"/><path id="vw6aw" d="M802.647 1470.714a1.167 1.167 0 0 0 .87-1.946 5.87 5.87 0 0 0-2.45-1.624 1.167 1.167 0 1 0-.759 2.207c.565.194 1.071.53 1.47.975.222.247.538.388.87.388z"/><path id="vw6ax" d="M785.943 1486.67h-2.376a1.167 1.167 0 0 0 0 2.333h2.376a1.167 1.167 0 0 0 0-2.333z"/><path id="vw6ay" d="M798.024 1476.17h-2.377a1.167 1.167 0 0 0 0 2.333h2.377a1.167 1.167 0 0 0 0-2.333z"/><path id="vw6az" d="M763.383 1500.67h-2.376a1.167 1.167 0 0 0 0 2.333h2.376a1.167 1.167 0 0 0 0-2.333z"/><path id="vw6aA" d="M797.763 1490.25a1.169 1.169 0 0 0-1.93 1.318 5.77 5.77 0 0 1 .817 1.79 1.167 1.167 0 1 0 2.258-.583 8.103 8.103 0 0 0-1.145-2.526z"/><path id="vw6aB" d="M772.279 1486.252a4.15 4.15 0 0 1-1.42-1.16 1.166 1.166 0 1 0-1.844 1.43 6.474 6.474 0 0 0 2.23 1.822 1.167 1.167 0 0 0 1.034-2.092z"/><path id="vw6aC" d="M770.517 1500.67h-2.38a1.167 1.167 0 0 0 0 2.333h2.38a1.167 1.167 0 0 0 0-2.333z"/><path id="vw6aD" d="M784.773 1500.67h-2.376a1.167 1.167 0 0 0 0 2.333h2.376a1.167 1.167 0 0 0 0-2.333z"/><path id="vw6aE" d="M776.633 1478.503a1.167 1.167 0 0 0 0-2.333h-2.376a1.167 1.167 0 0 0 0 2.333z"/><path id="vw6aF" d="M783.769 1478.503a1.167 1.167 0 0 0 0-2.333h-2.382a1.167 1.167 0 0 0 0 2.333z"/><path id="vw6aG" d="M778.814 1486.67h-2.377a1.167 1.167 0 0 0 0 2.333h2.377a1.166 1.166 0 1 0 0-2.333z"/><path id="vw6aH" d="M777.644 1500.67h-2.377a1.167 1.167 0 0 0 0 2.333h2.377a1.167 1.167 0 0 0 0-2.333z"/><path id="vw6aI" d="M749.003 1500.67h-1.166a1.167 1.167 0 0 0 0 2.333h1.166a1.167 1.167 0 0 0 0-2.333z"/></defs><g><g transform="translate(-735 -1433)"><g><use fill="#fff686" xlink:href="#vw6aa"/></g><g><use fill="#2e2e2e" xlink:href="#vw6ab"/></g><g><use xlink:href="#vw6ac"/></g><g><use fill="#fff" xlink:href="#vw6ad"/></g><g><use fill="#f8f4e7" xlink:href="#vw6ae"/></g><g><use fill="#2e2e2e" xlink:href="#vw6af"/></g><g><use xlink:href="#vw6ag"/></g><g><use fill="#fff" xlink:href="#vw6ah"/></g><g><use fill="#2e2e2e" xlink:href="#vw6ai"/></g><g><use fill="#2e2e2e" xlink:href="#vw6aj"/></g><g><use fill="#2e2e2e" xlink:href="#vw6ak"/></g><g><use fill="#2e2e2e" xlink:href="#vw6al"/></g><g><use fill="#2e2e2e" xlink:href="#vw6am"/></g><g><use fill="#2e2e2e" xlink:href="#vw6an"/></g><g><use fill="#2e2e2e" xlink:href="#vw6ao"/></g><g><use fill="#2e2e2e" xlink:href="#vw6ap"/></g><g><use fill="#2e2e2e" xlink:href="#vw6aq"/></g><g><use fill="#2e2e2e" xlink:href="#vw6ar"/></g><g><use fill="#2e2e2e" xlink:href="#vw6as"/></g><g><use fill="#2e2e2e" xlink:href="#vw6at"/></g><g><use fill="#2e2e2e" xlink:href="#vw6au"/></g><g><use fill="#2e2e2e" xlink:href="#vw6av"/></g><g><use fill="#2e2e2e" xlink:href="#vw6aw"/></g><g><use fill="#2e2e2e" xlink:href="#vw6ax"/></g><g><use fill="#2e2e2e" xlink:href="#vw6ay"/></g><g><use fill="#2e2e2e" xlink:href="#vw6az"/></g><g><use fill="#2e2e2e" xlink:href="#vw6aA"/></g><g><use fill="#2e2e2e" xlink:href="#vw6aB"/></g><g><use fill="#2e2e2e" xlink:href="#vw6aC"/></g><g><use fill="#2e2e2e" xlink:href="#vw6aD"/></g><g><use fill="#2e2e2e" xlink:href="#vw6aE"/></g><g><use fill="#2e2e2e" xlink:href="#vw6aF"/></g><g><use fill="#2e2e2e" xlink:href="#vw6aG"/></g><g><use fill="#2e2e2e" xlink:href="#vw6aH"/></g><g><use fill="#2e2e2e" xlink:href="#vw6aI"/></g></g></g></svg>