<svg xmlns="http://www.w3.org/2000/svg" width="46" height="48" viewBox="0 0 46 48"><g><g><g><path fill="#fff686" d="M38.4 27.84v17.28c0 1.697-.517 2.88-2.214 2.88H6.72c-1.697 0-2.88-1.183-2.88-2.88V15.854c0-1.8 1.28-2.414 3.08-2.414H34.4a4 4 0 0 1 4 4z"/></g><g><path fill="none" stroke="#111" stroke-linecap="round" stroke-linejoin="round" stroke-miterlimit="50" stroke-width="2" d="M35.52 24.96v17.28c0 1.697-.517 2.88-2.214 2.88H3.84c-1.697 0-2.88-1.183-2.88-2.88V12.974c0-1.8 1.28-2.414 3.08-2.414h17.08v0h10.4a4 4 0 0 1 4 4z"/></g><g><path fill="#f8f4e7" d="M44.508 9.815a1.25 1.25 0 0 0 .364-.878c0-.33-.134-.645-.364-.879l-6.295-6.293a1.244 1.244 0 0 0-1.758 0l-23.451 23.45c-.29.29-4.38 10.59-4.532 10.969a1.243 1.243 0 0 0 1.617 1.617c.363-.147 10.693-4.254 10.966-4.535.17-.17 23.282-23.281 23.453-23.45z"/><path fill="none" stroke="#111" stroke-linecap="round" stroke-linejoin="round" stroke-miterlimit="50" stroke-width="2" d="M44.508 9.815a1.25 1.25 0 0 0 .364-.878c0-.33-.134-.645-.364-.879l-6.295-6.293a1.244 1.244 0 0 0-1.758 0l-23.451 23.45c-.29.29-4.38 10.59-4.532 10.969a1.243 1.243 0 0 0 1.617 1.617c.363-.147 10.693-4.254 10.966-4.535.17-.17 23.282-23.281 23.453-23.45z"/></g><g><path fill="none" stroke="#111" stroke-linecap="round" stroke-linejoin="round" stroke-miterlimit="50" stroke-width="2" d="M39.122 9.41L18.14 30.367"/></g><g><path fill="none" stroke="#111" stroke-linecap="round" stroke-linejoin="round" stroke-miterlimit="50" stroke-width="2" d="M13 25.22l8.051 8.051"/></g><g><path fill="none" stroke="#111" stroke-linecap="round" stroke-linejoin="round" stroke-miterlimit="50" stroke-width="2" d="M9.22 34.34l2.725 2.725"/></g></g></g></svg>