<svg xmlns="http://www.w3.org/2000/svg" xmlns:xlink="http://www.w3.org/1999/xlink" width="20" height="22" viewBox="0 0 20 22"><defs><path id="ttiza" d="M482.735 1566.939l-15.583 4.149a.501.501 0 0 0 .258.967l15.583-4.15a.5.5 0 0 0-.258-.966"/><path id="ttizb" d="M471.033 1569.088a.499.499 0 0 0 .138-.98l-6.534-1.876a.5.5 0 0 0-.275.96l6.533 1.876a.47.47 0 0 0 .138.02"/><path id="ttizc" d="M482.29 1571.667l-4.862-1.396a.498.498 0 0 0-.618.343.498.498 0 0 0 .342.618l4.863 1.396a.5.5 0 0 0 .275-.961"/><path id="ttizd" d="M468.086 1565.602a.499.499 0 0 0 .438-.74c-.106-.196-2.407-4.523 1.374-7.408.016.256.077.51.217.716a.935.935 0 0 0 .603.376.486.486 0 0 0 .313.125.473.473 0 0 0 .165-.028c.926-.323 1.534-.904 1.805-1.73.514-1.551-.367-3.59-1-4.761 1.721.338 5.052 1.358 5.224 4.209.016.276.218.504.53.469a.502.502 0 0 0 .468-.53c-.283-4.69-6.87-5.275-7.152-5.298a.502.502 0 0 0-.454.78c.567.834 1.93 3.326 1.435 4.819-.156.472-.5.806-1.028 1.028-.029-.007-.053-.021-.084-.023-.083-.115-.047-.623.072-1.024a.5.5 0 0 0-.726-.578c-5.84 3.324-2.672 9.278-2.638 9.338.09.166.261.26.438.26"/><path id="ttize" d="M480.076 1554.513a.5.5 0 0 0-.775.444c.05.88-.176 1.603-.673 2.145-1.023 1.115-2.874 1.182-2.893 1.182a.5.5 0 0 0-.485.514c.008.276.248.538.512.486.092-.002 2.285-.074 3.598-1.5.472-.514.77-1.13.888-1.84.753.706 1.853 2.01 2.091 3.763.243 1.8-.476 3.682-2.137 5.593a.499.499 0 1 0 .754.656c1.858-2.138 2.657-4.286 2.374-6.382-.426-3.15-3.139-4.985-3.254-5.061"/></defs><g><g transform="translate(-464 -1551)"><g><g><use fill="#111" xlink:href="#ttiza"/></g><g><use fill="#111" xlink:href="#ttizb"/></g><g><use fill="#111" xlink:href="#ttizc"/></g><g><use fill="#111" xlink:href="#ttizd"/></g><g><use fill="#111" xlink:href="#ttize"/></g></g><g/></g></g></svg>