<svg xmlns="http://www.w3.org/2000/svg" xmlns:xlink="http://www.w3.org/1999/xlink" width="65" height="49" viewBox="0 0 65 49"><defs><path id="epyda" d="M208.805 7695h-11.057c-.23 0-.5.12-.653.278l-8.715 9.013 6.028 6.234a.947.947 0 0 1 .268.675c-.038 1.588-.115 7.425-.038 9.768 0 .556-.422.992-.921.992h.384c.23 0 .499-.119.652-.278l14.743-15.247a.947.947 0 0 0 .269-.675v-9.807c-.039-.516-.46-.953-.96-.953z"/><path id="epydb" d="M182.127 7721.007c.038-2.342-.039-8.18-.039-9.767 0-.278.077-.516.27-.675l6.027-6.234-8.754-9.053a.911.911 0 0 0-.652-.278H167.92c-.499 0-.921.437-.921.953v9.807c0 .239.115.516.269.675l14.743 15.247a.884.884 0 0 0 .652.278h.384c-.499.04-.921-.436-.921-.953z"/><path id="epydc" d="M194.606 7721.006c-.038-2.342.038-8.18.038-9.767 0-.278-.076-.517-.268-.675l-5.99-6.274-6.027 6.234a.947.947 0 0 0-.269.675c.038 1.588.115 7.425.038 9.767 0 .556.423.993.922.993h10.596c.538.04.96-.437.96-.953z"/></defs><g><g transform="translate(-156 -7686)"><g><g><use fill="#8c8c8c" xlink:href="#epyda"/></g><g><use fill="#8c8c8c" xlink:href="#epydb"/></g><g><use fill="#dbdbdb" xlink:href="#epydc"/></g></g></g></g></svg>