<svg xmlns="http://www.w3.org/2000/svg" xmlns:xlink="http://www.w3.org/1999/xlink" width="17" height="23" viewBox="0 0 17 23"><defs><path id="y1qla" d="M638.222 2012.196s2.24-4.229-2.641-6.056c0 0-2.205 4.572 2.64 6.056z"/><path id="y1qlb" d="M638.37 2012.343s3.379-3.98 7.204.227c0 0-3.741 4.084-7.204-.226z"/><path id="y1qlc" d="M640.977 2008.11s-1.737-4.924 3.823-6.11c0 0 1.645 5.288-3.823 6.11z"/><path id="y1qld" d="M634.602 2017.686s2.24-4.229-2.641-6.056c0 0-2.205 4.572 2.64 6.056z"/><path id="y1qle" d="M634.75 2017.833s3.379-3.98 7.204.227c0 0-3.741 4.084-7.204-.226z"/><path id="y1qlf" d="M631 2023.62l9.973-15.51"/></defs><g><g transform="translate(-630 -2001)"><g><g><use fill="#fff" fill-opacity="0" stroke="#111" stroke-linecap="round" stroke-linejoin="round" stroke-miterlimit="50" xlink:href="#y1qla"/></g><g><use fill="#fff" fill-opacity="0" stroke="#111" stroke-linecap="round" stroke-linejoin="round" stroke-miterlimit="50" xlink:href="#y1qlb"/></g><g><use fill="#fff" fill-opacity="0" stroke="#111" stroke-linecap="round" stroke-linejoin="round" stroke-miterlimit="50" xlink:href="#y1qlc"/></g><g><use fill="#fff" fill-opacity="0" stroke="#111" stroke-linecap="round" stroke-linejoin="round" stroke-miterlimit="50" xlink:href="#y1qld"/></g><g><use fill="#fff" fill-opacity="0" stroke="#111" stroke-linecap="round" stroke-linejoin="round" stroke-miterlimit="50" xlink:href="#y1qle"/></g><g><use fill="#fff" fill-opacity="0" stroke="#111" stroke-linecap="round" stroke-linejoin="round" stroke-miterlimit="50" xlink:href="#y1qlf"/></g></g><g/></g></g></svg>