<svg xmlns="http://www.w3.org/2000/svg" width="31" height="54" viewBox="0 0 31 54"><g><g><g><path fill="#f8f4e7" d="M22.776 34.976v17.7l-8.153-7.822L8.73 50.92V28.55l14.046.703z"/></g><g><path fill="none" stroke="#111" stroke-linecap="round" stroke-linejoin="round" stroke-miterlimit="50" stroke-width="2" d="M22.774 26.75v25.924l-7.937-7.923v0L6.9 52.674v0V26.75v0z"/></g><g><path fill="#fff686" d="M12.328 15.074a4.615 4.615 0 0 1 6.085-2.361 4.62 4.62 0 0 1 2.355 6.09 4.615 4.615 0 0 1-6.083 2.359 4.62 4.62 0 0 1-2.357-6.088zm16.043 2.142c1.608-1.26 2.317-3.452 1.539-5.453-.778-2.006-2.771-3.15-4.813-2.995.231-2.02-.813-4.054-2.77-4.917-1.955-.865-4.162-.266-5.5 1.264-1.26-1.612-3.449-2.315-5.454-1.538-2.005.772-3.147 2.772-2.995 4.81-2.02-.23-4.05.817-4.915 2.774-.863 1.954-.267 4.159 1.262 5.498-1.607 1.258-2.316 3.45-1.539 5.456.778 2.004 2.773 3.145 4.812 2.993-.23 2.02.816 4.051 2.772 4.915 1.955.863 4.162.268 5.5-1.262 1.26 1.61 3.448 2.315 5.454 1.54 2.005-.778 3.147-2.778 2.995-4.813 2.019.229 4.05-.816 4.913-2.771.864-1.957.269-4.163-1.261-5.5z"/></g><g><path fill="none" stroke="#111" stroke-linecap="round" stroke-linejoin="round" stroke-miterlimit="50" stroke-width="2" d="M10.505 13.245a4.615 4.615 0 1 1 2.359 6.084 4.615 4.615 0 0 1-2.36-6.084zm16.046 2.141c1.608-1.26 2.317-3.452 1.539-5.453-.778-2.006-2.771-3.15-4.813-2.995.231-2.02-.813-4.054-2.77-4.917-1.955-.865-4.162-.266-5.5 1.264-1.26-1.612-3.449-2.315-5.454-1.538-2.005.772-3.147 2.772-2.995 4.81-2.02-.23-4.05.817-4.915 2.774-.863 1.954-.267 4.159 1.262 5.498-1.607 1.258-2.316 3.45-1.539 5.456.778 2.004 2.773 3.145 4.812 2.993-.23 2.02.816 4.051 2.772 4.915 1.955.863 4.162.268 5.5-1.262 1.26 1.61 3.448 2.315 5.454 1.54 2.005-.778 3.147-2.778 2.995-4.813 2.019.229 4.05-.816 4.913-2.771.864-1.957.269-4.163-1.261-5.5z"/></g></g></g></svg>