<svg xmlns="http://www.w3.org/2000/svg" xmlns:xlink="http://www.w3.org/1999/xlink" width="34" height="30" viewBox="0 0 34 30"><defs><path id="si9la" d="M252 635h-.673c-3.171-5.538.336-11 .336-11"/><path id="si9lb" d="M265.13 628s1.708 2.809-.13 6"/><path id="si9lc" d="M264 629.05c-.037.563-.019 1.844-.007 3.47.008 1.103-.155 2.206-.534 3.239-.934 2.54-2.87 4.241-5.459 4.241-2.589 0-4.555-1.793-5.479-4.302-.362-.986-.521-2.04-.521-3.094V629"/><path id="si9ld" d="M256 632.5a.5.5 0 1 0-1 0 .5.5 0 0 0 1 0"/><path id="si9le" d="M261 632.5a.5.5 0 1 0-1 0 .5.5 0 0 0 1 0"/><path id="si9lf" d="M252 626s4.213 4.722 10 2.317"/><path id="si9lg" d="M253 622.609c.204-.287 1.703-2.356 3.946-1.322 2.243 1.035 5.516 1.725 6.488.518.75-.932.739.947.057 2.195"/><path id="si9lh" d="M255 640c0 1.657 1.567 3 3.5 3s3.5-1.343 3.5-3"/><path id="si9li" d="M255 640s-1.943 2.613-3.825 3.62c-1.473.787-6.372 2.58-8.175 5.38"/><path id="si9lj" d="M262 639s2.056 2.208 4.118 2.966c1.905.699 8.674 3.243 8.882 7.034"/><path id="si9lk" d="M263 625.565c.575.23 1.275.312 1.714-.335.74-1.093-.07 2.025-1.129 2.77"/></defs><g><g transform="translate(-242 -620)"><g><g><use fill="#fff" fill-opacity="0" stroke="#111" stroke-linecap="round" stroke-linejoin="round" stroke-miterlimit="50" xlink:href="#si9la"/></g><g><use fill="#fff" fill-opacity="0" stroke="#111" stroke-linecap="round" stroke-linejoin="round" stroke-miterlimit="50" xlink:href="#si9lb"/></g><g><use fill="#fff" fill-opacity="0" stroke="#111" stroke-linecap="round" stroke-linejoin="round" stroke-miterlimit="50" xlink:href="#si9lc"/></g><g><use fill="#111" xlink:href="#si9ld"/></g><g><use fill="#111" xlink:href="#si9le"/></g><g><use fill="#fff" fill-opacity="0" stroke="#111" stroke-linecap="round" stroke-linejoin="round" stroke-miterlimit="50" xlink:href="#si9lf"/></g><g><use fill="#fff" fill-opacity="0" stroke="#111" stroke-linecap="round" stroke-linejoin="round" stroke-miterlimit="50" xlink:href="#si9lg"/></g><g><use fill="#fff" fill-opacity="0" stroke="#111" stroke-linecap="round" stroke-linejoin="round" stroke-miterlimit="50" xlink:href="#si9lh"/></g><g><use fill="#fff" fill-opacity="0" stroke="#111" stroke-linecap="round" stroke-linejoin="round" stroke-miterlimit="50" xlink:href="#si9li"/></g><g><use fill="#fff" fill-opacity="0" stroke="#111" stroke-linecap="round" stroke-linejoin="round" stroke-miterlimit="50" xlink:href="#si9lj"/></g><g><use fill="#fff" fill-opacity="0" stroke="#111" stroke-linecap="round" stroke-linejoin="round" stroke-miterlimit="50" xlink:href="#si9lk"/></g></g><g/></g></g></svg>