<svg xmlns="http://www.w3.org/2000/svg" xmlns:xlink="http://www.w3.org/1999/xlink" width="26" height="22" viewBox="0 0 26 22"><defs><path id="8feba" d="M474.345 1233.492a1.97 1.97 0 0 1-2.647-.006c-3.554-3.244-6.316-6.025-8.889-9.012a6.126 6.126 0 0 1 .81-9.368c1.834-1.306 4.318-1.45 6.336-.446a5.877 5.877 0 0 1 2.525 2.348.624.624 0 0 0 1.08-.005c.584-1.009 1.479-1.885 2.78-2.466 1.688-.752 3.68-.718 5.325.124 3.925 2.006 4.339 7.119 1.488 9.954-2.989 3.402-5.984 6.32-8.808 8.877"/></defs><g><g transform="translate(-460 -1213)"><use fill-opacity=".28" xlink:href="#8feba"/><use fill="#fff" fill-opacity="0" stroke="#fff" stroke-miterlimit="50" stroke-width="2" xlink:href="#8feba"/></g></g></svg>