<svg xmlns="http://www.w3.org/2000/svg" xmlns:xlink="http://www.w3.org/1999/xlink" width="20" height="17" viewBox="0 0 20 17"><defs><path id="8l7oa" d="M1195.751 142.07a1.458 1.458 0 0 1-1.968-.004c-2.642-2.424-4.695-4.504-6.608-6.736a4.595 4.595 0 0 1 .602-7.003c1.364-.976 3.21-1.084 4.71-.334a4.38 4.38 0 0 1 1.878 1.756c.177.31.624.305.802-.004.434-.754 1.1-1.41 2.067-1.843a4.61 4.61 0 0 1 3.959.092c2.918 1.5 3.226 5.321 1.106 7.44-2.222 2.544-4.449 4.725-6.548 6.637"/></defs><g><g transform="translate(-1185 -126)"><use fill="#fff" fill-opacity="0" stroke="#fff" stroke-miterlimit="50" xlink:href="#8l7oa"/></g></g></svg>