<svg xmlns="http://www.w3.org/2000/svg" xmlns:xlink="http://www.w3.org/1999/xlink" width="31" height="31" viewBox="0 0 31 31"><defs><path id="5d2qa" d="M699 512a9 9 0 1 1 18 0 9 9 0 1 1-18 0zm20.074 7.751a1.733 1.733 0 0 1-.366-2.092c1.108-2.105 1.611-4.579 1.28-7.19-.66-5.185-4.748-9.455-9.904-10.301-8.238-1.353-15.262 5.67-13.918 13.912.84 5.153 5.091 9.243 10.267 9.917a12.039 12.039 0 0 0 7.176-1.258 1.728 1.728 0 0 1 2.071.36l6.513 7.035c1.138 1.23 3.172 1.14 4.244-.205.925-1.163.662-2.883-.438-3.881z"/></defs><g><g transform="translate(-696 -500)"><use fill="#cacaca" xlink:href="#5d2qa"/></g></g></svg>