<svg xmlns="http://www.w3.org/2000/svg" width="49" height="49" viewBox="0 0 49 49"><g><g><g><path fill="#f8f4e7" d="M33.704 30.22L46.93 43.447a2.463 2.463 0 1 1-3.484 3.484L30.22 33.703"/><path fill="none" stroke="#111" stroke-linecap="round" stroke-linejoin="round" stroke-miterlimit="50" stroke-width="2" d="M33.704 30.22v0L46.93 43.447a2.463 2.463 0 0 1 0 3.483v0a2.463 2.463 0 0 1-3.483 0L30.22 33.704v0"/></g><g><path fill="#fff686" d="M21.487 40.534c9.934 0 17.987-8.053 17.987-17.987 0-9.934-8.053-17.987-17.987-17.987C11.553 4.56 3.5 12.613 3.5 22.547c0 9.934 8.053 17.987 17.987 17.987z"/></g><g><path fill="none" stroke="#111" stroke-linecap="round" stroke-linejoin="round" stroke-miterlimit="50" stroke-width="2" d="M19.357 37.344c9.934 0 17.987-8.053 17.987-17.987 0-9.934-8.053-17.987-17.987-17.987C9.423 1.37 1.37 9.423 1.37 19.357c0 9.934 8.053 17.987 17.987 17.987z"/></g><g><path fill="#f8f4e7" d="M27.157 23.91c-2.637-1.128-5.564-2.528-5.81-3.4v-.915c.547-.62.978-1.483 1.234-2.494.613-.476.766-1.459.258-2.15v-2.048c0-2.115-1.065-3.563-3.498-3.563-2.371 0-3.5 1.448-3.5 3.563v2.049c-.507.69-.354 1.672.259 2.15.255 1.01.687 1.874 1.234 2.493v.915c-.245.871-3.173 2.272-5.81 3.4-.225.097-.374.338-.374.609v2.288c0 .36.26.652.58.652h15.22c.321 0 .58-.292.58-.652V24.52c0-.27-.148-.513-.373-.61z"/><path fill="none" stroke="#111" stroke-linecap="round" stroke-linejoin="round" stroke-miterlimit="50" stroke-width="2" d="M27.157 23.91c-2.637-1.128-5.564-2.528-5.81-3.4v-.915c.547-.62.978-1.483 1.234-2.494.613-.476.766-1.459.258-2.15v-2.048c0-2.115-1.065-3.563-3.498-3.563-2.371 0-3.5 1.448-3.5 3.563v2.049c-.507.69-.354 1.672.259 2.15.255 1.01.687 1.874 1.234 2.493v.915c-.245.871-3.173 2.272-5.81 3.4-.225.097-.374.338-.374.609v2.288c0 .36.26.652.58.652h15.22c.321 0 .58-.292.58-.652V24.52c0-.27-.148-.513-.373-.61z"/></g></g></g></svg>