<svg xmlns="http://www.w3.org/2000/svg" xmlns:xlink="http://www.w3.org/1999/xlink" width="19" height="18" viewBox="0 0 19 18"><defs><path id="7od6a" d="M222.28 583.754v-7.55h4.407s1.253-.335 1.785-1.09c.531-.756 1.826-2.86 2.035-3.985.21-1.125.88-1.437 1.32-1.125.438.313 1.173 3.6.674 4.8-.498 1.2 1.064 1.2 1.064 1.2h4.076s1.02.787.759 1.894c-.262 1.106.205 1.587-.387 2.447-.593.86-.345 1.983-1.067 2.373-.721.39-.198 2.286-1.621 2.286s-8.42-1.895-8.42-1.895l-.218 1.895-4.407-.25z"/><path id="7od6b" d="M237.456 578.16h-1.386"/><path id="7od6c" d="M236.695 580.42h-.995"/><path id="7od6d" d="M226.88 583.421c4.029 1.375 8.825 1.29 8.825 1.29 1.84 0 1.45-2.021.12-2.021h-.532"/><path id="7od6e" d="M226.88 576.576s3.798-2.986 3.526-6.109c-.207-2.37 4.192-.557 1.743 5.424h5.428c1.514 0 1.51 2.267 0 2.267h-.117c1.526 0 1.486 2.267 0 2.267h-.76c1.514 0 1.51 2.267 0 2.267h-.876"/><path id="7od6f" d="M222.38 584.88v-9h4.5v9z"/></defs><g><g transform="translate(-221 -568)"><g><use fill="#fff686" xlink:href="#7od6a"/></g><g><use fill="#fff" fill-opacity="0" stroke="#111" stroke-linecap="round" stroke-linejoin="round" stroke-miterlimit="50" xlink:href="#7od6b"/></g><g><use fill="#fff" fill-opacity="0" stroke="#111" stroke-linecap="round" stroke-linejoin="round" stroke-miterlimit="50" xlink:href="#7od6c"/></g><g><use fill="#fff" fill-opacity="0" stroke="#111" stroke-linecap="round" stroke-linejoin="round" stroke-miterlimit="50" xlink:href="#7od6d"/></g><g><use fill="#fff" fill-opacity="0" stroke="#111" stroke-linecap="round" stroke-linejoin="round" stroke-miterlimit="50" xlink:href="#7od6e"/></g><g><use fill="#fff" fill-opacity="0" stroke="#111" stroke-linecap="round" stroke-linejoin="round" stroke-miterlimit="50" xlink:href="#7od6f"/></g></g></g></svg>