<svg xmlns="http://www.w3.org/2000/svg" xmlns:xlink="http://www.w3.org/1999/xlink" width="12" height="10" viewBox="0 0 12 10"><defs><path id="h1sga" d="M241 655v-18h18v18z"/><path id="h1sgc" d="M246 640.5a.5.5 0 0 1 .5-.5h8a.5.5 0 0 1 .5.5v.5a.5.5 0 0 1-.5.5h-8a.5.5 0 0 1-.5-.5zm-3 0a.5.5 0 0 1 .5-.5h.5a.5.5 0 0 1 .5.5v.5a.5.5 0 0 1-.5.5h-.5a.5.5 0 0 1-.5-.5zm3 4a.5.5 0 0 1 .5-.5h8a.5.5 0 0 1 .5.5v.5a.5.5 0 0 1-.5.5h-8a.5.5 0 0 1-.5-.5zm-3 0a.5.5 0 0 1 .5-.5h.5a.5.5 0 0 1 .5.5v.5a.5.5 0 0 1-.5.5h-.5a.5.5 0 0 1-.5-.5zm3 4a.5.5 0 0 1 .5-.5h8a.5.5 0 0 1 .5.5v.5a.5.5 0 0 1-.5.5h-8a.5.5 0 0 1-.5-.5zm-3 0a.5.5 0 0 1 .5-.5h.5a.5.5 0 0 1 .5.5v.5a.5.5 0 0 1-.5.5h-.5a.5.5 0 0 1-.5-.5z"/><clipPath id="h1sgb"><use xlink:href="#h1sga"/></clipPath></defs><g><g transform="translate(-243 -640)"><g/><g clip-path="url(#h1sgb)"><use fill="#111" xlink:href="#h1sgc"/></g></g></g></svg>