<svg xmlns="http://www.w3.org/2000/svg" width="36" height="47" viewBox="0 0 36 47"><g><g><g><g><path fill="#fff686" d="M35.597 12.916A4.336 4.336 0 0 0 31.26 8.58H8.766a4.336 4.336 0 0 0-4.336 4.336v29.828a4.336 4.336 0 0 0 4.336 4.336H31.26a4.336 4.336 0 0 0 4.336-4.336V12.916z"/></g><g><path fill="none" stroke="#111" stroke-linecap="round" stroke-linejoin="round" stroke-miterlimit="50" stroke-width="2" d="M32.597 8.916A4.336 4.336 0 0 0 28.26 4.58H5.766A4.336 4.336 0 0 0 1.43 8.916v29.828a4.336 4.336 0 0 0 4.336 4.336H28.26a4.336 4.336 0 0 0 4.336-4.336V8.916v0z"/></g><g><path fill="none" stroke="#111" stroke-linecap="round" stroke-linejoin="round" stroke-miterlimit="50" stroke-width="2" d="M25.136 15.58H8.77"/></g><g><path fill="none" stroke="#111" stroke-linecap="round" stroke-linejoin="round" stroke-miterlimit="50" stroke-width="2" d="M25.136 22.92H8.77"/></g><g><path fill="none" stroke="#111" stroke-linecap="round" stroke-linejoin="round" stroke-miterlimit="50" stroke-width="2" d="M17.484 30.248H8.77"/></g><g><path fill="none" stroke="#111" stroke-linecap="round" stroke-linejoin="round" stroke-miterlimit="50" stroke-width="2" d="M17.01.94v5.486"/></g><g><path fill="none" stroke="#111" stroke-linecap="round" stroke-linejoin="round" stroke-miterlimit="50" stroke-width="2" d="M11.51.94v5.486"/></g><g><path fill="none" stroke="#111" stroke-linecap="round" stroke-linejoin="round" stroke-miterlimit="50" stroke-width="2" d="M22.51.94v5.486"/></g></g><g/></g></g></svg>