<svg xmlns="http://www.w3.org/2000/svg" xmlns:xlink="http://www.w3.org/1999/xlink" width="10" height="12" viewBox="0 0 10 12"><defs><path id="pr38a" d="M193.589 613.785a2.12 2.12 0 0 1-2.11-2.132 2.12 2.12 0 0 1 2.11-2.131 2.12 2.12 0 0 1 2.11 2.131 2.12 2.12 0 0 1-2.11 2.132zm0-6.785c-2.535 0-4.589 2.076-4.589 4.636 0 3.535 3.714 7.364 4.603 7.364.89 0 4.573-3.829 4.573-7.364 0-2.56-2.054-4.636-4.587-4.636z"/></defs><g><g transform="translate(-189 -607)"><use fill="#111" xlink:href="#pr38a"/></g></g></svg>