<svg xmlns="http://www.w3.org/2000/svg" xmlns:xlink="http://www.w3.org/1999/xlink" width="15" height="16" viewBox="0 0 15 16"><defs><path id="w5ima" d="M237 653v-16h16v16z"/><path id="w5imc" d="M245.997 640.03v11.048l-3-1.113v-11.05zm1 11.06v-11.049l3.508-1.31v11.054zm-5-12.173v11.044l-3.467 1.291V640.24zm.494 11.927l3.85 1.428a.5.5 0 0 0 .348 0l4.49-1.67a.5.5 0 0 0 .326-.47V638.01a.5.5 0 0 0-.675-.468l-4.316 1.612-3.85-1.428a.5.5 0 0 0-.351.001l-4.461 1.7a.5.5 0 0 0-.322.467v12.078a.5.5 0 0 0 .675.468z"/><clipPath id="w5imb"><use xlink:href="#w5ima"/></clipPath></defs><g><g transform="translate(-237 -637)"><g/><g clip-path="url(#w5imb)"><use fill="#111" xlink:href="#w5imc"/></g></g></g></svg>