<svg xmlns="http://www.w3.org/2000/svg" xmlns:xlink="http://www.w3.org/1999/xlink" width="16" height="19" viewBox="0 0 16 19"><defs><path id="konia" d="M987.538 606.864c-.13-.13-.303-.146-.522.069-.214.21-.828.81-.888.866a.194.194 0 0 1-.05.036c-.943.477-4.347-3.167-3.697-3.852l.97-.95a.318.318 0 0 0 .004-.45l-3.175-3.238a.317.317 0 0 0-.45-.004c-1.574 1.545-4.159 3.11 1.816 9.205 2.365 2.412 5.68 5.304 8.123 3.011l.06-.055c.042-.038.977-.951 1.002-.978a.318.318 0 0 0-.006-.44l-3.187-3.22z"/><path id="konib" d="M989.725 611.503s.734 1.663-.893 3.29c-1.124 1.125-2.937.719-3.938-.397l-5.29-5.427s-1.208-.978-2.346.092a1.863 1.863 0 0 0-.053 2.684l1.858 1.858"/></defs><g><g transform="translate(-976 -598)"><g><g><use fill="#fff" fill-opacity="0" stroke="#fff" stroke-miterlimit="50" xlink:href="#konia"/></g><g><use fill="#fff" fill-opacity="0" stroke="#fff" stroke-miterlimit="50" xlink:href="#konib"/></g></g><g/></g></g></svg>