<svg xmlns="http://www.w3.org/2000/svg" xmlns:xlink="http://www.w3.org/1999/xlink" width="23" height="24" viewBox="0 0 23 24"><defs><path id="i8jma" d="M535.74 632.393v-12.298c0-.836.678-1.515 1.515-1.515h1.735v1.25"/><path id="i8jmb" d="M543.43 632.393v-12.298c0-.836.678-1.515 1.515-1.515h1.735v1.25"/><path id="i8jmc" d="M543.427 623.08h-7.687"/><path id="i8jmd" d="M543.427 626.4h-7.687"/><path id="i8jme" d="M543.427 629.71h-7.687"/><path id="i8jmf" d="M528.82 634.17c1.751 0 1.751 2 3.501 2 1.752 0 1.752-2 3.505-2s1.753 2 3.505 2c1.754 0 1.754-2 3.507-2 1.756 0 1.756 2 3.512 2s1.756-2 3.512-2"/><path id="i8jmg" d="M528.82 638.5c1.751 0 1.751 2 3.501 2 1.752 0 1.752-2 3.505-2s1.753 2 3.505 2c1.754 0 1.754-2 3.507-2 1.756 0 1.756 2 3.512 2s1.756-2 3.512-2"/></defs><g><g transform="translate(-528 -618)"><g><g><g><use fill="#fff" fill-opacity="0" stroke="#111" stroke-linecap="round" stroke-linejoin="round" stroke-miterlimit="50" xlink:href="#i8jma"/></g><g><use fill="#fff" fill-opacity="0" stroke="#111" stroke-linecap="round" stroke-linejoin="round" stroke-miterlimit="50" xlink:href="#i8jmb"/></g><g><use fill="#fff" fill-opacity="0" stroke="#111" stroke-linecap="round" stroke-linejoin="round" stroke-miterlimit="50" xlink:href="#i8jmc"/></g><g><use fill="#fff" fill-opacity="0" stroke="#111" stroke-linecap="round" stroke-linejoin="round" stroke-miterlimit="50" xlink:href="#i8jmd"/></g><g><use fill="#fff" fill-opacity="0" stroke="#111" stroke-linecap="round" stroke-linejoin="round" stroke-miterlimit="50" xlink:href="#i8jme"/></g><g><use fill="#fff" fill-opacity="0" stroke="#111" stroke-linecap="round" stroke-linejoin="round" stroke-miterlimit="50" xlink:href="#i8jmf"/></g><g><use fill="#fff" fill-opacity="0" stroke="#111" stroke-linecap="round" stroke-linejoin="round" stroke-miterlimit="50" xlink:href="#i8jmg"/></g></g></g><g/></g></g></svg>