<svg xmlns="http://www.w3.org/2000/svg" xmlns:xlink="http://www.w3.org/1999/xlink" width="24" height="24" viewBox="0 0 24 24"><defs><path id="w1eza" d="M688.135 1568.119c-2.118.595-3.676.266-5.604-.563v.002l-4.407 4.408a1.069 1.069 0 0 1-1.511 0l-2.3-2.301a1.068 1.068 0 0 1 0-1.51l4.186-4.186c-2.698-4.191-1.192-9.581 3.195-12.405 4.388-2.825 10.132-1.717 12.83 2.474 2.237 3.476 1.677 7.98-1.082 11.028"/><path id="w1ezb" d="M677.66 1556.67l10.955 10.965"/><path id="w1ezc" d="M696.134 1568.667a3.757 3.757 0 1 0-7.514 0 3.757 3.757 0 0 0 7.514 0z"/></defs><g><g transform="translate(-673 -1549)"><g><g><use fill="#fff" fill-opacity="0" stroke="#111" stroke-linecap="round" stroke-linejoin="round" stroke-miterlimit="50" xlink:href="#w1eza"/></g><g><use fill="#fff" fill-opacity="0" stroke="#111" stroke-linecap="round" stroke-linejoin="round" stroke-miterlimit="50" xlink:href="#w1ezb"/></g><g><use fill="#fff" fill-opacity="0" stroke="#111" stroke-linecap="round" stroke-linejoin="round" stroke-miterlimit="50" xlink:href="#w1ezc"/></g></g><g/></g></g></svg>