<svg xmlns="http://www.w3.org/2000/svg" width="48" height="51" viewBox="0 0 48 51"><g><g><g><path fill="#f8f4e7" d="M15.899 39.67l11.48 8.095c.517.392.427 1.121 0 1.549l-1.295 1.294c-.427.428-.983.32-1.547 0L12.94 42.63z"/></g><g><path fill="none" stroke="#000" stroke-linecap="round" stroke-linejoin="round" stroke-miterlimit="50" stroke-width="2" d="M14.049 38.74v0l11.48 8.095c.517.392.427 1.121 0 1.549l-1.295 1.294c-.427.428-.983.32-1.547 0L11.09 41.7v0z"/></g><g><path fill="#fff686" d="M9.806 37.28l-.003-.001-3.05 3.073-4.493 3.03 6.624 6.622 3.134-4.594 2.96-2.958h-.002l27.06-14.123L23.928 10.22z"/></g><g><path fill="none" stroke="#000" stroke-linecap="round" stroke-linejoin="round" stroke-miterlimit="50" stroke-width="2" d="M8.876 33.57v0l-.003-.001v0l-3.05 3.073v0l-4.493 3.03v0l6.624 6.622v0l3.134-4.594v0l2.96-2.958v0h-.002v0l27.06-14.123v0L22.998 6.51v0z"/></g><g><path fill="none" stroke="#000" stroke-linecap="round" stroke-linejoin="round" stroke-miterlimit="50" stroke-width="2" d="M46.357 17.026A14.85 14.85 0 0 0 30.99 1.658"/></g><g><path fill="none" stroke="#000" stroke-linecap="round" stroke-linejoin="round" stroke-miterlimit="50" stroke-width="2" d="M32.68 8.434a6.478 6.478 0 0 1 6.905 6.905"/></g><g><path fill="none" stroke="#000" stroke-linecap="round" stroke-linejoin="round" stroke-miterlimit="50" stroke-width="2" d="M8.88 33.57l5.17 5.17"/></g><g><path fill="none" stroke="#000" stroke-linecap="round" stroke-linejoin="round" stroke-miterlimit="50" stroke-width="2" d="M5.82 36.64l5.265 5.059"/></g></g></g></svg>