<svg xmlns="http://www.w3.org/2000/svg" width="30" height="32" viewBox="0 0 30 32"><g><g><g><path fill="none" stroke="#dbdbdb" stroke-linecap="round" stroke-linejoin="round" stroke-miterlimit="50" stroke-width="2" d="M20.61 1.08v5.108h5.208v0"/></g><g><path fill="none" stroke="#dbdbdb" stroke-linecap="round" stroke-linejoin="round" stroke-miterlimit="50" stroke-width="2" d="M3.69 5.538v0-3.43c0-.556.456-1.028 1.025-1.028h15.9c.271 0 .397.114.589.3l4.313 4.175c.195.189.307.364.307.633v23.244a1.03 1.03 0 0 1-1.03 1.022H4.713a1.026 1.026 0 0 1-1.024-1.022v-3.399 0"/></g><g><path fill="none" stroke="#dbdbdb" stroke-linecap="round" stroke-linejoin="round" stroke-miterlimit="50" stroke-width="2" d="M10.165 21.354c3.548 0 6.425-2.821 6.425-6.302 0-3.48-2.877-6.302-6.425-6.302S3.74 11.572 3.74 15.052c0 3.48 2.877 6.302 6.425 6.302z"/></g><g><path fill="none" stroke="#dbdbdb" stroke-linecap="round" stroke-linejoin="round" stroke-miterlimit="50" stroke-width="2" d="M5.633 19.51l-7.073 6.938"/></g></g></g></svg>