<svg xmlns="http://www.w3.org/2000/svg" xmlns:xlink="http://www.w3.org/1999/xlink" width="16" height="16" viewBox="0 0 16 16"><defs><path id="qxd0a" d="M563.57 483.1a4.53 4.53 0 1 1 9.06 0 4.53 4.53 0 0 1-9.06 0zM573.689 487a.877.877 0 0 1-.186-1.06 6.112 6.112 0 0 0 .649-3.64c-.335-2.624-2.405-4.786-5.017-5.214a6.108 6.108 0 0 0-7.05 7.043c.425 2.608 2.58 4.679 5.2 5.02a6.101 6.101 0 0 0 3.635-.637.875.875 0 0 1 1.05.182l3.299 3.562c.576.622 1.606.577 2.15-.104.468-.589.335-1.46-.222-1.965z"/></defs><g><g transform="translate(-562 -477)"><use fill="#111" xlink:href="#qxd0a"/></g></g></svg>