<svg xmlns="http://www.w3.org/2000/svg" xmlns:xlink="http://www.w3.org/1999/xlink" width="18" height="16" viewBox="0 0 18 16"><defs><path id="kk0ca" d="M1245.838 142.02c-1.24 0-2.248-.992-2.248-2.21 0-1.217 1.008-2.208 2.248-2.208 1.24 0 2.248.99 2.248 2.209 0 1.217-1.009 2.208-2.248 2.208zm-11.69-4.418c-1.24 0-2.249-.991-2.249-2.209s1.009-2.209 2.248-2.209c1.24 0 2.249.991 2.249 2.21 0 1.217-1.009 2.208-2.249 2.208zm11.69-9.718c1.24 0 2.248.99 2.248 2.208 0 1.218-1.009 2.209-2.248 2.209-1.24 0-2.248-.991-2.248-2.209s1.008-2.208 2.248-2.208zm0 8.834a3.146 3.146 0 0 0-2.732 1.587l-5.895-2.228a3.02 3.02 0 0 0 .084-.684 3 3 0 0 0-.144-.875l6.052-2.745a3.157 3.157 0 0 0 2.635 1.411c1.735 0 3.147-1.387 3.147-3.092s-1.412-3.092-3.147-3.092c-1.735 0-3.148 1.387-3.148 3.092a3 3 0 0 0 .145.875l-6.053 2.745a3.157 3.157 0 0 0-2.635-1.411c-1.735 0-3.147 1.387-3.147 3.092s1.412 3.092 3.147 3.092a3.146 3.146 0 0 0 2.732-1.586l5.895 2.227a3.02 3.02 0 0 0-.084.685c0 1.704 1.413 3.092 3.148 3.092s3.147-1.388 3.147-3.092c0-1.705-1.412-3.093-3.147-3.093z"/></defs><g><g transform="translate(-1231 -127)"><use fill="#fff" xlink:href="#kk0ca"/></g></g></svg>