<svg xmlns="http://www.w3.org/2000/svg" xmlns:xlink="http://www.w3.org/1999/xlink" width="34" height="40" viewBox="0 0 34 40"><defs><path id="t8uxa" d="M1219.474 653.334c-.054 3.27.054 11.42.054 13.636 0 .388-.108.721-.376.943l-8.361 8.758-8.416-8.703a1.322 1.322 0 0 1-.375-.942c.054-2.217.16-10.366.054-13.637 0-.776.59-1.386 1.286-1.386h14.794c.75-.055 1.34.61 1.34 1.33z"/><mask id="t8uxc" width="2" height="2" x="-1" y="-1"><path fill="#fff" d="M1202 652h18v25h-18z"/><use xlink:href="#t8uxa"/></mask><filter id="t8uxb" width="58" height="65" x="1182" y="632" filterUnits="userSpaceOnUse"><feOffset in="SourceGraphic" result="FeOffset1035Out"/><feGaussianBlur in="FeOffset1035Out" result="FeGaussianBlur1036Out" stdDeviation="4 4"/></filter><clipPath id="t8uxd"><use fill="#fff" xlink:href="#t8uxa"/></clipPath></defs><g><g transform="translate(-1194 -644)"><g filter="url(#t8uxb)"><use fill="none" stroke-opacity=".2" stroke-width="0" mask="url(&quot;#t8uxc&quot;)" xlink:href="#t8uxa"/><use fill-opacity=".2" xlink:href="#t8uxa"/></g><use fill="#6a9c78" xlink:href="#t8uxa"/><use fill="#fff" fill-opacity="0" stroke="#111" stroke-miterlimit="50" stroke-width="2" clip-path="url(&quot;#t8uxd&quot;)" xlink:href="#t8uxa"/></g></g></svg>