<svg xmlns="http://www.w3.org/2000/svg" xmlns:xlink="http://www.w3.org/1999/xlink" width="39" height="39" viewBox="0 0 39 39"><defs><path id="zol2a" d="M955 547.5c0-10.77 8.73-19.5 19.5-19.5s19.5 8.73 19.5 19.5-8.73 19.5-19.5 19.5-19.5-8.73-19.5-19.5z"/><path id="zol2b" d="M970.575 542.51s.178-3.278 2.185-3.78c2.007-.503 5.359-.071 5.616 2.097.257 2.17.135 3.435.135 3.435s.593.929.164 1.573c-.43.644-1.133 1.56-1.402 2.261-.269.7-.746 1.791-.508 2.214.24.423 4.582 2.045 5.314 2.565.732.521 1.772.958 1.772 1.708s.113 2.413-.586 2.413c-.7 0-16.875-.173-16.875-.173s-1.142-.654-1.042-2.24c.1-1.587 3.587-2.166 4.132-2.637.545-.47 2.976-1.302 2.976-2.31 0-1.01-1.183-1.728-1.527-3.048-.345-1.32-.354-4.079-.354-4.079z"/><path id="zol2c" d="M983.381 553.204c-2.962-1.145-6.25-2.567-6.527-3.452v-.93c.614-.628 1.1-1.505 1.386-2.532.684-.48.864-1.477.29-2.183v-2.08c0-2.147-1.196-3.617-3.93-3.617-2.663 0-3.93 1.47-3.93 3.617v2.081c-.572.704-.394 1.7.29 2.182.287 1.027.772 1.904 1.387 2.532v.93c-.276.884-3.565 2.306-6.527 3.452a.662.662 0 0 0-.42.618v2.324c0 .364.292.661.652.661h17.097c.36 0 .651-.297.651-.661v-2.324a.66.66 0 0 0-.419-.618z"/></defs><g><g transform="translate(-955 -528)"><g><use fill="#fff" xlink:href="#zol2a"/></g><g><g><use fill="#111" xlink:href="#zol2b"/></g><g><use fill="#fff" fill-opacity="0" stroke="#111" stroke-miterlimit="50" xlink:href="#zol2c"/></g><g/></g></g></g></svg>