<svg xmlns="http://www.w3.org/2000/svg" xmlns:xlink="http://www.w3.org/1999/xlink" width="67" height="75" viewBox="0 0 67 75"><defs><path id="czzta" d="M747.29 1630.08a1 1 0 0 1 1-1h46.62a1 1 0 0 1 1 1v33.53a1 1 0 0 1-1 1h-46.62a1 1 0 0 1-1-1z"/><path id="czztb" d="M746.63 1617.92a1 1 0 0 1 1-1h46.89a1 1 0 0 1 1 1v7.35a1 1 0 0 1-1 1h-46.89a1 1 0 0 1-1-1z"/><path id="czztc" d="M751.03 1635.62v-3.74h3.74v3.74z"/><path id="czztd" d="M762.25 1635.62v-3.74h3.74v3.74z"/><path id="czzte" d="M752.9 1651.52v-7.48h6.55v7.48z"/><path id="czztf" d="M778.14 1651.52v-7.48h6.55v7.48z"/><path id="czztg" d="M772.53 1635.62v-3.74h3.74v3.74z"/><path id="czzth" d="M783.75 1635.62v-3.74h3.74v3.74z"/><path id="czzti" d="M765.99 1659.94v-9.35h6.55v9.35z"/><path id="czztj" d="M789.67 1594.47a1 1 0 0 1 1-1h12.12a1 1 0 0 1 1 1v70.13h-13.12a1 1 0 0 1-1-1z"/><path id="czztk" d="M787.838 1616.42c0-.01.003-.021.003-.032v-11.379l5.343-10.686 5.344 10.686v18.283zm10.69 42.714h-2.672v-32.06h2.672zm-55.564-34.731l14.548-9.35h23.265l14.548 9.35zm31.519 34.731v-9.35c0-.738-.598-1.336-1.336-1.336h-8.015c-.737 0-1.336.598-1.336 1.335v9.351h-18.701v-32.06h48.09v32.06zm-2.672 0h-5.343v-8.015h5.343zm29.247-55.037l-6.679-13.359a1.336 1.336 0 0 0-2.39 0l-6.678 13.359c-.093.185-.141.39-.141.597v10.01l-3.285-2.111a1.336 1.336 0 0 0-.723-.212h-24.045c-.256 0-.507.073-.722.212l-18.701 12.022a1.336 1.336 0 0 0 .722 2.46h4.007v33.395c0 .738.599 1.336 1.336 1.336h56.105c.737 0 1.335-.598 1.335-1.336v-55.776a1.34 1.34 0 0 0-.14-.597z"/><path id="czztl" d="M754.453 1635.093h-2.671v-2.671h2.671zm1.336-5.343h-5.343c-.738 0-1.336.598-1.336 1.336v5.343c0 .738.598 1.336 1.336 1.336h5.343c.738 0 1.336-.598 1.336-1.336v-5.343c0-.738-.598-1.336-1.336-1.336z"/><path id="czztm" d="M765.13 1635.093h-2.665v-2.671h2.665zm1.34-5.343h-5.344c-.738 0-1.336.598-1.336 1.336v5.343c0 .738.598 1.336 1.336 1.336h5.343c.738 0 1.336-.598 1.336-1.336v-5.343c0-.738-.598-1.336-1.336-1.336z"/><path id="czztn" d="M775.823 1635.093h-2.671v-2.671h2.671zm1.336-5.343h-5.343c-.738 0-1.336.598-1.336 1.336v5.343c0 .738.598 1.336 1.336 1.336h5.343c.738 0 1.336-.598 1.336-1.336v-5.343c0-.738-.598-1.336-1.336-1.336z"/><path id="czzto" d="M786.513 1635.093h-2.671v-2.671h2.671zm1.336-5.343h-5.343c-.738 0-1.336.598-1.336 1.336v5.343c0 .738.598 1.336 1.336 1.336h5.343c.738 0 1.336-.598 1.336-1.336v-5.343c0-.738-.598-1.336-1.336-1.336z"/><path id="czztp" d="M758.46 1651.12h-4.008v-4.665c0-1.11.899-2.013 2.003-2.013 1.105 0 2.004.903 2.004 2.013v4.666zm-2.005-9.35a4.686 4.686 0 0 0-4.675 4.685v6.002c0 .737.598 1.335 1.336 1.335h6.679c.738 0 1.336-.598 1.336-1.335v-6.002a4.686 4.686 0 0 0-4.676-4.685z"/><path id="czztq" d="M783.84 1651.12h-4.008v-4.665c0-1.11.898-2.013 2.003-2.013s2.004.903 2.004 2.013v4.666zm-2.005-9.35a4.686 4.686 0 0 0-4.675 4.685v6.002c0 .737.598 1.335 1.336 1.335h6.679c.738 0 1.336-.598 1.336-1.335v-6.002a4.686 4.686 0 0 0-4.676-4.685z"/></defs><g><g transform="translate(-737 -1590)"><g><use fill="#fff686" xlink:href="#czzta"/></g><g><use fill="#fff686" xlink:href="#czztb"/></g><g><use fill="#fff" xlink:href="#czztc"/></g><g><use fill="#fff" xlink:href="#czztd"/></g><g><use fill="#fff" xlink:href="#czzte"/></g><g><use fill="#fff" xlink:href="#czztf"/></g><g><use fill="#fff" xlink:href="#czztg"/></g><g><use fill="#fff" xlink:href="#czzth"/></g><g><use fill="#fff" xlink:href="#czzti"/></g><g><use fill="#f8f4e7" xlink:href="#czztj"/></g><g><use fill="#2e2e2e" xlink:href="#czztk"/></g><g><use fill="#2e2e2e" xlink:href="#czztl"/></g><g><use fill="#2e2e2e" xlink:href="#czztm"/></g><g><use fill="#2e2e2e" xlink:href="#czztn"/></g><g><use fill="#2e2e2e" xlink:href="#czzto"/></g><g><use fill="#2e2e2e" xlink:href="#czztp"/></g><g><use fill="#2e2e2e" xlink:href="#czztq"/></g></g></g></svg>