<svg xmlns="http://www.w3.org/2000/svg" xmlns:xlink="http://www.w3.org/1999/xlink" width="181" height="27" viewBox="0 0 181 27"><defs><path id="99rfa" d="M312.299 7507.872c.485 0 .882-.133 1.147-.353.265-.22.397-.53.397-.927v-.044c0-.44-.132-.75-.397-.97-.265-.22-.662-.31-1.147-.31h-1.985v2.604zm-4.015-4.06c0-.22.177-.352.353-.352h3.794c1.147 0 2.03.309 2.647.926.53.53.794 1.192.794 2.074v.044c0 .75-.176 1.324-.53 1.809-.352.485-.837.794-1.41 1.015l1.808 2.647c.176.264 0 .573-.309.573h-1.456c-.132 0-.22-.044-.309-.176l-1.852-2.736h-1.589v2.56c0 .22-.176.352-.353.352h-1.28a.348.348 0 0 1-.352-.353v-8.382z"/><path id="99rfb" d="M318.783 7503.41h6.088c.22 0 .353.176.353.353v1.059c0 .22-.176.353-.353.353h-4.5v1.853h3.927c.22 0 .353.176.353.353v1.058c0 .221-.177.353-.353.353h-3.927v1.897h4.588c.221 0 .353.177.353.353v1.06c0 .22-.176.352-.353.352h-6.176a.348.348 0 0 1-.353-.353v-8.294c0-.22.176-.397.353-.397z"/><path id="99rfc" d="M328.216 7503.41h1.28a.4.4 0 0 1 .308.132l4.147 5.47v-5.205c0-.22.176-.353.353-.353h1.235c.22 0 .353.177.353.353v8.338c0 .22-.176.353-.353.353h-1.103a.4.4 0 0 1-.309-.132l-4.279-5.647v5.426c0 .22-.176.353-.353.353h-1.235a.348.348 0 0 1-.353-.353v-8.338a.33.33 0 0 1 .309-.397z"/><path id="99rfd" d="M340.975 7505.269h-2.382a.348.348 0 0 1-.353-.353v-1.103c0-.22.176-.353.353-.353h6.794c.22 0 .353.176.353.353v1.103c0 .22-.176.353-.353.353h-2.382v6.882c0 .22-.177.353-.353.353h-1.28a.348.348 0 0 1-.353-.353v-6.882z"/><path id="99rfe" d="M233.5 7503.41h1.28c.22 0 .352.176.352.353v8.338c0 .22-.176.353-.353.353h-1.28a.348.348 0 0 1-.352-.353v-8.294c-.044-.22.132-.397.353-.397z"/><path id="99rff" d="M238.483 7503.41h1.28c.22 0 .352.176.352.353v6.926h4.147c.22 0 .353.177.353.353v1.06c0 .22-.176.352-.353.352h-5.78a.348.348 0 0 1-.352-.353v-8.294c0-.22.176-.397.353-.397z"/><path id="99rfg" d="M247.263 7503.41h1.28c.22 0 .352.176.352.353v6.926h4.147c.22 0 .353.177.353.353v1.06c0 .22-.176.352-.353.352h-5.78a.348.348 0 0 1-.352-.353v-8.294c0-.22.176-.397.353-.397z"/><path id="99rfh" d="M260.892 7508.708l-1.19-2.956-1.192 2.956zm-1.853-5.338h1.368c.132 0 .265.088.353.22l3.574 8.427c.088.265-.089.53-.353.53h-1.28c-.132 0-.309-.089-.353-.221l-.75-1.809h-3.838l-.75 1.809c-.044.132-.176.22-.353.22h-1.191c-.265 0-.441-.264-.353-.529l3.573-8.426c.089-.133.221-.221.353-.221z"/><path id="99rfi" d="M269.942 7512.673a6.331 6.331 0 0 1-2.03-.353c-.573-.176-1.058-.485-1.544-.838-.176-.133-.176-.353-.044-.53l.706-.838c.133-.132.353-.176.486-.044.308.22.661.441 1.014.574.441.22.927.308 1.456.308.397 0 .75-.088.97-.22a.704.704 0 0 0 .354-.618v-.044a.831.831 0 0 0-.089-.353.75.75 0 0 0-.264-.265 2.36 2.36 0 0 0-.574-.264 6.282 6.282 0 0 0-.926-.265c-.441-.132-.883-.22-1.236-.397-.353-.132-.705-.309-.97-.53a2.557 2.557 0 0 1-.618-.75 2.79 2.79 0 0 1-.22-1.147v-.044c0-.397.088-.794.22-1.103.177-.353.353-.617.662-.882a3.21 3.21 0 0 1 1.015-.574c.397-.132.838-.176 1.279-.176.662 0 1.28.088 1.853.309.441.176.838.353 1.235.617.177.133.22.353.089.53l-.618.926c-.132.177-.353.22-.485.089-.31-.177-.618-.353-.883-.442-.397-.176-.794-.22-1.191-.22s-.662.088-.882.22c-.177.133-.31.353-.31.574v.044c0 .132.045.265.09.397.043.088.176.22.308.309.132.088.353.176.618.265.264.088.573.176.97.264.441.133.883.265 1.235.397.353.133.662.353.927.53.265.22.441.441.573.75.133.265.177.617.177 1.015v.044c0 .44-.088.838-.265 1.19-.176.354-.397.663-.706.883-.308.22-.661.441-1.058.53-.398.044-.839.132-1.324.132z"/><path id="99rfj" d="M285.082 7510.814c.398 0 .751-.088 1.105-.22s.619-.352.884-.617c.22-.264.442-.572.574-.88.133-.353.221-.705.221-1.101v-.045c0-.396-.088-.748-.22-1.1a2.513 2.513 0 0 0-.575-.925c-.265-.265-.53-.485-.884-.617a3.087 3.087 0 0 0-1.105-.22c-.398 0-.796.088-1.105.22a1.99 1.99 0 0 0-.84.617c-.22.264-.442.572-.574.88a3.057 3.057 0 0 0-.221 1.101v.044c0 .397.088.75.22 1.101.133.353.31.661.575.925.266.265.53.485.884.617.265.176.663.22 1.061.22zm-.05 1.863a5.43 5.43 0 0 1-1.94-.353c-.574-.265-1.103-.573-1.544-1.015-.442-.44-.75-.926-1.015-1.5a5.075 5.075 0 0 1-.353-1.808v-.045c0-.661.132-1.279.353-1.808.22-.574.573-1.06 1.015-1.5.44-.442.926-.75 1.544-1.015.573-.265 1.235-.353 1.94-.353a5.43 5.43 0 0 1 1.942.353c.574.265 1.103.573 1.544 1.015.441.44.75.926 1.015 1.5.22.573.353 1.19.353 1.808v.045a4.72 4.72 0 0 1-.353 1.808c-.22.574-.574 1.06-1.015 1.5-.44.442-.926.75-1.544 1.015a5.43 5.43 0 0 1-1.941.353z"/><path id="99rfk" d="M292.79 7503.41h1.28a.4.4 0 0 1 .308.132l4.147 5.47v-5.205c0-.22.177-.353.353-.353h1.235c.22 0 .353.177.353.353v8.338c0 .22-.176.353-.353.353h-1.147a.4.4 0 0 1-.309-.132l-4.279-5.647v5.426c0 .22-.176.353-.353.353h-1.235a.348.348 0 0 1-.353-.353v-8.338c-.044-.22.132-.397.353-.397z"/><path id="99rfl" d="M229.701 7503.41h-1.28a.348.348 0 0 0-.352.353v3l-2.162 3.176-2.162-3.176v-2.912a.348.348 0 0 0-.353-.353h-1.28a.348.348 0 0 0-.352.353v3.265l3.22 5.118c.089.132.221.176.354.176h1.19c.133 0 .265-.088.354-.176l3.22-5.118v-3.265c0-.265-.176-.441-.397-.441z"/><path id="99rfm" d="M206.805 7495h-11.057c-.23 0-.5.12-.653.278l-8.715 9.013 6.028 6.234a.947.947 0 0 1 .268.675c-.038 1.588-.115 7.425-.038 9.768 0 .556-.422.992-.921.992h.384c.23 0 .499-.119.652-.278l14.743-15.247a.947.947 0 0 0 .269-.675v-9.807c-.039-.516-.46-.953-.96-.953z"/><path id="99rfn" d="M180.127 7521.007c.038-2.342-.039-8.18-.039-9.767 0-.278.077-.516.27-.675l6.027-6.234-8.754-9.053a.911.911 0 0 0-.652-.278H165.92c-.499 0-.921.437-.921.953v9.807c0 .239.115.516.269.675l14.743 15.247a.884.884 0 0 0 .652.278h.384c-.499.04-.921-.436-.921-.953z"/><path id="99rfo" d="M192.606 7521.006c-.038-2.342.038-8.18.038-9.767 0-.278-.076-.517-.268-.675l-5.99-6.274-6.027 6.234a.947.947 0 0 0-.269.675c.038 1.588.115 7.425.038 9.767 0 .556.423.993.922.993h10.596c.538.04.96-.437.96-.953z"/></defs><g><g transform="translate(-165 -7495)"><g><use fill="#6a6a6a" xlink:href="#99rfa"/></g><g><use fill="#6a6a6a" xlink:href="#99rfb"/></g><g><use fill="#6a6a6a" xlink:href="#99rfc"/></g><g><use fill="#6a6a6a" xlink:href="#99rfd"/></g><g><use fill="#6a6a6a" xlink:href="#99rfe"/></g><g><use fill="#6a6a6a" xlink:href="#99rff"/></g><g><use fill="#6a6a6a" xlink:href="#99rfg"/></g><g><use fill="#6a6a6a" xlink:href="#99rfh"/></g><g><use fill="#6a6a6a" xlink:href="#99rfi"/></g><g><use fill="#6a6a6a" xlink:href="#99rfj"/></g><g><use fill="#6a6a6a" xlink:href="#99rfk"/></g><g><use fill="#6a6a6a" xlink:href="#99rfl"/></g><g><use fill="#8c8c8c" xlink:href="#99rfm"/></g><g><use fill="#8c8c8c" xlink:href="#99rfn"/></g><g><use fill="#dbdbdb" xlink:href="#99rfo"/></g></g></g></svg>