<svg xmlns="http://www.w3.org/2000/svg" xmlns:xlink="http://www.w3.org/1999/xlink" width="15" height="15" viewBox="0 0 15 15"><defs><path id="8kb4a" d="M789 2161v-24h24v24z"/><path id="8kb4b" d="M805.866 2152.59c-.181.512-.9.936-1.472 1.06-.392.083-.904.15-2.627-.565-2.204-.913-3.623-3.153-3.734-3.298-.106-.145-.89-1.186-.89-2.262 0-1.077.546-1.6.766-1.826.181-.184.48-.269.767-.269.093 0 .176.005.251.009.22.01.331.022.477.37.18.436.621 1.512.674 1.623.053.11.107.26.032.406-.07.15-.132.216-.243.344-.11.127-.216.225-.326.362-.102.119-.216.246-.088.467.127.215.568.934 1.216 1.512.838.745 1.516.983 1.76 1.084.18.075.396.058.528-.083.168-.18.375-.48.586-.776.15-.212.34-.238.538-.163.202.07 1.274.6 1.494.71.22.11.366.162.42.255.052.093.052.53-.13 1.04zm-4.364-10.59h-.004c-4.135 0-7.498 3.364-7.498 7.5 0 1.64.529 3.161 1.428 4.396l-.935 2.786 2.883-.921a7.435 7.435 0 0 0 4.126 1.239c4.135 0 7.498-3.365 7.498-7.5s-3.363-7.5-7.498-7.5z"/></defs><g><g transform="translate(-794 -2142)"><g><use fill="#d8d8d8" xlink:href="#8kb4a"/></g><g><use fill="#6a6a6a" xlink:href="#8kb4b"/></g></g></g></svg>