<svg xmlns="http://www.w3.org/2000/svg" xmlns:xlink="http://www.w3.org/1999/xlink" width="19" height="19" viewBox="0 0 19 19"><defs><path id="wx5ta" d="M764.767 507.332c-2.117-.496-4.267-2.957-4.267-6.114 0-3.296 2.538-6.138 5.493-6.138h5.415c2.955 0 5.35 2.823 5.35 6.12 0 3.263-2.395 6.12-5.35 6.12h-1.706l-4.935 4.162v-4.15z"/><path id="wx5tb" d="M763.74 501.135c0-.643.513-1.165 1.145-1.165s1.145.522 1.145 1.165-.513 1.165-1.145 1.165a1.155 1.155 0 0 1-1.145-1.165z"/><path id="wx5tc" d="M767.33 501.135c0-.643.513-1.165 1.145-1.165s1.145.522 1.145 1.165-.513 1.165-1.145 1.165a1.155 1.155 0 0 1-1.145-1.165z"/><path id="wx5td" d="M770.91 501.135c0-.643.513-1.165 1.145-1.165s1.145.522 1.145 1.165-.513 1.165-1.145 1.165a1.155 1.155 0 0 1-1.145-1.165z"/></defs><g><g transform="translate(-759 -494)"><g><g><use fill="#fff" fill-opacity="0" stroke="#111" stroke-linecap="round" stroke-linejoin="round" stroke-miterlimit="50" xlink:href="#wx5ta"/></g><g><use fill="#fff" fill-opacity="0" stroke="#111" stroke-linecap="round" stroke-linejoin="round" stroke-miterlimit="50" xlink:href="#wx5tb"/></g><g><use fill="#fff" fill-opacity="0" stroke="#111" stroke-linecap="round" stroke-linejoin="round" stroke-miterlimit="50" xlink:href="#wx5tc"/></g><g><use fill="#fff" fill-opacity="0" stroke="#111" stroke-linecap="round" stroke-linejoin="round" stroke-miterlimit="50" xlink:href="#wx5td"/></g></g><g/></g></g></svg>